<svg width="21" height="18" viewBox="0 0 21 18" fill="none" xmlns="http://www.w3.org/2000/svg">
<g opacity="0.5">
<path d="M10.1346 4.00891C11.241 4.00891 12.139 3.11091 12.139 2.00445C12.139 0.897996 11.241 0 10.1346 0C9.02812 0 8.13013 0.897996 8.13013 2.00445C8.13013 3.1029 9.02812 4.00891 10.1346 4.00891ZM10.1346 0.817818C10.784 0.817818 11.3212 1.34699 11.3212 2.00445C11.3212 2.6539 10.792 3.19109 10.1346 3.19109C9.48514 3.19109 8.94794 2.66192 8.94794 2.00445C8.95596 1.34699 9.48514 0.817818 10.1346 0.817818Z" fill="white"/>
<path d="M5.77283 11.7942C5.60445 11.8343 5.47617 11.9866 5.46815 12.163L5.16348 16.8534C5.15546 17.0378 5.00312 17.1741 4.81871 17.1741H2.49354C2.30913 17.1741 2.15679 17.0298 2.14878 16.8534L1.83608 12.171C1.82806 12.0026 1.7078 11.8583 1.54744 11.8102C1.45924 11.7862 1.20267 11.706 1.16258 11.6579C1.13051 11.6098 1.11448 11.3452 1.10646 11.2089L0.825835 6.24584C1.22673 6.12558 1.88419 5.91711 2.22895 5.80486L3.3755 6.87925C3.53586 7.02357 3.77639 7.02357 3.93675 6.87925L5.0833 5.80486C5.19555 5.83693 5.33185 5.88504 5.48419 5.93315C5.70067 6.00531 5.93319 5.88504 5.99733 5.66856C6.06949 5.45208 5.94922 5.21956 5.73274 5.15542C5.38797 5.04317 5.10735 4.95498 5.10735 4.95498C4.96303 4.90687 4.81069 4.94696 4.69844 5.04317L3.65613 6.02135L2.61381 5.04317C2.50156 4.93894 2.34922 4.90687 2.2049 4.95498C2.2049 4.95498 1.10646 5.30776 0.553229 5.47613C0.208463 5.58036 0 5.85297 0 6.21377C0 6.23783 0 6.30197 0 6.30197L0.272606 11.1928C0.272606 11.1928 0.272606 11.265 0.280624 11.281C0.328731 12.0026 0.432962 12.2672 1.0343 12.4997L1.32294 16.9095C1.36303 17.5189 1.87617 18 2.48552 18H4.81069C5.42004 18 5.93319 17.5189 5.97327 16.9095L6.26993 12.3394C6.30201 12.2592 6.30201 12.163 6.27795 12.0748C6.22183 11.8583 5.98931 11.738 5.77283 11.7942Z" fill="white"/>
<path d="M3.64813 4.28943C4.75459 4.28943 5.65259 3.39143 5.65259 2.28497C5.65259 1.17851 4.75459 0.280518 3.64813 0.280518C2.54167 0.280518 1.64368 1.17851 1.64368 2.28497C1.64368 3.39143 2.54969 4.28943 3.64813 4.28943ZM3.64813 1.10635C4.29757 1.10635 4.83477 1.63553 4.83477 2.29299C4.83477 2.95045 4.30559 3.47963 3.64813 3.47963C2.99869 3.47963 2.46149 2.95045 2.46149 2.29299C2.46149 1.63553 2.99869 1.10635 3.64813 1.10635Z" fill="white"/>
<path d="M13.2374 5.46002C12.6842 5.29165 11.5857 4.93886 11.5857 4.93886C11.4414 4.89075 11.2891 4.93084 11.1768 5.02706L10.1345 6.00523L9.0922 5.02706C8.97995 4.92283 8.82761 4.89075 8.68329 4.93886C8.68329 4.93886 7.58485 5.29165 7.03162 5.46002C6.67884 5.56425 6.47839 5.83686 6.47839 6.19766L6.751 11.1928L6.75902 11.2729C6.80712 11.9945 6.91136 12.2671 7.51269 12.4916L7.80133 16.9014C7.84142 17.5108 8.35456 17.9919 8.96392 17.9919H11.2971C11.9065 17.9919 12.4196 17.5108 12.4597 16.9014L12.7483 12.4916C13.3497 12.2591 13.4539 11.9865 13.502 11.2729L13.7826 6.26982V6.19766C13.7906 5.82884 13.5902 5.56425 13.2374 5.46002ZM12.6922 11.1286L12.6842 11.2088C12.6762 11.3371 12.6601 11.5937 12.6281 11.6418C12.588 11.6899 12.3234 11.77 12.2352 11.7941C12.0748 11.8422 11.9546 11.9865 11.9465 12.1629L11.6419 16.8453C11.6339 17.0297 11.4815 17.166 11.2971 17.166H8.96392C8.77951 17.166 8.63519 17.0217 8.61915 16.8453L8.31447 12.1629C8.30646 11.9945 8.18619 11.8502 8.02583 11.7941C7.93764 11.77 7.68107 11.6899 7.64098 11.6418C7.60891 11.5937 7.59287 11.3291 7.58485 11.2088L7.30423 6.24577V6.22171C7.70512 6.10145 8.36258 5.89298 8.70735 5.78073L9.85389 6.85512C10.0143 6.99944 10.2548 6.99944 10.4151 6.85512L11.5617 5.78875C11.9065 5.901 12.5639 6.10946 12.9648 6.22973L12.6922 11.1286Z" fill="white"/>
<path d="M19.7239 5.46002C19.1707 5.29165 18.0722 4.93886 18.0722 4.93886C17.9279 4.89075 17.7756 4.93084 17.6633 5.02706L16.621 6.00523L15.5787 5.02706C15.4664 4.92283 15.3141 4.89075 15.1698 4.93886C15.1698 4.93886 14.8891 5.02706 14.5444 5.13931C14.3279 5.21147 14.2076 5.43597 14.2798 5.65245C14.3519 5.86893 14.5764 5.9892 14.7929 5.91704C14.9453 5.86893 15.0816 5.82082 15.1938 5.78875L16.3404 6.86314C16.5007 7.00746 16.7413 7.00746 16.9016 6.86314L18.0482 5.78875C18.3929 5.901 19.0424 6.10145 19.4513 6.22973L19.1787 11.1286L19.1707 11.2088C19.1626 11.3371 19.1466 11.5937 19.1145 11.6418C19.0744 11.6899 18.8099 11.77 18.7217 11.7941C18.5613 11.8422 18.441 11.9865 18.433 12.1629L18.1283 16.8453C18.1123 17.0297 17.96 17.166 17.7836 17.166H15.4504C15.274 17.166 15.1217 17.0217 15.1056 16.8453L14.7929 12.1629C14.7849 11.9945 14.6486 11.8502 14.4883 11.7941C14.2718 11.7219 14.0553 11.8422 13.9831 12.0587C13.9591 12.1389 13.9591 12.2271 13.9831 12.2992L14.2878 16.9014C14.3279 17.5108 14.833 17.9919 15.4504 17.9919H17.7836C18.3929 17.9919 18.9061 17.5108 18.9462 16.9014L19.2348 12.4916C19.8361 12.2591 19.9404 11.9945 19.9885 11.281C19.9885 11.2489 19.9965 11.1767 19.9965 11.1767L20.2691 6.2618V6.18964C20.2691 5.83686 20.0687 5.56425 19.7239 5.46002Z" fill="white"/>
<path d="M16.6209 4.28943C17.7274 4.28943 18.6254 3.39143 18.6254 2.28497C18.6254 1.17851 17.7274 0.280518 16.6209 0.280518C15.5145 0.280518 14.6165 1.17851 14.6165 2.28497C14.6165 3.39143 15.5145 4.28943 16.6209 4.28943ZM16.6209 1.10635C17.2704 1.10635 17.8075 1.63553 17.8075 2.29299C17.8075 2.95045 17.2784 3.47963 16.6209 3.47963C15.9715 3.47963 15.4343 2.95045 15.4343 2.29299C15.4343 1.63553 15.9634 1.10635 16.6209 1.10635Z" fill="white"/>
</g>
</svg>