<svg  viewBox="0 0 27 28" xmlns="http://www.w3.org/2000/svg">
        <path d="M17.1196 27.1335C16.8904 27.1335 16.6805 27.0013 16.5822 26.7926L11.576 16.1526L1.1548 11.3626C0.936898 11.2625 0.800633 11.041 0.809242 10.8012C0.818149 10.5613 0.970445 10.3505 1.19518 10.2668L25.9284 1.03191C26.1449 0.951456 26.3892 1.00341 26.5534 1.1661C26.7181 1.32878 26.7727 1.57252 26.6944 1.79013L17.678 26.7416C17.5966 26.9675 17.387 27.1216 17.1472 27.1329C17.1377 27.1332 17.1285 27.1335 17.1196 27.1335ZM2.94793 10.8798L12.2686 15.1643C12.396 15.2228 12.4984 15.3244 12.5581 15.4508L17.0474 24.9921L25.1414 2.59347L2.94793 10.8798Z" fill="#fff"></path>
        <path d="M12.021 16.2972C11.869 16.2972 11.7173 16.2393 11.6012 16.1233C11.3694 15.8917 11.3694 15.5156 11.6012 15.2837L25.7162 1.16848C25.948 0.936618 26.3239 0.936618 26.5557 1.16848C26.7876 1.40034 26.7876 1.77618 26.5557 2.00804L12.4408 16.1233C12.3247 16.2393 12.173 16.2972 12.021 16.2972Z" fill="#fff"></path>
</svg>