<svg id="block23_11" viewBox="0 0 95 82" version="1.1" xmlns="http://www.w3.org/2000/svg"><g id="#ffffffff"><path fill="#ffffff" opacity="1.00" d=" M 47.03 0.00 L 61.05 0.00 C 62.71 1.34 64.69 2.74 64.91 5.07 C 65.16 8.57 64.56 12.17 65.60 15.59 C 66.90 13.76 69.33 14.85 71.19 14.50 C 71.18 12.96 71.18 11.42 71.18 9.88 C 76.50 9.87 81.81 9.87 87.12 9.88 C 87.12 11.40 87.12 12.93 87.12 14.45 C 90.20 14.34 93.91 14.74 95.00 18.18 L 95.00 77.21 C 94.35 79.39 92.46 81.22 90.06 81.02 C 62.01 81.12 33.95 81.04 5.90 81.06 C 3.28 81.40 0.84 79.92 0.00 77.41 L 0.00 18.46 C 0.79 14.76 4.75 14.33 7.88 14.45 C 7.88 12.93 7.88 11.40 7.88 9.88 C 13.17 9.87 18.46 9.87 23.75 9.88 C 23.75 11.44 23.75 13.00 23.76 14.56 C 25.86 14.56 27.96 14.56 30.07 14.56 C 30.19 10.89 29.65 7.14 30.43 3.53 C 33.31 -2.67 42.00 2.00 47.03 0.00 M 34.05 3.94 C 32.42 7.05 33.71 11.09 33.32 14.56 C 42.77 14.56 52.23 14.56 61.68 14.56 C 61.61 11.24 61.91 7.88 61.51 4.58 C 61.15 4.35 60.43 3.89 60.07 3.66 C 51.41 3.68 42.63 3.13 34.05 3.94 M 11.11 13.09 C 11.10 13.45 11.09 14.17 11.08 14.53 C 14.43 14.56 17.80 14.71 21.14 14.30 C 18.73 11.75 14.35 13.60 11.11 13.09 M 74.67 13.15 L 74.08 14.44 C 77.36 14.63 80.64 14.57 83.92 14.54 C 83.91 14.17 83.90 13.45 83.89 13.09 C 80.82 13.08 77.74 12.95 74.67 13.15 M 3.73 17.84 C 3.18 19.50 3.11 21.25 3.17 22.98 C 3.29 40.90 3.02 58.83 3.30 76.74 C 5.50 79.05 9.65 77.28 12.63 77.80 C 12.62 57.81 12.62 37.81 12.62 17.81 C 9.66 17.83 6.69 17.80 3.73 17.84 M 15.88 17.82 C 15.88 37.82 15.88 57.81 15.88 77.81 C 36.96 77.81 58.04 77.81 79.12 77.81 C 79.12 57.81 79.12 37.82 79.12 17.82 C 58.04 17.81 36.96 17.81 15.88 17.82 M 82.37 77.80 C 85.20 77.78 88.03 77.94 90.85 77.71 C 92.22 76.99 91.68 75.26 91.83 74.04 C 91.80 58.05 91.82 42.05 91.81 26.06 C 91.74 23.32 92.16 20.49 91.26 17.83 C 88.30 17.80 85.34 17.84 82.38 17.81 C 82.37 37.81 82.38 57.81 82.37 77.80 Z"></path></g></svg>