<svg id="block23_20" viewBox="0 0 100 113" version="1.1" xmlns="http://www.w3.org/2000/svg"><g id="#ffffffff"><path fill="#ffffff" opacity="1.00" d=" M 48.97 0.00 L 50.93 0.00 C 51.86 0.75 52.28 1.73 52.18 2.92 C 52.26 6.15 52.16 9.38 52.10 12.61 C 65.50 13.35 78.59 19.34 87.47 29.47 C 94.66 37.49 99.13 47.88 100.00 58.62 L 100.00 67.26 C 98.75 83.72 88.70 99.15 74.18 106.99 C 64.23 112.70 52.33 114.06 41.11 112.37 C 27.82 110.00 15.68 101.95 8.31 90.65 C 3.01 82.71 0.19 73.22 0.00 63.69 L 0.00 61.49 C 0.37 50.05 4.65 38.75 12.18 30.10 C 21.06 19.61 34.38 13.39 48.04 12.60 C 48.24 8.43 46.89 3.83 48.97 0.00 M 7.38 46.11 C 2.22 59.08 3.41 74.40 10.62 86.37 C 18.41 99.77 33.40 108.78 48.95 108.89 C 58.98 109.27 69.06 106.06 77.12 100.11 C 88.78 91.67 96.19 77.48 95.91 63.02 C 96.14 52.32 92.19 41.69 85.36 33.49 C 77.25 23.68 64.92 17.39 52.16 17.00 C 52.18 20.25 52.21 23.49 52.09 26.74 C 62.00 27.57 71.62 32.19 77.89 39.99 C 86.94 50.72 88.65 66.84 82.20 79.28 C 77.05 89.62 66.63 97.14 55.16 98.66 C 45.79 100.06 35.90 97.49 28.38 91.72 C 19.51 85.08 14.02 74.12 14.15 63.02 C 13.99 53.13 18.28 43.35 25.47 36.59 C 31.50 30.84 39.55 27.57 47.80 26.79 C 48.20 23.58 47.72 20.29 48.03 17.05 C 30.26 17.40 13.70 29.61 7.38 46.11 M 18.38 65.11 C 19.14 81.59 34.48 95.68 51.00 94.79 C 67.62 94.71 82.27 79.64 81.86 63.03 C 82.36 46.74 68.40 31.86 52.16 31.11 C 52.21 43.79 52.15 56.47 52.18 69.15 C 57.00 64.70 61.30 59.69 66.20 55.34 C 68.06 53.81 70.96 57.15 68.66 58.59 C 62.41 64.63 56.70 71.29 50.00 76.84 C 43.49 71.10 37.60 64.68 31.46 58.56 C 29.70 57.11 31.44 55.22 32.94 54.57 C 38.49 58.92 42.91 64.55 48.18 69.24 C 47.60 56.54 48.02 43.82 47.95 31.11 C 30.96 31.91 16.80 48.17 18.38 65.11 Z"></path></g></svg>