<svg fill="#ffffff" id="block23_21" version="1.1" xmlns="http://www.w3.org/2000/svg" xmlns:xlink="http://www.w3.org/1999/xlink" xmlns:a="http://ns.adobe.com/AdobeSVGViewerExtensions/3.0/" x="0px" y="0px" width="63.5px" height="61.4px" viewBox="0 0 63.5 61.4" style="enable-background:new 0 0 63.5 61.4;" xml:space="preserve"><style type="text/css"></style><path class="st0" d="M7.1,44.1c-0.7,0-1.3-0.6-1.3-1.3V25c0-0.7,0.6-1.3,1.3-1.3h21.7c0.7,0,1.3,0.6,1.3,1.3v17.8      c0,0.7-0.6,1.3-1.3,1.3H7.1z M8.4,41.5h19.1V26.3H8.4V41.5z"></path><path class="st0" d="M14.7,32.5c-0.7,0-1.3-0.6-1.3-1.3v-5.3H16v4h3.7v-4h2.7v5.3c0,0.7-0.6,1.3-1.3,1.3H14.7z"></path><path d="M35.1,44.1c-0.7,0-1.3-0.6-1.3-1.3V25c0-0.7,0.6-1.3,1.3-1.3h22.4c0.7,0,1.3,0.6,1.3,1.3v17.8c0,0.7-0.6,1.3-1.3,1.3H35.1z      M36.4,41.5h19.8V26.3H36.4V41.5z"></path><path d="M42.7,32.5c-0.7,0-1.3-0.6-1.3-1.3v-5.3H44v4h4.5v-4h2.7v5.3c0,0.7-0.6,1.3-1.3,1.3H42.7z"></path><path d="M20.5,20.5c-0.7,0-1.3-0.6-1.3-1.3V1.3c0-0.7,0.6-1.3,1.3-1.3h22.4c0.7,0,1.3,0.6,1.3,1.3v17.8c0,0.7-0.6,1.3-1.3,1.3H20.5z      M21.8,17.8h19.8V2.7H21.8V17.8z"></path><path d="M28.2,8.8c-0.7,0-1.3-0.6-1.3-1.3V2.2h2.7v4h4.4v-4h2.7v5.3c0,0.7-0.6,1.3-1.3,1.3H28.2z"></path><path d="M1.3,61.4c-0.7,0-1.3-0.6-1.3-1.3s0.6-1.3,1.3-1.3h60.8c0.7,0,1.3,0.6,1.3,1.3s-0.6,1.3-1.3,1.3H1.3z"></path><path d="M1.3,50.2c-0.7,0-1.3-0.6-1.3-1.3s0.6-1.3,1.3-1.3h60.8c0.7,0,1.3,0.6,1.3,1.3s-0.6,1.3-1.3,1.3H1.3z"></path><rect x="30.4" y="49.7" width="2.7" height="9.5"></rect><rect x="52" y="49.7" width="2.7" height="9.5"></rect><rect x="8.8" y="49.7" width="2.7" height="9.5"></rect></svg>