<?xml version="1.0" encoding="UTF-8" ?>
<!DOCTYPE svg PUBLIC "-//W3C//DTD SVG 1.1//EN" "http://www.w3.org/Graphics/SVG/1.1/DTD/svg11.dtd">
<svg width="288pt" height="236pt" viewBox="0 0 288 236" version="1.1" xmlns="http://www.w3.org/2000/svg">
<g id="#ffffffff">
<path fill="#ffffff" opacity="1.00" d=" M 50.75 0.00 L 96.75 0.00 C 96.75 23.08 96.74 46.16 96.75 69.25 C 102.67 69.26 108.59 69.24 114.50 69.26 C 114.49 87.18 114.53 105.10 114.48 123.02 C 114.15 126.21 116.47 128.71 117.70 131.44 C 121.74 139.58 125.93 147.64 130.03 155.75 C 132.68 155.75 135.34 155.75 137.99 155.75 C 138.02 109.58 137.98 63.42 138.01 17.25 C 188.01 17.26 238.00 17.25 288.00 17.25 L 288.00 236.00 L 52.70 236.00 C 35.10 197.91 17.53 159.79 0.00 121.67 L 0.00 121.23 C 11.16 121.28 22.33 121.24 33.49 121.25 C 33.51 103.92 33.50 86.59 33.49 69.26 C 39.24 69.23 44.99 69.26 50.75 69.25 C 50.75 46.16 50.75 23.08 50.75 0.00 M 62.25 11.01 C 62.26 18.75 62.25 26.50 62.25 34.25 C 70.00 34.26 77.74 34.25 85.49 34.25 C 85.51 26.51 85.49 18.76 85.50 11.01 C 77.75 10.99 70.00 11.00 62.25 11.01 M 149.50 28.50 C 149.50 47.75 149.50 67.00 149.51 86.25 C 192.00 86.25 234.50 86.25 277.00 86.25 C 277.00 67.00 277.00 47.75 277.00 28.50 C 234.50 28.50 192.00 28.50 149.50 28.50 M 62.25 45.75 C 62.26 53.59 62.23 61.42 62.27 69.26 C 70.01 69.24 77.75 69.25 85.49 69.25 C 85.50 61.42 85.50 53.58 85.49 45.75 C 77.74 45.75 70.00 45.74 62.25 45.75 M 44.75 80.25 C 44.74 93.92 44.75 107.58 44.75 121.25 C 64.33 121.25 83.91 121.25 103.49 121.25 C 103.51 107.59 103.48 93.93 103.51 80.26 C 83.92 80.23 64.34 80.26 44.75 80.25 M 149.51 97.75 C 149.50 117.08 149.50 136.42 149.51 155.75 C 192.00 155.75 234.50 155.75 276.99 155.75 C 277.01 136.42 277.00 117.08 277.00 97.75 C 234.50 97.75 192.00 97.75 149.51 97.75 M 17.25 132.23 C 31.56 163.12 45.79 194.05 59.98 224.99 C 132.32 225.01 204.66 224.99 277.00 225.00 C 277.00 205.58 277.00 186.17 277.00 166.75 C 225.73 166.76 174.46 166.72 123.19 166.78 C 117.19 155.35 111.42 143.80 105.65 132.26 C 76.18 132.23 46.72 132.28 17.25 132.23 Z" />
<path fill="#ffffff" opacity="1.00" d=" M 173.00 43.00 C 176.67 43.00 180.33 43.00 184.00 43.00 C 183.99 52.50 184.02 62.01 183.99 71.51 C 180.31 71.44 176.63 71.61 172.96 71.42 C 173.06 61.95 172.97 52.47 173.00 43.00 Z" />
<path fill="#ffffff" opacity="1.00" d=" M 207.49 43.01 C 211.16 42.99 214.83 42.99 218.51 43.01 C 218.49 52.51 218.51 62.00 218.50 71.50 C 214.83 71.50 211.17 71.50 207.50 71.50 C 207.49 62.00 207.51 52.51 207.49 43.01 Z" />
<path fill="#ffffff" opacity="1.00" d=" M 242.00 43.00 C 245.75 43.00 249.50 43.00 253.25 43.00 C 253.25 52.50 253.25 62.00 253.25 71.49 C 249.50 71.51 245.76 71.49 242.01 71.51 C 241.98 62.01 242.01 52.50 242.00 43.00 Z" />
<path fill="#ffffff" opacity="1.00" d=" M 173.01 112.49 C 176.68 112.51 180.34 112.49 184.00 112.50 C 184.00 122.00 184.00 131.50 184.00 141.00 C 180.33 141.00 176.67 141.00 173.00 141.00 C 173.01 131.50 172.98 121.99 173.01 112.49 Z" />
<path fill="#ffffff" opacity="1.00" d=" M 207.50 112.50 C 211.17 112.49 214.83 112.49 218.50 112.50 C 218.51 122.00 218.49 131.49 218.51 140.99 C 214.82 140.98 211.13 141.09 207.45 140.91 C 207.57 131.44 207.46 121.97 207.50 112.50 Z" />
<path fill="#ffffff" opacity="1.00" d=" M 242.00 112.50 C 245.75 112.49 249.50 112.49 253.25 112.51 C 253.25 122.00 253.25 131.50 253.25 141.00 C 249.50 141.00 245.75 141.00 242.00 141.00 C 242.00 131.50 242.00 122.00 242.00 112.50 Z" />
</g>
</svg>
