<!-- Generator: Adobe Illustrator 22.1.0, SVG Export Plug-In  -->
<svg version="1.1"
	 xmlns="http://www.w3.org/2000/svg" xmlns:xlink="http://www.w3.org/1999/xlink" xmlns:a="http://ns.adobe.com/AdobeSVGViewerExtensions/3.0/"
	 x="0px" y="0px" width="67.3px" height="67.3px" viewBox="0 0 67.3 67.3" style="enable-background:new 0 0 67.3 67.3;"
	 xml:space="preserve">
<style type="text/css">
	*{fill:#fff;}
</style>
<defs>
</defs>
<path class="st0" d="M44.4,21.1c-4.2,0-7.7-3.5-7.7-7.7s3.5-7.7,7.7-7.7s7.7,3.5,7.7,7.7S48.7,21.1,44.4,21.1z M44.4,8.3
	c-2.8,0-5.1,2.3-5.1,5.1s2.3,5.1,5.1,5.1s5.1-2.3,5.1-5.1S47.2,8.3,44.4,8.3z"/>
<path d="M66,67.3c-0.1,0-0.3,0-0.4-0.1l-20.7-6.2c-0.1,0.1-0.3,0.1-0.4,0.1s-0.3,0-0.4-0.1c-1.4,0.4-20.7,6.1-20.7,6.2
	c-0.1,0-0.1,0-0.2,0c-0.1,0-0.1,0-0.2,0c-0.1,0-0.1,0-0.2,0c-0.1,0-0.1,0-0.2,0L0.9,60.8C0.4,60.7,0,60.2,0,59.6V16.5
	c0-0.4,0.2-0.8,0.5-1c0.2-0.2,0.5-0.3,0.8-0.3c0.1,0,0.3,0,0.4,0.1l21.2,6.3l9.3-2.8c-0.8-2-1.2-3.8-1.2-5.3C31,6,37,0,44.4,0
	s13.4,6,13.4,13.4c0,1.6-0.4,3.4-1.2,5.3l9.7,2.9c0.6,0.2,0.9,0.7,0.9,1.3V66c0,0.4-0.2,0.8-0.5,1C66.5,67.2,66.3,67.3,66,67.3z
	 M21.6,64.2V45.4l-5.7-1.7c0,0-0.1,0-0.1,0L2.6,39.8v18.8L21.6,64.2z M64.7,64.2V45.4l-18.9-5.6v18.8L64.7,64.2z M24.2,64.2
	l18.9-5.6V39.8l-18.9,5.6V64.2z M64.7,42.7V23.8l-9.1-2.7c-3,5.9-8.2,11.5-9.8,13.2v2.8L64.7,42.7z M24.2,42.7l18.9-5.6v-2.8
	c-1.6-1.7-6.8-7.2-9.8-13.2l-9.1,2.7V42.7z M14.5,40.6l7.1,2.1V23.8L2.6,18.2v18.8l11.8,3.5L14.5,40.6z M44.4,2.6
	c-5.9,0-10.8,4.8-10.8,10.8c0,1.6,0.5,3.4,1.5,5.5c0,0.1,0.1,0.2,0.1,0.3c2.5,5.2,7.1,10.5,9.2,12.7c2.1-2.2,6.7-7.5,9.2-12.7
	c0-0.1,0.1-0.2,0.1-0.3c1-2.1,1.4-3.9,1.4-5.5C55.2,7.4,50.4,2.6,44.4,2.6z"/>
</svg>
