<?xml version="1.0" encoding="UTF-8" ?>
<!DOCTYPE svg PUBLIC "-//W3C//DTD SVG 1.1//EN" "http://www.w3.org/Graphics/SVG/1.1/DTD/svg11.dtd">
<svg width="86pt" height="86pt" viewBox="0 0 86 86" version="1.1" xmlns="http://www.w3.org/2000/svg">
<g id="#fefefefe">
<path fill="#fefefe" opacity="1.00" d=" M 40.41 0.00 L 45.47 0.00 C 56.36 0.67 66.93 5.55 74.36 13.56 C 81.24 20.80 85.34 30.49 86.00 40.44 L 86.00 45.56 C 85.31 56.68 80.20 67.46 71.89 74.90 C 64.72 81.47 55.26 85.37 45.57 86.00 L 40.53 86.00 C 29.86 85.36 19.49 80.67 12.09 72.94 C 4.94 65.65 0.66 55.75 0.00 45.58 L 0.00 40.44 C 0.63 30.73 4.54 21.26 11.13 14.08 C 18.56 5.79 29.31 0.70 40.41 0.00 M 25.81 19.52 C 30.98 20.51 36.23 21.05 41.49 21.17 C 41.49 15.10 41.52 9.03 41.47 2.96 C 33.35 4.65 28.65 12.37 25.81 19.52 M 44.53 2.97 C 44.48 9.04 44.51 15.10 44.51 21.17 C 49.77 21.05 55.02 20.49 60.19 19.50 C 57.34 12.36 52.64 4.65 44.53 2.97 M 13.61 15.77 C 16.63 16.97 19.72 17.99 22.87 18.83 C 24.86 13.41 28.06 8.50 32.12 4.41 C 25.09 6.51 18.66 10.44 13.61 15.77 M 53.88 4.41 C 57.98 8.52 61.08 13.50 63.20 18.89 C 66.30 18.00 69.36 16.99 72.36 15.81 C 67.33 10.46 60.91 6.53 53.88 4.41 M 11.57 18.14 C 6.42 24.81 3.37 33.01 2.97 41.43 C 8.24 41.44 13.51 41.43 18.78 41.43 C 18.96 34.78 20.00 28.16 21.92 21.79 C 18.39 20.81 14.94 19.57 11.57 18.14 M 64.07 21.75 C 66.05 28.17 67.05 34.85 67.22 41.56 C 72.48 41.55 77.75 41.56 83.02 41.56 C 82.64 33.13 79.59 24.91 74.41 18.25 C 71.05 19.65 67.59 20.81 64.07 21.75 M 24.81 22.23 C 22.94 28.46 21.91 34.92 21.77 41.43 C 28.35 41.44 34.92 41.43 41.49 41.43 C 41.50 35.67 41.50 29.90 41.49 24.14 C 35.89 23.99 30.31 23.34 24.81 22.23 M 44.51 24.15 C 44.50 29.95 44.50 35.75 44.50 41.56 C 51.08 41.56 57.66 41.57 64.23 41.55 C 64.08 35.05 63.07 28.58 61.19 22.35 C 55.69 23.41 50.11 24.03 44.51 24.15 M 2.98 44.38 C 3.36 52.82 6.39 61.06 11.60 67.71 C 14.96 66.31 18.41 65.15 21.92 64.21 C 19.99 57.80 18.95 51.14 18.78 44.44 C 13.51 44.46 8.25 44.33 2.98 44.38 M 21.77 44.45 C 21.93 50.92 22.94 57.35 24.82 63.54 C 30.32 62.46 35.90 61.87 41.50 61.74 C 41.50 55.97 41.50 50.21 41.50 44.44 C 34.92 44.44 28.34 44.43 21.77 44.45 M 44.51 44.57 C 44.50 50.33 44.50 56.09 44.51 61.86 C 50.11 62.01 55.69 62.66 61.19 63.77 C 63.06 57.54 64.09 51.08 64.23 44.57 C 57.65 44.56 51.08 44.57 44.51 44.57 M 67.22 44.57 C 67.04 51.22 66.00 57.84 64.08 64.21 C 67.61 65.19 71.06 66.43 74.43 67.86 C 79.58 61.19 82.63 52.99 83.03 44.57 C 77.76 44.56 72.49 44.57 67.22 44.57 M 25.81 66.50 C 28.65 73.66 33.37 81.30 41.46 83.07 C 41.54 76.99 41.48 70.91 41.49 64.83 C 36.23 64.95 30.98 65.51 25.81 66.50 M 44.51 64.83 C 44.51 70.90 44.48 76.97 44.53 83.03 C 52.65 81.35 57.35 73.63 60.19 66.48 C 55.02 65.49 49.77 64.95 44.51 64.83 M 13.55 70.10 C 18.59 75.51 25.05 79.46 32.12 81.59 C 28.04 77.45 24.84 72.49 22.87 67.02 C 19.71 67.88 16.59 68.87 13.55 70.10 M 53.88 81.59 C 60.89 79.47 67.36 75.58 72.35 70.19 C 69.34 69.01 66.28 67.99 63.16 67.14 C 61.12 72.55 57.96 77.49 53.88 81.59 Z" />
</g>
</svg>
