<?xml version="1.0" encoding="UTF-8" ?>
<!DOCTYPE svg PUBLIC "-//W3C//DTD SVG 1.1//EN" "http://www.w3.org/Graphics/SVG/1.1/DTD/svg11.dtd">
<svg width="206pt" height="274pt" viewBox="0 0 206 274" version="1.1" xmlns="http://www.w3.org/2000/svg">
<g id="#ffffffff">
<path fill="#ffffff" opacity="1.00" d=" M 19.76 0.00 L 186.39 0.00 C 196.47 1.09 205.02 9.66 206.00 19.76 L 206.00 254.20 C 204.91 262.07 199.47 269.26 192.01 272.12 C 188.92 273.37 185.57 273.64 182.30 274.00 L 19.61 274.00 C 9.53 272.91 0.98 264.34 0.00 254.24 L 0.00 19.87 C 1.08 9.75 9.54 0.96 19.76 0.00 M 20.17 11.19 C 14.77 12.23 10.64 17.48 10.99 22.99 C 11.01 97.34 11.00 171.69 11.00 246.04 C 11.09 249.34 10.50 252.88 12.13 255.92 C 14.23 260.36 19.08 262.99 23.93 262.75 C 76.96 262.73 129.99 262.78 183.03 262.72 C 189.34 262.93 195.15 257.49 195.01 251.12 C 194.97 174.71 195.03 98.30 194.98 21.89 C 194.87 16.19 189.83 11.16 184.15 11.01 C 131.44 10.98 78.74 11.02 26.03 10.99 C 24.08 11.02 22.11 10.86 20.17 11.19 Z" />
<path fill="#ffffff" opacity="1.00" d=" M 97.55 34.57 C 113.29 33.39 129.44 37.53 142.33 46.73 C 157.39 57.10 167.85 73.81 170.67 91.87 C 173.14 107.13 170.27 123.21 162.52 136.59 C 153.88 151.73 139.27 163.38 122.50 168.23 C 106.46 172.97 88.65 171.68 73.56 164.42 C 58.74 157.47 46.64 144.95 40.13 129.94 C 34.24 116.51 32.91 101.15 36.32 86.90 C 40.19 70.32 50.57 55.36 64.78 45.97 C 74.46 39.38 85.89 35.50 97.55 34.57 M 93.03 57.98 C 88.14 70.29 86.57 83.61 85.96 96.75 C 97.32 96.99 108.69 96.82 120.04 97.29 C 119.42 83.65 117.83 69.79 112.58 57.07 C 110.86 53.15 108.88 49.13 105.45 46.41 C 104.16 45.40 102.45 45.01 101.06 46.07 C 97.02 48.90 94.92 53.59 93.03 57.98 M 46.04 96.83 C 55.40 96.87 64.77 96.91 74.13 97.26 C 75.24 80.83 77.36 64.06 84.27 48.93 C 63.69 55.80 48.30 75.32 46.04 96.83 M 121.75 49.35 C 128.81 64.25 130.90 80.94 131.54 97.25 C 140.91 97.06 150.26 97.72 159.62 97.46 C 157.70 75.89 142.61 55.84 121.75 49.35 M 46.01 108.76 C 48.04 130.48 63.98 149.72 84.54 156.61 C 77.24 141.62 75.12 124.73 74.46 108.25 C 64.98 108.42 55.48 108.35 46.01 108.76 M 85.97 108.75 C 86.83 123.14 88.67 137.84 94.77 151.06 C 96.68 154.60 98.73 159.03 103.04 160.02 C 107.20 158.95 109.37 154.75 111.26 151.26 C 117.54 138.03 119.35 123.22 120.03 108.75 C 108.68 108.75 97.32 108.75 85.97 108.75 M 121.40 157.07 C 142.08 150.12 157.66 130.68 160.01 109.00 C 150.52 109.13 141.04 108.56 131.54 108.75 C 130.91 125.23 128.64 142.07 121.40 157.07 Z" />
<path fill="#ffffff" opacity="1.00" d=" M 38.56 194.61 C 81.04 194.35 123.54 194.58 166.02 194.49 C 169.44 194.11 172.79 197.68 171.83 201.06 C 171.40 203.70 168.73 205.76 166.05 205.51 C 123.84 205.47 81.63 205.55 39.42 205.47 C 33.50 205.21 32.79 195.83 38.56 194.61 Z" />
<path fill="#ffffff" opacity="1.00" d=" M 61.12 229.21 C 63.06 228.82 65.06 229.04 67.03 228.99 C 92.38 229.01 117.72 228.99 143.06 229.00 C 146.35 228.64 149.40 231.70 149.01 234.99 C 148.81 237.92 146.00 240.29 143.07 240.00 C 116.01 239.96 88.94 240.09 61.88 239.93 C 56.49 239.24 55.92 230.75 61.12 229.21 Z" />
</g>
</svg>
