<?xml version="1.0" encoding="UTF-8" ?>
<!DOCTYPE svg PUBLIC "-//W3C//DTD SVG 1.1//EN" "http://www.w3.org/Graphics/SVG/1.1/DTD/svg11.dtd">
<svg width="304pt" height="279pt" viewBox="0 0 304 279" version="1.1" xmlns="http://www.w3.org/2000/svg">
<g id="#ffffffff">
<path fill="#ffffff" opacity="1.00" d=" M 262.09 0.00 L 285.49 0.00 C 287.04 1.26 289.28 2.62 288.99 4.94 C 288.93 12.28 289.20 19.64 288.84 26.97 C 287.53 30.98 281.23 31.39 279.41 27.60 C 278.21 24.45 278.92 20.94 278.76 17.64 C 249.53 46.78 220.42 76.04 191.17 105.16 C 188.79 107.76 184.94 106.32 183.04 103.92 C 168.73 89.30 154.24 74.83 139.75 60.38 C 122.33 77.77 104.97 95.21 87.52 112.57 C 85.69 114.54 82.36 114.51 80.51 112.58 C 72.36 104.58 64.35 96.43 56.25 88.38 C 42.42 102.19 28.61 116.01 14.81 129.83 C 11.65 134.27 4.12 130.15 6.02 125.11 C 6.48 123.41 7.90 122.27 9.06 121.04 C 22.98 107.29 36.69 93.36 50.42 79.42 C 52.07 77.81 53.71 75.83 56.15 75.49 C 58.34 75.39 60.09 76.91 61.53 78.37 C 69.05 85.99 76.75 93.44 84.09 101.25 C 101.94 84.09 119.06 66.19 136.92 49.05 C 138.74 47.38 141.74 47.72 143.35 49.51 C 158.14 64.23 172.86 79.01 187.62 93.76 C 215.32 65.88 243.40 38.36 270.85 10.25 C 267.61 10.13 264.26 10.69 261.13 9.68 C 257.10 7.83 257.72 1.03 262.09 0.00 Z" />
<path fill="#ffffff" opacity="1.00" d=" M 266.32 89.24 C 275.46 83.91 287.94 85.10 295.80 92.24 C 300.87 96.59 303.33 103.22 304.00 109.72 L 304.00 113.10 C 303.36 122.68 296.76 131.43 287.82 134.83 C 280.23 137.86 271.39 136.85 264.40 132.73 C 252.55 144.58 240.70 156.44 228.85 168.28 C 232.91 174.98 234.34 183.45 231.58 190.91 C 227.49 203.02 213.27 210.56 200.97 206.90 C 191.00 204.16 183.40 194.99 182.38 184.72 C 166.83 183.05 151.28 181.43 135.74 179.75 C 133.37 186.09 128.96 191.84 122.75 194.78 C 114.63 198.95 104.63 197.66 97.08 192.84 C 80.56 208.49 63.96 224.07 47.42 239.71 C 51.85 247.17 52.44 256.83 48.48 264.61 C 44.48 273.10 35.47 278.64 26.16 279.00 L 24.89 279.00 C 12.70 278.83 1.63 269.22 0.00 257.09 L 0.00 249.06 C 1.16 241.37 5.87 234.20 12.83 230.59 C 21.33 225.87 32.39 226.48 40.41 231.94 C 57.05 216.35 73.67 200.73 90.17 184.99 C 87.19 179.54 85.69 173.12 87.03 166.97 C 88.68 157.34 96.53 149.22 106.02 147.02 C 114.02 144.97 122.90 147.34 128.99 152.88 C 133.82 157.07 136.70 163.15 137.42 169.46 C 152.98 171.09 168.52 172.81 184.08 174.39 C 186.34 167.43 191.47 161.25 198.41 158.63 C 206.13 155.44 215.25 156.41 222.27 160.89 C 234.09 148.99 245.99 137.18 257.82 125.30 C 256.05 122.09 254.48 118.69 254.00 115.02 C 252.41 105.00 257.43 94.22 266.32 89.24 M 273.47 97.68 C 266.07 100.43 262.05 109.59 265.10 116.88 C 267.64 123.87 275.93 128.13 283.05 125.85 C 290.25 123.94 295.10 116.11 293.59 108.79 C 292.24 99.92 281.76 93.96 273.47 97.68 M 108.50 157.63 C 102.44 159.09 97.82 164.69 97.31 170.87 C 96.58 178.39 102.39 185.78 109.88 186.81 C 118.54 188.42 127.41 180.85 127.03 172.01 C 127.35 162.69 117.47 155.03 108.50 157.63 M 204.13 168.16 C 197.64 169.85 192.88 176.35 193.23 183.04 C 193.32 190.13 199.21 196.56 206.27 197.30 C 215.71 198.83 224.81 189.11 222.68 179.79 C 221.42 171.49 212.16 165.64 204.13 168.16 M 22.47 238.71 C 16.16 240.30 11.25 246.45 11.47 253.02 C 11.07 260.91 18.15 268.04 25.99 268.02 C 34.86 268.42 42.62 259.62 40.98 250.87 C 39.93 242.42 30.68 236.22 22.47 238.71 Z" />
</g>
</svg>
