<?xml version="1.0" encoding="UTF-8" ?>
<!DOCTYPE svg PUBLIC "-//W3C//DTD SVG 1.1//EN" "http://www.w3.org/Graphics/SVG/1.1/DTD/svg11.dtd">
<svg width="239pt" height="291pt" viewBox="0 0 239 291" version="1.1" xmlns="http://www.w3.org/2000/svg">
<g id="#ffffffff">
<path fill="#ffffff" opacity="1.00" d=" M 38.13 0.00 L 200.86 0.00 C 203.80 1.00 205.18 4.00 204.94 6.95 C 205.41 21.09 217.81 33.60 231.99 33.99 C 234.96 33.78 238.05 35.10 239.00 38.11 L 239.00 141.14 C 237.11 175.90 224.37 210.12 202.21 237.06 C 181.30 262.86 152.28 281.82 120.38 291.00 L 118.51 291.00 C 86.73 281.72 57.66 262.98 36.76 237.22 C 14.60 210.33 1.83 176.16 0.00 141.42 L 0.00 38.11 C 0.96 35.12 4.02 33.77 6.98 34.00 C 21.18 33.62 33.61 21.08 34.06 6.92 C 33.82 3.98 35.22 1.00 38.13 0.00 M 44.87 11.00 C 42.81 28.00 28.57 42.71 11.50 44.86 C 11.50 75.91 11.51 106.95 11.50 138.00 C 12.36 170.44 23.96 202.52 44.16 227.94 C 62.08 250.86 86.81 268.28 114.27 277.86 C 116.11 278.39 117.92 279.42 119.85 279.42 C 155.07 268.64 186.03 244.63 205.22 213.18 C 220.38 188.66 228.30 159.78 228.00 130.97 C 228.00 102.26 228.00 73.56 228.00 44.86 C 210.87 42.56 196.35 28.17 194.14 11.00 C 144.38 11.00 94.63 11.00 44.87 11.00 Z" />
<path fill="#ffffff" opacity="1.00" d=" M 107.58 84.77 C 119.14 82.07 131.69 83.34 142.30 88.76 C 155.66 95.36 165.81 108.07 169.22 122.58 C 172.21 135.34 170.28 149.28 163.43 160.51 C 155.91 173.17 142.73 182.36 128.18 184.77 C 114.00 187.33 98.85 183.38 87.66 174.32 C 75.26 164.56 67.73 148.78 68.48 132.95 C 68.60 110.47 85.74 89.72 107.58 84.77 M 112.20 95.17 C 102.43 96.95 93.47 102.59 87.54 110.54 C 81.04 119.11 78.16 130.43 80.09 141.04 C 81.74 151.31 87.72 160.77 96.16 166.82 C 104.35 172.78 114.86 175.45 124.89 174.01 C 136.07 172.55 146.46 166.02 152.68 156.63 C 158.33 148.35 160.66 137.83 158.94 127.95 C 157.31 117.90 151.60 108.60 143.44 102.52 C 134.68 95.83 123.03 93.07 112.20 95.17 Z" />
<path fill="#ffffff" opacity="1.00" d=" M 138.43 118.22 C 140.73 115.83 145.28 116.32 146.70 119.43 C 148.31 121.90 147.56 125.33 145.41 127.24 C 136.01 136.58 126.67 145.98 117.28 155.34 C 115.33 157.31 111.68 157.26 109.81 155.19 C 106.14 151.49 102.40 147.84 98.77 144.11 C 96.25 141.70 96.23 137.00 99.21 134.96 C 100.81 133.57 103.33 133.67 105.16 134.53 C 108.04 137.28 110.75 140.23 113.62 143.01 C 121.89 134.74 130.13 126.45 138.43 118.22 Z" />
</g>
</svg>
