<?xml version="1.0" encoding="UTF-8" ?>
<!DOCTYPE svg PUBLIC "-//W3C//DTD SVG 1.1//EN" "http://www.w3.org/Graphics/SVG/1.1/DTD/svg11.dtd">
<svg width="288pt" height="233pt" viewBox="0 0 288 233" version="1.1" xmlns="http://www.w3.org/2000/svg">
<g id="#ffffffff">
<path fill="#ffffff" opacity="1.00" d=" M 92.58 0.00 L 195.51 0.00 C 204.83 1.26 212.52 9.69 212.74 19.12 C 212.75 40.73 212.78 62.34 212.72 83.95 C 212.37 93.64 203.74 102.04 194.06 102.22 C 179.21 102.29 164.35 102.23 149.50 102.25 C 149.50 111.50 149.50 120.75 149.50 130.00 C 177.71 130.02 205.92 129.96 234.13 130.03 C 243.51 130.28 251.45 138.87 251.49 148.16 C 251.53 156.69 251.48 165.22 251.50 173.75 C 258.99 173.78 266.48 173.69 273.96 173.77 C 280.94 173.86 287.08 179.68 288.00 186.52 L 288.00 220.69 C 286.86 226.84 281.83 231.89 275.66 233.00 L 217.00 233.00 C 210.15 232.04 204.43 225.93 204.28 218.96 C 204.22 208.65 204.24 198.33 204.27 188.02 C 204.32 180.74 210.57 174.14 217.86 173.79 C 225.49 173.66 233.12 173.80 240.75 173.75 C 240.74 165.49 240.76 157.24 240.76 148.98 C 241.02 144.81 237.30 140.98 233.13 141.03 C 205.09 140.95 177.04 141.02 149.00 141.00 C 149.00 152.00 149.00 163.00 149.00 174.00 C 156.69 174.11 164.39 173.78 172.08 174.17 C 179.25 174.62 185.45 180.90 185.70 188.11 C 185.82 198.39 185.73 208.68 185.74 218.96 C 185.66 225.34 181.12 231.21 175.01 233.00 L 112.43 233.00 C 106.45 231.02 101.89 225.34 101.83 218.96 C 101.65 209.28 101.79 199.60 101.76 189.92 C 101.21 181.14 109.13 173.37 117.89 174.01 C 124.76 173.96 131.63 174.03 138.50 174.00 C 138.50 163.00 138.50 152.00 138.50 141.00 C 110.97 140.99 83.45 141.01 55.93 140.99 C 51.79 140.61 47.39 143.81 47.28 148.12 C 47.19 156.66 47.29 165.21 47.25 173.75 C 54.85 173.79 62.45 173.67 70.05 173.78 C 77.38 174.09 83.68 180.71 83.73 188.03 C 83.76 198.33 83.78 208.63 83.72 218.92 C 83.61 225.86 77.97 231.82 71.25 233.00 L 12.32 233.00 C 6.19 231.85 1.04 226.96 0.00 220.75 L 0.00 186.63 C 1.13 179.98 6.95 174.52 13.73 174.14 C 21.15 173.80 28.58 174.10 36.00 174.00 C 36.09 165.28 35.83 156.55 36.12 147.83 C 36.48 138.17 45.33 130.07 54.95 130.28 C 82.97 130.21 110.98 130.27 139.00 130.25 C 139.00 121.08 139.00 111.92 139.00 102.75 C 124.66 102.74 110.32 102.76 95.98 102.74 C 89.33 102.84 82.58 99.68 78.93 94.02 C 76.25 90.23 75.50 85.50 75.50 80.95 C 75.49 61.28 75.51 41.62 75.49 21.95 C 75.47 17.39 76.13 12.63 78.77 8.80 C 81.76 3.99 87.01 0.83 92.58 0.00 M 93.16 11.16 C 89.14 12.00 86.10 15.85 86.26 19.96 C 86.25 40.95 86.24 61.95 86.26 82.94 C 86.36 87.86 91.12 91.93 95.98 91.51 C 128.31 91.47 160.65 91.53 192.99 91.48 C 197.64 91.22 201.18 86.77 200.97 82.22 C 201.01 61.45 201.05 40.67 200.94 19.90 C 201.01 15.18 196.94 10.75 192.11 11.00 C 159.13 11.10 126.13 10.79 93.16 11.16 M 13.20 185.23 C 11.88 185.87 10.90 187.34 11.01 188.83 C 10.99 198.55 10.99 208.26 11.01 217.98 C 10.90 220.10 12.77 222.05 14.91 221.99 C 32.63 222.02 50.35 221.99 68.07 222.00 C 70.40 222.32 72.74 220.38 72.71 218.00 C 72.78 208.34 72.78 198.68 72.71 189.02 C 72.81 186.57 70.45 184.43 68.01 184.76 C 51.34 184.72 34.67 184.78 18.00 184.73 C 16.41 184.83 14.69 184.49 13.20 185.23 M 115.27 185.20 C 113.82 185.87 112.75 187.33 113.01 188.98 C 113.00 198.70 112.98 208.43 113.01 218.16 C 112.91 220.25 114.89 222.03 116.93 221.99 C 134.63 222.02 152.32 221.99 170.02 222.00 C 172.36 222.33 174.75 220.38 174.69 217.97 C 174.84 208.63 174.71 199.28 174.75 189.93 C 175.07 187.24 172.88 184.31 169.98 184.76 C 152.34 184.76 134.68 184.70 117.04 184.79 C 116.59 184.89 115.71 185.10 115.27 185.20 M 217.40 185.28 C 216.17 186.14 215.16 187.50 215.26 189.07 C 215.26 198.70 215.20 208.34 215.29 217.97 C 215.24 220.36 217.59 222.33 219.94 222.00 C 237.64 221.99 255.34 222.02 273.04 221.99 C 275.17 222.07 277.08 220.16 276.99 218.03 C 277.01 208.33 277.01 198.63 276.99 188.94 C 277.09 186.40 274.42 184.41 272.01 184.75 C 255.32 184.73 238.64 184.78 221.95 184.73 C 220.44 184.83 218.77 184.50 217.40 185.28 Z" />
<path fill="#ffffff" opacity="1.00" d=" M 114.24 33.37 C 133.46 33.10 152.71 33.32 171.95 33.26 C 175.27 33.09 178.22 36.68 177.31 39.90 C 176.88 42.33 174.48 44.32 172.01 44.24 C 153.31 44.27 134.61 44.25 115.91 44.25 C 113.15 44.63 111.00 42.22 110.32 39.77 C 109.60 37.00 111.53 34.06 114.24 33.37 Z" />
<path fill="#ffffff" opacity="1.00" d=" M 114.07 58.03 C 115.68 57.60 117.36 57.77 119.01 57.73 C 136.35 57.77 153.70 57.73 171.04 57.75 C 173.47 57.58 176.06 58.81 177.00 61.16 C 178.72 64.58 175.74 69.00 171.98 68.94 C 153.61 69.09 135.24 68.95 116.87 69.01 C 114.64 69.11 112.05 68.33 110.97 66.22 C 109.06 63.31 110.66 58.91 114.07 58.03 Z" />
</g>
</svg>
