<svg viewBox="0 0 88 79" version="1.1" xmlns="http://www.w3.org/2000/svg"><g id="#fefefefe"><path fill="#fefefe" opacity="1.00" d=" M 0.00 0.00 L 88.00 0.00 L 88.00 61.55 C 87.36 70.60 79.64 78.30 70.61 79.00 L 67.13 79.00 C 58.05 78.23 50.65 70.47 49.75 61.49 C 34.83 61.54 19.91 61.46 4.99 61.53 C 3.32 61.54 1.65 61.42 0.00 61.18 L 0.00 0.00 M 2.94 2.95 C 2.95 4.88 2.95 6.81 2.94 8.75 C 30.31 8.75 57.69 8.75 85.06 8.75 C 85.05 6.81 85.05 4.88 85.06 2.95 C 57.68 2.94 30.31 2.94 2.94 2.95 M 2.95 11.76 C 2.95 13.67 2.95 15.58 2.95 17.49 C 30.32 17.50 57.68 17.50 85.05 17.49 C 85.05 15.58 85.05 13.67 85.05 11.76 C 57.68 11.76 30.32 11.75 2.95 11.76 M 3.02 20.48 C 2.86 33.15 2.99 45.82 2.95 58.49 C 18.57 58.46 34.19 58.57 49.80 58.44 C 49.95 57.74 50.23 56.34 50.37 55.64 C 37.36 55.56 24.34 55.75 11.34 55.55 C 9.27 54.03 7.32 52.18 5.90 50.04 C 5.75 43.03 5.75 35.99 5.90 28.98 C 7.29 26.82 9.27 24.98 11.34 23.46 C 33.12 23.32 54.93 23.30 76.71 23.46 C 78.92 25.55 82.58 27.53 82.20 31.03 C 82.21 36.11 82.13 41.18 82.24 46.26 C 83.20 47.42 84.15 48.59 85.10 49.77 C 85.02 40.03 85.05 30.28 85.08 20.54 C 57.72 20.44 30.37 20.57 3.02 20.48 M 12.36 26.37 C 11.18 27.55 10.00 28.73 8.81 29.91 C 8.82 36.30 8.82 42.69 8.81 49.09 C 9.99 50.27 11.17 51.45 12.36 52.63 C 25.32 52.60 38.28 52.65 51.25 52.61 C 53.39 47.93 57.21 43.96 62.10 42.19 C 67.67 39.98 74.10 40.81 79.20 43.85 C 79.17 39.21 79.18 34.56 79.19 29.92 C 78.01 28.74 76.83 27.55 75.65 26.37 C 54.55 26.38 33.45 26.38 12.36 26.37 M 64.39 44.59 C 57.72 46.47 52.72 53.05 52.85 60.00 C 52.59 69.00 61.11 76.88 70.05 76.01 C 78.99 75.63 86.34 66.72 84.87 57.85 C 83.88 48.42 73.43 41.61 64.39 44.59 Z"></path><path fill="#fefefe" opacity="1.00" d=" M 67.43 29.25 C 68.43 29.25 69.44 29.25 70.44 29.25 C 70.44 30.25 70.44 31.25 70.44 32.25 C 69.44 32.25 68.44 32.25 67.44 32.25 C 67.44 31.25 67.43 30.25 67.43 29.25 Z"></path><path fill="#fefefe" opacity="1.00" d=" M 73.30 29.25 C 74.31 29.25 75.31 29.25 76.32 29.25 C 76.32 30.00 76.31 31.50 76.31 32.25 C 75.56 32.25 74.07 32.26 73.32 32.26 C 73.31 31.26 73.31 30.25 73.30 29.25 Z"></path><path fill="#fefefe" opacity="1.00" d=" M 40.39 31.46 C 46.52 28.40 54.27 34.42 52.66 41.12 C 51.83 47.47 43.36 50.55 38.53 46.44 C 33.38 42.73 34.45 33.78 40.39 31.46 M 41.35 34.35 C 37.48 36.12 37.12 42.09 40.75 44.32 C 44.20 46.88 49.60 44.23 49.81 39.99 C 50.33 35.66 45.16 32.14 41.35 34.35 Z"></path><path fill="#fefefe" opacity="1.00" d=" M 11.68 46.82 C 12.43 46.81 13.92 46.81 14.67 46.80 C 14.68 47.80 14.69 48.81 14.70 49.82 C 13.95 49.82 12.44 49.82 11.69 49.82 C 11.69 49.07 11.69 47.57 11.68 46.82 Z"></path><path fill="#fefefe" opacity="1.00" d=" M 17.55 49.81 C 17.56 48.81 17.56 47.81 17.57 46.81 C 18.32 46.81 19.82 46.81 20.57 46.81 C 20.57 47.57 20.56 49.07 20.56 49.82 C 19.81 49.82 18.30 49.81 17.55 49.81 Z"></path><path fill="#fefefe" opacity="1.00" d=" M 61.13 50.14 C 64.23 48.48 68.29 51.56 67.42 54.99 C 66.97 58.12 62.81 59.68 60.38 57.68 C 57.76 55.85 58.21 51.42 61.13 50.14 M 62.24 53.33 C 61.71 54.97 62.26 55.54 63.90 55.06 C 64.46 53.43 63.91 52.85 62.24 53.33 Z"></path><path fill="#fefefe" opacity="1.00" d=" M 59.03 67.75 C 64.91 61.86 70.80 55.97 76.69 50.09 C 77.23 50.63 78.31 51.71 78.85 52.25 C 72.94 58.12 67.03 63.98 61.16 69.87 C 60.63 69.34 59.56 68.28 59.03 67.75 Z"></path><path fill="#fefefe" opacity="1.00" d=" M 72.27 62.19 C 74.71 60.37 78.63 61.92 79.14 64.92 C 79.92 67.89 76.92 70.93 73.95 70.18 C 70.21 69.70 69.05 64.17 72.27 62.19 M 74.37 64.42 C 72.18 65.15 74.15 68.59 75.79 66.87 C 77.11 65.90 75.62 64.11 74.37 64.42 Z"></path></g></svg>