<svg
        xmlns="http://www.w3.org/2000/svg"
        xmlns:xlink="http://www.w3.org/1999/xlink"
        width="20px" height="20px">
    <path fill-rule="evenodd"  fill="#fff"
          d="M17.493,19.999 L13.262,19.999 L1.951,19.999 C1.866,19.999 1.788,19.974 1.711,19.950 C1.701,19.948 1.691,19.947 1.681,19.944 C1.652,19.934 1.624,19.926 1.597,19.913 C0.682,19.637 0.001,18.661 0.001,17.492 L0.001,2.521 C0.001,1.663 0.492,1.663 2.117,1.663 L2.562,1.663 L2.562,0.838 C2.562,0.377 2.937,0.002 3.397,0.002 L19.164,0.002 C19.624,0.002 19.999,0.377 19.999,0.838 L19.999,17.492 C19.999,18.875 18.875,19.999 17.493,19.999 ZM2.562,3.334 C2.562,3.334 1.806,3.335 1.672,3.336 L1.672,17.492 C1.672,17.977 1.937,18.328 2.117,18.328 C2.296,18.328 2.562,17.977 2.562,17.492 L2.562,3.334 ZM18.329,1.674 L4.232,1.674 L4.232,17.492 C4.232,17.787 4.181,18.065 4.103,18.328 L13.262,18.328 L17.493,18.328 C17.954,18.328 18.329,17.953 18.329,17.492 L18.329,1.674 ZM15.878,13.793 L6.738,13.793 C6.277,13.793 5.903,13.418 5.903,12.957 C5.903,12.496 6.277,12.121 6.738,12.121 L15.878,12.121 C16.338,12.121 16.713,12.496 16.713,12.957 C16.713,13.418 16.338,13.793 15.878,13.793 ZM15.844,10.443 L6.936,10.443 C6.476,10.443 6.101,10.068 6.101,9.608 L6.101,4.265 C6.101,3.804 6.476,3.429 6.936,3.429 L15.844,3.429 C16.305,3.429 16.679,3.804 16.679,4.265 L16.679,9.608 C16.679,10.068 16.305,10.443 15.844,10.443 ZM7.771,5.101 L7.771,8.772 L15.009,8.772 L15.009,5.101 L7.771,5.101 ZM6.738,14.907 L12.166,14.907 C12.627,14.907 13.001,15.282 13.001,15.743 C13.001,16.203 12.627,16.578 12.166,16.578 L6.738,16.578 C6.277,16.578 5.903,16.203 5.903,15.743 C5.903,15.282 6.277,14.907 6.738,14.907 Z"/>
</svg>
