<!-- Generator: Adobe Illustrator 22.1.0, SVG Export Plug-In  -->
<svg version="1.1"
	 xmlns="http://www.w3.org/2000/svg" xmlns:xlink="http://www.w3.org/1999/xlink" xmlns:a="http://ns.adobe.com/AdobeSVGViewerExtensions/3.0/"
	 x="0px" y="0px" width="57.6px" height="57.6px" viewBox="0 0 57.6 57.6" style="enable-background:new 0 0 57.6 57.6;"
	 xml:space="preserve">
<style type="text/css">
	.st0{fill:#fff;}
	path{fill: #fff;}
</style>
<defs>
</defs>
<path d="M51.7,4.6H30.1v2.6h11.1v11.1H30.1v2.6h11.1v11.1H30.1v-2h-2.6v11.1H16.4V30.1h-2.6v11.1H2.6V30.1H0v26.2
	c0,0.7,0.6,1.3,1.3,1.3c0.7,0,1.3-0.6,1.3-1.3V43.8h24.9v3.3c0,0.7,0.6,1.3,1.3,1.3h22.9c3.2,0,5.9-2.6,5.9-5.9V10.5
	C57.6,7.2,54.9,4.6,51.7,4.6z M41.2,45.8H30.1V34.7h11.1V45.8z M55,42.5c0,1.8-1.5,3.3-3.3,3.3h-7.9V34.7H55V42.5z M55,32.1H43.8
	V20.9H55V32.1z M55,18.3H43.8V7.2h7.9c1.8,0,3.3,1.5,3.3,3.3V18.3z"/>
<path class="st0" d="M30.1,20.9v-2.6V7.2V4.6V1.3c0-0.7-0.6-1.3-1.3-1.3H1.3C0.6,0,0,0.6,0,1.3v28.8h2.6h11.1h2.6h11.1h2.6V20.9z
	 M13.7,27.5H2.6V16.4h11.1V27.5z M13.7,13.7H2.6V2.6h11.1V13.7z M27.5,27.5H16.4V16.4h11.1V27.5z M27.5,13.7H16.4V2.6h11.1V13.7z"/>
</svg>
