<?xml version="1.0" encoding="UTF-8" ?>
<!DOCTYPE svg PUBLIC "-//W3C//DTD SVG 1.1//EN" "http://www.w3.org/Graphics/SVG/1.1/DTD/svg11.dtd">
<svg width="204pt" height="302pt" viewBox="0 0 204 302" version="1.1" xmlns="http://www.w3.org/2000/svg">
<g id="#ffffffff">
<path fill="#ffffff" opacity="1.00" d=" M 3.75 0.00 L 166.06 0.00 C 178.68 12.44 191.11 25.06 203.69 37.54 C 203.63 41.72 203.73 45.90 204.00 50.07 L 204.00 259.02 C 203.84 262.65 203.52 269.91 203.36 273.54 C 202.39 275.53 200.25 276.84 198.04 276.73 C 189.38 276.78 180.71 276.73 172.05 276.76 C 169.35 276.68 166.06 276.20 164.69 273.55 C 162.53 270.27 165.25 265.41 169.11 265.32 C 177.07 265.13 185.03 265.32 193.00 265.25 C 193.00 192.25 193.00 119.25 193.00 46.25 C 183.05 46.22 173.10 46.30 163.16 46.23 C 160.31 46.29 157.72 43.71 157.77 40.86 C 157.70 30.91 157.78 20.96 157.75 11.00 C 108.83 11.00 59.92 11.00 11.00 11.00 C 11.00 95.75 11.00 180.50 11.00 265.25 C 42.34 265.27 73.67 265.21 105.00 265.28 C 108.35 265.15 111.37 268.52 110.54 271.84 C 110.21 274.46 107.69 276.57 105.02 276.25 C 71.61 276.24 38.19 276.28 4.78 276.23 C 2.49 276.41 0.90 274.48 0.00 272.64 L 0.00 3.80 C 0.73 2.09 2.06 0.77 3.75 0.00 M 169.25 19.12 C 169.25 24.50 169.25 29.88 169.25 35.25 C 174.63 35.25 180.00 35.26 185.37 35.25 C 180.00 29.86 174.63 24.50 169.25 19.12 Z" />
<path fill="#ffffff" opacity="1.00" d=" M 53.00 31.95 C 59.27 26.59 70.04 28.73 73.86 36.00 C 75.81 39.14 75.87 42.91 75.77 46.48 C 79.09 46.04 83.52 46.55 84.30 50.54 C 85.51 62.36 86.31 74.23 87.36 86.07 C 87.98 89.31 85.37 92.92 81.95 92.74 C 70.31 92.76 58.66 92.75 47.02 92.74 C 44.77 92.80 42.45 92.45 40.28 93.22 C 37.71 92.76 34.86 90.94 35.09 87.99 C 36.33 75.71 37.31 63.40 38.66 51.13 C 39.29 47.13 43.86 46.28 47.23 46.72 C 46.64 41.23 48.42 35.32 53.00 31.95 M 59.52 41.32 C 57.83 42.65 58.30 44.88 58.22 46.75 C 60.41 46.75 62.61 46.75 64.80 46.74 C 64.65 44.89 65.14 42.61 63.46 41.30 C 62.62 40.12 60.35 40.14 59.52 41.32 M 49.08 57.79 C 48.39 65.76 47.51 73.72 46.64 81.67 C 56.54 81.79 66.45 81.81 76.34 81.67 C 75.54 73.70 75.00 65.71 74.19 57.74 C 65.82 57.78 57.45 57.69 49.08 57.79 Z" />
<path fill="#ffffff" opacity="1.00" d=" M 38.37 125.41 C 39.83 124.76 41.48 125.08 43.02 124.98 C 83.39 125.03 123.75 124.98 164.12 125.01 C 167.15 124.93 169.63 128.06 169.22 130.99 C 169.02 133.98 166.03 136.33 163.07 136.00 C 122.66 136.01 82.25 135.98 41.84 136.01 C 39.82 136.09 37.52 135.59 36.33 133.81 C 34.11 131.20 35.25 126.75 38.37 125.41 Z" />
<path fill="#ffffff" opacity="1.00" d=" M 40.40 148.56 C 81.28 148.42 122.18 148.53 163.07 148.51 C 166.51 148.20 169.84 151.44 169.20 154.92 C 168.81 157.91 165.88 159.93 162.97 159.74 C 122.34 159.74 81.70 159.79 41.08 159.71 C 38.03 159.84 35.06 157.22 35.22 154.09 C 35.14 151.27 37.60 148.70 40.40 148.56 Z" />
<path fill="#ffffff" opacity="1.00" d=" M 39.09 172.08 C 41.03 171.53 43.07 171.79 45.05 171.74 C 84.34 171.77 123.63 171.73 162.92 171.76 C 165.63 171.58 168.48 173.27 169.08 176.03 C 170.19 179.65 166.69 183.34 163.05 182.99 C 122.66 183.02 82.26 182.98 41.86 183.01 C 39.75 183.10 37.47 182.44 36.24 180.60 C 33.97 177.75 35.61 173.02 39.09 172.08 Z" />
<path fill="#ffffff" opacity="1.00" d=" M 38.42 195.52 C 39.89 194.99 41.49 195.01 43.03 194.99 C 59.45 195.02 75.86 194.99 92.28 195.00 C 95.32 194.73 98.76 196.70 99.00 199.96 C 99.56 203.38 96.30 206.50 92.94 206.24 C 75.88 206.27 58.81 206.24 41.75 206.26 C 39.94 206.28 37.95 205.87 36.71 204.44 C 34.12 201.93 34.89 196.77 38.42 195.52 Z" />
<path fill="#ffffff" opacity="1.00" d=" M 118.52 213.63 C 131.27 203.54 151.51 205.56 162.03 217.95 C 173.87 230.74 172.41 253.18 158.52 263.92 C 158.47 275.45 158.53 286.98 158.49 298.51 C 156.15 299.58 154.38 301.92 151.66 302.00 L 150.02 302.00 C 145.48 298.95 141.41 295.26 137.14 291.84 C 132.57 295.13 128.73 299.54 123.62 302.00 L 120.75 302.00 C 119.67 301.01 118.59 300.04 117.51 299.07 C 117.48 287.39 117.52 275.72 117.48 264.05 C 114.41 261.22 111.52 258.11 109.57 254.38 C 102.08 240.99 106.13 222.66 118.52 213.63 M 131.34 218.64 C 121.90 221.27 115.22 231.28 116.65 241.02 C 117.94 251.23 127.69 259.70 138.06 259.01 C 150.04 258.66 160.10 246.19 157.32 234.39 C 155.25 223.00 142.47 214.96 131.34 218.64 M 127.74 269.87 C 127.75 274.91 127.77 279.95 127.73 285.00 C 130.95 282.46 134.22 279.30 138.64 279.40 C 140.95 281.35 143.33 283.21 145.71 285.07 C 145.79 280.01 145.73 274.94 145.75 269.88 C 139.84 271.26 133.64 271.41 127.74 269.87 Z" />
</g>
</svg>
