<?xml version="1.0" encoding="utf-8"?>
<!-- Generator: Adobe Illustrator 23.0.2, SVG Export Plug-In . SVG Version: 6.00 Build 0)  -->
<svg version="1.1" id="Calque_1" xmlns="http://www.w3.org/2000/svg" xmlns:xlink="http://www.w3.org/1999/xlink" x="0px" y="0px"
	 viewBox="0 0 56.8 64.8" style="enable-background:new 0 0 56.8 64.8;" xml:space="preserve">
<style type="text/css">
	.st0{fill:#FFFFFF;}
</style>
<path class="st0" d="M16.8,62.2h-2.6V33.6V31V6.5L14,3.9l-0.1-0.4C13.2,1.4,11.2,0,9.1,0C6.2,0,3.9,2.3,3.9,5.2v57H1.3
	c-0.7,0-1.3,0.6-1.3,1.3c0,0.7,0.6,1.3,1.3,1.3h15.5c0.7,0,1.3-0.6,1.3-1.3C18.1,62.7,17.5,62.2,16.8,62.2z M11.6,62.2H6.5v-57
	c0-1.4,1.1-2.6,2.6-2.6c1.4,0,2.6,1.1,2.6,2.6v57H11.6z"/>
<path class="st0" d="M28.4,6.5c1.4,0,2.6,1.1,2.6,2.6V31H14.2v2.6h16.9l0.1,0.4c0.7,2.1,2.7,3.5,4.9,3.5h19.3c0.5,0,0.9-0.3,1.2-0.7
	c0.2-0.4,0.2-0.9-0.1-1.3l-7.3-10.9l7.3-10.9c0.3-0.4,0.3-0.9,0.1-1.3c-0.2-0.4-0.7-0.7-1.2-0.7H36.1c-1.4,0-2.6-1.1-2.6-2.6
	c0-2.9-2.3-5.2-5.2-5.2H14.1l0.2,2.6C14.3,6.5,28.4,6.5,28.4,6.5z M33.6,13.6l0.8,0.3c0.6,0.2,1.1,0.3,1.7,0.3H53l-6.4,9.6
	c-0.3,0.4-0.3,1,0,1.5l6.4,9.6H36.1c-1.4,0-2.6-1.1-2.6-2.6L33.6,13.6L33.6,13.6z"/>
</svg>
