<?xml version="1.0" encoding="UTF-8" ?>
<!DOCTYPE svg PUBLIC "-//W3C//DTD SVG 1.1//EN" "http://www.w3.org/Graphics/SVG/1.1/DTD/svg11.dtd">
<svg width="215pt" height="280pt" viewBox="0 0 215 280" version="1.1" xmlns="http://www.w3.org/2000/svg">
<g id="#ffffffff">
<path fill="#ffffff" opacity="1.00" d=" M 31.84 0.00 L 211.38 0.00 C 212.59 1.07 213.77 2.17 215.00 3.22 L 215.00 248.16 C 214.20 250.28 212.39 252.10 210.00 252.15 C 204.84 252.44 199.66 252.13 194.49 252.28 C 194.50 248.69 194.50 245.09 194.50 241.50 C 197.58 241.49 200.67 241.50 203.76 241.49 C 203.74 164.66 203.75 87.83 203.75 11.01 C 148.84 10.99 93.92 11.00 39.00 11.00 C 39.00 14.08 39.00 17.17 39.00 20.25 C 35.25 20.25 31.50 20.25 27.75 20.25 C 27.82 15.16 27.60 10.07 27.83 4.99 C 27.84 2.57 29.73 0.82 31.84 0.00 Z" />
<path fill="#ffffff" opacity="1.00" d=" M 0.00 31.84 C 0.86 29.33 3.28 27.55 5.99 27.76 C 47.32 27.72 88.65 27.78 129.99 27.73 C 133.12 27.79 136.87 27.10 139.17 29.81 C 154.20 44.79 169.17 59.83 184.20 74.81 C 185.81 76.47 187.57 78.46 187.26 80.96 C 187.23 145.32 187.28 209.67 187.23 274.02 C 187.48 276.76 185.68 279.14 183.15 280.00 L 3.32 280.00 C 2.20 278.80 1.03 277.65 0.00 276.38 L 0.00 31.84 M 11.00 39.00 C 11.00 115.67 11.00 192.33 11.00 269.00 C 66.08 269.00 121.17 269.00 176.25 269.00 C 176.25 207.75 176.26 146.50 176.25 85.25 C 162.85 85.25 149.44 85.25 136.04 85.25 C 133.11 85.61 129.82 83.21 130.01 80.10 C 129.99 66.40 130.01 52.70 130.00 39.00 C 90.33 39.00 50.67 39.00 11.00 39.00 M 141.00 47.14 C 141.00 56.18 141.00 65.21 141.00 74.25 C 150.04 74.25 159.07 74.25 168.11 74.25 C 159.08 65.20 150.04 56.17 141.00 47.14 Z" />
<path fill="#ffffff" opacity="1.00" d=" M 37.00 65.00 C 50.00 65.00 63.00 65.00 76.00 65.00 C 76.00 68.67 76.00 72.33 76.00 76.00 C 63.00 76.00 50.00 76.00 37.00 76.00 C 37.00 72.33 37.00 68.67 37.00 65.00 Z" />
<path fill="#ffffff" opacity="1.00" d=" M 37.02 92.49 C 74.76 92.52 112.51 92.48 150.25 92.51 C 150.25 96.17 150.25 99.83 150.25 103.49 C 112.51 103.52 74.76 103.49 37.01 103.51 C 36.99 99.84 36.99 96.16 37.02 92.49 Z" />
<path fill="#ffffff" opacity="1.00" d=" M 37.00 120.50 C 62.31 120.47 87.63 120.55 112.94 120.46 C 113.04 124.14 113.01 127.83 112.97 131.52 C 87.65 131.48 62.33 131.51 37.01 131.51 C 36.99 127.84 37.00 124.17 37.00 120.50 Z" />
<path fill="#ffffff" opacity="1.00" d=" M 120.26 131.52 C 120.25 127.84 120.25 124.16 120.26 120.48 C 130.25 120.52 140.25 120.49 150.25 120.50 C 150.25 124.17 150.25 127.83 150.25 131.50 C 140.25 131.51 130.26 131.48 120.26 131.52 Z" />
<path fill="#ffffff" opacity="1.00" d=" M 37.01 148.49 C 74.76 148.51 112.51 148.48 150.25 148.51 C 150.25 152.17 150.25 155.83 150.25 159.50 C 112.51 159.53 74.78 159.46 37.04 159.53 C 36.97 155.85 37.00 152.17 37.01 148.49 Z" />
<path fill="#ffffff" opacity="1.00" d=" M 37.04 176.47 C 48.45 176.54 59.85 176.47 71.25 176.50 C 71.25 180.17 71.25 183.83 71.25 187.49 C 59.84 187.52 48.43 187.49 37.01 187.51 C 37.00 183.83 36.97 180.15 37.04 176.47 Z" />
<path fill="#ffffff" opacity="1.00" d=" M 78.75 176.51 C 102.58 176.49 126.42 176.49 150.25 176.51 C 150.25 180.17 150.25 183.83 150.25 187.50 C 126.42 187.51 102.58 187.51 78.75 187.50 C 78.75 183.83 78.75 180.17 78.75 176.51 Z" />
<path fill="#ffffff" opacity="1.00" d=" M 37.00 204.00 C 74.75 204.00 112.50 204.00 150.25 204.00 C 150.25 207.67 150.25 211.33 150.25 215.00 C 112.50 215.00 74.75 215.00 37.00 215.00 C 37.00 211.33 37.00 207.67 37.00 204.00 Z" />
<path fill="#ffffff" opacity="1.00" d=" M 37.00 232.00 C 43.92 232.00 50.84 231.99 57.75 232.01 C 57.75 235.67 57.75 239.33 57.75 242.99 C 50.84 243.01 43.92 243.00 37.00 243.00 C 37.00 239.33 37.00 235.67 37.00 232.00 Z" />
<path fill="#ffffff" opacity="1.00" d=" M 65.00 232.00 C 93.42 232.00 121.83 232.00 150.25 232.00 C 150.25 235.67 150.25 239.33 150.25 243.00 C 121.83 243.00 93.42 243.00 65.00 243.00 C 65.00 239.33 65.00 235.67 65.00 232.00 Z" />
</g>
</svg>
