<?xml version="1.0" encoding="UTF-8" ?>
<!DOCTYPE svg PUBLIC "-//W3C//DTD SVG 1.1//EN" "http://www.w3.org/Graphics/SVG/1.1/DTD/svg11.dtd">
<svg width="198pt" height="275pt" viewBox="0 0 198 275" version="1.1" xmlns="http://www.w3.org/2000/svg">
<g id="#ffffffff">
<path fill="#ffffff" opacity="1.00" d=" M 3.87 0.00 L 195.05 0.00 C 195.69 1.25 196.94 1.99 198.00 2.85 L 198.00 227.16 C 183.99 241.73 169.40 255.75 155.25 270.19 C 153.67 271.91 152.08 273.64 150.18 275.00 L 3.82 275.00 C 2.07 274.27 0.71 272.91 0.00 271.16 L 0.00 3.83 C 0.72 2.07 2.09 0.69 3.87 0.00 M 11.00 11.00 C 11.00 95.33 11.00 179.67 11.00 264.00 C 54.92 264.00 98.84 264.01 142.75 263.99 C 142.75 251.00 142.75 238.00 142.75 225.01 C 142.45 222.11 144.84 219.03 147.84 219.02 C 161.06 218.97 174.28 219.02 187.50 219.00 C 187.50 149.67 187.50 80.33 187.50 11.00 C 128.66 11.00 69.83 11.00 11.00 11.00 M 153.75 229.75 C 153.75 238.45 153.75 247.16 153.75 255.86 C 162.39 247.18 171.18 238.64 179.60 229.74 C 170.98 229.76 162.37 229.74 153.75 229.75 Z" />
<path fill="#ffffff" opacity="1.00" d=" M 36.12 33.17 C 40.31 32.24 44.69 32.98 48.95 32.74 C 52.05 32.91 55.97 31.91 58.17 34.76 C 61.05 37.64 59.03 43.41 54.94 43.72 C 48.76 43.71 42.56 43.91 36.39 43.61 C 31.71 42.18 31.41 34.76 36.12 33.17 Z" />
<path fill="#ffffff" opacity="1.00" d=" M 112.43 33.40 C 113.82 32.60 115.48 32.77 117.02 32.73 C 132.04 32.79 147.06 32.71 162.09 32.76 C 164.93 32.66 167.84 34.96 167.78 37.93 C 168.22 41.04 165.24 44.22 162.07 43.77 C 146.05 43.70 130.03 43.81 114.02 43.72 C 108.92 43.29 107.81 35.44 112.43 33.40 Z" />
<path fill="#ffffff" opacity="1.00" d=" M 81.35 56.54 C 108.26 56.43 135.16 56.53 162.07 56.49 C 164.06 56.35 166.06 57.17 167.20 58.86 C 169.87 61.99 167.27 67.73 163.10 67.50 C 135.54 67.47 107.98 67.57 80.42 67.45 C 74.42 66.35 75.29 56.66 81.35 56.54 Z" />
<path fill="#ffffff" opacity="1.00" d=" M 33.34 100.38 C 34.78 99.67 36.46 100.11 38.00 99.98 C 79.71 100.03 121.43 99.98 163.14 100.01 C 166.19 99.84 168.65 103.10 168.22 106.00 C 168.01 108.99 165.00 111.34 162.04 111.00 C 119.68 110.94 77.31 111.12 34.95 110.91 C 29.59 110.52 28.45 102.42 33.34 100.38 Z" />
<path fill="#ffffff" opacity="1.00" d=" M 34.26 118.36 C 77.15 118.11 120.07 118.31 162.97 118.26 C 166.60 118.17 169.45 122.51 167.85 125.80 C 167.05 128.23 164.38 129.54 161.93 129.26 C 119.63 129.21 77.32 129.31 35.02 129.21 C 29.14 128.97 28.52 119.52 34.26 118.36 Z" />
<path fill="#ffffff" opacity="1.00" d=" M 33.18 139.18 C 34.69 138.44 36.42 138.84 38.04 138.73 C 79.71 138.77 121.39 138.73 163.06 138.75 C 166.24 138.55 168.81 142.04 168.18 145.03 C 167.82 147.95 164.87 150.08 161.99 149.75 C 119.75 149.71 77.51 149.82 35.27 149.69 C 29.75 149.60 28.35 141.47 33.18 139.18 Z" />
<path fill="#ffffff" opacity="1.00" d=" M 34.34 157.55 C 69.92 157.43 105.50 157.53 141.08 157.50 C 145.29 157.26 147.90 163.07 145.16 166.19 C 144.01 167.88 141.97 168.65 139.97 168.51 C 105.33 168.49 70.69 168.51 36.06 168.50 C 33.04 168.64 29.94 166.15 30.22 162.97 C 30.00 160.50 31.99 158.10 34.34 157.55 Z" />
<path fill="#ffffff" opacity="1.00" d=" M 157.32 157.56 C 159.88 156.69 163.01 156.60 165.53 157.62 C 169.89 159.81 168.73 167.12 163.95 167.92 C 161.31 168.04 158.24 168.52 156.06 166.64 C 153.24 164.24 153.84 159.03 157.32 157.56 Z" />
<path fill="#ffffff" opacity="1.00" d=" M 49.50 198.63 C 58.68 196.07 69.24 199.23 75.28 206.64 C 83.73 216.39 82.81 232.61 73.17 241.24 C 64.05 250.31 47.95 250.21 38.82 241.21 C 31.28 234.22 28.82 222.41 33.02 213.01 C 35.90 206.00 42.20 200.59 49.50 198.63 M 50.39 209.65 C 45.56 211.71 42.26 216.69 42.03 221.91 C 41.55 229.54 48.24 236.71 55.94 236.54 C 65.67 236.78 73.28 225.04 68.58 216.37 C 65.64 209.68 56.98 206.55 50.39 209.65 Z" />
<path fill="#ffffff" opacity="1.00" d=" M 95.21 218.15 C 95.64 218.05 96.52 217.86 96.96 217.76 C 106.99 217.74 117.03 217.73 127.07 217.76 C 129.92 217.57 132.58 220.06 132.53 222.91 C 132.92 225.98 130.13 229.06 127.01 228.75 C 116.70 228.71 106.38 228.83 96.06 228.69 C 90.68 228.23 90.04 219.60 95.21 218.15 Z" />
</g>
</svg>
