<!-- Generator: Adobe Illustrator 22.1.0, SVG Export Plug-In  -->
<svg version="1.1"
	 xmlns="http://www.w3.org/2000/svg" xmlns:xlink="http://www.w3.org/1999/xlink" xmlns:a="http://ns.adobe.com/AdobeSVGViewerExtensions/3.0/"
	 x="0px" y="0px" width="61.4px" height="61.4px" viewBox="0 0 61.4 61.4" style="enable-background:new 0 0 61.4 61.4;"
	 xml:space="preserve">
<style type="text/css">
	*{fill:#fff;}
</style>
<defs>
</defs>
<path class="st0" d="M60,1.5c-1.9-1.9-5.1-1.9-7.1,0l-3.2,3.2l3.1,0.6l1.9-1.9c0.9-0.9,2.4-0.9,3.3,0s0.9,2.4,0,3.3l-1.9,1.9
	l0.6,3.1L60,8.5C61.9,6.6,61.9,3.4,60,1.5z"/>
<path d="M55.9,8c-0.3-0.5-0.6-1-1.1-1.4c-0.4-0.4-0.9-0.8-1.4-1.1l-0.6-0.3l-3.1-0.6l-0.2,0c-1.7,0.1-3.2,0.8-4.4,2l-2.9,2.9
	l-1.6-1.6c-1.9-1.9-5.1-1.9-7.1,0L23.2,18.3c-0.5,0.5-0.5,1.4,0,1.9c0.5,0.5,1.4,0.5,1.9,0L35.4,9.8c0.9-0.9,2.4-0.9,3.3,0l1.6,1.6
	L9.4,42.4c-3.7,3.7-6,8.4-6.7,13.9c0,0.3-0.1,0.4-0.1,0.5l0,0.1l-2.2,2.2c-0.5,0.5-0.5,1.4,0,1.9c0.5,0.5,1.4,0.5,1.9,0l2.2-2.2
	l0.1,0c0.1,0,0.2,0,0.5-0.1c5.5-0.7,10.2-3,13.9-6.7l35.7-35.7c1.2-1.2,1.9-2.7,2-4.4l0-0.2l-0.6-3.1L55.9,8z M15.8,51.4
	c-2.8,2.3-6.1,3.9-9.7,4.5L5.5,56l0.1-0.7c0.6-3.5,2.2-6.9,4.5-9.7l0.4-0.4l5.8,5.8L15.8,51.4z M18.2,49.2l-5.9-5.9l30-30l5.9,5.9
	L18.2,49.2z M52.9,14.4L50,17.3l-5.9-5.9L47,8.5c1.6-1.6,4.3-1.6,5.9,0S54.6,12.8,52.9,14.4z"/>
</svg>
