<?xml version="1.0" encoding="UTF-8" ?>
<!DOCTYPE svg PUBLIC "-//W3C//DTD SVG 1.1//EN" "http://www.w3.org/Graphics/SVG/1.1/DTD/svg11.dtd">
<svg width="288pt" height="233pt" viewBox="0 0 288 233" version="1.1" xmlns="http://www.w3.org/2000/svg">
<g id="#ffffffff">
<path fill="#ffffff" opacity="1.00" d=" M 92.58 0.00 L 195.51 0.00 C 204.82 1.26 212.50 9.67 212.73 19.08 C 212.75 40.68 212.77 62.29 212.73 83.90 C 212.40 93.62 203.76 102.05 194.05 102.22 C 179.20 102.29 164.35 102.23 149.50 102.25 C 149.50 111.50 149.50 120.75 149.50 130.00 C 177.69 130.02 205.87 129.96 234.05 130.03 C 243.45 130.23 251.44 138.84 251.49 148.15 C 251.53 156.68 251.49 165.21 251.49 173.74 C 259.00 173.80 266.50 173.68 274.01 173.77 C 280.96 173.88 287.08 179.69 288.00 186.52 L 288.00 220.69 C 286.86 226.84 281.82 231.89 275.66 233.00 L 217.01 233.00 C 210.15 232.05 204.42 225.93 204.28 218.95 C 204.22 208.64 204.24 198.32 204.27 188.01 C 204.33 180.70 210.62 174.09 217.95 173.78 C 225.54 173.67 233.15 173.79 240.75 173.75 C 240.74 165.50 240.76 157.25 240.76 149.00 C 241.03 144.81 237.29 140.97 233.11 141.03 C 205.08 140.95 177.04 141.02 149.00 141.00 C 149.00 152.00 149.00 163.00 149.00 174.00 C 156.69 174.11 164.39 173.77 172.07 174.17 C 179.23 174.62 185.42 180.88 185.70 188.07 C 185.82 198.38 185.73 208.69 185.74 218.99 C 185.65 225.36 181.11 231.21 175.01 233.00 L 112.43 233.00 C 106.43 231.02 101.86 225.30 101.82 218.89 C 101.68 208.89 101.72 198.87 101.80 188.87 C 101.80 181.33 108.15 174.47 115.73 174.14 C 123.31 173.80 130.91 174.10 138.50 174.00 C 138.50 163.00 138.50 152.00 138.50 141.00 C 111.00 140.99 83.50 141.01 56.00 140.99 C 51.84 140.59 47.38 143.78 47.28 148.13 C 47.19 156.67 47.28 165.21 47.25 173.75 C 54.84 173.79 62.44 173.67 70.03 173.78 C 77.39 174.08 83.71 180.74 83.73 188.08 C 83.75 198.38 83.78 208.68 83.72 218.97 C 83.58 225.90 77.95 231.83 71.24 233.00 L 12.32 233.00 C 6.19 231.85 1.04 226.96 0.00 220.75 L 0.00 186.62 C 1.14 179.96 6.99 174.49 13.79 174.14 C 21.19 173.80 28.60 174.10 36.00 174.00 C 36.08 165.30 35.84 156.58 36.11 147.88 C 36.46 138.51 44.80 130.46 54.16 130.32 C 82.44 130.16 110.72 130.30 139.00 130.25 C 139.00 121.08 139.00 111.92 139.00 102.75 C 124.62 102.74 110.25 102.77 95.88 102.74 C 89.27 102.81 82.58 99.65 78.94 94.04 C 76.26 90.26 75.50 85.54 75.50 81.00 C 75.49 61.33 75.51 41.67 75.49 22.00 C 75.47 17.43 76.11 12.65 78.76 8.80 C 81.76 3.99 87.01 0.83 92.58 0.00 M 93.21 11.15 C 89.15 11.97 86.09 15.85 86.26 20.00 C 86.25 40.99 86.24 61.98 86.27 82.97 C 86.39 87.52 90.51 91.45 95.02 91.49 C 127.37 91.51 159.72 91.48 192.06 91.51 C 197.08 91.79 201.26 87.08 200.97 82.18 C 201.01 61.43 201.05 40.67 200.94 19.91 C 201.03 15.16 196.89 10.71 192.03 11.00 C 159.09 11.09 126.13 10.81 93.21 11.15 M 13.21 185.23 C 11.86 185.87 10.89 187.37 11.01 188.89 C 10.99 198.59 10.99 208.30 11.01 218.00 C 10.90 220.16 12.86 222.11 15.02 221.99 C 32.72 222.01 50.41 221.99 68.10 222.00 C 70.44 222.31 72.76 220.34 72.71 217.97 C 72.77 208.32 72.78 198.66 72.71 189.01 C 72.80 186.57 70.46 184.44 68.03 184.76 C 50.38 184.76 32.72 184.70 15.07 184.79 C 14.61 184.90 13.67 185.12 13.21 185.23 M 115.23 185.22 C 113.83 185.88 112.77 187.30 113.01 188.91 C 112.99 198.64 112.99 208.37 113.01 218.10 C 112.88 220.22 114.89 222.05 116.95 221.99 C 134.65 222.02 152.35 221.99 170.05 222.00 C 172.41 222.33 174.79 220.33 174.69 217.90 C 174.83 208.58 174.71 199.26 174.75 189.94 C 175.07 187.27 172.91 184.33 170.03 184.76 C 153.33 184.72 136.64 184.78 119.94 184.73 C 118.37 184.83 116.69 184.50 115.23 185.22 M 217.40 185.28 C 216.19 186.14 215.18 187.47 215.26 189.03 C 215.26 198.67 215.21 208.32 215.29 217.96 C 215.24 220.36 217.59 222.33 219.95 222.00 C 237.62 221.99 255.30 222.02 272.98 221.99 C 275.13 222.11 277.09 220.17 276.99 218.01 C 277.01 208.30 277.01 198.58 276.99 188.87 C 277.05 186.37 274.41 184.42 272.03 184.75 C 255.35 184.73 238.67 184.78 222.00 184.73 C 220.47 184.84 218.78 184.49 217.40 185.28 Z" />
<path fill="#ffffff" opacity="1.00" d=" M 114.21 33.37 C 133.48 33.10 152.78 33.32 172.06 33.26 C 175.33 33.15 178.20 36.71 177.32 39.88 C 176.89 42.33 174.47 44.34 171.97 44.24 C 152.95 44.23 133.93 44.31 114.92 44.21 C 109.34 43.69 108.51 34.57 114.21 33.37 Z" />
<path fill="#ffffff" opacity="1.00" d=" M 114.14 58.01 C 132.38 57.39 150.70 57.95 168.96 57.73 C 171.69 57.60 175.10 57.72 176.61 60.44 C 179.05 63.84 176.09 69.01 172.00 68.93 C 153.03 69.03 134.05 69.08 115.09 68.91 C 109.27 68.55 108.41 59.31 114.14 58.01 Z" />
</g>
</svg>
