<?xml version="1.0" encoding="UTF-8" ?>
<!DOCTYPE svg PUBLIC "-//W3C//DTD SVG 1.1//EN" "http://www.w3.org/Graphics/SVG/1.1/DTD/svg11.dtd">
<svg width="287pt" height="249pt" viewBox="0 0 287 249" version="1.1" xmlns="http://www.w3.org/2000/svg">
<g id="#ffffffff">
<path fill="#ffffff" opacity="1.00" d=" M 206.63 0.00 L 212.48 0.00 C 217.33 0.82 221.63 3.49 224.82 7.18 C 240.87 22.80 256.51 38.84 272.57 54.44 C 278.31 60.60 286.46 65.98 287.00 75.22 L 287.00 78.79 C 286.54 82.70 285.13 86.56 282.51 89.55 C 275.21 97.25 267.25 104.32 260.28 112.32 C 248.43 124.25 236.70 136.31 224.74 148.13 C 230.06 154.78 238.48 159.69 240.28 168.56 C 242.08 176.42 238.29 185.26 231.22 189.20 C 228.28 191.11 224.72 191.49 221.32 191.86 C 221.87 202.11 212.58 211.33 202.35 210.85 C 202.03 215.41 200.87 220.13 197.67 223.56 C 193.99 227.64 188.60 230.05 183.10 230.10 C 183.33 238.87 176.86 246.87 168.45 249.00 L 158.80 249.00 C 155.30 248.01 152.11 246.10 149.60 243.48 C 141.20 235.12 132.90 226.66 124.43 218.38 C 120.65 222.27 116.78 226.08 112.96 229.92 C 107.28 235.67 97.34 236.07 90.97 231.23 C 85.91 227.23 81.03 221.96 80.63 215.18 C 78.04 214.67 75.34 214.27 73.07 212.85 C 67.09 208.77 61.73 202.94 60.75 195.49 C 57.86 195.12 54.95 194.38 52.55 192.65 C 47.12 188.54 41.92 183.06 41.33 175.91 C 34.85 175.68 29.83 171.09 25.96 166.34 C 20.94 160.19 21.17 150.42 26.47 144.51 C 30.36 140.35 34.49 136.44 38.50 132.39 C 27.03 120.89 15.56 109.40 4.04 97.94 C 2.42 96.29 0.23 94.61 0.46 92.01 C 0.08 88.92 2.73 85.70 5.96 85.99 C 8.87 86.07 10.50 88.84 12.47 90.58 C 37.83 115.86 62.97 141.36 88.55 166.42 C 111.61 189.45 134.62 212.54 157.71 235.54 C 160.73 238.63 166.15 238.05 168.85 234.83 C 171.93 231.82 171.68 226.42 168.45 223.60 C 156.32 211.39 144.08 199.28 131.96 187.06 C 129.53 184.73 129.92 180.46 132.43 178.34 C 134.53 176.39 138.08 177.05 139.82 179.18 C 152.29 191.71 164.31 204.69 176.83 217.18 C 180.31 220.82 186.77 219.40 189.06 215.14 C 191.15 212.02 190.24 207.82 187.66 205.30 C 175.49 193.07 163.25 180.91 151.07 168.68 C 148.98 166.62 148.99 163.09 150.83 160.86 C 152.66 158.08 157.09 158.41 159.04 160.90 C 170.88 172.75 182.72 184.59 194.56 196.43 C 196.25 198.19 198.41 199.58 200.89 199.79 C 205.43 199.85 209.56 195.75 209.43 191.19 C 209.32 188.70 207.82 186.62 206.09 184.95 C 194.23 173.12 182.40 161.26 170.55 149.43 C 168.14 147.41 168.14 143.51 170.06 141.16 C 171.82 138.60 176.01 138.82 177.94 141.08 C 190.30 153.34 202.49 165.79 214.94 177.95 C 218.44 181.59 224.73 180.42 227.23 176.22 C 229.68 172.86 228.43 168.14 225.44 165.57 C 196.09 136.20 166.70 106.86 137.37 77.48 C 136.59 76.46 135.39 76.13 134.16 76.15 C 124.73 75.44 115.32 74.55 105.88 73.89 C 104.52 79.91 103.94 86.26 101.05 91.82 C 96.02 101.61 85.01 107.98 74.00 107.28 C 61.40 106.93 49.83 97.45 46.81 85.25 C 44.39 76.46 47.66 67.65 49.03 59.00 C 51.15 45.96 58.24 33.72 68.79 25.72 C 80.49 16.52 96.12 12.45 110.80 15.05 C 133.15 18.98 155.48 22.97 177.83 26.90 C 179.28 20.74 184.62 17.00 188.73 12.65 C 193.93 7.51 198.90 1.15 206.63 0.00 M 203.82 13.81 C 199.19 18.51 194.24 22.89 189.72 27.71 C 187.24 30.47 187.39 35.21 190.27 37.65 C 211.77 58.97 232.92 80.63 254.37 102.01 C 260.65 95.73 266.93 89.46 273.21 83.17 C 276.32 80.26 276.40 74.77 273.24 71.86 C 253.89 52.51 234.53 33.16 215.18 13.80 C 212.26 10.60 206.74 10.62 203.82 13.81 M 65.44 47.12 C 60.90 55.10 60.68 64.50 58.53 73.23 C 55.90 82.63 62.61 93.02 72.00 95.13 C 79.41 96.88 87.67 93.22 91.40 86.59 C 94.07 82.16 94.21 76.86 95.38 71.94 C 95.88 67.63 97.00 60.54 102.98 61.52 C 115.30 62.66 127.63 63.74 139.95 64.86 C 141.72 65.05 142.97 66.49 144.23 67.60 C 168.35 91.74 192.50 115.86 216.62 140.01 C 226.66 129.95 236.72 119.92 246.75 109.86 C 222.68 85.80 198.59 61.77 174.58 37.66 C 152.41 33.70 130.21 29.88 108.03 25.97 C 91.21 23.05 73.41 32.13 65.44 47.12 M 35.16 151.26 C 32.70 153.70 33.12 158.05 35.90 160.07 C 38.16 162.82 41.91 165.78 45.52 163.48 C 49.41 159.92 52.99 156.04 56.76 152.37 C 52.95 148.59 49.17 144.78 45.37 140.99 C 42.00 144.45 38.50 147.78 35.16 151.26 M 53.89 172.04 C 51.96 175.28 54.07 178.80 56.49 181.04 C 58.22 183.65 62.06 184.99 64.74 182.99 C 68.81 179.54 72.43 175.60 76.38 172.02 C 72.60 168.21 68.81 164.42 65.00 160.63 C 61.34 164.47 57.26 167.95 53.89 172.04 M 73.92 189.94 C 71.97 191.64 71.67 194.78 72.98 196.95 C 74.16 198.45 75.58 199.75 76.94 201.09 C 79.05 203.35 83.11 203.72 85.28 201.33 C 88.72 197.96 92.07 194.51 95.50 191.14 C 91.72 187.33 87.92 183.54 84.12 179.75 C 80.73 183.15 77.31 186.54 73.92 189.94 M 93.26 209.38 C 90.79 211.70 90.89 216.02 93.53 218.18 C 95.83 220.86 99.17 224.08 102.98 222.07 C 107.21 218.61 110.77 214.37 114.76 210.63 C 110.97 206.83 107.17 203.04 103.38 199.24 C 100.02 202.64 96.60 205.97 93.26 209.38 Z" />
</g>
</svg>
