<?xml version="1.0" encoding="UTF-8" ?>
<!DOCTYPE svg PUBLIC "-//W3C//DTD SVG 1.1//EN" "http://www.w3.org/Graphics/SVG/1.1/DTD/svg11.dtd">
<svg width="269pt" height="267pt" viewBox="0 0 269 267" version="1.1" xmlns="http://www.w3.org/2000/svg">
<g id="#ffffffff">
<path fill="#ffffff" opacity="1.00" d=" M 21.28 0.00 L 155.72 0.00 C 165.10 0.94 173.42 7.90 176.11 16.92 C 178.44 24.04 177.09 31.89 173.38 38.29 C 187.26 38.20 201.14 38.28 215.02 38.24 C 222.44 38.22 229.81 41.79 234.23 47.78 C 239.42 54.40 240.65 63.80 237.51 71.58 C 234.40 79.62 226.74 85.68 218.16 86.70 C 212.74 87.29 207.27 86.90 201.83 86.99 C 202.55 88.27 203.27 89.55 203.98 90.84 C 224.24 96.43 242.32 109.52 253.90 127.07 C 262.79 140.26 267.81 155.85 269.00 171.67 L 269.00 184.42 C 267.47 205.60 258.43 226.26 243.35 241.29 C 230.08 255.04 212.14 264.01 193.31 267.00 L 166.27 267.00 C 146.42 264.14 127.70 254.26 114.12 239.50 C 93.39 239.52 72.67 239.48 51.95 239.52 C 41.81 239.69 32.27 232.42 29.30 222.80 C 26.16 213.33 29.52 202.53 37.01 196.07 C 31.70 191.24 27.93 184.36 28.21 177.03 C 27.91 169.62 31.60 162.55 37.05 157.70 C 31.80 152.96 28.08 146.20 28.21 139.00 C 27.80 131.47 31.51 124.25 37.04 119.32 C 31.71 114.39 27.93 107.39 28.21 99.99 C 27.95 90.78 33.74 81.90 42.06 78.08 C 49.43 74.51 57.83 76.05 65.71 75.80 C 60.57 67.57 60.59 56.72 65.72 48.49 C 51.46 48.51 37.20 48.52 22.94 48.49 C 11.48 48.22 1.34 38.70 0.00 27.37 L 0.00 21.06 C 1.28 10.28 10.43 1.06 21.28 0.00 M 19.34 11.49 C 14.54 13.33 10.99 17.99 10.55 23.12 C 9.84 30.29 15.86 37.29 23.03 37.74 C 66.38 37.77 109.73 37.73 153.08 37.76 C 160.34 37.96 166.85 31.23 166.54 24.00 C 166.61 16.82 160.11 10.51 152.98 10.52 C 111.31 10.47 69.65 10.53 27.98 10.49 C 25.09 10.50 22.06 10.30 19.34 11.49 M 82.13 49.13 C 76.06 51.00 71.66 57.43 72.58 63.80 C 73.36 70.30 79.38 75.86 85.99 75.76 C 129.00 75.74 172.01 75.74 215.02 75.76 C 222.26 75.88 228.77 69.19 228.53 61.97 C 228.53 54.84 222.15 48.46 215.00 48.51 C 172.33 48.48 129.65 48.52 86.97 48.49 C 85.34 48.50 83.69 48.60 82.13 49.13 M 39.36 96.79 C 36.74 104.73 43.72 113.69 51.93 113.74 C 73.43 113.75 94.92 113.76 116.41 113.73 C 125.72 104.18 137.38 96.99 149.93 92.51 C 161.63 88.23 174.18 87.16 186.55 87.43 C 184.77 86.91 182.95 86.43 181.08 86.49 C 138.03 86.52 94.99 86.48 51.94 86.51 C 46.05 86.63 40.92 91.24 39.36 96.79 M 169.60 98.81 C 148.26 101.45 128.33 113.37 115.82 130.84 C 104.39 146.44 99.06 166.36 101.18 185.58 C 102.84 201.74 109.64 217.32 120.38 229.51 C 131.85 242.70 147.84 251.87 165.03 255.07 C 181.80 258.32 199.64 255.80 214.84 248.00 C 233.13 238.83 247.56 222.28 254.17 202.91 C 260.01 186.21 259.90 167.56 253.94 150.91 C 247.48 132.45 233.89 116.61 216.61 107.44 C 202.35 99.72 185.66 96.78 169.60 98.81 M 38.48 137.96 C 38.08 145.24 44.79 151.77 51.97 151.74 C 65.80 151.76 79.63 151.76 93.46 151.74 C 96.54 142.04 101.19 132.90 106.90 124.49 C 88.61 124.51 70.32 124.50 52.03 124.50 C 44.91 124.56 39.02 131.07 38.48 137.96 M 38.83 175.03 C 38.35 182.28 44.71 189.22 52.04 189.24 C 64.95 189.30 77.87 189.17 90.78 189.31 C 89.97 180.38 89.68 171.37 91.27 162.50 C 78.19 162.50 65.11 162.50 52.02 162.50 C 45.23 162.45 39.50 168.45 38.83 175.03 M 44.84 202.77 C 40.10 205.98 37.48 212.36 39.40 217.89 C 41.15 223.64 46.89 227.86 52.92 227.73 C 70.39 227.78 87.87 227.71 105.35 227.77 C 99.95 219.26 95.37 210.09 92.97 200.25 C 80.30 200.25 67.62 200.25 54.95 200.25 C 51.46 200.28 47.74 200.63 44.84 202.77 Z" />
<path fill="#ffffff" opacity="1.00" d=" M 184.40 109.49 C 188.13 106.26 194.80 110.37 193.71 115.15 C 193.11 118.80 188.35 120.68 185.26 118.78 C 181.84 117.13 181.44 111.76 184.40 109.49 Z" />
<path fill="#ffffff" opacity="1.00" d=" M 204.37 115.31 C 206.04 114.39 208.14 114.12 209.84 115.16 C 223.93 122.35 235.74 134.26 242.22 148.76 C 251.03 167.74 250.30 190.90 240.16 209.22 C 238.40 212.69 232.35 212.58 230.93 208.87 C 229.61 206.28 231.18 203.64 232.25 201.29 C 237.72 189.40 239.30 175.65 235.93 162.94 C 231.85 146.54 220.23 132.26 205.01 124.93 C 201.20 123.30 200.71 117.41 204.37 115.31 Z" />
<path fill="#ffffff" opacity="1.00" d=" M 120.36 143.57 C 123.07 141.37 128.25 142.31 128.95 146.10 C 129.86 148.37 128.41 150.56 127.54 152.58 C 121.84 164.75 120.31 178.91 123.87 191.92 C 128.15 208.10 139.70 222.21 154.87 229.37 C 159.67 231.44 157.90 239.22 153.10 239.97 C 150.61 240.49 148.55 238.80 146.50 237.69 C 133.99 230.39 123.52 219.38 117.56 206.11 C 109.00 187.67 109.11 165.31 118.18 147.09 C 118.84 145.89 119.26 144.46 120.36 143.57 Z" />
<path fill="#ffffff" opacity="1.00" d=" M 169.51 235.72 C 174.18 233.11 180.34 239.67 177.04 243.98 C 175.06 247.00 169.96 247.13 167.84 244.19 C 165.53 241.69 166.44 237.14 169.51 235.72 Z" />
</g>
</svg>
