<svg viewBox="0 0 200 267" version="1.1" xmlns="http://www.w3.org/2000/svg"><g id="#ffffffff"><path fill="#ffffff" opacity="1.00" d=" M 99.67 0.00 L 106.24 0.00 C 126.88 1.53 146.95 10.83 160.90 26.21 C 172.04 38.24 179.66 53.59 182.07 69.84 C 184.68 87.06 182.01 105.28 173.42 120.55 C 163.17 137.89 152.89 155.22 142.60 172.54 C 148.63 175.14 154.61 177.83 160.62 180.48 C 162.64 181.21 164.09 182.92 164.95 184.84 C 176.62 209.50 188.36 234.13 200.00 258.81 L 200.00 262.26 C 199.38 264.31 198.01 266.05 196.07 267.00 L 193.02 267.00 C 178.64 260.64 164.26 254.30 149.91 247.88 C 148.75 247.52 147.48 246.53 146.27 247.31 C 131.77 253.53 117.32 259.88 102.82 266.12 C 101.40 266.75 99.71 267.11 98.24 266.40 C 83.16 259.73 68.09 253.03 53.00 246.40 C 37.96 252.99 22.92 259.60 7.88 266.18 C 4.67 267.94 1.03 265.78 0.00 262.54 L 0.00 260.23 C 11.89 234.75 24.06 209.41 36.07 183.99 C 36.72 181.95 38.85 181.34 40.59 180.54 C 46.47 178.05 52.32 175.47 58.19 172.94 C 47.57 155.52 36.82 138.18 26.22 120.75 C 15.73 100.64 14.01 76.04 21.91 54.73 C 29.24 34.80 44.65 18.08 63.70 8.76 C 74.84 3.11 87.28 0.72 99.67 0.00 M 88.52 11.84 C 61.58 15.97 38.23 36.87 30.91 63.08 C 25.50 81.32 28.00 101.84 38.04 118.05 C 56.67 149.03 75.08 180.14 93.76 211.08 C 97.85 216.45 105.67 213.42 109.14 208.97 C 127.76 177.96 146.22 146.86 164.88 115.88 C 165.47 114.96 165.93 113.97 166.26 112.92 C 170.04 99.00 172.59 84.32 169.98 69.94 C 166.97 52.30 156.98 36.06 142.79 25.21 C 130.93 16.03 116.06 10.86 101.08 10.55 C 96.90 11.10 92.67 11.14 88.52 11.84 M 44.80 190.74 C 35.40 210.47 26.35 230.38 16.93 250.10 C 27.75 245.24 38.64 240.51 49.46 235.66 C 51.09 234.98 52.99 234.23 54.68 235.19 C 69.84 241.88 85.03 248.49 100.19 255.18 C 115.21 248.53 130.22 241.87 145.25 235.25 C 147.71 233.93 150.21 235.53 152.45 236.51 C 162.64 241.07 172.88 245.53 183.07 250.10 C 173.40 230.34 164.37 210.25 154.59 190.55 C 148.66 187.74 142.61 185.18 136.67 182.36 C 130.61 192.19 124.77 202.16 118.79 212.04 C 116.95 215.05 115.38 218.33 112.69 220.71 C 104.39 228.56 89.38 226.52 83.58 216.62 C 76.70 205.23 69.87 193.81 63.03 182.39 C 56.94 185.15 50.76 187.75 44.80 190.74 Z"></path><path fill="#ffffff" opacity="1.00" d=" M 94.14 54.10 C 103.67 52.06 114.04 55.08 121.01 61.89 C 131.85 72.28 132.46 91.15 122.20 102.14 C 112.79 113.23 94.92 115.25 83.19 106.72 C 71.94 99.18 67.73 83.39 73.20 71.10 C 76.81 62.42 84.94 55.91 94.14 54.10 M 94.42 65.58 C 86.44 68.22 80.81 76.80 82.14 85.19 C 83.15 92.78 89.42 99.23 96.93 100.61 C 105.47 102.44 114.61 96.84 117.42 88.67 C 119.95 82.05 117.54 74.25 112.52 69.47 C 107.81 64.97 100.56 63.34 94.42 65.58 Z"></path></g></svg>