<?xml version="1.0" encoding="UTF-8" ?>
<!DOCTYPE svg PUBLIC "-//W3C//DTD SVG 1.1//EN" "http://www.w3.org/Graphics/SVG/1.1/DTD/svg11.dtd">
<svg width="261pt" height="261pt" viewBox="0 0 261 261" version="1.1" xmlns="http://www.w3.org/2000/svg">
<g id="#ffffffff">
<path fill="#ffffff" opacity="1.00" d=" M 194.26 4.20 C 196.34 1.04 201.48 1.28 203.47 4.41 C 221.11 28.15 238.66 51.96 256.30 75.70 C 257.45 77.34 259.01 78.98 259.03 81.10 C 259.32 84.32 256.29 87.19 253.11 86.99 C 245.99 87.03 238.87 86.98 231.75 87.00 C 231.74 142.35 231.76 197.70 231.74 253.05 C 232.05 256.20 229.26 259.23 226.07 259.00 C 153.03 259.00 79.99 259.01 6.95 258.99 C 4.04 258.91 1.62 255.98 1.98 253.10 C 2.06 245.60 1.90 238.10 2.06 230.60 C 2.85 218.47 13.29 207.95 25.38 206.92 C 30.93 206.55 36.52 206.83 42.09 206.75 C 47.23 206.73 52.09 208.64 56.51 211.11 C 56.97 201.62 55.17 191.72 58.33 182.55 C 61.90 172.80 71.76 165.97 82.11 165.83 C 91.94 165.76 102.61 164.53 111.25 170.26 C 111.29 163.18 111.18 156.09 111.30 149.01 C 111.92 136.70 122.51 125.80 134.85 125.03 C 140.57 124.95 146.29 125.03 152.02 124.99 C 156.92 124.93 161.60 126.79 165.75 129.27 C 165.75 115.18 165.74 101.10 165.75 87.01 C 158.23 86.90 150.69 87.17 143.18 86.88 C 139.02 86.39 136.97 80.90 139.75 77.77 C 157.91 53.24 176.03 28.68 194.26 4.20 M 155.31 75.75 C 160.90 75.79 166.49 75.68 172.08 75.79 C 174.77 75.86 176.95 78.29 176.99 80.93 C 177.02 136.54 176.99 192.15 177.01 247.75 C 191.51 247.74 206.01 247.76 220.51 247.74 C 220.49 192.20 220.51 136.65 220.50 81.11 C 220.49 78.20 223.14 75.61 226.07 75.75 C 231.47 75.73 236.87 75.76 242.28 75.75 C 227.71 56.24 213.32 36.59 198.74 17.09 C 184.29 36.66 169.77 56.18 155.31 75.75 M 122.51 150.03 C 122.50 182.60 122.50 215.18 122.50 247.75 C 136.92 247.74 151.33 247.75 165.75 247.75 C 165.76 215.47 165.73 183.19 165.76 150.91 C 165.99 144.86 161.75 139.18 156.20 137.05 C 150.32 135.13 144.00 136.32 137.93 136.01 C 130.15 135.72 122.78 142.18 122.51 150.03 M 67.76 192.03 C 67.73 210.60 67.76 229.17 67.75 247.74 C 82.25 247.75 96.75 247.76 111.25 247.74 C 111.24 229.15 111.26 210.55 111.25 191.96 C 111.31 185.50 106.67 179.47 100.50 177.69 C 94.70 176.39 88.67 177.20 82.78 177.03 C 74.76 176.95 67.70 184.02 67.76 192.03 M 13.26 232.01 C 13.22 237.25 13.27 242.50 13.25 247.75 C 27.67 247.74 42.09 247.76 56.50 247.74 C 56.45 242.14 56.58 236.54 56.46 230.94 C 55.65 223.95 49.30 218.26 42.30 218.04 C 37.49 217.96 32.68 218.00 27.88 218.01 C 20.39 218.05 13.54 224.49 13.26 232.01 Z" />
</g>
</svg>
