<!-- Generator: Adobe Illustrator 22.1.0, SVG Export Plug-In  -->
<svg version="1.1"
	 xmlns="http://www.w3.org/2000/svg" xmlns:xlink="http://www.w3.org/1999/xlink" xmlns:a="http://ns.adobe.com/AdobeSVGViewerExtensions/3.0/"
	 x="0px" y="0px" width="60.8px" height="60.8px" viewBox="0 0 60.8 60.8" style="enable-background:new 0 0 60.8 60.8;"
	 xml:space="preserve">
<style type="text/css">
	*{fill:#fff;}
</style>
<defs>
</defs>
<g>
	<path d="M58.1,23.7l-4.3-0.7c-0.4-1.3-0.9-2.6-1.6-3.8l2.5-3.5c1-1.3,0.9-3.1-0.2-4.2l-5.1-5.1c-0.6-0.6-1.4-0.9-2.2-0.9
		c-0.7,0-1.4,0.2-1.9,0.7l-3.6,2.6c-1.2-0.6-2.4-1.1-3.8-1.6l-0.7-4.3C37,1.2,35.7,0,34.1,0h-3.6v2.6h3.6c0.3,0,0.5,0.2,0.5,0.5
		l0.9,5.1c0.1,0.5,0.5,0.9,0.9,1c1.6,0.5,3.2,1.1,4.7,2c0.2,0.1,0.4,0.2,0.6,0.2c0.3,0,0.5-0.1,0.8-0.2l4.3-3.1
		c0.1-0.1,0.2-0.1,0.3-0.1c0.1,0,0.3,0.1,0.4,0.1l5.1,5.1c0.2,0.2,0.2,0.5,0,0.7l-3,4.3c-0.3,0.4-0.3,1-0.1,1.4
		c0.8,1.5,1.5,3.1,2,4.7c0.1,0.5,0.6,0.9,1,0.9l5.2,0.9c0.3,0,0.4,0.2,0.4,0.5v7.3c0,0.3-0.2,0.5-0.5,0.5l-5.2,0.9
		c-0.5,0.1-0.9,0.5-1,0.9c-0.5,1.7-1.1,3.2-2,4.7c-0.2,0.4-0.2,1,0.1,1.4l3.1,4.3c0.2,0.2,0.2,0.5,0,0.7l-5.1,5.1
		c-0.1,0.1-0.2,0.2-0.3,0.2c-0.1,0-0.3-0.1-0.4-0.2l-4.2-3c-0.2-0.2-0.5-0.2-0.8-0.2c-0.2,0-0.4,0.1-0.6,0.2c-1.5,0.8-3.1,1.5-4.7,2
		c-0.5,0.1-0.9,0.5-0.9,1l-0.9,5.2c0,0.3-0.2,0.5-0.5,0.5h-7.3c-0.3,0-0.5-0.2-0.5-0.5l-0.9-5.1c-0.1-0.5-0.5-0.9-0.9-1.1
		c-1.6-0.5-3.2-1.1-4.7-2c-0.2-0.1-0.4-0.2-0.6-0.2c-0.3,0-0.5,0.1-0.8,0.2L14,52.7c-0.1,0.1-0.2,0.1-0.3,0.1
		c-0.1,0-0.3-0.1-0.4-0.1l-5.1-5.1C8,47.3,8,47,8.2,46.7l3-4.2c0.3-0.4,0.3-1,0.1-1.4c-0.8-1.5-1.5-3.1-2-4.7
		c-0.1-0.5-0.6-0.9-1.1-0.9l-5.2-0.9c-0.3,0-0.4-0.2-0.4-0.5v-3.6H0v3.6c0,1.6,1.2,3,2.7,3.1l4.3,0.7c0.4,1.3,0.9,2.5,1.6,3.8
		l-2.5,3.5c-1,1.2-0.9,3.1,0.2,4.2l5.1,5.1c0.6,0.6,1.4,0.9,2.2,0.9c0.7,0,1.4-0.2,1.9-0.7l3.6-2.6c1.2,0.6,2.5,1.2,3.8,1.6l0.7,4.3
		c0.2,1.6,1.5,2.8,3.1,2.8h7.3c1.6,0,3-1.2,3.1-2.7l0.7-4.3c1.3-0.4,2.5-0.9,3.8-1.6l3.5,2.5c0.5,0.4,1.2,0.7,2,0.7
		c0.8,0,1.7-0.3,2.2-0.9l5.1-5.1c1.1-1.1,1.2-2.9,0.3-4.1l-2.6-3.6c0.6-1.2,1.1-2.5,1.6-3.8l4.3-0.7c1.6-0.2,2.8-1.5,2.8-3.1v-7.3
		C60.8,25.2,59.6,23.8,58.1,23.7z"/>
	<path d="M30.4,42.6c6.7,0,12.2-5.5,12.2-12.2c0-6.7-5.5-12.2-12.2-12.2c0,0,0,0,0,0v2.6c0,0,0,0,0,0c5.3,0,9.6,4.3,9.6,9.6
		c0,5.3-4.3,9.6-9.6,9.6c-5.3,0-9.6-4.3-9.6-9.6h-2.6C18.2,37.2,23.7,42.6,30.4,42.6z"/>
</g>
<g>
	<path class="st0" d="M2.6,30.4v-3.6c0-0.3,0.2-0.5,0.5-0.5l5.1-0.9c0.5-0.1,0.9-0.4,1.1-0.9c0.5-1.7,1.1-3.2,2-4.7
		c0.2-0.5,0.2-1-0.1-1.4L8.2,14c-0.2-0.2-0.1-0.5,0-0.7l5.1-5.1C13.4,8.1,13.5,8,13.7,8c0.1,0,0.3,0.1,0.4,0.2l4.3,3
		c0.2,0.2,0.5,0.2,0.8,0.2c0.2,0,0.4-0.1,0.6-0.2c1.5-0.8,3.1-1.5,4.7-2c0.5-0.1,0.9-0.6,0.9-1.1l0.9-5.2c0-0.3,0.2-0.5,0.5-0.5h3.6
		V0h-3.6c-1.6,0-3,1.2-3.1,2.7l-0.7,4.3c-1.3,0.4-2.6,0.9-3.8,1.6l-3.5-2.5c-0.5-0.4-1.2-0.7-2-0.7c-0.8,0-1.7,0.3-2.2,0.9l-5.1,5.1
		c-1.1,1.1-1.2,2.9-0.3,4.1l2.6,3.6c-0.6,1.2-1.1,2.5-1.6,3.8l-4.3,0.7C1.2,23.8,0,25.2,0,26.8v3.6H2.6z"/>
	<path class="st0" d="M20.8,30.4c0-5.3,4.3-9.6,9.6-9.6v-2.6c-6.7,0-12.2,5.5-12.2,12.2c0,0,0,0,0,0L20.8,30.4
		C20.8,30.4,20.8,30.4,20.8,30.4z"/>
</g>
</svg>
