<svg id="Слой_1" data-name="Слой 1" xmlns="http://www.w3.org/2000/svg" xmlns:xlink="http://www.w3.org/1999/xlink" viewBox="0 0 46.13 63.66"><defs>
  <style>.cls-1{fill:#fff;}.cls-2{clip-path:url(#clip-path);}.cls-3{fill:#fff;}g{fill:#fff;}</style>
  <clipPath id="clip-path" transform="translate(0 0)"><rect class="cls-1" width="46.13" height="63.67"/></clipPath></defs><title>why_sopr4</title><g class="cls-2"><path class="cls-3" d="M23.07,55.3a4.15,4.15,0,0,1-4.15-4.15V45.31l-.07-.07a6.14,6.14,0,1,1,8.44,0l-.07.07v5.85a4.15,4.15,0,0,1-4.15,4.15m0-18a3.52,3.52,0,0,0-3.51,3.51,3.48,3.48,0,0,0,1.1,2.56,2.8,2.8,0,0,1,.88,2v5.78a1.53,1.53,0,1,0,3.05,0V45.37a2.8,2.8,0,0,1,.89-2,3.47,3.47,0,0,0,1.1-2.56,3.52,3.52,0,0,0-3.51-3.51" transform="translate(0 0)"/><path d="M4.4,63.66A4.4,4.4,0,0,1,0,59.27V30.68a4.4,4.4,0,0,1,4.4-4.39H9.25V13.81a13.81,13.81,0,0,1,27.63,0V26.29h4.86a4.4,4.4,0,0,1,4.4,4.39V59.27a4.4,4.4,0,0,1-4.4,4.39Zm0-34.76a1.77,1.77,0,0,0-1.77,1.77V59.27A1.77,1.77,0,0,0,4.4,61H41.74a1.77,1.77,0,0,0,1.77-1.77V30.68a1.77,1.77,0,0,0-1.77-1.77ZM23.07,2.62A11.2,11.2,0,0,0,11.87,13.81V26.29H34.26V13.81A11.2,11.2,0,0,0,23.07,2.62" transform="translate(0 0)"/></g></svg>
