<!-- Generator: Adobe Illustrator 22.1.0, SVG Export Plug-In  -->
<svg version="1.1"
	 xmlns="http://www.w3.org/2000/svg" xmlns:xlink="http://www.w3.org/1999/xlink" xmlns:a="http://ns.adobe.com/AdobeSVGViewerExtensions/3.0/"
	 x="0px" y="0px" width="45.5px" height="67.2px" viewBox="0 0 45.5 67.2" style="enable-background:new 0 0 45.5 67.2;"
	 xml:space="preserve">
<style type="text/css">
	*{fill:#fff;}
</style>
<defs>
</defs>
<path class="st0" d="M20.4,65.3l-3.2-3.5c-0.4-0.4-0.6-1.1-0.5-1.7L19.6,43l-0.9-1.3l2.1-1.5l0.8,1.3h2.1l0.8-1.3l2.1,1.5L25.9,43
	l2.9,17.1c0.1,0.6-0.1,1.3-0.5,1.7l-3.2,3.5H20.4z M22.8,63.9l3.4-3.7L23.4,44h-1.3l-2.7,16.2L22.8,63.9z"/>
<path d="M2.8,67.2c-1.6,0-2.8-1.3-2.8-2.8V44.1c0-6,5.1-8.2,5.4-8.3l11.4-4.4v-2.2c-1.9-1.5-3.2-3.6-3.6-6c-0.9-0.1-1.7-0.5-2.4-1.1
	c-1-0.9-1.6-2.1-1.6-3.4c0-1,0.3-1.9,1-2.7v-3.6C10.2,5.6,15.8,0,22.7,0c6.8,0,12.4,5.6,12.4,12.4v3.5c0.6,0.8,1,1.8,1,2.8
	c0,1.3-0.6,2.5-1.6,3.4c-0.7,0.6-1.5,1-2.4,1.1c-0.4,2.3-1.6,4.4-3.4,5.9v2.3l11.4,4.4c0.2,0.1,5.4,2.3,5.4,8.3l0,20.3
	c0,1.6-1.3,2.8-2.8,2.8H2.8z M42.7,64.6c0.1,0,0.2-0.1,0.2-0.2V44.1c0-4.2-3.6-5.8-3.7-5.8l-6.7-2.6l-2.9,5.9
	c-0.3,0.7-1.1,1.1-1.8,1.1c-0.7,0-1.1-0.3-1.5-0.6l-3.5-2.5l-3.5,2.5c-0.4,0.3-0.8,0.6-1.5,0.6c-0.8,0-1.5-0.4-1.8-1.1L13,35.7
	l-6.7,2.6c-0.1,0.1-3.7,1.6-3.7,5.8v20.3c0,0.1,0.1,0.2,0.2,0.2h4.9V45.7c0-0.7,0.6-1.3,1.3-1.3s1.3,0.6,1.3,1.3v18.9l24.8,0V45.7
	c0-0.7,0.6-1.3,1.3-1.3s1.3,0.6,1.3,1.3v18.9H42.7z M27.5,39.8l2.5-5.1l-2.2-0.8l-3.2,3.9L27.5,39.8z M18,39.8l2.8-2l-3.2-3.9
	l-2.2,0.8L18,39.8z M22.8,35.9l3.3-4.1v-1.3c-1.1,0.4-2.2,0.6-3.3,0.6c-1.1,0-2.3-0.2-3.3-0.5v1.2L22.8,35.9z M15.7,21.7
	c0,3.4,2.6,6.8,7.1,6.8c3.8,0,6.8-3.1,6.8-6.8v-7c-0.2-0.2-0.6-0.6-1.1-1.2l-1-1.1c-3.3,2.1-7.3,3.2-11.1,3.2c-0.2,0-0.5,0-0.7,0
	V21.7z M32.3,20.5c0.2-0.1,0.4-0.2,0.6-0.3c0.4-0.4,0.6-0.9,0.6-1.4c0-0.8-0.5-1.5-1.2-1.7V20.5z M13.1,17.1
	c-0.6,0.3-1.2,0.9-1.2,1.7c0,0.8,0.5,1.5,1.2,1.7V17.1z M22.7,2.6c-5.4,0-9.8,4.4-9.8,9.8v2c0.1,0,0.2,0,0.3-0.1
	c0.3-0.8,1.1-1.3,1.9-1.3c0.1,0,0.1,0,0.2,0c0.4,0,0.7,0,1.1,0c3.5,0,7-1.1,10-3c0.3-0.2,0.7-0.3,1.1-0.3c0.6,0,1.1,0.2,1.5,0.7
	l1.2,1.3c1.6,1.8,1.9,2,1.9,2.7c0.1,0,0.1,0,0.2,0v-1.9C32.5,7,28.1,2.6,22.7,2.6z"/>
</svg>
