<?xml version="1.0" encoding="UTF-8" ?>
<!DOCTYPE svg PUBLIC "-//W3C//DTD SVG 1.1//EN" "http://www.w3.org/Graphics/SVG/1.1/DTD/svg11.dtd">
<svg width="269pt" height="267pt" viewBox="0 0 269 267" version="1.1" xmlns="http://www.w3.org/2000/svg">
<g id="#ffffffff">
<path fill="#ffffff" opacity="1.00" d=" M 21.29 0.00 L 155.67 0.00 C 165.05 0.91 173.39 7.86 176.10 16.86 C 178.45 24.00 177.11 31.87 173.38 38.29 C 187.25 38.20 201.13 38.28 215.00 38.24 C 222.44 38.22 229.84 41.80 234.25 47.81 C 239.58 54.62 240.70 64.35 237.23 72.24 C 233.98 79.98 226.46 85.73 218.10 86.70 C 212.69 87.28 207.24 86.90 201.82 86.99 C 202.55 88.26 203.27 89.55 203.98 90.84 C 224.23 96.42 242.30 109.50 253.88 127.04 C 262.78 140.24 267.82 155.85 269.00 171.69 L 269.00 184.41 C 267.47 205.62 258.41 226.31 243.31 241.34 C 230.04 255.06 212.12 264.01 193.32 267.00 L 166.34 267.00 C 146.46 264.17 127.71 254.28 114.12 239.50 C 93.39 239.52 72.66 239.48 51.92 239.52 C 42.59 239.65 33.67 233.49 30.10 224.93 C 25.74 215.09 28.90 202.99 37.01 196.07 C 31.69 191.24 27.93 184.35 28.21 177.02 C 27.91 169.61 31.61 162.55 37.05 157.70 C 31.80 152.96 28.08 146.19 28.21 139.00 C 27.80 131.47 31.52 124.25 37.04 119.32 C 31.71 114.40 27.94 107.40 28.21 100.00 C 27.94 90.79 33.73 81.91 42.05 78.09 C 49.43 74.51 57.82 76.06 65.71 75.79 C 60.57 67.57 60.59 56.71 65.72 48.49 C 51.49 48.51 37.26 48.51 23.03 48.49 C 11.54 48.27 1.34 38.72 0.00 27.36 L 0.00 21.08 C 1.26 10.29 10.43 1.05 21.29 0.00 M 19.35 11.48 C 14.55 13.32 11.01 17.97 10.56 23.09 C 9.82 30.28 15.85 37.29 23.04 37.74 C 66.36 37.77 109.69 37.73 153.02 37.76 C 160.32 38.00 166.87 31.24 166.54 23.97 C 166.59 16.81 160.11 10.53 153.00 10.52 C 111.35 10.47 69.69 10.53 28.03 10.49 C 25.12 10.50 22.08 10.29 19.35 11.48 M 82.21 49.11 C 76.70 50.79 72.49 56.19 72.47 62.00 C 72.29 69.19 78.72 75.85 85.93 75.76 C 128.98 75.74 172.02 75.74 215.06 75.76 C 222.63 75.88 229.32 68.54 228.48 61.00 C 227.95 54.22 221.77 48.44 214.93 48.51 C 173.30 48.49 131.66 48.52 90.02 48.49 C 87.41 48.53 84.73 48.27 82.21 49.11 M 38.79 100.98 C 39.29 107.70 45.17 113.69 52.01 113.74 C 73.48 113.75 94.95 113.77 116.41 113.73 C 125.88 104.02 137.75 96.76 150.53 92.30 C 162.10 88.17 174.45 87.18 186.65 87.42 C 184.81 86.91 182.93 86.44 181.01 86.49 C 137.96 86.52 94.92 86.48 51.87 86.51 C 44.52 86.70 38.56 93.80 38.79 100.98 M 169.55 98.81 C 148.48 101.44 128.77 113.11 116.25 130.24 C 106.26 143.65 100.77 160.29 100.73 177.01 C 100.70 193.28 105.71 209.59 115.17 222.86 C 126.53 239.24 144.39 250.95 163.93 254.86 C 180.97 258.41 199.19 255.99 214.69 248.08 C 233.05 238.91 247.55 222.33 254.17 202.90 C 260.01 186.21 259.90 167.56 253.94 150.91 C 247.56 132.68 234.21 116.99 217.23 107.78 C 202.82 99.81 185.86 96.74 169.55 98.81 M 38.48 138.06 C 38.15 145.31 44.85 151.79 52.01 151.74 C 65.82 151.75 79.64 151.76 93.46 151.74 C 96.54 142.05 101.19 132.89 106.90 124.49 C 88.59 124.51 70.29 124.50 51.98 124.50 C 44.84 124.59 38.96 131.15 38.48 138.06 M 39.35 172.56 C 36.81 180.44 43.85 189.22 51.96 189.24 C 64.92 189.30 77.87 189.18 90.83 189.30 C 89.91 180.38 89.71 171.36 91.27 162.50 C 78.19 162.50 65.11 162.50 52.03 162.50 C 46.15 162.46 40.91 167.02 39.35 172.56 M 52.50 200.35 C 45.99 200.33 39.93 205.46 38.99 211.92 C 37.45 219.74 44.39 227.64 52.25 227.70 C 69.96 227.83 87.67 227.69 105.37 227.77 C 99.93 219.28 95.38 210.09 92.97 200.25 C 79.48 200.31 65.99 200.12 52.50 200.35 Z" />
<path fill="#ffffff" opacity="1.00" d=" M 184.39 109.50 C 188.10 106.27 194.77 110.33 193.71 115.10 C 193.15 118.78 188.36 120.68 185.27 118.78 C 181.84 117.14 181.44 111.77 184.39 109.50 Z" />
<path fill="#ffffff" opacity="1.00" d=" M 204.37 115.30 C 206.05 114.39 208.14 114.11 209.83 115.16 C 223.93 122.34 235.74 134.26 242.22 148.75 C 251.01 167.70 250.30 190.79 240.24 209.10 C 238.54 212.68 232.35 212.63 230.92 208.85 C 229.61 206.26 231.19 203.63 232.25 201.29 C 237.72 189.41 239.29 175.67 235.94 162.97 C 231.86 146.53 220.20 132.23 204.94 124.89 C 201.18 123.23 200.74 117.39 204.37 115.30 Z" />
<path fill="#ffffff" opacity="1.00" d=" M 120.36 143.58 C 123.05 141.38 128.21 142.29 128.93 146.06 C 129.87 148.35 128.41 150.57 127.53 152.62 C 122.42 163.57 120.62 176.13 122.98 188.02 C 126.34 205.78 138.47 221.63 154.84 229.35 C 158.87 231.08 158.38 236.93 155.11 239.15 C 153.49 240.30 151.16 240.35 149.47 239.35 C 136.12 232.31 124.73 221.22 118.24 207.51 C 110.56 192.06 109.25 173.68 114.16 157.18 C 115.72 152.48 117.36 147.54 120.36 143.58 Z" />
<path fill="#ffffff" opacity="1.00" d=" M 169.46 235.75 C 174.17 233.04 180.43 239.75 176.99 244.06 C 174.97 246.98 170.00 247.11 167.88 244.24 C 165.54 241.76 166.41 237.21 169.46 235.75 Z" />
</g>
</svg>
