<?xml version="1.0" encoding="UTF-8" ?>
<!DOCTYPE svg PUBLIC "-//W3C//DTD SVG 1.1//EN" "http://www.w3.org/Graphics/SVG/1.1/DTD/svg11.dtd">
<svg width="262pt" height="262pt" viewBox="0 0 262 262" version="1.1" xmlns="http://www.w3.org/2000/svg">
<g id="#ffffffff">
<path fill="#ffffff" opacity="1.00" d=" M 123.79 0.00 L 138.37 0.00 C 166.44 1.63 193.91 12.42 215.34 30.66 C 242.85 53.53 260.13 88.07 262.00 123.79 L 262.00 138.37 C 260.37 166.46 249.55 193.95 231.30 215.39 C 208.43 242.87 173.91 260.12 138.21 262.00 L 123.62 262.00 C 95.55 260.37 68.07 249.56 46.63 231.32 C 19.14 208.45 1.87 173.92 0.00 138.21 L 0.00 123.63 C 1.93 87.98 19.17 53.52 46.62 30.69 C 68.10 12.41 95.65 1.58 123.79 0.00 M 112.58 12.83 C 73.26 18.70 38.11 45.77 21.95 82.03 C 10.80 106.49 8.42 134.77 15.19 160.77 C 22.11 187.87 39.01 212.20 61.79 228.36 C 82.58 243.32 108.33 251.33 133.94 250.51 C 157.82 250.10 181.46 242.00 200.77 227.96 C 223.49 211.64 240.27 187.16 247.01 159.98 C 253.34 134.94 251.23 107.85 240.97 84.13 C 229.89 58.16 209.29 36.45 184.03 23.87 C 162.12 12.89 136.78 9.03 112.58 12.83 Z" />
<path fill="#ffffff" opacity="1.00" d=" M 129.18 30.21 C 132.47 29.01 136.60 31.49 136.50 35.14 C 136.42 38.04 137.26 41.66 134.66 43.75 C 132.57 45.99 128.66 45.60 126.83 43.24 C 124.93 41.30 125.58 38.40 125.47 35.97 C 125.21 33.48 126.75 30.93 129.18 30.21 Z" />
<path fill="#ffffff" opacity="1.00" d=" M 61.24 58.12 C 63.08 57.17 65.77 57.07 67.28 58.67 C 69.35 60.76 72.13 62.73 72.32 65.94 C 72.27 68.70 70.34 71.85 67.32 71.85 C 64.14 72.48 62.22 69.56 60.27 67.65 C 57.47 65.17 57.84 59.88 61.24 58.12 Z" />
<path fill="#ffffff" opacity="1.00" d=" M 194.77 58.69 C 196.88 56.79 200.81 56.98 202.39 59.48 C 204.17 61.87 203.99 65.64 201.71 67.67 C 199.80 69.53 197.96 72.36 194.87 71.86 C 191.77 72.00 189.72 68.76 189.68 65.94 C 189.88 62.74 192.61 60.70 194.77 58.69 Z" />
<path fill="#ffffff" opacity="1.00" d=" M 125.54 69.03 C 125.64 65.54 129.81 63.14 132.96 64.48 C 135.21 65.26 136.61 67.67 136.50 70.01 C 136.52 84.17 136.47 98.34 136.53 112.51 C 132.85 112.30 129.16 112.27 125.49 112.43 C 125.54 97.96 125.43 83.49 125.54 69.03 Z" />
<path fill="#ffffff" opacity="1.00" d=" M 113.33 124.99 C 115.13 119.05 120.19 114.22 126.15 112.67 C 130.71 112.76 135.71 111.73 139.84 114.16 C 144.62 116.82 148.23 121.62 149.17 127.04 C 150.64 134.21 147.42 142.17 141.20 146.11 C 134.84 150.34 125.80 150.01 119.82 145.23 C 116.76 143.00 114.78 139.68 113.30 136.26 C 103.43 136.20 93.57 136.32 83.70 136.21 C 80.44 136.35 77.40 133.31 77.97 130.01 C 78.06 127.03 81.03 124.73 83.92 125.00 C 93.73 124.99 103.53 125.01 113.33 124.99 M 128.52 123.61 C 123.53 125.22 121.88 132.52 125.99 135.92 C 129.76 139.95 137.13 137.55 138.17 132.26 C 139.68 126.85 133.74 121.52 128.52 123.61 Z" />
<path fill="#ffffff" opacity="1.00" d=" M 33.47 125.56 C 36.71 124.69 40.75 124.32 43.69 126.30 C 47.20 129.08 45.48 135.49 41.03 136.05 C 37.80 136.38 33.51 136.87 31.36 133.85 C 29.23 131.21 30.44 126.92 33.47 125.56 Z" />
<path fill="#ffffff" opacity="1.00" d=" M 219.43 125.63 C 221.77 124.53 224.48 125.03 226.98 125.08 C 230.84 125.52 233.11 130.51 230.76 133.67 C 228.47 137.08 223.58 136.45 220.07 135.85 C 215.68 134.47 215.09 127.46 219.43 125.63 Z" />
<path fill="#ffffff" opacity="1.00" d=" M 64.41 189.40 C 69.60 186.48 74.69 193.88 71.12 198.13 C 69.04 200.16 67.24 203.40 63.95 203.28 C 60.97 203.77 58.49 200.85 58.47 198.06 C 57.99 194.12 61.68 191.53 64.41 189.40 Z" />
<path fill="#ffffff" opacity="1.00" d=" M 193.36 189.19 C 197.21 187.58 200.00 191.18 202.25 193.70 C 205.31 196.95 202.91 203.90 198.05 203.29 C 194.95 203.53 193.29 200.45 191.29 198.64 C 188.54 195.85 189.60 190.51 193.36 189.19 Z" />
<path fill="#ffffff" opacity="1.00" d=" M 128.50 216.55 C 131.50 214.93 135.74 216.80 136.43 220.19 C 136.59 222.42 136.59 224.68 136.42 226.92 C 135.81 230.75 130.64 232.63 127.67 230.15 C 124.87 228.42 125.51 224.77 125.47 221.99 C 125.25 219.78 126.43 217.45 128.50 216.55 Z" />
</g>
</svg>
