<?xml version="1.0" encoding="utf-8"?>
<!-- Generator: Adobe Illustrator 23.0.2, SVG Export Plug-In . SVG Version: 6.00 Build 0)  -->
<svg version="1.1" id="Calque_1" xmlns="http://www.w3.org/2000/svg" xmlns:xlink="http://www.w3.org/1999/xlink" x="0px" y="0px"
	 viewBox="0 0 90.2 57" style="enable-background:new 0 0 90.2 57;" xml:space="preserve">
<style type="text/css">
	.st0{fill:#FFFFFF;}
</style>
<g>
	<path class="st0" d="M75.3,57c-4.9,0-8.9-4-8.9-8.9V48l-0.1-0.1h-32V48c0,5-4,9-8.9,9s-8.9-4-8.9-8.9V48l-0.1-0.1H8.9
		c-1.6,0-2.8-1.3-2.8-2.8v-3.2H1.3c-0.7,0-1.3-0.6-1.3-1.3s0.6-1.3,1.3-1.3h13.6c0.7,0,1.3,0.6,1.3,1.3s-0.6,1.3-1.3,1.3H8.7v3.2
		c0,0.1,0.1,0.2,0.2,0.2h8.2v-0.1c1.2-3.6,4.6-6,8.4-6s7.1,2.4,8.4,6v0.1h29.5V34.5c0-0.7,0.6-1.3,1.3-1.3c0.7,0,1.3,0.6,1.3,1.3
		v10.8h0.9v-0.1c1.2-3.6,4.6-6,8.4-6s7.1,2.4,8.4,6v0.1h3.9v-6.4h-1.7c-2.4,0-4.3-1.9-4.3-4.3v-3c0-0.7,0.6-1.3,1.3-1.3h4.5v-0.1
		c-0.6-2-2.4-3.3-4.5-3.3H66.1v1.7c0,0.7-0.6,1.3-1.3,1.3s-1.3-0.6-1.3-1.3V2.8c0-0.1-0.1-0.2-0.2-0.2H8.9c-0.1,0-0.2,0.1-0.2,0.2
		v25.7c0,0.7-0.6,1.3-1.3,1.3S6,29.2,6,28.5V2.8C6,1.3,7.3,0,8.9,0h54.4c1.6,0,2.8,1.3,2.8,2.8V6h10.8c3.2,0,5.8,2.6,5.8,5.8v1.5
		c0,0.6-0.4,1.2-1,1.3h-0.1l2.4,9.5h0.1c3.6,0.5,6.2,3.7,6.2,7.3v15.1c0,0.7-0.6,1.3-1.3,1.3h-4.7v0.1C84.2,53,80.2,57,75.3,57z
		 M75.3,41.9c-3.4,0-6.2,2.8-6.2,6.2s2.8,6.2,6.2,6.2s6.2-2.8,6.2-6.2S78.7,41.9,75.3,41.9z M25.5,41.9c-3.4,0-6.2,2.8-6.2,6.2
		s2.8,6.2,6.2,6.2s6.2-2.8,6.2-6.2S28.9,41.9,25.5,41.9z M84.2,34.5c0,0.9,0.8,1.7,1.7,1.7h1.7v-3.4h-3.4
		C84.2,32.8,84.2,34.5,84.2,34.5z M66.1,24.2h15.1l-2.4-9.4H66.1V24.2z M66.1,12.1h14V12c0-1.9-1.4-3.3-3.2-3.3H66.1V12.1z"/>
	<path class="st0" d="M25.5,51c-1.6,0-2.8-1.3-2.8-2.8c0-1.6,1.3-2.8,2.8-2.8s2.8,1.3,2.8,2.8S27,51,25.5,51z"/>
	<path class="st0" d="M75.3,51c-1.6,0-2.8-1.3-2.8-2.8c0-1.6,1.3-2.8,2.8-2.8s2.8,1.3,2.8,2.8C78.1,49.7,76.9,51,75.3,51z"/>
	<path class="st0" d="M37.6,41.9c-0.7,0-1.3-0.6-1.3-1.3s0.6-1.3,1.3-1.3h21.1c0.7,0,1.3,0.6,1.3,1.3s-0.6,1.3-1.3,1.3H37.6z"/>
	<path class="st0" d="M4.3,35.9c-0.7,0-1.3-0.6-1.3-1.3s0.6-1.3,1.3-1.3h18.1c0.7,0,1.3,0.6,1.3,1.3s-0.6,1.3-1.3,1.3H4.3z"/>
	<path class="st0" d="M34.5,29.8c-0.4,0-0.7-0.1-0.9-0.4L26,21.8c-0.2-0.2-0.4-0.6-0.4-0.9s0.1-0.7,0.4-0.9s0.6-0.4,0.9-0.4
		s0.7,0.1,0.9,0.4l6.6,6.6L47.2,14c0.2-0.2,0.6-0.4,0.9-0.4s0.7,0.1,0.9,0.4c0.5,0.5,0.5,1.3,0,1.9L35.5,29.4
		C35.2,29.7,34.9,29.8,34.5,29.8z"/>
</g>
</svg>
