<?xml version="1.0" encoding="UTF-8" ?>
<!DOCTYPE svg PUBLIC "-//W3C//DTD SVG 1.1//EN" "http://www.w3.org/Graphics/SVG/1.1/DTD/svg11.dtd">
<svg width="62pt" height="87pt" viewBox="0 0 62 87" version="1.1" xmlns="http://www.w3.org/2000/svg">
<g id="#ffffffff">
<path fill="#ffffff" opacity="1.00" d=" M 0.00 0.00 L 62.00 0.00 L 62.00 87.00 L 0.00 87.00 L 0.00 0.00 M 3.76 3.76 C 3.75 30.19 3.75 56.62 3.75 83.06 C 21.94 83.06 40.12 83.06 58.31 83.06 C 58.31 56.62 58.31 30.19 58.31 3.76 C 40.12 3.75 21.94 3.75 3.76 3.76 Z" />
<path fill="#ffffff" opacity="1.00" d=" M 8.44 30.69 C 8.44 23.71 8.43 16.73 8.44 9.75 C 23.42 9.75 38.40 9.75 53.37 9.75 C 53.38 16.73 53.37 23.71 53.38 30.68 C 38.40 30.70 23.42 30.69 8.44 30.69 M 12.19 13.57 C 12.19 18.02 12.19 22.48 12.18 26.94 C 24.73 26.94 37.27 26.94 49.81 26.94 C 49.81 22.48 49.81 18.02 49.81 13.57 C 37.27 13.56 24.73 13.56 12.19 13.57 Z" />
<path fill="#ffffff" opacity="1.00" d=" M 10.25 40.43 C 12.98 40.43 15.71 40.43 18.44 40.44 C 18.44 41.38 18.44 43.25 18.44 44.19 C 15.71 44.19 12.98 44.19 10.25 44.19 C 10.25 42.93 10.25 41.68 10.25 40.43 Z" />
<path fill="#ffffff" opacity="1.00" d=" M 26.81 40.44 C 29.54 40.44 32.26 40.43 34.99 40.43 C 35.00 41.68 35.00 42.93 35.00 44.19 C 32.27 44.19 29.54 44.19 26.81 44.19 C 26.81 43.25 26.81 41.38 26.81 40.44 Z" />
<path fill="#ffffff" opacity="1.00" d=" M 43.37 40.44 C 46.10 40.43 48.83 40.43 51.57 40.44 C 51.56 41.69 51.56 42.94 51.56 44.19 C 48.83 44.19 46.10 44.19 43.38 44.19 C 43.38 42.94 43.37 41.69 43.37 40.44 Z" />
<path fill="#ffffff" opacity="1.00" d=" M 10.25 51.12 C 12.98 51.12 15.71 51.12 18.44 51.12 C 18.44 52.37 18.44 53.62 18.44 54.88 C 15.71 54.88 12.98 54.88 10.25 54.87 C 10.25 53.62 10.25 52.37 10.25 51.12 Z" />
<path fill="#ffffff" opacity="1.00" d=" M 26.81 51.12 C 29.54 51.12 32.27 51.12 35.00 51.12 C 35.00 52.37 35.00 53.63 35.00 54.88 C 32.27 54.88 29.54 54.88 26.81 54.88 C 26.81 53.62 26.81 52.37 26.81 51.12 Z" />
<path fill="#ffffff" opacity="1.00" d=" M 43.37 51.12 C 46.10 51.12 48.83 51.12 51.56 51.12 C 51.56 52.37 51.56 53.63 51.56 54.88 C 48.83 54.88 46.10 54.88 43.38 54.88 C 43.37 53.63 43.37 52.37 43.37 51.12 Z" />
<path fill="#ffffff" opacity="1.00" d=" M 45.75 61.24 C 47.00 61.25 48.25 61.25 49.51 61.26 C 49.50 66.40 49.50 71.54 49.50 76.68 C 48.25 76.69 47.00 76.69 45.75 76.69 C 45.75 71.54 45.74 66.39 45.75 61.24 Z" />
<path fill="#ffffff" opacity="1.00" d=" M 10.24 62.00 C 12.98 62.00 15.71 62.00 18.44 62.00 C 18.44 63.25 18.44 64.50 18.43 65.75 C 15.71 65.75 12.98 65.75 10.25 65.75 C 10.25 64.50 10.24 63.25 10.24 62.00 Z" />
<path fill="#ffffff" opacity="1.00" d=" M 26.81 62.00 C 29.54 62.00 32.27 62.00 35.00 62.00 C 35.00 63.25 35.00 64.50 34.99 65.76 C 32.27 65.75 29.54 65.75 26.81 65.75 C 26.81 64.50 26.81 63.25 26.81 62.00 Z" />
<path fill="#ffffff" opacity="1.00" d=" M 10.25 72.88 C 12.98 72.87 15.71 72.87 18.44 72.88 C 18.44 73.81 18.44 75.68 18.44 76.62 C 15.71 76.63 12.98 76.63 10.25 76.63 C 10.25 75.38 10.25 74.13 10.25 72.88 Z" />
<path fill="#ffffff" opacity="1.00" d=" M 26.81 72.88 C 29.54 72.87 32.27 72.87 35.00 72.88 C 35.00 74.13 35.00 75.38 34.99 76.63 C 32.26 76.63 29.54 76.63 26.81 76.62 C 26.81 75.69 26.81 73.81 26.81 72.88 Z" />
</g>
</svg>
