<?xml version="1.0" encoding="UTF-8" ?>
<!DOCTYPE svg PUBLIC "-//W3C//DTD SVG 1.1//EN" "http://www.w3.org/Graphics/SVG/1.1/DTD/svg11.dtd">
<svg width="261pt" height="261pt" viewBox="0 0 261 261" version="1.1" xmlns="http://www.w3.org/2000/svg">
<g id="#ffffffff">
<path fill="#ffffff" opacity="1.00" d=" M 194.26 4.19 C 196.34 1.05 201.47 1.27 203.47 4.40 C 221.67 28.97 239.91 53.52 258.04 78.15 C 260.56 81.41 258.11 86.69 254.03 86.92 C 246.61 87.12 239.18 86.93 231.75 87.00 C 231.74 142.37 231.76 197.74 231.74 253.10 C 232.02 256.21 229.28 259.19 226.13 259.00 C 153.04 259.00 79.94 259.01 6.85 258.99 C 3.94 258.83 1.58 255.88 1.98 253.00 C 2.05 245.59 1.92 238.17 2.05 230.76 C 2.76 218.70 13.01 208.15 25.01 206.96 C 30.65 206.50 36.34 206.85 42.00 206.75 C 47.18 206.71 52.06 208.63 56.51 211.11 C 56.97 201.60 55.17 191.69 58.34 182.51 C 61.93 172.77 71.79 165.96 82.14 165.82 C 91.96 165.77 102.61 164.53 111.25 170.26 C 111.29 163.17 111.18 156.08 111.30 149.00 C 111.93 136.71 122.49 125.83 134.81 125.03 C 140.55 124.94 146.30 125.03 152.05 124.99 C 156.94 124.94 161.61 126.79 165.75 129.27 C 165.75 115.19 165.74 101.10 165.75 87.01 C 158.22 86.90 150.67 87.18 143.15 86.87 C 138.99 86.36 136.98 80.86 139.77 77.74 C 157.93 53.22 176.04 28.66 194.26 4.19 M 155.31 75.75 C 160.90 75.79 166.49 75.68 172.08 75.79 C 174.76 75.86 176.92 78.26 176.99 80.88 C 177.02 136.51 176.98 192.13 177.01 247.75 C 191.51 247.74 206.01 247.77 220.51 247.74 C 220.48 192.20 220.51 136.66 220.49 81.13 C 220.48 78.23 223.10 75.62 226.03 75.75 C 231.44 75.73 236.86 75.76 242.28 75.75 C 227.71 56.23 213.31 36.60 198.75 17.08 C 184.29 36.65 169.78 56.19 155.31 75.75 M 122.51 150.00 C 122.49 182.58 122.52 215.16 122.49 247.74 C 136.91 247.77 151.33 247.74 165.75 247.75 C 165.76 215.49 165.73 183.22 165.76 150.96 C 166.04 144.15 160.68 137.81 154.11 136.43 C 148.77 135.58 143.33 136.16 137.95 136.01 C 130.17 135.70 122.79 142.15 122.51 150.00 M 67.76 192.02 C 67.74 210.60 67.75 229.17 67.75 247.75 C 82.25 247.75 96.75 247.75 111.25 247.75 C 111.25 229.16 111.25 210.58 111.25 192.00 C 111.40 184.30 104.74 177.40 97.08 177.09 C 91.64 177.00 86.17 176.78 80.75 177.24 C 73.51 178.04 67.76 184.80 67.76 192.02 M 13.26 231.96 C 13.22 237.22 13.27 242.49 13.25 247.75 C 27.67 247.75 42.08 247.74 56.50 247.75 C 56.46 242.18 56.56 236.61 56.46 231.04 C 55.74 224.28 49.80 218.65 43.05 218.10 C 38.02 217.88 32.97 218.04 27.94 218.01 C 20.45 218.02 13.57 224.43 13.26 231.96 Z" />
</g>
</svg>
