<?xml version="1.0" encoding="UTF-8" ?>
<!DOCTYPE svg PUBLIC "-//W3C//DTD SVG 1.1//EN" "http://www.w3.org/Graphics/SVG/1.1/DTD/svg11.dtd">
<svg width="204pt" height="302pt" viewBox="0 0 204 302" version="1.1" xmlns="http://www.w3.org/2000/svg">
<g id="#ffffffff">
<path fill="#ffffff" opacity="1.00" d=" M 3.83 0.00 L 166.06 0.00 C 178.66 12.48 191.21 25.03 203.69 37.64 C 203.72 39.41 203.82 41.17 204.00 42.93 L 204.00 268.60 C 204.27 271.94 202.89 276.43 198.95 276.67 C 190.30 276.88 181.64 276.67 172.99 276.77 C 170.02 276.77 166.25 276.49 164.68 273.54 C 162.54 270.27 165.25 265.42 169.09 265.32 C 177.06 265.13 185.03 265.32 193.00 265.25 C 193.00 192.25 193.00 119.25 193.00 46.25 C 183.30 46.25 173.61 46.25 163.92 46.26 C 160.89 46.60 157.80 44.14 157.78 41.03 C 157.69 31.02 157.78 21.01 157.75 11.01 C 108.84 10.99 59.92 11.00 11.00 11.00 C 11.00 95.75 11.00 180.50 11.00 265.25 C 42.33 265.27 73.67 265.22 105.00 265.28 C 108.32 265.16 111.34 268.47 110.55 271.78 C 110.24 274.42 107.71 276.58 105.02 276.25 C 71.66 276.24 38.30 276.27 4.94 276.23 C 2.60 276.49 0.91 274.54 0.00 272.63 L 0.00 3.82 C 0.73 2.07 2.08 0.72 3.83 0.00 M 169.25 19.13 C 169.26 24.51 169.23 29.88 169.27 35.26 C 174.63 35.24 180.00 35.26 185.37 35.25 C 180.00 29.87 174.63 24.49 169.25 19.13 Z" />
<path fill="#ffffff" opacity="1.00" d=" M 53.00 31.95 C 59.30 26.57 70.13 28.76 73.91 36.09 C 75.82 39.21 75.86 42.95 75.77 46.49 C 79.10 46.02 83.54 46.57 84.31 50.56 C 85.50 62.37 86.31 74.22 87.36 86.05 C 87.98 89.25 85.44 92.86 82.05 92.74 C 70.04 92.76 58.03 92.76 46.02 92.74 C 44.10 92.79 42.10 92.48 40.28 93.23 C 37.72 92.76 34.88 90.94 35.09 88.01 C 36.33 75.71 37.31 63.38 38.66 51.09 C 39.33 47.12 43.87 46.28 47.23 46.72 C 46.64 41.23 48.42 35.32 53.00 31.95 M 59.47 41.37 C 57.83 42.70 58.30 44.90 58.22 46.75 C 60.41 46.75 62.61 46.75 64.80 46.74 C 64.64 44.93 65.15 42.72 63.56 41.39 C 62.67 40.12 60.34 40.09 59.47 41.37 M 49.08 57.80 C 48.47 65.81 47.36 73.77 46.75 81.78 C 56.63 81.61 66.51 81.96 76.37 81.61 C 75.49 73.67 75.01 65.69 74.20 57.75 C 65.82 57.78 57.45 57.69 49.08 57.80 Z" />
<path fill="#ffffff" opacity="1.00" d=" M 38.37 125.41 C 39.81 124.77 41.44 125.08 42.96 124.98 C 83.32 125.03 123.69 124.98 164.05 125.01 C 168.13 124.85 170.75 130.17 168.39 133.41 C 167.21 135.17 165.18 136.21 163.05 136.00 C 122.06 135.95 81.06 136.10 40.07 135.93 C 34.66 135.65 33.40 127.40 38.37 125.41 Z" />
<path fill="#ffffff" opacity="1.00" d=" M 40.42 148.55 C 81.30 148.43 122.19 148.52 163.07 148.50 C 166.52 148.21 169.87 151.47 169.20 154.96 C 168.79 157.90 165.91 159.92 163.02 159.73 C 122.66 159.77 82.30 159.74 41.93 159.75 C 39.29 159.96 36.41 158.62 35.52 155.99 C 34.19 152.67 36.88 148.69 40.42 148.55 Z" />
<path fill="#ffffff" opacity="1.00" d=" M 39.18 172.06 C 41.07 171.53 43.07 171.79 45.01 171.74 C 84.37 171.78 123.73 171.71 163.09 171.77 C 165.74 171.62 168.48 173.34 169.07 176.02 C 170.21 179.65 166.68 183.36 163.03 182.99 C 122.04 182.94 81.04 183.13 40.05 182.90 C 34.27 182.47 33.52 173.38 39.18 172.06 Z" />
<path fill="#ffffff" opacity="1.00" d=" M 38.43 195.52 C 40.19 194.90 42.09 195.01 43.93 194.98 C 60.38 195.05 76.84 194.94 93.29 195.04 C 96.00 195.06 98.75 197.10 98.99 199.90 C 99.59 203.33 96.33 206.51 92.95 206.24 C 75.95 206.27 58.95 206.23 41.95 206.26 C 40.08 206.30 37.99 205.93 36.71 204.44 C 34.11 201.92 34.89 196.76 38.43 195.52 Z" />
<path fill="#ffffff" opacity="1.00" d=" M 118.53 213.62 C 131.28 203.53 151.53 205.57 162.05 217.97 C 173.87 230.77 172.40 253.19 158.52 263.92 C 158.47 275.46 158.52 286.99 158.50 298.52 C 156.16 299.53 154.44 301.89 151.75 302.00 L 150.03 302.00 C 145.48 298.96 141.42 295.25 137.14 291.84 C 132.56 295.13 128.73 299.56 123.60 302.00 L 120.76 302.00 C 119.68 301.03 118.61 300.07 117.52 299.11 C 117.46 287.43 117.53 275.74 117.48 264.05 C 114.42 261.24 111.56 258.15 109.60 254.45 C 102.06 241.05 106.11 222.67 118.53 213.62 M 131.38 218.62 C 121.95 221.24 115.24 231.23 116.64 240.96 C 117.87 250.82 126.96 259.13 136.97 259.03 C 146.75 259.26 155.72 251.42 157.44 241.90 C 158.89 234.34 155.37 226.25 149.18 221.78 C 144.15 218.08 137.38 216.75 131.38 218.62 M 127.74 269.87 C 127.75 274.91 127.77 279.95 127.73 284.99 C 130.35 283.09 132.70 280.56 135.94 279.74 C 140.10 278.51 142.43 283.38 145.70 285.07 C 145.81 280.00 145.72 274.94 145.75 269.88 C 139.84 271.26 133.64 271.41 127.74 269.87 Z" />
</g>
</svg>
