<svg id="block23_14" viewBox="0 0 304 279" version="1.1" xmlns="http://www.w3.org/2000/svg"><g id="#ffffffff"><path fill="#ffffff" opacity="1.00" d=" M 262.11 0.00 L 285.47 0.00 C 287.03 1.25 289.27 2.60 288.99 4.92 C 288.93 12.28 289.19 19.66 288.85 27.02 C 287.46 30.98 281.24 31.38 279.41 27.60 C 278.20 24.45 278.93 20.94 278.76 17.65 C 249.70 46.64 220.70 75.69 191.67 104.71 C 189.99 106.79 186.63 107.26 184.65 105.34 C 180.10 101.23 175.91 96.73 171.68 92.30 C 161.03 81.66 150.41 71.01 139.75 60.38 C 122.33 77.77 104.97 95.21 87.53 112.57 C 85.70 114.54 82.36 114.51 80.50 112.58 C 72.36 104.58 64.35 96.43 56.25 88.38 C 42.45 102.16 28.66 115.95 14.88 129.76 C 13.42 131.52 10.80 132.39 8.70 131.23 C 5.40 129.72 4.81 124.91 7.57 122.58 C 22.46 107.77 37.20 92.83 51.95 77.90 C 53.90 75.50 57.66 74.57 60.01 76.97 C 68.16 84.94 76.23 92.99 84.09 101.25 C 101.94 84.08 119.08 66.18 136.94 49.03 C 138.77 47.38 141.76 47.73 143.36 49.52 C 158.14 64.24 172.87 79.01 187.62 93.76 C 202.00 79.38 216.37 65.00 230.75 50.63 C 244.07 37.12 257.77 23.99 270.84 10.24 C 267.58 10.12 264.19 10.72 261.05 9.65 C 257.10 7.73 257.74 1.00 262.11 0.00 Z"></path><path fill="#ffffff" opacity="1.00" d=" M 266.25 89.28 C 275.17 84.04 287.34 85.00 295.22 91.75 C 300.64 96.07 303.31 102.94 304.00 109.67 L 304.00 113.16 C 303.33 122.71 296.75 131.43 287.83 134.83 C 280.24 137.86 271.39 136.87 264.40 132.73 C 252.55 144.58 240.70 156.44 228.84 168.28 C 232.91 174.95 234.33 183.39 231.61 190.84 C 227.56 202.98 213.32 210.56 200.99 206.91 C 191.02 204.18 183.39 195.00 182.39 184.72 C 166.84 183.05 151.28 181.43 135.73 179.74 C 133.19 186.77 127.94 192.96 120.84 195.63 C 113.05 198.77 104.06 197.26 97.09 192.83 C 80.56 208.50 63.94 224.07 47.41 239.73 C 51.86 247.15 52.43 256.79 48.51 264.54 C 44.54 273.06 35.53 278.61 26.22 279.00 L 24.83 279.00 C 12.68 278.80 1.67 269.23 0.00 257.15 L 0.00 249.03 C 0.74 244.47 2.62 240.12 5.54 236.54 C 13.75 226.39 29.79 224.52 40.40 231.95 C 57.05 216.36 73.67 200.73 90.17 184.98 C 87.16 179.52 85.69 173.06 87.04 166.89 C 88.72 157.28 96.58 149.20 106.05 147.02 C 114.06 144.97 122.93 147.35 129.01 152.90 C 133.82 157.09 136.72 163.15 137.41 169.45 C 152.97 171.09 168.52 172.81 184.09 174.39 C 186.33 167.42 191.48 161.25 198.41 158.63 C 206.14 155.43 215.26 156.42 222.29 160.89 C 234.08 148.98 246.00 137.18 257.82 125.29 C 256.03 122.07 254.47 118.65 253.99 114.96 C 252.43 104.99 257.42 94.26 266.25 89.28 M 273.47 97.68 C 268.44 99.64 264.75 104.48 264.21 109.85 C 263.08 117.67 269.29 125.47 277.11 126.33 C 285.86 127.71 294.54 119.75 293.78 110.90 C 293.87 101.08 282.46 93.58 273.47 97.68 M 108.47 157.64 C 101.06 159.39 95.91 167.46 97.56 174.91 C 98.70 181.30 104.45 186.44 110.92 186.95 C 119.27 187.82 127.34 180.51 127.03 172.05 C 127.38 162.70 117.46 155.00 108.47 157.64 M 204.12 168.16 C 197.63 169.85 192.87 176.37 193.23 183.06 C 193.33 190.11 199.16 196.51 206.17 197.29 C 215.61 198.89 224.78 189.19 222.69 179.86 C 221.48 171.52 212.18 165.62 204.12 168.16 M 22.54 238.69 C 16.19 240.26 11.23 246.45 11.47 253.05 C 11.16 260.02 16.65 266.53 23.46 267.75 C 31.69 269.57 40.35 263.08 41.08 254.72 C 42.53 244.85 32.15 235.74 22.54 238.69 Z"></path></g></svg>