<?xml version="1.0" encoding="UTF-8" ?>
<!DOCTYPE svg PUBLIC "-//W3C//DTD SVG 1.1//EN" "http://www.w3.org/Graphics/SVG/1.1/DTD/svg11.dtd">
<svg width="95pt" height="82pt" viewBox="0 0 95 82" version="1.1" xmlns="http://www.w3.org/2000/svg">
<g id="#ffffffff">
<path fill="#ffffff" opacity="1.00" d=" M 46.38 0.00 L 61.05 0.00 C 62.71 1.34 64.69 2.75 64.90 5.07 C 65.13 8.40 64.73 11.77 65.36 15.07 C 67.28 14.68 69.24 14.57 71.19 14.38 C 71.19 12.88 71.18 11.38 71.18 9.87 C 76.50 9.88 81.82 9.87 87.14 9.87 C 87.12 11.38 87.11 12.89 87.09 14.40 C 90.17 14.37 93.71 14.75 95.00 18.03 L 95.00 77.39 C 94.19 79.41 92.47 81.21 90.12 81.01 C 62.05 81.13 33.97 81.04 5.90 81.06 C 3.30 81.39 0.99 79.95 0.00 77.56 L 0.00 18.30 C 1.00 14.74 4.80 14.37 7.91 14.40 C 7.89 12.89 7.88 11.38 7.86 9.87 C 13.16 9.87 18.46 9.88 23.76 9.87 C 23.75 11.44 23.75 13.00 23.75 14.56 C 25.86 14.56 27.96 14.56 30.07 14.56 C 30.60 10.04 28.35 4.12 32.58 0.87 C 36.03 0.65 42.93 0.22 46.38 0.00 M 34.13 3.87 C 32.35 6.90 33.73 11.08 33.32 14.56 C 42.77 14.56 52.23 14.56 61.68 14.56 C 61.65 11.45 61.82 8.33 61.60 5.22 C 61.64 3.31 59.23 3.64 57.98 3.56 C 50.04 3.76 42.03 3.16 34.13 3.87 M 11.11 13.09 C 11.10 13.45 11.10 14.18 11.09 14.54 C 14.54 14.54 18.01 14.76 21.42 14.20 C 18.54 11.98 14.50 13.47 11.11 13.09 M 73.49 14.15 C 76.92 14.80 80.44 14.53 83.91 14.54 C 83.91 14.18 83.89 13.45 83.89 13.09 C 80.45 13.41 76.52 12.08 73.49 14.15 M 3.99 17.96 C 2.82 18.93 3.33 20.64 3.17 21.96 C 3.20 39.34 3.19 56.71 3.17 74.09 C 3.32 75.30 2.80 76.98 4.14 77.70 C 6.96 77.95 9.80 77.78 12.63 77.81 C 12.62 57.81 12.63 37.82 12.62 17.83 C 9.74 17.85 6.86 17.67 3.99 17.96 M 15.88 17.82 C 15.88 37.81 15.88 57.81 15.88 77.81 C 36.96 77.81 58.04 77.81 79.12 77.81 C 79.12 57.81 79.12 37.81 79.12 17.82 C 58.04 17.82 36.96 17.82 15.88 17.82 M 82.38 17.83 C 82.37 37.82 82.38 57.81 82.37 77.81 C 85.36 77.31 89.38 78.98 91.69 76.80 C 91.99 58.52 91.70 40.22 91.83 21.93 C 91.65 20.64 92.20 18.90 91.00 17.97 C 88.14 17.67 85.25 17.84 82.38 17.83 Z" />
</g>
</svg>
