<?xml version="1.0" encoding="UTF-8" ?>
<!DOCTYPE svg PUBLIC "-//W3C//DTD SVG 1.1//EN" "http://www.w3.org/Graphics/SVG/1.1/DTD/svg11.dtd">
<svg width="86pt" height="86pt" viewBox="0 0 86 86" version="1.1" xmlns="http://www.w3.org/2000/svg">
<g id="#fefefefe">
<path fill="#fefefe" opacity="1.00" d=" M 40.57 0.00 L 45.29 0.00 C 56.25 0.60 66.90 5.52 74.37 13.57 C 81.28 20.85 85.40 30.61 86.00 40.62 L 86.00 45.31 C 85.43 55.82 80.90 66.06 73.40 73.46 C 66.03 80.90 55.86 85.39 45.42 86.00 L 40.71 86.00 C 30.21 85.44 19.97 80.92 12.57 73.44 C 5.11 66.06 0.60 55.87 0.00 45.40 L 0.00 40.68 C 0.58 30.18 5.09 19.96 12.57 12.57 C 19.94 5.11 30.12 0.61 40.57 0.00 M 25.83 19.51 C 30.99 20.51 36.23 21.07 41.49 21.16 C 41.48 15.10 41.53 9.04 41.46 2.98 C 33.36 4.63 28.64 12.37 25.83 19.51 M 44.53 3.00 C 44.48 9.05 44.51 15.10 44.51 21.16 C 49.77 21.07 55.01 20.49 60.18 19.49 C 57.35 12.37 52.64 4.62 44.53 3.00 M 32.14 4.43 C 25.10 6.48 18.67 10.43 13.63 15.77 C 16.64 16.99 19.74 18.00 22.88 18.82 C 24.86 13.40 28.05 8.49 32.14 4.43 M 53.87 4.43 C 57.95 8.51 61.13 13.44 63.12 18.87 C 66.25 18.02 69.34 17.04 72.34 15.80 C 67.33 10.45 60.90 6.51 53.87 4.43 M 11.59 18.14 C 6.41 24.79 3.35 33.01 2.99 41.43 C 8.26 41.43 13.52 41.43 18.79 41.43 C 18.96 34.78 20.00 28.15 21.94 21.78 C 18.40 20.82 14.95 19.58 11.59 18.14 M 64.06 21.74 C 66.05 28.16 67.05 34.85 67.21 41.56 C 72.47 41.56 77.73 41.56 83.00 41.56 C 82.66 33.13 79.59 24.89 74.39 18.25 C 71.04 19.67 67.58 20.82 64.06 21.74 M 24.82 22.22 C 22.94 28.45 21.90 34.92 21.79 41.43 C 28.35 41.44 34.92 41.43 41.49 41.43 C 41.50 35.66 41.50 29.90 41.49 24.13 C 35.89 24.00 30.31 23.34 24.82 22.22 M 44.51 24.14 C 44.50 29.94 44.51 35.75 44.50 41.55 C 51.08 41.56 57.65 41.57 64.22 41.55 C 64.09 35.04 63.07 28.57 61.18 22.34 C 55.68 23.42 50.10 24.03 44.51 24.14 M 3.00 44.38 C 3.35 52.82 6.39 61.08 11.62 67.71 C 14.96 66.29 18.42 65.14 21.93 64.21 C 19.98 57.80 18.95 51.13 18.79 44.44 C 13.52 44.47 8.26 44.33 3.00 44.38 M 21.78 44.45 C 21.91 50.92 22.94 57.36 24.83 63.54 C 30.32 62.47 35.89 61.85 41.48 61.75 C 41.51 55.98 41.49 50.21 41.50 44.45 C 34.92 44.44 28.35 44.43 21.78 44.45 M 44.51 44.57 C 44.50 50.33 44.50 56.10 44.51 61.86 C 50.11 62.00 55.69 62.66 61.18 63.78 C 63.06 57.55 64.10 51.08 64.21 44.57 C 57.65 44.56 51.08 44.57 44.51 44.57 M 67.21 44.57 C 67.04 51.22 66.00 57.85 64.07 64.22 C 67.60 65.17 71.05 66.43 74.42 67.86 C 79.58 61.20 82.65 52.99 83.01 44.57 C 77.74 44.57 72.48 44.57 67.21 44.57 M 25.82 66.51 C 28.65 73.63 33.36 81.38 41.47 83.00 C 41.52 76.95 41.49 70.89 41.49 64.84 C 36.23 64.93 30.99 65.51 25.82 66.51 M 44.51 64.84 C 44.52 70.90 44.47 76.97 44.54 83.03 C 52.64 81.35 57.37 73.64 60.17 66.49 C 55.01 65.49 49.77 64.93 44.51 64.84 M 13.58 70.11 C 18.59 75.52 25.06 79.48 32.13 81.57 C 28.04 77.46 24.83 72.50 22.89 67.02 C 19.72 67.86 16.60 68.85 13.58 70.11 M 63.12 67.16 C 61.15 72.59 57.94 77.50 53.87 81.57 C 60.88 79.49 67.36 75.60 72.32 70.20 C 69.33 68.98 66.25 67.98 63.12 67.16 Z" />
</g>
</svg>
