<?xml version="1.0" encoding="UTF-8" ?>
<!DOCTYPE svg PUBLIC "-//W3C//DTD SVG 1.1//EN" "http://www.w3.org/Graphics/SVG/1.1/DTD/svg11.dtd">
<svg width="263pt" height="283pt" viewBox="0 0 263 283" version="1.1" xmlns="http://www.w3.org/2000/svg">
<g id="#ffffffff">
<path fill="#ffffff" opacity="1.00" d=" M 4.00 9.84 C 3.81 6.67 6.77 3.76 9.95 4.00 C 60.95 4.00 111.96 4.00 162.96 4.00 C 165.83 4.02 168.37 6.47 168.48 9.34 C 168.53 30.23 168.48 51.11 168.50 72.00 C 196.74 72.01 224.97 71.99 253.21 72.01 C 256.37 71.89 259.28 74.74 259.00 77.95 C 259.00 143.00 259.00 208.05 259.00 273.10 C 259.22 276.30 256.25 279.24 253.06 279.00 C 172.01 279.00 90.97 279.00 9.93 279.00 C 6.73 279.24 3.77 276.28 4.00 273.08 C 4.00 185.33 4.00 97.59 4.00 9.84 M 15.50 15.50 C 15.51 99.59 15.48 183.67 15.52 267.76 C 62.67 267.74 109.83 267.75 156.99 267.75 C 157.01 183.67 157.00 99.59 156.99 15.50 C 109.83 15.50 62.67 15.50 15.50 15.50 M 168.50 83.26 C 168.50 144.75 168.52 206.23 168.48 267.72 C 194.90 267.79 221.32 267.73 247.75 267.75 C 247.75 206.25 247.75 144.75 247.75 83.25 C 221.33 83.25 194.91 83.24 168.50 83.26 Z" />
<path fill="#ffffff" opacity="1.00" d=" M 38.38 35.67 C 41.81 33.68 46.55 36.32 46.73 40.26 C 46.77 44.75 46.76 49.24 46.73 53.73 C 46.29 58.02 40.79 60.29 37.46 57.56 C 34.28 55.02 35.49 50.53 35.25 47.02 C 35.43 43.20 34.16 37.80 38.38 35.67 Z" />
<path fill="#ffffff" opacity="1.00" d=" M 70.31 35.08 C 73.31 34.55 76.79 36.86 76.76 40.07 C 76.68 44.96 76.87 49.87 76.67 54.76 C 75.39 59.89 67.17 60.01 65.81 54.89 C 65.09 50.33 65.70 45.59 65.49 40.96 C 65.27 38.10 67.54 35.52 70.31 35.08 Z" />
<path fill="#ffffff" opacity="1.00" d=" M 100.27 35.14 C 103.65 34.34 107.26 37.38 107.00 40.87 C 106.82 45.51 107.37 50.25 106.72 54.83 C 105.35 59.95 97.27 59.94 95.85 54.86 C 95.61 49.92 95.82 44.97 95.74 40.03 C 95.71 37.57 97.91 35.45 100.27 35.14 Z" />
<path fill="#ffffff" opacity="1.00" d=" M 129.42 35.39 C 132.61 34.00 136.93 36.37 137.00 39.95 C 136.92 44.97 137.16 50.01 136.87 55.02 C 135.30 59.93 127.39 59.90 126.07 54.85 C 125.33 50.60 125.97 46.22 125.74 41.92 C 125.42 39.22 126.75 36.33 129.42 35.39 Z" />
<path fill="#ffffff" opacity="1.00" d=" M 38.40 73.66 C 41.54 71.80 46.09 73.98 46.60 77.60 C 46.97 80.68 46.64 83.83 46.75 86.94 C 46.66 89.68 47.36 93.05 45.02 95.10 C 42.24 98.21 36.46 96.69 35.52 92.63 C 34.95 88.43 35.39 84.17 35.25 79.94 C 35.17 77.55 35.98 74.64 38.40 73.66 Z" />
<path fill="#ffffff" opacity="1.00" d=" M 70.20 73.11 C 73.23 72.42 76.78 74.85 76.76 78.07 C 76.69 82.95 76.86 87.83 76.68 92.71 C 75.46 97.90 67.25 98.03 65.82 92.92 C 65.08 88.35 65.70 83.59 65.49 78.94 C 65.31 76.17 67.45 73.51 70.20 73.11 Z" />
<path fill="#ffffff" opacity="1.00" d=" M 100.24 73.10 C 103.67 72.33 107.26 75.38 107.00 78.90 C 106.80 83.54 107.40 88.29 106.70 92.86 C 105.40 97.99 97.28 97.92 95.86 92.90 C 95.59 87.95 95.83 82.98 95.74 78.02 C 95.71 75.54 97.91 73.53 100.24 73.10 Z" />
<path fill="#ffffff" opacity="1.00" d=" M 129.47 73.37 C 132.66 72.02 136.95 74.40 137.00 77.97 C 136.92 82.98 137.15 88.00 136.88 93.00 C 135.36 97.94 127.48 97.92 126.09 92.91 C 125.32 88.34 125.96 83.61 125.75 78.97 C 125.55 76.53 127.21 74.21 129.47 73.37 Z" />
<path fill="#ffffff" opacity="1.00" d=" M 189.23 100.27 C 201.46 100.21 213.69 100.28 225.92 100.24 C 228.76 100.08 231.53 102.32 231.74 105.19 C 232.30 108.46 229.40 111.96 225.99 111.51 C 213.34 111.40 200.67 111.70 188.04 111.36 C 182.51 109.71 183.36 100.60 189.23 100.27 Z" />
<path fill="#ffffff" opacity="1.00" d=" M 38.42 111.65 C 41.84 109.63 46.54 112.33 46.73 116.25 C 46.63 120.97 47.04 125.77 46.53 130.45 C 45.60 135.59 37.47 136.19 35.77 131.29 C 34.72 127.63 35.48 123.71 35.25 119.94 C 35.09 116.99 35.23 112.99 38.42 111.65 Z" />
<path fill="#ffffff" opacity="1.00" d=" M 70.14 111.12 C 73.19 110.38 76.80 112.85 76.76 116.09 C 76.69 120.96 76.85 125.82 76.68 130.68 C 75.44 135.81 67.26 136.02 65.82 130.91 C 65.08 126.35 65.70 121.61 65.49 116.99 C 65.20 114.17 67.41 111.57 70.14 111.12 Z" />
<path fill="#ffffff" opacity="1.00" d=" M 100.18 111.11 C 103.61 110.30 107.25 113.33 107.00 116.86 C 106.81 121.52 107.40 126.28 106.70 130.88 C 105.28 135.91 97.29 135.88 95.85 130.86 C 95.61 125.94 95.82 120.99 95.74 116.06 C 95.68 113.58 97.87 111.56 100.18 111.11 Z" />
<path fill="#ffffff" opacity="1.00" d=" M 130.23 111.17 C 133.31 110.30 136.99 112.73 137.00 116.00 C 136.98 120.69 137.04 125.38 136.97 130.07 C 136.76 133.53 132.53 135.64 129.46 134.37 C 126.93 133.53 125.53 130.75 125.73 128.20 C 125.77 124.47 125.74 120.73 125.75 117.00 C 125.54 114.32 127.56 111.62 130.23 111.17 Z" />
<path fill="#ffffff" opacity="1.00" d=" M 188.20 128.34 C 201.38 128.19 214.59 128.20 227.78 128.34 C 233.31 129.61 232.89 138.52 227.32 139.37 C 214.92 139.68 202.49 139.40 190.08 139.51 C 186.74 139.71 183.77 136.40 184.27 133.12 C 184.52 130.95 186.03 128.90 188.20 128.34 Z" />
<path fill="#ffffff" opacity="1.00" d=" M 38.44 149.64 C 41.85 147.72 46.51 150.31 46.72 154.21 C 46.77 158.72 46.76 163.24 46.73 167.76 C 46.25 172.10 40.72 174.29 37.38 171.51 C 34.11 168.62 35.58 163.86 35.25 160.05 C 35.29 156.48 34.49 151.50 38.44 149.64 Z" />
<path fill="#ffffff" opacity="1.00" d=" M 70.26 149.09 C 73.24 148.53 76.68 150.83 76.76 153.97 C 76.69 158.89 76.86 163.83 76.67 168.75 C 75.39 173.90 67.20 174.00 65.80 168.88 C 65.10 164.31 65.70 159.57 65.49 154.94 C 65.28 152.11 67.51 149.55 70.26 149.09 Z" />
<path fill="#ffffff" opacity="1.00" d=" M 100.33 149.15 C 103.35 148.44 106.62 150.85 106.96 153.92 C 107.05 158.31 106.98 162.71 107.00 167.10 C 107.06 169.83 104.79 172.45 102.04 172.67 C 99.41 173.18 96.70 171.32 95.85 168.86 C 95.61 163.92 95.82 158.97 95.74 154.03 C 95.71 151.52 97.94 149.46 100.33 149.15 Z" />
<path fill="#ffffff" opacity="1.00" d=" M 129.41 149.40 C 132.43 148.22 136.19 149.94 136.97 153.16 C 137.02 158.15 137.02 163.13 136.97 168.12 C 136.74 171.27 133.11 173.43 130.15 172.57 C 127.65 172.09 125.89 169.71 125.74 167.24 C 125.75 163.16 125.75 159.09 125.75 155.02 C 125.68 152.62 127.10 150.22 129.41 149.40 Z" />
<path fill="#ffffff" opacity="1.00" d=" M 187.39 156.43 C 188.78 155.66 190.49 156.13 192.01 155.99 C 204.01 156.09 216.03 155.83 228.02 156.13 C 233.48 157.81 232.71 166.83 226.87 167.22 C 214.29 167.27 201.71 167.27 189.13 167.22 C 183.71 166.83 182.45 158.52 187.39 156.43 Z" />
<path fill="#ffffff" opacity="1.00" d=" M 187.33 184.44 C 187.80 184.28 188.75 183.95 189.22 183.79 C 201.52 183.69 213.82 183.78 226.12 183.75 C 229.31 183.75 232.20 186.71 231.75 189.96 C 231.72 193.32 228.22 195.57 225.08 195.26 C 213.06 195.15 201.02 195.44 189.01 195.11 C 183.73 194.62 182.48 186.51 187.33 184.44 Z" />
<path fill="#ffffff" opacity="1.00" d=" M 38.45 187.63 C 41.56 185.74 46.14 188.01 46.60 191.60 C 46.96 194.37 46.65 197.19 46.75 199.99 C 46.59 203.04 47.50 206.67 45.07 209.09 C 42.23 212.09 36.36 210.67 35.56 206.52 C 34.89 202.72 35.42 198.83 35.24 194.99 C 35.09 192.26 35.53 188.76 38.45 187.63 Z" />
<path fill="#ffffff" opacity="1.00" d=" M 68.35 187.67 C 71.47 185.88 76.02 187.68 76.73 191.30 C 76.78 195.87 76.73 200.45 76.76 205.02 C 76.99 207.42 75.23 209.84 72.88 210.41 C 69.40 211.72 65.23 208.69 65.49 204.95 C 65.52 200.63 65.45 196.32 65.53 192.00 C 65.56 190.11 66.92 188.71 68.35 187.67 Z" />
<path fill="#ffffff" opacity="1.00" d=" M 100.18 187.10 C 103.32 186.31 106.61 188.75 106.97 191.91 C 107.05 196.30 106.98 200.69 107.00 205.08 C 107.10 208.45 103.62 211.40 100.32 210.56 C 97.73 210.30 95.47 207.73 95.74 205.11 C 95.78 200.49 95.71 195.87 95.77 191.25 C 96.24 189.09 98.06 187.52 100.18 187.10 Z" />
<path fill="#ffffff" opacity="1.00" d=" M 130.24 187.12 C 133.31 186.30 136.95 188.72 137.00 191.97 C 136.92 196.98 137.16 202.02 136.87 207.03 C 135.30 211.88 127.36 211.86 126.07 206.82 C 125.31 202.63 125.97 198.28 125.74 194.04 C 125.27 191.04 127.12 187.66 130.24 187.12 Z" />
<path fill="#ffffff" opacity="1.00" d=" M 187.31 212.19 C 188.73 211.41 190.38 211.49 191.96 211.49 C 203.30 211.53 214.64 211.46 225.97 211.52 C 228.93 211.47 231.80 213.94 231.77 216.97 C 232.17 220.18 229.18 223.03 226.06 223.00 C 213.76 222.98 201.47 223.04 189.17 222.97 C 183.81 222.45 182.40 214.39 187.31 212.19 Z" />
<path fill="#ffffff" opacity="1.00" d=" M 38.45 225.57 C 41.65 223.80 46.14 225.95 46.60 229.61 C 46.97 233.72 46.63 237.88 46.76 242.01 C 46.98 244.48 45.80 247.33 43.33 248.21 C 40.12 249.93 35.73 247.48 35.40 243.89 C 35.07 239.92 35.34 235.93 35.25 231.95 C 35.14 229.46 35.98 226.63 38.45 225.57 Z" />
<path fill="#ffffff" opacity="1.00" d=" M 68.33 225.68 C 71.46 223.84 76.00 225.67 76.73 229.29 C 76.72 234.45 76.85 239.62 76.66 244.78 C 75.22 250.35 66.20 249.70 65.53 243.97 C 65.47 239.32 65.48 234.67 65.53 230.03 C 65.55 228.14 66.90 226.72 68.33 225.68 Z" />
<path fill="#ffffff" opacity="1.00" d=" M 100.25 225.01 C 103.36 224.44 106.73 226.77 106.96 229.97 C 107.03 234.63 107.02 239.29 106.97 243.95 C 106.41 248.21 100.84 250.19 97.63 247.45 C 94.50 244.86 96.15 240.50 95.75 237.02 C 95.80 232.72 94.48 226.12 100.25 225.01 Z" />
<path fill="#ffffff" opacity="1.00" d=" M 130.23 225.09 C 133.34 224.34 137.03 226.68 137.00 230.02 C 136.98 234.70 137.04 239.39 136.97 244.08 C 136.84 246.56 134.44 248.51 132.04 248.67 C 128.86 249.19 125.85 246.41 125.74 243.26 C 125.75 239.15 125.75 235.04 125.75 230.93 C 125.56 228.24 127.59 225.58 130.23 225.09 Z" />
<path fill="#ffffff" opacity="1.00" d=" M 187.19 240.14 C 187.64 239.98 188.55 239.68 189.00 239.52 C 201.67 239.48 214.34 239.48 227.02 239.52 C 230.63 239.92 232.90 244.26 231.28 247.48 C 230.55 249.59 228.26 250.88 226.09 250.75 C 213.74 250.73 201.40 250.79 189.06 250.72 C 183.79 250.36 182.46 242.28 187.19 240.14 Z" />
</g>
</svg>
