<?xml version="1.0" encoding="UTF-8" ?>
<!DOCTYPE svg PUBLIC "-//W3C//DTD SVG 1.1//EN" "http://www.w3.org/Graphics/SVG/1.1/DTD/svg11.dtd">
<svg width="56pt" height="90pt" viewBox="0 0 56 90" version="1.1" xmlns="http://www.w3.org/2000/svg">
<g id="#fff">
<path fill="#fff" opacity="1.00" d=" M 14.55 0.00 L 41.19 0.00 C 44.52 0.66 47.29 3.50 47.41 6.96 C 48.37 19.52 49.04 32.10 49.96 44.67 C 51.69 45.31 53.73 45.72 54.79 47.41 C 57.38 50.68 55.32 56.33 51.10 56.84 C 44.89 57.24 38.65 56.88 32.43 57.01 C 32.44 63.98 32.44 70.96 32.43 77.94 C 36.78 78.23 41.38 77.19 45.54 78.66 C 50.42 81.15 49.02 89.12 43.65 90.00 L 41.85 90.00 C 40.05 89.52 38.65 88.30 37.33 87.05 C 31.10 86.97 24.86 86.97 18.62 87.05 C 17.35 88.22 16.01 89.35 14.39 90.00 L 12.60 90.00 C 6.95 89.49 5.41 81.12 10.45 78.63 C 14.61 77.22 19.18 78.22 23.50 77.95 C 23.50 70.96 23.50 63.98 23.50 57.00 C 22.79 57.00 21.39 57.00 20.68 57.00 C 20.21 58.90 21.75 62.55 19.03 63.00 C 13.78 64.14 8.47 64.95 3.20 65.98 C 3.06 65.23 2.80 63.72 2.67 62.97 C 7.65 62.04 12.63 61.11 17.61 60.19 C 17.62 59.13 17.63 58.07 17.64 57.01 C 13.41 56.91 9.16 57.21 4.94 56.86 C 2.30 56.63 0.57 54.25 0.00 51.84 L 0.00 50.16 C 0.48 47.10 3.09 45.23 5.98 44.68 C 6.87 32.12 7.58 19.54 8.51 6.99 C 8.62 3.56 11.32 0.81 14.55 0.00 M 11.52 7.13 C 10.59 19.72 9.85 32.34 8.99 44.94 C 21.64 44.94 34.29 44.93 46.94 44.95 C 46.13 32.59 45.32 20.24 44.50 7.89 C 44.60 5.42 42.67 2.97 40.09 3.06 C 32.04 2.95 23.98 2.97 15.93 3.05 C 13.67 2.97 11.61 4.87 11.52 7.13 M 4.35 48.51 C 1.88 49.87 3.11 54.11 5.93 53.89 C 20.65 53.96 35.39 53.98 50.11 53.88 C 52.57 54.01 53.93 50.50 52.07 48.90 C 51.05 47.70 49.35 48.11 47.98 47.98 C 33.93 48.06 19.88 47.91 5.83 48.06 C 5.46 48.17 4.72 48.39 4.35 48.51 M 26.22 80.90 C 21.79 81.15 17.34 80.83 12.92 81.08 C 9.97 81.15 9.42 85.76 12.15 86.71 C 14.40 87.78 15.61 85.30 16.94 84.02 C 24.35 83.82 31.77 83.98 39.19 83.96 C 40.14 85.20 41.08 87.27 42.99 86.86 C 45.87 86.80 46.56 82.28 43.87 81.24 C 39.21 80.65 34.47 81.21 29.78 80.93 C 28.85 73.01 29.63 64.97 29.37 57.00 C 28.66 57.00 27.22 57.00 26.50 57.00 C 26.33 64.96 26.85 72.96 26.22 80.90 Z" />
<path fill="#fff" opacity="1.00" d=" M 16.19 8.94 C 24.04 8.94 31.90 8.94 39.75 8.94 C 39.75 9.70 39.76 11.23 39.76 11.99 C 31.90 12.00 24.04 12.00 16.18 11.99 C 16.18 11.23 16.19 9.70 16.19 8.94 Z" />
<path fill="#fff" opacity="1.00" d=" M 14.69 17.94 C 23.54 17.94 32.39 17.94 41.25 17.94 C 41.25 18.70 41.25 20.23 41.25 21.00 C 32.40 21.00 23.54 21.00 14.69 21.00 C 14.69 20.23 14.69 18.70 14.69 17.94 Z" />
<path fill="#fff" opacity="1.00" d=" M 13.25 26.94 C 23.06 26.94 32.87 26.94 42.68 26.94 C 42.69 27.70 42.70 29.23 42.70 29.99 C 32.88 30.01 23.06 30.00 13.24 29.99 C 13.24 29.23 13.25 27.70 13.25 26.94 Z" />
<path fill="#fff" opacity="1.00" d=" M 13.25 35.94 C 23.06 35.94 32.87 35.94 42.69 35.94 C 42.69 36.70 42.69 38.23 42.70 38.99 C 32.88 39.00 23.06 39.00 13.24 38.99 C 13.24 38.23 13.25 36.70 13.25 35.94 Z" />
</g>
</svg>
