<?xml version="1.0" encoding="UTF-8" ?>
<!DOCTYPE svg PUBLIC "-//W3C//DTD SVG 1.1//EN" "http://www.w3.org/Graphics/SVG/1.1/DTD/svg11.dtd">
<svg width="62pt" height="87pt" viewBox="0 0 62 87" version="1.1" xmlns="http://www.w3.org/2000/svg">
<g id="#ffffffff">
<path fill="#ffffff" opacity="1.00" d=" M 0.00 0.00 L 62.00 0.00 L 62.00 87.00 L 0.00 87.00 L 0.00 0.00 M 3.76 3.76 C 3.75 30.19 3.75 56.62 3.76 83.05 C 21.94 83.06 40.12 83.06 58.31 83.05 C 58.31 56.62 58.31 30.19 58.31 3.76 C 40.12 3.75 21.94 3.75 3.76 3.76 Z" />
<path fill="#ffffff" opacity="1.00" d=" M 8.43 30.68 C 8.45 23.70 8.41 16.72 8.45 9.75 C 23.42 9.76 38.40 9.74 53.37 9.75 C 53.38 16.73 53.37 23.70 53.38 30.67 C 38.40 30.71 23.42 30.69 8.43 30.68 M 12.18 13.57 C 12.19 18.03 12.19 22.48 12.18 26.93 C 24.73 26.94 37.27 26.94 49.81 26.93 C 49.81 22.48 49.81 18.03 49.82 13.57 C 37.27 13.56 24.73 13.56 12.18 13.57 Z" />
<path fill="#ffffff" opacity="1.00" d=" M 10.26 40.43 C 12.99 40.43 15.71 40.43 18.44 40.45 C 18.44 41.38 18.44 43.25 18.43 44.19 C 15.70 44.19 12.97 44.19 10.24 44.18 C 10.25 42.93 10.25 41.68 10.26 40.43 Z" />
<path fill="#ffffff" opacity="1.00" d=" M 26.81 40.44 C 29.53 40.43 32.26 40.43 34.99 40.43 C 34.99 41.68 35.00 42.93 35.00 44.19 C 32.27 44.19 29.54 44.19 26.82 44.18 C 26.81 43.25 26.81 41.38 26.81 40.44 Z" />
<path fill="#ffffff" opacity="1.00" d=" M 43.37 40.44 C 46.10 40.43 48.84 40.43 51.57 40.44 C 51.56 41.69 51.56 42.94 51.55 44.19 C 48.83 44.19 46.11 44.19 43.38 44.19 C 43.38 42.94 43.38 41.69 43.37 40.44 Z" />
<path fill="#ffffff" opacity="1.00" d=" M 10.25 51.13 C 12.98 51.12 15.71 51.12 18.44 51.12 C 18.44 52.37 18.43 53.63 18.43 54.88 C 15.70 54.88 12.97 54.88 10.24 54.87 C 10.25 53.62 10.25 52.38 10.25 51.13 Z" />
<path fill="#ffffff" opacity="1.00" d=" M 26.81 51.12 C 29.54 51.12 32.27 51.12 35.00 51.12 C 35.00 52.37 35.00 53.63 35.00 54.88 C 32.27 54.88 29.54 54.88 26.81 54.88 C 26.81 53.62 26.81 52.37 26.81 51.12 Z" />
<path fill="#ffffff" opacity="1.00" d=" M 43.38 51.12 C 46.10 51.12 48.83 51.12 51.56 51.12 C 51.56 52.37 51.56 53.63 51.56 54.88 C 48.84 54.88 46.11 54.87 43.39 54.89 C 43.38 53.63 43.38 52.37 43.38 51.12 Z" />
<path fill="#ffffff" opacity="1.00" d=" M 45.76 61.26 C 46.68 61.25 48.53 61.23 49.45 61.21 C 49.57 66.37 49.47 71.52 49.51 76.68 C 48.26 76.68 47.00 76.68 45.74 76.68 C 45.76 71.54 45.74 66.40 45.76 61.26 Z" />
<path fill="#ffffff" opacity="1.00" d=" M 10.24 62.01 C 12.97 62.00 15.71 62.00 18.44 62.00 C 18.44 63.25 18.43 64.51 18.43 65.76 C 15.70 65.75 12.98 65.75 10.26 65.75 C 10.25 64.51 10.24 63.26 10.24 62.01 Z" />
<path fill="#ffffff" opacity="1.00" d=" M 26.81 62.00 C 29.54 62.00 32.27 62.00 35.00 62.00 C 35.00 63.25 34.99 64.51 34.99 65.76 C 32.27 65.75 29.54 65.75 26.82 65.75 C 26.82 64.50 26.81 63.25 26.81 62.00 Z" />
<path fill="#ffffff" opacity="1.00" d=" M 10.24 72.88 C 12.97 72.87 15.70 72.87 18.43 72.88 C 18.44 73.81 18.44 75.68 18.45 76.61 C 15.72 76.63 12.98 76.63 10.25 76.63 C 10.25 75.38 10.25 74.13 10.24 72.88 Z" />
<path fill="#ffffff" opacity="1.00" d=" M 26.82 72.88 C 29.54 72.87 32.27 72.87 35.00 72.88 C 35.00 74.13 34.99 75.38 34.99 76.63 C 32.26 76.63 29.53 76.63 26.81 76.62 C 26.81 75.68 26.81 73.81 26.82 72.88 Z" />
</g>
</svg>
