<?xml version="1.0" encoding="UTF-8" ?>
<!DOCTYPE svg PUBLIC "-//W3C//DTD SVG 1.1//EN" "http://www.w3.org/Graphics/SVG/1.1/DTD/svg11.dtd">
<svg width="321pt" height="234pt" viewBox="0 0 321 234" version="1.1" xmlns="http://www.w3.org/2000/svg">
<g id="#ffffffff">
<path fill="#ffffff" opacity="1.00" d=" M 34.90 3.05 C 38.44 1.67 42.30 2.02 46.02 1.99 C 123.70 2.02 201.37 1.98 279.05 2.01 C 289.35 2.16 298.19 11.58 297.97 21.84 C 298.04 77.23 297.98 132.61 298.00 188.00 C 303.33 188.07 308.67 187.86 314.00 188.08 C 316.94 188.13 319.24 190.99 318.99 193.86 C 318.93 198.70 319.26 203.57 318.73 208.40 C 316.96 221.26 305.11 231.88 292.08 232.00 C 204.36 232.00 116.65 232.00 28.93 232.00 C 17.74 231.86 7.28 224.05 3.58 213.56 C 1.18 207.30 2.19 200.48 2.00 193.95 C 1.70 191.03 4.14 188.18 7.08 188.10 C 11.97 187.83 16.86 188.08 21.75 188.00 C 21.75 134.34 21.75 80.69 21.75 27.03 C 21.79 22.95 21.32 18.69 22.89 14.80 C 24.89 9.34 29.41 4.94 34.90 3.05 M 33.01 21.88 C 32.98 77.25 33.01 132.63 33.00 188.00 C 117.50 188.00 202.00 188.00 286.50 188.00 C 286.51 132.68 286.48 77.36 286.51 22.04 C 286.84 17.39 282.67 13.09 278.03 13.25 C 199.33 13.24 120.64 13.26 41.94 13.24 C 37.25 12.92 32.78 17.15 33.01 21.88 M 13.26 199.25 C 13.26 202.49 12.96 205.83 14.00 208.97 C 16.03 215.75 22.77 220.87 29.89 220.75 C 116.62 220.76 203.35 220.73 290.08 220.77 C 295.04 221.03 300.03 219.00 303.35 215.29 C 307.53 211.09 308.15 204.87 307.75 199.25 C 271.65 199.23 235.56 199.29 199.46 199.22 C 198.88 208.07 191.09 215.73 182.15 215.73 C 167.45 215.74 152.75 215.81 138.06 215.70 C 129.39 215.29 122.15 207.78 121.53 199.22 C 85.44 199.30 49.35 199.23 13.26 199.25 M 132.74 199.31 C 133.91 202.30 136.59 204.77 140.00 204.48 C 153.99 204.48 167.98 204.58 181.96 204.43 C 185.05 204.45 187.13 201.89 188.26 199.31 C 169.75 199.21 151.24 199.21 132.74 199.31 Z" />
<path fill="#ffffff" opacity="1.00" d=" M 49.39 23.53 C 122.86 23.46 196.33 23.50 269.80 23.52 C 273.31 23.19 276.68 26.13 276.25 29.77 C 276.24 77.18 276.28 124.59 276.23 171.99 C 276.48 175.33 273.30 178.04 270.08 177.75 C 196.42 177.74 122.77 177.78 49.12 177.73 C 45.95 177.90 43.12 175.11 43.28 171.94 C 43.22 124.61 43.27 77.28 43.25 29.95 C 42.88 26.44 45.83 23.24 49.39 23.53 M 54.50 34.75 C 54.50 78.67 54.50 122.58 54.50 166.50 C 124.67 166.50 194.83 166.50 265.00 166.50 C 265.00 122.58 265.00 78.67 265.00 34.75 C 194.83 34.75 124.67 34.75 54.50 34.75 Z" />
</g>
</svg>
