<!-- Generator: Adobe Illustrator 22.1.0, SVG Export Plug-In  -->
<svg version="1.1"
	 xmlns="http://www.w3.org/2000/svg" xmlns:xlink="http://www.w3.org/1999/xlink" xmlns:a="http://ns.adobe.com/AdobeSVGViewerExtensions/3.0/"
	 x="0px" y="0px" width="91.1px" height="58.4px" viewBox="0 0 91.1 58.4" style="enable-background:new 0 0 91.1 58.4;"
	 xml:space="preserve">
<style type="text/css">
	*{fill:#fff;}
</style>
<defs>
</defs>
<path d="M61.2,32.9l-7.8-3.5c-0.5-0.2-0.9-0.8-0.9-1.4v-2.1c2.6-2.1,4.3-5.3,4.3-8.9v-3c0.9-0.5,1.4-1.4,1.4-2.4v-0.3
	C58.3,5.1,53.2,0,47,0h-2.9c-6.2,0-11.3,5.1-11.3,11.3V14c0,0.9,0.4,1.7,1.1,2.2c0.1,0.1,0.2,0.2,0.4,0.2V17c0,3.6,1.7,6.8,4.3,8.9
	V28c0,0.6-0.4,1.1-0.9,1.4l-7.8,3.5c-2.5,1.1-4.2,3.7-4.2,6.4V57c0,0.7,0.6,1.3,1.3,1.3s1.3-0.6,1.3-1.3V39.3c0-0.2,0-0.3,0-0.5
	l3.6,3.6c0.6,0.6,0.9,1.3,0.9,2.1V57c0,0.7,0.6,1.3,1.3,1.3s1.3-0.6,1.3-1.3V44.5c0-1.5-0.6-2.9-1.6-4l-4.3-4.3
	c0.4-0.4,0.8-0.7,1.4-1l7.6-3.4l5.7,5.7V57c0,0.7,0.6,1.3,1.3,1.3c0.7,0,1.3-0.6,1.3-1.3V37.6l5.7-5.7l7.6,3.4c0.5,0.2,1,0.6,1.4,1
	l-4.3,4.3c-1.1,1.1-1.6,2.5-1.6,4V57c0,0.7,0.6,1.3,1.3,1.3s1.3-0.6,1.3-1.3V44.5c0-0.8,0.3-1.5,0.9-2.1l3.6-3.6c0,0.2,0,0.3,0,0.5
	V57c0,0.7,0.6,1.3,1.3,1.3s1.3-0.6,1.3-1.3V39.3C65.4,36.5,63.8,34,61.2,32.9z M45.6,35.1l-5-5c0.4-0.6,0.6-1.4,0.6-2.1v-0.5
	c1.3,0.6,2.8,0.9,4.4,0.9c1.5,0,3-0.3,4.4-0.9V28c0,0.8,0.2,1.5,0.6,2.1L45.6,35.1z M45.6,25.7c-4.8,0-8.6-3.9-8.6-8.7v-0.6
	c0.8-0.3,1.6-0.9,2.4-1.6c0.5-0.5,0.6-1.3,0.1-1.9c-0.5-0.5-1.3-0.6-1.9-0.1c-0.7,0.6-1.3,1-2,1.2c0,0,0,0,0,0c0,0,0-0.1,0-0.1v-2.6
	c0-4.8,3.9-8.7,8.6-8.7H47c4.8,0,8.6,3.9,8.6,8.7v0.3c0,0,0,0.1-0.1,0.1c-8,1.6-12-1.4-13.4-2.8c-0.5-0.5-1.4-0.5-1.9,0
	c-0.5,0.5-0.5,1.4,0,1.9c4.1,4.1,10.2,4.2,13.9,3.8V17C54.2,21.8,50.3,25.7,45.6,25.7z"/>
<path d="M88,37.5l-7.5-3.7c-0.5-0.3-0.8-0.8-0.8-1.4v-1.9c1.7-1.6,2.9-3.8,2.9-6.3v-1.5c0,0,0.1,0,0.1,0c0.7,0,1.3-0.6,1.3-1.3v-2.9
	c0-4.7-3.8-8.5-8.5-8.5h-2.9c-4.7,0-8.5,3.8-8.5,8.5v2.9c0,0.7,0.6,1.3,1.3,1.3c0,0,0,0,0.1,0v1.5c0,2.5,1.1,4.8,2.9,6.3v1.9
	c0,0.6-0.3,1.1-0.8,1.4c-0.7,0.3-0.9,1.1-0.6,1.8c0.2,0.5,0.7,0.7,1.2,0.7c0.2,0,0.4,0,0.6-0.1c0.2-0.1,0.5-0.3,0.7-0.4l3.3,3.3v18
	c0,0.7,0.6,1.3,1.3,1.3s1.3-0.6,1.3-1.3V39l3.3-3.3c0.2,0.2,0.4,0.3,0.7,0.4l7.2,3.6L84.4,42c-1.1,1.1-1.6,2.5-1.6,4V57
	c0,0.7,0.6,1.3,1.3,1.3s1.3-0.6,1.3-1.3V45.9c0-0.8,0.3-1.5,0.9-2.1l2.1-2.1c0.1,0.2,0.1,0.5,0.1,0.8V57c0,0.7,0.6,1.3,1.3,1.3
	s1.3-0.6,1.3-1.3V42.5C91.1,40.4,89.9,38.5,88,37.5z M66.9,19.7v-1.2h0c0-3.2,2.6-5.8,5.8-5.8h2.9c3.2,0,5.8,2.6,5.8,5.8V20
	c-5.8-0.3-9.3-2.6-9.3-2.6c-0.2-0.2-0.5-0.2-0.7-0.2c-0.3,0-0.7,0.1-0.9,0.4C69,18.8,67.8,19.4,66.9,19.7z M74.1,36.6L71,33.5
	c0.1-0.3,0.1-0.7,0.1-1.1v-0.3c0.9,0.3,1.9,0.5,2.9,0.5s2-0.2,2.9-0.5v0.3c0,0.4,0,0.7,0.1,1.1L74.1,36.6z M74.1,30
	c-3.2,0-5.8-2.6-5.8-5.8V22c0.9-0.4,2-1,3.1-1.9c1.4,0.7,4.3,2,8.5,2.4v1.7C79.9,27.4,77.3,30,74.1,30z"/>
<path d="M21.9,38.7l-1.3-0.6c-0.5-0.3-0.8-0.8-0.8-1.4v-2.9c2.4-1.7,4-4.4,4.2-7.5L21.4,26c-0.2,3.8-3.4,6.8-7.2,6.8
	c-4,0-7.2-3.2-7.2-7.2v-0.3l-2.7,0.3C4.3,29,6,32,8.6,33.8v2.9c0,0.6-0.3,1.1-0.8,1.4l-4.6,2.3c-1.9,1-3.1,2.9-3.1,5V57
	c0,0.7,0.6,1.3,1.3,1.3s1.3-0.6,1.3-1.3V46l2.2,2.2c0.6,0.6,0.9,1.3,0.9,2.1V57c0,0.7,0.6,1.3,1.3,1.3s1.3-0.6,1.3-1.3v-6.8
	c0-1.5-0.6-2.9-1.6-4l-3-3c0,0,0,0,0,0c0.2-0.2,0.4-0.3,0.6-0.4l4.6-2.3c0.2-0.1,0.5-0.3,0.7-0.4l3.3,3.3V57c0,0.7,0.6,1.3,1.3,1.3
	c0.7,0,1.3-0.6,1.3-1.3V43.3l3.3-3.3c0.2,0.2,0.4,0.3,0.7,0.4l1.3,0.6c0.2,0.1,0.4,0.1,0.6,0.1c0.5,0,1-0.3,1.2-0.7
	C22.8,39.8,22.6,39,21.9,38.7z M14.2,40.9l-3.1-3.1c0.1-0.3,0.1-0.7,0.1-1.1v-1.6c0.9,0.3,1.9,0.4,2.9,0.4s2-0.2,2.9-0.4v1.6
	c0,0.4,0,0.7,0.1,1.1L14.2,40.9z"/>
<path class="st0" d="M24.1,22.8c0-3.5-1.8-6.6-4.5-8.3c0.2-0.5,0.3-1.1,0.3-1.7c0-3.1-2.5-5.6-5.6-5.6c-3.1,0-5.6,2.5-5.6,5.6
	c0,0.6,0.1,1.1,0.3,1.7c-2.7,1.8-4.5,4.8-4.5,8.3v2.9l2.7-0.3c1.1-0.2,2.6-0.8,4.3-2.1c0.6,0.6,1.4,1.2,2.5,1.8
	c1.3,0.7,3,1.3,5.1,1.3c0.8,0,1.7-0.1,2.6-0.3l2.6,0.3c0-0.2,0-0.4,0-0.6V22.8z M14.2,9.8c1.6,0,2.9,1.3,2.9,2.9c0,0.2,0,0.4,0,0.5
	c-0.9-0.3-1.9-0.4-2.9-0.4c-1,0-2,0.2-2.9,0.4c0-0.2-0.1-0.3-0.1-0.5C11.2,11.1,12.5,9.8,14.2,9.8z M21.4,23.2
	c-5.6,1.7-8.9-2.5-9-2.7c-0.2-0.3-0.6-0.5-1-0.5c-0.4,0-0.8,0.1-1,0.4c-1.3,1.3-2.5,1.9-3.4,2.2c0.1-3.9,3.3-7,7.2-7
	c4,0,7.2,3.2,7.2,7.2V23.2z"/>
</svg>
