<!-- Generator: Adobe Illustrator 22.1.0, SVG Export Plug-In  -->
<svg version="1.1"
	 xmlns="http://www.w3.org/2000/svg" xmlns:xlink="http://www.w3.org/1999/xlink" xmlns:a="http://ns.adobe.com/AdobeSVGViewerExtensions/3.0/"
	 x="0px" y="0px" width="67.6px" height="73px" viewBox="0 0 67.6 73" style="enable-background:new 0 0 67.6 73;"
	 xml:space="preserve">
<style type="text/css">
	*{fill:#fff;}
</style>
<defs>
</defs>
<path d="M16.8,18.3c0.6,0.5,1.4,0.4,1.9-0.1c0.4-0.5,0.4-1.3,0-1.8l-6.9-6.9C11.2,9,10.4,9,9.9,9.6c-0.4,0.5-0.4,1.3,0,1.8
	L16.8,18.3z"/>
<path d="M33.7,12.5C33.8,12.5,33.8,12.5,33.7,12.5c0.8,0,1.4-0.6,1.4-1.4V1.4c0-0.7-0.6-1.4-1.4-1.4s-1.4,0.6-1.4,1.4v9.8
	C32.4,11.9,33,12.5,33.7,12.5z"/>
<path d="M49.9,18.7L49.9,18.7c0.3,0,0.7-0.2,0.9-0.4l6.9-6.9c0.5-0.6,0.4-1.4-0.1-1.9c-0.5-0.4-1.3-0.4-1.8,0l-6.9,6.9
	c-0.5,0.5-0.5,1.4,0,1.9C49.1,18.5,49.5,18.7,49.9,18.7z"/>
<path d="M12.4,33.4c0-0.7-0.6-1.4-1.4-1.4H1.4C0.6,32,0,32.7,0,33.4c0,0.7,0.6,1.4,1.4,1.4h9.7C11.8,34.8,12.4,34.1,12.4,33.4z"/>
<path d="M34.3,20.5c-0.7,0-1.4,0.6-1.4,1.4c0,0.7,0.6,1.4,1.4,1.4c5.6,0,10.2,4.6,10.2,10.2c0,0.7,0.6,1.4,1.4,1.4s1.4-0.6,1.4-1.4
	C47.2,26.3,41.4,20.5,34.3,20.5z"/>
<path d="M57.7,55.4l-6.9-6.9c-0.5-0.6-1.3-0.6-1.9-0.1c-0.6,0.5-0.6,1.3-0.1,1.9c0,0.1,0.1,0.1,0.1,0.1l6.9,6.9
	c0.4,0.6,1.3,0.7,1.9,0.3s0.7-1.3,0.3-1.9C57.9,55.6,57.8,55.5,57.7,55.4z"/>
<path d="M66.2,32h-9.7c-0.7,0-1.4,0.6-1.4,1.4c0,0.7,0.6,1.4,1.4,1.4h9.7c0.7,0,1.4-0.6,1.4-1.4C67.6,32.7,67,32,66.2,32z"/>
<path d="M16.9,48.4c-0.1,0-0.1,0.1-0.1,0.1v0l-6.9,6.9c-0.6,0.5-0.6,1.3-0.1,1.9c0.5,0.6,1.3,0.6,1.9,0.1c0.1,0,0.1-0.1,0.1-0.1
	l6.9-6.9c0.6-0.5,0.6-1.3,0.1-1.9C18.3,48,17.5,47.9,16.9,48.4z"/>
<path d="M33.8,14.4c-10.5,0-19.1,8.5-19.1,19.1c0.1,6.9,3.4,13.3,9,17.3V57h2.7v-7c0-0.5-0.2-0.9-0.6-1.1c-5.2-3.5-8.3-9.2-8.4-15.5
	c0.3-9,7.8-16.2,16.8-15.9c8.7,0.2,15.6,7.2,15.9,15.9c-0.1,6.2-3.2,12-8.4,15.5v0c-0.4,0.3-0.6,0.7-0.6,1.1V57h2.6v-6.2
	c5.6-4,8.9-10.4,9-17.3C52.7,23,44.3,14.5,33.8,14.4z"/>
<path class="st0" d="M41.1,57H26.4h-2.7v7.6c0,0.2,0,0.3,0.1,0.5v0.1c0,0.1,0.1,0.1,0.1,0.2l4.8,7.1c0.3,0.4,0.7,0.6,1.1,0.6h7.9
	c0.4,0,0.9-0.2,1.1-0.6l4.8-7.1c0-0.1,0.1-0.1,0.1-0.2V65c0.1-0.1,0.1-0.3,0.1-0.5V57H41.1z M37,70.3h-6.4l-2.9-4.4h12.3L37,70.3z
	 M26.4,63.2v-3.6h14.7l0,3.6H26.4z"/>
</svg>
