<?xml version="1.0" encoding="UTF-8" ?>
<!DOCTYPE svg PUBLIC "-//W3C//DTD SVG 1.1//EN" "http://www.w3.org/Graphics/SVG/1.1/DTD/svg11.dtd">
<svg width="86pt" height="86pt" viewBox="0 0 86 86" version="1.1" xmlns="http://www.w3.org/2000/svg">
<g id="#fefefefe">
<path fill="#fefefe" opacity="1.00" d=" M 40.40 0.00 L 45.52 0.00 C 55.72 0.66 65.66 4.96 72.97 12.14 C 80.64 19.51 85.30 29.81 86.00 40.42 L 86.00 45.58 C 85.33 56.22 80.64 66.55 72.93 73.93 C 65.64 81.07 55.75 85.34 45.59 86.00 L 40.47 86.00 C 29.81 85.34 19.45 80.65 12.06 72.92 C 4.94 65.64 0.67 55.76 0.00 45.61 L 0.00 40.44 C 0.65 30.28 4.92 20.38 12.05 13.09 C 19.43 5.37 29.76 0.68 40.40 0.00 M 25.81 19.52 C 30.98 20.51 36.23 21.05 41.49 21.17 C 41.49 15.11 41.52 9.04 41.48 2.98 C 33.35 4.63 28.65 12.38 25.81 19.52 M 44.54 2.92 C 44.46 9.00 44.52 15.09 44.51 21.17 C 49.77 21.05 55.02 20.49 60.20 19.50 C 57.34 12.33 52.63 4.71 44.54 2.92 M 32.11 4.41 C 25.08 6.51 18.66 10.45 13.61 15.77 C 16.63 16.97 19.72 17.99 22.86 18.83 C 24.86 13.41 28.06 8.52 32.11 4.41 M 53.88 4.41 C 57.92 8.43 60.92 13.32 63.09 18.56 C 66.21 18.49 69.33 16.80 72.37 15.81 C 67.33 10.47 60.91 6.53 53.88 4.41 M 11.57 18.14 C 6.42 24.81 3.37 33.01 2.96 41.43 C 8.24 41.44 13.51 41.43 18.78 41.43 C 18.96 34.78 20.00 28.16 21.92 21.79 C 18.39 20.80 14.94 19.57 11.57 18.14 M 64.07 21.75 C 66.05 28.17 67.04 34.85 67.22 41.56 C 72.48 41.55 77.75 41.56 83.02 41.56 C 82.63 33.13 79.59 24.91 74.41 18.25 C 71.05 19.65 67.59 20.81 64.07 21.75 M 24.81 22.23 C 22.94 28.46 21.91 34.92 21.77 41.43 C 28.35 41.44 34.92 41.43 41.49 41.43 C 41.50 35.67 41.50 29.91 41.49 24.14 C 35.89 23.99 30.31 23.34 24.81 22.23 M 44.50 24.15 C 44.50 29.95 44.50 35.75 44.50 41.56 C 51.08 41.56 57.66 41.56 64.23 41.55 C 64.08 35.05 63.06 28.58 61.19 22.35 C 55.69 23.41 50.11 24.02 44.50 24.15 M 2.97 44.38 C 3.36 52.82 6.40 61.05 11.59 67.71 C 14.95 66.31 18.40 65.15 21.92 64.21 C 19.99 57.80 18.95 51.14 18.78 44.44 C 13.51 44.46 8.24 44.33 2.97 44.38 M 21.77 44.45 C 21.93 50.92 22.94 57.35 24.82 63.54 C 30.31 62.47 35.89 61.86 41.49 61.74 C 41.51 55.98 41.49 50.21 41.50 44.44 C 34.92 44.44 28.34 44.44 21.77 44.45 M 44.51 44.57 C 44.50 50.33 44.50 56.09 44.51 61.86 C 50.11 62.02 55.69 62.66 61.19 63.77 C 63.06 57.54 64.09 51.08 64.23 44.57 C 57.65 44.56 51.08 44.57 44.51 44.57 M 67.22 44.57 C 67.04 51.22 66.00 57.84 64.08 64.21 C 67.61 65.19 71.06 66.44 74.44 67.86 C 79.58 61.18 82.63 52.99 83.03 44.57 C 77.76 44.56 72.49 44.57 67.22 44.57 M 25.80 66.50 C 28.65 73.67 33.38 81.28 41.45 83.08 C 41.54 77.00 41.48 70.91 41.49 64.83 C 36.23 64.95 30.98 65.51 25.80 66.50 M 44.51 64.83 C 44.52 70.91 44.46 76.99 44.54 83.08 C 52.63 81.29 57.35 73.66 60.20 66.48 C 55.02 65.49 49.77 64.95 44.51 64.83 M 13.55 70.10 C 18.58 75.50 25.05 79.46 32.12 81.59 C 28.04 77.44 24.84 72.49 22.86 67.02 C 19.71 67.88 16.59 68.87 13.55 70.10 M 53.88 81.59 C 60.89 79.47 67.36 75.58 72.35 70.19 C 69.34 69.01 66.28 68.00 63.17 67.14 C 61.12 72.55 57.96 77.48 53.88 81.59 Z" />
</g>
</svg>
