<?xml version="1.0" encoding="UTF-8" ?>
<!DOCTYPE svg PUBLIC "-//W3C//DTD SVG 1.1//EN" "http://www.w3.org/Graphics/SVG/1.1/DTD/svg11.dtd">
<svg width="296pt" height="287pt" viewBox="0 0 296 287" version="1.1" xmlns="http://www.w3.org/2000/svg">
<g id="#ffffffff">
<path fill="#ffffff" opacity="1.00" d=" M 28.27 5.17 C 32.72 3.95 37.36 3.92 41.94 4.00 C 91.63 4.00 141.33 4.00 191.02 4.00 C 199.94 4.01 208.84 7.71 214.92 14.26 C 220.82 20.23 224.07 28.63 224.01 36.99 C 223.97 62.69 224.03 88.38 223.99 114.08 C 224.10 117.01 221.45 119.44 218.59 119.45 C 207.36 119.59 196.12 119.45 184.89 119.51 C 194.19 129.16 194.07 146.08 184.30 155.36 C 176.84 163.16 164.28 165.02 154.70 160.24 C 146.92 156.57 141.38 148.66 140.48 140.11 C 139.52 132.66 142.20 124.97 147.24 119.45 C 137.99 119.56 128.75 119.47 119.50 119.50 C 119.45 132.98 119.60 146.47 119.44 159.94 C 119.07 163.85 114.29 165.46 111.01 164.01 C 104.10 162.66 102.46 154.11 95.81 152.28 C 87.83 149.15 78.13 154.72 76.64 163.11 C 74.31 172.43 83.43 182.15 92.89 180.50 C 98.20 180.00 102.04 176.00 104.85 171.82 C 108.30 167.73 117.42 165.17 119.43 171.85 C 119.60 187.26 119.46 202.67 119.50 218.09 C 119.88 221.21 116.95 223.82 113.95 223.73 C 87.64 223.73 61.33 223.81 35.03 223.69 C 18.63 223.10 4.38 208.60 4.05 192.20 C 3.96 140.12 3.99 88.04 4.03 35.96 C 4.23 21.84 14.61 8.71 28.27 5.17 M 16.28 30.19 C 14.83 33.98 15.31 38.07 15.25 42.03 C 15.25 64.11 15.25 86.18 15.25 108.25 C 24.38 108.25 33.52 108.24 42.65 108.26 C 36.87 101.75 34.69 92.34 37.14 83.98 C 39.70 74.48 48.28 66.92 58.05 65.65 C 62.17 65.22 66.43 65.40 70.37 66.82 C 79.90 69.96 87.05 79.25 87.58 89.29 C 88.18 96.16 85.64 103.01 81.29 108.28 C 90.36 108.21 99.43 108.27 108.50 108.25 C 108.58 94.58 108.33 80.90 108.61 67.24 C 110.30 63.16 115.55 63.38 118.89 65.07 C 124.11 67.26 125.72 73.77 131.15 75.67 C 138.97 79.30 149.11 74.33 151.03 65.93 C 153.66 57.55 146.76 48.22 138.13 47.75 C 132.81 47.25 127.46 50.02 124.64 54.53 C 122.01 58.58 116.99 61.27 112.13 60.38 C 109.93 59.62 108.22 57.41 108.49 55.03 C 108.50 41.77 108.50 28.51 108.50 15.25 C 84.32 15.25 60.15 15.26 35.98 15.25 C 27.14 15.45 18.96 21.81 16.28 30.19 M 119.50 15.25 C 119.48 24.58 119.56 33.91 119.45 43.23 C 126.43 36.73 137.03 34.65 145.97 37.91 C 153.34 40.52 159.21 46.76 161.56 54.18 C 163.94 61.57 162.79 70.04 158.41 76.46 C 153.75 83.49 145.41 87.94 136.96 87.77 C 130.51 87.86 124.28 85.22 119.44 81.04 C 119.58 90.11 119.46 99.18 119.50 108.25 C 132.62 108.29 145.74 108.17 158.85 108.31 C 162.25 108.19 165.12 111.61 164.38 114.93 C 163.88 119.06 161.54 122.85 158.04 125.12 C 152.46 128.78 149.85 136.51 152.65 142.68 C 155.51 150.25 165.28 154.11 172.47 150.30 C 179.49 147.06 182.87 137.80 179.22 130.89 C 177.25 125.99 171.40 124.46 169.19 119.76 C 168.00 117.41 167.35 114.72 167.88 112.10 C 168.63 109.51 171.38 108.16 173.94 108.26 C 186.87 108.23 199.81 108.27 212.75 108.25 C 212.74 84.16 212.76 60.06 212.74 35.97 C 212.51 25.13 202.91 15.47 192.06 15.25 C 167.87 15.26 143.69 15.25 119.50 15.25 M 47.49 90.05 C 46.96 95.42 49.90 100.67 54.39 103.52 C 57.90 105.82 60.27 109.82 60.35 114.04 C 60.51 117.03 57.74 119.56 54.82 119.49 C 41.63 119.52 28.44 119.49 15.25 119.50 C 15.25 143.68 15.24 167.87 15.26 192.05 C 15.60 203.37 26.01 212.89 37.26 212.68 C 61.01 212.84 84.76 212.71 108.50 212.74 C 108.53 203.50 108.42 194.26 108.56 185.02 C 101.85 191.23 91.82 193.40 83.11 190.70 C 74.67 188.12 67.85 180.85 65.88 172.24 C 64.44 165.95 65.19 159.07 68.48 153.46 C 72.88 145.48 81.85 140.30 90.96 140.46 C 97.43 140.36 103.70 143.02 108.53 147.25 C 108.46 138.00 108.52 128.75 108.50 119.50 C 95.69 119.51 82.89 119.49 70.09 119.52 C 67.81 119.66 65.26 118.74 64.24 116.55 C 62.84 114.10 63.92 111.23 64.92 108.85 C 66.96 104.08 72.77 102.59 74.86 97.85 C 79.35 90.09 74.49 79.24 65.88 77.09 C 57.47 74.31 47.79 81.26 47.49 90.05 Z" />
<path fill="#ffffff" opacity="1.00" d=" M 176.51 173.05 C 176.24 169.97 179.10 167.30 182.11 167.50 C 197.04 167.49 211.97 167.49 226.90 167.50 C 229.90 167.33 232.53 170.01 232.53 172.98 C 232.31 175.03 231.88 177.11 230.90 178.94 C 228.57 183.67 222.62 185.29 220.74 190.37 C 217.02 197.97 221.63 207.99 229.75 210.22 C 237.07 212.89 245.61 208.12 247.93 200.87 C 250.11 194.76 247.37 187.51 241.92 184.10 C 237.88 181.53 235.22 176.69 235.79 171.86 C 236.17 169.35 238.57 167.41 241.11 167.51 C 256.08 167.48 271.05 167.51 286.03 167.49 C 289.49 167.14 292.40 170.48 291.99 173.85 C 292.02 197.56 291.98 221.26 292.01 244.97 C 292.06 249.68 292.01 254.47 290.67 259.03 C 287.72 269.97 278.63 278.93 267.69 281.82 C 263.25 283.08 258.59 283.07 254.01 283.00 C 229.98 282.98 205.95 283.03 181.91 282.98 C 179.15 282.98 176.49 280.73 176.53 277.87 C 176.47 266.67 176.47 255.47 176.55 244.27 C 172.46 247.68 167.51 250.23 162.16 250.80 C 152.94 252.16 143.25 247.84 137.94 240.22 C 132.50 232.71 131.69 222.18 135.89 213.91 C 139.57 206.15 147.48 200.60 156.03 199.78 C 163.42 198.78 170.92 201.48 176.51 206.29 C 176.50 195.21 176.47 184.13 176.51 173.05 M 187.50 178.50 C 187.49 191.61 187.51 204.73 187.50 217.84 C 187.69 220.84 185.08 223.85 181.97 223.54 C 177.45 223.70 173.42 220.84 170.98 217.22 C 167.83 212.45 161.75 209.78 156.12 210.98 C 148.57 212.31 142.87 220.31 144.53 227.88 C 145.81 235.10 153.05 240.77 160.40 239.87 C 164.87 239.50 168.87 236.80 171.37 233.15 C 173.90 229.35 178.38 226.62 183.04 227.05 C 185.84 227.44 187.65 230.26 187.49 232.97 C 187.52 245.89 187.49 258.82 187.50 271.75 C 211.67 271.75 235.85 271.75 260.02 271.75 C 268.83 271.55 277.00 265.22 279.70 256.87 C 281.15 253.09 280.70 249.00 280.75 245.05 C 280.75 222.87 280.75 200.68 280.75 178.50 C 271.42 178.48 262.10 178.56 252.77 178.46 C 260.47 186.52 262.12 199.61 256.38 209.21 C 250.89 219.29 238.09 224.32 227.14 221.09 C 217.50 218.52 209.86 209.91 208.56 200.01 C 207.30 192.27 210.05 184.24 215.29 178.49 C 206.02 178.52 196.76 178.49 187.50 178.50 Z" />
</g>
</svg>
