<svg id="block23_15" viewBox="0 0 286 214" version="1.1" xmlns="http://www.w3.org/2000/svg"><g id="#ffffffff"><path fill="#ffffff" opacity="1.00" d=" M 3.83 0.00 L 282.19 0.00 C 283.49 1.16 284.71 2.41 286.00 3.58 L 286.00 210.17 C 285.29 211.92 283.93 213.29 282.17 214.00 L 3.56 214.00 C 2.40 212.70 1.15 211.48 0.00 210.17 L 0.00 3.56 C 1.30 2.40 2.51 1.14 3.83 0.00 M 11.00 11.00 C 11.00 75.00 11.00 139.00 11.00 203.00 C 99.00 203.00 187.00 203.00 275.00 203.00 C 275.00 139.00 275.00 75.00 275.00 11.00 C 187.00 11.00 99.00 11.00 11.00 11.00 Z"></path><path fill="#ffffff" opacity="1.00" d=" M 49.42 22.63 C 110.95 22.31 172.51 22.61 234.05 22.48 C 237.30 21.94 240.72 24.49 240.66 27.88 C 240.54 37.13 248.64 45.47 257.93 45.46 C 260.63 45.26 263.50 47.26 263.48 50.14 C 263.54 87.76 263.47 125.39 263.51 163.01 C 263.80 166.01 261.01 168.65 258.07 168.52 C 249.11 168.50 240.98 176.21 240.75 185.19 C 241.02 188.42 238.43 191.75 235.04 191.50 C 173.67 191.50 112.30 191.51 50.92 191.50 C 47.50 191.73 44.93 188.31 45.22 185.07 C 44.98 176.14 36.84 168.51 27.95 168.52 C 24.99 168.65 22.18 165.99 22.49 162.98 C 22.51 125.63 22.51 88.29 22.49 50.95 C 22.22 47.97 25.00 45.36 27.92 45.48 C 36.46 45.48 44.37 38.48 45.14 29.94 C 45.01 26.93 46.14 23.42 49.42 22.63 M 55.63 33.50 C 53.73 44.61 44.53 53.70 33.51 55.81 C 33.50 89.94 33.50 124.07 33.51 158.19 C 44.53 160.30 53.73 169.39 55.63 180.50 C 113.88 180.49 172.12 180.49 230.37 180.50 C 232.26 169.62 241.14 160.51 251.98 158.36 C 252.03 124.15 251.98 89.93 252.00 55.71 C 240.95 53.77 231.93 44.47 229.91 33.50 C 171.81 33.50 113.72 33.51 55.63 33.50 Z"></path><path fill="#ffffff" opacity="1.00" d=" M 99.78 55.55 C 102.11 54.29 105.21 55.21 106.62 57.41 C 109.73 61.55 112.82 65.71 115.84 69.92 C 119.07 65.76 122.11 61.47 125.27 57.27 C 127.13 54.37 131.96 54.20 133.90 57.11 C 137.13 61.33 140.20 65.68 143.42 69.91 C 146.62 65.63 149.76 61.30 152.97 57.03 C 154.85 54.49 159.18 54.28 161.17 56.81 C 164.53 61.09 167.64 65.58 170.93 69.92 C 174.11 65.68 177.23 61.40 180.38 57.13 C 182.02 54.82 185.65 54.27 187.85 56.13 C 190.71 57.70 191.25 61.79 189.24 64.26 C 184.55 70.54 179.86 76.83 175.06 83.02 C 173.19 85.64 168.84 85.68 166.88 83.16 C 163.64 78.86 160.41 74.54 157.29 70.15 C 153.74 74.38 150.77 79.06 147.28 83.34 C 145.25 85.79 140.90 85.48 139.13 82.88 C 135.94 78.66 132.87 74.35 129.66 70.14 C 126.39 74.39 123.32 78.80 120.05 83.04 C 117.97 85.94 113.11 85.53 111.32 82.52 C 106.83 76.42 102.15 70.45 97.66 64.35 C 95.36 61.60 96.42 56.91 99.78 55.55 Z"></path><path fill="#ffffff" opacity="1.00" d=" M 59.41 98.59 C 114.89 98.39 170.39 98.53 225.87 98.52 C 230.32 98.49 232.80 104.49 229.74 107.65 C 227.67 110.33 224.00 109.68 221.05 109.76 C 169.03 109.74 117.02 109.74 65.00 109.76 C 62.04 109.67 58.35 110.35 56.27 107.66 C 53.43 104.72 55.31 99.14 59.41 98.59 Z"></path><path fill="#ffffff" opacity="1.00" d=" M 58.32 121.43 C 59.49 121.10 60.69 120.96 61.91 120.99 C 116.32 121.02 170.72 120.97 225.13 121.02 C 229.18 120.69 232.41 125.22 230.64 128.91 C 229.65 131.56 226.57 132.50 223.98 132.27 C 169.33 132.19 114.68 132.35 60.04 132.19 C 54.29 132.14 53.09 123.36 58.32 121.43 Z"></path><path fill="#ffffff" opacity="1.00" d=" M 111.39 152.53 C 112.83 151.87 114.45 152.01 115.98 151.98 C 134.67 152.03 153.36 151.97 172.05 152.01 C 176.52 152.01 178.97 157.84 176.17 161.19 C 174.59 163.51 171.51 163.25 169.05 163.27 C 150.39 163.11 131.71 163.48 113.06 163.09 C 107.73 162.70 106.49 154.60 111.39 152.53 Z"></path></g></svg>