<!-- Generator: Adobe Illustrator 22.1.0, SVG Export Plug-In  -->
<svg version="1.1"
	 xmlns="http://www.w3.org/2000/svg" xmlns:xlink="http://www.w3.org/1999/xlink" xmlns:a="http://ns.adobe.com/AdobeSVGViewerExtensions/3.0/"
	 x="0px" y="0px" width="71.7px" height="66.6px" viewBox="0 0 71.7 66.6" style="enable-background:new 0 0 71.7 66.6;"
	 xml:space="preserve">
<style type="text/css">
	path{fill:#fff;}
</style>
<defs>
</defs>
<path d="M32.2,44.3c0.5-0.5,0.5-1.4,0-2c-0.5-0.5-1.4-0.5-2,0c-0.5,0.5-0.5,1.4,0,2C30.8,44.8,31.7,44.8,32.2,44.3L32.2,44.3z
	 M32.2,44.3"/>
<path d="M31.2,44.6c-0.4,0-0.7-0.1-0.9-0.4c-0.5-0.5-0.5-1.4,0-1.9c0.2-0.2,0.6-0.4,0.9-0.4c0.4,0,0.7,0.1,0.9,0.4
	c0.5,0.5,0.5,1.4,0,1.9C31.9,44.5,31.6,44.6,31.2,44.6z"/>
<path d="M32.7,11.3"/>
<path d="M41.2,22.4c-4.6,0-8.3-3.7-8.3-8.3v-2.9h-0.1c-0.7,0-1.3-0.6-1.3-1.3c0-0.7,0.6-1.3,1.3-1.3h2.8c0.7,0,1.3,0.6,1.3,1.3
	c0,0.7-0.6,1.3-1.3,1.3h-0.1v2.9c0,3.1,2.6,5.7,5.7,5.7s5.7-2.6,5.7-5.7v-2.9h-0.1c-0.7,0-1.3-0.6-1.3-1.3c0-0.7,0.6-1.3,1.3-1.3
	h2.8c0.7,0,1.3,0.6,1.3,1.3c0,0.7-0.6,1.3-1.3,1.3h-0.1v2.9C49.5,18.7,45.8,22.4,41.2,22.4z"/>
<path d="M69.7,26.7c-1-0.8-2.3-1.3-3.6-1.3c-1.6,0-3.1,0.7-4.2,1.9l-1.5,1.5V1.3c0-0.7-0.6-1.3-1.3-1.3H23.1c-0.7,0-1.3,0.6-1.3,1.3
	v31.5l-0.1,0C16.3,34,12,37.3,9.6,42.3l2.7,0.8l-0.1,0l0-0.1c2.1-4.2,6-7,11-7.7c0.9-0.1,1.7-0.2,2.6-0.2c2.1,0,4,0.4,5.9,1.1
	c0.4,0.2,0.9,0.3,1.3,0.3h16.3c1.6,0,2.9,1.3,2.9,2.9s-1.3,2.9-2.9,2.9H37.1c-0.7,0-1.3,0.6-1.3,1.3c0,0.7,0.6,1.3,1.3,1.3h12.2
	c3,0,5.5-2.5,5.5-5.5c0-0.2,0-0.5,0-0.8c0.3-0.3,8.8-9.1,9.1-9.4c0.5-0.6,1.4-1,2.2-1c0.7,0,1.3,0.2,1.9,0.7c0.6,0.5,0.9,1.2,1,2
	c0.1,0.8-0.2,1.5-0.7,2.1l-12.5,15c-1.9,1.8-4.3,2.8-6.9,2.8H30.5c-2.4,0-4.7,0.9-6.4,2.6l-0.7,0.7l-0.1-0.1l1,2.8l1.5-1.5
	c1.2-1.2,2.9-1.9,4.6-1.9h18.5c3.3,0,6.4-1.3,8.7-3.6c0,0,0.1-0.1,0.1-0.1l12.6-15.1C72.3,32.2,72,28.7,69.7,26.7z M57.8,31.7
	l-4.1,4.3l-0.1-0.1c-1.1-1.3-2.6-2.1-4.3-2.1H33c-0.1,0-0.2,0-0.3-0.1c-2.2-0.9-4.5-1.3-6.8-1.3c-0.5,0-0.9,0-1.4,0l-0.1,0V2.6h33.4
	L57.8,31.7z"/>
<path class="st0" d="M4.7,44.2l-4.3,4.3C0.1,48.7,0,49,0,49.4c0,0.4,0.1,0.7,0.4,0.9l15.9,15.9c0.2,0.2,0.6,0.4,0.9,0.4
	c0.4,0,0.7-0.1,0.9-0.4l4.3-4.3c1.4-1.4,2.1-3.3,1.9-5.3l-1-2.8c-0.2-0.4-0.5-0.7-0.9-1l-8.6-8.6c-0.4-0.4-1-0.8-1.5-1.1l-2.7-0.8
	c-0.1,0-0.2,0-0.3,0C7.5,42.3,5.9,42.9,4.7,44.2z M12,46l8.6,8.6c0.7,0.7,1.1,1.7,1.1,2.7c0,1-0.4,2-1.1,2.7l-3.4,3.4l-14-14L6.6,46
	c0.7-0.7,1.7-1.1,2.7-1.1C10.3,44.9,11.2,45.3,12,46z"/>
</svg>
