<?xml version="1.0" encoding="UTF-8" ?>
<!DOCTYPE svg PUBLIC "-//W3C//DTD SVG 1.1//EN" "http://www.w3.org/Graphics/SVG/1.1/DTD/svg11.dtd">
<svg width="61pt" height="59pt" viewBox="0 0 61 59" version="1.1" xmlns="http://www.w3.org/2000/svg">
<g id="#ffffffff">
<path fill="#ffffff" opacity="1.00" d=" M 27.42 0.00 L 32.71 0.00 C 35.55 0.31 38.51 0.53 41.11 1.81 C 43.82 3.17 44.96 6.12 46.67 8.43 C 50.31 10.61 54.87 11.01 58.19 13.79 C 59.87 15.16 60.54 17.32 61.00 19.35 L 61.00 53.69 C 60.33 56.33 58.28 58.25 55.69 59.00 L 5.40 59.00 C 2.75 58.39 0.73 56.42 0.00 53.80 L 0.00 19.28 C 0.61 13.17 6.99 11.25 11.89 9.62 C 15.49 8.87 15.94 4.59 18.60 2.61 C 21.14 0.76 24.41 0.49 27.42 0.00 M 21.27 3.78 C 23.87 6.97 26.93 9.92 30.81 11.48 C 34.22 9.43 37.33 6.89 39.72 3.68 C 33.83 1.68 27.10 1.41 21.27 3.78 M 19.18 4.85 C 18.35 6.54 16.76 8.05 16.70 10.00 C 17.29 13.95 18.90 17.65 20.38 21.34 C 22.68 18.26 24.60 14.81 27.89 12.62 C 24.51 10.61 21.73 7.82 19.18 4.85 M 41.67 4.88 C 39.28 7.93 36.42 10.61 33.07 12.60 C 36.29 14.90 38.56 18.16 40.48 21.56 C 42.07 17.83 43.64 14.03 44.35 10.01 C 44.13 8.03 42.74 6.48 41.67 4.88 M 5.58 14.51 C 3.21 15.70 2.04 18.42 2.14 20.98 C 2.12 31.35 2.11 41.73 2.14 52.10 C 1.82 54.78 4.28 57.09 6.91 56.86 C 22.64 56.89 38.37 56.89 54.10 56.86 C 56.74 57.08 59.17 54.75 58.86 52.08 C 58.79 41.11 59.09 30.12 58.70 19.16 C 57.68 13.46 50.82 12.97 46.46 10.98 C 45.24 15.86 43.65 20.76 40.97 25.05 L 40.05 25.45 C 38.51 23.57 37.70 21.22 36.54 19.11 C 35.66 19.98 34.48 20.74 34.23 22.05 C 35.63 29.10 38.21 35.92 39.29 43.03 C 37.94 45.95 35.71 48.33 33.99 51.01 C 32.85 52.47 32.01 54.42 30.09 55.02 C 27.58 51.24 24.69 47.71 22.33 43.83 C 21.53 42.68 22.26 41.26 22.43 40.03 C 23.87 34.54 25.30 29.05 26.74 23.57 C 27.63 21.83 26.05 20.47 25.18 19.15 C 25.75 18.44 26.31 17.74 26.87 17.03 C 27.35 18.87 28.81 21.16 30.99 21.06 C 32.71 20.42 34.40 18.64 34.37 16.75 C 32.99 15.39 30.77 12.79 28.81 14.77 C 24.72 17.07 23.43 21.72 21.04 25.41 L 20.06 25.11 C 17.37 20.79 15.70 15.90 14.55 10.96 C 11.54 12.09 8.45 13.03 5.58 14.51 M 29.09 23.12 C 27.43 29.66 25.70 36.18 24.10 42.73 C 26.34 45.74 28.40 48.88 30.68 51.87 C 32.52 49.12 34.54 46.49 36.38 43.74 C 37.43 42.65 36.79 41.18 36.51 39.93 C 34.99 34.33 33.60 28.71 32.10 23.11 C 31.35 23.11 29.85 23.12 29.09 23.12 Z" />
</g>
</svg>
