<?xml version="1.0" encoding="UTF-8" ?>
<!DOCTYPE svg PUBLIC "-//W3C//DTD SVG 1.1//EN" "http://www.w3.org/Graphics/SVG/1.1/DTD/svg11.dtd">
<svg width="68pt" height="48pt" viewBox="0 0 68 48" version="1.1" xmlns="http://www.w3.org/2000/svg">
<g id="#fefefefe">
<path fill="#fefefe" opacity="1.00" d=" M 24.46 0.00 L 43.44 0.00 C 43.73 1.62 43.83 3.26 43.95 4.89 C 50.76 7.52 56.79 12.32 60.25 18.81 C 63.17 23.90 64.14 29.83 64.06 35.64 C 65.38 36.25 66.70 36.87 68.00 37.55 L 68.00 48.00 L 0.00 48.00 L 0.00 37.56 C 1.27 36.89 2.58 36.27 3.88 35.66 C 3.83 29.82 4.79 23.84 7.75 18.73 C 11.23 12.30 17.22 7.51 24.01 4.92 C 24.14 3.28 24.27 1.64 24.46 0.00 M 26.89 2.76 C 26.88 11.76 26.87 20.75 26.89 29.75 C 31.61 29.74 36.33 29.75 41.05 29.75 C 41.05 20.75 41.05 11.75 41.05 2.76 C 36.33 2.75 31.61 2.75 26.89 2.76 M 6.75 35.01 C 7.53 37.80 4.60 38.37 2.70 39.27 C 2.69 41.26 2.70 43.25 2.70 45.24 C 23.57 45.24 44.43 45.25 65.30 45.24 C 65.30 43.26 65.30 41.28 65.29 39.30 C 63.40 38.40 60.46 37.83 61.25 35.03 C 62.12 23.38 54.71 12.01 43.87 7.80 C 43.87 15.92 43.94 24.03 43.82 32.14 C 37.60 32.86 31.27 32.46 25.01 32.40 L 24.25 31.85 C 23.94 23.83 24.18 15.79 24.15 7.77 C 13.33 12.02 5.87 23.34 6.75 35.01 Z" />
</g>
</svg>
