<?xml version="1.0" encoding="UTF-8" ?>
<!DOCTYPE svg PUBLIC "-//W3C//DTD SVG 1.1//EN" "http://www.w3.org/Graphics/SVG/1.1/DTD/svg11.dtd">
<svg width="86pt" height="86pt" viewBox="0 0 86 86" version="1.1" xmlns="http://www.w3.org/2000/svg">
<g id="#fefefefe">
<path fill="#fefefe" opacity="1.00" d=" M 40.37 0.00 L 45.57 0.00 C 55.98 0.69 66.09 5.17 73.43 12.60 C 80.83 19.92 85.29 30.00 86.00 40.37 L 86.00 45.65 C 85.29 56.49 80.41 67.02 72.42 74.41 C 65.20 81.26 55.54 85.34 45.63 86.00 L 40.43 86.00 C 30.01 85.34 19.87 80.84 12.53 73.39 C 5.13 66.07 0.68 55.98 0.00 45.62 L 0.00 40.35 C 0.69 29.98 5.15 19.89 12.56 12.57 C 19.88 5.16 29.98 0.69 40.37 0.00 M 25.82 19.51 C 30.99 20.51 36.23 21.07 41.49 21.16 C 41.48 15.10 41.54 9.03 41.46 2.96 C 33.36 4.66 28.63 12.36 25.82 19.51 M 44.51 3.02 C 44.49 9.07 44.50 15.11 44.51 21.16 C 49.77 21.07 55.01 20.49 60.18 19.50 C 57.34 12.38 52.65 4.58 44.51 3.02 M 32.10 4.44 C 25.08 6.50 18.66 10.44 13.63 15.77 C 16.64 16.99 19.74 17.99 22.88 18.82 C 24.85 13.41 28.05 8.52 32.10 4.44 M 53.88 4.43 C 58.05 8.51 61.02 13.57 63.28 18.91 C 66.32 17.96 69.38 17.01 72.34 15.81 C 67.33 10.46 60.90 6.51 53.88 4.43 M 11.54 18.16 C 6.43 24.84 3.34 33.01 2.99 41.43 C 8.26 41.43 13.52 41.44 18.79 41.43 C 18.96 34.78 20.00 28.15 21.93 21.78 C 18.38 20.83 14.94 19.53 11.54 18.16 M 64.08 21.73 C 66.03 28.16 67.06 34.84 67.21 41.56 C 72.48 41.56 77.74 41.56 83.00 41.56 C 82.65 33.13 79.60 24.88 74.39 18.25 C 71.04 19.67 67.59 20.82 64.08 21.73 M 24.82 22.23 C 22.94 28.46 21.90 34.92 21.78 41.43 C 28.35 41.44 34.92 41.43 41.49 41.43 C 41.50 35.66 41.50 29.90 41.49 24.13 C 35.89 24.00 30.31 23.34 24.82 22.23 M 44.51 24.14 C 44.50 29.94 44.51 35.75 44.50 41.55 C 51.08 41.56 57.65 41.57 64.23 41.54 C 64.09 35.04 63.07 28.57 61.18 22.34 C 55.69 23.41 50.11 24.04 44.51 24.14 M 3.00 44.38 C 3.35 52.82 6.39 61.08 11.62 67.71 C 14.96 66.29 18.42 65.14 21.93 64.22 C 19.98 57.80 18.95 51.13 18.78 44.44 C 13.52 44.47 8.26 44.33 3.00 44.38 M 21.78 44.45 C 21.92 50.92 22.94 57.36 24.83 63.54 C 30.32 62.47 35.89 61.85 41.48 61.75 C 41.51 55.98 41.49 50.22 41.50 44.45 C 34.92 44.44 28.35 44.43 21.78 44.45 M 44.51 44.57 C 44.50 50.34 44.50 56.10 44.51 61.87 C 50.12 62.00 55.69 62.67 61.19 63.76 C 63.05 57.54 64.10 51.08 64.22 44.57 C 57.65 44.56 51.08 44.57 44.51 44.57 M 67.21 44.57 C 67.04 51.22 66.00 57.85 64.07 64.22 C 67.62 65.16 71.06 66.48 74.47 67.84 C 79.56 61.15 82.66 52.99 83.01 44.57 C 77.74 44.57 72.48 44.56 67.21 44.57 M 25.82 66.50 C 28.64 73.65 33.36 81.28 41.41 83.06 C 41.59 76.99 41.46 70.91 41.49 64.84 C 36.23 64.93 30.99 65.51 25.82 66.50 M 44.51 64.84 C 44.52 70.90 44.46 76.97 44.55 83.04 C 52.64 81.33 57.37 73.64 60.18 66.49 C 55.01 65.49 49.77 64.93 44.51 64.84 M 13.57 70.10 C 18.58 75.52 25.06 79.48 32.12 81.57 C 28.04 77.45 24.83 72.50 22.88 67.02 C 19.72 67.86 16.60 68.86 13.57 70.10 M 63.12 67.16 C 61.15 72.59 57.95 77.50 53.87 81.57 C 60.89 79.48 67.37 75.60 72.33 70.19 C 69.33 68.98 66.25 67.97 63.12 67.16 Z" />
</g>
</svg>
