<?xml version="1.0" encoding="UTF-8" ?>
<!DOCTYPE svg PUBLIC "-//W3C//DTD SVG 1.1//EN" "http://www.w3.org/Graphics/SVG/1.1/DTD/svg11.dtd">
<svg width="270pt" height="270pt" viewBox="0 0 270 270" version="1.1" xmlns="http://www.w3.org/2000/svg">
<g id="#ffffffff">
<path fill="#ffffff" opacity="1.00" d=" M 131.64 0.00 L 138.55 0.00 C 152.20 1.39 163.96 13.28 164.73 27.05 C 164.75 47.76 164.78 68.46 164.72 89.17 C 174.79 95.79 184.39 103.12 194.26 110.04 C 194.27 102.04 194.20 94.03 194.27 86.03 C 194.25 82.52 198.36 80.00 201.54 81.29 C 203.84 82.12 205.45 84.49 205.23 86.95 C 205.31 96.96 205.20 106.97 205.26 116.97 C 204.99 118.37 206.61 118.85 207.42 119.61 C 213.73 123.96 219.93 128.48 226.25 132.83 C 226.30 122.58 226.18 112.33 226.29 102.08 C 226.38 98.64 230.45 96.22 233.57 97.56 C 235.83 98.28 237.36 100.60 237.24 102.96 C 237.27 115.60 237.26 128.24 237.23 140.87 C 246.76 147.66 256.27 154.48 265.83 161.22 C 267.43 162.30 268.88 163.62 270.00 165.21 L 270.00 186.54 C 268.63 188.32 266.47 190.05 264.09 189.23 C 230.88 179.85 197.70 170.38 164.50 160.98 C 163.42 173.53 162.54 186.10 161.49 198.66 C 161.70 198.41 162.14 197.92 162.36 197.68 C 175.74 207.63 189.38 217.25 202.83 227.12 C 204.07 227.97 205.02 229.41 204.86 230.98 C 204.60 242.28 204.84 253.60 204.73 264.91 C 204.84 267.32 202.88 269.01 200.91 270.00 L 198.61 270.00 C 184.82 265.55 171.17 260.65 157.41 256.10 C 156.34 260.67 158.20 266.80 153.96 270.00 L 116.18 270.00 C 111.88 266.70 113.54 260.62 112.61 255.95 C 98.82 260.58 85.07 265.30 71.30 270.00 L 68.58 270.00 C 66.62 269.05 64.78 267.35 64.81 265.01 C 64.68 254.01 64.76 243.00 64.77 232.00 C 64.69 229.60 66.27 227.56 68.20 226.33 C 81.66 216.76 94.84 206.78 108.44 197.41 C 107.33 185.17 106.60 172.91 105.43 160.68 C 72.54 170.07 39.61 179.34 6.71 188.75 C 3.86 189.78 0.96 187.67 0.00 185.02 L 0.00 165.58 C 0.82 163.97 2.06 162.65 3.56 161.67 C 13.31 154.77 23.03 147.81 32.77 140.88 C 32.75 128.23 32.73 115.57 32.77 102.92 C 32.57 99.97 35.11 97.30 38.03 97.22 C 41.13 96.89 44.08 99.82 43.75 102.93 C 43.76 112.89 43.73 122.85 43.75 132.81 C 51.04 127.96 58.27 123.01 65.50 118.07 C 65.52 107.76 65.46 97.46 65.51 87.15 C 65.49 84.74 66.74 82.22 69.11 81.38 C 72.47 79.78 76.66 82.66 76.68 86.30 C 76.87 94.14 76.68 101.99 76.76 109.84 C 86.37 103.03 95.94 96.17 105.51 89.31 C 105.52 68.92 105.44 48.53 105.55 28.14 C 105.94 14.03 117.68 1.58 131.64 0.00 M 123.31 15.27 C 118.63 19.02 116.37 25.11 116.51 31.00 C 116.51 73.00 116.47 115.00 116.53 157.00 C 118.76 190.94 121.63 224.83 124.06 258.76 C 131.35 258.74 138.65 258.74 145.94 258.76 C 148.34 224.87 151.06 190.99 153.48 157.10 C 153.52 135.06 153.50 113.03 153.49 90.99 C 154.02 70.65 153.62 50.30 153.76 29.95 C 154.04 23.51 150.52 17.18 145.07 13.81 C 138.53 9.48 129.23 10.17 123.31 15.27 M 11.24 170.38 C 11.25 172.19 11.24 174.00 11.23 175.82 C 42.65 166.92 74.07 158.02 105.50 149.12 C 105.51 133.91 105.47 118.70 105.52 103.49 C 74.10 125.80 42.65 148.06 11.24 170.38 M 164.48 102.18 C 164.38 118.06 164.79 133.96 164.27 149.82 L 165.53 149.37 C 196.90 158.03 228.18 167.03 259.52 175.78 C 259.50 173.93 259.49 172.08 259.47 170.23 C 229.27 148.93 199.19 127.47 169.02 106.14 C 167.43 104.92 165.47 104.02 164.48 102.18 M 159.98 221.06 C 159.33 228.84 159.02 236.64 158.13 244.40 C 170.10 248.65 182.22 252.46 194.25 256.55 C 194.26 249.32 194.24 242.10 194.26 234.87 C 183.21 226.77 172.06 218.81 161.03 210.71 C 160.86 210.01 160.53 208.62 160.36 207.93 C 161.09 212.30 160.15 216.69 159.98 221.06 M 76.33 234.63 C 76.15 241.90 76.29 249.18 76.26 256.46 C 88.13 252.45 100.04 248.54 111.86 244.40 C 110.75 233.32 110.17 222.18 109.30 211.08 C 98.06 218.54 87.44 226.95 76.33 234.63 Z" />
</g>
</svg>
