<?xml version="1.0" encoding="UTF-8" ?>
<!DOCTYPE svg PUBLIC "-//W3C//DTD SVG 1.1//EN" "http://www.w3.org/Graphics/SVG/1.1/DTD/svg11.dtd">
<svg width="41pt" height="35pt" viewBox="0 0 41 35" version="1.1" xmlns="http://www.w3.org/2000/svg">
<g id="#fff">
<path fill="#fff" opacity="0.81" d=" M 18.22 0.00 L 22.74 0.00 C 28.83 3.13 35.29 5.66 41.00 9.46 L 41.00 35.00 L 39.46 35.00 C 39.31 27.64 39.40 20.28 39.39 12.92 C 38.26 13.44 37.13 13.97 36.00 14.49 C 35.31 19.42 37.61 26.28 32.29 29.29 C 27.83 31.40 23.35 35.14 18.11 33.87 C 14.45 32.38 10.82 30.66 7.53 28.46 C 3.64 24.92 5.72 19.14 5.00 14.56 C 3.26 13.75 1.54 12.88 0.00 11.74 L 0.00 9.34 C 5.82 5.77 12.13 3.08 18.22 0.00 M 16.81 2.60 C 11.67 5.21 6.45 7.67 1.38 10.40 C 4.96 13.08 9.26 14.54 13.16 16.69 C 16.16 18.13 19.46 20.50 22.92 19.05 C 28.20 16.59 33.42 13.97 38.57 11.23 C 34.17 11.49 29.76 11.36 25.35 11.38 C 23.41 15.51 15.73 15.19 15.98 9.99 C 17.21 5.73 23.47 6.05 25.26 9.75 C 29.59 9.77 33.93 9.77 38.27 9.79 C 33.89 7.25 29.24 5.23 24.76 2.87 C 22.35 1.49 19.29 1.25 16.81 2.60 M 18.10 9.12 C 18.07 9.80 18.01 11.15 17.98 11.83 C 19.62 12.61 21.40 12.63 23.03 11.81 C 23.00 11.13 22.92 9.78 22.88 9.10 C 21.31 8.63 19.67 8.65 18.10 9.12 M 7.02 15.70 C 7.06 18.77 6.84 21.86 7.16 24.92 C 8.29 27.81 11.51 28.71 13.99 30.06 C 16.74 31.46 19.86 33.27 23.01 31.93 C 25.94 30.66 28.82 29.23 31.60 27.67 C 35.60 25.01 33.47 19.65 33.99 15.70 C 30.30 17.30 26.83 19.37 23.12 20.90 C 17.11 22.45 12.31 17.59 7.02 15.70 Z" />
</g>
</svg>
