<!-- Generator: Adobe Illustrator 22.1.0, SVG Export Plug-In  -->
<svg version="1.1"
	 xmlns="http://www.w3.org/2000/svg" xmlns:xlink="http://www.w3.org/1999/xlink" xmlns:a="http://ns.adobe.com/AdobeSVGViewerExtensions/3.0/"
	 x="0px" y="0px" width="57.3px" height="69.3px" viewBox="0 0 57.3 69.3" style="enable-background:new 0 0 57.3 69.3;"
	 xml:space="preserve">
<style type="text/css">
	*{fill:#fff;}
</style>
<defs>
</defs>
<g>
	<path d="M57.1,60.2l-7.3-9.4c2.4-0.7,4.4-2.2,5.8-4.3c1.7-3,0.9-6.6,0.2-10.1c-0.5-1.8-0.7-3.6-0.8-5.5c0.1-1.8,0.4-3.7,0.8-5.5
		c0.7-3.5,1.5-7.1-0.2-10.1c-1.8-3.1-5.3-4.2-8.8-5.3c-1.7-0.5-3.4-1.1-5-1.9c-1.4-0.9-2.8-2-4-3.2C35.3,2.7,32.4,0,28.7,0
		s-6.6,2.7-9.2,5.1c-1.2,1.2-2.5,2.3-4,3.2c-1.6,0.8-3.2,1.5-5,1.9c-3.5,1.1-7,2.2-8.8,5.3c-1.7,3-0.9,6.6-0.2,10.1
		c0.5,1.8,0.7,3.6,0.8,5.5c-0.1,1.8-0.4,3.7-0.8,5.5c-0.7,3.5-1.5,7.1,0.2,10.1c1.4,2,3.4,3.6,5.8,4.3l-7.3,9.4
		c-0.4,0.5-0.3,1.3,0.2,1.7c0.3,0.2,0.6,0.3,0.9,0.2l8.5-1.1l2.1,7.4c0.1,0.4,0.5,0.8,0.9,0.8c0.1,0,0.2,0,0.2,0
		c0.4,0,0.7-0.2,0.9-0.5l7.6-9.8c1.9,1.8,4.3,2.9,7,3.1c2.6-0.2,5.1-1.3,7-3.1l7.6,9.8c0.2,0.3,0.6,0.5,0.9,0.5c0.1,0,0.2,0,0.2,0
		c0.4-0.1,0.8-0.4,0.9-0.8l2.1-7.4l8.5,1.1c0.7,0.1,1.3-0.4,1.3-1C57.4,60.8,57.3,60.5,57.1,60.2z M13.6,65.5l-1.7-6.1
		c-0.2-0.6-0.7-0.9-1.3-0.9l-6.7,0.8l6-7.7l0.7,0.2c1.7,0.5,3.4,1.1,5,1.9c1.4,0.9,2.8,2,4,3.2l0.4,0.4L13.6,65.5z M28.7,59.8
		c-2.8,0-5.1-2.2-7.5-4.4c-1.3-1.3-2.8-2.5-4.4-3.5c-1.7-0.9-3.6-1.6-5.4-2.2c-3.2-1-6.1-1.9-7.4-4.2c-1.2-2.2-0.6-5.2,0.1-8.4
		c0.5-2,0.8-4,0.9-6c-0.1-2-0.4-4-0.9-6c-0.7-3.2-1.3-6.2-0.1-8.4c1.3-2.3,4.3-3.2,7.4-4.2c1.9-0.5,3.7-1.2,5.4-2.2
		c1.6-1,3.1-2.2,4.4-3.5c2.5-2.3,4.8-4.4,7.5-4.4s5.1,2.2,7.5,4.4c1.3,1.3,2.8,2.5,4.4,3.5c1.7,0.9,3.6,1.6,5.4,2.2
		c3.2,1,6.1,1.9,7.4,4.2c1.2,2.2,0.6,5.2-0.1,8.4c-0.5,2-0.8,4-0.9,6c0.1,2,0.4,4,0.9,6c0.7,3.2,1.3,6.2,0.1,8.4
		c-1.3,2.3-4.3,3.2-7.4,4.2c-1.9,0.5-3.7,1.2-5.4,2.2c-1.6,1-3.1,2.2-4.4,3.5C33.8,57.6,31.4,59.8,28.7,59.8z M46.7,58.6
		c-0.6-0.1-1.1,0.3-1.3,0.9l-1.7,6.1l-6.3-8.1l0.4-0.4c1.2-1.2,2.5-2.3,4-3.2c1.6-0.8,3.2-1.5,5-1.9l0.7-0.2l6,7.7L46.7,58.6z"/>
	<path class="st0" d="M42.5,26.1c-0.4-0.6-1.2-1-1.9-1h-7.3l-2.3-7c-0.4-1.3-1.8-1.9-3-1.5c-0.7,0.2-1.3,0.8-1.5,1.5l-2.3,7h-7.3
		c-1.3,0-2.4,1.1-2.4,2.4c0,0.8,0.4,1.5,1,1.9l5.9,4.3l-2.3,7c-0.4,1.3,0.3,2.6,1.5,3c0.7,0.2,1.5,0.1,2.1-0.3l5.9-4.3l5.9,4.3
		c0.8,0.6,2,0.6,2.8,0c0.8-0.6,1.2-1.7,0.9-2.7l-2.3-7l5.9-4.3C43,28.6,43.2,27.2,42.5,26.1z M33.9,32.3c-0.4,0.3-0.6,0.8-0.4,1.3
		l2.5,7.8l-6.6-4.8c-0.4-0.3-1-0.3-1.4,0l-6.6,4.8l2.5-7.8c0.2-0.5,0-1-0.4-1.3l-6.6-4.8H25c0.5,0,1-0.3,1.1-0.8l2.5-7.8l2.5,7.8
		c0.2,0.5,0.6,0.8,1.1,0.8l8.2,0L33.9,32.3z"/>
	<path d="M50.2,31.1c0-11.9-9.6-21.5-21.5-21.5c-11.9,0-21.5,9.6-21.5,21.5s9.6,21.5,21.5,21.5S50.2,43,50.2,31.1z M28.7,50.2
		c-10.6,0-19.1-8.6-19.1-19.1S18.1,12,28.7,12c10.6,0,19.1,8.6,19.1,19.1C47.8,41.6,39.2,50.2,28.7,50.2z"/>
</g>
</svg>
