<!-- Generator: Adobe Illustrator 22.1.0, SVG Export Plug-In  -->
<svg version="1.1"
	 xmlns="http://www.w3.org/2000/svg" xmlns:xlink="http://www.w3.org/1999/xlink" xmlns:a="http://ns.adobe.com/AdobeSVGViewerExtensions/3.0/"
	 x="0px" y="0px" width="66.8px" height="58.1px" viewBox="0 0 66.8 58.1" style="enable-background:new 0 0 66.8 58.1;"
	 xml:space="preserve">
<style type="text/css">
	*{fill:#fff;}
</style>
<defs>
</defs>
<g>
	<path class="st0" d="M28.9,32.8c-0.9-0.3-1.8,0.1-2.1,1c-0.7,1.9-5.4,4-11.7,4c-6.1,0-10.7-2-11.6-3.9c-0.4-0.8-1.4-1.2-2.2-0.8
		c-0.8,0.4-1.2,1.4-0.8,2.2c1.6,3.5,7.5,5.8,14.7,5.8c3.4,0,6.7-0.6,9.3-1.6c2.9-1.1,4.8-2.7,5.5-4.6C30.2,34,29.8,33.1,28.9,32.8z"
		/>
	<path d="M28.9,49.8c-0.9-0.3-1.8,0.1-2.1,1c-0.7,1.9-5.4,4-11.7,4c-6.1,0-10.7-2-11.6-3.9c-0.4-0.8-1.4-1.2-2.2-0.8
		c-0.8,0.4-1.2,1.4-0.8,2.2c1.6,3.5,7.5,5.8,14.7,5.8c3.4,0,6.7-0.6,9.3-1.6c2.9-1.1,4.8-2.7,5.5-4.6C30.2,51,29.8,50.1,28.9,49.8z"
		/>
	<path d="M15.1,17C6.5,17,0,20.4,0,24.8s6.5,7.8,15.1,7.8s15.1-3.4,15.1-7.8S23.7,17,15.1,17z M15.1,29.3c-7.2,0-11.8-2.6-11.8-4.5
		s4.6-4.5,11.8-4.5s11.8,2.6,11.8,4.5S22.3,29.3,15.1,29.3z"/>
	<path d="M28.9,41.3c-0.9-0.3-1.8,0.1-2.1,1c-0.7,1.9-5.4,4-11.7,4c-6.1,0-10.7-2-11.6-3.9c-0.4-0.8-1.4-1.2-2.2-0.8
		C0.4,42,0.1,43,0.4,43.8c1.6,3.5,7.5,5.8,14.7,5.8c3.4,0,6.7-0.6,9.3-1.6c2.9-1.1,4.8-2.7,5.5-4.6C30.2,42.5,29.8,41.6,28.9,41.3z"
		/>
	<path d="M51.7,15.6c8.6,0,15.1-3.4,15.1-7.8c0-4.4-6.5-7.8-15.1-7.8c-8.6,0-15.1,3.4-15.1,7.8C36.6,12.2,43.1,15.6,51.7,15.6z
		 M51.7,3.4c7.2,0,11.8,2.6,11.8,4.5c0,1.8-4.6,4.5-11.8,4.5C44.5,12.3,40,9.6,40,7.8C40,6,44.5,3.4,51.7,3.4z"/>
	<path d="M65.6,24.3c-0.9-0.3-1.8,0.1-2.1,1c-0.7,1.9-5.4,4-11.7,4c-6.1,0-10.7-2-11.6-3.9c-0.4-0.8-1.4-1.2-2.2-0.8
		c-0.8,0.4-1.2,1.4-0.8,2.2c1.6,3.5,7.5,5.8,14.7,5.8c3.4,0,6.7-0.6,9.3-1.6c2.9-1.1,4.8-2.7,5.5-4.6C66.9,25.5,66.4,24.6,65.6,24.3
		z"/>
	<path d="M65.6,15.8c-0.9-0.3-1.8,0.1-2.1,1c-0.7,1.9-5.4,4-11.7,4c-6.1,0-10.7-2-11.6-3.9c-0.4-0.8-1.4-1.2-2.2-0.8
		c-0.8,0.4-1.2,1.4-0.8,2.2c1.6,3.5,7.5,5.8,14.7,5.8c3.4,0,6.7-0.6,9.3-1.6c2.9-1.1,4.8-2.7,5.5-4.6C66.9,17,66.4,16.1,65.6,15.8z"
		/>
	<path d="M65.6,49.8c-0.9-0.3-1.8,0.1-2.1,1c-0.7,1.9-5.4,4-11.7,4c-6.1,0-10.7-2-11.6-3.9c-0.4-0.8-1.4-1.2-2.2-0.8
		c-0.8,0.4-1.2,1.4-0.8,2.2c1.6,3.5,7.5,5.8,14.7,5.8c3.4,0,6.7-0.6,9.3-1.6c2.9-1.1,4.8-2.7,5.5-4.6C66.9,51,66.4,50.1,65.6,49.8z"
		/>
	<path d="M65.6,32.8c-0.9-0.3-1.8,0.1-2.1,1c-0.7,1.9-5.4,4-11.7,4c-6.1,0-10.7-2-11.6-3.9c-0.4-0.8-1.4-1.2-2.2-0.8
		c-0.8,0.4-1.2,1.4-0.8,2.2c1.6,3.5,7.5,5.8,14.7,5.8c3.4,0,6.7-0.6,9.3-1.6c2.9-1.1,4.8-2.7,5.5-4.6C66.9,34,66.4,33.1,65.6,32.8z"
		/>
	<path d="M65.6,41.3c-0.9-0.3-1.8,0.1-2.1,1c-0.7,1.9-5.4,4-11.7,4c-6.1,0-10.7-2-11.6-3.9c-0.4-0.8-1.4-1.2-2.2-0.8
		c-0.8,0.4-1.2,1.4-0.8,2.2c1.6,3.5,7.5,5.8,14.7,5.8c3.4,0,6.7-0.6,9.3-1.6c2.9-1.1,4.8-2.7,5.5-4.6C66.9,42.5,66.4,41.6,65.6,41.3
		z"/>
</g>
</svg>
