<!-- Generator: Adobe Illustrator 22.1.0, SVG Export Plug-In  -->
<svg version="1.1"
	 xmlns="http://www.w3.org/2000/svg" xmlns:xlink="http://www.w3.org/1999/xlink" xmlns:a="http://ns.adobe.com/AdobeSVGViewerExtensions/3.0/"
	 x="0px" y="0px" width="69.3px" height="67.1px" viewBox="0 0 69.3 67.1" style="enable-background:new 0 0 69.3 67.1;"
	 xml:space="preserve">
<style type="text/css">
    *{fill:#fff;}
</style>
<defs>
</defs>
<path d="M16.9,32.1c0.4,0,0.7-0.1,1-0.4c0.3-0.3,0.4-0.6,0.4-1c0-0.4-0.1-0.7-0.4-1c-0.3-0.3-0.6-0.4-1-0.4c-0.4,0-0.7,0.1-1,0.4
	c-0.3,0.3-0.4,0.6-0.4,1c0,0.4,0.1,0.7,0.4,1C16.2,31.9,16.6,32.1,16.9,32.1L16.9,32.1z M16.9,32.1"/>
<path d="M39.4,8.2c0.3,0.3,0.6,0.4,1,0.4c0.4,0,0.7-0.1,1-0.4c0.3-0.3,0.4-0.6,0.4-1c0-0.4-0.1-0.7-0.4-1c-0.3-0.3-0.6-0.4-1-0.4
	c-0.4,0-0.7,0.1-1,0.4c-0.3,0.3-0.4,0.6-0.4,1C39,7.6,39.1,7.9,39.4,8.2L39.4,8.2z M39.4,8.2"/>
<path d="M57.2,23.7c0.4,0,0.7-0.1,1-0.4c0.3-0.3,0.4-0.6,0.4-1c0-0.4-0.1-0.7-0.4-1c-0.3-0.3-0.6-0.4-1-0.4c-0.4,0-0.7,0.1-1,0.4
	c-0.3,0.3-0.4,0.6-0.4,1c0,0.4,0.1,0.7,0.4,1C56.5,23.5,56.9,23.7,57.2,23.7L57.2,23.7z M57.2,23.7"/>
<path d="M68.9,39.4L62,32.5V26c0-0.1,0-0.1,0-0.2c1.7-2.3,1.5-5.6-0.6-7.7l-16-16c0,0,0,0,0,0C44.1,0.8,42.2,0,40.3,0
	c-1.9,0-3.8,0.8-5.1,2.1L15.6,21.7c0,0-0.1,0.1-0.1,0.1c-4.2,0.7-7.5,4.3-7.5,8.7L3.4,50.3h2.8l3.4-14.6c1.6,2.4,4.3,3.9,7.4,3.9
	c3.1,0,5.8-1.6,7.4-3.9l3.4,14.6h2.8l-4.3-18.7l16-16L52.4,26c0,0,0,0,0,0.1v6.5l-6.9,6.9c-0.4,0.4-0.5,1.1-0.2,1.6l3.4,6.2
	c0.2,0.5,0.7,0.7,1.2,0.7c0.2,0,0.4-0.1,0.6-0.2c0.7-0.4,0.9-1.2,0.5-1.8l-2.9-5.3l6.2-6.2h5.7l6.2,6.2l-2.9,5.3
	c-0.4,0.7-0.1,1.5,0.5,1.8c0.2,0.1,0.4,0.2,0.6,0.2c0.5,0,0.9-0.3,1.2-0.7l3.4-6.2C69.4,40.5,69.3,39.8,68.9,39.4z M16.9,37
	c-3.5,0-6.3-2.8-6.3-6.3c0-3.5,2.8-6.3,6.3-6.3s6.3,2.8,6.3,6.3C23.2,34.2,20.4,37,16.9,37z M25.6,28.4c-0.8-3.1-3.3-5.6-6.5-6.4
	l14-14c0.2,1.6,0.9,3.1,2.1,4.4c1.2,1.2,2.7,1.9,4.4,2.1L25.6,28.4z M43.5,10.4c-0.9,0.9-2,1.3-3.2,1.3c-1.2,0-2.3-0.5-3.2-1.3
	c-1.8-1.8-1.8-4.6,0-6.4c0,0,0.1-0.1,0.1-0.1c0.8-0.8,1.9-1.2,3.1-1.2c1.2,0,2.4,0.5,3.2,1.3c0.9,0.9,1.3,2,1.3,3.2
	c0,1.1-0.4,2.2-1.2,3C43.6,10.3,43.6,10.4,43.5,10.4z M59.3,31.7h-4.2v-3.8c0.7,0.2,1.4,0.4,2.1,0.4c0.7,0,1.4-0.1,2.1-0.4V31.7z
	 M59.5,24.6c-0.6,0.6-1.4,1-2.3,1c-0.9,0-1.7-0.3-2.3-1L44.1,13.8l1.4-1.4c1.2-1.2,1.9-2.8,2.1-4.4l12,12
	C60.8,21.3,60.8,23.4,59.5,24.6z"/>
<path class="st0" d="M6.1,50.3H3.4l-0.1,0.2C1.4,51.2,0,53,0,55.1v10.7c0,0.7,0.6,1.3,1.3,1.4c0,0,0,0,0.1,0l31.2,0c0,0,0.1,0,0.1,0
	c0.7,0,1.3-0.6,1.3-1.4l0-1.4v-9.3c0-2.1-1.4-3.9-3.3-4.5l-0.1-0.2h-2.8H6.1z M31.2,55.1v9.3H2.7v-9.3c0-1.1,0.9-2,2-2h24.4
	C30.3,53,31.2,54,31.2,55.1z"/>
</svg>
