<svg id="block23_16" version="1.1" xmlns="http://www.w3.org/2000/svg" xmlns:xlink="http://www.w3.org/1999/xlink" xmlns:a="http://ns.adobe.com/AdobeSVGViewerExtensions/3.0/" x="0px" y="0px" width="49.1px" height="72.7px" viewBox="0 0 49.1 72.7" style="enable-background:new 0 0 49.1 72.7;" xml:space="preserve"><path fill="#ffffff" class="st0" d="M36.5,72.7c-0.1,0-0.1,0-0.2,0c-0.1,0-0.2,0-0.2-0.1c-0.1,0-0.2-0.1-0.2-0.1c-0.1,0-0.1-0.1-0.2-0.1L33,70.2      l-2.7,2.2c-0.1,0.1-0.1,0.1-0.2,0.1c-0.1,0-0.1,0.1-0.2,0.1c-0.1,0-0.2,0-0.2,0.1c-0.1,0-0.2,0-0.2,0c-0.1,0-0.1,0-0.1,0l-0.1,0      c-0.1,0-0.1,0-0.1,0L29,72.6l-0.1-0.1l-0.1-0.1l-0.1-0.1c-0.1-0.1-0.1-0.1-0.1-0.1l-0.1-0.1L28.3,72l0.2-0.2l-0.2,0.1l0.2-0.2      l-0.2,0.1l0.2-0.2l-0.2,0.1l0-0.1l0-0.1v-8c-1.8-1.5-2.8-3.6-2.8-5.9c0-4.2,3.4-7.7,7.7-7.7c4.2,0,7.7,3.4,7.7,7.7      c0,2.3-1,4.5-2.8,5.9l0,8l0,0.1l0,0.1l0,0.1l0,0.1L37.7,72l-0.1,0.1l-0.1,0.1c0,0-0.1,0.1-0.1,0.1l-0.1,0.1l-0.1,0.1L37,72.3      l0.1,0.2L37,72.6l-0.2,0l-0.1,0C36.6,72.7,36.6,72.7,36.5,72.7L36.5,72.7L36.5,72.7z M33.2,67.3l0.1,0l0.1,0l0.1,0.1l0.1,0.1      l0.1,0.1l1.4,1.1l0-3.8c-0.7,0.2-1.5,0.3-2.2,0.3c-0.8,0-1.5-0.1-2.2-0.3v3.8l1.4-1.1l0.3,0.1l-0.1-0.2l0.2,0.2l-0.1-0.2l0.1-0.1      l0.1,0l0.1,0l0.1,0l0.1,0L33.2,67.3z M33,52.4c-2.8,0-5,2.3-5,5s2.3,5,5,5s5-2.3,5-5S35.8,52.4,33,52.4z"></path><path fill="#ffffff" d="M9.8,49.6c-0.7,0-1.3-0.6-1.3-1.3S9,47,9.8,47h12.7c0.7,0,1.3,0.6,1.3,1.3s-0.6,1.3-1.3,1.3H9.8z"></path><path fill="#ffffff" d="M9.8,44c-0.7,0-1.3-0.6-1.3-1.3c0-0.7,0.6-1.3,1.3-1.3h29.6c0.7,0,1.3,0.6,1.3,1.3c0,0.7-0.6,1.3-1.3,1.3H9.8z"></path><path fill="#ffffff" d="M9.8,38.4c-0.7,0-1.3-0.6-1.3-1.3s0.6-1.3,1.3-1.3h29.6c0.7,0,1.3,0.6,1.3,1.3s-0.6,1.3-1.3,1.3H9.8z"></path><path fill="#ffffff" d="M9.8,32.7c-0.7,0-1.3-0.6-1.3-1.3c0-0.7,0.6-1.3,1.3-1.3h29.6c0.7,0,1.3,0.6,1.3,1.3c0,0.7-0.6,1.3-1.3,1.3H9.8z"></path><path fill="#ffffff" d="M40.8,66.5c-0.7,0-1.3-0.6-1.3-1.3c0-0.7,0.6-1.3,1.3-1.3h5.7V11.1h-7.2c-0.7,0-1.3-0.6-1.3-1.3V2.6H2.6v61.3h22.7      c0.7,0,1.3,0.6,1.3,1.3c0,0.7-0.6,1.3-1.3,1.3h-24C0.6,66.5,0,66,0,65.2V1.3C0,0.6,0.6,0,1.3,0h38.1c0,0,0.1,0,0.1,0l0.1,0l0.1,0      l0.1,0L40,0.1l0.1,0.1l0.1,0.1c0.1,0,0.1,0.1,0.1,0.1l8.5,8.5c0,0,0.1,0.1,0.1,0.1L48.9,9L49,9.1L49,9.3c0,0,0,0.1,0,0.1      c0,0,0,0.1,0,0.1l-0.2,0.2l0.2,0c0,0,0,0.1,0,0.1v55.5c0,0.7-0.6,1.3-1.3,1.3H40.8z M44.7,8.5l-4-4v4H44.7z"></path><path fill="#ffffff" d="M9.8,22.4c-0.4,0-0.7-0.2-1-0.4c-0.2-0.3-0.4-0.6-0.3-1l0.8-8.5c0.1-0.7,0.6-1.2,1.3-1.2h0.8v-0.8C11.4,8.6,13,7,14.8,7      c1.9,0,3.4,1.5,3.4,3.4v0.8h0.8c0.7,0,1.2,0.5,1.3,1.2l0.7,8.4c0,0,0,0.1,0,0.2c0,0.7-0.6,1.3-1.3,1.3H9.8z M18.4,19.7l-0.5-5.8      h-6.1l-0.6,5.8H18.4z M15.6,11.3v-0.8c0-0.4-0.4-0.8-0.8-0.8c-0.4,0-0.8,0.4-0.8,0.8v0.8H15.6z"></path></svg>