<svg fill="#ffffff" id="block23_17" version="1.1" xmlns="http://www.w3.org/2000/svg" xmlns:xlink="http://www.w3.org/1999/xlink" xmlns:a="http://ns.adobe.com/AdobeSVGViewerExtensions/3.0/" x="0px" y="0px" width="66.3px" height="66.3px" viewBox="0 0 66.3 66.3" style="enable-background:new 0 0 66.3 66.3;" xml:space="preserve"><path fill="#ffffff" d="M23,66.3c-0.3,0-0.7-0.1-0.9-0.4l-5.3-5.3H9.1c-5,0-9.1-4.1-9.1-9.1V31.6c0-5,4.1-9.1,9.1-9.1h13.1c0.7,0,1.3,0.6,1.3,1.3      s-0.6,1.3-1.3,1.3H9.1c-3.6,0-6.5,2.9-6.5,6.5v19.9c0,3.6,2.9,6.5,6.5,6.5h8.4c0.5,0,1,0.3,1.2,0.8l3.1,3.1l0-2.6      c0-0.7,0.6-1.3,1.3-1.3h14c3.6,0,6.5-2.9,6.5-6.5v-8.9c0-0.7,0.6-1.3,1.3-1.3c0.7,0,1.3,0.6,1.3,1.3v8.9c0,5-4.1,9.1-9.1,9.1H24.3      l0,4.4c0,0.5-0.3,1-0.8,1.2C23.4,66.2,23.2,66.3,23,66.3z"></path><path fill="#ffffff" d="M58,42.2c-0.3,0-0.7-0.1-0.9-0.4L52.2,37c-1.6,0.4-3.2,0.6-4.8,0.6h-3.3c-10.4,0-18.8-8.4-18.8-18.8S33.8,0,44.2,0h3.3      c10.4,0,18.8,8.4,18.8,18.8c0,3-0.7,5.9-2,8.5c-1.2,2.3-2.9,4.4-4.9,6.1v7.5c0,0.5-0.3,1-0.8,1.2C58.3,42.2,58.2,42.2,58,42.2z      M52.6,34.3c0.3,0,0.7,0.1,0.9,0.4l3.2,3.2v-5c0-0.4,0.2-0.8,0.5-1c4.1-3.1,6.5-7.8,6.5-13c0-8.9-7.3-16.2-16.2-16.2h-3.3      C35.2,2.6,28,9.9,28,18.8S35.2,35,44.2,35h3.3c1.6,0,3.2-0.2,4.8-0.7C52.4,34.3,52.5,34.3,52.6,34.3z"></path><path fill="#ffffff" class="st0" d="M46.2,24.2c-0.7,0-1.3-0.6-1.3-1.3v-3.1c0-1.2,0.8-2.1,1.9-2.4c1.4-0.3,2.3-1.6,2.2-3c-0.1-1.4-1.2-2.6-2.7-2.7      c-0.8-0.1-1.6,0.2-2.2,0.8c-0.6,0.6-0.9,1.3-0.9,2.1c0,0.7-0.6,1.3-1.3,1.3c-0.7,0-1.3-0.6-1.3-1.3c0-1.5,0.6-3,1.7-4      c1.1-1,2.6-1.6,4.1-1.5c2.7,0.2,4.9,2.4,5.1,5.1c0.2,2.7-1.6,5.1-4.2,5.7v3C47.5,23.6,46.9,24.2,46.2,24.2z"></path><path class="st0" d="M46.2,29.3c-0.3,0-0.7-0.1-0.9-0.4c-0.2-0.2-0.4-0.6-0.4-0.9c0-0.3,0.1-0.7,0.4-0.9c0.2-0.2,0.6-0.4,0.9-0.4      s0.7,0.1,0.9,0.4c0.2,0.2,0.4,0.6,0.4,0.9c0,0.3-0.1,0.7-0.4,0.9C46.9,29.2,46.5,29.3,46.2,29.3z"></path><path fill="#ffffff" d="M35.6,42.7H8.3c-0.7,0-1.3-0.6-1.3-1.3c0-0.7,0.6-1.3,1.3-1.3h27.3c0.7,0,1.3,0.6,1.3,1.3C36.9,42.1,36.3,42.7,35.6,42.7z"></path><path fill="#ffffff" d="M35.6,50c-0.3,0-0.7-0.1-0.9-0.4s-0.4-0.6-0.4-0.9c0-0.3,0.1-0.7,0.4-0.9c0.2-0.2,0.6-0.4,0.9-0.4s0.7,0.1,0.9,0.4      c0.2,0.2,0.4,0.6,0.4,0.9c0,0.3-0.1,0.7-0.4,0.9C36.3,49.8,35.9,50,35.6,50z"></path><path fill="#ffffff" d="M30.5,50H8.3C7.6,50,7,49.4,7,48.7c0-0.7,0.6-1.3,1.3-1.3h22.2c0.7,0,1.3,0.6,1.3,1.3C31.8,49.4,31.2,50,30.5,50z"></path><path fill="#ffffff" d="M27.2,35.5H8.3c-0.7,0-1.3-0.6-1.3-1.3c0-0.7,0.6-1.3,1.3-1.3h18.9c0.7,0,1.3,0.6,1.3,1.3C28.5,34.9,27.9,35.5,27.2,35.5z"></path></svg>