<svg fill="#ffffff" id="block23_18" version="1.1" xmlns="http://www.w3.org/2000/svg" xmlns:xlink="http://www.w3.org/1999/xlink" xmlns:a="http://ns.adobe.com/AdobeSVGViewerExtensions/3.0/" x="0px" y="0px" width="64.9px" height="64.9px" viewBox="0 0 64.9 64.9" style="enable-background:new 0 0 64.9 64.9;" xml:space="preserve"><g><path d="M25.3,35.9L2.7,42.3v-1.4l22.7-16.1v-3.3l-7,5v-5.7c0-0.7-0.6-1.3-1.3-1.3s-1.3,0.6-1.3,1.3v7.6L10.5,32v-7.3        c0-0.7-0.6-1.3-1.3-1.3S7.9,24,7.9,24.7v9.2l-7.3,5.2C0.2,39.4,0,39.8,0,40.2v3.9c0,0.7,0.6,1.3,1.3,1.3c0.1,0,0.2,0,0.4-0.1        l23.6-6.7L25.3,35.9z"></path><path d="M26.9,58.8l-8.6,2.9v-5.3l8-5.8L26,47.5l-9.8,7.1c-0.3,0.2-0.6,0.7-0.6,1.1v7.9c0,0.7,0.6,1.3,1.3,1.3c0.1,0,0.3,0,0.4-0.1        l9.7-3.3L26.9,58.8z"></path><path d="M64.3,39.1L57,33.9v-9.2c0-0.7-0.6-1.3-1.3-1.3c-0.7,0-1.3,0.6-1.3,1.3V32l-5.1-3.6v-7.6c0-0.7-0.6-1.3-1.3-1.3        s-1.3,0.6-1.3,1.3v5.7l-7-5v3.3l22.7,16.1v1.4l-22.7-6.4l0,2.8l23.6,6.7c0.1,0,0.2,0.1,0.4,0.1c0.7,0,1.3-0.6,1.3-1.3v-3.9        C64.9,39.8,64.7,39.4,64.3,39.1z"></path><path d="M48.7,54.6l-9.8-7.1l-0.2,3.1l8,5.8v5.3L38,58.8l-0.2,2.7l9.7,3.3c0.1,0,0.3,0.1,0.4,0.1c0.7,0,1.3-0.6,1.3-1.3v-7.9        C49.3,55.3,49.1,54.9,48.7,54.6z"></path></g><path class="st0" d="M39.6,24.8v-3.3V7.1c0-3.9-3.2-7.1-7.1-7.1c-3.9,0-7.1,3.2-7.1,7.1v14.4v3.3v11.1l0,2.8l0.7,8.9l0.2,3.1      l0.6,8.2l0.2,2.7l0.2,2.2c0.1,0.7,0.6,1.2,1.3,1.2h7.7c0.7,0,1.3-0.5,1.3-1.2l0.2-2.2l0.2-2.7l0.6-8.2l0.2-3.1l0.7-8.9l0-2.8V24.8z      M36.9,38.2l-1.8,24h-5.3c0,0-1.8-23.4-1.8-24.1v-31c0-2.5,2-4.5,4.5-4.5c2.5,0,4.5,2,4.5,4.5L36.9,38.2z"></path></svg>