<svg fill="#ffffff" id="block23_19" version="1.1" xmlns="http://www.w3.org/2000/svg" xmlns:xlink="http://www.w3.org/1999/xlink" x="0px" y="0px" viewBox="0 0 64 55.1" style="enable-background:new 0 0 64 55.1;" xml:space="preserve"><g><g><path class="st0" d="M62.9,17.6H33.1V1.1C33.1,0.5,32.6,0,32,0H1.1C0.5,0,0,0.5,0,1.1V54c0,0.6,0.5,1.1,1.1,1.1h61.8          c0.6,0,1.1-0.5,1.1-1.1V18.7C64,18.1,63.5,17.6,62.9,17.6L62.9,17.6z M61.8,35.3H33.1V19.9h28.7V35.3z M2.2,19.9h28.7v15.4H2.2          V19.9z M2.2,2.2h28.7v15.4H2.2V2.2z M2.2,37.5h28.7v15.4H2.2V37.5z M61.8,52.9H33.1V37.5h28.7V52.9z"></path></g><path class="st0" d="M19.9,38.6c-0.6,0-1.1,0.5-1.1,1.1v11c0,0.6,0.5,1.1,1.1,1.1s1.1-0.5,1.1-1.1v-11C21,39.1,20.5,38.6,19.9,38.6        L19.9,38.6z"></path><path class="st0" d="M26.5,38.6c-0.6,0-1.1,0.5-1.1,1.1v11c0,0.6,0.5,1.1,1.1,1.1s1.1-0.5,1.1-1.1v-11        C27.6,39.1,27.1,38.6,26.5,38.6L26.5,38.6z"></path><path class="st0" d="M6.6,38.6c-0.6,0-1.1,0.5-1.1,1.1v11c0,0.6,0.5,1.1,1.1,1.1s1.1-0.5,1.1-1.1v-11C7.7,39.1,7.2,38.6,6.6,38.6        L6.6,38.6z"></path><path class="st0" d="M13.2,38.6c-0.6,0-1.1,0.5-1.1,1.1v11c0,0.6,0.5,1.1,1.1,1.1s1.1-0.5,1.1-1.1v-11        C14.3,39.1,13.8,38.6,13.2,38.6L13.2,38.6z"></path><path class="st0" d="M50.7,51.8c0.6,0,1.1-0.5,1.1-1.1v-11c0-0.6-0.5-1.1-1.1-1.1s-1.1,0.5-1.1,1.1v11        C49.6,51.3,50.1,51.8,50.7,51.8L50.7,51.8z"></path><path class="st0" d="M57.3,51.8c0.6,0,1.1-0.5,1.1-1.1v-11c0-0.6-0.5-1.1-1.1-1.1s-1.1,0.5-1.1,1.1v11        C56.2,51.3,56.7,51.8,57.3,51.8L57.3,51.8z"></path><path class="st0" d="M37.5,51.8c0.6,0,1.1-0.5,1.1-1.1v-11c0-0.6-0.5-1.1-1.1-1.1s-1.1,0.5-1.1,1.1v11        C36.4,51.3,36.9,51.8,37.5,51.8L37.5,51.8z"></path><path class="st0" d="M44.1,51.8c0.6,0,1.1-0.5,1.1-1.1v-11c0-0.6-0.5-1.1-1.1-1.1S43,39.1,43,39.7v11C43,51.3,43.5,51.8,44.1,51.8        L44.1,51.8z"></path><path class="st0" d="M50.7,34.2c0.6,0,1.1-0.5,1.1-1.1v-11c0-0.6-0.5-1.1-1.1-1.1s-1.1,0.5-1.1,1.1v11        C49.6,33.7,50.1,34.2,50.7,34.2L50.7,34.2z"></path><path class="st0" d="M57.3,34.2c0.6,0,1.1-0.5,1.1-1.1v-11c0-0.6-0.5-1.1-1.1-1.1s-1.1,0.5-1.1,1.1v11        C56.2,33.7,56.7,34.2,57.3,34.2L57.3,34.2z"></path><path class="st0" d="M37.5,34.2c0.6,0,1.1-0.5,1.1-1.1v-11c0-0.6-0.5-1.1-1.1-1.1s-1.1,0.5-1.1,1.1v11        C36.4,33.7,36.9,34.2,37.5,34.2L37.5,34.2z"></path><path class="st0" d="M44.1,34.2c0.6,0,1.1-0.5,1.1-1.1v-11c0-0.6-0.5-1.1-1.1-1.1S43,21.4,43,22.1v11C43,33.7,43.5,34.2,44.1,34.2        L44.1,34.2z"></path><path class="st0" d="M19.9,21c-0.6,0-1.1,0.5-1.1,1.1v11c0,0.6,0.5,1.1,1.1,1.1s1.1-0.5,1.1-1.1v-11C21,21.4,20.5,21,19.9,21        L19.9,21z"></path><path class="st0" d="M26.5,21c-0.6,0-1.1,0.5-1.1,1.1v11c0,0.6,0.5,1.1,1.1,1.1s1.1-0.5,1.1-1.1v-11C27.6,21.4,27.1,21,26.5,21        L26.5,21z"></path><path class="st0" d="M6.6,21c-0.6,0-1.1,0.5-1.1,1.1v11c0,0.6,0.5,1.1,1.1,1.1s1.1-0.5,1.1-1.1v-11C7.7,21.4,7.2,21,6.6,21L6.6,21z        "></path><path class="st0" d="M13.2,21c-0.6,0-1.1,0.5-1.1,1.1v11c0,0.6,0.5,1.1,1.1,1.1s1.1-0.5,1.1-1.1v-11C14.3,21.4,13.8,21,13.2,21        L13.2,21z"></path><path class="st0" d="M19.9,3.3c-0.6,0-1.1,0.5-1.1,1.1v11c0,0.6,0.5,1.1,1.1,1.1S21,16,21,15.4v-11C21,3.8,20.5,3.3,19.9,3.3        L19.9,3.3z"></path><path class="st0" d="M26.5,3.3c-0.6,0-1.1,0.5-1.1,1.1v11c0,0.6,0.5,1.1,1.1,1.1s1.1-0.5,1.1-1.1v-11C27.6,3.8,27.1,3.3,26.5,3.3        L26.5,3.3z"></path><path class="st0" d="M6.6,3.3C6,3.3,5.5,3.8,5.5,4.4v11c0,0.6,0.5,1.1,1.1,1.1s1.1-0.5,1.1-1.1v-11C7.7,3.8,7.2,3.3,6.6,3.3        L6.6,3.3z"></path><path class="st0" d="M13.2,3.3c-0.6,0-1.1,0.5-1.1,1.1v11c0,0.6,0.5,1.1,1.1,1.1s1.1-0.5,1.1-1.1v-11C14.3,3.8,13.8,3.3,13.2,3.3        L13.2,3.3z"></path></g></svg>