<?xml version="1.0" encoding="UTF-8"?>
<svg width="386px" height="386px" viewBox="0 0 386 386" version="1.1" xmlns="http://www.w3.org/2000/svg" xmlns:xlink="http://www.w3.org/1999/xlink">
    <!-- Generator: Sketch 53.2 (72643) - https://sketchapp.com -->
    <title>3</title>
    <desc>Created with Sketch.</desc>
    <g id="3" stroke="none" stroke-width="1" fill="none" fill-rule="evenodd">
        <g id="sorpConsulting" transform="translate(16.000000, 14.000000)" fill="#BB2D41" fill-rule="nonzero">
            <path d="M359.712363,0.351023891 C359.712363,37.3176109 359.712363,74.2970648 359.712363,111.752594 C344.206301,111.752594 330.469041,111.752594 317.080377,111.752594 C314.743493,109.423686 312.768116,107.455051 309.85024,104.547133 C309.85024,84.371843 309.85024,63.205802 309.85024,40.7916724 C223.540479,40.7916724 138.147397,40.7916724 51.8118151,40.7916724 C51.8118151,63.3988055 51.8118151,86.4048123 51.8118151,111.302253 C42.9419863,111.636792 34.9113699,112.074266 26.8807534,112.228669 C18.6177397,112.383072 10.3418151,112.26727 0.335821918,112.26727 C0.335821918,74.2970648 0.335821918,37.3176109 0.335821918,0.351023891 C120.123699,0.351023891 239.911575,0.351023891 359.712363,0.351023891 Z" id="Path"></path>
            <path d="M0.826438356,352.196246 C0.826438356,314.882253 0.826438356,278.842082 0.826438356,241.888362 C15.0026712,241.888362 28.7786644,241.888362 43.355137,241.888362 C45.1755822,243.702594 47.8223288,246.340307 51.3986644,249.904437 C51.3986644,270.118328 51.3986644,291.284369 51.3986644,313.055154 C137.088699,313.055154 221.849144,313.055154 308.533322,313.055154 C308.533322,289.86901 308.533322,266.12959 308.533322,241.721092 C326.040582,241.721092 341.662842,241.721092 358.498733,241.721092 C358.498733,278.057201 358.498733,314.753584 358.498733,352.183379 C239.937397,352.196246 121.530993,352.196246 0.826438356,352.196246 Z" id="Path"></path>
            <path d="M239.756644,196.210887 C213.947637,196.210887 190.56589,196.210887 166.177089,196.210887 C147.766062,214.559078 128.838596,233.421945 109.924041,252.271945 C97.3616781,239.752457 85.457774,227.889181 73.515137,215.987304 C94.7278425,195.091468 115.927637,174.182765 138.353973,152.090307 C162.587842,152.090307 188.603425,152.090307 212.088459,152.090307 C230.744795,133.497645 247.813082,116.487611 264.532774,99.8249829 C276.746541,112.202935 287.10113,122.689454 298.733904,134.475529 C282.040034,156.786724 258.748664,174.079829 239.756644,196.210887 Z" id="Path"></path>
        </g>
    </g>
</svg>