<?xml version="1.0" encoding="UTF-8"?>
<svg width="386px" height="386px" viewBox="0 0 386 386" version="1.1" xmlns="http://www.w3.org/2000/svg" xmlns:xlink="http://www.w3.org/1999/xlink">
    <!-- Generator: Sketch 53.2 (72643) - https://sketchapp.com -->
    <title>4</title>
    <desc>Created with Sketch.</desc>
    <g id="4" stroke="none" stroke-width="1" fill="none" fill-rule="evenodd">
        <g id="sorpSupport" transform="translate(21.000000, 21.000000)" fill="#BB2D41" fill-rule="nonzero">
            <path d="M0.648156997,349.995918 C0.648156997,314.10398 0.648156997,278.212041 0.648156997,240.79415 C17.0148464,240.79415 31.2842321,240.79415 48.5387372,240.79415 C48.5387372,263.132041 48.5387372,284.097857 48.5387372,307.333367 C136.316689,307.333367 221.16099,307.333367 309.02901,307.333367 C309.02901,284.905714 309.02901,263.106395 309.02901,238.896327 C326.103379,238.896327 340.218362,238.896327 358.798157,238.896327 C358.798157,276.442449 358.798157,313.219184 358.798157,349.995918 C239.406246,349.995918 120.027201,349.995918 0.648156997,349.995918 Z" id="Path"></path>
            <path d="M4.03215017,0.0655442177 C122.716382,0.0655442177 239.020239,0.0655442177 357.562935,0.0655442177 C357.562935,35.6497279 357.562935,70.3619388 357.562935,107.266905 C343.53802,107.266905 329.1657,107.266905 310.959044,107.266905 C310.959044,85.9548639 310.959044,64.1940136 310.959044,40.7533333 C222.820819,40.7533333 138.478328,40.7533333 50.1728328,40.7533333 C50.1728328,63.9247279 50.1728328,86.557551 50.1728328,110.588095 C32.635256,110.588095 19.0478157,110.588095 4.03215017,110.588095 C4.03215017,73.067619 4.03215017,36.7396939 4.03215017,0.0655442177 Z" id="Path"></path>
            <path d="M178.095495,166.727755 C208.911706,166.727755 234.619761,166.727755 261.781775,166.727755 C261.781775,181.525646 261.781775,194.066667 261.781775,208.428571 C222.409078,208.428571 183.049249,208.428571 142.19686,208.428571 C142.19686,169.087211 142.19686,130.605 142.19686,90.2890816 C153.416792,90.2890816 164.122048,90.2890816 178.095495,90.2890816 C178.095495,113.678469 178.095495,138.068061 178.095495,166.727755 Z" id="Path"></path>
        </g>
    </g>
</svg>