<?xml version="1.0" encoding="UTF-8"?>
<svg width="386px" height="386px" viewBox="0 0 386 386" version="1.1" xmlns="http://www.w3.org/2000/svg" xmlns:xlink="http://www.w3.org/1999/xlink">
    <!-- Generator: Sketch 53.2 (72643) - https://sketchapp.com -->
    <title>1</title>
    <desc>Created with Sketch.</desc>
    <g id="1" stroke="none" stroke-width="1" fill="none" fill-rule="evenodd">
        <g id="sorpLicensing" transform="translate(17.000000, 21.000000)" fill="#BB2D41" fill-rule="nonzero">
            <path d="M0.927624113,348.978587 C0.927624113,313.19689 0.927624113,277.415194 0.927624113,240.088198 C17.2375532,240.088198 31.4619504,240.088198 48.6809574,240.088198 C48.6809574,262.335194 48.6809574,283.223392 48.6809574,306.402898 C136.233191,306.402898 220.830922,306.402898 308.463369,306.402898 C308.463369,284.049329 308.463369,262.308551 308.463369,238.183216 C325.481844,238.183216 339.545816,238.183216 358.101702,238.183216 C358.101702,275.630106 358.101702,312.304346 358.101702,348.978587 C239.03922,348.978587 119.976738,348.978587 0.927624113,348.978587 Z" id="Path"></path>
            <path d="M3.37411348,0.526678445 C122.490071,0.526678445 239.159539,0.526678445 357.486738,0.526678445 C357.486738,36.5881272 357.486738,71.2108481 357.486738,107.47212 C341.845248,107.47212 327.580745,107.47212 310.321631,107.47212 C310.321631,85.2118021 310.321631,64.2836396 310.321631,41.1174558 C222.568865,41.1174558 137.79734,41.1174558 50.0445745,41.1174558 C50.0445745,64.0571731 50.0445745,85.8512367 50.0445745,109.750106 C32.9993617,109.750106 18.9086525,109.750106 3.37411348,109.750106 C3.37411348,73.0225795 3.37411348,38.2000353 3.37411348,0.526678445 Z" id="Path"></path>
            <path d="M154.855922,200.736325 C190.216383,162.663322 224.574184,125.656042 261.525532,85.8645583 C274.372943,99.8255477 283.463723,109.710141 290.348652,117.196855 C242.835957,164.888021 196.23234,211.686643 149.976312,258.125583 C126.674504,233.986926 101.193582,207.583604 72.0629787,177.396961 C79.843617,172.241519 91.2605674,164.688198 105.685496,155.136643 C117.851099,166.42 134.348191,181.713145 154.855922,200.736325 Z" id="Path"></path>
        </g>
    </g>
</svg>