<?xml version="1.0" encoding="UTF-8"?>
<svg width="386px" height="386px" viewBox="0 0 386 386" version="1.1" xmlns="http://www.w3.org/2000/svg" xmlns:xlink="http://www.w3.org/1999/xlink">
    <!-- Generator: Sketch 53.2 (72643) - https://sketchapp.com -->
    <title>5</title>
    <desc>Created with Sketch.</desc>
    <g id="5" stroke="none" stroke-width="1" fill="none" fill-rule="evenodd">
        <g id="sorpSetup" transform="translate(20.000000, 13.000000)" fill="#BB2D41" fill-rule="nonzero">
            <path d="M359.527243,0.40047619 C359.527243,37.3271429 359.527243,74.2538095 359.527243,111.677619 C344.031434,111.677619 330.309743,111.677619 316.934559,111.677619 C314.606029,109.357619 312.624007,107.382857 309.713346,104.482857 C309.713346,84.3209524 309.713346,63.192381 309.713346,40.7933333 C223.488456,40.7933333 138.164485,40.7933333 51.911875,40.7933333 C51.911875,63.3719048 51.911875,86.3647619 51.911875,111.221905 C43.0551471,111.567143 35.0300368,111.995238 27.0049265,112.147143 C18.7441912,112.299048 10.4834559,112.174762 0.490183824,112.174762 C0.490183824,74.24 0.490183824,37.3133333 0.490183824,0.386666667 C120.159963,0.40047619 239.843603,0.40047619 359.527243,0.40047619 Z" id="Path"></path>
            <path d="M1.14161765,351.576667 C1.14161765,315.064286 1.14161765,279.062857 1.14161765,241.901429 C14.5583824,241.901429 28.2662132,241.901429 43.9283456,241.901429 C44.8569853,243.061429 47.1716544,245.947619 51.0109559,250.753333 C51.0109559,269.354762 51.0109559,290.483333 51.0109559,312.509524 C137.291287,312.509524 222.629118,312.509524 308.895588,312.509524 C308.895588,288.729524 308.895588,265.722857 308.895588,241.749524 C325.361618,241.749524 340.968309,241.749524 357.656103,241.749524 C357.254154,241.376667 358.058051,241.915238 358.570882,242.647143 C359.042132,243.337619 359.485662,244.221429 359.485662,245.03619 C359.527243,280.236667 359.527243,315.437143 359.527243,351.590476 C239.705,351.576667 120.755956,351.576667 1.14161765,351.576667 Z" id="Path"></path>
            <ellipse id="Oval" cx="183.044118" cy="172.619048" rx="58.2132353" ry="58"></ellipse>
        </g>
    </g>
</svg>