<?xml version="1.0" encoding="UTF-8"?>
<svg width="386px" height="386px" viewBox="0 0 386 386" version="1.1" xmlns="http://www.w3.org/2000/svg" xmlns:xlink="http://www.w3.org/1999/xlink">
    <!-- Generator: Sketch 53.2 (72643) - https://sketchapp.com -->
    <title>6</title>
    <desc>Created with Sketch.</desc>
    <g id="6" stroke="none" stroke-width="1" fill="none" fill-rule="evenodd">
        <g id="sorpCenter" transform="translate(15.000000, 21.000000)" fill="#BB2D41" fill-rule="nonzero">
            <path d="M345,-2.84217094e-14 C345,34.605325 345,69.21065 345,105.288287 C329.843473,105.288287 316.763018,105.288287 300.226443,105.288287 C299.146405,84.8195548 298.042367,64.0036917 296.830325,40.9973151 C214.327455,40.9973151 132.604612,40.9973151 47.9776688,40.9973151 C47.9776688,62.6151695 47.9776688,83.6345229 47.9776688,107 C31.5490974,107 17.940624,107 0,107 C0,70.9103927 0,35.4551963 0,-2.84217094e-14 C115,-2.84217094e-14 230,-2.84217094e-14 345,-2.84217094e-14 Z" id="Path"></path>
            <path d="M367,189 C303.561122,189 240.11022,189 175,189 C175,176.224555 175,165.866412 175,151 C238.727455,151 302.863727,151 367,151 C367,163.65458 367,176.321247 367,189 Z" id="Path"></path>
            <path d="M298.11616,298.51019 C298.11616,274.950634 298.11616,253.755435 298.11616,231 C313.948432,231 327.043965,231 342,231 C342,266.453351 342,300.898551 342,337 C228.485374,337 115.822979,337 1,337 C1,303.322917 1,269.75385 1,234.084466 C14.5276497,234.084466 28.3553803,234.084466 45.8561019,234.084466 C45.8561019,254.787591 45.8561019,275.826766 45.8561019,298.51019 C130.743004,298.51019 212.004928,298.51019 298.11616,298.51019 Z" id="Path"></path>
        </g>
    </g>
</svg>