<?xml version="1.0" encoding="UTF-8"?>
<svg width="386px" height="386px" viewBox="0 0 386 386" version="1.1" xmlns="http://www.w3.org/2000/svg" xmlns:xlink="http://www.w3.org/1999/xlink">
    <!-- Generator: Sketch 53.2 (72643) - https://sketchapp.com -->
    <title>2</title>
    <desc>Created with Sketch.</desc>
    <g id="2" stroke="none" stroke-width="1" fill="none" fill-rule="evenodd">
        <g id="sorpGroup" transform="translate(16.000000, 13.000000)" fill="#BB2D41" fill-rule="nonzero">
            <path d="M359.790588,0.331428571 C359.790588,37.2580952 359.790588,74.1847619 359.790588,111.608571 C344.294779,111.608571 330.573088,111.608571 317.197904,111.608571 C314.869375,109.288571 312.887353,107.31381 309.976691,104.41381 C309.976691,84.2519048 309.976691,63.1233333 309.976691,40.7242857 C223.751801,40.7242857 138.427831,40.7242857 52.1752206,40.7242857 C52.1752206,63.3028571 52.1752206,86.2957143 52.1752206,111.152857 C43.3184926,111.498095 35.2933824,111.92619 27.2682721,112.078095 C19.0075368,112.23 10.7468015,112.105714 0.753529412,112.105714 C0.753529412,74.1709524 0.753529412,37.2442857 0.753529412,0.317619048 C120.437169,0.331428571 240.106949,0.331428571 359.790588,0.331428571 Z" id="Path"></path>
            <path d="M0.753529412,352.474286 C0.753529412,314.36 0.753529412,279.035238 0.753529412,241.84619 C14.8910294,239.098095 29.3888971,241.790952 42.5700368,240.42381 C45.7301838,243.572381 47.6983456,245.533333 50.6228676,248.447143 C50.6228676,268.609048 50.6228676,289.737619 50.6228676,312.109048 C136.889338,312.109048 222.227169,312.109048 308.5075,312.109048 C308.5075,289.323333 308.5075,266.316667 308.5075,241.998095 C325.638824,241.998095 341.910809,241.998095 359.000551,241.998095 C359.000551,277.889048 359.000551,313.890476 359.000551,352.460476 C239.954485,352.474286 120.354007,352.474286 0.753529412,352.474286 Z" id="Path"></path>
            <path d="M180.105735,123.802381 C154.339449,155.74381 131.858051,183.625238 109.030147,211.934762 C74.3101103,211.934762 38.1208824,211.934762 1.36338235,211.934762 C1.36338235,197.448571 1.36338235,183.749524 1.36338235,169.028571 C30.2066544,169.028571 58.9113235,169.028571 88.1842647,169.028571 C118.233382,132.612857 148.019154,96.5147619 179.676066,58.1657143 C213.910993,93.6009524 240.203971,132.502381 271.847022,167.854762 C300.399228,167.854762 329.117757,167.854762 358.820368,167.854762 C358.820368,182.465238 358.820368,196.191905 358.820368,210.981905 C359.194596,210.622857 358.598603,211.382381 357.836287,211.865714 C357.129412,212.307619 356.228493,212.708095 355.396875,212.708095 C322.686581,212.749524 289.962426,212.749524 254.632537,212.749524 C231.444265,185.075238 207.17489,156.116667 180.105735,123.802381 Z" id="Path"></path>
        </g>
    </g>
</svg>