<svg width="32" height="32" viewBox="0 0 32 32" fill="none" xmlns="http://www.w3.org/2000/svg">
<path d="M27.4025 16.4375C27.4027 15.4778 27.7798 14.5565 28.4527 13.8721C29.1256 13.1878 30.0404 12.7951 31 12.7788V7.75H1V12.7788H1.0625C2.03319 12.7788 2.96413 13.1644 3.65051 13.8507C4.33689 14.5371 4.7225 15.4681 4.7225 16.4387C4.7225 17.4094 4.33689 18.3404 3.65051 19.0268C2.96413 19.7131 2.03319 20.0987 1.0625 20.0987H1V24.125H31V20.0963C30.0404 20.0799 29.1256 19.6872 28.4527 19.0029C27.7798 18.3185 27.4027 17.3972 27.4025 16.4375V16.4375Z" stroke="white" stroke-miterlimit="10"/>
<path d="M21.375 7.75V24.125" stroke="white" stroke-miterlimit="10" stroke-dasharray="12 12"/>
<path d="M16.9901 7.75C17.4067 8.61835 17.5974 9.57782 17.5444 10.5395C17.4915 11.5011 17.1966 12.4339 16.6872 13.2512C16.1777 14.0686 15.4701 14.7441 14.6301 15.2151C13.79 15.6862 12.8446 15.9375 11.8816 15.9459C10.9185 15.9543 9.96886 15.7194 9.12074 15.263C8.27262 14.8066 7.55344 14.1435 7.02986 13.3351C6.50628 12.5268 6.19524 11.5993 6.12558 10.6387C6.05592 9.67809 6.22989 8.71545 6.63136 7.84" stroke="white" stroke-miterlimit="10"/>
<path d="M15.9086 14.2715L9.26489 7.62646" stroke="white" stroke-miterlimit="10"/>
<path d="M14.2149 7.84033L7.78369 14.2716" stroke="white" stroke-miterlimit="10"/>
<path d="M17.5589 9.955C16.5932 10.1419 15.593 10.0169 14.703 9.5981C13.813 9.17927 13.0792 8.48828 12.6077 7.625" stroke="white" stroke-miterlimit="10"/>
<path d="M11.5651 15.9487C11.7098 15.2041 11.6695 14.4354 11.4477 13.71C11.2259 12.9847 10.8294 12.3249 10.293 11.7886C9.75659 11.2523 9.09669 10.8559 8.37127 10.6343C7.64586 10.4127 6.87711 10.3725 6.13257 10.5175" stroke="white" stroke-miterlimit="10"/>
<path d="M13.625 19.125H18" stroke="white" stroke-miterlimit="10"/>
<path d="M6.75 21.375H18" stroke="white" stroke-miterlimit="10"/>
</svg>
