<svg width="50" height="50" viewBox="0 0 50 50" fill="none" xmlns="http://www.w3.org/2000/svg">
<path d="M23.7687 14.5558C22.1901 14.5558 20.647 15.0239 19.3344 15.9009C18.0218 16.7779 16.9988 18.0245 16.3947 19.4829C15.7906 20.9413 15.6326 22.5462 15.9405 24.0944C16.2485 25.6427 17.0087 27.0649 18.1249 28.1811C19.2411 29.2973 20.6633 30.0575 22.2116 30.3655C23.7598 30.6735 25.3647 30.5154 26.8231 29.9113C28.2815 29.3072 29.5281 28.2842 30.4051 26.9716C31.2821 25.6591 31.7502 24.1159 31.7502 22.5373C31.7502 21.4892 31.5438 20.4513 31.1427 19.4829C30.7416 18.5146 30.1537 17.6347 29.4125 16.8935C28.6713 16.1524 27.7915 15.5645 26.8231 15.1633C25.8547 14.7622 24.8169 14.5558 23.7687 14.5558ZM23.7687 28.2981C22.624 28.2981 21.5051 27.9584 20.5537 27.322C19.6023 26.6856 18.8611 25.7811 18.4241 24.7232C17.987 23.6652 17.8738 22.5014 18.0987 21.3791C18.3236 20.2567 18.8766 19.2264 19.6875 18.4185C20.4984 17.6107 21.5309 17.0617 22.6541 16.841C23.7773 16.6204 24.9407 16.738 25.9969 17.1791C27.0532 17.6201 27.9548 18.3648 28.5876 19.3186C29.2204 20.2725 29.5558 21.3927 29.5515 22.5373C29.5456 24.0672 28.9338 25.5324 27.85 26.6121C26.7661 27.6919 25.2986 28.2981 23.7687 28.2981Z" fill="white"/>
<path d="M47.7792 17.3263C48.2886 17.3205 48.7751 17.1141 49.1332 16.7519C49.4914 16.3896 49.6922 15.9008 49.6922 15.3914V12.3571C49.6865 11.8515 49.4831 11.3683 49.1256 11.0108C48.7681 10.6532 48.2848 10.4499 47.7792 10.4442H47.5594V4.39754C47.5594 3.23124 47.0961 2.11271 46.2714 1.28801C45.4467 0.463311 44.3281 0 43.1618 0L4.39754 0C3.23124 0 2.11271 0.463311 1.28801 1.28801C0.463311 2.11271 0 3.23124 0 4.39754L0 40.6992C0 41.8655 0.463311 42.984 1.28801 43.8087C2.11271 44.6334 3.23124 45.0967 4.39754 45.0967H6.59631V48.1091C6.59631 48.6222 6.80016 49.1144 7.16303 49.4772C7.5259 49.8401 8.01805 50.044 8.53122 50.044H15.8531C16.3625 50.044 16.8514 49.8432 17.2136 49.485C17.5758 49.1269 17.7822 48.6404 17.788 48.131V45.0748H29.7933V48.0871C29.7933 48.6002 29.9972 49.0924 30.36 49.4553C30.7229 49.8181 31.2151 50.022 31.7282 50.022H39.0721C39.5815 50.022 40.0704 49.8212 40.4326 49.4631C40.7948 49.1049 41.0012 48.6184 41.007 48.1091V45.0748H43.2058C44.3721 45.0748 45.4906 44.6114 46.3153 43.7867C47.14 42.962 47.6033 41.8435 47.6033 40.6772V34.6306H47.8232C48.3326 34.6306 48.8215 34.4298 49.1837 34.0717C49.5459 33.7136 49.7523 33.227 49.7581 32.7177V29.6834C49.7524 29.1778 49.549 28.6946 49.1915 28.337C48.834 27.9795 48.3508 27.7762 47.8452 27.7704H47.6253V17.3263H47.7792ZM47.5154 29.9472V32.4318H38.4345V29.9472H47.5154ZM38.1706 27.7485C37.6613 27.7542 37.1747 27.9607 36.8166 28.3229C36.4585 28.6851 36.2577 29.174 36.2577 29.6834V32.7177C36.2577 33.2309 36.4616 33.723 36.8244 34.0859C37.1873 34.4487 37.6794 34.6526 38.1926 34.6526H39.5778V37.3791H8.02551V7.69569H39.5778V10.4442H38.2146C37.7052 10.4499 37.2187 10.6563 36.8606 11.0186C36.5025 11.3808 36.3016 11.8697 36.3017 12.3791V15.3914C36.3017 15.9046 36.5055 16.3967 36.8684 16.7596C37.2313 17.1224 37.7234 17.3263 38.2366 17.3263H39.5778V27.7485H38.1706ZM38.4565 15.1275V12.6429H47.4934V15.1275H38.4565ZM15.5673 47.8012H8.79507V45.0748H15.5673V47.8012ZM38.7863 47.8012H31.9701V45.0748H38.7643L38.7863 47.8012ZM45.3826 40.6992C45.3826 41.2824 45.1509 41.8416 44.7386 42.254C44.3262 42.6663 43.767 42.898 43.1838 42.898H4.39754C3.81439 42.898 3.25512 42.6663 2.84277 42.254C2.43042 41.8416 2.19877 41.2824 2.19877 40.6992V4.39754C2.19877 3.81439 2.43042 3.25512 2.84277 2.84277C3.25512 2.43042 3.81439 2.19877 4.39754 2.19877H43.1838C43.767 2.19877 44.3262 2.43042 44.7386 2.84277C45.1509 3.25512 45.3826 3.81439 45.3826 4.39754V10.4442H41.7766V6.59631C41.7766 6.30473 41.6608 6.0251 41.4546 5.81892C41.2484 5.61275 40.9688 5.49692 40.6772 5.49692H6.92612C6.63455 5.49692 6.35491 5.61275 6.14874 5.81892C5.94256 6.0251 5.82674 6.30473 5.82674 6.59631V38.4785C5.82674 38.77 5.94256 39.0497 6.14874 39.2558C6.35491 39.462 6.63455 39.5778 6.92612 39.5778H40.6332C40.9248 39.5778 41.2045 39.462 41.4106 39.2558C41.6168 39.0497 41.7326 38.77 41.7326 38.4785V34.6306H45.3606L45.3826 40.6992ZM45.3826 27.7485H41.7766V17.3263H45.4046L45.3826 27.7485Z" fill="white"/>
</svg>
