<svg width="59" height="59" viewBox="0 0 59 59" fill="none" xmlns="http://www.w3.org/2000/svg">
<path d="M4.1 58.3C1.8 58.3 0 56.5 0 54.2V4.1C0 1.8 1.8 0 4.1 0H54.2C56.5 0 58.3 1.8 58.3 4.1V54.2C58.3 56.5 56.5 58.3 54.2 58.3H4.1ZM2.6 54.2C2.6 55 3.3 55.7 4.1 55.7H54.2C55 55.7 55.7 55 55.7 54.2V4.1C55.7 3.3 55 2.6 54.2 2.6H4.1C3.3 2.6 2.6 3.3 2.6 4.1V13.6H6.7V8.7C6.7 7.6 7.6 6.8 8.6 6.8H49.5C50.6 6.8 51.4 7.7 51.4 8.7V49.6C51.4 50.7 50.5 51.5 49.5 51.5H8.7C7.6 51.5 6.8 50.6 6.8 49.6V44.7H2.6V54.2ZM9.2 49.1H49.1V9.2H9.2V13.6H10.7C11.4 13.6 12 14.2 12 14.9V20.4C12 21.1 11.4 21.7 10.7 21.7H9.2V36.6H10.7C11.4 36.6 12 37.2 12 37.9V43.4C12 44.1 11.4 44.7 10.7 44.7H9.2V49.1ZM2.6 42.1H9.4V39.2H2.6V42.1ZM2.6 36.6H6.7V21.7H2.6V36.6ZM2.6 19.1H9.4V16.2H2.6V19.1Z" fill="white"/>
<path d="M29.2 42.7C25.6 42.7 22.2 41.3 19.6 38.7C14.3 33.4 14.3 24.8 19.6 19.5C22.2 16.9 25.6 15.5 29.2 15.5C32.8 15.5 36.2 16.9 38.8 19.5C44.1 24.8 44.1 33.4 38.8 38.7C36.2 41.3 32.8 42.7 29.2 42.7ZM33.6 35.3C32.6 36 31.6 36.4 30.4 36.6H30.3V40.3H30.4C32.5 40.1 34.5 39.2 36.1 37.9L36.2 37.8L33.6 35.3ZM22.1 37.9C23.8 39.3 25.8 40.1 27.9 40.3H28V36.6H27.9C26.7 36.4 25.7 36 24.7 35.3H24.6L22.1 37.9ZM18 30.4C18.2 32.5 19.1 34.5 20.4 36.1L20.5 36.2L23.1 33.6V33.5C22.4 32.5 22 31.5 21.8 30.3V30.2L18 30.4ZM36.7 30.4C36.5 31.6 36.1 32.6 35.4 33.6V33.7L38 36.3L38.1 36.2C39.4 34.6 40.2 32.6 40.5 30.5V30.4H36.7ZM29.2 23.9C27.8 23.9 26.5 24.4 25.5 25.4C24.5 26.4 24 27.7 24 29.1C24 30.5 24.5 31.8 25.5 32.8C26.5 33.8 27.8 34.3 29.2 34.3C30.6 34.3 31.9 33.8 32.9 32.8C33.9 31.8 34.4 30.5 34.4 29.1C34.4 27.7 33.9 26.4 32.9 25.4C31.9 24.4 30.6 23.9 29.2 23.9ZM35.3 24.7C36 25.7 36.5 26.8 36.7 27.9V28H40.4V27.9C40.2 25.8 39.3 23.8 38 22.2L37.9 22.1L35.3 24.7ZM20.4 22.2C19.1 23.8 18.3 25.8 18 27.9V28H21.7V27.9C21.9 26.7 22.3 25.7 23 24.7V24.6L20.4 22.2ZM27.9 18C25.8 18.2 23.8 19.1 22.2 20.4L22.1 20.5L24.7 23.1H24.8C25.8 22.4 26.8 22 28 21.8H28.1L27.9 18ZM30.3 21.7C31.5 21.9 32.6 22.3 33.5 23H33.6L36.2 20.4L36.1 20.3C34.5 19 32.5 18.2 30.4 17.9H30.3V21.7Z" fill="white"/>
</svg>
