<svg width="28" height="30" viewBox="0 0 28 30" fill="none" xmlns="http://www.w3.org/2000/svg">
<g clip-path="url(#clip0)">
<path d="M27.5441 8.91132C27.5441 8.90255 27.5441 8.89378 27.5354 8.89378C27.5354 8.87623 27.5266 8.86746 27.5266 8.84992C27.5266 8.84115 27.5178 8.8236 27.5178 8.81483C27.5178 8.80606 27.509 8.79729 27.509 8.78851C27.4915 8.74465 27.474 8.70957 27.4476 8.67448L21.7459 0.297286C21.6231 0.113076 21.4213 0.0078125 21.202 0.0078125H15.6231H12.2985H6.71957C6.50027 0.0078125 6.29852 0.113076 6.17571 0.297286L0.47396 8.67448C0.447644 8.70957 0.4301 8.75343 0.412556 8.78851C0.412556 8.79729 0.403784 8.80606 0.403784 8.81483C0.395012 8.8236 0.395012 8.84115 0.395012 8.84992C0.395012 8.86746 0.38624 8.87623 0.38624 8.89378C0.38624 8.90255 0.38624 8.91132 0.377468 8.91132C0.368696 8.95518 0.359924 8.99904 0.359924 9.0429V29.3324C0.359924 29.692 0.65817 29.9903 1.01782 29.9903H26.9038C27.2634 29.9903 27.5617 29.692 27.5617 29.3324V9.0429C27.5529 8.99904 27.5529 8.95518 27.5441 8.91132ZM25.6494 8.38501H17.1494L16.3512 1.3236H20.8424L25.6494 8.38501ZM12.0003 9.7008H15.9038V14.5254L14.3336 13.4201C14.2196 13.3411 14.088 13.2973 13.9564 13.2973C13.8248 13.2973 13.6933 13.3411 13.5792 13.4201L12.009 14.5254V9.7008H12.0003ZM15.0266 1.3236L15.8248 8.38501H12.0792L12.8775 1.3236H15.0266ZM7.07045 1.3236H11.5617L10.7634 8.38501H2.26343L7.07045 1.3236ZM26.2371 28.6745H1.67571V9.7008H10.6933V15.7885C10.6933 16.0341 10.8336 16.2622 11.0441 16.3762C11.2634 16.4903 11.5266 16.4727 11.7283 16.3324L13.9564 14.7622L16.1845 16.3324C16.2985 16.4113 16.4301 16.4552 16.5617 16.4552C16.6669 16.4552 16.7722 16.4289 16.8687 16.385C17.088 16.271 17.2196 16.0429 17.2196 15.7973V9.70957H26.2371V28.6745Z" fill="white"/>
<path d="M9.13187 21.5254H4.46521C4.10556 21.5254 3.80731 21.8236 3.80731 22.1833C3.80731 22.5429 4.10556 22.8412 4.46521 22.8412H9.13187C9.49152 22.8412 9.78977 22.5429 9.78977 22.1833C9.78977 21.8236 9.49152 21.5254 9.13187 21.5254Z" fill="white"/>
<path d="M6.79854 24.2886H4.46521C4.10556 24.2886 3.80731 24.5868 3.80731 24.9465C3.80731 25.3061 4.10556 25.6044 4.46521 25.6044H6.79854C7.15819 25.6044 7.45643 25.3061 7.45643 24.9465C7.45643 24.5868 7.15819 24.2886 6.79854 24.2886Z" fill="white"/>
</g>
<defs>
<clipPath id="clip0">
<rect width="27.2807" height="30" fill="white" transform="translate(0.359924 -0.000976562)"/>
</clipPath>
</defs>
</svg>
