<svg width="33" height="33" viewBox="0 0 33 33" fill="none" xmlns="http://www.w3.org/2000/svg">
<path d="M32.561 14.7485C32.561 13.4079 31.956 12.1516 30.925 11.3154C30.9699 11.1013 30.9921 10.8957 30.9921 10.6933C30.9921 9.02339 29.7573 7.63651 28.1531 7.39764C28.1899 7.20582 28.2074 7.01764 28.2074 6.8302C28.2074 5.05238 26.8063 3.59985 25.0511 3.50759C25.0223 3.50285 24.9931 3.49884 24.9629 3.49884C24.9483 3.49884 24.9341 3.50066 24.9191 3.50103C24.9045 3.50066 24.8903 3.49884 24.8754 3.49884C24.7083 3.49884 24.5402 3.51379 24.3626 3.54479C24.0541 1.9092 22.6293 0.691162 20.9211 0.691162C18.9843 0.691162 17.4085 2.26695 17.4085 4.20413V28.2432C17.4085 30.6949 19.403 32.689 21.8543 32.689C23.4808 32.689 24.957 31.809 25.7367 30.4112C25.9114 30.4491 26.0792 30.4724 26.2476 30.4834C27.3063 30.5508 28.3373 30.204 29.1381 29.5013C29.9389 28.7986 30.4181 27.826 30.4874 26.7625C30.5162 26.3195 30.4666 25.8749 30.3405 25.4358C31.7248 24.4545 32.5384 22.9006 32.5384 21.1979C32.5384 19.9634 32.0938 18.7782 31.2821 17.8341C32.0989 17.007 32.561 15.9005 32.561 14.7485ZM31.4451 21.1986C31.4451 22.4692 30.8682 23.6347 29.8788 24.4147C29.1465 23.2492 27.8475 22.5049 26.4409 22.5049C26.139 22.5049 25.8939 22.75 25.8939 23.0519C25.8939 23.3539 26.139 23.5989 26.4409 23.5989C27.6593 23.5989 28.769 24.3622 29.2059 25.4982C29.3555 25.895 29.4218 26.2965 29.3959 26.6922C29.3456 27.4638 28.9981 28.1695 28.4168 28.6793C27.8355 29.1895 27.089 29.443 26.3191 29.3919C26.1025 29.3777 25.8786 29.331 25.6142 29.2453C25.3443 29.157 25.0522 29.2905 24.941 29.5516C24.414 30.793 23.2022 31.5953 21.854 31.5953C20.0058 31.5953 18.5022 30.0917 18.5022 28.2435V4.2045C18.5022 2.87086 19.5871 1.78557 20.9208 1.78557C22.1599 1.78557 23.1796 2.71988 23.3123 3.9401C22.3091 4.51484 21.6304 5.59393 21.6304 6.83056C21.6304 7.13288 21.8755 7.37758 22.1775 7.37758C22.4794 7.37758 22.7245 7.13288 22.7245 6.83056C22.7245 5.61143 23.7051 4.61877 24.9184 4.59507C26.1317 4.61877 27.1123 5.61143 27.1123 6.8302C27.1123 7.05703 27.0696 7.29188 26.9814 7.54898C26.9606 7.60952 26.9508 7.67297 26.9518 7.73679C26.9522 7.75174 26.9529 7.7656 26.9544 7.77873C26.9522 7.78639 26.9508 7.79149 26.9508 7.79149C26.9077 7.96107 26.9486 8.14122 27.0605 8.27579C27.1725 8.41036 27.3395 8.48329 27.5167 8.47199C27.5547 8.46944 27.5926 8.46469 27.6597 8.45521C28.8934 8.45521 29.8974 9.45918 29.8974 10.6929C29.8974 10.9015 29.8598 11.1156 29.7799 11.3672C29.7059 11.5988 29.7938 11.8515 29.9955 11.9871C30.8831 12.5849 31.421 13.5658 31.4593 14.6282L31.4589 14.6325C31.4589 16.4669 29.9667 17.9595 28.1323 17.9595C26.298 17.9595 24.8053 16.4669 24.8053 14.6325C24.8053 14.3302 24.5603 14.0855 24.2583 14.0855C23.9564 14.0855 23.7113 14.3302 23.7113 14.6325C23.7113 17.0704 25.6944 19.0536 28.1323 19.0536C28.9448 19.0536 29.7041 18.8293 30.3591 18.4453C31.0592 19.2075 31.4451 20.1822 31.4451 21.1986Z" fill="white"/>
<path d="M12.2049 0.692139C10.4967 0.692139 9.07229 1.91017 8.76414 3.54576C8.58617 3.51477 8.41805 3.49982 8.25103 3.49982C8.23644 3.49982 8.22222 3.50164 8.20727 3.502C8.19268 3.50164 8.17846 3.49982 8.16351 3.49982C8.13324 3.49982 8.10406 3.50383 8.07525 3.50857C6.32005 3.60083 4.91931 5.05335 4.91931 6.83117C4.91931 7.01862 4.93718 7.20679 4.97365 7.39862C3.36941 7.63748 2.13461 9.02436 2.13461 10.6942C2.13461 10.8963 2.15685 11.1019 2.20171 11.3164C1.17076 12.1526 0.56575 13.4089 0.56575 14.7495C0.56575 15.9015 1.02744 17.008 1.84396 17.8358C1.03181 18.7799 0.587266 19.9651 0.587266 21.1996C0.587266 22.9023 1.40087 24.4558 2.7852 25.4375C2.65865 25.8766 2.60942 26.3212 2.63859 26.7646C2.70788 27.8277 3.18671 28.8003 3.98755 29.503C4.78839 30.2061 5.81642 30.5529 6.87801 30.4851C7.04394 30.4741 7.21315 30.4501 7.38856 30.4125C8.16825 31.8107 9.64447 32.6907 11.271 32.6907C13.7223 32.6907 15.7168 30.6962 15.7168 28.2449V4.20511C15.7175 2.26792 14.1417 0.692139 12.2049 0.692139ZM14.6235 28.2441C14.6235 30.0923 13.1199 31.5959 11.2717 31.5959C9.92346 31.5959 8.71162 30.7936 8.18502 29.5522C8.09713 29.3455 7.89583 29.2189 7.6814 29.2189C7.62524 29.2189 7.56798 29.2273 7.51182 29.2459C7.24779 29.3316 7.02388 29.3783 6.80689 29.3925C6.03414 29.4432 5.29055 29.1897 4.70962 28.6799C4.12831 28.1701 3.78077 27.4644 3.73045 26.6928C3.70273 26.2697 3.77603 25.8409 3.94853 25.4182C3.95108 25.412 3.95035 25.4051 3.95254 25.3989C4.44194 24.2844 5.49331 23.5926 6.72302 23.5926C7.02534 23.5926 7.27004 23.3476 7.27004 23.0456C7.27004 22.7436 7.02534 22.4986 6.72302 22.4986C5.28691 22.4986 3.98755 23.2305 3.24105 24.4091C2.25604 23.6291 1.68131 22.4665 1.68131 21.1992C1.68131 20.1829 2.06787 19.2081 2.76733 18.4463C3.42229 18.8303 4.18192 19.0545 4.99443 19.0545C7.43232 19.0545 9.41546 17.0714 9.41546 14.6335C9.41546 14.3312 9.17075 14.0865 8.86843 14.0865C8.56611 14.0865 8.32141 14.3312 8.32141 14.6335C8.32141 16.4679 6.82914 17.9605 4.99443 17.9605C3.15972 17.9605 1.66745 16.4679 1.66745 14.6335C1.66745 14.6328 1.66709 14.6321 1.66709 14.6313C1.70465 13.5683 2.24255 12.5866 3.13055 11.9881C3.33222 11.8525 3.41974 11.6001 3.34608 11.3685C3.26585 11.1165 3.22865 10.9025 3.22865 10.6939C3.22865 9.46271 4.22824 8.4602 5.48784 8.4602C5.4904 8.4602 5.49331 8.4602 5.49587 8.4602C5.53343 8.46531 5.57099 8.47005 5.60928 8.4726C5.78615 8.48354 5.955 8.41024 6.06659 8.27494C6.17855 8.13928 6.21867 7.9584 6.17381 7.78846C6.17381 7.78809 6.17271 7.78335 6.17089 7.77716C6.17199 7.76439 6.17308 7.75272 6.17344 7.74251C6.17527 7.67687 6.16542 7.61159 6.14391 7.54959C6.05565 7.29177 6.01299 7.05655 6.01299 6.83044C6.01299 5.61168 6.99325 4.61866 8.2069 4.59532C9.42056 4.61902 10.4008 5.61168 10.4008 6.83081C10.4008 7.13313 10.6455 7.37783 10.9478 7.37783C11.2502 7.37783 11.4949 7.13313 11.4949 6.83081C11.4949 5.59418 10.8162 4.51509 9.81296 3.94035C9.9457 2.72013 10.9653 1.78582 12.2045 1.78582C13.5382 1.78582 14.6231 2.87111 14.6231 4.20474V28.2441H14.6235Z" fill="white"/>
</svg>
