<svg width="32" height="25" viewBox="0 0 32 25" fill="none" xmlns="http://www.w3.org/2000/svg">
<path d="M6 0.5V1H7.9995V0.5C8.00064 0.373115 8.04993 0.251399 8.1374 0.159476C8.22487 0.0675523 8.34399 0.012284 8.47066 0.00485134C8.59733 -0.00258127 8.7221 0.038377 8.81972 0.11944C8.91734 0.200503 8.98053 0.315619 8.9965 0.4415L9 0.5V1C9.12744 1.00014 9.25002 1.04894 9.34268 1.13642C9.43535 1.22391 9.49112 1.34348 9.49859 1.4707C9.50605 1.59792 9.46466 1.72319 9.38287 1.82092C9.30107 1.91864 9.18505 1.98145 9.0585 1.9965L8.9995 2L9 3C9 6.866 12.134 10 16 10C19.8135 10 22.915 6.95 22.9985 3.157L23 3L22.9995 2C22.8772 1.99988 22.7592 1.95493 22.6678 1.87366C22.5764 1.7924 22.5179 1.68045 22.5035 1.559L22.5 1.4995C22.5001 1.3772 22.5451 1.25918 22.6263 1.16778C22.7076 1.07638 22.8195 1.01793 22.941 1.0035L23 1V0.5C23.0011 0.373115 23.0504 0.251399 23.1379 0.159476C23.2254 0.0675523 23.3445 0.012284 23.4712 0.00485134C23.5978 -0.00258127 23.7226 0.038377 23.8202 0.11944C23.9178 0.200503 23.981 0.315619 23.997 0.4415L24 0.5V1H26V0.5C26.0011 0.373115 26.0504 0.251399 26.1379 0.159476C26.2254 0.0675523 26.3445 0.012284 26.4712 0.00485134C26.5978 -0.00258127 26.7226 0.038377 26.8202 0.11944C26.9178 0.200503 26.981 0.315619 26.997 0.4415L27 0.5V1C27.1274 1.00014 27.25 1.04894 27.3427 1.13642C27.4354 1.22391 27.4911 1.34348 27.4986 1.4707C27.5061 1.59792 27.4647 1.72319 27.3829 1.82092C27.3011 1.91864 27.185 1.98145 27.0585 1.9965L26.9995 2V6.197C27.4109 7.26122 28.0591 8.21787 28.8949 8.99449C29.7308 9.7711 30.7325 10.3473 31.824 10.6795L31.9995 10.73L32 11.7635C29.9672 11.2703 28.1872 10.0457 27 8.3235V16.5H32V17.5H27V21.5H27.5C27.6326 21.5 27.7598 21.5527 27.8536 21.6464C27.9473 21.7402 28 21.8674 28 22V23C28 23.1326 27.9473 23.2598 27.8536 23.3536C27.7598 23.4473 27.6326 23.5 27.5 23.5C27.3674 23.5 27.2402 23.4473 27.1464 23.3536C27.0527 23.2598 27 23.1326 27 23V22.5H22.5L22.4995 24H31.5C31.6326 24 31.7598 24.0527 31.8536 24.1464C31.9473 24.2402 32 24.3674 32 24.5C32 24.6326 31.9473 24.7598 31.8536 24.8536C31.7598 24.9473 31.6326 25 31.5 25H0.5C0.367392 25 0.240215 24.9473 0.146447 24.8536C0.0526784 24.7598 0 24.6326 0 24.5C0 24.3674 0.0526784 24.2402 0.146447 24.1464C0.240215 24.0527 0.367392 24 0.5 24H3.9995V22C3.9995 21.9343 4.01245 21.8692 4.03761 21.8085C4.06277 21.7478 4.09964 21.6927 4.14612 21.6463C4.19261 21.5998 4.24778 21.563 4.3085 21.5379C4.36923 21.5128 4.4343 21.4999 4.5 21.5H5V17.5H0V16.5H7C7.13261 16.5 7.25979 16.5527 7.35355 16.6464C7.44732 16.7402 7.5 16.8674 7.5 17C7.5 17.1326 7.44732 17.2598 7.35355 17.3536C7.25979 17.4473 7.13261 17.5 7 17.5H6V21.5H8.5V9.5C8.5 9.36739 8.55268 9.24021 8.64645 9.14645C8.74021 9.05268 8.86739 9 9 9C9.13261 9 9.25979 9.05268 9.35355 9.14645C9.44732 9.24021 9.5 9.36739 9.5 9.5V16.5H12V12C12 11.8674 12.0527 11.7402 12.1464 11.6464C12.2402 11.5527 12.3674 11.5 12.5 11.5C12.6326 11.5 12.7598 11.5527 12.8536 11.6464C12.9473 11.7402 13 11.8674 13 12V16.5H15.5V13C15.5 12.8674 15.5527 12.7402 15.6464 12.6464C15.7402 12.5527 15.8674 12.5 16 12.5C16.1326 12.5 16.2598 12.5527 16.3536 12.6464C16.4473 12.7402 16.5 12.8674 16.5 13V16.5H19V12C19 11.8674 19.0527 11.7402 19.1464 11.6464C19.2402 11.5527 19.3674 11.5 19.5 11.5C19.6326 11.5 19.7598 11.5527 19.8536 11.6464C19.9473 11.7402 20 11.8674 20 12V16.5H24.5C24.6326 16.5 24.7598 16.5527 24.8536 16.6464C24.9473 16.7402 25 16.8674 25 17C25 17.1326 24.9473 17.2598 24.8536 17.3536C24.7598 17.4473 24.6326 17.5 24.5 17.5H23.5V21.5H26V4H23.938C23.446 7.947 20.08 11 16 11C11.9205 11 8.554 7.9465 8.062 4H6V15.5C5.99986 15.6274 5.95106 15.75 5.86358 15.8427C5.77609 15.9354 5.65652 15.9911 5.5293 15.9986C5.40208 16.0061 5.27681 15.9647 5.17908 15.8829C5.08136 15.8011 5.01855 15.685 5.0035 15.5585L5 15.5L5.0005 8.3225C3.81343 10.0451 2.03346 11.2701 0.0005 11.7635V10.73C1.12953 10.4164 2.16961 9.84313 3.03774 9.05609C3.90587 8.26904 4.578 7.28997 5.0005 6.197L5 2C4.87256 1.99986 4.74998 1.95106 4.65732 1.86358C4.56465 1.77609 4.50888 1.65652 4.50141 1.5293C4.49395 1.40208 4.53534 1.27681 4.61713 1.17908C4.69893 1.08136 4.81495 1.01855 4.9415 1.0035L5 1V0.5C5 0.367392 5.05268 0.240215 5.14645 0.146447C5.24021 0.0526785 5.36739 0 5.5 0C5.63261 0 5.75979 0.0526785 5.85355 0.146447C5.94732 0.240215 6 0.367392 6 0.5ZM22.5 17.5H9.5V21.5H10C10.1326 21.5 10.2598 21.5527 10.3536 21.6464C10.4473 21.7402 10.5 21.8674 10.5 22V23C10.5 23.1326 10.4473 23.2598 10.3536 23.3536C10.2598 23.4473 10.1326 23.5 10 23.5C9.86739 23.5 9.74021 23.4473 9.64645 23.3536C9.55268 23.2598 9.5 23.1326 9.5 23L9.4995 22.5H5L4.9995 24H21.4995V22C21.4995 21.9343 21.5124 21.8692 21.5376 21.8085C21.5628 21.7478 21.5996 21.6927 21.6461 21.6463C21.6926 21.5998 21.7478 21.563 21.8085 21.5379C21.8692 21.5128 21.9343 21.4999 22 21.5H22.5V17.5ZM23.5 9.5V15.5C23.5 15.6326 23.4473 15.7598 23.3536 15.8536C23.2598 15.9473 23.1326 16 23 16C22.8674 16 22.7402 15.9473 22.6464 15.8536C22.5527 15.7598 22.5 15.6326 22.5 15.5V9.5C22.5 9.36739 22.5527 9.24021 22.6464 9.14645C22.7402 9.05268 22.8674 9 23 9C23.1326 9 23.2598 9.05268 23.3536 9.14645C23.4473 9.24021 23.5 9.36739 23.5 9.5ZM7.9995 2H6V3H8L7.9995 2ZM25.9995 2H23.9995L24 3H25.9995V2Z" fill="white"/>
</svg>
