<svg width="30" height="29" viewBox="0 0 30 29" fill="none" xmlns="http://www.w3.org/2000/svg">
<path d="M29.4303 22.9262H28.2453C28.4011 22.6314 28.4832 22.3029 28.4846 21.9691V12.7355C28.7309 12.2368 28.8596 11.6876 28.8606 11.1307V7.45102C28.8606 7.09684 28.7208 6.75716 28.4718 6.50671C28.2229 6.25627 27.8853 6.11557 27.5332 6.11557H23.5454V5.54241C23.5439 4.07294 22.963 2.66409 21.9302 1.62501C20.8974 0.585936 19.4971 0.00151727 18.0365 0H11.9635C10.5029 0.00151727 9.1026 0.585936 8.06981 1.62501C7.03701 2.66409 6.45612 4.07294 6.45461 5.54241V6.11557H2.46677C2.11472 6.11557 1.7771 6.25627 1.52817 6.50671C1.27923 6.75716 1.13938 7.09684 1.13938 7.45102V11.1307C1.13955 11.6895 1.26824 12.2408 1.51538 12.7412V21.9691C1.51677 22.3029 1.59889 22.6314 1.75465 22.9262H0.569692C0.4186 22.9262 0.273697 22.9866 0.166859 23.0941C0.060021 23.2016 0 23.3474 0 23.4994C0 23.6514 0.060021 23.7972 0.166859 23.9047C0.273697 24.0121 0.4186 24.0725 0.569692 24.0725H11.5078L11.4394 25.0469C11.4341 25.1308 11.4471 25.2148 11.4776 25.2931C11.5081 25.3713 11.5554 25.4419 11.616 25.4997L14.6012 28.4113C14.7077 28.5163 14.8509 28.5752 15 28.5752C15.1491 28.5752 15.2923 28.5163 15.3988 28.4113L18.384 25.4997C18.4446 25.4419 18.4919 25.3713 18.5224 25.2931C18.5529 25.2148 18.5659 25.1308 18.5606 25.0469L18.4922 24.0725H29.4303C29.5814 24.0725 29.7263 24.0121 29.8331 23.9047C29.94 23.7972 30 23.6514 30 23.4994C30 23.3474 29.94 23.2016 29.8331 23.0941C29.7263 22.9866 29.5814 22.9262 29.4303 22.9262ZM7.594 5.54241C7.59551 4.37696 8.05635 3.25968 8.87547 2.43557C9.69459 1.61147 10.8051 1.14783 11.9635 1.14631H18.0365C19.1949 1.14783 20.3054 1.61147 21.1245 2.43557C21.9436 3.25968 22.4045 4.37696 22.406 5.54241V6.11557H21.2666V5.54241C21.2666 4.68052 20.9263 3.85392 20.3205 3.24446C19.7148 2.63501 18.8932 2.29262 18.0365 2.29262H11.9635C11.1068 2.29262 10.2852 2.63501 9.67947 3.24446C9.0737 3.85392 8.73338 4.68052 8.73338 5.54241V6.11557H7.594V5.54241ZM20.1272 5.54241V6.11557H19.0334C18.9685 5.94018 18.874 5.77733 18.7543 5.63412C18.5943 5.44433 18.3954 5.29173 18.1711 5.18684C17.9469 5.08194 17.7027 5.02727 17.4554 5.02657H12.5446C12.2973 5.02727 12.0531 5.08194 11.8289 5.18684C11.6046 5.29173 11.4056 5.44433 11.2457 5.63412C11.1259 5.77733 11.0315 5.94018 10.9666 6.11557H9.87277V5.54241C9.87277 4.98454 10.093 4.44951 10.4851 4.05503C10.8772 3.66055 11.409 3.43893 11.9635 3.43893H18.0365C18.311 3.43893 18.5829 3.49334 18.8366 3.59905C19.0902 3.70476 19.3207 3.8597 19.5149 4.05503C19.709 4.25035 19.863 4.48224 19.9681 4.73745C20.0731 4.99265 20.1272 5.26618 20.1272 5.54241ZM11.5818 22.9262H3.60615C3.48121 22.9262 3.3575 22.9015 3.24207 22.8534C3.12665 22.8053 3.02177 22.7348 2.93342 22.6459C2.84508 22.557 2.775 22.4515 2.72719 22.3353C2.67937 22.2192 2.65477 22.0947 2.65477 21.9691V14.0767C3.26433 14.5164 3.99549 14.7529 4.74554 14.753H5.31523V15.4752C5.30042 15.7603 5.34345 16.0454 5.44169 16.3132C5.53993 16.5811 5.69133 16.826 5.88667 17.033C6.08201 17.2401 6.31719 17.405 6.57791 17.5177C6.83862 17.6303 7.1194 17.6884 7.40315 17.6884C7.6869 17.6884 7.96768 17.6303 8.2284 17.5177C8.48911 17.405 8.72429 17.2401 8.91963 17.033C9.11497 16.826 9.26637 16.5811 9.36461 16.3132C9.46285 16.0454 9.50588 15.7603 9.49107 15.4752V14.753H12.1515L11.5818 22.9262ZM6.45461 15.4752V13.7557H8.35169V15.4752C8.36183 15.6067 8.34483 15.739 8.30176 15.8636C8.25869 15.9882 8.19048 16.1025 8.10141 16.1993C8.01234 16.2962 7.90433 16.3734 7.78417 16.4263C7.66401 16.4791 7.53429 16.5064 7.40315 16.5064C7.27202 16.5064 7.14229 16.4791 7.02213 16.4263C6.90197 16.3734 6.79397 16.2962 6.70489 16.1993C6.61582 16.1025 6.54761 15.9882 6.50454 15.8636C6.46147 15.739 6.44447 15.6067 6.45461 15.4752ZM12.2085 13.6067H9.49107V13.5666C9.49183 13.4412 9.46792 13.3168 9.42073 13.2007C9.37354 13.0846 9.304 12.9791 9.21611 12.8901C9.12822 12.8012 9.02371 12.7306 8.90861 12.6824C8.7935 12.6342 8.67006 12.6094 8.54538 12.6094H6.26662C6.01429 12.6094 5.7723 12.7103 5.59388 12.8898C5.41546 13.0693 5.31523 13.3127 5.31523 13.5666V13.6067H4.74554C4.0923 13.6067 3.46573 13.346 3.00328 12.8818C2.54083 12.4177 2.28028 11.7879 2.27877 11.1307V7.45102C2.27877 7.40086 2.29858 7.35275 2.33383 7.31728C2.36909 7.28181 2.41691 7.26188 2.46677 7.26188H10.8982L11.297 9.64048C11.3408 9.91741 11.4709 10.1732 11.6685 10.371C11.8661 10.5687 12.121 10.6983 12.3965 10.7409L12.2085 13.6067ZM12.5959 24.8864L12.7212 22.9778L17.1079 20.433L17.2788 22.8345L13.0517 25.2934L12.5959 24.8864ZM16.6179 13.0794L16.7774 15.4809L13.0801 17.6303L13.251 15.0281L16.6179 13.0794ZM13.3479 13.6526L13.5416 10.7868H16.4584L16.5325 11.8299L13.3479 13.6526ZM16.8629 16.7533L17.0224 19.1606L12.8124 21.6022L12.989 19.0058L16.8629 16.7533ZM15 27.179L13.8891 26.1015L17.3528 24.0897L17.4041 24.8348L15 27.179ZM17.3927 9.58889H12.6073C12.562 9.58942 12.518 9.57347 12.4835 9.54398C12.449 9.5145 12.4262 9.47346 12.4193 9.42841L11.9863 6.81482C11.9725 6.73292 11.9766 6.64898 11.9982 6.56882C12.0199 6.48866 12.0586 6.41419 12.1117 6.35056C12.1651 6.28765 12.2315 6.23714 12.3063 6.20251C12.381 6.16788 12.4623 6.14995 12.5446 6.14996H17.4554C17.5377 6.14995 17.619 6.16788 17.6937 6.20251C17.7685 6.23714 17.8349 6.28765 17.8883 6.35056C17.9414 6.41419 17.9801 6.48866 18.0018 6.56882C18.0234 6.64898 18.0275 6.73292 18.0137 6.81482L17.5807 9.42841C17.5792 9.47757 17.5588 9.52422 17.5237 9.55846C17.4886 9.5927 17.4416 9.61184 17.3927 9.61182V9.58889ZM17.6035 10.7352C17.8782 10.6929 18.1325 10.5642 18.33 10.3675C18.5275 10.1709 18.6581 9.91637 18.703 9.64048L19.1018 7.26188H27.5332C27.5831 7.26188 27.6309 7.28181 27.6662 7.31728C27.7014 7.35275 27.7212 7.40086 27.7212 7.45102V11.1307C27.7197 11.7879 27.4592 12.4177 26.9967 12.8818C26.5343 13.346 25.9077 13.6067 25.2545 13.6067H24.6848V13.5666C24.6848 13.3127 24.5845 13.0693 24.4061 12.8898C24.2277 12.7103 23.9857 12.6094 23.7334 12.6094H21.4546C21.3299 12.6094 21.2065 12.6342 21.0914 12.6824C20.9763 12.7306 20.8718 12.8012 20.7839 12.8901C20.696 12.9791 20.6265 13.0846 20.5793 13.2007C20.5321 13.3168 20.5082 13.4412 20.5089 13.5666V13.6067H17.7915L17.6035 10.7352ZM23.5454 13.7557V15.4752C23.5555 15.6067 23.5385 15.739 23.4955 15.8636C23.4524 15.9882 23.3842 16.1025 23.2951 16.1993C23.206 16.2962 23.098 16.3734 22.9779 16.4263C22.8577 16.4791 22.728 16.5064 22.5968 16.5064C22.4657 16.5064 22.336 16.4791 22.2158 16.4263C22.0957 16.3734 21.9877 16.2962 21.8986 16.1993C21.8095 16.1025 21.7413 15.9882 21.6982 15.8636C21.6552 15.739 21.6382 15.6067 21.6483 15.4752V13.7557H23.5454ZM18.4182 22.9262L17.8485 14.753H20.4861V15.4752C20.4713 15.7603 20.5144 16.0454 20.6126 16.3132C20.7108 16.5811 20.8622 16.826 21.0576 17.033C21.2529 17.2401 21.4881 17.405 21.7488 17.5177C22.0095 17.6303 22.2903 17.6884 22.5741 17.6884C22.8578 17.6884 23.1386 17.6303 23.3993 17.5177C23.66 17.405 23.8952 17.2401 24.0905 17.033C24.2859 16.826 24.4373 16.5811 24.5355 16.3132C24.6338 16.0454 24.6768 15.7603 24.662 15.4752V14.753H25.2317C25.9817 14.7529 26.7129 14.5164 27.3224 14.0767V21.9691C27.3225 22.219 27.2254 22.459 27.0519 22.6379C26.8784 22.8168 26.6422 22.9202 26.3938 22.9262H18.4182Z" fill="white"/>
</svg>
