<svg width="32" height="22" viewBox="0 0 32 22" fill="none" xmlns="http://www.w3.org/2000/svg">
<path fill-rule="evenodd" clip-rule="evenodd" d="M0 5.81818V21.8182H32V5.81818H0ZM1.45455 2.90909V4.36364H30.5455V2.90909H1.45455ZM2.90909 0V1.45455H29.0909V0H2.90909ZM1.45455 7.27273V20.3636H30.5455V7.27273H1.45455ZM16.1846 8.72727V9.69589C16.5733 9.75849 16.8912 9.88698 17.1383 10.0814C17.3854 10.2757 17.621 10.5739 17.845 10.9759L16.8814 11.5145C16.5915 10.9874 16.2125 10.7238 15.7447 10.7238C15.4547 10.7238 15.2143 10.8095 15.0232 10.9808C14.8321 11.1521 14.7366 11.3662 14.7366 11.6232C14.7366 11.8571 14.814 12.0515 14.9688 12.2064C15.1204 12.3579 15.4268 12.5375 15.8881 12.745C16.2867 12.9262 16.6161 13.0967 16.8764 13.2565C17.1367 13.4163 17.3327 13.5704 17.4645 13.7186C17.8368 14.1206 18.0229 14.6065 18.0229 15.1764C18.0229 15.7365 17.8549 16.2307 17.5188 16.659C17.1861 17.0841 16.7414 17.3707 16.1846 17.5189V18.5419H15.3197V17.5486C14.6739 17.4431 14.1814 17.2208 13.8421 16.8814C13.5027 16.5421 13.2523 16.0182 13.0909 15.3099L14.1781 15.0826C14.3263 15.5833 14.5076 15.9408 14.7218 16.155C14.9458 16.3592 15.2439 16.4614 15.6162 16.4614C15.9786 16.4614 16.2818 16.3444 16.5256 16.1105C16.7661 15.8799 16.8863 15.5817 16.8863 15.216C16.8863 14.8898 16.7858 14.6279 16.5849 14.4302C16.4827 14.3347 16.332 14.2268 16.1326 14.1065C15.9333 13.9863 15.6788 13.8553 15.3691 13.7136C14.73 13.427 14.3099 13.1634 14.1089 12.9229C13.7894 12.5638 13.6296 12.1339 13.6296 11.6331C13.6296 11.3959 13.6675 11.1751 13.7433 10.9709C13.819 10.7666 13.9286 10.5813 14.0719 10.415C14.2152 10.2486 14.3923 10.1044 14.6032 9.98251C14.814 9.86061 15.0528 9.76508 15.3197 9.69589V8.72727H16.1846Z" fill="white"/>
</svg>
