<svg width="28" height="32" viewBox="0 0 28 32" fill="none" xmlns="http://www.w3.org/2000/svg">
<path d="M0.5 32C0.367392 32 0.240215 31.9473 0.146447 31.8536C0.0526785 31.7598 0 31.6326 0 31.5C0 31.3674 0.0526785 31.2402 0.146447 31.1464C0.240215 31.0527 0.367392 31 0.5 31H3.6665L4 29C4.0425 28.7155 4.224 28.5 4.5 28.5H7L6.9995 10.5H5.5C5.36739 10.5 5.24021 10.4473 5.14645 10.3536C5.05268 10.2598 5 10.1326 5 10C5 9.86739 5.05268 9.74021 5.14645 9.64645C5.24021 9.55268 5.36739 9.5 5.5 9.5H6.9995L7 0.5C7 0.367392 7.05268 0.240215 7.14645 0.146447C7.24021 0.0526784 7.36739 0 7.5 0C7.63261 0 7.75979 0.0526784 7.85355 0.146447C7.94732 0.240215 8 0.367392 8 0.5V2.296C11.3378 4.0303 14.2433 6.49224 16.502 9.5H18.5C18.6326 9.5 18.7598 9.55268 18.8536 9.64645C18.9473 9.74021 19 9.86739 19 10C19 10.1326 18.9473 10.2598 18.8536 10.3536C18.7598 10.4473 18.6326 10.5 18.5 10.5H17.215C20.0149 14.6314 21.5079 19.5092 21.5 24.5C21.5 25.8615 21.391 27.1975 21.1815 28.5H23.5C23.755 28.5 23.905 28.669 23.9825 28.932L24.0015 29.01L24.3335 31H27.5C27.6326 31 27.7598 31.0527 27.8536 31.1464C27.9473 31.2402 28 31.3674 28 31.5C28 31.6326 27.9473 31.7598 27.8536 31.8536C27.7598 31.9473 27.6326 32 27.5 32H0.5ZM23 29.5H5L4.7 31H23.3L23 29.5ZM8 3.43V9.5H12.4935C11.7217 8.65474 10.8882 7.86792 10 7.146V8.5C10 8.63261 9.94732 8.75979 9.85355 8.85355C9.75979 8.94732 9.63261 9 9.5 9C9.36739 9 9.24021 8.94732 9.14645 8.85355C9.05268 8.75979 9 8.63261 9 8.5V6C8.99951 5.87947 9.04259 5.76282 9.12128 5.67153C9.19998 5.58023 9.30901 5.52044 9.4283 5.50315C9.54758 5.48587 9.6691 5.51226 9.77047 5.57746C9.87185 5.64266 9.94625 5.74229 9.98 5.858C15.763 10.24 19.5 17.1835 19.5 25C19.5 25.7925 19.4615 26.576 19.3865 27.349L19.365 27.5235C19.348 27.6414 19.2894 27.7494 19.1998 27.8279C19.1103 27.9065 18.9956 27.9505 18.8765 27.952L18.7955 27.947C18.6803 27.9354 18.5734 27.8819 18.495 27.7966C18.4167 27.7113 18.3724 27.6003 18.3705 27.4845L18.3735 27.4225L18.3835 27.3275C18.5348 25.8232 18.5392 24.3077 18.3965 22.8025L11.6065 28.5L20.168 28.5005C20.3865 27.2 20.5 25.863 20.5 24.5C20.5 15.412 15.4485 7.5035 8 3.43ZM9 10.5H7.9995L8 28.5H9V10.5ZM17.2005 22.5H9.9995L10 28.5H10.0535L10.0825 28.4735L17.2 22.5H17.2005ZM16.6695 15.9935L10.106 21.5H18.2355C17.9466 19.6061 17.4204 17.756 16.6695 15.9935ZM15.105 16H9.9995V20.284L15.105 16ZM14.1015 11.47L9.9995 14.911V15H16.218C15.6195 13.7624 14.9111 12.581 14.1015 11.47ZM13.3545 10.5H10L9.9995 13.6055L13.4945 10.674L13.3545 10.5Z" fill="white"/>
</svg>
