<svg width="57" height="56" viewBox="0 0 57 56" fill="none" xmlns="http://www.w3.org/2000/svg">
<path d="M31.709 19.1607C31.8366 19.2945 31.9908 19.4012 32.162 19.4741C32.3332 19.547 32.5178 19.5846 32.7043 19.5846C32.8909 19.5846 33.0754 19.547 33.2466 19.4741C33.4178 19.4012 33.572 19.2945 33.6997 19.1607L36.9701 15.972L40.2406 19.1607C40.3682 19.2945 40.5224 19.4012 40.6936 19.4741C40.8648 19.547 41.0494 19.5846 41.2359 19.5846C41.4225 19.5846 41.607 19.547 41.7782 19.4741C41.9494 19.4012 42.1036 19.2945 42.2313 19.1607C42.3673 19.0352 42.4757 18.8835 42.5498 18.7151C42.6239 18.5468 42.6622 18.3652 42.6622 18.1817C42.6622 17.9982 42.6239 17.8167 42.5498 17.6483C42.4757 17.4799 42.3673 17.3283 42.2313 17.2027L38.9893 13.9859L42.2313 10.7692C42.362 10.6406 42.4657 10.488 42.5364 10.32C42.6071 10.152 42.6435 9.97199 42.6435 9.79017C42.6435 9.60835 42.6071 9.42832 42.5364 9.26034C42.4657 9.09236 42.362 8.93973 42.2313 8.81116C42.1005 8.68259 41.9454 8.58061 41.7746 8.51103C41.6038 8.44145 41.4208 8.40564 41.2359 8.40564C41.0511 8.40564 40.868 8.44145 40.6972 8.51103C40.5264 8.58061 40.3713 8.68259 40.2406 8.81116L36.9701 11.9999L33.6997 8.81116C33.4357 8.55151 33.0777 8.40564 32.7043 8.40564C32.331 8.40564 31.973 8.55151 31.709 8.81116C31.445 9.07081 31.2967 9.42297 31.2967 9.79017C31.2967 10.1574 31.445 10.5095 31.709 10.7692L34.951 13.9859L31.709 17.2027C31.5729 17.3283 31.4645 17.4799 31.3904 17.6483C31.3163 17.8167 31.2781 17.9982 31.2781 18.1817C31.2781 18.3652 31.3163 18.5468 31.3904 18.7151C31.4645 18.8835 31.5729 19.0352 31.709 19.1607Z" fill="white"/>
<path d="M46.9236 36.3634H35.5481C35.171 36.3634 34.8094 36.5108 34.5427 36.773C34.276 37.0353 34.1262 37.3911 34.1262 37.762C34.1262 38.1329 34.276 38.4887 34.5427 38.7509C34.8094 39.0132 35.171 39.1606 35.5481 39.1606H46.9236C47.3007 39.1606 47.6624 39.0132 47.929 38.7509C48.1957 38.4887 48.3455 38.1329 48.3455 37.762C48.3455 37.3911 48.1957 37.0353 47.929 36.773C47.6624 36.5108 47.3007 36.3634 46.9236 36.3634Z" fill="white"/>
<path d="M46.9236 41.9578H35.5481C35.171 41.9578 34.8094 42.1051 34.5427 42.3674C34.276 42.6297 34.1262 42.9854 34.1262 43.3564C34.1262 43.7273 34.276 44.083 34.5427 44.3453C34.8094 44.6076 35.171 44.7549 35.5481 44.7549H46.9236C47.3007 44.7549 47.6624 44.6076 47.929 44.3453C48.1957 44.083 48.3455 43.7273 48.3455 43.3564C48.3455 42.9854 48.1957 42.6297 47.929 42.3674C47.6624 42.1051 47.3007 41.9578 46.9236 41.9578Z" fill="white"/>
<path d="M21.3288 11.1887H9.95342C9.5763 11.1887 9.21463 11.3361 8.94797 11.5984C8.6813 11.8606 8.53149 12.2164 8.53149 12.5873C8.53149 12.9582 8.6813 13.314 8.94797 13.5763C9.21463 13.8385 9.5763 13.9859 9.95342 13.9859H21.3288C21.706 13.9859 22.0676 13.8385 22.3343 13.5763C22.601 13.314 22.7508 12.9582 22.7508 12.5873C22.7508 12.2164 22.601 11.8606 22.3343 11.5984C22.0676 11.3361 21.706 11.1887 21.3288 11.1887Z" fill="white"/>
<path d="M21.3288 30.769H17.0631V26.5733C17.0631 26.2023 16.9132 25.8466 16.6466 25.5843C16.3799 25.322 16.0182 25.1747 15.6411 25.1747C15.264 25.1747 14.9023 25.322 14.6357 25.5843C14.369 25.8466 14.2192 26.2023 14.2192 26.5733V30.769H9.95342C9.5763 30.769 9.21463 30.9164 8.94797 31.1787C8.6813 31.441 8.53149 31.7967 8.53149 32.1676C8.53149 32.5386 8.6813 32.8943 8.94797 33.1566C9.21463 33.4189 9.5763 33.5662 9.95342 33.5662H14.2192V37.762C14.2192 38.1329 14.369 38.4887 14.6357 38.7509C14.9023 39.0132 15.264 39.1606 15.6411 39.1606C16.0182 39.1606 16.3799 39.0132 16.6466 38.7509C16.9132 38.4887 17.0631 38.1329 17.0631 37.762V33.5662H21.3288C21.706 33.5662 22.0676 33.4189 22.3343 33.1566C22.601 32.8943 22.7508 32.5386 22.7508 32.1676C22.7508 31.7967 22.601 31.441 22.3343 31.1787C22.0676 30.9164 21.706 30.769 21.3288 30.769Z" fill="white"/>
<path d="M51.1894 28.6991V4.19578C51.1894 3.08299 50.74 2.01577 49.94 1.22891C49.14 0.442054 48.055 0 46.9236 0H4.26578C3.13443 0 2.04941 0.442054 1.24942 1.22891C0.44943 2.01577 0 3.08299 0 4.19578V46.1535C0 47.2663 0.44943 48.3335 1.24942 49.1204C2.04941 49.9072 3.13443 50.3493 4.26578 50.3493H29.178C30.5622 52.0116 32.2852 53.3702 34.2358 54.3376C36.1864 55.305 38.3214 55.8598 40.5033 55.9663C42.6851 56.0727 44.8655 55.7284 46.9039 54.9556C48.9422 54.1828 50.7934 52.9985 52.3381 51.4792C53.8828 49.9598 55.0868 48.139 55.8725 46.1341C56.6583 44.1292 57.0083 41.9846 56.9001 39.8386C56.7919 37.6925 56.2278 35.5925 55.2442 33.6739C54.2607 31.7553 52.8794 30.0607 51.1894 28.6991ZM4.26578 47.5521C3.88866 47.5521 3.52699 47.4048 3.26033 47.1425C2.99367 46.8802 2.84386 46.5245 2.84386 46.1535V4.19578C2.84386 3.82485 2.99367 3.46911 3.26033 3.20682C3.52699 2.94453 3.88866 2.79718 4.26578 2.79718H46.9236C47.3007 2.79718 47.6624 2.94453 47.9291 3.20682C48.1957 3.46911 48.3455 3.82485 48.3455 4.19578V26.8809C46.1501 25.757 43.7109 25.1716 41.2359 25.1747C37.0899 25.182 33.1159 26.8053 30.1842 29.6888C27.2525 32.5724 25.6022 36.4812 25.5947 40.5592C25.5916 42.9936 26.1867 45.3927 27.3294 47.5521H4.26578ZM41.2359 53.1465C38.7048 53.1465 36.2306 52.4082 34.1261 51.0251C32.0216 49.642 30.3813 47.6761 29.4127 45.3761C28.4441 43.0761 28.1907 40.5452 28.6844 38.1035C29.1782 35.6618 30.3971 33.4189 32.1868 31.6586C33.9766 29.8982 36.2568 28.6994 38.7393 28.2137C41.2217 27.728 43.7948 27.9773 46.1332 28.93C48.4716 29.8827 50.4703 31.496 51.8765 33.566C53.2827 35.636 54.0332 38.0696 54.0332 40.5592C54.0257 43.8953 52.675 47.0926 50.2767 49.4516C47.8783 51.8106 44.6277 53.1391 41.2359 53.1465Z" fill="white"/>
</svg>
