<svg width="40" height="40" viewBox="0 0 40 40" fill="none" xmlns="http://www.w3.org/2000/svg">
<g clip-path="url(#clip0)">
<path d="M25.6146 35.0909H22.6404V36.7273H25.6146V35.0909Z" fill="white"/>
<path d="M25.6146 31.8182H22.6404V33.4545H25.6146V31.8182Z" fill="white"/>
<path d="M25.6146 28.5454H22.6404V30.1818H25.6146V28.5454Z" fill="white"/>
<path d="M1.63885 9.57576H8.80121C9.2868 9.57576 9.59029 9.21212 9.59029 8.78788V1.63636H31.8058V10.9091H33.4446V0.787879C33.4446 0.30303 33.0804 0 32.6555 0H8.74052C8.67982 0 8.55842 0 8.49772 0.0606061H8.43703L8.37633 0.121212C8.37633 0.121212 8.37633 0.121212 8.31563 0.181818C8.25493 0.181818 8.25493 0.242424 8.19423 0.30303L0.242792 8.18182C0.182094 8.24242 0.182094 8.30303 0.121396 8.30303C0.121396 8.30303 0.121396 8.36364 0.060698 8.36364L0 8.42424V8.48485V8.60606C0 8.60606 0 8.66667 0 8.72727V16.1818H1.63885V9.57576ZM7.95144 2.78788V7.93939H2.79211L7.95144 2.78788Z" fill="white"/>
<path d="M35.9939 22.0606H33.0197V23.697H35.9939V22.0606Z" fill="white"/>
<path d="M35.9939 25.3333H33.0197V26.9697H35.9939V25.3333Z" fill="white"/>
<path d="M40 13.697C39.8786 13.3939 39.5751 13.2121 39.2716 13.2121H19.3627C18.8771 13.2121 18.5736 13.5758 18.5736 14V39.1515C18.5736 39.6364 18.9378 39.9394 19.3627 39.9394H39.2716C39.6358 39.9394 39.8786 39.7576 40.0607 39.3939L40 13.697ZM20.2124 15.8788V14.8485H38.4826V18.5455H20.2124V17.5152V15.8788ZM20.2124 38.3636V20.1818H38.4826V38.4243H20.2124V38.3636Z" fill="white"/>
<path d="M35.9939 28.5454H33.0197V30.1818H35.9939V28.5454Z" fill="white"/>
<path d="M25.6146 25.3333H22.6404V26.9697H25.6146V25.3333Z" fill="white"/>
<path d="M30.8346 31.8182H27.8604V33.4545H30.8346V31.8182Z" fill="white"/>
<path d="M30.8346 35.0909H27.8604V36.7273H30.8346V35.0909Z" fill="white"/>
<path d="M25.6146 22.0606H22.6404V23.697H25.6146V22.0606Z" fill="white"/>
<path d="M30.8346 22.0606H27.8604V23.697H30.8346V22.0606Z" fill="white"/>
<path d="M30.8346 28.5454H27.8604V30.1818H30.8346V28.5454Z" fill="white"/>
<path d="M35.9939 35.0909H33.0197V36.7273H35.9939V35.0909Z" fill="white"/>
<path d="M35.9939 31.8182H33.0197V33.4545H35.9939V31.8182Z" fill="white"/>
<path d="M30.8346 25.3333H27.8604V26.9697H30.8346V25.3333Z" fill="white"/>
<path d="M16.5706 9.81816H28.4067C28.8316 9.81816 29.1958 9.45452 29.1958 9.03028C29.1958 8.60604 28.8316 8.2424 28.4067 8.2424H16.5706C16.1457 8.2424 15.7815 8.60604 15.7815 9.03028C15.7815 9.45452 16.1457 9.81816 16.5706 9.81816Z" fill="white"/>
<path d="M21.4264 6.36363H28.346C28.7709 6.36363 29.1351 5.99999 29.1351 5.57575C29.1351 5.15151 28.7709 4.78787 28.346 4.78787H21.4264C21.0015 4.78787 20.6373 5.15151 20.6373 5.57575C20.6373 5.99999 21.0015 6.36363 21.4264 6.36363Z" fill="white"/>
<path d="M1.63885 20.1818H7.95144V21.8182H9.59029V19.3333C9.59029 18.8485 9.2261 18.5455 8.80121 18.5455H0.789074C0.30349 18.5455 0 18.9091 0 19.3333V21.8182H1.63885V20.1818Z" fill="white"/>
<path d="M1.63885 26.7879H0V28.4849H1.63885V26.7879Z" fill="white"/>
<path d="M9.59029 26.7879H7.95145V28.4849H9.59029V26.7879Z" fill="white"/>
<path d="M16.7527 28.4849H9.59029V30.1212H15.9029V31.8182H9.59029V33.4546H15.9029V35.1515H9.59029V36.7879H15.9029V38.4849H9.59029V36.7879H7.95144V38.4849H1.63885V36.7879H0V39.2727C0 39.697 0.364188 40 0.789074 40H16.692C17.1775 40 17.481 39.6364 17.481 39.2121V29.2727C17.5417 28.7879 17.1775 28.4849 16.7527 28.4849Z" fill="white"/>
<path d="M7.95144 26.7879H9.59029V21.8182H7.95144H1.63885H0V26.7273H1.63885H7.95144V26.7879ZM1.63885 23.4546H7.95144V25.1515H1.63885V23.4546Z" fill="white"/>
<path d="M7.95144 36.7273H9.59029V35.0909V33.394V31.7576V30.0606V28.4849H7.95144H1.63885H0V36.7273H1.63885H7.95144ZM1.63885 30.0606H7.95144V31.7576H1.63885V30.0606ZM1.63885 33.394H7.95144V35.0909H1.63885V33.394Z" fill="white"/>
</g>
<defs>
<clipPath id="clip0">
<rect width="40" height="40" fill="white"/>
</clipPath>
</defs>
</svg>
