<!-- Generator: Adobe Illustrator 22.1.0, SVG Export Plug-In  -->
<svg version="1.1"
	 xmlns="http://www.w3.org/2000/svg" xmlns:xlink="http://www.w3.org/1999/xlink" xmlns:a="http://ns.adobe.com/AdobeSVGViewerExtensions/3.0/"
	 x="0px" y="0px" width="64.9px" height="43.3px" viewBox="0 0 64.9 43.3" style="enable-background:new 0 0 64.9 43.3;"
	 xml:space="preserve">
<style type="text/css">
	*{fill:#fff;}
</style>
<defs>
</defs>
<g>
	<path class="st0" d="M25.7,32.4H9.5c-0.7,0-1.4,0.6-1.4,1.4s0.6,1.4,1.4,1.4h16.2c0.7,0,1.4-0.6,1.4-1.4
		C27.1,33,26.5,32.4,25.7,32.4z"/>
	<path d="M64.9,9.5V6.8c0-3.7-3-6.8-6.8-6.8H6.8C3,0,0,3,0,6.8v29.7c0,3.7,3,6.8,6.8,6.8h51.4c3.7,0,6.8-3,6.8-6.8V17.6c0,0,0,0,0,0
		L64.9,9.5C64.9,9.5,64.9,9.5,64.9,9.5z M2.7,6.8c0-2.2,1.8-4.1,4.1-4.1h51.4c2.2,0,4.1,1.8,4.1,4.1v1.4H2.7V6.8z M2.7,10.8h59.5
		v5.4H2.7V10.8z M58.2,40.6H6.8c-2.2,0-4.1-1.8-4.1-4.1V18.9h59.5v17.6h0C62.2,38.7,60.4,40.6,58.2,40.6z"/>
	<path class="st0" d="M25.7,27H9.5c-0.7,0-1.4,0.6-1.4,1.4c0,0.7,0.6,1.4,1.4,1.4h16.2c0.7,0,1.4-0.6,1.4-1.4
		C27.1,27.6,26.5,27,25.7,27z"/>
	<path d="M52.8,24.3h-2.7c-2.2,0-4.1,1.8-4.1,4.1v2.7c0,2.2,1.8,4.1,4.1,4.1h2.7c2.2,0,4.1-1.8,4.1-4.1v-2.7
		C56.8,26.2,55,24.3,52.8,24.3z M54.1,31.1c0,0.7-0.6,1.4-1.4,1.4h-2.7c-0.7,0-1.4-0.6-1.4-1.4v-2.7c0-0.7,0.6-1.4,1.4-1.4h2.7
		c0.7,0,1.4,0.6,1.4,1.4V31.1z"/>
</g>
</svg>
