<svg width="18" height="18" viewBox="0 0 18 18" fill="none" xmlns="http://www.w3.org/2000/svg">
<path d="M17.7681 14.0469H17.0481C17.1427 13.8689 17.1926 13.6705 17.1935 13.4688V7.89228C17.3431 7.59106 17.4213 7.2594 17.4219 6.92305V4.70074C17.4219 4.48684 17.337 4.28169 17.1857 4.13044C17.0344 3.97918 16.8293 3.89421 16.6154 3.89421H14.1923V3.54805C14.1914 2.66057 13.8384 1.8097 13.2109 1.18216C12.5834 0.554617 11.7325 0.201661 10.845 0.200745H7.155C6.26752 0.201661 5.41665 0.554617 4.78911 1.18216C4.16157 1.8097 3.80861 2.66057 3.8077 3.54805V3.89421H1.38462C1.17071 3.89421 0.965565 3.97918 0.81431 4.13044C0.663055 4.28169 0.57808 4.48684 0.57808 4.70074V6.92305C0.578182 7.26057 0.656375 7.59348 0.806542 7.89574V13.4688C0.807387 13.6705 0.857284 13.8689 0.951926 14.0469H0.231927C0.140121 14.0469 0.0520752 14.0834 -0.0128412 14.1483C-0.0777576 14.2132 -0.114227 14.3012 -0.114227 14.3931C-0.114227 14.4849 -0.0777576 14.5729 -0.0128412 14.6378C0.0520752 14.7027 0.140121 14.7392 0.231927 14.7392H6.87808L6.83654 15.3277C6.83328 15.3783 6.8412 15.4291 6.85975 15.4763C6.87829 15.5236 6.907 15.5662 6.94385 15.6011L8.7577 17.3596C8.8224 17.423 8.9094 17.4585 9 17.4585C9.09061 17.4585 9.1776 17.423 9.24231 17.3596L11.0562 15.6011C11.093 15.5662 11.1217 15.5236 11.1403 15.4763C11.1588 15.4291 11.1667 15.3783 11.1635 15.3277L11.1219 14.7392H17.7681C17.8599 14.7392 17.9479 14.7027 18.0128 14.6378C18.0778 14.5729 18.1142 14.4849 18.1142 14.3931C18.1142 14.3012 18.0778 14.2132 18.0128 14.1483C17.9479 14.0834 17.8599 14.0469 17.7681 14.0469ZM4.5 3.54805C4.50092 2.84418 4.78094 2.16941 5.27865 1.6717C5.77636 1.17398 6.45113 0.893968 7.155 0.893052H10.845C11.5489 0.893968 12.2236 1.17398 12.7214 1.6717C13.2191 2.16941 13.4991 2.84418 13.5 3.54805V3.89421H12.8077V3.54805C12.8077 3.02751 12.6009 2.5283 12.2328 2.16022C11.8648 1.79214 11.3655 1.58536 10.845 1.58536H7.155C6.63446 1.58536 6.13525 1.79214 5.76717 2.16022C5.39909 2.5283 5.19231 3.02751 5.19231 3.54805V3.89421H4.5V3.54805ZM12.1154 3.54805V3.89421H11.4508C11.4113 3.78828 11.3539 3.68993 11.2812 3.60344C11.184 3.48882 11.0631 3.39665 10.9268 3.3333C10.7906 3.26995 10.6422 3.23693 10.4919 3.23651H7.50808C7.35781 3.23693 7.20943 3.26995 7.07317 3.3333C6.93691 3.39665 6.81602 3.48882 6.71885 3.60344C6.64607 3.68993 6.5887 3.78828 6.54923 3.89421H5.88462V3.54805C5.88462 3.21113 6.01846 2.888 6.25671 2.64975C6.49495 2.41151 6.81808 2.27767 7.155 2.27767H10.845C11.0118 2.27767 11.177 2.31053 11.3312 2.37437C11.4853 2.43821 11.6253 2.53179 11.7433 2.64975C11.8613 2.76772 11.9548 2.90777 12.0187 3.0619C12.0825 3.21603 12.1154 3.38122 12.1154 3.54805ZM6.92308 14.0469H2.07693C2.00101 14.0469 1.92584 14.0319 1.85571 14.0029C1.78557 13.9738 1.72184 13.9313 1.66816 13.8776C1.61448 13.8239 1.5719 13.7602 1.54285 13.69C1.5138 13.6199 1.49885 13.5447 1.49885 13.4688V8.70228C1.86923 8.96784 2.31349 9.11068 2.76923 9.11074H3.11539V9.5469C3.10639 9.71908 3.13254 9.89128 3.19223 10.053C3.25192 10.2148 3.34391 10.3627 3.4626 10.4877C3.58129 10.6128 3.7242 10.7124 3.88261 10.7804C4.04102 10.8485 4.21163 10.8836 4.38404 10.8836C4.55645 10.8836 4.72706 10.8485 4.88547 10.7804C5.04389 10.7124 5.18679 10.6128 5.30548 10.4877C5.42417 10.3627 5.51616 10.2148 5.57585 10.053C5.63555 9.89128 5.66169 9.71908 5.6527 9.5469V9.11074H7.26923L6.92308 14.0469ZM3.8077 9.5469V8.50844H4.96039V9.5469C4.96655 9.62634 4.95622 9.7062 4.93005 9.78146C4.90388 9.85672 4.86243 9.92576 4.80831 9.98424C4.75419 10.0427 4.68857 10.0894 4.61555 10.1213C4.54254 10.1532 4.46372 10.1697 4.38404 10.1697C4.30436 10.1697 4.22554 10.1532 4.15253 10.1213C4.07952 10.0894 4.01389 10.0427 3.95977 9.98424C3.90565 9.92576 3.8642 9.85672 3.83803 9.78146C3.81186 9.7062 3.80153 9.62634 3.8077 9.5469ZM7.30385 8.41844H5.6527V8.39421C5.65315 8.31846 5.63863 8.24336 5.60995 8.17325C5.58128 8.10313 5.53903 8.03938 5.48562 7.98565C5.43222 7.93193 5.36872 7.88929 5.29878 7.8602C5.22884 7.8311 5.15383 7.81613 5.07808 7.81613H3.69346C3.54015 7.81613 3.39311 7.87703 3.2847 7.98544C3.17629 8.09385 3.11539 8.24089 3.11539 8.39421V8.41844H2.76923C2.37231 8.41844 1.9916 8.261 1.71061 7.98066C1.42962 7.70032 1.2713 7.31997 1.27039 6.92305V4.70074C1.27039 4.67045 1.28242 4.64139 1.30385 4.61997C1.32527 4.59855 1.35432 4.58651 1.38462 4.58651H6.5077L6.75 6.02305C6.77663 6.19031 6.85567 6.34479 6.97573 6.46423C7.0958 6.58368 7.25069 6.66191 7.41808 6.68767L7.30385 8.41844ZM7.53923 15.2307L7.61539 14.0781L10.2808 12.5411L10.3846 13.9915L7.81616 15.4765L7.53923 15.2307ZM9.98308 8.09998L10.08 9.55036L7.83346 10.8484L7.93731 9.2769L9.98308 8.09998ZM7.99616 8.44613L8.11385 6.71536H9.88616L9.93116 7.34536L7.99616 8.44613ZM10.1319 10.3188L10.2288 11.7727L7.67077 13.2473L7.77808 11.6792L10.1319 10.3188ZM9 16.6154L8.325 15.9646L10.4296 14.7496L10.4608 15.1996L9 16.6154ZM10.4538 5.9919H7.54616C7.51863 5.99222 7.49192 5.98258 7.47093 5.96478C7.44995 5.94697 7.43609 5.92218 7.43193 5.89498L7.16885 4.31651C7.16047 4.26705 7.16294 4.21636 7.17608 4.16794C7.18923 4.11953 7.21275 4.07455 7.245 4.03613C7.2775 3.99813 7.31785 3.96763 7.36326 3.94671C7.40867 3.9258 7.45808 3.91497 7.50808 3.91498H10.4919C10.5419 3.91497 10.5913 3.9258 10.6367 3.94671C10.6822 3.96763 10.7225 3.99813 10.755 4.03613C10.7873 4.07455 10.8108 4.11953 10.8239 4.16794C10.8371 4.21636 10.8395 4.26705 10.8312 4.31651L10.5681 5.89498C10.5672 5.92467 10.5547 5.95284 10.5334 5.97352C10.5121 5.9942 10.4836 6.00576 10.4538 6.00574V5.9919ZM10.5819 6.68421C10.7488 6.65865 10.9034 6.58092 11.0234 6.46215C11.1434 6.34339 11.2227 6.18968 11.25 6.02305L11.4923 4.58651H16.6154C16.6457 4.58651 16.6747 4.59855 16.6962 4.61997C16.7176 4.64139 16.7296 4.67045 16.7296 4.70074V6.92305C16.7287 7.31997 16.5704 7.70032 16.2894 7.98066C16.0084 8.261 15.6277 8.41844 15.2308 8.41844H14.8846V8.39421C14.8846 8.24089 14.8237 8.09385 14.7153 7.98544C14.6069 7.87703 14.4599 7.81613 14.3065 7.81613H12.9219C12.8462 7.81613 12.7712 7.8311 12.7012 7.8602C12.6313 7.88929 12.5678 7.93193 12.5144 7.98565C12.461 8.03938 12.4187 8.10313 12.3901 8.17325C12.3614 8.24336 12.3469 8.31846 12.3473 8.39421V8.41844H10.6962L10.5819 6.68421ZM14.1923 8.50844V9.5469C14.1985 9.62634 14.1881 9.7062 14.162 9.78146C14.1358 9.85672 14.0944 9.92576 14.0402 9.98424C13.9861 10.0427 13.9205 10.0894 13.8475 10.1213C13.7745 10.1532 13.6956 10.1697 13.616 10.1697C13.5363 10.1697 13.4575 10.1532 13.3845 10.1213C13.3114 10.0894 13.2458 10.0427 13.1917 9.98424C13.1376 9.92576 13.0961 9.85672 13.07 9.78146C13.0438 9.7062 13.0335 9.62634 13.0396 9.5469V8.50844H14.1923ZM11.0769 14.0469L10.7308 9.11074H12.3335V9.5469C12.3245 9.71908 12.3506 9.89128 12.4103 10.053C12.47 10.2148 12.562 10.3627 12.6807 10.4877C12.7994 10.6128 12.9423 10.7124 13.1007 10.7804C13.2591 10.8485 13.4297 10.8836 13.6021 10.8836C13.7745 10.8836 13.9451 10.8485 14.1035 10.7804C14.262 10.7124 14.4049 10.6128 14.5236 10.4877C14.6422 10.3627 14.7342 10.2148 14.7939 10.053C14.8536 9.89128 14.8798 9.71908 14.8708 9.5469V9.11074H15.2169C15.6727 9.11068 16.1169 8.96784 16.4873 8.70228V13.4688C16.4874 13.6198 16.4284 13.7647 16.3229 13.8728C16.2175 13.9808 16.074 14.0433 15.9231 14.0469H11.0769Z" fill="white"/>
</svg>
