<svg width="30" height="27" viewBox="0 0 30 27" fill="none" xmlns="http://www.w3.org/2000/svg">
<path d="M27.5 26.75H2.5C1.12125 26.75 0 25.6287 0 24.25V8C0 6.62125 1.12125 5.5 2.5 5.5H27.5C28.8787 5.5 30 6.62125 30 8V24.25C30 25.6287 28.8787 26.75 27.5 26.75ZM2.5 6.75C1.81062 6.75 1.25 7.31062 1.25 8V24.25C1.25 24.9394 1.81062 25.5 2.5 25.5H27.5C28.1894 25.5 28.75 24.9394 28.75 24.25V8C28.75 7.31062 28.1894 6.75 27.5 6.75H2.5Z" fill="white"/>
<path d="M20 3.625H18.75V2.375C18.75 2.03 18.4694 1.75 18.125 1.75H11.875C11.5306 1.75 11.25 2.03 11.25 2.375V3.625H10V2.375C10 1.34125 10.8412 0.5 11.875 0.5H18.125C19.1587 0.5 20 1.34125 20 2.375V3.625Z" fill="white"/>
<path d="M25 11.75H4.375C4.03 11.75 3.75 11.4706 3.75 11.125C3.75 10.7794 4.03 10.5 4.375 10.5H25C25.345 10.5 25.625 10.7794 25.625 11.125C25.625 11.4706 25.345 11.75 25 11.75Z" fill="white"/>
<path d="M25 16.75H4.375C4.03 16.75 3.75 16.4706 3.75 16.125C3.75 15.7794 4.03 15.5 4.375 15.5H25C25.345 15.5 25.625 15.7794 25.625 16.125C25.625 16.4706 25.345 16.75 25 16.75Z" fill="white"/>
<path d="M25 21.75H4.375C4.03 21.75 3.75 21.4706 3.75 21.125C3.75 20.7794 4.03 20.5 4.375 20.5H25C25.345 20.5 25.625 20.7794 25.625 21.125C25.625 21.4706 25.345 21.75 25 21.75Z" fill="white"/>
<path d="M11.25 3.625H10V6.125H11.25V3.625Z" fill="white"/>
<path d="M20 3.625H18.75V6.125H20V3.625Z" fill="white"/>
<path d="M19.375 3H10.625V4.25H19.375V3Z" fill="white"/>
</svg>
