<svg width="31" height="30" viewBox="0 0 31 30" fill="none" xmlns="http://www.w3.org/2000/svg">
<path d="M15 15.638C14.8321 15.638 14.6738 15.5708 14.5539 15.4557C14.3092 15.211 14.3092 14.8081 14.5539 14.5634L24.7138 4.39875C24.8337 4.27883 24.992 4.21167 25.1599 4.21167C25.3278 4.21167 25.4861 4.27883 25.606 4.39875C25.7259 4.51867 25.7931 4.67697 25.7931 4.84486C25.7931 5.01276 25.7259 5.17106 25.606 5.29098L15.4461 15.4461C15.3406 15.566 15.1775 15.638 15 15.638Z" fill="white"/>
<path d="M18.5929 19.2309C18.425 19.2309 18.2667 19.1638 18.1468 19.0438C17.9021 18.7992 17.9021 18.3963 18.1468 18.1516L27.4096 8.88874C27.5296 8.76882 27.6879 8.70166 27.8558 8.70166C28.0236 8.70166 28.1819 8.76882 28.3019 8.88874C28.5465 9.13338 28.5465 9.53633 28.3019 9.78097L19.0438 19.0438C18.9239 19.1638 18.7656 19.2309 18.5929 19.2309Z" fill="white"/>
<path d="M22.2385 22.867C22.0707 22.867 21.9076 22.7999 21.7876 22.6847C21.6677 22.5648 21.6006 22.4065 21.6006 22.2386C21.6006 22.0707 21.6677 21.9124 21.7876 21.7925L28.8583 14.7266C28.9782 14.6067 29.1365 14.5396 29.3044 14.5396C29.4723 14.5396 29.6306 14.6067 29.7505 14.7218C29.9904 14.9713 29.9904 15.3694 29.7505 15.6141L22.6847 22.6847C22.5647 22.8047 22.4064 22.867 22.2385 22.867Z" fill="white"/>
<path d="M15 8.46172C14.8321 8.46172 14.6738 8.39456 14.5539 8.27944C14.3092 8.03479 14.3092 7.63185 14.5539 7.38721L20.4349 1.50617C20.5548 1.38625 20.7131 1.31909 20.881 1.31909C21.0489 1.31909 21.2072 1.38625 21.3271 1.50138C21.5718 1.75082 21.5718 2.14896 21.3271 2.3984L15.4461 8.27464C15.3358 8.39456 15.1727 8.46172 15 8.46172Z" fill="white"/>
<path d="M15 30C10.9946 30 7.22418 28.441 4.39399 25.6156C1.559 22.7806 0 19.0102 0 15.0048C0 10.9946 1.559 7.22897 4.39399 4.39878C7.22418 1.559 10.9898 0 15 0C19.0102 0 22.7758 1.559 25.6108 4.39878C28.441 7.22897 30 10.9994 30 15.0048C30 19.0102 28.441 22.7806 25.6108 25.6156C22.7806 28.4458 19.0102 30 15 30ZM15 1.26159C11.3256 1.26159 7.87656 2.69108 5.28622 5.28622C2.69108 7.87656 1.26159 11.3303 1.26159 15C1.26159 18.6697 2.69108 22.1186 5.28622 24.7186C7.87656 27.3089 11.3256 28.7336 15 28.7336C18.6744 28.7336 22.1234 27.3089 24.7186 24.7186C27.3137 22.1186 28.7432 18.6697 28.7432 15C28.7432 11.3303 27.3137 7.88136 24.7186 5.28622C22.1234 2.69108 18.6744 1.26159 15 1.26159Z" fill="white"/>
<path d="M25.1647 25.7979C24.9968 25.7979 24.8385 25.7307 24.7186 25.6108L14.5587 15.4461C14.4436 15.331 14.3716 15.1679 14.3716 15V0.628398C14.3716 0.283019 14.6546 0 15 0C15.3502 0 15.638 0.283019 15.638 0.628398V14.741L25.6156 24.7186C25.8603 24.9632 25.8603 25.3662 25.6156 25.6108C25.4957 25.7307 25.3326 25.7979 25.1647 25.7979Z" fill="white"/>
</svg>
