<svg width="36" height="36" viewBox="0 0 36 36" fill="none" xmlns="http://www.w3.org/2000/svg">
<path d="M18 0C8.05836 0 0 8.05836 0 18C0 27.9416 8.05836 36 18 36C27.9405 36 36 27.9405 36 18C36 8.05836 27.9405 0 18 0ZM18 33.75C9.30154 33.75 2.25004 26.6985 2.25004 18C2.25004 9.30154 9.30154 2.25004 18 2.25004C26.6985 2.25004 33.75 9.30154 33.75 18C33.75 26.6985 26.6985 33.75 18 33.75Z" fill="white"/>
<path d="M26.2125 11.6921L14.6385 23.1626L9.82232 18.4421C9.37907 18.0022 8.65911 18.0022 8.21585 18.4421C7.77147 18.882 7.77147 19.5941 8.21585 20.0329L13.8397 25.5442C14.3009 25.9503 14.9906 25.9953 15.4462 25.5442L27.82 13.2829C28.2632 12.8441 28.2632 12.1309 27.82 11.6921C27.3757 11.2533 26.6569 11.2533 26.2125 11.6921Z" fill="white"/>
</svg>
