<svg width="36" height="36" viewBox="0 0 36 36" fill="none" xmlns="http://www.w3.org/2000/svg">
<g clip-path="url(#clip0)">
<path d="M22.0718 14.656L16.6628 19.7649L14.0669 17.0943C13.7791 16.798 13.3052 16.7912 13.0092 17.079C12.7129 17.3671 12.7062 17.8407 12.994 18.137L16.1074 21.3331C16.3967 21.6241 16.8641 21.6341 17.1654 21.3554L23.1148 15.7438C23.2593 15.6076 23.3437 15.4194 23.3493 15.221C23.3548 15.0226 23.2813 14.8301 23.1447 14.6859C22.8552 14.3849 22.3778 14.3717 22.0718 14.656Z" fill="white"/>
<path d="M18.0581 6.79346C11.8763 6.79346 6.84973 11.82 6.84973 18.0018C6.84973 24.184 11.8763 29.2105 18.0581 29.2105C24.2402 29.2105 29.2668 24.184 29.2668 18.0018C29.2668 11.82 24.2402 6.79346 18.0581 6.79346ZM18.0581 27.7101C12.7016 27.7101 8.3502 23.3511 8.3502 18.0018C8.3502 12.6526 12.7016 8.29393 18.0581 8.29393C23.42 8.29393 27.7663 12.6403 27.7663 18.0018C27.7663 23.3634 23.42 27.7101 18.0581 27.7101Z" fill="white"/>
<path d="M33.4828 13.8756L33.7304 9.42665C33.7477 9.12802 33.5854 8.84757 33.3178 8.71393L29.3565 6.71086L27.3534 2.74957C27.2172 2.48435 26.9385 2.32287 26.6407 2.33694L22.1841 2.57725L18.4705 0.123745C18.2202 -0.0412482 17.8958 -0.0412482 17.6452 0.123745L13.9316 2.57725L9.48292 2.32961C9.184 2.31203 8.90383 2.47438 8.7702 2.74224L6.76684 6.70354L2.80584 8.7066C2.54032 8.84258 2.37914 9.12128 2.39321 9.41933L2.64055 13.8683L0.187343 17.5819C0.0223504 17.8322 0.0223504 18.1566 0.187343 18.4072L2.63322 22.1282L2.38559 26.5771C2.3683 26.8758 2.53036 27.1562 2.79822 27.2899L6.75951 29.2929L8.76258 33.2542C8.89856 33.5197 9.17726 33.6809 9.4753 33.6668L13.9242 33.4192L17.6379 35.8724C17.8867 36.0427 18.2143 36.0427 18.4632 35.8724L22.1768 33.4192L26.6258 33.6668C26.9244 33.6841 27.2046 33.5218 27.3385 33.2542L29.3416 29.2929L33.3028 27.2899C33.5681 27.1536 33.7295 26.8752 33.7155 26.5771L33.4678 22.1282L35.921 18.4145C36.086 18.1642 36.086 17.8395 35.921 17.5893L33.4828 13.8756ZM32.0872 21.513C31.9958 21.6473 31.9533 21.8087 31.9674 21.9708L32.1998 26.1794L28.4562 28.07C28.3135 28.1415 28.1977 28.2575 28.1262 28.4003L26.2354 32.1438L22.0268 31.9114C21.8656 31.9056 21.7065 31.9472 21.569 32.0313L18.0579 34.3497L14.547 32.0313C14.4251 31.9489 14.2815 31.9044 14.1344 31.9038H14.0969L9.88793 32.1365L7.9974 28.3926C7.92589 28.2499 7.81013 28.1342 7.66712 28.0627L3.91595 26.1794L4.14864 21.9708C4.1545 21.8096 4.11259 21.6505 4.02848 21.513L1.71038 18.0019L4.02848 14.4907C4.12021 14.3568 4.1627 14.195 4.14864 14.0333L3.91595 9.82434L7.65979 7.9338C7.80251 7.8623 7.91827 7.74654 7.98978 7.60382L9.88031 3.85997L14.0892 4.09266C14.2501 4.09823 14.4093 4.05661 14.547 3.97251L18.0579 1.6544L21.569 3.97251C21.7032 4.06423 21.865 4.10673 22.0268 4.09266L26.2354 3.85997L28.1262 7.60382C28.1977 7.74654 28.3135 7.8623 28.4562 7.9338L32.1998 9.82434L31.9674 14.0333C31.9615 14.1942 32.0034 14.3533 32.0872 14.4907L34.4056 18.0019L32.0872 21.513Z" fill="white"/>
</g>
<defs>
<clipPath id="clip0">
<rect width="36" height="36" fill="white"/>
</clipPath>
</defs>
</svg>
