<svg width="32" height="32" viewBox="0 0 32 32" fill="none" xmlns="http://www.w3.org/2000/svg">
<path d="M16 31.9058C7.23089 31.9058 0.0941772 24.7691 0.0941772 16C0.0941772 7.23083 7.23089 0.0941162 16 0.0941162C24.7692 0.0941162 31.9059 7.23083 31.9059 16C31.9059 24.7691 24.7692 31.9058 16 31.9058ZM16 1.32458C7.90355 1.32458 1.32465 7.91169 1.32465 16C1.32465 24.0883 7.90355 30.6754 16 30.6754C24.0965 30.6754 30.6754 24.0965 30.6754 16C30.6754 7.90349 24.0965 1.32458 16 1.32458Z" fill="white"/>
<path d="M16 4.17927C15.6637 4.17927 15.3848 3.90037 15.3848 3.56404V0.709351C15.3848 0.373022 15.6637 0.0941162 16 0.0941162C16.3364 0.0941162 16.6153 0.373022 16.6153 0.709351V3.56404C16.6153 3.90037 16.3364 4.17927 16 4.17927Z" fill="white"/>
<path d="M24.7938 7.82146C24.6379 7.82146 24.4821 7.76404 24.359 7.64099C24.1211 7.4031 24.1211 7.00935 24.359 6.77146L26.377 4.75349C26.6149 4.5156 27.0086 4.5156 27.2465 4.75349C27.4844 4.99138 27.4844 5.38513 27.2465 5.62302L25.2285 7.64099C25.1055 7.76404 24.9496 7.82146 24.7938 7.82146Z" fill="white"/>
<path d="M31.2907 16.6152H28.436C28.0996 16.6152 27.8207 16.3363 27.8207 16C27.8207 15.6637 28.0996 15.3848 28.436 15.3848H31.2907C31.627 15.3848 31.9059 15.6637 31.9059 16C31.9059 16.3363 31.6352 16.6152 31.2907 16.6152Z" fill="white"/>
<path d="M26.8117 27.4269C26.6559 27.4269 26.5 27.3695 26.377 27.2465L24.359 25.2285C24.1211 24.9906 24.1211 24.5969 24.359 24.359C24.5969 24.1211 24.9907 24.1211 25.2285 24.359L27.2465 26.3769C27.4844 26.6148 27.4844 27.0086 27.2465 27.2465C27.1317 27.3695 26.9676 27.4269 26.8117 27.4269Z" fill="white"/>
<path d="M16 31.9058C15.6637 31.9058 15.3848 31.6269 15.3848 31.2906V28.4359C15.3848 28.0996 15.6637 27.8207 16 27.8207C16.3364 27.8207 16.6153 28.0996 16.6153 28.4359V31.2906C16.6153 31.6351 16.3364 31.9058 16 31.9058Z" fill="white"/>
<path d="M5.18832 27.4269C5.03246 27.4269 4.8766 27.3695 4.75355 27.2465C4.51566 27.0086 4.51566 26.6148 4.75355 26.3769L6.77153 24.359C7.00942 24.1211 7.40317 24.1211 7.64106 24.359C7.87895 24.5969 7.87895 24.9906 7.64106 25.2285L5.62309 27.2465C5.50004 27.3695 5.34418 27.4269 5.18832 27.4269Z" fill="white"/>
<path d="M3.5641 16.6152H0.709412C0.373084 16.6152 0.0941772 16.3363 0.0941772 16C0.0941772 15.6637 0.373084 15.3848 0.709412 15.3848H3.5641C3.90043 15.3848 4.17933 15.6637 4.17933 16C4.17933 16.3363 3.90043 16.6152 3.5641 16.6152Z" fill="white"/>
<path d="M7.20629 7.82146C7.05043 7.82146 6.89457 7.76404 6.77153 7.64099L4.75355 5.62302C4.51566 5.38513 4.51566 4.99138 4.75355 4.75349C4.99144 4.5156 5.38519 4.5156 5.62309 4.75349L7.64106 6.77146C7.87895 7.00935 7.87895 7.4031 7.64106 7.64099C7.51801 7.76404 7.36215 7.82146 7.20629 7.82146Z" fill="white"/>
<path d="M16 18.5347C14.6055 18.5347 13.4653 17.3945 13.4653 16C13.4653 14.6054 14.6055 13.4652 16 13.4652C17.3946 13.4652 18.5348 14.6054 18.5348 16C18.5348 17.3945 17.3946 18.5347 16 18.5347ZM16 14.6957C15.2782 14.6957 14.6957 15.2781 14.6957 16C14.6957 16.7219 15.2782 17.3043 16 17.3043C16.7219 17.3043 17.3043 16.7219 17.3043 16C17.3043 15.2781 16.7219 14.6957 16 14.6957Z" fill="white"/>
<path d="M16 14.6957C15.6637 14.6957 15.3848 14.4168 15.3848 14.0804V9.28162C15.3848 8.94529 15.6637 8.66638 16 8.66638C16.3364 8.66638 16.6153 8.94529 16.6153 9.28162V14.0804C16.6153 14.4168 16.3364 14.6957 16 14.6957Z" fill="white"/>
<path d="M14.0805 16.6152H8.49417C8.15784 16.6152 7.87894 16.3363 7.87894 16C7.87894 15.6637 8.15784 15.3848 8.49417 15.3848H14.0805C14.4168 15.3848 14.6957 15.6637 14.6957 16C14.6957 16.3363 14.4168 16.6152 14.0805 16.6152Z" fill="white"/>
</svg>
