<svg width="25" height="32" viewBox="0 0 25 32" fill="none" xmlns="http://www.w3.org/2000/svg">
<path d="M24.0862 10.4138C24.0345 10.1164 23.7371 9.89659 23.4396 9.89659H22.9871C22.6379 9.89659 22.2888 9.89659 21.9267 9.89659C21.694 8.95262 21.319 8.04745 20.8017 7.20693L20.944 7.06469C21.2543 6.75435 21.5776 6.43107 21.8879 6.12072C22.1077 5.9009 22.1336 5.56469 21.9526 5.319C21.1767 4.24572 20.2328 3.30176 19.1595 2.53883C18.9138 2.35779 18.5776 2.39659 18.3578 2.61641C18.1638 2.81038 17.9698 3.01728 17.7629 3.21124C17.6078 3.36641 17.4396 3.53452 17.2715 3.70262C16.431 3.19831 15.5259 2.82331 14.569 2.59055C14.569 2.47417 14.569 2.37072 14.569 2.25434V2.06038C14.569 2.03452 14.569 2.00865 14.569 1.98279V1.67245C14.569 1.47848 14.569 1.28452 14.569 1.06469C14.569 0.754344 14.3491 0.495723 14.0517 0.45693C12.7457 0.250034 11.5043 0.250034 10.1983 0.45693C9.88792 0.508654 9.6681 0.780206 9.68103 1.10348C9.68103 1.29745 9.68103 1.49141 9.68103 1.68538V1.99572C9.68103 2.02159 9.68103 2.04745 9.68103 2.07331V2.26728C9.68103 2.38365 9.68103 2.50003 9.68103 2.60348C8.73706 2.83624 7.83189 3.21124 6.97844 3.71555C6.81034 3.54745 6.65517 3.39228 6.48706 3.22417C6.2931 3.03021 6.0862 2.83624 5.89223 2.62934C5.68534 2.40952 5.3362 2.38365 5.09051 2.55176C4.03017 3.30176 3.0862 4.24572 2.31034 5.319C2.1293 5.56469 2.1681 5.91383 2.37499 6.12072C2.69827 6.43107 3.00861 6.75435 3.31896 7.06469L3.4612 7.20693C2.95689 8.04745 2.58189 8.95262 2.3362 9.89659C1.98706 9.89659 1.63792 9.89659 1.27586 9.89659H0.784477C0.474132 9.89659 0.215511 10.1164 0.176718 10.4268C0.0732696 11.1121 0.0215454 11.7587 0.0215454 12.3923C0.0215454 13.0518 0.0732696 13.7112 0.176718 14.3578C0.228442 14.6423 0.487063 14.8621 0.771545 14.875C0.797407 14.875 0.8362 14.875 0.900856 14.875C1.2112 14.875 1.50861 14.875 1.81896 14.875C1.98706 14.875 2.15517 14.875 2.32327 14.875C2.56896 15.8319 2.94396 16.7371 3.4612 17.5906C3.13792 17.9138 2.81465 18.2242 2.49137 18.5604C2.43965 18.6121 2.38792 18.6638 2.34913 18.7156C2.15517 18.9354 2.14224 19.2457 2.31034 19.4785C3.0862 20.5388 4.01724 21.4699 5.09051 22.2328C5.3362 22.4138 5.7112 22.3492 5.93103 22.1164C6.13792 21.8966 6.35775 21.6897 6.56465 21.4699C6.70689 21.3406 6.8362 21.1983 6.96551 21.069C7.08189 21.1337 7.19827 21.2112 7.32758 21.2759C7.62499 21.444 7.99999 21.3276 8.1681 21.0302C8.3362 20.7328 8.21982 20.3578 7.92241 20.1897C7.65086 20.0474 7.4181 19.9052 7.22413 19.763C6.99137 19.6078 6.68103 19.6337 6.47413 19.8147L6.37068 19.8923C6.35775 19.9052 6.34482 19.9181 6.33189 19.9311C6.12499 20.1509 5.90517 20.3707 5.68534 20.5906C5.58189 20.694 5.47844 20.7974 5.37499 20.9009C4.72844 20.3837 4.13361 19.8018 3.6293 19.1552C3.93965 18.8319 4.26292 18.5216 4.59913 18.1983C4.66379 18.1337 4.72844 18.069 4.76723 18.0043C4.90948 17.7974 4.90948 17.5259 4.76723 17.319C4.10775 16.3362 3.65517 15.25 3.43534 14.1121C3.38361 13.8276 3.12499 13.6078 2.82758 13.6078H2.76292C2.45258 13.6078 2.14224 13.6078 1.83189 13.6078C1.66379 13.6078 1.49568 13.6078 1.34051 13.6078C1.28879 13.194 1.27586 12.7802 1.27586 12.3664C1.27586 11.9526 1.30172 11.5388 1.35344 11.1121C1.78017 11.1121 2.20689 11.1121 2.62068 11.125C2.74999 11.138 2.89224 11.125 3.02155 11.0862C3.2543 11.0216 3.42241 10.8406 3.4612 10.6078C3.68103 9.48279 4.12068 8.43538 4.76723 7.46555C4.89655 7.25866 4.90948 7.00004 4.78017 6.79314C4.71551 6.67676 4.62499 6.58624 4.52154 6.49572L4.48275 6.45693L4.2112 6.18538C4.01723 5.99141 3.8362 5.79745 3.64223 5.61641C4.15948 4.95693 4.7543 4.37503 5.41379 3.85779C5.49137 3.93538 5.55603 4.00003 5.63361 4.07762C5.86637 4.31038 6.09913 4.53021 6.30603 4.75003C6.43534 4.89228 6.56465 4.98279 6.71982 5.03452C6.90086 5.09917 7.10775 5.07331 7.27586 4.96986C8.24568 4.33624 9.30603 3.89659 10.431 3.67676C10.6638 3.62503 10.8578 3.45693 10.9095 3.21124C10.9353 3.12072 10.9483 3.03021 10.9353 2.9009C10.9224 2.68107 10.9224 2.46124 10.9353 2.22848V1.944C10.9353 1.91814 10.9353 1.89228 10.9353 1.86641V1.63365C10.9353 1.60779 10.9353 1.58193 10.9353 1.54314C11.75 1.45262 12.5388 1.45262 13.3534 1.54314C13.3534 1.569 13.3534 1.59486 13.3534 1.63365V1.85348C13.3534 1.87934 13.3534 1.90521 13.3534 1.93107V2.21555C13.3534 2.43538 13.3534 2.65521 13.3405 2.91383C13.3405 3.01728 13.3534 3.10779 13.3793 3.19831C13.431 3.43107 13.625 3.6121 13.8578 3.66383C14.9828 3.88365 16.0431 4.31038 17.0129 4.95693C17.181 5.06038 17.375 5.08624 17.569 5.02159C17.7112 4.96986 17.8534 4.87934 17.9698 4.75003C18.1896 4.51728 18.4224 4.28452 18.6552 4.06469C18.7327 3.9871 18.7974 3.92245 18.875 3.84486C19.5345 4.3621 20.1293 4.95693 20.6465 5.60348C20.4526 5.79745 20.2586 5.99141 20.0776 6.17245L19.806 6.444L19.7672 6.48279C19.6638 6.58624 19.5862 6.67676 19.5086 6.78021C19.3793 6.9871 19.3922 7.24573 19.5215 7.45262C20.1681 8.42245 20.6077 9.46986 20.8276 10.5949C20.8793 10.8276 21.0474 11.0087 21.2672 11.0733C21.3965 11.1121 21.5259 11.125 21.6422 11.1121C22.069 11.0992 22.4957 11.0992 22.9224 11.0992C22.9741 11.513 22.9871 11.9397 22.9871 12.3535C22.9871 12.7673 22.9612 13.194 22.9224 13.5949C22.7543 13.5949 22.5862 13.5949 22.431 13.5949C22.1207 13.5949 21.8103 13.5949 21.5 13.5949H21.4353C21.1379 13.5949 20.8922 13.8018 20.8276 14.0992C20.5948 15.2371 20.1552 16.3104 19.4957 17.3061C19.3534 17.513 19.3534 17.7845 19.4957 17.9914C19.5345 18.0561 19.5862 18.1078 19.6638 18.1854C19.9871 18.4957 20.2974 18.819 20.6207 19.1423C20.1034 19.7888 19.5215 20.3707 18.875 20.888C18.7586 20.7716 18.6422 20.6552 18.5259 20.5388C18.319 20.3319 18.1121 20.138 17.9181 19.9311C17.9052 19.9181 17.8922 19.9052 17.8793 19.8923L17.7629 19.8018C17.556 19.6207 17.2457 19.6078 17.0259 19.763C16.806 19.9181 16.5733 20.0475 16.3276 20.1768C16.0302 20.3449 15.9138 20.7199 16.0819 21.0173C16.25 21.3147 16.625 21.4311 16.9224 21.263C17.0517 21.1983 17.1681 21.1207 17.2974 21.0561C17.4138 21.1725 17.5431 21.3018 17.6595 21.4181C17.8922 21.6509 18.1121 21.8707 18.3319 22.1035C18.3707 22.1423 18.4353 22.2069 18.4741 22.2328C18.5776 22.2975 18.694 22.3362 18.8233 22.3362C18.9526 22.3362 19.0819 22.2975 19.1853 22.2199C20.2586 21.4569 21.1896 20.5259 21.9526 19.4656C22.1207 19.2328 22.1078 18.9095 21.9138 18.7026C21.875 18.6509 21.8233 18.5992 21.7586 18.5345C21.4353 18.2112 21.125 17.888 20.8017 17.5776C21.319 16.7242 21.694 15.8061 21.9396 14.8621C22.1078 14.8621 22.2759 14.8621 22.444 14.8621C22.7543 14.8621 23.0517 14.8621 23.3621 14.8621C23.4138 14.8621 23.4655 14.8621 23.4784 14.8621C23.7759 14.8621 24.0345 14.6423 24.0862 14.3449C24.1896 13.6983 24.2414 13.0388 24.2414 12.3793C24.2414 11.7199 24.1896 11.0604 24.0862 10.4138Z" fill="white"/>
<path d="M15.0086 16.5691C15.0086 16.4139 14.9698 16.2458 14.8922 16.1036L13.0302 12.5863C12.9784 12.4958 12.9138 12.4053 12.8621 12.3665C12.6681 12.1725 12.4095 12.0562 12.1638 12.0691C11.8793 12.0562 11.6207 12.1725 11.4655 12.3406C11.3879 12.4182 11.3233 12.4958 11.2716 12.5993L9.40948 16.1165C9.3319 16.2587 9.2931 16.4139 9.2931 16.582L9.24138 29.5777C9.22845 30.7286 10.1336 31.6725 11.2845 31.7113L12.1767 31.7372L13.0302 31.7113C14.181 31.6725 15.0733 30.7415 15.0733 29.5777L15.0086 16.5691ZM12.1379 13.5562L13.4828 16.0906H10.806L12.1379 13.5562ZM12.9655 30.457L12.1509 30.4829L11.2974 30.457C10.819 30.4441 10.444 30.0562 10.444 29.5648L10.4957 17.3191H13.7543L13.806 29.5648C13.819 30.0432 13.444 30.4312 12.9655 30.457Z" fill="white"/>
</svg>
