<svg width="30" height="30" viewBox="0 0 30 30" fill="none" xmlns="http://www.w3.org/2000/svg">
<path d="M17.2521 25.5006C15.0324 24.4348 13.5959 22.1503 13.5959 19.6897C13.5959 18.6378 13.8554 17.5905 14.3466 16.6684C14.4995 16.3811 14.3883 16.0289 14.1057 15.876C13.8183 15.723 13.4662 15.8343 13.3133 16.1169C12.734 17.2105 12.4235 18.4432 12.4235 19.6897C12.4235 21.154 12.8406 22.572 13.6237 23.8C14.3883 24.9909 15.468 25.9455 16.7424 26.5618C16.8258 26.5989 16.9092 26.622 16.9972 26.622C17.215 26.622 17.4235 26.5015 17.5255 26.2884C17.6645 25.9918 17.544 25.6443 17.2521 25.5006Z" fill="white"/>
<path d="M22.7016 10.088C22.6321 9.91659 22.544 9.75904 22.4421 9.61075H23.9666C25.4541 9.61075 26.6636 8.4013 26.6636 6.91381C26.6636 5.42632 25.4541 4.21687 23.9666 4.21687H19.2725C19.569 3.78128 19.7451 3.25765 19.7451 2.69231C19.7451 1.20945 18.5403 0 17.0528 0H2.69694C1.20945 0 0 1.20945 0 2.69694C0 4.18443 1.20945 5.39388 2.69694 5.39388H7.3911C7.09453 5.82947 6.91844 6.35311 6.91844 6.91844C6.91844 7.48378 7.09453 8.00741 7.3911 8.443H5.86191C4.37442 8.443 3.16497 9.65246 3.16497 11.1399C3.16497 11.9926 3.56348 12.7572 4.18443 13.2484C3.56348 13.7442 3.16497 14.5042 3.16497 15.3568C3.16497 16.2095 3.56348 16.9741 4.18443 17.4652C3.56348 17.9611 3.16497 18.721 3.16497 19.5737C3.16497 20.4263 3.56348 21.1909 4.18443 21.6821C3.56348 22.1779 3.16497 22.9379 3.16497 23.7905C3.16497 25.278 4.37442 26.4875 5.86191 26.4875H12.7665C14.5876 28.4337 17.1733 29.6525 20.0417 29.6525C25.5329 29.6525 30.0046 25.1854 30.0046 19.6895C30 15.1158 26.9045 11.2558 22.7016 10.088ZM23.9666 5.38925C24.8054 5.38925 25.4912 6.07044 25.4912 6.91381C25.4912 7.75718 24.81 8.43837 23.9666 8.43837H9.61075C8.77201 8.43837 8.08619 7.75718 8.08619 6.91381C8.08619 6.07044 8.76738 5.38925 9.61075 5.38925H23.9666ZM2.69694 4.21687C1.85357 4.21687 1.17238 3.53568 1.17238 2.69694C1.17238 1.85357 1.85357 1.17238 2.69694 1.17238H17.0528C17.8916 1.17238 18.5774 1.85357 18.5774 2.69694C18.5774 3.53568 17.8962 4.2215 17.0528 4.2215H2.69694V4.21687ZM5.86191 9.61075H20.2178C20.4541 9.61075 20.6812 9.66636 20.8804 9.76367C20.6024 9.7405 20.3244 9.7266 20.0417 9.7266C17.2892 9.7266 14.7961 10.848 12.9935 12.6552H5.86191C5.02317 12.6552 4.33735 11.9741 4.33735 11.1307C4.33735 10.2919 5.01854 9.61075 5.86191 9.61075ZM5.86191 13.8276H11.9926C11.3253 14.7405 10.8109 15.7646 10.4866 16.8767H5.86191C5.02317 16.8767 4.33735 16.1956 4.33735 15.3522C4.33735 14.5134 5.01854 13.8276 5.86191 13.8276ZM5.86191 18.0491H10.2178C10.1298 18.582 10.0834 19.1288 10.0834 19.6895C10.0834 20.1668 10.1158 20.6348 10.1854 21.0936H5.86654C5.0278 21.0936 4.34198 20.4124 4.34198 19.569C4.33735 18.7303 5.01854 18.0491 5.86191 18.0491ZM5.86191 25.3151C5.02317 25.3151 4.33735 24.6339 4.33735 23.7905C4.33735 22.9518 5.01854 22.266 5.86191 22.266H10.4217C10.7183 23.3689 11.1956 24.3976 11.8258 25.3151H5.86191ZM20.0417 28.4801C15.1946 28.4801 11.2512 24.5366 11.2512 19.6895C11.2512 14.8424 15.1946 10.899 20.0417 10.899C24.8888 10.899 28.8323 14.8424 28.8323 19.6895C28.8276 24.5366 24.8888 28.4801 20.0417 28.4801Z" fill="white"/>
<path d="M20.9592 12.0713H20.9175C20.5931 12.0713 20.3336 12.3354 20.3336 12.6552C20.3336 12.9795 20.5978 13.239 20.9175 13.239H20.95H20.9546C21.279 13.239 21.5385 12.9795 21.5385 12.6552C21.5431 12.3354 21.2836 12.0713 20.9592 12.0713Z" fill="white"/>
<path d="M19.1613 26.1353H19.1288C18.8044 26.1353 18.5403 26.3948 18.5403 26.7191C18.5403 27.0435 18.7998 27.3076 19.1242 27.3076H19.1613C19.4856 27.3076 19.7451 27.0435 19.7451 26.7238C19.7451 26.3948 19.4856 26.1353 19.1613 26.1353Z" fill="white"/>
<path d="M26.4551 15.5793C25.6905 14.3883 24.6108 13.4338 23.3364 12.8174C23.0445 12.6784 22.6923 12.7989 22.5533 13.0908C22.4143 13.3828 22.5348 13.7303 22.8267 13.874C25.0463 14.9398 26.4829 17.2243 26.4829 19.6849C26.4829 20.7368 26.2234 21.7841 25.7322 22.7062C25.5792 22.9935 25.6905 23.3457 25.9731 23.4986C26.0612 23.545 26.1539 23.5681 26.2465 23.5681C26.4551 23.5681 26.6589 23.4569 26.7655 23.2577C27.3448 22.1641 27.6552 20.9314 27.6552 19.6849C27.6599 18.2252 27.2428 16.8072 26.4551 15.5793Z" fill="white"/>
</svg>
