<svg width="34" height="33" viewBox="0 0 34 33" fill="none" xmlns="http://www.w3.org/2000/svg">
<path d="M25.9358 23.3175V21.1C26.3383 21.189 26.7409 21.367 27.151 21.6043C27.2725 21.671 27.3864 21.7081 27.5079 21.7081C27.8725 21.7081 28.1687 21.4337 28.1687 21.0703C28.1687 20.7959 28.0016 20.6179 27.8117 20.5141C27.2649 20.1803 26.6801 19.9578 25.9814 19.8763V19.6241C25.9814 19.3497 25.7535 19.1272 25.4725 19.1272C25.1915 19.1272 24.9561 19.3497 24.9561 19.6241V19.8688C23.4827 19.9875 22.4726 20.8404 22.4726 22.0715C22.4726 23.3768 23.2776 24.0072 25.0017 24.4448V26.7142C24.3485 26.5955 23.8093 26.3359 23.2548 25.9429C23.1485 25.8613 23.0042 25.8168 22.8675 25.8168C22.503 25.8168 22.2144 26.0912 22.2144 26.4546C22.2144 26.6994 22.3359 26.8848 22.5333 27.0108C23.2548 27.5077 24.0675 27.8192 24.9561 27.9082V28.6202C24.9561 28.8946 25.1915 29.1171 25.4725 29.1171C25.7535 29.1171 25.9814 28.8946 25.9814 28.6202V27.9305C27.4852 27.7896 28.4953 26.9515 28.4953 25.6833C28.5029 24.4596 27.7358 23.755 25.9358 23.3175ZM25.0017 23.0727C24.0903 22.7835 23.87 22.4868 23.87 21.9973C23.87 21.493 24.2498 21.1 25.0017 21.0258V23.0727ZM25.9358 26.7735V24.6747C26.8472 24.9491 27.1054 25.2606 27.1054 25.7723C27.1054 26.3285 26.6953 26.6919 25.9358 26.7735Z" fill="white"/>
<path d="M5.90073 11.9183C5.64251 11.9999 5.51339 12.1927 5.51339 12.4227C5.51339 12.6971 5.74124 12.9196 6.06782 12.9196H11.2399C11.5969 12.9196 11.8779 12.6526 11.8779 12.3114C11.8779 11.9628 11.5969 11.6884 11.2399 11.6884H7.98172V9.71567H10.3665C10.7007 9.71567 10.9817 9.44868 10.9817 9.11494C10.9817 8.78862 10.7007 8.51421 10.3665 8.51421H7.98172V7.49075C7.98172 7.00868 8.12602 6.62303 8.36905 6.37087C8.5969 6.16321 8.86272 6.04455 9.24246 6.04455C9.78929 6.04455 10.1387 6.26704 10.5032 6.64527C10.5943 6.7491 10.7614 6.86777 11.0197 6.86777C11.4222 6.86777 11.7412 6.57111 11.7412 6.17804C11.7412 5.95555 11.65 5.7998 11.5133 5.67373C10.9969 5.13233 10.2981 4.73926 9.21208 4.73926C8.36146 4.73926 7.68552 4.99142 7.22983 5.45123C6.75895 5.91105 6.50072 6.61561 6.50072 7.46108V8.52163H6.12098C5.77921 8.52163 5.5058 8.79603 5.5058 9.12235C5.5058 9.45609 5.77921 9.72308 6.12098 9.72308H6.50072V11.7552L5.90073 11.9183Z" fill="white"/>
<path d="M25.3587 16.4497C24.2346 16.4497 23.141 16.6796 22.1233 17.1246C19.3056 18.3631 17.4904 21.1146 17.4904 24.1331C17.4904 24.2147 17.4904 24.3037 17.498 24.3853C17.5664 26.3877 18.4094 28.2566 19.8828 29.6509C21.3562 31.0526 23.3081 31.8165 25.3587 31.8165C29.6953 31.8165 33.2269 28.3679 33.2269 24.1331C33.2269 19.8983 29.7029 16.4497 25.3587 16.4497ZM25.3587 30.7782C21.66 30.7782 18.6752 27.9525 18.5537 24.3482C18.5537 24.274 18.5537 24.2073 18.5537 24.1331C18.5537 21.5225 20.1258 19.1493 22.5638 18.0739C23.4448 17.6882 24.3865 17.488 25.3587 17.488C29.1105 17.488 32.1636 20.4694 32.1636 24.1331C32.1636 27.7968 29.1105 30.7782 25.3587 30.7782Z" fill="white"/>
<path d="M8.69563 16.5091C10.7538 16.5091 12.6981 15.7378 14.1715 14.3435C15.6449 12.9493 16.4879 11.0803 16.5562 9.07789C16.5562 8.99631 16.5638 8.90731 16.5638 8.82573C16.5638 5.80725 14.7411 3.06318 11.931 1.81723C10.9133 1.36483 9.81966 1.14233 8.69563 1.14233C4.359 1.14233 0.827423 4.59096 0.827423 8.82573C0.827423 13.0605 4.35141 16.5091 8.69563 16.5091ZM8.69563 2.18063C9.66777 2.18063 10.6095 2.38087 11.4905 2.76653C13.9284 3.84191 15.5006 6.22257 15.5006 8.82573C15.5006 8.89989 15.5006 8.96664 15.5006 9.0408C15.3791 12.6452 12.3943 15.4708 8.69563 15.4708C4.9438 15.4708 1.89069 12.4894 1.89069 8.82573C1.89069 5.16203 4.9438 2.18063 8.69563 2.18063Z" fill="white"/>
<path d="M24.3713 2.77388V1.3351C24.3713 1.13485 24.2574 0.956861 24.0751 0.867864C23.8929 0.778867 23.6802 0.801116 23.5207 0.919779L17.7031 5.25096C17.574 5.34737 17.4904 5.50312 17.4904 5.66628C17.4904 5.82944 17.5664 5.97777 17.7031 6.0816L23.5207 10.4128C23.6802 10.5314 23.9005 10.5537 24.0751 10.4647C24.2574 10.3757 24.3713 10.1977 24.3713 9.99746V8.78117C26.9612 9.30032 29.232 10.9393 30.5004 13.231C31.0092 14.1507 31.3434 15.137 31.4877 16.1753C31.5257 16.4349 31.7459 16.6203 32.0117 16.6203H32.6953C32.9915 16.6203 33.2269 16.3904 33.2269 16.1012V12.5413C33.2269 10.0939 32.3003 7.74287 30.6143 5.93327C28.9814 4.16817 26.7713 3.0557 24.3713 2.77388ZM32.1636 14.4028C31.9738 13.8243 31.7307 13.2681 31.4345 12.7341C29.9383 10.0271 27.1966 8.13594 24.0979 7.67613C24.0372 7.66871 23.9764 7.66129 23.9081 7.64646C23.8853 7.64646 23.8625 7.63905 23.8321 7.63905C23.703 7.63905 23.5815 7.68354 23.4828 7.76512C23.3688 7.86154 23.3005 8.00987 23.3005 8.15819V8.93692L18.8879 5.65886L23.3005 2.38081V3.24111C23.3005 3.51552 23.5131 3.73801 23.7941 3.76026C23.8929 3.76768 23.9916 3.7751 24.0827 3.78251C28.6852 4.24975 32.156 8.00987 32.156 12.5339V14.4028H32.1636Z" fill="white"/>
<path d="M16.3512 26.8844L10.5336 22.5532C10.3741 22.4346 10.1538 22.4123 9.97915 22.5013C9.79688 22.5903 9.68296 22.7683 9.68296 22.9686V24.1848C7.09313 23.6657 4.82229 22.0267 3.55396 19.735C3.0451 18.8154 2.71093 17.829 2.56663 16.7907C2.52866 16.5311 2.30841 16.3457 2.04259 16.3457H1.35906C1.06286 16.3457 0.827423 16.5756 0.827423 16.8649V20.4247C0.827423 22.8721 1.75399 25.2231 3.44003 27.0327C5.07291 28.7904 7.2906 29.9103 9.68296 30.1921V31.6309C9.68296 31.8312 9.79688 32.0092 9.97915 32.0982C10.0551 32.1352 10.1311 32.1501 10.2146 32.1501C10.3285 32.1501 10.4424 32.113 10.5336 32.0462L16.3512 27.7151C16.4803 27.6186 16.5638 27.4629 16.5638 27.2997C16.5638 27.1366 16.4879 26.9808 16.3512 26.8844ZM10.7462 30.5778V29.7175C10.7462 29.4431 10.5336 29.2206 10.2526 29.1983C10.1538 29.1909 10.0551 29.1835 9.96396 29.1761C5.36152 28.7089 1.89069 24.9487 1.89069 20.4247V18.5558C2.08056 19.1343 2.3236 19.6905 2.6198 20.2245C4.11597 22.9315 6.85769 24.8227 9.95637 25.2825C10.0171 25.2899 10.0779 25.2973 10.1462 25.3121C10.2981 25.3344 10.45 25.2899 10.5715 25.1861C10.6855 25.0896 10.7538 24.9413 10.7538 24.793V24.0143L15.1664 27.2923L10.7462 30.5778Z" fill="white"/>
</svg>
