<svg width="18" height="18" viewBox="0 0 18 18" fill="none" xmlns="http://www.w3.org/2000/svg">
<path d="M13.6287 8.89594C13.0042 8.89594 12.3966 9.02674 11.8312 9.2799C10.2658 9.98454 9.25739 11.5499 9.25739 13.2672C9.25739 13.3137 9.25739 13.3643 9.2616 13.4107C9.29958 14.5499 9.76793 15.6132 10.5865 16.4065C11.4051 17.204 12.4895 17.6385 13.6287 17.6385C16.038 17.6385 18 15.6765 18 13.2672C18 10.858 16.0422 8.89594 13.6287 8.89594ZM13.6287 17.0478C11.5738 17.0478 9.91561 15.4402 9.8481 13.3896C9.8481 13.3474 9.8481 13.3094 9.8481 13.2672C9.8481 11.782 10.7215 10.4318 12.076 9.81999C12.5654 9.60058 13.0886 9.48665 13.6287 9.48665C15.7131 9.48665 17.4093 11.1829 17.4093 13.2672C17.4093 15.3516 15.7131 17.0478 13.6287 17.0478Z" fill="white"/>
<path d="M4.37131 8.92969C5.51477 8.92969 6.59494 8.49087 7.4135 7.69762C8.23207 6.90437 8.70042 5.84108 8.7384 4.70184C8.7384 4.65543 8.74262 4.60479 8.74262 4.55838C8.74262 2.84108 7.72996 1.2799 6.16878 0.571039C5.60337 0.313655 4.99578 0.187073 4.37131 0.187073C1.96203 0.187073 0 2.1491 0 4.55838C0 6.96766 1.95781 8.92969 4.37131 8.92969ZM4.37131 0.77779C4.91139 0.77779 5.4346 0.891714 5.92405 1.11112C7.27848 1.72294 8.1519 3.07737 8.1519 4.55838C8.1519 4.60057 8.1519 4.63855 8.1519 4.68074C8.08439 6.73138 6.42616 8.33897 4.37131 8.33897C2.28692 8.33897 0.590717 6.64277 0.590717 4.55838C0.590717 2.47399 2.28692 0.77779 4.37131 0.77779Z" fill="white"/>
<path d="M13.0802 1.11533V0.296765C13.0802 0.182841 13.0169 0.0815756 12.9156 0.0309427C12.8143 -0.0196903 12.6962 -0.007032 12.6076 0.0604786L9.37553 2.52461C9.3038 2.57947 9.25739 2.66807 9.25739 2.7609C9.25739 2.85373 9.29958 2.93812 9.37553 2.99719L12.6076 5.46132C12.6962 5.52883 12.8186 5.54149 12.9156 5.49086C13.0169 5.44023 13.0802 5.33896 13.0802 5.22504V4.53305C14.519 4.82841 15.7806 5.7609 16.4852 7.0647C16.7679 7.5879 16.9536 8.14909 17.0338 8.7398C17.0549 8.88748 17.1772 8.99297 17.3249 8.99297H17.7046C17.8692 8.99297 18 8.86217 18 8.69761V6.67229C18 5.27989 17.4852 3.94234 16.5485 2.9128C15.6414 1.90858 14.4135 1.27567 13.0802 1.11533ZM17.4093 7.73136C17.3038 7.40225 17.1688 7.08579 17.0042 6.782C16.173 5.24191 14.6498 4.16596 12.9283 3.90436C12.8945 3.90014 12.8608 3.89592 12.8228 3.88748C12.8101 3.88748 12.7975 3.88326 12.7806 3.88326C12.7089 3.88326 12.6414 3.90858 12.5865 3.95499C12.5232 4.00985 12.4852 4.09423 12.4852 4.17862V4.62166L10.0338 2.75668L12.4852 0.891702V1.38115C12.4852 1.53727 12.6034 1.66385 12.7595 1.67651C12.8143 1.68073 12.8692 1.68495 12.9198 1.68917C15.4768 1.95499 17.4051 4.09423 17.4051 6.66807V7.73136H17.4093Z" fill="white"/>
<path d="M8.62447 14.8326L5.39241 12.3685C5.3038 12.301 5.18143 12.2883 5.08439 12.339C4.98312 12.3896 4.91983 12.4909 4.91983 12.6048V13.2968C3.48101 13.0014 2.21941 12.0689 1.51477 10.7651C1.23207 10.2419 1.04641 9.68074 0.966245 9.09002C0.945148 8.94234 0.822785 8.83685 0.675105 8.83685H0.295359C0.130802 8.83685 0 8.96766 0 9.13221V11.1575C0 12.5499 0.514768 13.8875 1.45148 14.917C2.35865 15.917 3.59072 16.5542 4.91983 16.7145V17.5331C4.91983 17.647 4.98312 17.7482 5.08439 17.7989C5.12658 17.82 5.16878 17.8284 5.21519 17.8284C5.27848 17.8284 5.34177 17.8073 5.39241 17.7693L8.62447 15.3052C8.6962 15.2504 8.74262 15.1617 8.74262 15.0689C8.74262 14.9761 8.70042 14.8875 8.62447 14.8326ZM5.51055 16.9339V16.4444C5.51055 16.2883 5.39241 16.1617 5.23629 16.1491C5.18143 16.1449 5.12658 16.1407 5.07595 16.1364C2.51899 15.8706 0.590717 13.7314 0.590717 11.1575V10.0942C0.696203 10.4234 0.831224 10.7398 0.995781 11.0436C1.827 12.5837 3.35021 13.6596 5.07173 13.9212C5.10548 13.9255 5.13924 13.9297 5.17721 13.9381C5.2616 13.9508 5.34599 13.9255 5.4135 13.8664C5.47679 13.8115 5.51477 13.7271 5.51477 13.6428V13.1997L7.96624 15.0647L5.51055 16.9339Z" fill="white"/>
</svg>
