<svg width="32" height="32" viewBox="0 0 32 32" fill="none" xmlns="http://www.w3.org/2000/svg">
<path d="M29.8667 0H19.2C18.0218 0 17.0667 0.955126 17.0667 2.13333V8.53333C17.0667 9.71154 18.0218 10.6667 19.2 10.6667H19.5291L19.2043 13.2672C19.1769 13.4867 19.2879 13.7003 19.4832 13.8041C19.6785 13.9079 19.9176 13.8804 20.0843 13.7349L23.5925 10.6667H29.8667C31.0449 10.6667 32 9.71154 32 8.53333V2.13333C32 0.955126 31.0449 0 29.8667 0ZM30.9333 8.53333C30.9333 9.12244 30.4558 9.6 29.8667 9.6H23.392C23.2629 9.6 23.1383 9.64681 23.0411 9.73173L20.4363 12.0101L20.6624 10.1995C20.6814 10.0477 20.6343 9.89509 20.5331 9.78042C20.4318 9.66575 20.2863 9.60004 20.1333 9.6H19.2C18.6109 9.6 18.1333 9.12244 18.1333 8.53333V2.13333C18.1333 1.54423 18.6109 1.06667 19.2 1.06667H29.8667C30.4558 1.06667 30.9333 1.54423 30.9333 2.13333V8.53333Z" fill="white"/>
<path d="M20.8 3.7334C19.9163 3.7334 19.2 4.44974 19.2 5.3334C19.2 6.21705 19.9163 6.9334 20.8 6.9334C21.6837 6.9334 22.4 6.21705 22.4 5.3334C22.4 4.44974 21.6837 3.7334 20.8 3.7334ZM20.8 5.86673C20.5054 5.86673 20.2667 5.62795 20.2667 5.3334C20.2667 5.03885 20.5054 4.80007 20.8 4.80007C21.0945 4.80007 21.3333 5.03885 21.3333 5.3334C21.3333 5.62795 21.0945 5.86673 20.8 5.86673Z" fill="white"/>
<path d="M24.5333 3.7334C23.6497 3.7334 22.9333 4.44974 22.9333 5.3334C22.9333 6.21705 23.6497 6.9334 24.5333 6.9334C25.417 6.9334 26.1333 6.21705 26.1333 5.3334C26.1333 4.44974 25.417 3.7334 24.5333 3.7334ZM24.5333 5.86673C24.2388 5.86673 24 5.62795 24 5.3334C24 5.03885 24.2388 4.80007 24.5333 4.80007C24.8279 4.80007 25.0667 5.03885 25.0667 5.3334C25.0667 5.62795 24.8279 5.86673 24.5333 5.86673Z" fill="white"/>
<path d="M28.2667 3.7334C27.383 3.7334 26.6667 4.44974 26.6667 5.3334C26.6667 6.21705 27.383 6.9334 28.2667 6.9334C29.1503 6.9334 29.8667 6.21705 29.8667 5.3334C29.8667 4.44974 29.1503 3.7334 28.2667 3.7334ZM28.2667 5.86673C27.9721 5.86673 27.7333 5.62795 27.7333 5.3334C27.7333 5.03885 27.9721 4.80007 28.2667 4.80007C28.5612 4.80007 28.8 5.03885 28.8 5.3334C28.8 5.62795 28.5612 5.86673 28.2667 5.86673Z" fill="white"/>
<path d="M2.13333 18.6668H3.5328C3.89009 19.283 4.34734 19.8356 4.88587 20.302C2.19898 21.8109 0.53504 24.6518 0.533333 27.7334V30.4001C0.533333 31.2837 1.24968 32.0001 2.13333 32.0001H16C16.8837 32.0001 17.6 31.2837 17.6 30.4001V27.7334C17.5941 24.653 15.9327 21.8136 13.2501 20.2993C13.7874 19.8335 14.2437 19.2818 14.6005 18.6668H16C17.1782 18.6668 18.1333 17.7116 18.1333 16.5334V14.4001C18.1311 13.6493 17.7332 12.9552 17.0864 12.574C15.8707 9.19025 12.6621 6.93359 9.06667 6.93359C5.47121 6.93359 2.26259 9.19025 1.04693 12.574C0.400093 12.9552 0.00219056 13.6493 0 14.4001V16.5334C0 17.7116 0.955126 18.6668 2.13333 18.6668ZM2.13333 17.6001C1.54423 17.6001 1.06667 17.1225 1.06667 16.5334V14.4001C1.06667 13.811 1.54423 13.3334 2.13333 13.3334H3.04C2.54224 14.7121 2.54224 16.2214 3.04 17.6001H2.13333ZM3.73333 15.4668C3.73262 13.37 4.96048 11.4674 6.87133 10.6044C8.78217 9.74132 11.0214 10.0779 12.594 11.4647C14.1667 12.8514 14.7809 15.0309 14.1637 17.0348C13.1707 17.3584 12.1363 17.538 11.0923 17.5681C10.8577 16.947 10.2639 16.5353 9.6 16.5334H8.53333C7.64968 16.5334 6.93333 17.2498 6.93333 18.1334C6.93333 19.0171 7.64968 19.7334 8.53333 19.7334H9.6C10.2874 19.7313 10.8961 19.2893 11.1109 18.6364C11.9379 18.6032 12.7602 18.4961 13.568 18.3164C12.3015 20.3246 9.859 21.2525 7.57853 20.5918C5.29806 19.931 3.72999 17.841 3.73333 15.4668ZM10.1333 18.1334C10.1333 18.428 9.89455 18.6668 9.6 18.6668H8.53333C8.23878 18.6668 8 18.428 8 18.1334C8 17.8389 8.23878 17.6001 8.53333 17.6001H9.6C9.89455 17.6001 10.1333 17.8389 10.1333 18.1334ZM14.3435 22.4577C15.7504 23.8521 16.5393 25.7525 16.5333 27.7334V30.4001C16.5333 30.6946 16.2945 30.9334 16 30.9334H13.3333V27.7334C13.3333 27.4389 13.0946 27.2001 12.8 27.2001C12.5054 27.2001 12.2667 27.4389 12.2667 27.7334V30.9334H5.86667V27.7334C5.86667 27.4389 5.62788 27.2001 5.33333 27.2001C5.03878 27.2001 4.8 27.4389 4.8 27.7334V30.9334H2.13333C1.83878 30.9334 1.6 30.6946 1.6 30.4001V27.7334C1.60245 24.8545 3.25985 22.2334 5.85973 20.9969C7.83987 22.1558 10.2913 22.1558 12.2715 20.9969C13.042 21.3593 13.7433 21.8537 14.3435 22.4577ZM17.0667 16.5334C17.0667 17.1225 16.5891 17.6001 16 17.6001H15.0933C15.5911 16.2214 15.5911 14.7121 15.0933 13.3334H16C16.5891 13.3334 17.0667 13.811 17.0667 14.4001V16.5334ZM9.06667 8.00009C11.9491 7.99876 14.5735 9.66059 15.8048 12.2668H14.6005C13.4611 10.2871 11.3509 9.06687 9.06667 9.06687C6.78247 9.06687 4.67227 10.2871 3.5328 12.2668H2.32853C3.55984 9.66059 6.18427 7.99876 9.06667 8.00009Z" fill="white"/>
</svg>
