<svg width="26" height="32" viewBox="0 0 26 32" fill="none" xmlns="http://www.w3.org/2000/svg">
<path d="M24.0577 3.78689L22.8114 3.52577V3.33587C22.8114 2.8637 22.6239 2.41086 22.29 2.07698C21.9561 1.74311 21.5033 1.55554 21.0311 1.55554H14.3726L7.88627 0.048184C7.65708 -0.00624885 7.41937 -0.0146584 7.18691 0.0234425C6.95445 0.0615435 6.73187 0.145398 6.53205 0.270146C6.33223 0.394894 6.15916 0.558056 6.02285 0.750177C5.88655 0.942299 5.78973 1.15956 5.738 1.38937L5.70239 1.5496H4.41461C3.94244 1.5496 3.4896 1.73717 3.15573 2.07105C2.82185 2.40493 2.63428 2.85776 2.63428 3.32994V14.8368L0.0468556 26.0767C-0.00669457 26.3055 -0.0144306 26.5426 0.0240941 26.7744C0.0626188 27.0062 0.146642 27.228 0.271319 27.4272C0.395996 27.6263 0.558861 27.7988 0.750525 27.9347C0.942188 28.0706 1.15886 28.1673 1.38804 28.219L2.63428 28.5098V28.6701C2.63428 29.1422 2.82185 29.5951 3.15573 29.9289C3.4896 30.2628 3.94244 30.4504 4.41461 30.4504H11.1324L11.1977 30.4801L17.5594 31.9518C17.7886 32.0062 18.0263 32.0147 18.2588 31.9766C18.4912 31.9385 18.7138 31.8546 18.9137 31.7299C19.1135 31.6051 19.2865 31.4419 19.4228 31.2498C19.5592 31.0577 19.656 30.8404 19.7077 30.6106L19.7433 30.4504H21.0311C21.5033 30.4504 21.9561 30.2628 22.29 29.9289C22.6239 29.5951 22.8114 29.1422 22.8114 28.6701V17.1394L25.3988 5.92923C25.4524 5.70045 25.4601 5.46334 25.4216 5.23156C25.3831 4.99978 25.2991 4.77792 25.1744 4.57877C25.0497 4.37961 24.8868 4.20711 24.6952 4.0712C24.5035 3.93529 24.2868 3.83866 24.0577 3.78689ZM2.63428 27.2636L1.65509 27.0322C1.57792 27.0154 1.50488 26.9833 1.44024 26.938C1.3756 26.8926 1.32067 26.8348 1.27867 26.7679C1.23666 26.701 1.20843 26.6264 1.19562 26.5485C1.18281 26.4706 1.18569 26.3909 1.20407 26.3141L2.63428 20.1422V27.2636ZM7.61922 1.2054L9.0969 1.5496H6.94269C6.99749 1.42223 7.09515 1.31807 7.21873 1.2552C7.34231 1.19232 7.48401 1.1747 7.61922 1.2054ZM17.8265 30.7709L16.3547 30.4267H18.503C18.4482 30.554 18.3506 30.6582 18.227 30.7211C18.1034 30.7839 17.9617 30.8016 17.8265 30.7709ZM21.6245 28.6404C21.6245 28.7978 21.562 28.9487 21.4507 29.06C21.3394 29.1713 21.1885 29.2338 21.0311 29.2338H4.41461C4.25722 29.2338 4.10628 29.1713 3.99498 29.06C3.88369 28.9487 3.82117 28.7978 3.82117 28.6404V3.33587C3.82117 3.17848 3.88369 3.02754 3.99498 2.91624C4.10628 2.80495 4.25722 2.74243 4.41461 2.74243H21.0311C21.1885 2.74243 21.3394 2.80495 21.4507 2.91624C21.562 3.02754 21.6245 3.17848 21.6245 3.33587V28.6404ZM24.2416 5.66218L22.8114 11.8637V4.71267L23.7906 4.93817C23.8684 4.9549 23.9421 4.98711 24.0072 5.03287C24.0723 5.07864 24.1275 5.13703 24.1696 5.20458C24.2117 5.27213 24.2397 5.34745 24.2521 5.42606C24.2645 5.50467 24.2609 5.58497 24.2416 5.66218Z" fill="white"/>
<path d="M18.6573 25.9758H7.38184V21.1511C7.38184 20.9937 7.31931 20.8427 7.20802 20.7314C7.09673 20.6201 6.94578 20.5576 6.78839 20.5576C6.631 20.5576 6.48005 20.6201 6.36876 20.7314C6.25747 20.8427 6.19495 20.9937 6.19495 21.1511V26.5692C6.19495 26.7266 6.25747 26.8776 6.36876 26.9888C6.48005 27.1001 6.631 27.1627 6.78839 27.1627H18.6573C18.8147 27.1627 18.9656 27.1001 19.0769 26.9888C19.1882 26.8776 19.2507 26.7266 19.2507 26.5692C19.2507 26.4118 19.1882 26.2609 19.0769 26.1496C18.9656 26.0383 18.8147 25.9758 18.6573 25.9758Z" fill="white"/>
<path d="M8.76459 10.7776C9.44664 10.7776 10.1008 10.5071 10.5837 10.0254C11.0665 9.54364 11.3386 8.89006 11.3401 8.20801C11.3365 7.73057 11.1988 7.26376 10.9425 6.86089L12.0226 5.78675C12.1344 5.675 12.1971 5.52344 12.1971 5.36541C12.1971 5.20737 12.1344 5.05581 12.0226 4.94406C11.9109 4.83231 11.7593 4.76953 11.6013 4.76953C11.4432 4.76953 11.2917 4.83231 11.1799 4.94406L8.75866 7.36532L7.41153 6.01819C7.30035 5.90767 7.14994 5.84563 6.99316 5.84563C6.83638 5.84563 6.68597 5.90767 6.57478 6.01819C6.46425 6.12938 6.40221 6.27979 6.40221 6.43657C6.40221 6.59335 6.46425 6.74376 6.57478 6.85495C6.32344 7.26127 6.1918 7.73025 6.19497 8.20801C6.19497 8.88951 6.4657 9.54311 6.9476 10.025C7.42949 10.5069 8.08309 10.7776 8.76459 10.7776ZM7.46494 7.74512L8.34918 8.62936C8.45971 8.73899 8.60891 8.8008 8.76459 8.80145C8.91408 8.79625 9.05609 8.73478 9.1622 8.62936L10.0464 7.74512C10.098 7.89417 10.126 8.05034 10.1295 8.20801C10.1065 8.55984 9.95047 8.88975 9.69313 9.13078C9.4358 9.37182 9.09641 9.50594 8.74382 9.50594C8.39123 9.50594 8.05184 9.37182 7.79451 9.13078C7.53717 8.88975 7.38116 8.55984 7.35812 8.20801C7.36628 8.04864 7.40244 7.89195 7.46494 7.74512Z" fill="white"/>
<path d="M8.76457 17.2818C9.27421 17.283 9.77275 17.133 10.1971 16.8507C10.6214 16.5684 10.9524 16.1665 11.1483 15.696C11.3441 15.2255 11.396 14.7075 11.2973 14.2075C11.1986 13.7075 10.9538 13.248 10.5938 12.8872C10.2338 12.5264 9.77492 12.2805 9.27515 12.1807C8.77538 12.0808 8.25722 12.1315 7.78625 12.3262C7.31529 12.521 6.91269 12.8511 6.62942 13.2748C6.34615 13.6984 6.19495 14.1966 6.19495 14.7063C6.19651 15.3879 6.46755 16.0412 6.94894 16.5237C7.43033 17.0062 8.083 17.2787 8.76457 17.2818ZM8.76457 13.3236C9.03972 13.3224 9.30902 13.403 9.53829 13.5551C9.76756 13.7073 9.94647 13.9241 10.0523 14.1781C10.1581 14.432 10.1861 14.7117 10.1328 14.9817C10.0794 15.2516 9.94698 15.4996 9.75242 15.6941C9.55785 15.8887 9.30988 16.0211 9.03995 16.0745C8.77002 16.1279 8.49032 16.0999 8.23633 15.994C7.98235 15.8882 7.76553 15.7093 7.61339 15.48C7.46126 15.2507 7.38066 14.9814 7.38184 14.7063C7.3834 14.34 7.52958 13.9892 7.78855 13.7303C8.04753 13.4713 8.39832 13.3251 8.76457 13.3236Z" fill="white"/>
<path d="M18.6573 18.5874H16.331C16.1736 18.5874 16.0227 18.6499 15.9114 18.7612C15.8001 18.8725 15.7376 19.0235 15.7376 19.1808C15.7376 19.3382 15.8001 19.4892 15.9114 19.6005C16.0227 19.7118 16.1736 19.7743 16.331 19.7743H17.2271L13.9098 23.1095L11.5775 20.7357C11.4663 20.6251 11.3159 20.5631 11.1591 20.5631C11.0024 20.5631 10.8519 20.6251 10.7408 20.7357L8.61622 22.8661C8.5541 22.9193 8.50364 22.9848 8.46802 23.0584C8.4324 23.1321 8.41238 23.2123 8.40923 23.294C8.40607 23.3757 8.41984 23.4572 8.44968 23.5334C8.47951 23.6095 8.52477 23.6787 8.5826 23.7365C8.64043 23.7944 8.7096 23.8396 8.78575 23.8694C8.86191 23.8993 8.9434 23.9131 9.02513 23.9099C9.10686 23.9067 9.18706 23.8867 9.26068 23.8511C9.33431 23.8155 9.39978 23.765 9.45298 23.7029L11.1621 21.9938L13.4884 24.326C13.5436 24.3816 13.6092 24.4258 13.6815 24.4559C13.7538 24.486 13.8314 24.5016 13.9098 24.5016C13.9881 24.5016 14.0657 24.486 14.138 24.4559C14.2103 24.4258 14.2759 24.3816 14.3311 24.326L18.0639 20.617V21.5072C18.0639 21.6645 18.1264 21.8155 18.2377 21.9268C18.349 22.0381 18.4999 22.1006 18.6573 22.1006C18.8147 22.1006 18.9657 22.0381 19.0769 21.9268C19.1882 21.8155 19.2508 21.6645 19.2508 21.5072V19.1808C19.2508 19.0235 19.1882 18.8725 19.0769 18.7612C18.9657 18.6499 18.8147 18.5874 18.6573 18.5874Z" fill="white"/>
<path d="M13.5121 14.1128H16.058C16.2154 14.1128 16.3664 14.0503 16.4777 13.939C16.5889 13.8277 16.6515 13.6767 16.6515 13.5193C16.6515 13.362 16.5889 13.211 16.4777 13.0997C16.3664 12.9884 16.2154 12.9259 16.058 12.9259H13.5121C13.3548 12.9259 13.2038 12.9884 13.0925 13.0997C12.9812 13.211 12.9187 13.362 12.9187 13.5193C12.9187 13.6767 12.9812 13.8277 13.0925 13.939C13.2038 14.0503 13.3548 14.1128 13.5121 14.1128Z" fill="white"/>
<path d="M13.5121 16.4926H18.3962C18.5536 16.4926 18.7045 16.43 18.8158 16.3187C18.9271 16.2074 18.9896 16.0565 18.9896 15.8991C18.9896 15.7417 18.9271 15.5908 18.8158 15.4795C18.7045 15.3682 18.5536 15.3057 18.3962 15.3057H13.5121C13.3548 15.3057 13.2038 15.3682 13.0925 15.4795C12.9812 15.5908 12.9187 15.7417 12.9187 15.8991C12.9187 16.0565 12.9812 16.2074 13.0925 16.3187C13.2038 16.43 13.3548 16.4926 13.5121 16.4926Z" fill="white"/>
<path d="M13.5121 7.61462H16.058C16.2154 7.61462 16.3664 7.5521 16.4777 7.44081C16.5889 7.32952 16.6515 7.17857 16.6515 7.02118C16.6515 6.86379 16.5889 6.71284 16.4777 6.60155C16.3664 6.49026 16.2154 6.42773 16.058 6.42773H13.5121C13.3548 6.42773 13.2038 6.49026 13.0925 6.60155C12.9812 6.71284 12.9187 6.86379 12.9187 7.02118C12.9187 7.17857 12.9812 7.32952 13.0925 7.44081C13.2038 7.5521 13.3548 7.61462 13.5121 7.61462Z" fill="white"/>
<path d="M13.5121 9.9884H18.3962C18.5536 9.9884 18.7045 9.92588 18.8158 9.81459C18.9271 9.7033 18.9896 9.55235 18.9896 9.39496C18.9896 9.23757 18.9271 9.08662 18.8158 8.97533C18.7045 8.86404 18.5536 8.80151 18.3962 8.80151H13.5121C13.3548 8.80151 13.2038 8.86404 13.0925 8.97533C12.9812 9.08662 12.9187 9.23757 12.9187 9.39496C12.9187 9.55235 12.9812 9.7033 13.0925 9.81459C13.2038 9.92588 13.3548 9.9884 13.5121 9.9884Z" fill="white"/>
</svg>
