<svg width="44" height="44" viewBox="0 0 44 44" fill="none" xmlns="http://www.w3.org/2000/svg">
<g clip-path="url(#clip0)">
<path d="M36.1093 36.9454C35.0641 36.9454 34.1235 36.5273 33.3397 35.7957C32.6081 35.0641 32.19 34.0713 32.19 33.0784C32.19 32.0855 32.6081 31.0926 33.3397 30.361C34.0713 29.6294 35.0641 29.2114 36.1093 29.2114C38.1995 29.2114 39.924 30.9359 39.924 33.0784C39.924 35.2209 38.1995 36.9454 36.1093 36.9454ZM36.1093 30.6223C34.7506 30.6223 33.601 31.772 33.601 33.0784C33.601 34.3848 34.7506 35.5344 36.1093 35.5344C37.4679 35.5344 38.5653 34.437 38.5653 33.0784C38.5653 31.7197 37.4679 30.6223 36.1093 30.6223Z" fill="white"/>
<path d="M31.9287 24.247C31.5629 24.247 31.2494 23.9335 31.2494 23.5677V16.095C31.2494 15.7292 31.5629 15.4157 31.9287 15.4157H36.5796C36.7363 15.4157 36.9454 15.4679 37.0499 15.5724L39.7149 18.0285C39.8717 18.1853 39.924 18.342 39.924 18.5511V23.5154C39.924 23.8812 39.6104 24.1948 39.2446 24.1948H31.9287V24.247ZM32.6081 22.8361H38.5653V18.8646L36.266 16.7743H32.6081V22.8361Z" fill="white"/>
<path d="M14.0048 36.9454C12.9596 36.9454 12.019 36.5273 11.2352 35.7957C10.5036 35.0641 10.0855 34.0713 10.0855 33.0784C10.0855 32.0855 10.5036 31.0926 11.2352 30.361C11.9667 29.6294 12.9596 29.2114 14.0048 29.2114C16.095 29.2114 17.8195 30.9359 17.8195 33.0784C17.8195 35.2209 16.1473 36.9454 14.0048 36.9454ZM14.0048 30.6223C12.6461 30.6223 11.4964 31.772 11.4964 33.0784C11.4964 34.3848 12.6461 35.5344 14.0048 35.5344C15.3634 35.5344 16.4608 34.437 16.4608 33.0784C16.4608 31.7197 15.3634 30.6223 14.0048 30.6223Z" fill="white"/>
<path d="M5.27791 31.7197C4.91211 31.7197 4.59857 31.4062 4.59857 31.0404V27.7482C4.59857 27.3824 4.91211 27.0689 5.27791 27.0689C5.6437 27.0689 5.95724 27.3824 5.95724 27.7482V30.361H7.99525C8.36104 30.361 8.67458 30.6746 8.67458 31.0404C8.67458 31.4062 8.36104 31.7197 7.99525 31.7197H5.27791Z" fill="white"/>
<path d="M0.679335 25.867C0.313539 25.867 0 25.5534 0 25.1877C0 24.8219 0.313539 24.5083 0.679335 24.5083H11.6532C12.019 24.5083 12.3325 24.8219 12.3325 25.1877C12.3325 25.5534 12.019 25.867 11.6532 25.867H0.679335Z" fill="white"/>
<path d="M2.50831 21.6865C2.29929 21.6865 2.14252 21.6342 2.03801 21.4774C1.93349 21.3207 1.82898 21.1639 1.82898 21.0071C1.82898 20.6413 2.14252 20.3278 2.50831 20.3278L13.4822 20.38C13.6912 20.38 13.848 20.4323 13.9525 20.5891C14.057 20.7458 14.1615 20.9026 14.1615 21.0594C14.1615 21.4252 13.848 21.7387 13.4822 21.7387L2.50831 21.6865Z" fill="white"/>
<path d="M4.38954 17.6104C4.02374 17.6104 3.71021 17.2969 3.71021 16.9311C3.71021 16.5653 4.02374 16.2518 4.38954 16.2518H15.3634C15.7292 16.2518 16.0427 16.5653 16.0427 16.9311C16.0427 17.2969 15.7292 17.6104 15.3634 17.6104H4.38954Z" fill="white"/>
<path d="M20.0142 31.7197C19.6484 31.7197 19.3349 31.4062 19.3349 31.0404C19.3349 30.6746 19.6484 30.361 20.0142 30.361H27.6437V8.46555H5.95723V14.3705C5.95723 14.7363 5.64369 15.0499 5.2779 15.0499C4.9121 15.0499 4.59856 14.7363 4.59856 14.3705V7.73396C4.54631 7.36817 4.85985 7.05463 5.2779 7.05463H28.323C28.6888 7.05463 29.0024 7.36817 29.0024 7.73396V11.2351H36.8408C36.9976 11.2351 37.1544 11.2874 37.3112 11.3919L43.791 16.7743C43.9477 16.8789 44.0522 17.0879 44.0522 17.3492L44 31.0404C44 31.4062 43.6865 31.7197 43.3207 31.7197H41.4917C41.1259 31.7197 40.8123 31.4062 40.8123 31.0404C40.8123 30.6746 41.1259 30.361 41.4917 30.361H42.6413L42.6936 17.6627L36.5796 12.5938H29.0024V30.3088H31.0404C31.4062 30.3088 31.7197 30.6223 31.7197 30.9881C31.7197 31.3539 31.4062 31.6675 31.0404 31.6675H20.0142V31.7197Z" fill="white"/>
</g>
<defs>
<clipPath id="clip0">
<rect width="44" height="44" fill="white"/>
</clipPath>
</defs>
</svg>
