<svg width="45" height="28" viewBox="0 0 45 28" fill="none" xmlns="http://www.w3.org/2000/svg">
<g clip-path="url(#clip0)">
<path d="M14.5533 26.4359C21.5102 26.4359 27.15 20.7961 27.15 13.8391C27.15 6.88214 21.5102 1.24239 14.5533 1.24239C7.59627 1.24239 1.95652 6.88214 1.95652 13.8391C1.95652 20.7961 7.59627 26.4359 14.5533 26.4359Z" stroke="white" stroke-width="2" stroke-linecap="round" stroke-linejoin="round"/>
<path d="M18.6522 1.92553C20.549 1.27445 22.5739 1.08566 24.5583 1.37487C26.5428 1.66407 28.4296 2.42291 30.0617 3.58827C31.6938 4.75362 33.0241 6.29182 33.9419 8.07492C34.8597 9.85802 35.3385 11.8345 35.3385 13.8399C35.3385 15.8454 34.8597 17.8219 33.9419 19.605C33.0241 21.3881 31.6938 22.9262 30.0617 24.0916C28.4296 25.257 26.5428 26.0158 24.5583 26.305C22.5739 26.5942 20.549 26.4054 18.6522 25.7543" stroke="white" stroke-width="2" stroke-linecap="round" stroke-linejoin="round"/>
<path d="M27 1.95651C28.8968 1.30543 30.9217 1.11664 32.9062 1.40585C34.8907 1.69505 36.7774 2.45389 38.4095 3.61925C40.0416 4.7846 41.3719 6.3228 42.2897 8.1059C43.2075 9.889 43.6863 11.8655 43.6863 13.8709C43.6863 15.8764 43.2075 17.8528 42.2897 19.6359C41.3719 21.419 40.0416 22.9572 38.4095 24.1226C36.7774 25.2879 34.8907 26.0468 32.9062 26.336C30.9217 26.6252 28.8968 26.4364 27 25.7853" stroke="white" stroke-width="2" stroke-linecap="round" stroke-linejoin="round"/>
<path d="M11.5761 16.4674C11.5761 17.9054 12.9114 19.0761 14.5581 19.0761C16.2049 19.0761 17.5386 17.9103 17.5386 16.4674C17.5386 15.0245 16.3973 14.175 14.5581 13.8587C12.8951 13.5326 11.5761 12.6929 11.5761 11.25C11.5761 9.80706 12.9114 8.6413 14.5581 8.6413C16.2049 8.6413 17.5386 9.80706 17.5386 11.25" stroke="white" stroke-width="2" stroke-linecap="round" stroke-linejoin="round"/>
<path d="M14.5533 21.2185V19.2897" stroke="white" stroke-width="2" stroke-linecap="round" stroke-linejoin="round"/>
<path d="M14.5533 8.65597V6.72717" stroke="white" stroke-width="2" stroke-linecap="round" stroke-linejoin="round"/>
</g>
<defs>
<clipPath id="clip0">
<rect width="45" height="27.7174" fill="white"/>
</clipPath>
</defs>
</svg>
