<svg width="30" height="30" viewBox="0 0 30 30" fill="none" xmlns="http://www.w3.org/2000/svg">
<path d="M0.60321 23.3185H17.999V29.0732L21.5981 26.9519L25.1972 29.0732V23.3185H29.3962V0.926758H0.60321V23.3185ZM24.1565 19.3198C24.1025 19.3735 24.0449 19.423 23.9879 19.473C23.9555 19.5013 23.9255 19.5314 23.8919 19.5585C23.8547 19.5891 23.8152 19.6151 23.7768 19.6439C23.2711 20.024 22.6616 20.2768 21.9964 20.3493C21.9856 20.3504 21.9748 20.3528 21.9634 20.354C21.8428 20.3658 21.7205 20.3722 21.5969 20.3722C21.4733 20.3722 21.351 20.3658 21.2304 20.354C21.2196 20.3528 21.2088 20.3504 21.1974 20.3493C20.5322 20.2768 19.9233 20.024 19.417 19.6439C19.3786 19.6151 19.339 19.5885 19.3019 19.5585C19.2689 19.5314 19.2383 19.5013 19.2059 19.473C19.1489 19.423 19.0919 19.3735 19.0373 19.3198C18.3949 18.6811 17.9966 17.8043 17.9966 16.8367C17.9966 14.8869 19.6108 13.3012 21.5957 13.3012C23.5806 13.3012 25.1948 14.8869 25.1948 16.8367C25.1972 17.8037 24.7995 18.6805 24.1565 19.3198ZM23.9975 26.992L21.5981 25.5777L19.1987 26.992V23.3185V20.9203C19.2191 20.932 19.2419 20.9397 19.2629 20.9509C19.4218 21.0381 19.5856 21.1182 19.7547 21.1878C19.7619 21.1907 19.7697 21.1931 19.7775 21.196C20.3396 21.4235 20.9539 21.5508 21.5987 21.5508C22.2435 21.5508 22.8578 21.4235 23.4199 21.196C23.4271 21.1931 23.4349 21.1907 23.4426 21.1878C23.6118 21.1182 23.7756 21.0387 23.9345 20.9509C23.9555 20.9397 23.9783 20.932 23.9987 20.9203V23.3185V26.992H23.9975ZM1.80292 2.10527H28.1965V22.14H25.1972V19.9444C25.9416 19.1136 26.3969 18.0276 26.3969 16.8367C26.3969 14.2375 24.2441 12.1226 21.5981 12.1226C18.9521 12.1226 16.7993 14.2375 16.7993 16.8367C16.7993 18.0276 17.2546 19.1136 17.999 19.9444V22.14H1.80292V2.10527Z" fill="white"/>
<path d="M22.7977 4.46216H7.20154V5.64067H22.7977V4.46216Z" fill="white"/>
<path d="M19.7985 7.99805H10.2008V9.17656H19.7985V7.99805Z" fill="white"/>
<path d="M10.8007 18.6045H4.20227V19.783H10.8007V18.6045Z" fill="white"/>
</svg>
