<svg width="17" height="17" viewBox="0 0 17 17" fill="none" xmlns="http://www.w3.org/2000/svg">
<path fill-rule="evenodd" clip-rule="evenodd" d="M12.24 10.88H16.32V15.64H0.68V10.88H4.76V11.9C4.76 12.8389 5.51839 13.6 6.45733 13.6H10.5427C11.4801 13.6 12.24 12.8454 12.24 11.9V10.88ZM0 10.54V10.2L2.04 6.936V1.36336C2.04 0.609978 2.64973 0 3.40188 0H10.88L14.96 4.76V5.1V6.936L17 10.2V16.32H0V10.54ZM2.04 10.2V8.26877L0.832983 10.2H2.04ZM14.96 10.2V8.26877L16.167 10.2H14.96ZM2.72 10.2V1.36209C2.72 0.978464 3.0231 0.68 3.39699 0.68H10.2V4.07597C10.2 4.83714 10.8083 5.44 11.5586 5.44H14.28V10.2H2.72ZM10.88 1.02V4.07403C10.88 4.45288 11.1864 4.76 11.5578 4.76H14.076L10.88 1.02ZM5.44 10.88V11.9C5.44 12.4633 5.89999 12.92 6.46435 12.92H10.5357C11.1014 12.92 11.56 12.4673 11.56 11.9V10.88H5.44ZM4.08 7.48V8.16H12.92V7.48H4.08ZM4.08 2.04V2.72H8.84V2.04H4.08ZM4.08 4.76V5.44H8.84V4.76H4.08Z" fill="white"/>
<rect x="4.08002" y="2.03998" width="4.76" height="0.68" fill="white"/>
<rect x="4.08002" y="4.76001" width="4.76" height="0.68" fill="white"/>
<path d="M4.08002 7.47998H12.92V8.15998H4.08002V7.47998Z" fill="white"/>
</svg>
