<svg width="29" height="32" viewBox="0 0 29 32" fill="none" xmlns="http://www.w3.org/2000/svg">
<g clip-path="url(#clip0)">
<path d="M10.2716 4.79993H5.53088C5.32132 4.79993 5.12035 4.88421 4.97218 5.03424C4.824 5.18427 4.74075 5.38775 4.74075 5.59993C4.74075 5.8121 4.824 6.01558 4.97218 6.16561C5.12035 6.31564 5.32132 6.39993 5.53088 6.39993H10.2716C10.4812 6.39993 10.6821 6.31564 10.8303 6.16561C10.9785 6.01558 11.0617 5.8121 11.0617 5.59993C11.0617 5.38775 10.9785 5.18427 10.8303 5.03424C10.6821 4.88421 10.4812 4.79993 10.2716 4.79993Z" fill="white"/>
<path d="M10.2716 9.59998H5.53088C5.32132 9.59998 5.12035 9.68426 4.97218 9.83429C4.824 9.98432 4.74075 10.1878 4.74075 10.4C4.74075 10.6121 4.824 10.8156 4.97218 10.9657C5.12035 11.1157 5.32132 11.2 5.53088 11.2H10.2716C10.4812 11.2 10.6821 11.1157 10.8303 10.9657C10.9785 10.8156 11.0617 10.6121 11.0617 10.4C11.0617 10.1878 10.9785 9.98432 10.8303 9.83429C10.6821 9.68426 10.4812 9.59998 10.2716 9.59998Z" fill="white"/>
<path d="M10.2716 14.4H5.53088C5.32132 14.4 5.12035 14.4843 4.97218 14.6343C4.824 14.7844 4.74075 14.9879 4.74075 15.2C4.74075 15.4122 4.824 15.6157 4.97218 15.7657C5.12035 15.9157 5.32132 16 5.53088 16H10.2716C10.4812 16 10.6821 15.9157 10.8303 15.7657C10.9785 15.6157 11.0617 15.4122 11.0617 15.2C11.0617 14.9879 10.9785 14.7844 10.8303 14.6343C10.6821 14.4843 10.4812 14.4 10.2716 14.4Z" fill="white"/>
<path d="M25.284 22.4H23.7037C23.7448 21.2658 24.1815 20.1831 24.9363 19.344C26.8642 17.888 28.4444 16.192 28.4444 13.6C28.443 11.7537 27.7426 9.97815 26.4874 8.63882C25.2322 7.29949 23.5177 6.49825 21.6968 6.4L15.5654 0.24C15.4699 0.125872 15.3436 0.042458 15.202 0H2.37037C1.74171 0 1.1388 0.252856 0.694265 0.702944C0.249735 1.15303 0 1.76348 0 2.4V29.6C0 30.2365 0.249735 30.847 0.694265 31.2971C1.1388 31.7471 1.74171 32 2.37037 32H19.7531C20.3817 32 20.9847 31.7471 21.4292 31.2971C21.8737 30.847 22.1235 30.2365 22.1235 29.6V28.8H27.6543C27.8639 28.8 28.0648 28.7157 28.213 28.5657C28.3612 28.4157 28.4444 28.2122 28.4444 28V25.6C28.4444 24.7513 28.1115 23.9374 27.5188 23.3373C26.9261 22.7371 26.1222 22.4 25.284 22.4ZM26.8642 13.6C26.7563 14.5202 26.4426 15.4035 25.947 16.1825C25.4514 16.9616 24.7869 17.616 24.004 18.096C22.8505 19.2301 22.1764 20.773 22.1235 22.4H20.5432C20.5029 20.7798 19.8462 19.2379 18.7101 18.096C17.9184 17.6214 17.2446 16.9693 16.7406 16.1899C16.2365 15.4105 15.9156 14.5245 15.8025 13.6C15.8025 12.1148 16.3852 10.6904 17.4224 9.6402C18.4597 8.59 19.8665 8 21.3333 8C22.8002 8 24.207 8.59 25.2442 9.6402C26.2815 10.6904 26.8642 12.1148 26.8642 13.6ZM19.4212 6.4H15.8025V2.736L19.4212 6.4ZM20.5432 29.6C20.5432 29.8122 20.46 30.0157 20.3118 30.1657C20.1636 30.3157 19.9626 30.4 19.7531 30.4H2.37037C2.16082 30.4 1.95985 30.3157 1.81167 30.1657C1.66349 30.0157 1.58025 29.8122 1.58025 29.6V2.4C1.58025 2.18783 1.66349 1.98434 1.81167 1.83431C1.95985 1.68429 2.16082 1.6 2.37037 1.6H14.2222V7.2C14.2222 7.41217 14.3055 7.61566 14.4536 7.76569C14.6018 7.91571 14.8028 8 15.0123 8H16.9244C16.085 8.66566 15.4057 9.5155 14.9376 10.4855C14.4695 11.4555 14.2249 12.5204 14.2222 13.6C14.2222 16.192 15.8815 17.888 17.683 19.344C18.4447 20.1829 18.8969 21.2624 18.963 22.4H17.3827C16.5445 22.4 15.7406 22.7371 15.1479 23.3373C14.5552 23.9374 14.2222 24.7513 14.2222 25.6V28C14.2222 28.2122 14.3055 28.4157 14.4536 28.5657C14.6018 28.7157 14.8028 28.8 15.0123 28.8H20.5432V29.6ZM26.8642 27.2H15.8025V25.6C15.8025 25.1757 15.969 24.7687 16.2653 24.4686C16.5617 24.1686 16.9636 24 17.3827 24H25.284C25.7031 24 26.105 24.1686 26.4014 24.4686C26.6977 24.7687 26.8642 25.1757 26.8642 25.6V27.2Z" fill="white"/>
<path d="M7.90125 19.2001C7.27616 19.2001 6.66511 19.3878 6.14537 19.7394C5.62563 20.091 5.22054 20.5908 4.98133 21.1755C4.74212 21.7602 4.67953 22.4036 4.80148 23.0244C4.92343 23.6451 5.22444 24.2153 5.66644 24.6628C6.10844 25.1103 6.67159 25.4151 7.28467 25.5386C7.89774 25.6621 8.53321 25.5987 9.11072 25.3565C9.68822 25.1143 10.1818 24.7041 10.5291 24.1779C10.8764 23.6517 11.0617 23.033 11.0617 22.4001C11.0617 21.5514 10.7288 20.7374 10.1361 20.1373C9.54335 19.5372 8.73946 19.2001 7.90125 19.2001ZM7.90125 24.0001C7.58871 24.0001 7.28318 23.9062 7.02331 23.7304C6.76344 23.5546 6.5609 23.3047 6.44129 23.0124C6.32169 22.72 6.29039 22.3983 6.35137 22.0879C6.41234 21.7776 6.56284 21.4925 6.78385 21.2687C7.00485 21.0449 7.28642 20.8926 7.59296 20.8308C7.8995 20.7691 8.21723 20.8008 8.50598 20.9219C8.79473 21.043 9.04154 21.248 9.21518 21.5112C9.38881 21.7743 9.48149 22.0836 9.48149 22.4001C9.48149 22.8244 9.315 23.2314 9.01865 23.5314C8.7223 23.8315 8.32036 24.0001 7.90125 24.0001Z" fill="white"/>
</g>
<defs>
<clipPath id="clip0">
<rect width="28.4444" height="32" fill="white"/>
</clipPath>
</defs>
</svg>
