<!-- Generator: Adobe Illustrator 22.1.0, SVG Export Plug-In  -->
<svg version="1.1"
	 xmlns="http://www.w3.org/2000/svg" xmlns:xlink="http://www.w3.org/1999/xlink" xmlns:a="http://ns.adobe.com/AdobeSVGViewerExtensions/3.0/"
	 x="0px" y="0px" width="53.6px" height="55.2px" viewBox="0 0 53.6 55.2" style="enable-background:new 0 0 53.6 55.2;"
	 xml:space="preserve">
<style type="text/css">
	*{fill:#fff;}
</style>
<defs>
</defs>
<g>
	<path class="st0" d="M53.2,35.7c-0.2-0.2-0.5-0.3-0.9-0.3c-0.4,0-0.7,0.1-0.9,0.4L38,50.7l-7.1-6.9c-0.2-0.2-0.5-0.3-0.9-0.3
		c-0.3,0-0.7,0.1-0.9,0.4c-0.2,0.2-0.4,0.6-0.3,0.9c0,0.3,0.1,0.7,0.4,0.9l8.1,7.8c0.2,0.2,0.5,0.3,0.9,0.3h0c0.3,0,0.7-0.2,0.9-0.4
		l14.2-15.8c0.2-0.3,0.4-0.6,0.4-1C53.6,36.3,53.5,36,53.2,35.7z"/>
	<path d="M34.8,27.4c0-0.7-0.6-1.3-1.3-1.3H12.8c-0.7,0-1.3,0.6-1.3,1.3c0,0.7,0.6,1.3,1.3,1.3h20.8C34.3,28.7,34.8,28.1,34.8,27.4z
		"/>
	<path d="M21.3,52.7H2.5V2.5h40.6v26.8c0,0.7,0.6,1.3,1.3,1.3s1.3-0.6,1.3-1.3V1.3C45.6,0.6,45,0,44.3,0H1.3C0.6,0,0,0.6,0,1.3V54
		c0,0.7,0.6,1.3,1.3,1.3h20c0.7,0,1.3-0.6,1.3-1.3C22.5,53.3,22,52.7,21.3,52.7z"/>
	<path d="M12.8,16h20.8c0.7,0,1.3-0.6,1.3-1.3c0-0.7-0.6-1.3-1.3-1.3H12.8c-0.7,0-1.3,0.6-1.3,1.3C11.5,15.4,12.1,16,12.8,16z"/>
	<path d="M12.8,38.5c-0.7,0-1.3,0.6-1.3,1.3s0.6,1.3,1.3,1.3H19c0.7,0,1.3-0.6,1.3-1.3s-0.6-1.3-1.3-1.3H12.8z"/>
</g>
</svg>
