<svg width="22" height="30" viewBox="0 0 22 30" fill="none" xmlns="http://www.w3.org/2000/svg">
<g clip-path="url(#clip0)">
<path d="M3.90909 18.3637H15.4091C15.7273 18.3637 16 18.091 16 17.7728C16 17.4546 15.7273 17.1819 15.4091 17.1819H3.90909C3.5909 17.1819 3.31818 17.4546 3.31818 17.7728C3.31818 18.091 3.5909 18.3637 3.90909 18.3637Z" fill="white"/>
<path d="M17.8182 17.1365H17.5C17.1818 17.1365 16.9091 17.4092 16.9091 17.7274C16.9091 18.0456 17.1818 18.3183 17.5 18.3183H17.8182C18.1364 18.3183 18.4091 18.0456 18.4091 17.7274C18.4091 17.4092 18.1818 17.1365 17.8182 17.1365Z" fill="white"/>
<path d="M12.5909 4.77288H17.7727C18.0909 4.77288 18.3636 4.50016 18.3636 4.18197C18.3636 3.86379 18.0909 3.59106 17.7727 3.59106H12.5909C12.2727 3.59106 12 3.86379 12 4.18197C12 4.50016 12.2727 4.77288 12.5909 4.77288Z" fill="white"/>
<path d="M6.13636 21.5908C4.63636 21.5908 3.40909 22.8181 3.40909 24.3181C3.40909 25.8181 4.63636 27.0454 6.13636 27.0454C7.63636 27.0454 8.86363 25.8181 8.86363 24.3181C8.86363 22.7726 7.63636 21.5908 6.13636 21.5908ZM6.13636 25.8181C5.27272 25.8181 4.59091 25.1363 4.59091 24.2726C4.59091 23.409 5.27272 22.7272 6.13636 22.7272C7 22.7272 7.68181 23.409 7.68181 24.2726C7.63636 25.1363 6.95454 25.8181 6.13636 25.8181Z" fill="white"/>
<path d="M21.1364 0H0.590909C0.272727 0 0 0.272727 0 0.590909V29.4091C0 29.7273 0.272727 30 0.590909 30H16.2273C16.3636 30 16.5455 29.9545 16.6364 29.8182L21.5455 24.9091C21.5909 24.8636 21.6364 24.8182 21.6818 24.7273V0.363636C21.5909 0.136364 21.4091 0 21.1364 0ZM16.8182 27.9545V25.0455H19.7273L16.8182 27.9545ZM20.5455 23.9091H16.2273C16.0909 23.9091 15.9091 23.9545 15.8182 24.0909C15.7273 24.1818 15.6364 24.3636 15.6364 24.5V28.8182H1.18182V1.18182H20.5455V23.9091Z" fill="white"/>
<path d="M13.9091 23.7727H10.6364C10.3182 23.7727 10.0455 24.0454 10.0455 24.3636C10.0455 24.6818 10.3182 24.9545 10.6364 24.9545H13.9091C14.2273 24.9545 14.5 24.6818 14.5 24.3636C14.5 24.0454 14.2727 23.7727 13.9091 23.7727Z" fill="white"/>
<path d="M3.90909 16.3181H17.8182C18.1364 16.3181 18.4091 16.0453 18.4091 15.7271C18.4091 15.409 18.1364 15.1362 17.8182 15.1362H3.90909C3.5909 15.1362 3.31818 15.409 3.31818 15.7271C3.31818 16.0453 3.5909 16.3181 3.90909 16.3181Z" fill="white"/>
<path d="M3.90909 14.091H17.8182C18.1364 14.091 18.4091 13.8183 18.4091 13.5001C18.4091 13.1819 18.1364 12.9092 17.8182 12.9092H3.90909C3.5909 12.9092 3.31818 13.1819 3.31818 13.5001C3.31818 13.8183 3.5909 14.091 3.90909 14.091Z" fill="white"/>
<path d="M8.95454 7.3637H17.8182C18.1364 7.3637 18.4091 7.09098 18.4091 6.77279C18.4091 6.45461 18.1364 6.18188 17.8182 6.18188H8.95454C8.63636 6.18188 8.36363 6.45461 8.36363 6.77279C8.36363 7.09098 8.63636 7.3637 8.95454 7.3637Z" fill="white"/>
<path d="M4.18182 4.77288H5.90909C6.22727 4.77288 6.5 4.50016 6.5 4.18197C6.5 3.86379 6.22727 3.59106 5.90909 3.59106H4.18182C3.86364 3.59106 3.59091 3.86379 3.59091 4.18197C3.59091 4.50016 3.86364 4.77288 4.18182 4.77288Z" fill="white"/>
<path d="M3.90909 12.091H17.8182C18.1364 12.091 18.4091 11.8183 18.4091 11.5001C18.4091 11.1819 18.1364 10.9092 17.8182 10.9092H3.90909C3.5909 10.9092 3.31818 11.1819 3.31818 11.5001C3.31818 11.8183 3.5909 12.091 3.90909 12.091Z" fill="white"/>
</g>
<defs>
<clipPath id="clip0">
<rect width="21.6818" height="30" fill="white"/>
</clipPath>
</defs>
</svg>
