<svg width="18" height="18" viewBox="0 0 18 18" fill="none" xmlns="http://www.w3.org/2000/svg">
<path d="M11.1538 4.83331H2.97435V5.5769H11.1538V4.83331Z" fill="white"/>
<path d="M11.1538 7.06409H2.97435V7.80767H11.1538V7.06409Z" fill="white"/>
<path d="M9.29484 9.29486H2.97435V10.0384H9.29484V9.29486Z" fill="white"/>
<path d="M7.43587 11.5256H2.97435V12.2692H7.43587V11.5256Z" fill="white"/>
<path d="M7.43587 13.7563H2.97435V14.4999H7.43587V13.7563Z" fill="white"/>
<path d="M14.1281 6.53836V2.82042L11.3077 0H0V17.8461H14.1281V11.3077L18 7.43587L15.6153 5.05118L14.1281 6.53836ZM13.7564 7.96158L15.0896 9.29483L10.6281 13.7564H9.29483V12.4231L13.7564 7.96158ZM11.5256 1.2693L12.8588 2.60255H11.5256V1.2693ZM13.3846 17.1025H0.743587V0.743587H10.782V3.34614H13.3846V7.28194L8.55124 12.1153V14.4999H10.9359L13.3846 12.0513V17.1025ZM15.6153 8.76912L14.2821 7.43587L15.6153 6.10261L16.9486 7.43587L15.6153 8.76912Z" fill="white"/>
</svg>
