<svg width="32" height="32" viewBox="0 0 32 32" fill="none" xmlns="http://www.w3.org/2000/svg">
<path d="M31.7098 19.2744L29.0249 17.4603V12.0181L31.7098 10.2404C31.8549 10.1315 31.9637 9.98639 31.9637 9.80499C31.9637 9.62358 31.8549 9.44218 31.7098 9.36961L17.8866 0.0816327C17.7052 -0.0272109 17.4512 -0.0272109 17.2698 0.0816327L0.217687 11.4739C0.145125 11.5102 0.108843 11.5465 0.0725623 11.619C0.0725623 11.619 0.0725623 11.619 0.0725623 11.6553C-7.02821e-08 11.7642 0 11.8367 0 11.9456V21.9229C0 22.1043 0.108843 22.2857 0.253968 22.3583L14.0771 31.5737C14.1859 31.6463 14.2585 31.6825 14.3673 31.6825C14.4762 31.6825 14.585 31.6463 14.6576 31.5737L31.746 20.1814C31.8912 20.0726 32 19.9274 32 19.746C31.9637 19.5283 31.8549 19.3469 31.7098 19.2744ZM17.5964 1.20635L30.4399 9.76871L28.3356 11.1474C28.2268 11.1837 28.1179 11.2562 28.0454 11.3288L14.3311 20.4717L4.02721 13.6145C3.99093 13.5782 3.95465 13.5782 3.95465 13.5419L1.48753 11.9093L17.5964 1.20635ZM4.20862 15.0658L14.0045 21.5964C14.1859 21.7052 14.4399 21.7052 14.6213 21.5964L27.9365 12.7075V17.1701L14.4036 26.0952L4.20862 19.5646V15.0658ZM14.3311 30.449L1.05215 21.5964V12.9615L3.15646 14.3401V19.8549C3.15646 20.0363 3.26531 20.2177 3.41043 20.3265L14.1497 27.22C14.2222 27.2925 14.3311 27.2925 14.4399 27.2925C14.5488 27.2925 14.6576 27.2562 14.7302 27.22L28.2993 18.2948L30.4399 19.746L14.3311 30.449Z" fill="white"/>
<path d="M15.2381 6.17699L21.6961 10.6033C21.805 10.6759 21.9138 10.7121 21.9864 10.7121C22.1678 10.7121 22.3129 10.6396 22.4218 10.4582C22.6032 10.2042 22.5306 9.87767 22.2766 9.69626L15.8549 5.26996C15.6009 5.08855 15.2744 5.16112 15.093 5.41508C14.9116 5.66905 14.9841 5.99558 15.2381 6.17699Z" fill="white"/>
</svg>
