<svg width="29" height="36" viewBox="0 0 29 36" fill="none" xmlns="http://www.w3.org/2000/svg">
<path d="M28.2514 16.1486C28.0457 16.0115 27.7028 16.08 27.4971 16.2172L22.2171 20.4V16.4229C22.2171 16.1486 22.08 15.9429 21.8743 15.8057C21.6685 15.6686 21.3943 15.7372 21.1885 15.8743L14.7428 20.5372L14.4 16.2172C14.4 16.0115 14.2628 15.7372 14.0571 15.6686C13.8514 15.5315 13.5771 15.6 13.3714 15.6686L5.62283 20.3315V14.0229C6.10283 13.7486 6.51426 13.4057 6.78854 12.9257C7.1314 13.0629 7.54283 13.0629 7.95426 13.0629C9.46283 13.0629 10.7657 12.24 11.4514 11.0057C11.6571 11.0057 11.8628 11.0743 12.1371 11.0743C14.9485 11.0743 17.2114 8.81146 17.2114 6.00003C17.2114 3.18861 14.9485 0.857178 12.1371 0.857178C9.59997 0.857178 7.54283 2.64003 7.1314 5.10861C5.34855 5.45146 4.04569 6.96003 3.90855 8.81146C2.60569 9.01718 1.57712 10.1829 1.57712 11.5543C1.57712 11.6229 1.57712 11.6915 1.57712 11.6915H0.891403C0.479974 11.6915 0.205688 11.9657 0.205688 12.3772V34.4572C0.205688 34.8686 0.479974 35.1429 0.891403 35.1429H27.9771C28.3885 35.1429 28.6628 34.8686 28.6628 34.4572V16.7657C28.5943 16.4915 28.4571 16.2857 28.2514 16.1486ZM2.94855 11.5543C2.94855 10.7315 3.56569 10.1143 4.38855 10.1143C4.45712 10.1143 4.52569 10.1143 4.59426 10.1143C4.79997 10.1143 5.00569 10.0457 5.14283 9.90861C5.27997 9.77146 5.34855 9.56575 5.34855 9.36003C5.34855 9.22289 5.34855 9.15432 5.34855 9.01718C5.34855 7.64575 6.44569 6.41146 7.81712 6.34289C8.15997 6.34289 8.43426 6.06861 8.43426 5.72575C8.50283 3.73718 10.1485 2.22861 12.1371 2.22861C14.1943 2.22861 15.84 3.87432 15.84 6.00003C15.84 8.05718 14.1943 9.70289 12.1371 9.70289C11.8628 9.70289 11.52 9.63432 11.2457 9.56575C10.9028 9.49718 10.56 9.63432 10.4228 9.97718C10.0114 11.0057 9.0514 11.6915 7.95426 11.6915C7.54283 11.6915 7.1314 11.6229 6.71997 11.4172C6.51426 11.3486 6.30854 11.3486 6.10283 11.4172C5.89712 11.4857 5.75997 11.6915 5.6914 11.8972C5.6914 12.0343 5.62283 12.1715 5.55426 12.3086C5.48569 11.9657 5.2114 11.76 4.86855 11.76H2.87997C2.94855 11.6915 2.94855 11.6229 2.94855 11.5543ZM2.39997 13.0629H4.2514V14.16H1.57712V13.0629H2.39997ZM27.2228 33.7715H1.57712V15.6H4.2514V21.5657C4.2514 21.84 4.38855 22.0457 4.59426 22.1829C4.79997 22.32 5.07426 22.32 5.27997 22.1829L13.0971 17.52L13.44 21.9086C13.44 22.1829 13.5771 22.3886 13.8514 22.4572C14.0571 22.5943 14.3314 22.5257 14.5371 22.3886L20.9143 17.7943V21.84C20.9143 22.1143 21.0514 22.32 21.3257 22.4572C21.5314 22.5943 21.8743 22.5257 22.08 22.3886L27.36 18.2057V33.7715H27.2228Z" fill="white"/>
<path d="M22.8343 31.7143H25.7828C26.1943 31.7143 26.4686 31.44 26.4686 31.0286V28.08C26.4686 27.6686 26.1943 27.3943 25.7828 27.3943H22.8343C22.4228 27.3943 22.1486 27.6686 22.1486 28.08V31.0286C22.1486 31.44 22.4228 31.7143 22.8343 31.7143ZM23.52 28.7657H25.0971V30.3429H23.52V28.7657Z" fill="white"/>
<path d="M14.1942 27.3943H11.2457C10.8342 27.3943 10.5599 27.6686 10.5599 28.08V31.0286C10.5599 31.44 10.8342 31.7143 11.2457 31.7143H14.1942C14.6057 31.7143 14.8799 31.44 14.8799 31.0286V28.08C14.8799 27.7371 14.5371 27.3943 14.1942 27.3943ZM13.5085 30.3429H11.9314V28.7657H13.5085V30.3429Z" fill="white"/>
<path d="M8.43433 23.6914H5.48576C5.07433 23.6914 4.80005 23.9657 4.80005 24.3771V27.3257C4.80005 27.7371 5.07433 28.0114 5.48576 28.0114H8.43433C8.84576 28.0114 9.12005 27.7371 9.12005 27.3257V24.3771C9.12005 24.0343 8.77719 23.6914 8.43433 23.6914ZM7.74862 26.7085H6.17148V25.1314H7.74862V26.7085Z" fill="white"/>
<path d="M19.9542 23.6914H17.0057C16.5942 23.6914 16.3199 23.9657 16.3199 24.3771V27.3257C16.3199 27.7371 16.5942 28.0114 17.0057 28.0114H19.9542C20.3657 28.0114 20.6399 27.7371 20.6399 27.3257V24.3771C20.6399 24.0343 20.3657 23.6914 19.9542 23.6914ZM19.2685 26.7085H17.6914V25.1314H19.2685V26.7085Z" fill="white"/>
</svg>
