<svg width="32" height="32" viewBox="0 0 32 32" fill="none" xmlns="http://www.w3.org/2000/svg">
<path d="M26.6467 27.8721H5.39673C2.98435 27.8721 1.02173 25.9095 1.02173 23.4971V10.9971C1.02173 8.58469 2.98435 6.62207 5.39673 6.62207H26.6467C29.0592 6.62207 31.0217 8.58469 31.0217 10.9971V23.4971C31.0217 25.9095 29.0591 27.8721 26.6467 27.8721ZM5.39667 7.87213C3.67354 7.87213 2.27167 9.27401 2.27167 10.9971V23.4971C2.27167 25.2203 3.67354 26.6221 5.39667 26.6221H26.6467C28.3698 26.6221 29.7717 25.2203 29.7717 23.4971V10.9971C29.7717 9.27401 28.3698 7.87213 26.6467 7.87213H5.39667Z" fill="white"/>
<path d="M9.77173 30.3721H6.02173C5.33248 30.3721 4.77173 29.8113 4.77173 29.1221V27.2471C4.77173 26.9019 5.05154 26.6221 5.39673 26.6221H10.3967C10.7419 26.6221 11.0217 26.9019 11.0217 27.2471V29.1221C11.0217 29.8113 10.461 30.3721 9.77173 30.3721ZM6.02173 27.8721V29.1221H9.77173C9.77229 29.1221 9.77254 29.122 9.77254 29.122L9.77204 27.8721H6.02173Z" fill="white"/>
<path d="M26.6467 30.3721H22.8967C22.2075 30.3721 21.6467 29.8113 21.6467 29.1221V27.2471C21.6467 26.9019 21.9266 26.6221 22.2717 26.6221H27.2717C27.6169 26.6221 27.8967 26.9019 27.8967 27.2471V29.1221C27.8967 29.8113 27.336 30.3721 26.6467 30.3721ZM22.8967 27.8721V29.1221H26.6467C26.6473 29.1221 26.6475 29.122 26.6475 29.122L26.647 27.8721H22.8967Z" fill="white"/>
<path d="M23.5217 7.87207H8.52173C8.17654 7.87207 7.89673 7.59226 7.89673 7.24707V5.99707C7.89673 3.5847 9.85935 1.62207 12.2717 1.62207H19.7717C22.1841 1.62207 24.1467 3.5847 24.1467 5.99707V7.24707C24.1467 7.5922 23.8669 7.87207 23.5217 7.87207ZM9.14667 6.62207H22.8967V5.99707C22.8967 4.27395 21.4948 2.87207 19.7717 2.87207H12.2717C10.5485 2.87207 9.14667 4.27395 9.14667 5.99707V6.62207Z" fill="white"/>
<path d="M18.5217 25.3721H13.5217C13.1765 25.3721 12.8967 25.0922 12.8967 24.7471V20.3721H8.52173C8.17654 20.3721 7.89673 20.0922 7.89673 19.7471V14.7471C7.89673 14.4019 8.17654 14.1221 8.52173 14.1221H12.8967V9.74707C12.8967 9.40188 13.1765 9.12207 13.5217 9.12207H18.5217C18.8669 9.12207 19.1467 9.40188 19.1467 9.74707V14.1221H23.5217C23.8669 14.1221 24.1467 14.4019 24.1467 14.7471V19.7471C24.1467 20.0922 23.8669 20.3721 23.5217 20.3721H19.1467V24.7471C19.1467 25.0923 18.8669 25.3721 18.5217 25.3721ZM14.1467 24.1221H17.8967V19.7471C17.8967 19.4019 18.1765 19.1221 18.5217 19.1221H22.8967V15.3721H18.5217C18.1765 15.3721 17.8967 15.0923 17.8967 14.7471V10.3721H14.1467V14.7471C14.1467 15.0923 13.8669 15.3721 13.5217 15.3721H9.14667V19.1221H13.5217C13.8669 19.1221 14.1467 19.4019 14.1467 19.7471V24.1221Z" fill="white"/>
<path d="M16.0217 22.8721C15.6765 22.8721 15.3967 22.5922 15.3967 22.2471V12.2471C15.3967 11.9019 15.6765 11.6221 16.0217 11.6221C16.3669 11.6221 16.6467 11.9019 16.6467 12.2471V22.2471C16.6468 22.5923 16.3669 22.8721 16.0217 22.8721Z" fill="white"/>
<path d="M21.0217 17.8721H11.0217C10.6765 17.8721 10.3967 17.5922 10.3967 17.2471C10.3967 16.9019 10.6765 16.6221 11.0217 16.6221H21.0217C21.3669 16.6221 21.6467 16.9019 21.6467 17.2471C21.6467 17.5922 21.3669 17.8721 21.0217 17.8721Z" fill="white"/>
</svg>
