<svg width="27" height="32" viewBox="0 0 27 32" fill="none" xmlns="http://www.w3.org/2000/svg">
<g clip-path="url(#clip0)">
<path d="M25.9533 7.99999V4.11154C25.9533 3.85656 25.7302 3.63346 25.4753 3.63346H13.8099V1.30676C13.8099 1.05178 13.5868 0.828674 13.3318 0.828674C13.0768 0.828674 12.8537 1.05178 12.8537 1.30676V3.63346H1.22028C0.965295 3.63346 0.742188 3.85656 0.742188 4.11154V7.99999C0.742188 8.12748 0.742188 8.41433 0.742188 8.63744V20.0797C0.742188 20.3347 0.965295 20.5578 1.22028 20.5578H8.6147L6.16051 30.8526C6.09677 31.1076 6.25613 31.3625 6.51111 31.4263C6.54298 31.4263 6.57486 31.4263 6.6386 31.4263C6.86171 31.4263 7.05294 31.2669 7.11669 31.0757L9.63462 20.5578H12.9175V28.2709C12.9175 28.5259 13.1406 28.749 13.3956 28.749C13.6506 28.749 13.8737 28.5259 13.8737 28.2709V20.5578H17.0609L19.6745 31.0757C19.7382 31.2988 19.9294 31.4263 20.1525 31.4263C20.1844 31.4263 20.2163 31.4263 20.28 31.4263C20.535 31.3625 20.6944 31.1076 20.6306 30.8526L18.0808 20.5578H25.539C25.794 20.5578 26.0171 20.3347 26.0171 20.0797C26.0171 20.0797 25.9533 8.15935 25.9533 7.99999ZM24.9972 4.58963V7.84063H1.69836V4.58963H24.9972ZM1.69836 19.6016V8.7968H24.9972V19.6016H1.69836Z" fill="white"/>
</g>
<defs>
<clipPath id="clip0">
<rect width="26.2857" height="32" fill="white"/>
</clipPath>
</defs>
</svg>
