<svg width="45" height="35" viewBox="0 0 45 35" fill="none" xmlns="http://www.w3.org/2000/svg">
<path fill-rule="evenodd" clip-rule="evenodd" d="M30.3746 30.1562H2.80261C2.03359 30.1562 1.40625 29.5318 1.40625 28.7615V13.2812H39.375V19.1974C38.7045 19.0077 37.9969 18.9062 37.2656 18.9062C32.994 18.9062 29.5312 22.369 29.5312 26.6406C29.5312 27.9066 29.8354 29.1015 30.3746 30.1562H30.3746ZM31.2991 31.5625H2.80306C1.26522 31.5625 0 30.3089 0 28.7624V3.42506C0 1.8761 1.26094 0.625 2.81638 0.625H18.2812L21.0938 6.25H37.9605C39.5198 6.25 40.7812 7.50611 40.7812 9.05559V19.7496C43.2856 21.0298 45 23.635 45 26.6406C45 30.9122 41.5372 34.375 37.2656 34.375C34.8638 34.375 32.7177 33.2802 31.2991 31.5625ZM1.40625 11.875V3.42597C1.40625 2.67152 2.03065 2.03125 2.80088 2.03125H17.4375L20.1937 7.65625H37.9646C38.7368 7.65625 39.375 8.2864 39.375 9.06373V11.875H1.40625ZM37.2656 32.9688C40.7606 32.9688 43.5938 30.1356 43.5938 26.6406C43.5938 23.1457 40.7606 20.3125 37.2656 20.3125C33.7707 20.3125 30.9375 23.1457 30.9375 26.6406C30.9375 30.1356 33.7707 32.9688 37.2656 32.9688ZM36.5625 23.125V24.5312H37.9688V23.125H36.5625ZM35.1562 25.9375V27.3438H36.5625V28.75H35.1562V30.1562H37.9688H39.375V28.75H37.9688V25.9375H35.1562Z" fill="white"/>
</svg>
