<svg width="34" height="34" viewBox="0 0 34 34" fill="none" xmlns="http://www.w3.org/2000/svg">
<path d="M16.9999 16.9999V7.3999H5.2666V32.9999H14.8666" stroke="white" stroke-linejoin="round"/>
<path d="M17 7.4002L13.8 4.2002H3.1333L5.26663 7.4002" stroke="white" stroke-linejoin="round"/>
<path d="M3.13333 4.2002L1 7.4002V33.0002H5.26667" stroke="white" stroke-linejoin="round"/>
<path d="M13.8 4.2V1H3.1333V4.2" stroke="white" stroke-linejoin="round"/>
<path d="M14.8666 26.5998H7.3999V13.7998H14.8666V15.3998" stroke="white" stroke-linejoin="round"/>
<path d="M16.9999 11.6665H5.2666" stroke="white" stroke-linejoin="round"/>
<path d="M14.8666 28.7334H5.2666" stroke="white" stroke-linejoin="round"/>
<path d="M24.4667 17H14.8667V33H24.4667V17Z" stroke="white" stroke-linejoin="round"/>
<path d="M14.8667 30.8667H24.4667" stroke="white" stroke-linejoin="round"/>
<path d="M14.8667 20.2002H24.4667" stroke="white" stroke-linejoin="round"/>
<path d="M21.2666 16.9998V11.6665H23.3999V16.9998" stroke="white" stroke-linejoin="round"/>
<path d="M24.4666 33.0001H31.9332C32.2161 33.0001 32.4874 32.8877 32.6875 32.6877C32.8875 32.4876 32.9999 32.2163 32.9999 31.9334C32.9999 31.6505 32.8875 31.3792 32.6875 31.1792C32.4874 30.9791 32.2161 30.8668 31.9332 30.8668H28.7332C28.4503 30.8668 28.179 30.7544 27.979 30.5543C27.7789 30.3543 27.6666 30.083 27.6666 29.8001C27.6666 29.5172 27.7789 29.2459 27.979 29.0458C28.179 28.8458 28.4503 28.7334 28.7332 28.7334H29.7999C30.0828 28.7334 30.3541 28.6211 30.5541 28.421C30.7542 28.221 30.8666 27.9497 30.8666 27.6668C30.8666 27.3839 30.7542 27.1126 30.5541 26.9125C30.3541 26.7125 30.0828 26.6001 29.7999 26.6001H24.4666" stroke="white" stroke-linejoin="round"/>
</svg>
