<svg width="32" height="32" viewBox="0 0 32 32" fill="none" xmlns="http://www.w3.org/2000/svg">
<path d="M16 1.27979C7.87139 1.27979 1.28003 7.87051 1.28003 15.9998C1.28003 24.1291 7.87139 30.7198 16 30.7198C24.1287 30.7198 30.72 24.1291 30.72 15.9998C30.72 7.87051 24.1287 1.27979 16 1.27979Z" stroke="white" stroke-miterlimit="10" stroke-linecap="round" stroke-linejoin="round"/>
<path d="M11.9744 22.2202L9.47266 14.5005L16.0167 9.72998L22.5619 14.5005L20.0627 22.2202H11.9744Z" stroke="white" stroke-miterlimit="10" stroke-linecap="round" stroke-linejoin="round"/>
<path d="M21.5925 2.42432L16.0168 4.8032L10.4424 2.42432" stroke="white" stroke-miterlimit="10" stroke-linecap="round" stroke-linejoin="round"/>
<path d="M4.89336 6.46777L5.42904 12.5241L1.44824 17.1065" stroke="white" stroke-miterlimit="10" stroke-linecap="round" stroke-linejoin="round"/>
<path d="M3.5686 23.6523L9.47388 25.0123L12.59 30.2258" stroke="white" stroke-miterlimit="10" stroke-linecap="round" stroke-linejoin="round"/>
<path d="M19.4482 30.2259L22.5618 25.0099L28.4652 23.6499" stroke="white" stroke-miterlimit="10" stroke-linecap="round" stroke-linejoin="round"/>
<path d="M30.5875 17.1052L26.6035 12.5203L27.1386 6.46777" stroke="white" stroke-miterlimit="10" stroke-linecap="round" stroke-linejoin="round"/>
<path d="M16.0166 4.80322V9.72994" stroke="white" stroke-miterlimit="10" stroke-linecap="round" stroke-linejoin="round"/>
<path d="M22.562 14.6915L26.6036 12.52" stroke="white" stroke-miterlimit="10" stroke-linecap="round" stroke-linejoin="round"/>
<path d="M20.0627 22.2202L22.5619 25.01" stroke="white" stroke-miterlimit="10" stroke-linecap="round" stroke-linejoin="round"/>
<path d="M11.9744 22.2202L9.47388 25.0125" stroke="white" stroke-miterlimit="10" stroke-linecap="round" stroke-linejoin="round"/>
<path d="M5.4292 12.5239L9.47272 14.5002" stroke="white" stroke-miterlimit="10" stroke-linecap="round" stroke-linejoin="round"/>
</svg>
