<svg width="35" height="36" viewBox="0 0 35 36" fill="none" xmlns="http://www.w3.org/2000/svg">
<g clip-path="url(#clip0)">
<path d="M29.8947 5.15211C26.7747 2.0036 22.6337 0.171737 18.2658 0V1.71737H18.3225C19.9676 2.11809 21.5559 3.60647 22.8039 6.12528C23.1442 6.81223 23.4279 7.49918 23.7115 8.30062V8.35786H23.6548C21.953 9.04481 20.1378 9.50278 18.3225 9.56002H18.2658V11.0484H18.3225C20.3079 10.9339 22.2366 10.5332 24.1086 9.789H24.1653V9.84625C24.7893 12.0216 25.0729 14.3687 25.1297 16.8875V16.9447H18.2658V18.4331H25.1864V18.4903C25.1297 21.0091 24.7893 23.4135 24.1653 25.5888V25.646H24.1086C22.2366 24.9019 20.3079 24.4439 18.3225 24.3866H18.2658V18.4331H16.7909V24.3294H16.7342C14.7488 24.3866 12.7634 24.8446 10.9481 25.5888H10.8914V25.5316C10.2674 23.3562 9.92707 20.9519 9.87034 18.4331V18.3758H8.39546V18.4331C8.45219 21.1809 8.84927 23.8142 9.52998 26.1613V26.2185H9.47326C8.16856 26.9054 6.97731 27.7641 5.89951 28.7373L5.84279 28.7946L5.78606 28.7373C3.17666 25.9323 1.64506 22.2686 1.41815 18.4331V18.3758H0C0.170178 22.841 1.98541 26.9627 5.10535 30.1112C8.39546 33.4314 12.8201 35.2633 17.4716 35.2633C22.1799 35.2633 26.5478 33.4314 29.8379 30.1112C33.128 26.791 34.9433 22.3258 34.9433 17.6317C35 12.9375 33.1848 8.5296 29.8947 5.15211ZM13.1605 33.2597C10.8914 32.63 8.73582 31.4279 6.97731 29.8822L6.92058 29.825L6.97731 29.7677C7.88493 28.9663 8.906 28.2793 9.98379 27.7069L10.0405 27.6496V27.7069C10.3241 28.5083 10.6078 29.1953 10.9481 29.825C11.6288 31.1416 12.3663 32.2865 13.2739 33.1452L13.4441 33.317L13.1605 33.2597ZM16.7909 33.6032H16.7342C15.0891 33.2025 13.5008 31.7141 12.2528 29.1953C11.9125 28.5656 11.6288 27.8214 11.3452 27.0772V27.0199H11.4019C13.1037 26.333 14.919 25.875 16.7342 25.8178H16.7909V33.6032ZM29.1572 6.58325C31.7666 9.44553 33.2982 13.052 33.5251 16.8875V16.9447H26.6045V16.8875C26.5478 14.1969 26.1507 11.5064 25.47 9.21655V9.1593H25.5267C26.8314 8.47235 28.0227 7.61367 29.1572 6.58325ZM25.0729 7.67092L25.0162 7.72816V7.67092C24.7326 6.92672 24.4489 6.18253 24.1086 5.49558C23.4279 4.12169 22.6337 3.03402 21.7828 2.17533L21.6126 2.0036L21.8395 2.06084C24.1086 2.69054 26.2642 3.8927 28.0794 5.49558L28.1361 5.55283L28.0794 5.61007C27.1718 6.35427 26.2075 7.09846 25.0729 7.67092ZM18.3225 33.6032H18.2658V25.8178H18.3225C20.1945 25.9323 22.0097 26.333 23.6548 27.0199H23.7115V27.0772C23.4279 27.8214 23.1442 28.5656 22.8039 29.1953C21.4992 31.7141 19.9676 33.2597 18.3225 33.6032ZM28.0794 29.8822C26.3209 31.4851 24.1653 32.63 21.8963 33.2597L21.6694 33.317L21.8395 33.1452C22.6904 32.2865 23.4846 31.1989 24.1653 29.825C24.5057 29.1953 24.7893 28.5083 25.0729 27.7069V27.6496L25.1297 27.7069C26.2075 28.2793 27.1718 28.9663 28.1361 29.7677V29.8822H28.0794ZM29.2139 28.7373H29.1572C28.0794 27.7641 26.8314 26.9054 25.5835 26.2185H25.5267V26.1613C26.2075 23.8142 26.6045 21.1236 26.6613 18.4331V18.3758H33.5818V18.4331C33.3549 22.3258 31.8233 25.9323 29.2139 28.7373Z" fill="white"/>
<path d="M18.2658 16.9447V11.0484V9.56002V1.71737V0C18.0389 0 17.7553 0 17.5284 0C12.8201 0 8.45219 1.83186 5.10535 5.15211C1.81523 8.47235 0 12.9375 0 17.6317C0 17.8606 0 18.1469 0 18.3758H1.47488H8.39546H9.87034H16.7909H18.2658V16.9447ZM9.52998 9.1593C8.84927 11.5064 8.45219 14.1969 8.39546 16.8302V16.8875H1.47488V16.8302C1.64506 12.9948 3.17666 9.38828 5.78606 6.58325L5.84279 6.526L5.89951 6.58325C6.97731 7.55642 8.22528 8.41511 9.52998 9.10205V9.1593ZM6.92058 5.61007V5.49558C8.73582 3.8927 10.8914 2.74779 13.1605 2.06084L13.3874 2.0036L13.2172 2.17533C12.3663 3.03402 11.6288 4.12169 10.8914 5.49558C10.5511 6.18253 10.2674 6.92672 9.98379 7.67091V7.72816L9.92707 7.67091C8.84927 7.09846 7.8282 6.41151 6.92058 5.61007ZM16.7909 16.9447H9.87034V16.8875C9.92707 14.3687 10.2674 12.0216 10.8347 9.84625V9.789H10.8914C12.7634 10.5332 14.6921 10.9912 16.6775 11.0484H16.7342V16.9447H16.7909ZM16.7909 9.56002H16.7342C14.8622 9.44553 13.047 9.04481 11.4019 8.35786H11.3452V8.30062C11.6288 7.55642 11.9125 6.81223 12.2528 6.12528C13.5008 3.60647 15.0324 2.06084 16.7342 1.71737H16.7909V9.56002Z" fill="white"/>
</g>
<defs>
<clipPath id="clip0">
<rect width="35" height="35.3206" fill="white"/>
</clipPath>
</defs>
</svg>
