<svg width="41" height="35" viewBox="0 0 41 35" fill="none" xmlns="http://www.w3.org/2000/svg">
<path d="M39.9484 6.99558L20.6093 0.0884659C20.4066 0.0160843 20.1849 0.0160843 19.9823 0.0884659L0.643236 6.99558C0.269005 7.12926 0.0205883 7.48568 0.0248339 7.88311C0.0289759 8.28054 0.284848 8.63167 0.661875 8.75739L8.49463 11.369V20.4711C8.49463 20.8865 8.76955 21.2519 9.16895 21.3667L20.0382 24.4942C20.1224 24.5184 20.2091 24.5306 20.2958 24.5306C20.3826 24.5306 20.4694 24.5185 20.5535 24.4942L23.9759 23.5095C24.4706 23.3671 24.7562 22.8508 24.6139 22.3561C24.4715 21.8615 23.9555 21.5757 23.4605 21.7182L20.2958 22.6288L10.3585 19.7694V11.9904L20.001 15.2055C20.1924 15.2692 20.3993 15.2694 20.5905 15.2055L22.3219 14.6283C22.3221 14.6283 22.3222 14.6282 22.3224 14.6281L23.7807 14.1419C24.269 13.9791 24.5329 13.4513 24.37 12.963C24.2071 12.4747 23.6794 12.2107 23.1911 12.3737L20.2958 13.339L11.6301 10.4496L3.81219 7.84293L20.2958 1.95568L36.7795 7.84293L30.8705 9.81318C30.8704 9.81318 30.8704 9.81318 30.8704 9.81318L30.1411 10.0563L29.5399 10.2568H29.5398L28.6076 10.5675C28.1193 10.7303 27.8554 11.2581 28.0183 11.7465C28.1811 12.2347 28.7087 12.4982 29.1972 12.3358L30.2333 11.9903V19.7693L29.0716 20.1036C28.577 20.246 28.2914 20.7623 28.4337 21.2569C28.5513 21.6656 28.9239 21.9315 29.3289 21.9315C29.4142 21.9315 29.5009 21.9198 29.587 21.8949L31.4228 21.3666C31.8221 21.2518 32.0972 20.8863 32.0972 20.471V11.3689L39.9299 8.75728C40.307 8.63157 40.5628 8.28054 40.567 7.88301C40.5711 7.48558 40.3227 7.12926 39.9484 6.99558Z" fill="white"/>
<path d="M27.4629 12.2168C27.4622 12.1952 27.4616 12.1736 27.4595 12.152C27.458 12.1364 27.4553 12.1212 27.453 12.1058C27.4508 12.0913 27.4493 12.0769 27.4465 12.0626C27.4432 12.0454 27.4386 12.0286 27.4344 12.0118C27.4312 11.9994 27.4284 11.9869 27.4247 11.9746C27.4198 11.958 27.4139 11.942 27.4081 11.9259C27.4035 11.9134 27.3994 11.9008 27.3943 11.8885C27.3883 11.8738 27.3814 11.8597 27.3747 11.8454C27.3684 11.8321 27.3624 11.8185 27.3554 11.8054C27.3487 11.7927 27.3412 11.7807 27.334 11.7686C27.3258 11.7546 27.3177 11.7405 27.3087 11.7269C27.3011 11.7155 27.2927 11.7046 27.2845 11.6934C27.2748 11.6802 27.2654 11.6667 27.255 11.6539C27.245 11.6417 27.2342 11.6302 27.2237 11.6186C27.2139 11.6078 27.2047 11.5968 27.1946 11.5865C27.178 11.5697 27.1604 11.554 27.1426 11.5386C27.1376 11.5343 27.1333 11.5296 27.1282 11.5254L27.1259 11.5234C27.1254 11.523 27.1248 11.5225 27.1241 11.5219L20.8919 6.33667C20.4964 6.00748 19.9088 6.06133 19.5794 6.45699C19.2502 6.85266 19.3041 7.4403 19.6998 7.76949L25.6001 12.6786V29.2007C24.5658 29.4132 23.7857 30.3304 23.7857 31.4266V32.6925C23.7857 33.9455 24.805 34.9647 26.0579 34.9647H27.3239C28.5768 34.9647 29.5961 33.9453 29.5961 32.6925V31.4266C29.5961 30.2207 28.6518 29.2318 27.464 29.1592V12.2463C27.464 12.2461 27.464 12.2458 27.464 12.2455V12.2416C27.4641 12.2333 27.4631 12.2252 27.4629 12.2168ZM27.7322 31.4266V32.6925C27.7322 32.9177 27.549 33.1008 27.3239 33.1008H26.0579C25.8327 33.1008 25.6496 32.9176 25.6496 32.6925V31.4266C25.6496 31.2014 25.8328 31.0183 26.0579 31.0183H27.3239C27.5491 31.0183 27.7322 31.2014 27.7322 31.4266Z" fill="white"/>
</svg>
