<svg width="32" height="32" viewBox="0 0 32 32" fill="none" xmlns="http://www.w3.org/2000/svg">
<g clip-path="url(#clip0)">
<path d="M31.6941 8.88766L21.575 5.02975C21.3296 4.93625 21.0549 5.0593 20.9614 5.30441C20.8679 5.54977 20.991 5.82443 21.2363 5.91794L30.1907 9.33176L23.9919 11.6953L16.196 8.1655C15.9568 8.0571 15.6753 8.1633 15.5671 8.40231C15.4587 8.64157 15.5649 8.92307 15.804 9.03146L22.7407 12.1723L16 14.7422L1.80933 9.33176L16 3.92136L19.4971 5.25485C19.7419 5.34811 20.0168 5.22531 20.1106 4.97995C20.2041 4.73483 20.0811 4.46017 19.8357 4.36667L16.1694 2.96872C16.0603 2.92722 15.9397 2.92697 15.8306 2.96872L0.305908 8.88766C0.121826 8.95798 0 9.13474 0 9.33176V11.5022C0 11.6992 0.121826 11.8759 0.305908 11.9463L5.15381 13.7944V15.4414C5.15381 15.7038 5.36646 15.9167 5.62891 15.9167C5.8916 15.9167 6.10425 15.7038 6.10425 15.4414V14.157L15.8306 17.8652C15.8853 17.886 15.9426 17.8965 16 17.8965C16.0574 17.8965 16.1147 17.886 16.1694 17.8652L23.501 15.07V22.5915C21.1992 23.7998 18.6182 24.4472 16 24.4472C12.4268 24.4472 8.92188 23.2426 6.10425 21.0505V17.3425C6.10425 17.08 5.8916 16.8672 5.62891 16.8672C5.36646 16.8672 5.15381 17.08 5.15381 17.3425V21.2807C5.15381 21.425 5.21924 21.5615 5.33179 21.6516C8.34717 24.0674 12.136 25.3977 16 25.3977C18.606 25.3977 21.1772 24.7917 23.501 23.6567V25.5803C22.7351 25.7895 22.1704 26.4909 22.1704 27.3222C22.1704 28.3178 22.9805 29.1281 23.9761 29.1281C24.9719 29.1281 25.782 28.3178 25.782 27.3222C25.782 26.4909 25.2173 25.7895 24.4514 25.5803V23.1548C25.2261 22.7141 25.9683 22.2126 26.6685 21.6516C26.781 21.5615 26.8467 21.425 26.8467 21.2807V13.7942L31.6941 11.946C31.8782 11.8759 32 11.6992 32 11.5019V9.33176C32 9.13474 31.8782 8.95798 31.6941 8.88766ZM24.8315 27.3222C24.8315 27.7937 24.4478 28.1775 23.9761 28.1775C23.5046 28.1775 23.1209 27.7937 23.1209 27.3222C23.1209 26.8506 23.5046 26.4668 23.9761 26.4668C24.4478 26.4668 24.8315 26.8506 24.8315 27.3222ZM0.95044 10.0217L15.5247 15.5783V16.7312L0.95044 11.1745V10.0217ZM16.4753 16.7312V15.5783L23.501 12.8996V14.0527L16.4753 16.7312ZM25.896 21.0503C25.4324 21.4111 24.9497 21.7446 24.4514 22.0508V14.7075L25.896 14.1567V21.0503ZM24.4514 13.6902V12.5373L31.0496 10.0217V11.1745L24.4514 13.6902Z" fill="white"/>
</g>
<defs>
<clipPath id="clip0">
<rect width="32" height="32" fill="white"/>
</clipPath>
</defs>
</svg>
