<svg width="25" height="25" viewBox="0 0 25 25" fill="none" xmlns="http://www.w3.org/2000/svg">
<path d="M20.3613 13.7109C19.7851 17.5781 16.3965 20.498 12.4805 20.498C8.08592 20.498 4.50194 16.9238 4.50194 12.5293C4.50194 8.61328 7.42186 5.21484 11.289 4.64844L11.6992 4.58984V0.625L11.1719 0.683594C5.15623 1.36719 0.624985 6.43555 0.624985 12.4902C0.624985 19.043 5.95702 24.375 12.5098 24.375C18.5644 24.375 23.6328 19.8438 24.3164 13.8379L24.375 13.3105H20.4199L20.3613 13.7109ZM23.291 14.2578C22.4414 19.5215 17.9004 23.418 12.5098 23.418C6.48436 23.418 1.58202 18.5156 1.58202 12.4902C1.58202 7.09961 5.48827 2.54883 10.7422 1.69922V3.76953C6.61131 4.58984 3.54491 8.28125 3.54491 12.5293C3.54491 17.4512 7.54881 21.4551 12.4707 21.4551C16.7187 21.4551 20.4101 18.3887 21.2305 14.2578H23.291Z" fill="white"/>
<path d="M24.3066 11.1523C23.7012 5.70312 19.2969 1.29883 13.8476 0.693359L13.3203 0.634766V11.6797H24.3652L24.3066 11.1523ZM14.2676 10.7324V1.70898C18.8574 2.46094 22.539 6.14258 23.291 10.7324H14.2676Z" fill="white"/>
<path d="M15.6347 5.35159C15.7519 5.35159 15.8789 5.30276 15.9668 5.21487L16.9824 4.21877C17.1679 4.03323 17.1777 3.73049 16.9922 3.54495C16.8066 3.3594 16.5039 3.3594 16.3183 3.53518L15.3027 4.53128C15.1172 4.71682 15.1074 5.01956 15.2929 5.2051C15.3906 5.30276 15.5176 5.35159 15.6347 5.35159Z" fill="white"/>
<path d="M19.0234 5.49807L15.4297 9.02346C15.2441 9.20901 15.2344 9.51175 15.4199 9.69729C15.5176 9.79495 15.6348 9.84378 15.7617 9.84378C15.8789 9.84378 16.0059 9.79495 16.0937 9.70706L19.6875 6.18167C19.873 5.99612 19.8828 5.69338 19.6973 5.50784C19.5117 5.32229 19.209 5.32229 19.0234 5.49807Z" fill="white"/>
<path d="M20.1172 9.69729C20.2148 9.79495 20.332 9.84377 20.459 9.84377C20.5762 9.84377 20.7031 9.79495 20.791 9.70706L21.5723 8.94534C21.7578 8.75979 21.7578 8.45706 21.582 8.27151C21.3965 8.08596 21.0937 8.08596 20.9082 8.26174L20.1269 9.02346C19.9316 9.20901 19.9316 9.50198 20.1172 9.69729Z" fill="white"/>
</svg>
