<svg width="32" height="32" viewBox="0 0 32 32" fill="none" xmlns="http://www.w3.org/2000/svg">
<path d="M29.5963 0H2.3997C1.76326 0 1.15289 0.252825 0.702856 0.702856C0.252825 1.15289 0 1.76326 0 2.3997V19.9975C0 20.634 0.252825 21.2443 0.702856 21.6944C1.15289 22.1444 1.76326 22.3972 2.3997 22.3972H9.10287L4.87939 30.8442C4.78992 31.0357 4.77828 31.2545 4.84691 31.4544C4.91555 31.6543 5.05911 31.8198 5.24735 31.916C5.35773 31.9672 5.47766 31.9944 5.5993 31.996C5.76247 32.0124 5.92672 31.9781 6.0698 31.898C6.21287 31.8179 6.32787 31.6957 6.3992 31.5481L8.49494 27.1966H23.5011L25.6768 31.5481C25.7428 31.6827 25.8452 31.7961 25.9725 31.8753C26.0998 31.9545 26.2468 31.9963 26.3967 31.996C26.5184 31.9944 26.6383 31.9672 26.7487 31.916C26.9369 31.8198 27.0805 31.6543 27.1491 31.4544C27.2177 31.2545 27.2061 31.0357 27.1166 30.8442L22.8932 22.3972H29.5963C30.2328 22.3972 30.8431 22.1444 31.2932 21.6944C31.7432 21.2443 31.996 20.634 31.996 19.9975V2.3997C31.996 1.76326 31.7432 1.15289 31.2932 0.702856C30.8431 0.252825 30.2328 0 29.5963 0ZM9.29484 25.5968L10.8946 22.3972H21.1014L22.7012 25.5968H9.29484ZM30.3962 19.9975C30.3962 20.2097 30.3119 20.4131 30.1619 20.5631C30.0119 20.7131 29.8085 20.7974 29.5963 20.7974H2.3997C2.18755 20.7974 1.9841 20.7131 1.83409 20.5631C1.68408 20.4131 1.5998 20.2097 1.5998 19.9975V2.3997C1.5998 2.18755 1.68408 1.9841 1.83409 1.83409C1.9841 1.68408 2.18755 1.5998 2.3997 1.5998H29.5963C29.8085 1.5998 30.0119 1.68408 30.1619 1.83409C30.3119 1.9841 30.3962 2.18755 30.3962 2.3997V19.9975Z" fill="white"/>
<path d="M25.8368 5.03955L18.3977 12.4626L14.1582 8.23915C14.0864 8.16263 13.9997 8.10164 13.9034 8.05995C13.8071 8.01826 13.7032 7.99675 13.5983 7.99675C13.4934 7.99675 13.3895 8.01826 13.2932 8.05995C13.1969 8.10164 13.1102 8.16263 13.0384 8.23915L5.03937 16.2382C4.96285 16.31 4.90186 16.3967 4.86017 16.493C4.81848 16.5893 4.79697 16.6931 4.79697 16.7981C4.79697 16.903 4.81848 17.0069 4.86017 17.1032C4.90186 17.1995 4.96285 17.2862 5.03937 17.358C5.11118 17.4345 5.19792 17.4955 5.29422 17.5372C5.39053 17.5789 5.49436 17.6004 5.5993 17.6004C5.70424 17.6004 5.80807 17.5789 5.90437 17.5372C6.00068 17.4955 6.08741 17.4345 6.15923 17.358L13.5983 9.93494L17.8378 14.1584C17.9096 14.2349 17.9963 14.2959 18.0926 14.3376C18.1889 14.3793 18.2928 14.4008 18.3977 14.4008C18.5026 14.4008 18.6065 14.3793 18.7028 14.3376C18.7991 14.2959 18.8858 14.2349 18.9576 14.1584L26.9566 6.15941C27.1051 6.01091 27.1886 5.80949 27.1886 5.59948C27.1886 5.38946 27.1051 5.18805 26.9566 5.03955C26.8081 4.89105 26.6067 4.80762 26.3967 4.80762C26.1867 4.80762 25.9853 4.89105 25.8368 5.03955Z" fill="white"/>
</svg>
