<svg width="25" height="25" viewBox="0 0 25 25" fill="none" xmlns="http://www.w3.org/2000/svg">
<path d="M2.87111 18.6426C3.14455 18.6426 3.35939 18.4277 3.35939 18.1543V13.0469L6.30861 11.4648V15.6543C6.30861 15.9277 6.52345 16.1426 6.79689 16.1426C7.07033 16.1426 7.28517 15.9277 7.28517 15.6543V9.83398L2.39259 12.4609V18.1543C2.38283 18.418 2.59767 18.6426 2.87111 18.6426Z" fill="white"/>
<path d="M8.75003 14.9414C9.02347 14.9414 9.23831 14.7266 9.23831 14.4531V5.82031L12.1875 4.23828V18.2812C12.1875 18.5547 12.4024 18.7695 12.6758 18.7695C12.9492 18.7695 13.1641 18.5547 13.1641 18.2812V2.60742L8.26175 5.23437V14.4531C8.26175 14.7168 8.47659 14.9414 8.75003 14.9414Z" fill="white"/>
<path d="M14.6289 18.1348C14.9024 18.1348 15.1172 17.9199 15.1172 17.6465V8.33984L18.0664 6.75781V15.1855C18.0664 15.459 18.2813 15.6738 18.5547 15.6738C18.8282 15.6738 19.043 15.459 19.043 15.1855V5.12695L14.1504 7.75391V17.6465C14.1407 17.9199 14.3653 18.1348 14.6289 18.1348Z" fill="white"/>
<path d="M24.4141 14.2773C24.3262 14.1309 24.1699 14.0332 23.9942 14.0332H20.625C20.4492 14.0332 20.293 14.1309 20.2051 14.2773C20.1172 14.4238 20.1172 14.6094 20.2051 14.7656L20.8106 15.8105L18.125 17.4414C17.7149 17.6953 17.3145 17.9395 16.9043 18.1934C16.6113 18.3789 16.3184 18.5547 16.0352 18.7402C15.2735 19.2285 14.5996 19.668 13.9746 20.0977C13.6524 20.3125 13.3399 20.5371 13.0176 20.752L8.64259 16.4746L0.751968 21.4941C0.527358 21.6406 0.458999 21.9434 0.605483 22.168C0.703139 22.3145 0.859389 22.3926 1.01564 22.3926C1.10353 22.3926 1.19142 22.3633 1.27931 22.3145L8.50587 17.7148L12.9199 22.0215L13.5156 21.5918C13.8477 21.3574 14.1797 21.123 14.5215 20.8984C15.1367 20.4785 15.8008 20.0488 16.5625 19.5605C16.8457 19.375 17.1387 19.1992 17.4219 19.0137C17.8223 18.7598 18.2324 18.5156 18.6328 18.2617L21.1035 16.748L21.2988 16.6309L21.8945 17.666C21.9824 17.8125 22.1387 17.9102 22.3145 17.9102C22.4902 17.9102 22.6465 17.8125 22.7344 17.666L24.4238 14.7461C24.502 14.6191 24.502 14.4336 24.4141 14.2773ZM22.3047 16.4648L21.4649 15.0098H23.1445L22.3047 16.4648Z" fill="white"/>
</svg>
