<?xml version="1.0" encoding="utf-8"?>
<!-- Generator: Adobe Illustrator 19.2.1, SVG Export Plug-In . SVG Version: 6.00 Build 0)  -->
<svg version="1.1" id="Layer_1" xmlns="http://www.w3.org/2000/svg" xmlns:xlink="http://www.w3.org/1999/xlink" x="0px" y="0px"
	 viewBox="0 0 68.9 59.8" style="enable-background:new 0 0 68.9 59.8;" xml:space="preserve">
<style type="text/css">
	.st0{fill:#FFFFFF;}
</style>
<path class="st0" d="M53.9,35.6l9-9.1l0,0l-1.8-1.9L45.7,9.1l-3-2.6L26.9,3.7c-4.2-0.8-8.4,0.5-11.5,3.5c-1.8,1.8-3,4-3.5,6.5
	l-0.7,3.6c-0.8,3.8,1.7,7.5,5.5,8.3c2.3,0.5,4.7-0.3,6.3-1.9c1-1,1.6-2.2,1.9-3.6l0.5-2.4l7.3,0.6l21.6,21.6c0.8,0.8,0.8,2,0,2.8
	c-0.4,0.4-0.9,0.6-1.4,0.6s-1-0.2-1.4-0.6l-8.8-8.8c-0.3-0.3-0.6-0.4-0.9-0.4c-0.4,0-0.7,0.1-0.9,0.4c-0.5,0.5-0.5,1.4,0,1.9
	l8.8,8.8c0.4,0.4,0.6,0.9,0.6,1.4s-0.2,1-0.6,1.4c-0.4,0.4-0.9,0.6-1.4,0.6s-1-0.2-1.4-0.6l-8.8-8.8c-0.3-0.3-0.6-0.4-0.9-0.4
	c-0.4,0-0.7,0.1-0.9,0.4c-0.5,0.5-0.5,1.4,0,1.9l8.8,8.8c0.8,0.8,0.8,2,0,2.8c-0.4,0.4-0.9,0.6-1.4,0.6s-1-0.2-1.4-0.6L33.5,43
	c-0.3-0.3-0.6-0.4-0.9-0.4c-0.4,0-0.7,0.1-0.9,0.4c-0.5,0.5-0.5,1.4,0,1.9l8.8,8.8c0.8,0.8,0.8,2,0,2.8c-0.4,0.4-0.9,0.6-1.4,0.6
	s-1-0.2-1.4-0.6L2.3,21.1c-0.3-0.3-0.6-0.4-0.9-0.4c-0.4,0-0.7,0.1-0.9,0.4C0,21.6,0,22.5,0.5,23l8.8,8.8l-2.7,2.7
	c-0.8,0.8-1.2,1.8-1.2,2.9c0,1.1,0.4,2.1,1.2,2.9L7.3,41c0.7,0.7,1.5,1.1,2.5,1.2H10v0.2c0.1,0.9,0.5,1.8,1.2,2.5l0.8,0.8
	c0.7,0.7,1.5,1.1,2.5,1.2h0.2v0.2c0.1,0.9,0.5,1.8,1.2,2.5l0.8,0.8c0.7,0.7,1.5,1.1,2.5,1.2h0.2v0.2c0.1,0.9,0.5,1.8,1.2,2.5
	l0.8,0.8c0.8,0.8,1.8,1.2,2.9,1.2s2.1-0.4,2.9-1.2l2.7-2.7l6.1,6.1c0.9,0.9,2,1.4,3.3,1.4c1.2,0,2.4-0.5,3.3-1.4l0,0
	c0.8-0.8,1.3-1.9,1.3-3.1v-0.2h0.2c1.2,0,2.2-0.5,3.1-1.3c0.8-0.8,1.3-1.9,1.3-3.1v-0.2h0.2c1.2,0,2.3-0.5,3.1-1.3s1.3-1.9,1.3-3.1
	V46h0.2c1.2,0,2.3-0.5,3.1-1.3c1.8-1.8,1.8-4.7,0-6.5L53.9,35.6z M34.3,16c-0.2-0.2-0.5-0.4-0.8-0.4l-8.9-0.8h-0.1
	c-0.4,0-0.7,0.1-0.9,0.4c-0.2,0.2-0.3,0.4-0.4,0.7l-0.7,3.6c-0.2,0.8-0.6,1.6-1.2,2.2c-1,1-2.5,1.5-3.9,1.2
	c-1.1-0.2-2.1-0.9-2.8-1.9c-0.6-1-0.9-2.1-0.6-3.3l0.7-3.6C15,12.2,16,10.4,17.4,9c2.4-2.4,5.8-3.4,9.1-2.7L41.9,9l17.4,17.4
	L52,33.7L34.3,16z M11.2,39.1c-0.5,0.5-1.4,0.5-2,0l-0.8-0.8c-0.5-0.5-0.5-1.4,0-2l2.5-2.5l2.8,2.8L11.2,39.1z M15.8,43.8
	c-0.3,0.3-0.6,0.4-1,0.4s-0.7-0.1-1-0.4L13.1,43c-0.5-0.5-0.5-1.4,0-2l2.5-2.5l2.8,2.8L15.8,43.8z M20.5,48.4c-0.5,0.5-1.4,0.5-2,0
	l-0.8-0.8c-0.3-0.3-0.4-0.6-0.4-1s0.1-0.7,0.4-1l2.5-2.5l2.8,2.8L20.5,48.4z M25.1,53.1c-0.3,0.3-0.6,0.4-1,0.4s-0.7-0.1-1-0.4
	l-0.8-0.8c-0.5-0.5-0.5-1.4,0-2l2.5-2.5l2.8,2.8L25.1,53.1z"/>
<path class="st0" d="M45.1,7.8c0-0.5,0.2-1,0.5-1.3L49,3.2c0.3-0.3,0.8-0.5,1.3-0.5s1,0.2,1.3,0.5l14.1,14.1
	c0.3,0.3,0.5,0.8,0.5,1.3s-0.2,1-0.5,1.3l-4.6,4.6l1.8,1.9l4.7-4.7c1.7-1.8,1.7-4.6,0-6.4l-14.1-14c-0.8-0.8-2-1.3-3.2-1.3
	S48,0.5,47.1,1.3l-3.3,3.3c-0.5,0.5-0.8,1-1,1.7l-0.1,0.2l3,2.6C45.3,8.8,45.1,8.3,45.1,7.8z"/>
</svg>
