<svg width="30" height="15" viewBox="0 0 30 15" fill="none" xmlns="http://www.w3.org/2000/svg">
<path d="M4.21665 1.84275L7.90649 1.89478L9.72756 1.43518C9.76659 1.42651 9.80344 1.42217 9.84029 1.42217V1.42H13.5106L14.6488 0.156092L14.7897 0H14.9978H18.7484H18.8698L18.9825 0.0650383L22.1564 1.89695L25.7812 1.87744V1.84492V1.37664H26.2495H29.5317H30V1.84492V9.41755V9.88582H29.5317H26.2495H25.7812V9.41755V8.98613H23.5851L21.2198 10.1026L21.9331 10.8506C22.1109 11.037 22.1022 11.334 21.9157 11.5118C21.8702 11.5551 21.8204 11.5855 21.7662 11.6072L14.0006 14.8331C13.825 14.9068 13.6277 14.8634 13.4976 14.7377L6.85287 8.98179L4.21882 8.9341V9.41755V9.88582H3.75054H0.468276H0V9.41755V1.84492V1.37664H0.468276H3.75054H4.21882V1.84492L4.21665 1.84275ZM28.593 7.03064V7.96936H27.6543V7.03064H28.593ZM2.34138 7.03064V7.96936H1.40266V7.03064H2.34138ZM25.779 2.80749L22.0306 2.827H21.9049L21.7965 2.76413L18.627 0.934384H15.206L14.0916 2.17228L14.0895 2.17445L14.083 2.18312L14.0461 2.22431L10.7053 5.93583C10.6489 6.07675 10.6619 6.24368 10.727 6.3976C10.7855 6.53635 10.8874 6.66859 11.0175 6.77266C11.1497 6.87672 11.3102 6.95476 11.4879 6.98078C11.7914 7.02847 12.1578 6.93742 12.5459 6.62524L12.5741 6.60572L15.4791 4.59604L15.8086 4.36841L16.084 4.66108L20.5413 9.38503L23.2837 8.09077L23.3813 8.04524H23.4832H25.7812V2.80749H25.779ZM29.0613 2.30886H26.7177V8.94277H29.0613V2.30886ZM13.2158 11.5703C13.0228 11.399 13.0055 11.1042 13.1746 10.9113C13.3459 10.7183 13.6407 10.701 13.8336 10.8701L16.149 12.9209L17.0053 12.5654L15.0152 10.8007C14.8222 10.6294 14.8049 10.3346 14.974 10.1416C15.1453 9.94869 15.4401 9.93135 15.633 10.1004L17.9636 12.1665L18.9001 11.7784L16.9945 10.0896C16.8016 9.91834 16.7842 9.6235 16.9533 9.43055C17.1246 9.23761 17.4194 9.22026 17.6124 9.38936L19.8584 11.3795L20.7819 10.9958L20.3245 10.5167L20.3223 10.5189L20.0903 10.2739L20.0882 10.2717L20.0817 10.2652L20.073 10.2565L15.6721 5.59329L13.1182 7.36017C12.5047 7.85229 11.8782 7.98887 11.3383 7.90432C10.9893 7.85012 10.6793 7.70487 10.43 7.50542C10.1785 7.30597 9.98121 7.04582 9.86197 6.76615C9.6842 6.34774 9.67336 5.87513 9.89233 5.45888L9.92051 5.40468L9.95953 5.36349L12.6651 2.35872H9.89449L8.07776 2.81616V2.81399C8.0409 2.82266 7.99971 2.82917 7.95852 2.827L4.21448 2.77497V7.99754L7.03498 8.04741L7.06316 8.04957L7.07834 8.05174L7.10435 8.05608L7.11736 8.05825L7.13253 8.06258L7.14337 8.06475L7.19974 8.08426L7.20841 8.0886C7.25177 8.10594 7.29296 8.13196 7.32982 8.16448L13.9009 13.8575L15.1843 13.3242L13.2093 11.5747L13.2158 11.5703ZM3.27793 2.30886H0.934384V8.94277H3.27793V2.30886Z" fill="white"/>
</svg>