<svg width="45" height="45" viewBox="0 0 45 45" fill="none" xmlns="http://www.w3.org/2000/svg">
<path d="M43.1367 28.7227C42.3281 27.7207 40.9922 27.3867 39.8144 27.8789L29.0391 32.3965C28.5996 32.5898 28.3887 33.082 28.582 33.5215C28.7754 33.9609 29.2676 34.1719 29.707 33.9785L40.4824 29.4609C40.9394 29.2676 41.4668 29.4082 41.8008 29.7949C41.9941 30.041 42.082 30.3574 42.0293 30.6738C41.9766 30.9902 41.8008 31.2715 41.5371 31.4473C36.8437 34.5059 26.1738 40.5527 25.6465 40.8516C25.6289 40.8691 25.6113 40.8691 25.5762 40.8867C24.2754 41.6602 22.8164 41.8711 20.9883 41.5371C20.8652 41.5195 18.4219 41.2207 12.6035 40.5L9.47461 40.1133V28.3359C9.9668 28.3008 10.3887 28.2832 10.582 28.2832H10.6875C14.748 28.0195 18.6328 28.8105 22.7461 29.6367C23.2734 29.7422 23.8008 29.8477 24.3281 29.9531C24.8906 30.0586 25.2949 30.5684 25.2949 31.1309C25.2949 31.166 25.2949 31.2012 25.2773 31.2715C25.2422 31.6055 25.0664 31.834 24.9434 31.9746C24.7148 32.2031 24.416 32.3262 24.0996 32.3262H15.8555C15.3809 32.3262 14.9941 32.7129 14.9941 33.1875C14.9941 33.6621 15.3809 34.0488 15.8555 34.0488H24.082C24.8555 34.0488 25.6113 33.7324 26.1562 33.1875C26.6309 32.7129 26.9121 32.1152 26.9824 31.5C27 31.377 27.0176 31.2363 27.0176 31.1133C27.0176 29.707 26.0156 28.4941 24.6445 28.2305C24.1172 28.125 23.5898 28.0195 23.0801 27.9141C19.0371 27.1055 14.8711 26.2441 10.582 26.5254H10.4941C10.3008 26.543 9.8789 26.5605 9.42187 26.5781C9.31641 26.209 9 25.9277 8.5957 25.9277H2.10937C1.63477 25.9277 1.24805 26.3145 1.24805 26.7891V41.4668C1.24805 41.9414 1.63477 42.3281 2.10937 42.3281H8.5957C8.94726 42.3281 9.24609 42.1172 9.36914 41.8184L12.375 42.1875C15.8027 42.6094 20.4785 43.1719 20.6719 43.207C21.3223 43.3301 21.9375 43.3828 22.5352 43.3828C23.9766 43.3828 25.2598 43.0488 26.4199 42.3457C26.4375 42.3457 26.4375 42.3281 26.4551 42.3281C26.5605 42.2578 37.6172 36.0176 42.4512 32.8535C43.1367 32.4141 43.5937 31.7109 43.7168 30.9023C43.8574 30.1641 43.6289 29.3379 43.1367 28.7227ZM7.73437 40.623H2.9707V27.6855H7.73437V40.623Z" fill="white"/>
<path d="M20.1445 10.2129H13.2715V23.2734H20.1445V10.2129ZM18.4219 21.5508H14.9941V11.9531H18.4043V21.5508H18.4219Z" fill="white"/>
<path d="M39.9023 7.50586H33.0293V23.291H39.9023V7.50586ZM38.1797 21.5508H34.7695V9.22852H38.1797V21.5508Z" fill="white"/>
<path d="M30.0234 1.58203H23.1504V23.2734H30.0234V1.58203ZM28.3008 21.5508H24.8906V3.32227H28.3008V21.5508Z" fill="white"/>
</svg>
