<svg width="26" height="26" viewBox="0 0 26 26" fill="none" xmlns="http://www.w3.org/2000/svg">
<path d="M25.9855 12.1095L25.9225 11.1421C25.9014 10.9213 25.8594 10.7005 25.8173 10.4797L25.7752 10.2063C25.7332 9.89084 25.6491 9.59642 25.5755 9.31251L25.5018 9.02861C25.4282 8.77625 25.3652 8.51337 25.26 8.28204C24.8604 7.10435 24.2295 5.95821 23.3883 4.85412C22.5576 3.78159 21.6113 2.87729 20.5808 2.17278C19.4662 1.4157 18.299 0.847884 17.1003 0.479856C16.3222 0.248525 15.502 0.0907989 14.6713 0.00667835C14.1876 -0.0353819 13.7039 0.122344 13.3359 0.448311C12.9784 0.774278 12.7786 1.23694 12.7786 1.72063C12.7786 2.57235 13.42 3.30841 14.2823 3.42407C14.8816 3.5082 15.481 3.64489 16.0383 3.82365C16.869 4.10755 17.6891 4.54919 18.4883 5.12752C19.1928 5.64275 19.8447 6.29469 20.402 7.08332C20.9699 7.89298 21.3905 8.70264 21.6218 9.5123C21.6218 9.53333 21.6323 9.54384 21.6428 9.55436C21.6954 9.68054 21.7269 9.83827 21.769 9.99599L21.8426 10.2904C21.8847 10.4692 21.9267 10.6479 21.9478 10.8267C21.9583 10.9213 21.9688 11.016 21.9898 11.1211C22.0108 11.2578 22.0319 11.3945 22.0424 11.4996L22.0634 12.1936C22.0424 13.1821 21.9057 14.0758 21.6533 14.854C21.3694 15.7162 20.9593 16.5153 20.4441 17.2514C19.9604 17.9349 19.3295 18.5763 18.5829 19.1336L18.2254 19.3859C18.1728 19.4175 18.1308 19.4596 18.0467 19.5016L17.4578 19.8486L17.2475 19.9538C16.911 20.1115 16.5956 20.2587 16.2486 20.3638C15.3548 20.6688 14.4926 20.8055 13.6619 20.8055C11.9584 20.8475 10.2129 20.3218 8.76185 19.3334C8.05734 18.8286 7.42644 18.2293 6.90069 17.5668L6.52214 17.0411C6.45905 16.9359 6.39596 16.8308 6.33287 16.7256C6.2803 16.6415 6.22772 16.5469 6.16463 16.4417C6.10154 16.3471 6.04896 16.2314 5.99639 16.1052C5.96484 16.0316 5.9333 15.958 5.90175 15.8949L5.76506 15.611C5.74403 15.5585 5.723 15.5059 5.71248 15.4533L5.53373 14.9486C5.51269 14.8855 5.49166 14.8329 5.47063 14.7383L5.32342 14.1074C5.30239 13.9812 5.28136 13.8655 5.27085 13.7394C5.26033 13.6447 5.24982 13.5501 5.2393 13.4765C5.2393 13.4239 5.22879 13.3713 5.21827 13.3188C5.20776 13.2767 5.20776 13.2451 5.20776 13.1715L5.19724 12.8351C5.19724 12.7509 5.19724 12.6668 5.18673 12.5827C5.17621 12.4565 5.17621 12.3303 5.18673 12.1831C5.19724 11.9728 5.20776 11.7625 5.2393 11.5522C5.29188 11.1421 5.376 10.7215 5.49166 10.322C5.53373 10.1853 5.51269 10.0381 5.43909 9.91187L4.07213 7.56701C3.93543 7.33568 3.64101 7.24104 3.38865 7.35671L0.675762 8.65006C0.539066 8.71315 0.433915 8.84985 0.391855 8.99706C0.223613 9.67002 0.118463 10.3535 0.0553722 11.037C0.023827 11.363 0.0133119 11.7099 0.00279687 12.0569C-0.0077182 12.3198 0.0133119 12.5722 0.0343421 12.8245L0.0869174 13.5711C0.0869174 13.7078 0.107948 13.834 0.139493 13.9602C0.150008 14.0127 0.160523 14.0548 0.171038 14.1284L0.223613 14.4228C0.265674 14.6542 0.297219 14.896 0.360309 15.1484L0.612671 16.0842C0.654731 16.2525 0.717822 16.4102 0.770397 16.5469L1.03327 17.2198C1.07533 17.3355 1.11739 17.4407 1.18049 17.5668L1.4013 18.019C1.44336 18.0926 1.48542 18.1767 1.51697 18.2503C1.63263 18.4711 1.73778 18.7025 1.88499 18.9233L2.03221 19.1546C2.15839 19.3544 2.28457 19.5647 2.44229 19.7855L3.05217 20.5847C3.92492 21.6257 4.94488 22.53 6.08051 23.2765C8.18352 24.6119 10.6335 25.3375 13.0625 25.3375C13.3044 25.3375 13.5462 25.327 13.7881 25.3164L14.4084 25.2744C14.5346 25.2639 14.6713 25.2534 14.7975 25.2323L15.7333 25.0746C15.8806 25.0536 16.0173 25.022 16.1329 24.98L16.89 24.7697C17.0057 24.7381 17.1213 24.7066 17.2475 24.6645L17.6786 24.4963C18.2885 24.286 18.8458 23.9915 19.3926 23.7076L20.3284 23.1293C20.4651 23.0452 20.5913 22.9506 20.6965 22.8769L21.1696 22.5194C22.2527 21.6467 23.157 20.6688 23.8615 19.6068C24.587 18.5027 25.1443 17.2934 25.5229 16.0211C25.8699 14.8329 26.0276 13.5185 25.9961 12.12C25.9855 12.12 25.9855 12.12 25.9855 12.1095ZM24.5029 15.7372C24.1559 16.9149 23.6407 18.019 22.9782 19.0389C22.3368 20.0168 21.5061 20.9106 20.5177 21.7098L20.055 22.0673C19.9709 22.1304 19.8868 22.1935 19.7816 22.2566L19.0035 22.7508L18.8984 22.8033C18.3726 23.0767 17.8679 23.3396 17.3211 23.5289L16.869 23.6971C16.7849 23.7287 16.7007 23.7497 16.6166 23.7707C16.564 23.7812 16.5009 23.8023 16.4589 23.8128L15.849 23.981C15.7649 24.0021 15.6808 24.0336 15.5756 24.0441L14.6082 24.2124C14.5241 24.2334 14.4295 24.2334 14.3454 24.2439L13.725 24.286C11.2855 24.4332 8.77237 23.7602 6.64832 22.4143C5.59682 21.7308 4.66097 20.8896 3.86183 19.9432L3.2835 19.1862C3.15732 18.9969 3.03114 18.8076 2.91547 18.6183L2.75775 18.366C2.64208 18.1977 2.54744 18.0085 2.45281 17.8087C2.41075 17.7246 2.36869 17.6404 2.32663 17.5668L2.11633 17.1462C2.07427 17.0516 2.04272 16.9675 2.00066 16.8728L1.73778 16.1999C1.69572 16.0842 1.65366 15.9791 1.62212 15.8424L1.36976 14.917C1.31718 14.7067 1.28564 14.4859 1.25409 14.2651L1.20152 13.9812C1.191 13.9181 1.18049 13.855 1.16997 13.7919C1.15945 13.7078 1.13842 13.6237 1.13842 13.5291L1.08585 12.772C1.07533 12.5406 1.0543 12.3198 1.06482 12.099C1.06482 11.773 1.08585 11.4471 1.10688 11.1526C1.14894 10.6059 1.24358 10.0486 1.35924 9.5123L3.36762 8.54491L4.37707 10.2799C4.28243 10.669 4.19831 11.058 4.15625 11.4576C4.12471 11.6889 4.10368 11.9308 4.09316 12.1621C4.08264 12.3303 4.08264 12.4986 4.09316 12.6668C4.09316 12.7404 4.10368 12.814 4.10368 12.8876L4.11419 13.2031C4.11419 13.3293 4.12471 13.4344 4.14574 13.5185C4.14574 13.5501 4.15625 13.5816 4.16677 13.6342C4.17728 13.7183 4.1878 13.8024 4.19831 13.8866C4.21934 14.0338 4.22986 14.1705 4.2614 14.3387L4.40861 14.9696C4.42964 15.1063 4.4717 15.222 4.51376 15.3271L4.682 15.8108C4.70303 15.8949 4.73458 15.9685 4.77664 16.0632L4.92385 16.3786C4.9554 16.4417 4.97643 16.4943 5.00797 16.5574C5.07106 16.7046 5.15518 16.8834 5.24982 17.0306C5.30239 17.1147 5.34445 17.1883 5.38651 17.2724C5.4496 17.3881 5.52321 17.5037 5.60733 17.651L6.01742 18.2293C6.61678 18.9864 7.31077 19.6593 8.10992 20.2272C9.75027 21.3417 11.7166 21.9411 13.6198 21.8885C14.5451 21.8885 15.5336 21.7308 16.5115 21.3943C16.9215 21.2787 17.2896 21.0999 17.6471 20.9317L17.8784 20.8265C17.8889 20.816 17.91 20.816 17.9205 20.8055L18.4988 20.469C18.6145 20.4059 18.7091 20.3428 18.7932 20.2797L19.1507 20.0169C19.992 19.3859 20.6965 18.6709 21.2538 17.8928C21.8321 17.0726 22.2842 16.1789 22.5997 15.222C22.8836 14.3387 23.0413 13.3398 23.0624 12.2252L23.0413 11.4786C23.0308 11.3209 23.0098 11.1632 22.9887 11.016C22.9782 10.9318 22.9677 10.8372 22.9572 10.7636C22.9362 10.5217 22.8836 10.3009 22.831 10.0906L22.7679 9.81724C22.7259 9.63848 22.6838 9.43869 22.5997 9.23891C22.3263 8.33461 21.8636 7.4198 21.2327 6.52602C20.6018 5.64275 19.8763 4.9067 19.0771 4.32837C18.2044 3.68695 17.2896 3.20326 16.3432 2.88781C15.7228 2.67751 15.0604 2.53029 14.3979 2.44617C14.0509 2.40411 13.8091 2.12021 13.8091 1.78372C13.8091 1.59445 13.8827 1.4157 14.0299 1.28952C14.1771 1.16334 14.3664 1.10025 14.5557 1.12128C15.3233 1.19488 16.0698 1.34209 16.7849 1.55239C17.8784 1.87836 18.951 2.40411 19.9709 3.10862C20.9173 3.75004 21.7795 4.57022 22.5366 5.55863C23.3147 6.56808 23.8825 7.61959 24.2611 8.72367C24.3452 8.92346 24.4083 9.13376 24.4609 9.36509L24.5345 9.64899C24.6081 9.91187 24.6712 10.1537 24.7132 10.4166L24.7658 10.7215C24.7973 10.9213 24.8394 11.1211 24.8604 11.2999L24.9235 12.2252C24.9656 13.4554 24.8184 14.6542 24.5029 15.7372Z" fill="#CD4051"/>
<path d="M13.2938 14.6753C14.5661 14.6753 15.6071 13.6343 15.6071 12.362C15.6071 11.4262 15.0498 10.5955 14.1876 10.2275C14.0719 10.1749 13.9457 10.1433 13.8196 10.1118V5.82165C13.8196 5.53774 13.5882 5.2959 13.2938 5.2959C12.9994 5.2959 12.768 5.52723 12.768 5.82165V10.1223C12.6419 10.1539 12.5157 10.1854 12.3895 10.238C11.5273 10.5955 10.97 11.4367 10.97 12.3725C10.9805 13.6343 12.0215 14.6753 13.2938 14.6753ZM12.8101 11.1948C12.9678 11.1318 13.1256 11.1002 13.2938 11.0897C13.462 11.0897 13.6303 11.1212 13.7775 11.1843C14.2507 11.3841 14.5556 11.8468 14.5556 12.3515C14.5556 13.0455 13.9878 13.6238 13.2833 13.6238C12.5893 13.6238 12.011 13.056 12.011 12.3515C12.032 11.8573 12.3369 11.3946 12.8101 11.1948Z" fill="#CD4051"/>
</svg>
