<?xml version="1.0" encoding="utf-8"?>
<!-- Generator: Adobe Illustrator 19.2.1, SVG Export Plug-In . SVG Version: 6.00 Build 0)  -->
<svg version="1.1" id="Layer_1" xmlns="http://www.w3.org/2000/svg" xmlns:xlink="http://www.w3.org/1999/xlink" x="0px" y="0px"
	 viewBox="0 0 61.1 62.1" style="enable-background:new 0 0 61.1 62.1;" xml:space="preserve">
<style type="text/css">
	.st0{fill:#FFFFFF;}
</style>
<path class="st0" d="M46.7,20c-3,0-5.5-2.5-5.5-5.5S43.7,9,46.7,9s5.5,2.5,5.5,5.5S49.7,20,46.7,20z M46.7,11.5
	c-1.6,0-2.9,1.3-2.9,2.9s1.3,2.9,2.9,2.9s2.9-1.3,2.9-2.9C49.6,12.8,48.3,11.5,46.7,11.5z"/>
<path class="st0" d="M40.3,0v2.6c10.1,0,18.3,8.2,18.3,18.3s-8.2,18.3-18.3,18.3c-2.6,0-5-0.5-7.4-1.5c-0.2-0.1-0.3-0.1-0.5-0.1
	c-0.3,0-0.7,0.1-0.9,0.4l-5.3,5.3h-4.3c-0.7,0-1.3,0.6-1.3,1.3v3.6h-1.8c-0.7,0-1.3,0.6-1.3,1.3v1.8h-4c-0.7,0-1.3,0.6-1.3,1.3v4.8
	l-2.3,2.3H2.6V57l18.9-18.9c0.2-0.2,0.3-0.5,0.3-0.8s-0.1-0.6-0.3-0.8s-0.5-0.3-0.8-0.3s-0.6,0.1-0.8,0.3L2.6,53.8v-3.5l20.6-20.6
	c0.4-0.4,0.5-0.9,0.3-1.4c-1-2.3-1.5-4.8-1.5-7.4l0,0h-2.6l0,0c0,2.6,0.5,5.1,1.4,7.4l0.1,0.2L0.4,48.8C0.1,49.1,0,49.4,0,49.7v11.1
	c0,0.7,0.6,1.3,1.3,1.3h9.1c0.3,0,0.7-0.1,0.9-0.4l3.1-3.1c0.2-0.2,0.4-0.6,0.4-0.9v-4h4c0.7,0,1.3-0.6,1.3-1.3v-1.8h1.8
	c0.7,0,1.3-0.6,1.3-1.3v-3.6h3.6c0.3,0,0.7-0.1,0.9-0.4l5-5l0.2,0.1c2.4,0.9,4.9,1.4,7.4,1.4c11.5,0,20.9-9.4,20.9-20.9
	C61.1,9.4,51.8,0,40.3,0z"/>
<path class="st0" d="M21.9,20.9c0-10.1,8.2-18.3,18.3-18.3l0,0V0l0,0C28.7,0,19.3,9.4,19.3,20.9H21.9z"/>
</svg>
