<svg width="31" height="32" viewBox="0 0 31 32" fill="none" xmlns="http://www.w3.org/2000/svg">
<g clip-path="url(#clip0)">
<path d="M23.2677 11.4659L19.0533 0.708422C18.8191 0.135194 18.1698 -0.145844 17.5916 0.0756322L6.83416 4.29001C6.25579 4.51893 5.97254 5.17339 6.20137 5.75176L10.4474 16.5092C10.6763 17.0876 11.3308 17.3708 11.9091 17.142L22.6349 12.9276C23.2133 12.6987 23.4965 12.0442 23.2677 11.4659ZM11.5738 15.908L7.46063 5.44169L17.927 1.32223L22.0401 11.7949L11.5738 15.908Z" fill="white"/>
<path d="M12.8773 18.2178H1.35421C0.732099 18.2178 0.227844 18.722 0.227844 19.3441V30.8736C0.227844 31.4957 0.732099 31.9999 1.35421 31.9999H12.8773C13.4994 31.9999 14.0037 31.4957 14.0037 30.8736V19.3441C14.0037 18.722 13.4993 18.2178 12.8773 18.2178ZM12.7381 30.728H1.49342V19.4834H12.7381V30.728Z" fill="white"/>
<path d="M29.893 18.1545L18.7559 15.193C18.1487 15.0449 17.5347 15.411 17.3764 16.0157L14.415 27.1528C14.2541 27.7537 14.6108 28.3712 15.2118 28.5321C15.2119 28.5322 15.2121 28.5322 15.2123 28.5323L26.3494 31.4937C26.9503 31.6546 27.5678 31.2979 27.7287 30.697C27.7288 30.6968 27.7288 30.6966 27.7289 30.6964L30.665 19.534C30.8277 18.9405 30.484 18.3262 29.893 18.1545ZM26.5456 30.1775L15.6742 27.3236L18.5661 16.4586L29.4311 19.3505L26.5456 30.1775Z" fill="white"/>
<path d="M18.5155 9.85845C18.4005 9.63982 18.2485 9.44286 18.0662 9.27628L14.9022 5.94148L14.5289 5.5365C14.4351 5.4392 14.3311 5.35227 14.2188 5.27705C14.1052 5.19977 13.9753 5.14994 13.8391 5.13151C13.5153 5.10889 13.1987 5.23458 12.9785 5.47322C12.8915 5.58 12.8309 5.70569 12.8014 5.84023C12.7692 5.99843 12.7544 6.15971 12.7571 6.32115C12.7571 6.50466 12.7571 6.66286 12.7571 6.79575V11.4025C12.7697 11.5923 12.7802 11.7378 12.7887 11.8391C12.7935 11.9342 12.8128 12.0281 12.8457 12.1175C12.9072 12.266 13.0292 12.3811 13.181 12.4339C13.3351 12.4972 13.5079 12.4972 13.662 12.4339C13.8187 12.3894 13.9438 12.2713 13.9973 12.1175C14.0448 11.8738 14.0618 11.625 14.048 11.3771V10.4723L16.5475 9.49143L17.1423 10.1242L17.4144 10.3963C17.4919 10.4783 17.579 10.5505 17.6738 10.6115C17.745 10.6543 17.8252 10.6803 17.908 10.6874C18.0009 10.6941 18.0941 10.6789 18.1801 10.6431C18.3288 10.582 18.4487 10.4666 18.5155 10.3204C18.5784 10.1729 18.5784 10.006 18.5155 9.85845ZM13.991 9.39651L13.9024 6.52365L15.8261 8.67513L13.991 9.39651Z" fill="white"/>
<path d="M8.69457 24.6154C9.29738 24.3903 9.69287 23.8097 9.68172 23.1663C9.68227 22.9808 9.65008 22.7965 9.5868 22.6221C9.52471 22.4491 9.43256 22.2885 9.3147 22.1475C9.19851 22.0071 9.05945 21.8873 8.90339 21.7932C8.7092 21.677 8.49429 21.5996 8.2706 21.5654C8.00048 21.5241 7.72751 21.5051 7.4543 21.5084H5.35344C5.12555 21.4836 4.89727 21.552 4.72065 21.6983C4.57629 21.8758 4.50811 22.1033 4.53081 22.331V27.2921C4.50771 27.5189 4.57344 27.7458 4.71432 27.9249C4.89079 28.0765 5.12239 28.1475 5.35344 28.1211H7.37204C7.66668 28.112 7.96037 28.0845 8.25161 28.0388C8.49041 28.0107 8.72455 27.9512 8.94768 27.8616C9.26012 27.7315 9.52669 27.5112 9.71336 27.2288C9.90399 26.9306 10.003 26.583 9.99811 26.229C10.0127 25.4461 9.46301 24.7658 8.69457 24.6154ZM5.87865 22.5272H6.93541C7.30354 22.5082 7.67166 22.5642 8.01748 22.6917C8.25676 22.8073 8.39834 23.0601 8.37184 23.3245C8.37327 23.4736 8.33388 23.6202 8.25794 23.7485C8.17093 23.9185 8.02112 24.0479 7.8403 24.1092C7.58964 24.1816 7.32901 24.2137 7.0683 24.2041H5.84701L5.87865 22.5272ZM8.63762 26.1404C8.63762 26.7901 8.1862 27.1149 7.28345 27.1149H5.84701L5.87865 25.1913H7.25181C7.61629 25.1682 7.97999 25.2471 8.30224 25.4191C8.53455 25.5826 8.6623 25.8574 8.63762 26.1404Z" fill="white"/>
<path d="M25.7229 21.4702C25.5616 21.0709 25.3027 20.7185 24.9699 20.4451C24.6028 20.1388 24.1696 19.9223 23.7044 19.8123C23.2927 19.6985 22.8628 19.6663 22.4388 19.7174C22.0309 19.7672 21.6384 19.9031 21.2871 20.1161C20.9236 20.3399 20.611 20.6373 20.3695 20.9893C20.0974 21.3899 19.8982 21.8356 19.7811 22.3055C19.6988 22.6053 19.6479 22.9128 19.6292 23.2231C19.6129 23.5133 19.632 23.8044 19.6861 24.09C19.7372 24.3611 19.8222 24.6248 19.9393 24.8746C20.061 25.1311 20.2234 25.3662 20.4202 25.5707C20.6162 25.7715 20.8426 25.9402 21.0909 26.0706C21.3744 26.2181 21.6737 26.3327 21.9832 26.4123C22.3797 26.5262 22.7951 26.5585 23.2044 26.5072C23.5493 26.4542 23.8792 26.3291 24.1726 26.1402C24.4151 25.9887 24.6293 25.796 24.8054 25.5707C24.9552 25.3841 25.065 25.1687 25.1281 24.9379C25.1726 24.7888 25.1519 24.6279 25.0712 24.495C24.9943 24.3617 24.8663 24.2657 24.7168 24.2292C24.5706 24.1765 24.408 24.1977 24.2802 24.2862C24.158 24.3863 24.0532 24.506 23.9701 24.6405C23.7736 24.9265 23.4959 25.1469 23.1728 25.2733C22.8438 25.3806 22.4893 25.3806 22.1603 25.2733C21.8614 25.2152 21.5838 25.0775 21.3567 24.8746C21.137 24.6248 21 24.3131 20.9644 23.9824C20.922 23.5568 20.9628 23.1269 21.0846 22.7168C21.1975 22.0814 21.5234 21.5035 22.0085 21.0779C22.4138 20.7624 22.947 20.6633 23.4386 20.8121C23.7384 20.8809 24.0101 21.0399 24.2169 21.2677C24.4194 21.5201 24.5583 21.8174 24.6219 22.1347C24.6542 22.3027 24.7118 22.4648 24.7927 22.6156C24.8744 22.7289 24.9969 22.8061 25.1345 22.8307C25.2791 22.8708 25.4341 22.8453 25.5584 22.7611C25.687 22.6834 25.7801 22.5585 25.8179 22.4131C25.8845 22.0965 25.8514 21.7671 25.7229 21.4702Z" fill="white"/>
</g>
<defs>
<clipPath id="clip0">
<rect width="30.9332" height="32" fill="white"/>
</clipPath>
</defs>
</svg>
