<svg width="66" height="73" viewBox="0 0 66 73" fill="none" xmlns="http://www.w3.org/2000/svg">
<path d="M57.7163 23.8485L57.0195 23L46.4023 33.5087L46.8678 34.1836C48.5583 36.6413 49.4523 39.5174 49.4523 42.5C49.4523 45.4826 48.5593 48.3587 46.8678 50.8164L46.4023 51.4913L57.0185 62L57.7153 61.1515C62.0271 55.8986 64.4023 49.2743 64.4023 42.501C64.4023 35.7277 62.0281 29.1014 57.7163 23.8485ZM56.8501 59.0411L48.9659 51.2367C50.5906 48.6083 51.4458 45.605 51.4458 42.5C51.4458 39.395 50.5906 36.3917 48.9659 33.7633L56.8501 25.9589C60.4423 30.7136 62.4099 36.5446 62.4099 42.501C62.4099 48.4573 60.4423 54.2854 56.8501 59.0411Z" fill="white" stroke="white" stroke-width="2"/>
<path d="M43.2318 54.407C40.7767 56.104 37.9038 57 34.9244 57C27.8361 57 21.7314 51.875 20.4097 44.813L20.258 44H5.40234L5.51371 45.103C7.06699 60.437 19.711 72 34.9244 72C41.6903 72 48.3075 69.617 53.5547 65.291L54.4023 64.592L43.9049 53.94L43.2318 54.407ZM34.9244 70C21.0918 70 9.53487 59.76 7.60807 46H18.6456C20.4452 53.581 27.1649 59 34.9244 59C38.026 59 41.0261 58.142 43.6517 56.512L51.4476 64.422C46.6981 68.026 40.8733 70 34.9244 70Z" fill="white" stroke="white" stroke-width="2"/>
<path d="M20.1381 38.8951C20.7513 35.9745 22.2158 33.3348 24.3713 31.2607C29.4995 26.3261 37.4283 25.7349 43.224 29.8564L43.891 30.3311L54.6387 19.9891L53.8022 19.2792C42.17 9.4137 25.0983 9.96121 14.0918 20.5522C9.19675 25.2625 6.04247 31.5703 5.21086 38.3116L5.07667 39.4006L19.9711 39.6972L20.1381 38.8951ZM15.4624 21.98C25.4699 12.3503 40.8485 11.6151 51.6723 20.0969L43.6869 27.7808C37.1896 23.6216 28.6145 24.431 23.0007 29.8329C20.7568 31.9921 19.1743 34.6932 18.3918 37.6847L7.33087 37.465C8.29718 31.5857 11.1585 26.1215 15.4624 21.98Z" fill="white" stroke="white" stroke-width="2"/>
</svg>
