<svg width="32" height="32" viewBox="0 0 32 32" fill="none" xmlns="http://www.w3.org/2000/svg">
<g clip-path="url(#clip0)">
<path d="M28.609 3.38641C24.0945 -1.1288 16.7533 -1.1288 12.244 3.38641C10.0592 5.57152 8.85294 8.47638 8.85294 11.5728C8.85294 14.3638 9.8573 17.0563 11.6848 19.1534L11.7625 19.2466L10.1938 20.8155L11.1827 21.8045L12.7513 20.2356L12.8445 20.3133C14.9413 22.1359 17.6334 23.1405 20.4239 23.1405C23.5198 23.1405 26.4242 21.9392 28.609 19.754C30.7937 17.5689 32 14.6589 32 11.5676C32 8.47638 30.7989 5.57152 28.609 3.38641ZM27.6201 18.7599C23.6544 22.7262 17.2037 22.7262 13.2328 18.7599C11.3121 16.8388 10.2559 14.2861 10.2559 11.5676C10.2559 8.84919 11.3121 6.29644 13.2328 4.3754C15.1535 2.45955 17.7059 1.39806 20.4239 1.39806C23.1419 1.39806 25.6994 2.45437 27.6149 4.3754C29.5357 6.29644 30.5918 8.84919 30.5918 11.5676C30.5918 14.2861 29.5409 16.8388 27.6201 18.7599Z" fill="white"/>
<path d="M3.54117 32C4.48859 32 5.37389 31.6324 6.04174 30.9644L12.6944 24.3107C12.8238 24.1812 12.9015 24 12.9015 23.8136C12.9015 23.6272 12.829 23.4511 12.6944 23.3165L11.1827 21.8045L10.1938 20.8155L8.68209 19.3036C8.54748 19.1689 8.37146 19.0964 8.18508 19.0964C7.99871 19.0964 7.82268 19.1689 7.68808 19.3036L1.03543 25.9573C0.367578 26.6252 0 27.5159 0 28.4582C0 29.4058 0.367578 30.2913 1.03543 30.9592C1.70328 31.6324 2.59376 32 3.54117 32ZM8.18508 20.7896L11.2085 23.8136L9.84695 25.1754L6.82349 22.1514L8.18508 20.7896ZM2.02945 26.9463L5.83465 23.1404L8.85811 26.1644L5.0529 29.9702C4.64909 30.3741 4.11066 30.5968 3.54117 30.5968C2.97169 30.5968 2.43326 30.3741 2.02945 29.9702C1.62563 29.5663 1.40301 29.0278 1.40301 28.4582C1.40301 27.8887 1.62563 27.3502 2.02945 26.9463Z" fill="white"/>
</g>
<defs>
<clipPath id="clip0">
<rect width="32" height="32" fill="white"/>
</clipPath>
</defs>
</svg>
