<svg width="44" height="44" viewBox="0 0 44 44" fill="none" xmlns="http://www.w3.org/2000/svg">
<path d="M42.7453 37.778C42.7453 37.778 42.7281 37.778 42.7453 37.778H42.7281C42.7109 37.7436 42.6938 37.7092 42.6594 37.692L36.3859 30.0264C41.0438 22.4295 39.9094 12.4608 33.5844 6.1014C26.0047 -1.47829 13.6641 -1.51267 6.05 6.06702C-1.49532 13.6639 -1.47813 26.0045 6.11875 33.567C12.4609 39.892 22.4297 41.0436 30.0438 36.3686L37.675 42.6076C37.7094 42.642 37.7781 42.7108 37.8125 42.728C38.4828 43.2951 39.2906 43.5873 40.0984 43.5873C40.9234 43.5873 41.7313 43.2951 42.4188 42.728L42.7625 42.4014C42.8141 42.3498 42.8656 42.2811 42.9 42.2123C43.8797 40.9061 43.8453 39.067 42.7453 37.778ZM41.4219 41.2155C41.4047 41.2326 41.3875 41.267 41.3703 41.2842L41.2328 41.4045C40.5625 41.9717 39.6 41.9717 38.9125 41.3873L38.8609 41.3358C38.8438 41.3186 38.8266 41.3014 38.7922 41.2842L30.6453 34.6155C30.4906 34.478 30.2844 34.4092 30.0953 34.4092C29.9234 34.4092 29.7516 34.4608 29.5969 34.5639L29.5281 34.6155C22.5672 39.1701 13.2344 38.2076 7.33906 32.3295C0.446873 25.4545 0.429685 14.2311 7.30469 7.28733C14.2141 0.412334 25.4375 0.446709 32.3297 7.3389C38.2078 13.2342 39.1703 22.567 34.6156 29.528L34.5641 29.6139C34.3578 29.9405 34.375 30.353 34.6156 30.6451L41.2844 38.792C41.3188 38.8264 41.3531 38.8608 41.3703 38.8951L41.3875 38.9123C41.9719 39.5826 41.9891 40.5451 41.4219 41.2155Z" fill="white"/>
<path d="M19.8172 30.8171C13.7672 30.8171 8.85156 25.9015 8.85156 19.8515C8.85156 14.4203 12.7531 9.88276 18.0297 9.04058V7.27026C11.7562 8.14683 7.09843 13.4578 7.09843 19.8515C7.09843 26.864 12.8047 32.5703 19.8172 32.5703C26.2109 32.5703 31.5391 27.9125 32.3984 21.639H30.6281C29.7859 26.9156 25.2484 30.8171 19.8172 30.8171Z" fill="white"/>
<path d="M21.1062 7.20151L20.1437 7.09839V19.525H32.5703L32.4672 18.5625C31.8656 12.5812 27.0875 7.80308 21.1062 7.20151ZM21.8969 17.7718V9.09214C26.2797 9.93433 29.7344 13.4062 30.5765 17.7718H21.8969Z" fill="white"/>
</svg>
