<svg width="32" height="32" viewBox="0 0 32 32" fill="none" xmlns="http://www.w3.org/2000/svg">
<path d="M21.1241 10.0294C19.103 10.0294 17.4623 8.38401 17.4623 6.36766C17.4623 4.35132 19.1078 2.7059 21.1241 2.7059C23.1404 2.7059 24.7859 4.35132 24.7859 6.36766C24.7859 8.38401 23.1452 10.0294 21.1241 10.0294ZM21.1241 3.9471C19.7878 3.9471 18.7035 5.03136 18.7035 6.36766C18.7035 7.70397 19.7878 8.78823 21.1241 8.78823C22.4604 8.78823 23.5447 7.70397 23.5447 6.36766C23.5447 5.03136 22.4604 3.9471 21.1241 3.9471Z" fill="white"/>
<path d="M31.377 32C31.3152 32 31.2581 31.9905 31.2011 31.9762L21.3381 29.0468C21.2715 29.0706 21.2002 29.0849 21.1288 29.0849C21.0575 29.0849 20.9862 29.0706 20.9196 29.0468C20.2538 29.2418 11.0852 31.9667 11.0614 31.9715C11.0281 31.981 11.0043 31.9857 10.9805 31.9905C10.9377 31.9952 10.9092 32 10.8807 32C10.8521 32 10.8284 32 10.7998 31.9952C10.757 31.9905 10.7332 31.9857 10.7095 31.9762L0.451776 28.9327C0.18071 28.8566 0 28.6093 0 28.3382V7.83237C0 7.63739 0.0951107 7.45192 0.247288 7.33304C0.35191 7.25219 0.485065 7.20939 0.61822 7.20939C0.680042 7.20939 0.737108 7.2189 0.794174 7.23317L10.8712 10.2244L15.3128 8.90712C14.9419 7.97028 14.7564 7.11904 14.7564 6.36766C14.7612 2.85808 17.6145 0 21.1241 0C24.6337 0 27.4918 2.85808 27.4918 6.36766C27.4918 7.11904 27.3063 7.97503 26.9354 8.90712L31.553 10.2767C31.8145 10.3528 32 10.6001 32 10.8712V31.377C32 31.572 31.9049 31.7575 31.748 31.8764C31.6433 31.9572 31.5102 32 31.377 32ZM10.2529 30.5448V21.5901L7.5185 20.7769C7.50899 20.7769 7.48997 20.7722 7.47095 20.7674L1.24119 18.9175V27.8722L10.2529 30.5448ZM30.7588 30.5448V21.5901L21.7471 18.9175V27.8722L30.7588 30.5448ZM11.4941 30.5448L20.5059 27.8722V18.9175L11.4941 21.5901V30.5448ZM30.7588 20.2966V11.3372L26.417 10.0484C24.9713 12.8637 22.5222 15.5078 21.7471 16.3115V17.624L30.7588 20.2966ZM11.4941 20.2966L20.5059 17.624V16.3115C19.7307 15.5126 17.2816 12.8685 15.8359 10.0484L11.4941 11.3372V20.2966ZM6.89553 19.298L10.2529 20.2919V11.3372L1.24119 8.66459V17.6193L6.84797 19.2837L6.89553 19.298ZM21.1241 1.24119C18.2993 1.24119 15.9976 3.53812 15.9976 6.36766C15.9976 7.10953 16.2306 7.9893 16.6872 8.98321C16.711 9.0165 16.73 9.06405 16.749 9.11636C17.9141 11.575 20.1349 14.1002 21.1193 15.1559C22.1085 14.0954 24.3246 11.5702 25.4992 9.09734C25.5087 9.06405 25.5325 9.0165 25.5562 8.9737C26.008 7.9893 26.241 7.10953 26.241 6.36766C26.2506 3.54287 23.9536 1.24119 21.1241 1.24119Z" fill="white"/>
</svg>
