<svg width="32" height="32" viewBox="0 0 32 32" fill="none" xmlns="http://www.w3.org/2000/svg">
<g clip-path="url(#clip0)">
<path d="M0.101238 2.93538L2.23538 6.66992C2.30737 6.79611 2.42786 6.88741 2.56876 6.92275L4.55981 7.42051L11.3887 14.2494L12.1432 13.4951L5.20747 6.55952C5.13921 6.49105 5.05362 6.44254 4.95991 6.41906L3.04677 5.93907L1.22976 2.75761L2.78757 1.1998L5.97036 3.01856L6.45056 4.9317C6.47382 5.02563 6.52255 5.11145 6.5908 5.1797L13.5266 12.1155L14.2809 11.3609L7.45201 4.53204L6.95425 2.54209C6.91891 2.40097 6.82761 2.28026 6.70142 2.20805L2.96666 0.0741281C2.75838 -0.0443867 2.49633 -0.00927121 2.32646 0.159942L0.192538 2.29409C0.020911 2.46286 -0.0163992 2.72535 0.101238 2.93538Z" fill="white"/>
<path d="M8.49077 22.6672C8.3942 22.5066 8.22082 22.4084 8.03339 22.4084H4.83239C4.64518 22.4084 4.47158 22.5066 4.37523 22.6672L2.77462 25.3347C2.67301 25.5037 2.67301 25.715 2.77462 25.8842L4.37523 28.5517C4.47158 28.7121 4.64518 28.8105 4.83239 28.8105H8.03339C8.22082 28.8105 8.3942 28.7121 8.49077 28.5517L10.0912 25.8842C10.1928 25.715 10.1928 25.5037 10.0912 25.3347L8.49077 22.6672ZM7.73161 27.7434H5.13438L3.85398 25.6095L5.13438 23.4753H7.73161L9.01201 25.6095L7.73161 27.7434Z" fill="white"/>
<path d="M25.6392 12.8053C29.1628 12.8171 32.0291 9.97014 32.041 6.44652C32.0427 5.91013 31.9769 5.37594 31.845 4.85601C31.7739 4.57004 31.4844 4.396 31.1984 4.46711C31.1045 4.49059 31.0189 4.5391 30.9504 4.60735L27.6294 7.9262L24.9944 7.04809L24.1156 4.41378L27.4367 1.09208C27.645 0.88358 27.6447 0.545813 27.4362 0.337535C27.3675 0.26884 27.2811 0.220118 27.1865 0.196854C23.7693 -0.668522 20.2979 1.4 19.4325 4.81695C19.3011 5.33534 19.2355 5.86822 19.2372 6.40307C19.2385 6.82314 19.2818 7.24189 19.3669 7.65318L7.6829 19.337C7.27161 19.252 6.85286 19.2088 6.43301 19.2073C2.89709 19.2073 0.0307922 22.0736 0.0307922 25.6095C0.0307922 29.1451 2.89709 32.0114 6.43301 32.0114C9.9687 32.0114 12.835 29.1451 12.835 25.6095C12.8337 25.1894 12.7902 24.7706 12.7053 24.3593L15.5025 21.5622L16.7258 22.7855C16.9343 22.9938 17.2718 22.9938 17.4803 22.7855L17.747 22.5186C17.981 22.2862 18.3591 22.2862 18.5931 22.5186C18.8268 22.7517 18.8272 23.1301 18.5942 23.3638C18.5939 23.364 18.5935 23.3645 18.5931 23.3649L18.3264 23.6316C18.1181 23.8399 18.1181 24.1776 18.3264 24.3859L24.6907 30.7501C26.3646 32.4394 29.0908 32.4517 30.7801 30.7778C32.4692 29.1039 32.4815 26.3774 30.8076 24.6883C30.7986 24.6791 30.7893 24.6699 30.7801 24.6607L24.4159 18.2967C24.2076 18.0884 23.8698 18.0884 23.6615 18.2967L23.3949 18.5633C23.1607 18.796 22.7828 18.796 22.5486 18.5633C22.3151 18.3302 22.3144 17.9519 22.5475 17.7184C22.5479 17.7179 22.5484 17.7177 22.5486 17.7173L22.8155 17.4504C23.0238 17.2421 23.0238 16.9043 22.8155 16.6961L21.5921 15.4727L24.3893 12.6756C24.8006 12.7605 25.2194 12.804 25.6392 12.8053ZM27.7354 30.9446C27.3478 30.9439 26.9635 30.8739 26.6007 30.7376L30.7674 26.5707C31.3962 28.2433 30.5501 30.1088 28.8775 30.7376C28.5125 30.8748 28.1256 30.945 27.7354 30.9446ZM21.6913 17.0786C21.1005 17.7833 21.1931 18.8337 21.8979 19.4243C22.5172 19.9434 23.4199 19.9429 24.0386 19.4228L30.0258 25.4152C30.0908 25.4804 30.1516 25.5491 30.2104 25.6189L25.6489 30.1804C25.5789 30.1218 25.5102 30.061 25.445 29.9958L19.4532 24.0036C20.044 23.2989 19.9514 22.2485 19.2467 21.6579C18.6273 21.1386 17.7244 21.1393 17.1057 21.6592L16.2522 20.8057L20.8376 16.2271L21.6913 17.0786ZM23.8457 11.7127L11.7429 23.8131C11.6101 23.9456 11.5568 24.1381 11.602 24.3201C12.3339 27.1945 10.597 30.1181 7.7224 30.8498C4.84798 31.5817 1.9244 29.8448 1.19246 26.9702C0.460738 24.0958 2.19764 21.1722 5.07228 20.4402C5.94183 20.219 6.85286 20.219 7.7224 20.4402C7.90435 20.4848 8.09638 20.4315 8.22938 20.2996L20.3293 8.199C20.4619 8.06644 20.5152 7.87397 20.4695 7.69224C19.7427 4.85141 21.4563 1.95921 24.2971 1.2321C24.834 1.09493 25.3892 1.04226 25.9423 1.07671L23.128 3.89209C22.9851 4.03475 22.9351 4.2461 22.999 4.4377L24.0658 7.63891C24.1191 7.79803 24.2442 7.92313 24.4036 7.97602L27.6048 9.04309C27.7962 9.10696 28.0075 9.05714 28.1504 8.91448L30.9647 6.1002C30.9711 6.20203 30.9743 6.30277 30.9743 6.40307C30.9893 9.33455 28.6251 11.7231 25.6936 11.7382C25.2404 11.7404 24.7888 11.6846 24.3498 11.5723C24.1679 11.5268 23.9754 11.58 23.8428 11.7125H23.8457V11.7127Z" fill="white"/>
</g>
<defs>
<clipPath id="clip0">
<rect width="32" height="32" fill="white"/>
</clipPath>
</defs>
</svg>
