<svg width="45" height="31" viewBox="0 0 45 31" fill="none" xmlns="http://www.w3.org/2000/svg">
<path fill-rule="evenodd" clip-rule="evenodd" d="M0 8.18182V30.6818H45V8.18182H0ZM2.04545 4.09091V6.13636H42.9545V4.09091H2.04545ZM4.09091 0V2.04545H40.9091V0H4.09091ZM2.04545 10.2273V28.6364H42.9545V10.2273H2.04545ZM22.7596 12.2727V13.6348C23.3063 13.7229 23.7533 13.9036 24.1008 14.1769C24.4482 14.4503 24.7795 14.8696 25.0945 15.4348L23.7395 16.1923C23.3317 15.451 22.7988 15.0804 22.1409 15.0804C21.7332 15.0804 21.3951 15.2008 21.1263 15.4417C20.8576 15.6826 20.7233 15.9838 20.7233 16.3452C20.7233 16.6741 20.8322 16.9474 21.0499 17.1652C21.263 17.3783 21.6939 17.6308 22.3426 17.9227C22.9032 18.1775 23.3665 18.4173 23.7325 18.642C24.0985 18.8667 24.3741 19.0833 24.5594 19.2918C25.083 19.857 25.3447 20.5404 25.3447 21.3419C25.3447 22.1295 25.1084 22.8245 24.6358 23.4268C24.1679 24.0244 23.5425 24.4275 22.7596 24.636V26.0746H21.5433V24.6777C20.6352 24.5294 19.9426 24.2167 19.4654 23.7395C18.9882 23.2623 18.6361 22.5256 18.4091 21.5295L19.9379 21.2099C20.1464 21.9141 20.4013 22.4168 20.7025 22.7179C21.0175 23.0052 21.4368 23.1488 21.9603 23.1488C22.4699 23.1488 22.8962 22.9843 23.2391 22.6554C23.5773 22.3311 23.7463 21.9118 23.7463 21.3975C23.7463 20.9388 23.6051 20.5705 23.3225 20.2925C23.1789 20.1581 22.9668 20.0064 22.6865 19.8373C22.4062 19.6682 22.0484 19.484 21.6129 19.2848C20.714 18.8817 20.1233 18.5111 19.8407 18.1729C19.3913 17.6679 19.1666 17.0633 19.1666 16.3591C19.1666 16.0255 19.2199 15.7151 19.3264 15.4278C19.433 15.1406 19.5871 14.88 19.7886 14.646C19.9902 14.4121 20.2392 14.2093 20.5357 14.0379C20.8322 13.8665 21.168 13.7321 21.5433 13.6348V12.2727H22.7596Z" fill="white"/>
</svg>
