<svg width="32" height="32" viewBox="0 0 32 32" fill="none" xmlns="http://www.w3.org/2000/svg">
<g clip-path="url(#clip0)">
<path d="M5.58087 10.6328H19.2292C19.5744 10.6328 19.8542 10.353 19.8542 10.0078C19.8542 9.66263 19.5744 9.38281 19.2292 9.38281H5.58087C5.23568 9.38281 4.95587 9.66263 4.95587 10.0078C4.95587 10.353 5.23568 10.6328 5.58087 10.6328Z" fill="white"/>
<path d="M8.80212 7.13281H16.0079C16.3531 7.13281 16.6329 6.853 16.6329 6.50781C16.6329 6.16263 16.3531 5.88281 16.0079 5.88281H8.80212C8.45694 5.88281 8.17712 6.16263 8.17712 6.50781C8.17712 6.853 8.45694 7.13281 8.80212 7.13281Z" fill="white"/>
<path d="M5.58087 14.1328H19.2292C19.5744 14.1328 19.8542 13.853 19.8542 13.5078C19.8542 13.1626 19.5744 12.8828 19.2292 12.8828H5.58087C5.23568 12.8828 4.95587 13.1626 4.95587 13.5078C4.95587 13.853 5.23568 14.1328 5.58087 14.1328Z" fill="white"/>
<path d="M7.02893 21.0157C7.48274 21.0157 7.85193 21.3248 7.85193 21.7048C7.85193 22.0499 8.13174 22.3298 8.47693 22.3298C8.82211 22.3298 9.10193 22.0499 9.10193 21.7048C9.10193 20.8392 8.49243 20.1045 7.65393 19.8559V19.769C7.65393 19.4239 7.37412 19.144 7.02893 19.144C6.68374 19.144 6.40393 19.4239 6.40393 19.769V19.8559C5.56537 20.1045 4.95587 20.8392 4.95587 21.7048C4.95587 22.774 5.88581 23.644 7.02893 23.644C7.48274 23.644 7.85193 23.9531 7.85193 24.3331C7.85193 24.7131 7.48274 25.0223 7.02893 25.0223C6.57512 25.0223 6.20587 24.7131 6.20587 24.3331C6.20587 23.988 5.92606 23.7081 5.58087 23.7081C5.23568 23.7081 4.95587 23.988 4.95587 24.3331C4.95587 25.1987 5.56537 25.9335 6.40393 26.182V26.2689C6.40393 26.614 6.68374 26.8939 7.02893 26.8939C7.37412 26.8939 7.65393 26.614 7.65393 26.2689V26.182C8.49249 25.9334 9.10193 25.1987 9.10193 24.3331C9.10193 23.2639 8.17199 22.394 7.02893 22.394C6.57512 22.394 6.20587 22.0848 6.20587 21.7048C6.20587 21.3248 6.57512 21.0157 7.02893 21.0157Z" fill="white"/>
<path d="M12.405 16.3828H5.58087C5.23568 16.3828 4.95587 16.6627 4.95587 17.0078C4.95587 17.3529 5.23568 17.6328 5.58087 17.6328H12.405C12.7502 17.6328 13.03 17.3529 13.03 17.0078C13.03 16.6627 12.7502 16.3828 12.405 16.3828Z" fill="white"/>
<path d="M31.8169 21.5136L24.625 14.3216V0.625C24.625 0.279813 24.3452 0 24 0H0.625C0.279813 0 0 0.279813 0 0.625V31.375C0 31.7201 0.279813 32 0.625 32H30.1502C30.4954 32 30.7752 31.7201 30.7752 31.375V22.5805H31.375C31.6278 22.5805 31.8557 22.4282 31.9524 22.1947C32.0492 21.9611 31.9957 21.6923 31.8169 21.5136ZM1.25 1.25H23.375V13.0864C23.2711 13.0144 23.1473 12.9747 23.0193 12.9747C22.8535 12.9747 22.6945 13.0406 22.5773 13.1578L14.2215 21.5136C14.0428 21.6923 13.9893 21.9611 14.0861 22.1947C14.1828 22.4282 14.4107 22.5805 14.6635 22.5805H15.2633V30.75H1.25V1.25ZM20.8318 30.75V25.3305H25.2068V30.75H20.8318ZM29.5252 30.75H26.4568V24.7055C26.4568 24.3604 26.1769 24.0805 25.8318 24.0805H20.2068C19.8616 24.0805 19.5818 24.3604 19.5818 24.7055V30.75H16.5133V22.5805H20.2068C20.5519 22.5805 20.8318 22.3006 20.8318 21.9555C20.8318 21.6104 20.5519 21.3305 20.2068 21.3305H16.1723L23.0192 14.4836L29.8661 21.3305H25.8318C25.4866 21.3305 25.2068 21.6104 25.2068 21.9555C25.2068 22.3006 25.4866 22.5805 25.8318 22.5805H29.5252V30.75H29.5252Z" fill="white"/>
<path d="M23.0194 21.3306C22.8544 21.3306 22.6938 21.3974 22.5775 21.5137C22.4606 21.6299 22.3944 21.7906 22.3944 21.9556C22.3944 22.1199 22.4606 22.2812 22.5775 22.3974C22.6938 22.5136 22.855 22.5806 23.0194 22.5806C23.1838 22.5806 23.345 22.5137 23.4613 22.3974C23.5775 22.2812 23.6444 22.1199 23.6444 21.9556C23.6444 21.7912 23.5775 21.6299 23.4613 21.5137C23.345 21.3974 23.1838 21.3306 23.0194 21.3306Z" fill="white"/>
</g>
<defs>
<clipPath id="clip0">
<rect width="32" height="32" fill="white"/>
</clipPath>
</defs>
</svg>
