<svg width="35" height="31" viewBox="0 0 35 31" fill="none" xmlns="http://www.w3.org/2000/svg">
<g clip-path="url(#clip0)">
<path d="M23.3771 13.0393H11.2895C10.9219 13.0393 10.617 12.7513 10.617 12.4039C10.617 8.90471 13.6299 6.05791 17.3333 6.05791C21.0367 6.05791 24.0497 8.90471 24.0497 12.4039C24.0497 12.7597 23.7538 13.0393 23.3771 13.0393ZM12.0069 11.7685H22.6687C22.337 9.26903 20.0683 7.32881 17.3423 7.32881C14.6163 7.32881 12.3387 9.26903 12.0069 11.7685Z" fill="white"/>
<path d="M17.3333 5.21065C15.8089 5.21065 14.5804 4.04143 14.5804 2.60956C14.5804 1.17769 15.8089 0 17.3333 0C18.8577 0 20.0862 1.16922 20.0862 2.60109C20.0862 4.03296 18.8577 5.21065 17.3333 5.21065ZM17.3333 1.27089C16.5532 1.27089 15.9255 1.87245 15.9255 2.60109C15.9255 3.32973 16.5622 3.93129 17.3333 3.93129C18.1045 3.93129 18.7412 3.32973 18.7412 2.60109C18.7412 1.87245 18.1135 1.27089 17.3333 1.27089Z" fill="white"/>
<path d="M10.5901 30.9758H0.67253C0.30488 30.9758 0 30.6878 0 30.3404C0 27.4089 2.52871 25.0196 5.63132 25.0196C8.73392 25.0196 11.2626 27.4089 11.2626 30.3404C11.2626 30.6962 10.9578 30.9758 10.5901 30.9758ZM1.39886 29.7049H9.86377C9.54096 27.7732 7.76548 26.2905 5.63132 26.2905C3.49716 26.2905 1.72168 27.7732 1.39886 29.7049Z" fill="white"/>
<path d="M5.63131 24.3757C4.17865 24.3757 2.995 23.2573 2.995 21.8847C2.995 20.5122 4.17865 19.3938 5.63131 19.3938C7.08398 19.3938 8.26763 20.5122 8.26763 21.8847C8.26763 23.2573 7.08398 24.3757 5.63131 24.3757ZM5.63131 20.6562C4.91395 20.6562 4.34006 21.2069 4.34006 21.8763C4.34006 22.5456 4.92292 23.0963 5.63131 23.0963C6.33971 23.0963 6.92257 22.5456 6.92257 21.8763C6.92257 21.2069 6.34868 20.6562 5.63131 20.6562Z" fill="white"/>
<path d="M33.9942 30.9758H24.0766C23.7089 30.9758 23.4041 30.6878 23.4041 30.3404C23.4041 27.4089 25.9328 25.0196 29.0354 25.0196C32.138 25.0196 34.6667 27.4089 34.6667 30.3404C34.6667 30.6962 34.3618 30.9758 33.9942 30.9758ZM24.8029 29.7049H33.2678C32.945 27.7732 31.1695 26.2905 29.0354 26.2905C26.9012 26.2905 25.1257 27.7732 24.8029 29.7049Z" fill="white"/>
<path d="M29.0354 24.3757C27.5827 24.3757 26.399 23.2573 26.399 21.8847C26.399 20.5122 27.5827 19.3938 29.0354 19.3938C30.488 19.3938 31.6717 20.5122 31.6717 21.8847C31.6717 23.2573 30.488 24.3757 29.0354 24.3757ZM29.0354 20.6562C28.318 20.6562 27.7441 21.2069 27.7441 21.8763C27.7441 22.5456 28.327 23.0963 29.0354 23.0963C29.7438 23.0963 30.3266 22.5456 30.3266 21.8763C30.3266 21.2069 29.7527 20.6562 29.0354 20.6562Z" fill="white"/>
<path d="M5.23674 13.2427C4.86909 13.2427 4.56421 12.9546 4.56421 12.6072V8.73525C4.56421 8.38788 4.86909 8.09981 5.23674 8.09981H9.33468C9.70233 8.09981 10.0072 8.38788 10.0072 8.73525C10.0072 9.08263 9.70233 9.3707 9.33468 9.3707H5.90927V12.6072C5.90927 12.9631 5.61335 13.2427 5.23674 13.2427Z" fill="white"/>
<path d="M29.4298 13.2427C29.0622 13.2427 28.7573 12.9546 28.7573 12.6072V9.3707H25.3319C24.9642 9.3707 24.6594 9.08263 24.6594 8.73525C24.6594 8.38788 24.9642 8.09981 25.3319 8.09981H29.4298C29.7975 8.09981 30.1024 8.38788 30.1024 8.73525V12.6072C30.1024 12.9631 29.7975 13.2427 29.4298 13.2427Z" fill="white"/>
</g>
<defs>
<clipPath id="clip0">
<rect width="34.6667" height="30.9758" fill="white"/>
</clipPath>
</defs>
</svg>
