<svg width="66" height="66" viewBox="0 0 66 66" fill="none" xmlns="http://www.w3.org/2000/svg">
<path d="M33 45.375C39.8345 45.375 45.375 39.8345 45.375 33C45.375 26.1655 39.8345 20.625 33 20.625C26.1655 20.625 20.625 26.1655 20.625 33C20.625 39.8345 26.1655 45.375 33 45.375Z" stroke="white" stroke-width="3" stroke-miterlimit="10" stroke-linejoin="round"/>
<path d="M52.5938 24.75C55.4415 24.75 57.75 22.4415 57.75 19.5938C57.75 16.746 55.4415 14.4375 52.5938 14.4375C49.746 14.4375 47.4375 16.746 47.4375 19.5938C47.4375 22.4415 49.746 24.75 52.5938 24.75Z" stroke="white" stroke-width="3" stroke-miterlimit="10" stroke-linejoin="round"/>
<path d="M11.3438 16.5C14.1915 16.5 16.5 14.1915 16.5 11.3438C16.5 8.49603 14.1915 6.1875 11.3438 6.1875C8.49603 6.1875 6.1875 8.49603 6.1875 11.3438C6.1875 14.1915 8.49603 16.5 11.3438 16.5Z" stroke="white" stroke-width="3" stroke-miterlimit="10" stroke-linejoin="round"/>
<path d="M15.4688 59.8125C18.3165 59.8125 20.625 57.504 20.625 54.6562C20.625 51.8085 18.3165 49.5 15.4688 49.5C12.621 49.5 10.3125 51.8085 10.3125 54.6562C10.3125 57.504 12.621 59.8125 15.4688 59.8125Z" stroke="white" stroke-width="3" stroke-miterlimit="10" stroke-linejoin="round"/>
<path d="M54.6562 53.625C57.504 53.625 59.8125 51.3165 59.8125 48.4688C59.8125 45.621 57.504 43.3125 54.6562 43.3125C51.8085 43.3125 49.5 45.621 49.5 48.4688C49.5 51.3165 51.8085 53.625 54.6562 53.625Z" stroke="white" stroke-width="3" stroke-miterlimit="10" stroke-linejoin="round"/>
<path d="M25.3688 42.6937L18.7688 50.7375" stroke="white" stroke-width="3" stroke-miterlimit="10" stroke-linejoin="round"/>
<path d="M15.0564 15.0563L24.3376 24.3375" stroke="white" stroke-width="3" stroke-miterlimit="10" stroke-linejoin="round"/>
<path d="M48.4688 22.6875L43.3125 26.1938" stroke="white" stroke-width="3" stroke-miterlimit="10" stroke-linejoin="round"/>
<path d="M50.5312 45.3751L43.1062 40.0126" stroke="white" stroke-width="3" stroke-miterlimit="10" stroke-linejoin="round"/>
</svg>
