<svg width="32" height="32" viewBox="0 0 32 32" fill="none" xmlns="http://www.w3.org/2000/svg">
<g clip-path="url(#clip0)">
<path d="M27.3021 0H4.01702C1.77021 0 0 1.8383 0 4.01702V27.3021C0 29.4808 1.77021 31.3191 4.01702 31.3191H27.3702C29.5489 31.3191 31.3872 29.5489 31.3872 27.3021V4.01702C31.3191 1.8383 29.5489 0 27.3021 0ZM29.9574 27.3021C29.9574 28.7319 28.8 29.9574 27.3021 29.9574H4.01702C2.51915 29.9574 1.3617 28.7319 1.3617 27.3021V4.01702C1.3617 2.58723 2.51915 1.3617 4.01702 1.3617H27.3702C28.8 1.3617 30.0255 2.51915 30.0255 4.01702V27.3021H29.9574Z" fill="white"/>
<path d="M15.6596 5.03833C9.80426 5.03833 5.0383 9.80429 5.0383 15.6596C5.0383 21.5149 9.80426 26.2809 15.5915 26.2809C21.4468 26.2809 26.1447 21.5149 26.1447 15.6596C26.1447 9.80429 21.5149 5.03833 15.6596 5.03833ZM16.3404 24.8511V22.2639C16.3404 21.8554 16.0681 21.583 15.6596 21.583C15.2511 21.583 14.9787 21.8554 14.9787 22.2639V24.8511C10.2128 24.5107 6.4 20.4937 6.4 15.6596C6.4 10.8256 10.2128 6.80854 14.9787 6.46812V9.05535C14.9787 9.46386 15.2511 9.7362 15.6596 9.7362C16.0681 9.7362 16.3404 9.46386 16.3404 9.05535V6.46812C21.1064 6.80854 24.9191 10.8256 24.9191 15.6596C24.9191 20.4937 21.1064 24.5107 16.3404 24.8511Z" fill="white"/>
<path d="M19.7447 12.8682C18.383 12.8682 17.2255 14.0256 17.2255 15.3873C17.2255 16.749 18.383 17.9065 19.7447 17.9065C21.1064 17.9065 22.2638 16.749 22.2638 15.3873C22.2638 14.0256 21.1064 12.8682 19.7447 12.8682ZM19.7447 16.5448C19.1319 16.5448 18.5872 16.0001 18.5872 15.3873C18.5872 14.7745 19.1319 14.2299 19.7447 14.2299C20.3574 14.2299 20.9021 14.7745 20.9021 15.3873C20.9021 16.0001 20.3574 16.5448 19.7447 16.5448Z" fill="white"/>
<path d="M11.4383 12.8682C10.0766 12.8682 8.91914 14.0256 8.91914 15.3873C8.91914 16.749 10.0766 17.9065 11.4383 17.9065C12.8 17.9065 13.9574 16.749 13.9574 15.3873C13.9574 14.0256 12.8 12.8682 11.4383 12.8682ZM11.4383 16.5448C10.8255 16.5448 10.2808 16.0001 10.2808 15.3873C10.2808 14.7745 10.8255 14.2299 11.4383 14.2299C12.0511 14.2299 12.5957 14.7745 12.5957 15.3873C12.5957 16.0001 12.0511 16.5448 11.4383 16.5448Z" fill="white"/>
</g>
<defs>
<clipPath id="clip0">
<rect width="32" height="31.3191" fill="white"/>
</clipPath>
</defs>
</svg>
