<svg width="29" height="30" viewBox="0 0 29 30" fill="none" xmlns="http://www.w3.org/2000/svg">
<path d="M28.3838 15.6874C28.2215 13.6951 27.3511 11.9317 25.9331 10.722C25.7315 10.5437 25.543 10.3904 25.3392 10.2418C25.1354 10.1087 24.9194 9.98092 24.6948 9.86014C24.1638 9.58003 23.7074 9.38438 23.2428 9.23988C22.7277 9.1039 22.1886 9.00532 21.6358 8.94642C21.06 8.89381 20.4649 8.94568 19.8932 9.00497C18.9173 9.13854 17.9765 9.46793 17.1413 9.94146L16.8008 9.85088L18.453 8.33876C18.5553 8.24541 18.5986 8.10348 18.5656 7.96862C18.5322 7.83411 18.4285 7.72814 18.2947 7.69257L17.4789 7.47506L19.1232 5.85182C19.2203 5.75621 19.2585 5.61578 19.2237 5.48424C19.1888 5.35269 19.0858 5.25007 18.9547 5.21524L18.194 5.01255L19.7887 3.36856C19.8825 3.27183 19.918 3.13291 19.8821 3.0032C19.8461 2.87352 19.7442 2.77239 19.6142 2.73754L19.0984 2.60044L20.4126 1.06759C20.5138 0.949758 20.5327 0.782273 20.4612 0.644816C20.3893 0.50736 20.2448 0.429536 20.0866 0.442885C16.2239 0.831924 12.9716 3.56085 11.9934 7.23386C11.747 8.15905 11.6504 9.10154 11.7006 10.0456C10.8205 9.51556 9.81225 9.14754 8.76115 9.00386C8.20128 8.94494 7.6064 8.89157 7.02562 8.94716C6.47763 9.00532 5.93849 9.1039 5.40716 9.2447C4.9581 9.38475 4.50197 9.58039 3.96916 9.86162C3.74817 9.98056 3.53214 10.1084 3.31002 10.2536C3.12269 10.3911 2.93317 10.5452 2.73623 10.7197C1.31659 11.9295 0.445289 13.6936 0.283003 15.6874C0.270413 15.8404 0.351546 15.986 0.488265 16.0561C0.62482 16.1257 0.7906 16.1068 0.907325 16.0068L1.84492 15.2064C2.00019 15.0693 2.15988 14.9396 2.3029 14.8281L2.38665 15.338C2.40889 15.4732 2.50225 15.5858 2.631 15.6329C2.76032 15.6803 2.90407 15.6537 3.00803 15.5647C3.00933 15.5632 3.51231 15.1323 4.05196 14.6959C4.24167 14.5484 4.43546 14.4157 4.60723 14.2983L4.64163 15.0508C4.64814 15.1912 4.73189 15.3169 4.85917 15.3769C4.98624 15.4361 5.13594 15.421 5.24896 15.3365L5.59853 15.0742C5.73211 14.97 5.91017 14.86 6.09837 14.7433C6.18082 14.6922 6.26583 14.6395 6.34385 14.5895L6.92316 14.2405L6.84812 15.039C6.83479 15.1809 6.90222 15.3187 7.02264 15.395C7.14325 15.4717 7.29644 15.474 7.4189 15.401L7.76278 15.1979C7.82226 15.1645 7.88856 15.1264 7.95972 15.0849C8.14088 14.9793 8.34653 14.86 8.55033 14.7677C8.73279 14.6829 8.92047 14.5984 9.09334 14.5224L8.88917 15.3176C8.85305 15.4584 8.90067 15.6077 9.01145 15.7015C9.12261 15.7956 9.27784 15.8174 9.41012 15.7589C9.41533 15.7567 9.93366 15.5281 10.4911 15.3191C10.6281 15.2746 10.7696 15.232 10.905 15.1923L10.6184 15.8437C10.5628 15.9701 10.5804 16.1168 10.6642 16.2265C10.7479 16.3362 10.8835 16.3918 11.0215 16.3717L11.36 16.3217C11.42 16.3147 11.4876 16.305 11.5605 16.295C11.7385 16.2702 11.9404 16.242 12.1309 16.2346L12.2841 16.228C12.5153 16.218 12.7486 16.2076 12.9208 16.2124L12.999 16.2157C11.6323 19.5268 11.2976 28.7665 11.2837 29.1659C11.2801 29.2686 11.3185 29.3686 11.39 29.4424C11.4615 29.5164 11.5601 29.5583 11.6629 29.5583H17.0035C17.1065 29.5583 17.205 29.5164 17.2765 29.4424C17.3477 29.3686 17.3862 29.2686 17.3825 29.1659C17.3688 28.7665 17.0342 19.5264 15.6674 16.2157L15.74 16.2128C15.9193 16.2061 16.1513 16.218 16.3821 16.228L16.5366 16.2346C16.7259 16.242 16.9279 16.2702 17.1057 16.295C17.1787 16.305 17.2465 16.3147 17.2962 16.3202L17.6449 16.3717C17.7805 16.3903 17.9183 16.3362 18.002 16.2265C18.0858 16.1168 18.1032 15.9701 18.0476 15.8437L17.7612 15.1916C17.892 15.2298 18.028 15.2713 18.1587 15.3131C18.7327 15.5281 19.251 15.7567 19.2563 15.7589C19.3897 15.8182 19.5438 15.7956 19.6549 15.7015C19.7657 15.6077 19.8132 15.4584 19.7772 15.3176L19.5731 14.5224C19.7465 14.5984 19.9351 14.6836 20.1203 14.7696C20.3193 14.8596 20.5245 14.9789 20.7054 15.0842C20.7769 15.1257 20.8436 15.1645 20.8955 15.1931L21.2471 15.401C21.3701 15.4736 21.5235 15.471 21.6436 15.395C21.764 15.3187 21.8318 15.1809 21.8184 15.039L21.7432 14.2412L22.3142 14.5843C22.4009 14.6399 22.4861 14.6925 22.5691 14.744C22.757 14.8604 22.9344 14.9704 23.0738 15.0786L23.4176 15.3365C23.5299 15.421 23.6799 15.4361 23.8074 15.3769C23.9349 15.3169 24.0186 15.1912 24.0249 15.0508L24.0594 14.2983C24.2309 14.4157 24.4247 14.5484 24.6085 14.691C25.1539 15.1323 25.6571 15.5632 25.6585 15.5647C25.7623 15.6537 25.9068 15.6803 26.0354 15.6329C26.1639 15.5858 26.2573 15.4732 26.2796 15.338L26.3637 14.8281C26.5078 14.9404 26.669 15.0716 26.8265 15.2109L27.7591 16.0068C27.8765 16.1068 28.0422 16.1261 28.1781 16.0561C28.3148 15.986 28.396 15.8404 28.3838 15.6874ZM12.7267 7.42949C13.5385 4.38082 16.062 2.0406 19.1644 1.35734L18.1295 2.56451C18.0443 2.66382 18.0165 2.79944 18.055 2.92391C18.0936 3.04878 18.1936 3.14473 18.3196 3.17846L18.7938 3.30445L17.1991 4.94847C17.1054 5.04517 17.0698 5.18411 17.1057 5.31381C17.1417 5.44349 17.2436 5.54462 17.3736 5.5791L18.1184 5.77768L16.474 7.40097C16.3769 7.49656 16.3387 7.63699 16.3736 7.76853C16.4084 7.90005 16.5114 8.00268 16.6426 8.0379L17.4292 8.24724L15.777 9.75936C15.6748 9.85273 15.6314 9.99466 15.6644 10.1295C15.6977 10.264 15.8015 10.37 15.9352 10.4059L16.292 10.501C15.5374 11.0759 14.9158 11.7799 14.5043 12.5661C14.4435 12.6783 14.3865 12.7921 14.3333 12.9077C14.2809 12.7936 14.2247 12.6813 14.1649 12.5709C13.7785 11.8333 13.2079 11.1692 12.517 10.615C12.3812 9.54747 12.4478 8.47636 12.7267 7.42949ZM12.9488 15.4539C12.7486 15.4473 12.4958 15.4591 12.2509 15.4699L12.1007 15.4765C11.9243 15.4832 11.7455 15.5043 11.5875 15.5254L11.9201 14.7692C11.9782 14.6366 11.956 14.4824 11.8626 14.3717C11.7691 14.2612 11.6212 14.2131 11.4802 14.2486C11.4539 14.2553 10.8298 14.4124 10.2416 14.6025C10.0921 14.6584 9.9472 14.7148 9.81362 14.7681L10.0174 13.9748C10.0512 13.8433 10.0103 13.7047 9.91349 13.6098C9.8166 13.515 9.67483 13.4801 9.54426 13.5157C9.54426 13.5157 9.49202 13.5305 9.3912 13.5709L9.09611 13.6947C8.85099 13.7985 8.53309 13.9385 8.23387 14.0782C8.03679 14.1671 7.84114 14.2768 7.67273 14.3739L7.74463 13.6091C7.75742 13.472 7.69533 13.339 7.58195 13.2608C7.46838 13.1834 7.32222 13.1723 7.19885 13.2334L6.78329 13.4401L5.94406 13.9448C5.86069 13.9982 5.77841 14.0489 5.69876 14.0982C5.58336 14.1697 5.47142 14.239 5.36715 14.3083L5.33397 13.5839C5.32767 13.4468 5.24766 13.3234 5.12482 13.2619C5.00219 13.2008 4.85547 13.2108 4.74168 13.2875L4.18331 13.6688C3.99899 13.7951 3.79072 13.9381 3.58067 14.1012C3.38373 14.2605 3.19235 14.4183 3.0273 14.5558L2.95114 14.0926C2.93001 13.9644 2.84519 13.8563 2.7257 13.8051C2.60653 13.7544 2.46945 13.7681 2.3622 13.841C2.3407 13.8559 1.83013 14.2068 1.3475 14.6336L1.1856 14.7718C1.49181 13.3853 2.19936 12.1741 3.23385 11.2926C3.41855 11.1288 3.59029 10.9891 3.74145 10.8776C3.92857 10.7557 4.12606 10.6386 4.3258 10.5315C4.81396 10.2736 5.22948 10.0951 5.61707 9.9735C6.09505 9.84753 6.596 9.756 7.10104 9.70229C7.60881 9.65374 8.16072 9.70377 8.6702 9.75714C10.7409 10.0402 12.6337 11.283 13.4952 12.9277C13.7006 13.3065 13.8533 13.7076 13.9539 14.1193V15.3499L13.289 15.4691L12.9488 15.4539ZM16.6081 28.7995H12.0583C12.064 28.6701 12.0715 28.5087 12.0805 28.3245H14.6803C14.89 28.3245 15.0597 28.1548 15.0597 27.9451C15.0597 27.7353 14.89 27.5657 14.6803 27.5657H12.1207C12.1398 27.226 12.1628 26.8454 12.1902 26.4322H14.3333C14.5428 26.4322 14.7129 26.2625 14.7129 26.0528C14.7129 25.8431 14.5428 25.6734 14.3333 25.6734H12.2433C12.2739 25.2561 12.3086 24.8171 12.3477 24.3651H13.7801C13.9896 24.3651 14.1595 24.1954 14.1595 23.9856C14.1595 23.7759 13.9896 23.6062 13.7801 23.6062H12.4166C12.4647 23.0997 12.5183 22.5845 12.5779 22.0704H13.7801C13.9896 22.0704 14.1595 21.9007 14.1595 21.691C14.1595 21.4813 13.9896 21.3116 13.7801 21.3116H12.6705C12.7353 20.8083 12.8064 20.3135 12.8838 19.8365H13.5117C13.7212 19.8365 13.8911 19.6668 13.8911 19.4571C13.8911 19.2474 13.7212 19.0777 13.5117 19.0777H13.0154C13.2239 17.9607 13.4731 16.9931 13.7705 16.3439C13.7985 16.2828 13.8047 16.2155 13.7982 16.1487L14.3333 16.0527L14.8682 16.1487C14.8616 16.2155 14.8677 16.2828 14.8959 16.3439C16.1101 18.9947 16.5262 26.938 16.6081 28.7995ZM27.324 14.6381C26.8365 14.2068 26.3259 13.8559 26.3044 13.841C26.1973 13.7681 26.0602 13.754 25.9409 13.8051C25.8216 13.8563 25.7364 13.9644 25.7156 14.0926L25.6393 14.5562C25.4729 14.4176 25.2795 14.2579 25.0798 14.0964C24.8757 13.9381 24.6674 13.7951 24.4832 13.6688L23.9245 13.2875C23.8111 13.2104 23.6637 13.2008 23.5418 13.2619C23.4187 13.3234 23.3387 13.4468 23.3324 13.5839L23.2994 14.3083C23.1946 14.239 23.0834 14.1701 22.9685 14.0989C22.8889 14.0493 22.8062 13.9982 22.714 13.9392L21.8562 13.4253L21.4672 13.233C21.343 13.173 21.1974 13.1834 21.084 13.2612C20.9711 13.339 20.9088 13.4724 20.9217 13.6091L20.9936 14.3739C20.8254 14.2768 20.6302 14.1675 20.4364 14.08C20.1333 13.9385 19.8154 13.7985 19.5694 13.6943L19.2681 13.568C19.1744 13.5305 19.1221 13.5157 19.1221 13.5157C18.9902 13.4794 18.8494 13.515 18.7527 13.6098C18.656 13.7047 18.6153 13.8433 18.649 13.9748L18.8528 14.7685C18.7149 14.7136 18.5649 14.6551 18.4081 14.5966C17.8368 14.4124 17.2124 14.2553 17.1861 14.2486C17.0472 14.2127 16.8975 14.2612 16.8041 14.3717C16.7104 14.4824 16.6882 14.6366 16.7467 14.7692L17.079 15.5254C16.9208 15.5043 16.7423 15.4832 16.5666 15.4765L16.4154 15.4699C16.1705 15.4591 15.9164 15.448 15.7122 15.4543L15.3777 15.4691L14.7125 15.3499V14.1199C14.8129 13.7086 14.9656 13.3073 15.1738 12.9229C16.0327 11.283 17.9253 10.0402 19.984 9.75823C20.506 9.70377 21.0585 9.65523 21.5602 9.70155C22.0704 9.756 22.571 9.84753 23.033 9.9687C23.4361 10.0947 23.8515 10.2736 24.338 10.53C24.5414 10.6394 24.7389 10.7561 24.9079 10.8657C25.0761 10.9891 25.2476 11.1288 25.4325 11.2926C25.4344 11.2941 25.4363 11.2956 25.4381 11.297C26.4682 12.1752 27.1751 13.3857 27.4812 14.7718L27.324 14.6381Z" fill="white"/>
</svg>