<svg width="25" height="25" viewBox="0 0 25 25" fill="none" xmlns="http://www.w3.org/2000/svg">
<path d="M24.1356 24.0232H19.9425L19.9168 12.0227C19.9163 11.7533 19.6977 11.5354 19.4285 11.5354C19.4282 11.5354 19.4278 11.5354 19.4274 11.5354C19.1577 11.5359 18.9395 11.755 18.9401 12.0248L18.9658 24.0232H17.5474L17.5348 18.684C17.5342 18.4146 17.3157 18.1968 17.0465 18.1968C17.0461 18.1968 17.0457 18.1968 17.0453 18.1968C16.7756 18.1974 16.5574 18.4166 16.5581 18.6863L16.5706 24.0232H15.3849V17.5604C16.7672 17.4381 17.854 16.3022 17.854 14.9229V10.1902C17.854 9.4377 17.6944 8.70005 17.389 8.0188C18.3534 8.0832 19.2511 8.47559 19.9417 9.14248C20.6975 9.87227 21.1149 10.8427 21.117 11.8754L21.126 14.6545C21.1268 14.9237 21.3453 15.1414 21.6143 15.1414C21.6148 15.1414 21.6154 15.1414 21.6159 15.1414C21.8856 15.1405 22.1036 14.9211 22.1027 14.6514L22.0938 11.8729C22.091 10.574 21.5677 9.35483 20.6202 8.43989C20.0789 7.91728 19.4361 7.53022 18.7355 7.29541C19.2318 6.8231 19.5414 6.15659 19.5399 5.41909C19.5368 3.99614 18.3783 2.84063 16.9559 2.84063C16.9541 2.84063 16.9522 2.84063 16.9504 2.84063C16.536 2.84155 16.124 2.94302 15.7589 3.13408C15.52 3.25918 15.4276 3.5543 15.5527 3.79326C15.6779 4.03223 15.973 4.12456 16.2119 3.99946C16.4417 3.8792 16.6909 3.81792 16.9525 3.81733C17.8402 3.81689 18.5613 4.53491 18.5632 5.42114C18.5651 6.30737 17.8456 7.02993 16.9594 7.03184C16.9384 7.03188 16.9178 7.03369 16.8976 7.03633C16.8715 7.0374 16.8455 7.03833 16.8195 7.03979C16.1139 6.07417 15.1234 5.37368 13.9953 5.01821C14.5942 4.49272 14.9734 3.72256 14.9734 2.86499C14.9732 1.28521 13.6881 0 12.1083 0C10.5286 0 9.24335 1.28521 9.24335 2.86499C9.24335 3.76411 9.66005 4.56743 10.3101 5.09307C9.27455 5.4668 8.36703 6.13628 7.70795 7.03701C7.63061 7.03354 7.55336 7.03149 7.47651 7.03149C7.43998 7.03149 7.40356 7.03208 7.36718 7.03286C7.35824 7.03237 7.34945 7.03149 7.34042 7.03149C6.45419 7.03149 5.7332 6.3105 5.7332 5.42427C5.7332 4.53804 6.45419 3.81704 7.34042 3.81704C7.60829 3.81704 7.87328 3.88413 8.10668 4.01104C8.34364 4.1398 8.64013 4.0522 8.76903 3.81523C8.89784 3.57827 8.8102 3.28174 8.57323 3.15288C8.19706 2.94834 7.77074 2.84023 7.34037 2.84023C5.91557 2.84023 4.75639 3.99941 4.75639 5.42422C4.75639 6.2001 5.10063 6.89668 5.64379 7.37075C3.79745 8.08272 2.48842 9.83716 2.48842 11.8834V14.653C2.48842 14.9227 2.70707 15.1414 2.9768 15.1414C3.24653 15.1414 3.46518 14.9227 3.46518 14.653V11.8834C3.46518 9.85806 5.08217 8.19175 7.13432 8.02334C6.83027 8.70327 6.67123 9.43926 6.67123 10.1902V14.9229C6.67123 16.3295 7.80146 17.4831 9.22275 17.5665V24.0232H7.89228V18.685C7.89228 18.4152 7.67362 18.1966 7.4039 18.1966C7.13417 18.1966 6.91552 18.4152 6.91552 18.685V24.0232H5.71503V12.0286C5.71503 11.7589 5.49638 11.5402 5.22665 11.5402C4.95693 11.5402 4.73827 11.7589 4.73827 12.0286V24.0232H0.864348C0.594621 24.0232 0.375969 24.2419 0.375969 24.5116C0.375969 24.7813 0.594572 25 0.864348 25H24.1357C24.4054 25 24.6241 24.7813 24.6241 24.5116C24.624 24.2419 24.4054 24.0232 24.1356 24.0232ZM10.2201 2.86499C10.2201 1.82383 11.0671 0.976758 12.1083 0.976758C13.1495 0.976758 13.9965 1.82383 13.9965 2.86499C13.9965 3.90615 13.1494 4.75322 12.1083 4.75322C11.0672 4.75322 10.2201 3.90615 10.2201 2.86499ZM14.8964 9.8665C14.6267 9.8665 14.408 10.0852 14.408 10.3549V24.0232H12.6687V17.229C12.6687 16.9592 12.45 16.7406 12.1803 16.7406C11.9106 16.7406 11.6919 16.9592 11.6919 17.229V24.0233H10.1995V10.3549C10.1995 10.0852 9.98085 9.8665 9.71112 9.8665C9.4414 9.8665 9.22275 10.0852 9.22275 10.3549V16.5874C8.34057 16.5073 7.64794 15.7915 7.64794 14.9229V10.1903C7.64794 9.34507 7.89374 8.52236 8.35878 7.81118C9.21093 6.50801 10.6703 5.72998 12.2626 5.72998C13.8575 5.72998 15.3182 6.51001 16.1699 7.8166C16.6326 8.52656 16.8772 9.34736 16.8772 10.1903V14.9229C16.8772 15.7643 16.2273 16.4622 15.3848 16.5779V10.3549C15.3849 10.0852 15.1662 9.8665 14.8964 9.8665Z" fill="white"/>
</svg>
