<svg width="32" height="33" viewBox="0 0 32 33" fill="none" xmlns="http://www.w3.org/2000/svg">
<g clip-path="url(#clip0)">
<path d="M26.7626 23.2371L24.9728 21.4156C24.7898 21.2291 24.4981 21.2044 24.2864 21.3575L16.4884 27.1018L13.7271 25.803L16.1505 25.5337C16.4171 25.5015 16.617 25.2743 16.6151 25.0058V22.725C16.6151 22.4334 16.3787 22.197 16.0871 22.197H13.4473L9.00181 21.7429C8.91166 21.7342 8.82072 21.7487 8.73783 21.7852L5.70731 23.084H0V24.1399H5.81818C5.89071 24.1405 5.96265 24.1261 6.02937 24.0977L9.03349 22.783L13.3681 23.2265H15.5803V24.5359L13.6268 24.7787L10.7916 24.4778C10.5362 24.4532 10.3001 24.6158 10.232 24.8632C10.1632 25.1097 10.2811 25.3701 10.5118 25.4809L16.3669 28.1736C16.5396 28.2521 16.7412 28.232 16.8949 28.1208L24.5715 22.4821L25.6275 23.5803L16.8051 31.2885H14.4135L5.99241 28.1577C5.93354 28.1344 5.87091 28.1219 5.80762 28.1208H0V29.1767H5.71787L14.1336 32.3128C14.1928 32.3343 14.2554 32.345 14.3184 32.3445H17.0005C17.1289 32.3443 17.2527 32.2974 17.349 32.2125L26.7362 24.0079C26.7451 24.0001 26.7537 23.9921 26.7621 23.9838C26.9684 23.7777 26.9686 23.4434 26.7626 23.2371Z" fill="white"/>
<path d="M28.167 13.8657L25.3793 10.9672C25.2905 10.873 25.1703 10.8148 25.0414 10.8035L19.3394 10.2755H17.1642L17.2698 8.69162L19.3341 8.27453L22.2168 8.91864C22.2762 8.92887 22.3369 8.92887 22.3963 8.91864L25.1998 8.58603L25.0731 7.53009L22.3593 7.82048L19.4555 7.17636C19.3845 7.15801 19.3101 7.15801 19.2391 7.17636L16.6679 7.70432C16.4311 7.74966 16.2552 7.9495 16.2402 8.19005L16.0713 10.7612C16.0706 10.7721 16.0703 10.783 16.0704 10.7938C16.0709 11.0854 16.3077 11.3214 16.5992 11.3209H19.2919L24.751 11.8172L27.5598 14.7579C27.659 14.862 27.7963 14.9211 27.9399 14.9216H31.6779V13.8657H28.167Z" fill="white"/>
<path d="M27.2483 2.87365C27.19 2.8264 27.1212 2.7938 27.0477 2.77862L18.0723 0.666757C17.9202 0.634881 17.7619 0.671575 17.6393 0.76707L11.8317 4.9908L12.4547 5.8461L18.067 1.76493L26.6939 3.79231L31.3559 7.41944L32 6.56941L27.2483 2.87365Z" fill="white"/>
<path d="M18.6741 3.89262C18.5365 3.83072 18.3789 3.83072 18.2412 3.89262L15.0734 5.47652L15.5486 6.4163L18.5052 4.94327L20.9233 5.93057L21.314 4.94855L18.6741 3.89262Z" fill="white"/>
<path d="M13.215 9.74245L12.2858 9.60518C11.8634 9.54182 11.6152 9.37815 11.6152 9.11417C11.6152 8.85019 11.9848 8.58621 12.4811 8.6126H12.8612C13.3575 8.6126 13.7271 8.87659 13.7271 9.11417V9.25672H14.783V9.11417C14.783 8.21663 13.9383 7.53027 12.8612 7.53027H12.4811C11.4041 7.53027 10.5593 8.21663 10.5593 9.11417C10.646 9.9376 11.3165 10.577 12.1432 10.6242L13.0566 10.7614C13.479 10.8248 13.7271 11.0148 13.7271 11.2524C13.7271 11.49 13.3575 11.754 12.8612 11.754H12.4811C11.9848 11.754 11.6152 11.49 11.6152 11.2524V11.1099H10.5593V11.2524C10.5593 12.1236 11.4252 12.8099 12.4811 12.8099H12.8612C13.9383 12.8099 14.783 12.1236 14.7989 11.2788C14.7244 10.445 14.0507 9.79148 13.215 9.74245Z" fill="white"/>
<path d="M16.8579 10.7244C16.6659 12.1605 15.7513 13.3979 14.4348 14.0027C12.3152 14.9766 9.80735 14.0477 8.83345 11.9281C7.85955 9.80845 8.78844 7.30061 10.9081 6.32671C13.0277 5.35281 15.5356 6.2817 16.5095 8.40135L17.4651 7.95786C16.6022 6.08794 14.7308 4.89038 12.6713 4.89038C9.75541 4.89031 7.39158 7.25408 7.39158 10.17C7.39151 13.0859 9.75528 15.4496 12.6712 15.4497C15.3212 15.4543 17.5641 13.4938 17.9139 10.867L16.8579 10.7244Z" fill="white"/>
<path d="M13.1991 7.00244H12.1432V8.05837H13.1991V7.00244Z" fill="white"/>
</g>
<defs>
<clipPath id="clip0">
<rect width="32" height="32" fill="white" transform="translate(0 0.5)"/>
</clipPath>
</defs>
</svg>
