<svg width="32" height="32" viewBox="0 0 32 32" fill="none" xmlns="http://www.w3.org/2000/svg">
<g clip-path="url(#clip0)">
<path d="M10.5436 9.10254C6.92737 9.10254 3.99583 12.0189 3.99583 15.6163C3.99583 19.2138 6.92737 22.1302 10.5436 22.1302C14.1598 22.1302 17.0913 19.2138 17.0913 15.6163C17.0913 12.0189 14.1598 9.10254 10.5436 9.10254ZM15.3894 13.1737H13.0296C12.8039 12.0487 12.4514 11.1394 12.0915 10.4379C13.5335 10.8659 14.7172 11.8607 15.3894 13.1737ZM12.1805 15.6163C12.1805 16.1009 12.144 16.5461 12.0939 16.9734H8.99345C8.94312 16.5461 8.90656 16.1009 8.90656 15.6163C8.90656 15.1315 8.9425 14.6864 8.99236 14.2593H12.095C12.1446 14.6864 12.1805 15.1316 12.1805 15.6163ZM10.3848 10.2041C10.4386 10.2025 10.4892 10.1882 10.5436 10.1882C10.5985 10.1882 10.6493 10.2028 10.7039 10.2043C11.1134 10.8293 11.6114 11.818 11.9129 13.1737H9.17433C9.4773 11.8133 9.97711 10.8251 10.3848 10.2041ZM8.99564 10.4379C8.63701 11.1379 8.28425 12.0482 8.05836 13.1737H5.69776C6.36999 11.8607 7.5537 10.8662 8.99564 10.4379ZM5.08712 15.6163C5.08712 15.145 5.16678 14.6956 5.28082 14.2593H7.89262C7.84705 14.6892 7.81534 15.1364 7.81534 15.6163C7.81534 16.0966 7.84787 16.5432 7.89418 16.9734H5.28082C5.16678 16.5371 5.08712 16.0876 5.08712 15.6163ZM5.69776 18.059H8.06102C8.28909 19.1865 8.64206 20.1036 8.99407 20.7943C7.55288 20.366 6.36972 19.3716 5.69776 18.059ZM10.7021 21.0286C10.6483 21.0303 10.5979 21.0445 10.5436 21.0445C10.4892 21.0445 10.4389 21.0302 10.3848 21.0286C9.99369 20.4302 9.48426 19.4393 9.17577 18.059H11.9115C11.6034 19.4384 11.0945 20.4288 10.7021 21.0286ZM12.0936 20.7943C12.4461 20.1029 12.7988 19.1866 13.0264 18.059H15.3894C14.7174 19.3714 13.5344 20.3658 12.0936 20.7943ZM13.1932 16.9734C13.2393 16.5432 13.2718 16.0966 13.2718 15.6163C13.2718 15.1364 13.2403 14.6892 13.1948 14.2593H15.8063C15.9203 14.6956 16 15.1451 16 15.6163C16 16.0876 15.9203 16.5371 15.8063 16.9734H13.1932Z" fill="white"/>
<path d="M16 25.387H5.08711V26.4726H16V25.387Z" fill="white"/>
<path d="M23.5972 17.5669L23.0322 19.6641L24.0862 19.9451L24.6513 17.8479L23.5972 17.5669Z" fill="white"/>
<path d="M22.4671 21.7593L20.4902 29.0994L21.5443 29.3803L23.5212 22.0402L22.4671 21.7593Z" fill="white"/>
<path d="M29.6597 3.44635L17.0106 0.0745017C16.8214 0.0240875 16.6314 0 16.4444 0C15.4807 6.78522e-05 14.5989 0.639846 14.3376 1.60986L13.1967 5.8456H1.81324C1.21057 5.8456 0.721947 6.33162 0.721947 6.93123V28.6439C0.721947 29.2435 1.21057 29.7296 1.81324 29.7296H14.4177L22.0338 31.7597C22.223 31.8101 22.4129 31.8342 22.6 31.8342C23.5637 31.8342 24.4455 31.1943 24.7068 30.2243L31.2032 6.10554C31.5152 4.9473 30.8241 3.7567 29.6597 3.44635ZM1.81324 28.6439V6.93123H18.1826C18.7844 6.93123 19.2739 7.41828 19.2739 8.01687V27.5583C19.2739 28.1569 18.7844 28.6439 18.1826 28.6439H1.81324ZM30.1492 5.82456L23.6529 29.9434C23.525 30.4175 23.0921 30.7486 22.5999 30.7486C22.5051 30.7486 22.4097 30.736 22.3162 30.711L18.5108 29.6966C19.5591 29.5382 20.3651 28.6456 20.3651 27.5584V18.9517L20.924 19.1007L21.4891 17.0034L20.4349 16.7224L20.3651 16.9819V8.35457C20.7053 8.44529 21.098 8.54998 21.4787 8.65149L22.7693 12.849L23.6728 13.0898L23.5872 9.21351C24.1806 9.37174 24.7864 9.53316 25.1834 9.63901L25.8849 10.8696L26.4873 11.0302L26.3837 9.31671L27.3346 7.88428L26.7322 7.72375L25.5063 8.4406C25.1091 8.33482 24.5035 8.17334 23.9099 8.0151L25.9324 4.7008L25.0289 4.45992L21.8016 7.45315C21.167 7.284 20.4746 7.0993 20.0994 6.99942C19.7318 6.31588 19.0159 5.84567 18.1825 5.84567H14.3262L15.3914 1.89097C15.5193 1.41689 15.9522 1.08577 16.4444 1.0857C16.5392 1.0857 16.6346 1.09832 16.7281 1.12329L29.3773 4.49514C29.6589 4.57018 29.8941 4.74985 30.0399 5.00098C30.1857 5.25203 30.2245 5.54454 30.1492 5.82456Z" fill="white"/>
<path d="M23.3132 14.6973L23.034 15.7468L24.071 16.0198L24.3502 14.9703L23.3132 14.6973Z" fill="white"/>
<path d="M25.3844 15.2445L25.1052 16.2939L26.1423 16.5669L26.4214 15.5175L25.3844 15.2445Z" fill="white"/>
<path d="M21.2421 14.1515L20.963 15.2009L22 15.4739L22.2791 14.4245L21.2421 14.1515Z" fill="white"/>
</g>
<defs>
<clipPath id="clip0">
<rect width="32" height="31.8342" fill="white"/>
</clipPath>
</defs>
</svg>
