<svg width="31" height="41" viewBox="0 0 31 41" fill="none" xmlns="http://www.w3.org/2000/svg">
<path d="M29.1898 0.194031H1.87498C0.895052 0.194031 0.101196 0.987887 0.101196 1.96782V39.0321C0.101196 40.0116 0.895052 40.8059 1.87498 40.8059H29.1898C30.1692 40.8059 30.9636 40.0116 30.9636 39.0321V1.96782C30.9636 0.987943 30.1692 0.194031 29.1898 0.194031ZM29.1898 39.0321H1.87498V1.96782H29.1898V39.0321Z" fill="#FFF"/>
<path d="M7.57253 24.037C7.57253 24.037 7.57253 24.0375 7.57303 24.0375C9.62891 26.232 12.5297 27.4905 15.5319 27.4905C15.5358 27.4905 15.5398 27.4905 15.5438 27.4905C15.5448 27.4905 15.5457 27.4905 15.5468 27.4905C15.5487 27.4905 15.5502 27.49 15.5523 27.49C18.5465 27.4846 21.4393 26.2271 23.4908 24.0375C25.3923 22.0083 26.4401 19.3609 26.4401 16.5834C26.4401 13.8064 25.3928 11.1591 23.4908 9.1294C21.4349 6.93492 18.5336 5.67627 15.532 5.67627C12.5297 5.67627 9.62852 6.93486 7.57309 9.1294C7.57258 9.12991 7.57258 9.12991 7.57258 9.12991C5.67206 11.1576 4.62531 13.8045 4.62531 16.5834C4.62525 19.3624 5.67201 22.0098 7.57253 24.037ZM13.4423 11.3026C13.4725 11.1867 13.5042 11.0769 13.5354 10.9675C13.5507 10.9136 13.5661 10.8572 13.5819 10.8052C13.62 10.677 13.6596 10.5562 13.6997 10.4375C13.7091 10.4093 13.718 10.3786 13.7273 10.3509C13.7775 10.2058 13.8284 10.0673 13.8798 9.93609C13.8902 9.90987 13.9012 9.88664 13.9115 9.86088C13.9525 9.7589 13.9936 9.659 14.0352 9.5659C14.0535 9.52434 14.0723 9.4867 14.0912 9.4466C14.1248 9.37432 14.159 9.30209 14.1932 9.23476C14.2144 9.19269 14.2357 9.1546 14.2569 9.1145C14.2886 9.0556 14.3198 8.99671 14.3514 8.94226C14.3737 8.90367 14.3966 8.8675 14.4189 8.83094C14.4489 8.78144 14.4796 8.73245 14.5098 8.68694C14.5326 8.65229 14.5554 8.62006 14.5782 8.58794C14.6078 8.54587 14.6371 8.50531 14.6663 8.46717C14.6891 8.43798 14.7113 8.40974 14.7336 8.38257C14.7627 8.34691 14.7915 8.31378 14.8201 8.2816C14.8419 8.25787 14.8637 8.23413 14.885 8.21236C14.9132 8.18317 14.9415 8.15645 14.9691 8.13068C14.9899 8.11195 15.0106 8.0926 15.031 8.07573C15.0587 8.0525 15.0859 8.03225 15.1126 8.01245C15.132 7.99861 15.1513 7.9837 15.1701 7.97133C15.1973 7.9535 15.2235 7.93921 15.2503 7.92532C15.2671 7.91637 15.284 7.90557 15.3003 7.89809C15.329 7.88521 15.3557 7.87688 15.3829 7.86794C15.3958 7.86395 15.4091 7.85798 15.4215 7.85506C15.4602 7.84561 15.4973 7.84015 15.532 7.84015C15.5666 7.84015 15.6032 7.84561 15.6418 7.85506C15.6547 7.85798 15.669 7.86445 15.6824 7.8689C15.7086 7.87683 15.7354 7.88521 15.7631 7.89809C15.7799 7.90602 15.7977 7.91637 15.8151 7.92588C15.8408 7.93972 15.8666 7.95355 15.8938 7.97088C15.9126 7.98376 15.9329 7.99912 15.9522 8.01346C15.9789 8.03275 16.0051 8.05255 16.0323 8.07533C16.0531 8.09266 16.0744 8.11246 16.0958 8.13226C16.1229 8.15701 16.1502 8.18322 16.1778 8.21146C16.2001 8.23418 16.2229 8.25893 16.2451 8.28368C16.2729 8.3144 16.3006 8.34657 16.3287 8.38072C16.352 8.40895 16.3753 8.43815 16.3991 8.4688C16.4272 8.50593 16.4555 8.54497 16.4842 8.58563C16.508 8.61927 16.5318 8.65291 16.5554 8.68857C16.5847 8.73262 16.6139 8.77964 16.6431 8.82768C16.6663 8.86576 16.6902 8.9039 16.7134 8.94451C16.7436 8.99643 16.7733 9.0524 16.8034 9.10837C16.8263 9.15089 16.8495 9.19252 16.8723 9.23752C16.904 9.3004 16.9356 9.36819 16.9672 9.43552C16.9881 9.47956 17.0089 9.52164 17.0297 9.56815C17.0673 9.6523 17.1043 9.74287 17.1415 9.83394C17.1558 9.86954 17.1706 9.90222 17.185 9.93884C17.2354 10.0686 17.286 10.2051 17.3355 10.3486C17.3484 10.3857 17.3607 10.4273 17.3731 10.4655C17.4096 10.5749 17.4459 10.6852 17.4811 10.8026C17.4983 10.8599 17.5151 10.9223 17.5319 10.9817C17.5617 11.0856 17.5919 11.1901 17.6205 11.3004C17.6383 11.3687 17.6552 11.441 17.6726 11.5113C17.6918 11.5899 17.7112 11.6702 17.73 11.7513C17.5111 11.8057 17.2905 11.8508 17.0692 11.8884C17.0257 11.8958 16.9827 11.9017 16.9391 11.9082C16.746 11.9384 16.5516 11.9622 16.357 11.9799C16.3149 11.9839 16.2729 11.9883 16.2308 11.9913C15.7656 12.027 15.2979 12.027 14.8327 11.9913C14.7917 11.9883 14.7505 11.9839 14.7094 11.9799C14.5135 11.9626 14.3175 11.9384 14.1225 11.9082C14.0808 11.9012 14.0389 11.8958 13.9967 11.8889C13.7745 11.8508 13.5533 11.8057 13.3335 11.7513C13.3533 11.6671 13.3726 11.5845 13.3929 11.5038C13.4092 11.4367 13.4255 11.3674 13.4423 11.3026ZM17.7022 21.9291C17.6739 22.0464 17.6442 22.1582 17.6146 22.2696C17.5992 22.3285 17.5844 22.3904 17.568 22.4478C17.522 22.6136 17.4744 22.7734 17.426 22.9264C17.4215 22.9408 17.4166 22.9535 17.4116 22.9679C17.3671 23.106 17.3221 23.2392 17.2755 23.3663C17.2582 23.4138 17.2403 23.4574 17.2226 23.5035C17.1884 23.5936 17.1543 23.6831 17.1197 23.7672C17.0988 23.8172 17.078 23.8633 17.0568 23.9112C17.0246 23.9855 16.9924 24.0597 16.9594 24.1295C16.9371 24.1766 16.9148 24.2206 16.8925 24.2656C16.8608 24.33 16.8286 24.3934 16.797 24.4528C16.7737 24.4963 16.7504 24.5369 16.7272 24.5779C16.6959 24.6334 16.6648 24.6873 16.6332 24.7383C16.6099 24.7769 16.5861 24.8135 16.5629 24.8497C16.5317 24.8971 16.5005 24.9433 16.4698 24.9868C16.4466 25.0199 16.4234 25.0516 16.4 25.0823C16.3694 25.1229 16.3386 25.1615 16.3086 25.1981C16.2852 25.2254 16.2625 25.2531 16.2397 25.2783C16.2095 25.312 16.1799 25.3427 16.1502 25.3723C16.1279 25.3947 16.1056 25.4174 16.0838 25.4371C16.0541 25.4644 16.0249 25.4876 15.9961 25.5109C15.9753 25.5278 15.9541 25.5456 15.9333 25.5599C15.9041 25.5812 15.8754 25.5976 15.8467 25.6144C15.8279 25.6253 15.8091 25.6382 15.7908 25.6471C15.7596 25.6624 15.7294 25.6728 15.6997 25.6832C15.6854 25.6882 15.6705 25.6957 15.6562 25.699C15.613 25.7109 15.5715 25.7168 15.532 25.7168C15.4924 25.7168 15.4503 25.7109 15.4072 25.699C15.3929 25.6956 15.378 25.6882 15.3637 25.6832C15.3335 25.6728 15.3038 25.6624 15.2727 25.6471C15.2543 25.6382 15.2355 25.6253 15.2167 25.6144C15.1879 25.5976 15.1593 25.5812 15.1296 25.5599C15.1094 25.5456 15.088 25.5272 15.0668 25.5105C15.038 25.4877 15.0093 25.4644 14.9796 25.4371C14.9573 25.4174 14.935 25.3941 14.9123 25.3718C14.8831 25.3426 14.8539 25.312 14.8242 25.2788C14.801 25.2531 14.7773 25.2248 14.754 25.1967C14.7244 25.1611 14.6942 25.1234 14.6644 25.0838C14.6402 25.0521 14.6159 25.0195 14.5922 24.9853C14.562 24.9428 14.5322 24.8982 14.502 24.8522C14.4778 24.8146 14.453 24.7765 14.4283 24.7364C14.3981 24.6869 14.3679 24.6349 14.3377 24.5815C14.3135 24.5388 14.2892 24.4964 14.2655 24.4513C14.2343 24.3934 14.2036 24.332 14.1729 24.2697C14.1497 24.2231 14.1258 24.1771 14.1031 24.1281C14.0714 24.0608 14.0403 23.989 14.0091 23.9173C13.9868 23.8668 13.9651 23.8183 13.9432 23.7658C13.9096 23.6847 13.8764 23.5975 13.8438 23.5115C13.8249 23.4624 13.8061 23.4165 13.7878 23.366C13.7413 23.2382 13.6957 23.1036 13.6507 22.9651C13.6462 22.9517 13.6418 22.9403 13.6378 22.9269C13.5888 22.7735 13.5413 22.6126 13.4948 22.4459C13.4814 22.3969 13.4691 22.3443 13.4557 22.2944C13.4235 22.1737 13.3913 22.0524 13.3612 21.9248C13.3453 21.8589 13.3304 21.7891 13.3151 21.7219C13.2943 21.6278 13.2731 21.5328 13.2528 21.4358C13.4844 21.3759 13.7185 21.3279 13.9536 21.2868C14.0026 21.2779 14.0521 21.271 14.1011 21.2631C14.2936 21.2329 14.4876 21.2086 14.6816 21.1903C14.7276 21.1859 14.7737 21.1809 14.8197 21.1774C15.2934 21.1403 15.77 21.1403 16.2441 21.1774C16.2896 21.1809 16.3352 21.1858 16.3807 21.1903C16.5747 21.2081 16.7682 21.2324 16.9608 21.2631C17.0112 21.271 17.0613 21.2779 17.1112 21.2868C17.3464 21.3279 17.58 21.3764 17.8115 21.4358C17.7932 21.5238 17.774 21.61 17.7546 21.6951C17.7372 21.7732 17.7205 21.8534 17.7022 21.9291ZM13.8848 13.6659C14.0868 13.6965 14.2891 13.7218 14.4926 13.7411C14.5792 13.7494 14.6653 13.7574 14.7524 13.7638C14.9826 13.7801 15.2136 13.7901 15.4448 13.792C15.4741 13.7925 15.5028 13.7955 15.532 13.7955C15.5607 13.7955 15.5889 13.7925 15.6175 13.792C15.8488 13.7905 16.0799 13.7801 16.3105 13.7638C16.3986 13.7574 16.4862 13.7489 16.5738 13.7405C16.7738 13.7218 16.9737 13.6965 17.1727 13.6663C17.237 13.6564 17.3013 13.649 17.3651 13.6381C17.5938 13.5995 17.822 13.5545 18.0477 13.501C18.0645 13.6238 18.0764 13.7505 18.0912 13.8752C18.1134 14.0608 18.1372 14.2453 18.1551 14.4349C18.168 14.573 18.1759 14.7145 18.1863 14.8536C18.2006 15.0436 18.2165 15.2322 18.2268 15.4252C18.2274 15.4411 18.2279 15.4574 18.2283 15.4732H12.8361C12.8371 15.4559 12.8371 15.4376 12.8381 15.4203C12.8475 15.2387 12.8628 15.061 12.8762 14.8818C12.8871 14.7329 12.8955 14.5819 12.9094 14.4349C12.9267 14.2528 12.9495 14.0751 12.9703 13.8965C12.9861 13.7648 12.999 13.6312 13.0163 13.501C13.2429 13.5549 13.4716 13.6 13.7013 13.6386C13.7625 13.6495 13.8239 13.6564 13.8848 13.6659ZM17.3195 19.5223C17.0449 19.4767 16.7687 19.4431 16.491 19.4183C16.4627 19.4158 16.4346 19.4129 16.4064 19.4109C16.1158 19.3876 15.8243 19.3713 15.5319 19.3713C15.2388 19.3713 14.9473 19.3876 14.6568 19.4109C14.6281 19.4134 14.5998 19.4158 14.5716 19.4183C14.2945 19.443 14.0193 19.4767 13.7456 19.5223C13.7307 19.5242 13.7164 19.5262 13.7021 19.5287C13.4561 19.5708 13.2111 19.6182 12.9681 19.6772C12.9616 19.6227 12.9577 19.5659 12.9518 19.5109C12.9186 19.213 12.8899 18.912 12.8681 18.6066C12.8592 18.4824 12.8533 18.3558 12.8459 18.23C12.8315 17.9752 12.8206 17.7183 12.8137 17.4595C12.8117 17.3887 12.8107 17.3179 12.8097 17.2471H18.2543C18.2533 17.3179 18.2524 17.3882 18.2504 17.4584C18.244 17.7183 18.2326 17.9756 18.2182 18.2315C18.2114 18.3553 18.2054 18.4795 18.1964 18.6022C18.1737 18.916 18.145 19.2258 18.1104 19.5321C18.105 19.5802 18.102 19.6296 18.0961 19.6772C17.8524 19.6183 17.6065 19.5703 17.36 19.5282C17.3468 19.5262 17.3329 19.5247 17.3195 19.5223ZM11.0311 17.2471C11.032 17.3149 11.0384 17.3803 11.0399 17.4475C11.0488 17.8351 11.0657 18.2182 11.0909 18.5968C11.0963 18.674 11.0988 18.7527 11.1047 18.8299C11.1384 19.2729 11.1845 19.7074 11.2399 20.136C11.2443 20.1726 11.2463 20.2112 11.2512 20.2479C11.2151 20.2637 11.181 20.2831 11.1448 20.2989C10.9463 20.3864 10.7504 20.4795 10.5574 20.5789C10.4866 20.6152 10.4168 20.6528 10.3465 20.6908C10.1639 20.7898 9.98425 20.8942 9.80751 21.0031C9.75553 21.0358 9.70204 21.066 9.65057 21.0991C9.42788 21.2417 9.21058 21.3921 8.99925 21.5504C8.95369 21.5846 8.91015 21.6212 8.8651 21.6559C8.69781 21.785 8.53401 21.9192 8.37465 22.0583C8.344 22.0845 8.31131 22.1077 8.28111 22.1344C7.19576 20.7215 6.55136 19.0288 6.42266 17.2471H11.0311V17.2471ZM9.49482 23.4346C9.52002 23.4124 9.54477 23.3896 9.57053 23.3673C9.66357 23.2871 9.75908 23.2095 9.8551 23.1333C9.91444 23.0862 9.97288 23.0383 10.0332 22.9927C10.1376 22.914 10.2451 22.8388 10.353 22.7645C10.4079 22.7264 10.4614 22.6868 10.5173 22.6502C10.6637 22.5537 10.8132 22.4621 10.9647 22.3741C10.9835 22.3632 11.0013 22.3513 11.0201 22.3403C11.1913 22.2429 11.3655 22.1518 11.5427 22.0657C11.5511 22.0612 11.5605 22.0577 11.5694 22.0533C11.5788 22.0959 11.5902 22.1335 11.5996 22.1755C11.6521 22.4052 11.708 22.6285 11.7669 22.8452C11.7822 22.9016 11.7966 22.9605 11.8124 23.0164C11.8867 23.2793 11.9654 23.5311 12.0485 23.7726C12.0683 23.8301 12.0896 23.8831 12.1099 23.939C12.1762 24.1245 12.2455 24.3032 12.3173 24.4754C12.3455 24.5423 12.3737 24.6085 12.4024 24.6739C12.4821 24.854 12.5647 25.0263 12.6503 25.1906C12.6632 25.2158 12.6751 25.245 12.688 25.2692C11.5176 24.8882 10.4352 24.2685 9.49482 23.4346ZM18.4149 25.1857C18.499 25.0234 18.5806 24.853 18.6598 24.6749C18.6889 24.6091 18.7172 24.5418 18.7459 24.4745C18.8166 24.3038 18.8854 24.1271 18.9518 23.9435C18.9726 23.8856 18.9943 23.8302 19.0151 23.7708C19.0978 23.5312 19.176 23.2814 19.2497 23.0215C19.2675 22.9586 19.2838 22.8923 19.3012 22.828C19.3571 22.6206 19.4111 22.4078 19.4616 22.1886C19.4719 22.1421 19.4848 22.1005 19.4953 22.0535C19.5042 22.0579 19.5131 22.0614 19.5221 22.0658C19.6981 22.1515 19.8724 22.243 20.0431 22.34C20.0649 22.3524 20.0857 22.3663 20.1071 22.3792C20.2554 22.4652 20.4025 22.5553 20.546 22.6499C20.603 22.6875 20.6579 22.7281 20.7143 22.7667C20.8203 22.8399 20.9262 22.9136 21.0291 22.9919C21.091 23.0384 21.1514 23.0874 21.2123 23.1359C21.3063 23.2106 21.3998 23.2869 21.4909 23.3651C21.517 23.3878 21.5428 23.4115 21.5691 23.4348C20.6283 24.2687 19.5453 24.8884 18.3743 25.27C18.3886 25.2436 18.4009 25.2124 18.4149 25.1857ZM22.7825 22.1345C22.7518 22.1073 22.7181 22.0835 22.6875 22.0568C22.5291 21.9187 22.3667 21.7861 22.201 21.6579C22.1544 21.6223 22.1099 21.5846 22.0634 21.5495C21.8526 21.3916 21.6358 21.2416 21.4136 21.0991C21.3616 21.0654 21.3072 21.0347 21.2542 21.0021C21.0785 20.8931 20.9004 20.7898 20.7187 20.6913C20.6479 20.6527 20.5767 20.6146 20.5049 20.5779C20.3143 20.4799 20.1213 20.3878 19.9258 20.3017C19.8876 20.285 19.8516 20.2642 19.8129 20.2478C19.818 20.2107 19.8199 20.1716 19.8249 20.134C19.8803 19.7054 19.9258 19.2708 19.9595 18.8289C19.9654 18.7497 19.9685 18.669 19.9734 18.5894C19.9985 18.2132 20.0154 17.8326 20.0248 17.4486C20.0263 17.3808 20.0322 17.3155 20.0337 17.2472H24.6419C24.5132 19.0279 23.8684 20.72 22.7825 22.1345ZM20.006 15.4733C20.0041 15.4308 19.999 15.3901 19.9971 15.3481C19.9783 14.9838 19.953 14.6235 19.9194 14.2686C19.9164 14.2375 19.9149 14.2048 19.912 14.1736C19.8748 13.789 19.8269 13.4125 19.7724 13.0408C19.7679 13.0081 19.7655 12.9739 19.7606 12.9412C19.7995 12.9249 19.8363 12.9041 19.8754 12.8869C20.0738 12.8007 20.2698 12.7081 20.4633 12.6102C20.5361 12.5731 20.6083 12.535 20.6805 12.4964C20.8672 12.3959 21.0498 12.2905 21.2304 12.1796C21.2823 12.1479 21.3353 12.1177 21.3873 12.0851C21.6125 11.941 21.8328 11.7891 22.047 11.6292C22.097 11.5921 22.145 11.552 22.1946 11.5134C22.3608 11.3852 22.5237 11.2521 22.6821 11.1145C22.7147 11.0863 22.7504 11.061 22.7825 11.0324C23.7773 12.3281 24.4019 13.8569 24.5989 15.4733H20.006ZM21.5689 9.73218C21.5413 9.75642 21.5136 9.78162 21.4857 9.80592C21.3898 9.8881 21.2919 9.96775 21.1927 10.0465C21.1325 10.094 21.073 10.1425 21.0116 10.1885C20.8983 10.2737 20.7819 10.3544 20.6647 10.4345C20.6142 10.4687 20.5652 10.5048 20.5143 10.538C20.345 10.6488 20.1723 10.7542 19.9961 10.8532C19.9713 10.8675 19.9451 10.8794 19.9203 10.8933C19.7683 10.9769 19.6139 11.0566 19.4575 11.1313C19.4427 11.1382 19.4278 11.1447 19.4129 11.1516C19.404 11.1145 19.3932 11.0828 19.3843 11.0462C19.3101 10.7467 19.2323 10.4557 19.1482 10.1815C19.1423 10.1622 19.1353 10.1449 19.1294 10.1256C19.0487 9.86724 18.9625 9.62373 18.8735 9.38821C18.8503 9.32684 18.827 9.26542 18.8032 9.20602C18.7073 8.96555 18.6077 8.73537 18.5028 8.52106C18.4879 8.4913 18.4727 8.46464 18.4577 8.43545C18.3623 8.24588 18.2622 8.06819 18.1598 7.9004C18.1439 7.87418 18.1296 7.84252 18.1132 7.81675C19.3844 8.18851 20.5584 8.83634 21.5689 9.73218ZM12.9054 7.89798C12.8014 8.0678 12.701 8.2474 12.6039 8.43944C12.5906 8.46661 12.5757 8.49136 12.5624 8.51915C12.4564 8.73487 12.3565 8.96656 12.2594 9.20855C12.2367 9.26598 12.2144 9.32487 12.1921 9.38427C12.1005 9.62429 12.0125 9.87325 11.9303 10.1375C11.9258 10.1514 11.9209 10.1642 11.9164 10.1781C11.8313 10.4553 11.7526 10.7492 11.6774 11.0516C11.6689 11.0863 11.6586 11.1165 11.6501 11.1516C11.6353 11.1447 11.6204 11.1382 11.6056 11.1313C11.4512 11.0575 11.2988 10.9783 11.1483 10.8957C11.1216 10.8809 11.0933 10.868 11.0666 10.8526C10.8909 10.7542 10.7187 10.6487 10.5494 10.5384C10.4979 10.5047 10.4489 10.4686 10.3984 10.434C10.2811 10.3542 10.1653 10.2731 10.052 10.188C9.9906 10.1424 9.93171 10.0944 9.8718 10.0469C9.7723 9.96826 9.6738 9.88805 9.57733 9.80542C9.5496 9.78162 9.52238 9.75642 9.4947 9.73218C10.5053 8.83634 11.6798 8.188 12.9507 7.8163C12.935 7.84161 12.9212 7.87233 12.9054 7.89798ZM8.28128 11.0324C8.31295 11.0605 8.3476 11.0848 8.37977 11.1126C8.53862 11.2511 8.70191 11.3843 8.86825 11.5129C8.9182 11.5515 8.96674 11.5921 9.0172 11.6297C9.231 11.789 9.45026 11.9405 9.67493 12.084C9.72836 12.1181 9.78377 12.1488 9.83777 12.182C10.0155 12.2914 10.1961 12.3958 10.3802 12.4948C10.454 12.5344 10.5277 12.5735 10.6024 12.6112C10.794 12.7087 10.9875 12.7997 11.1845 12.8854C11.2245 12.9032 11.2626 12.9245 11.3033 12.9413C11.2973 12.9794 11.2944 13.019 11.2889 13.0571C11.2409 13.3893 11.1994 13.7268 11.1647 14.0693C11.1603 14.1143 11.1538 14.1574 11.1494 14.2024C11.1122 14.5915 11.085 14.9868 11.0648 15.3868C11.0633 15.416 11.0599 15.4442 11.0583 15.4734H6.46643C6.66285 13.8559 7.28694 12.3271 8.28128 11.0324Z" fill="#FFF"/>
<path d="M24.3173 30.4239H6.74803C6.25804 30.4239 5.86108 30.8214 5.86108 31.3109C5.86108 31.8008 6.25804 32.1978 6.74803 32.1978H24.3173C24.8073 32.1978 25.2043 31.8008 25.2043 31.3109C25.2042 30.8214 24.8073 30.4239 24.3173 30.4239Z" fill="#FFF"/>
<path d="M20.3242 34.7832H10.7405C10.251 34.7832 9.85364 35.1806 9.85364 35.6701C9.85364 36.1601 10.251 36.5571 10.7405 36.5571H20.3242C20.8142 36.5571 21.2111 36.1601 21.2111 35.6701C21.2111 35.1806 20.8142 34.7832 20.3242 34.7832Z" fill="#FFF"/>
</svg>