<svg width="32" height="32" viewBox="0 0 32 32" fill="none" xmlns="http://www.w3.org/2000/svg">
<g clip-path="url(#clip0)">
<path d="M23.3333 31.9999C18.5547 31.9999 14.6667 28.1119 14.6667 23.3333C14.6667 18.5546 18.5547 14.6666 23.3333 14.6666C28.112 14.6666 32 18.5546 32 23.3333C32 28.1119 28.112 31.9999 23.3333 31.9999ZM23.3333 16C19.2893 16 16 19.2906 16 23.3333C16 27.3759 19.2893 30.6666 23.3333 30.6666C27.3773 30.6666 30.6667 27.3759 30.6667 23.3333C30.6667 19.2906 27.3773 16 23.3333 16Z" fill="white"/>
<path d="M22 26.6668C21.824 26.6668 21.6533 26.5961 21.528 26.4721L18.8613 23.8055C18.6013 23.5455 18.6013 23.1228 18.8613 22.8628C19.1213 22.6028 19.544 22.6028 19.804 22.8628L21.9667 25.0255L26.164 20.2281C26.4067 19.9495 26.828 19.9228 27.1053 20.1655C27.3827 20.4081 27.4107 20.8281 27.168 21.1055L22.5013 26.4388C22.38 26.5775 22.2053 26.6601 22.0213 26.6668C22.0147 26.6668 22.0067 26.6668 22 26.6668Z" fill="white"/>
<path d="M12.6667 28H3.33333C1.496 28 0 26.5053 0 24.6667V7.33333C0 5.49467 1.496 4 3.33333 4H6C6.368 4 6.66667 4.29867 6.66667 4.66667C6.66667 5.03467 6.368 5.33333 6 5.33333H3.33333C2.23067 5.33333 1.33333 6.23067 1.33333 7.33333V24.6667C1.33333 25.7693 2.23067 26.6667 3.33333 26.6667H12.6667C13.0347 26.6667 13.3333 26.9653 13.3333 27.3333C13.3333 27.7013 13.0347 28 12.6667 28Z" fill="white"/>
<path d="M22 12C21.632 12 21.3333 11.7013 21.3333 11.3333V7.33333C21.3333 6.23067 20.436 5.33333 19.3333 5.33333H16.6667C16.2987 5.33333 16 5.03467 16 4.66667C16 4.29867 16.2987 4 16.6667 4H19.3333C21.1707 4 22.6667 5.49467 22.6667 7.33333V11.3333C22.6667 11.7013 22.368 12 22 12Z" fill="white"/>
<path d="M15.3333 8H7.33334C6.23068 8 5.33334 7.10267 5.33334 6V3.33333C5.33334 2.96533 5.63201 2.66667 6.00001 2.66667H8.06668C8.37734 1.14667 9.72268 0 11.3333 0C12.944 0 14.2893 1.14667 14.6 2.66667H16.6667C17.0347 2.66667 17.3333 2.96533 17.3333 3.33333V6C17.3333 7.10267 16.436 8 15.3333 8ZM6.66668 4V6C6.66668 6.36667 6.96534 6.66667 7.33334 6.66667H15.3333C15.7013 6.66667 16 6.36667 16 6V4H14C13.632 4 13.3333 3.70133 13.3333 3.33333C13.3333 2.23067 12.436 1.33333 11.3333 1.33333C10.2307 1.33333 9.33334 2.23067 9.33334 3.33333C9.33334 3.70133 9.03468 4 8.66668 4H6.66668Z" fill="white"/>
<path d="M18 11.9998H4.66667C4.29867 11.9998 4 11.7012 4 11.3332C4 10.9652 4.29867 10.6665 4.66667 10.6665H18C18.368 10.6665 18.6667 10.9652 18.6667 11.3332C18.6667 11.7012 18.368 11.9998 18 11.9998Z" fill="white"/>
<path d="M14 16H4.66667C4.29867 16 4 15.7013 4 15.3333C4 14.9653 4.29867 14.6666 4.66667 14.6666H14C14.368 14.6666 14.6667 14.9653 14.6667 15.3333C14.6667 15.7013 14.368 16 14 16Z" fill="white"/>
<path d="M11.3333 20H4.66667C4.29867 20 4 19.7013 4 19.3333C4 18.9653 4.29867 18.6666 4.66667 18.6666H11.3333C11.7013 18.6666 12 18.9653 12 19.3333C12 19.7013 11.7013 20 11.3333 20Z" fill="white"/>
</g>
<defs>
<clipPath id="clip0">
<rect width="32" height="32" fill="white"/>
</clipPath>
</defs>
</svg>
