<svg width="32" height="32" viewBox="0 0 32 32" fill="none" xmlns="http://www.w3.org/2000/svg">
<path d="M26.6667 0H7.46666C6.16212 0 5.07786 0.942933 4.84906 2.1824C3.60959 2.4112 2.66666 3.49547 2.66666 4.8V29.3333C2.66666 30.8037 3.86292 32 5.33332 32H24.5333C25.8379 32 26.9221 31.0571 27.1509 29.8176C28.3904 29.5888 29.3333 28.5045 29.3333 27.2V2.66667C29.3333 1.19627 28.1371 0 26.6667 0ZM26.1333 29.3333C26.1333 30.2155 25.4155 30.9333 24.5333 30.9333H5.33332C4.45119 30.9333 3.73332 30.2155 3.73332 29.3333V4.8C3.73332 3.91787 4.45119 3.2 5.33332 3.2H21.3333V7.46667C21.3333 7.7616 21.5723 8 21.8667 8H26.1333V29.3333ZM22.4 6.93333V3.95413L25.3792 6.93333H22.4ZM28.2667 27.2C28.2667 27.8944 27.8192 28.4811 27.2 28.7019V7.46667C27.2 7.31893 27.1403 7.1856 27.0432 7.08907L22.2443 2.29013C22.1477 2.19307 22.0144 2.13333 21.8667 2.13333H5.96479C6.18559 1.51413 6.77226 1.06667 7.46666 1.06667H26.6667C27.5488 1.06667 28.2667 1.78453 28.2667 2.66667V27.2Z" fill="white"/>
<path d="M14.9333 8C10.816 8 7.46667 11.3493 7.46667 15.4667C7.46667 19.584 10.816 22.9333 14.9333 22.9333C19.0507 22.9333 22.4 19.584 22.4 15.4667C22.4 11.3493 19.0507 8 14.9333 8ZM14.9333 21.8667C11.4043 21.8667 8.53334 18.9957 8.53334 15.4667C8.53334 11.9376 11.4043 9.06667 14.9333 9.06667C18.4624 9.06667 21.3333 11.9376 21.3333 15.4667C21.3333 18.9957 18.4624 21.8667 14.9333 21.8667Z" fill="white"/>
<path d="M16.6244 11.9697L12.3576 18.3702L13.2452 18.962L17.512 12.5614L16.6244 11.9697Z" fill="white"/>
<path d="M17.6 15.4667C16.7179 15.4667 16 16.1845 16 17.0667C16 17.9488 16.7179 18.6667 17.6 18.6667C18.4821 18.6667 19.2 17.9488 19.2 17.0667C19.2 16.1845 18.4821 15.4667 17.6 15.4667ZM17.6 17.6C17.3061 17.6 17.0667 17.3611 17.0667 17.0667C17.0667 16.7723 17.3061 16.5333 17.6 16.5333C17.8939 16.5333 18.1333 16.7723 18.1333 17.0667C18.1333 17.3611 17.8939 17.6 17.6 17.6Z" fill="white"/>
<path d="M12.2667 12.2667C11.3845 12.2667 10.6667 12.9846 10.6667 13.8667C10.6667 14.7489 11.3845 15.4667 12.2667 15.4667C13.1488 15.4667 13.8667 14.7489 13.8667 13.8667C13.8667 12.9846 13.1488 12.2667 12.2667 12.2667ZM12.2667 14.4001C11.9728 14.4001 11.7333 14.1611 11.7333 13.8667C11.7333 13.5723 11.9728 13.3334 12.2667 13.3334C12.5605 13.3334 12.8 13.5723 12.8 13.8667C12.8 14.1611 12.5605 14.4001 12.2667 14.4001Z" fill="white"/>
<path d="M17.7563 23.6229L14.9333 26.4459L13.7104 25.2229L12.9563 25.9771L14.5563 27.5771C14.6603 27.6811 14.7968 27.7333 14.9333 27.7333C15.0699 27.7333 15.2064 27.6811 15.3104 27.5771L18.5104 24.3771L17.7563 23.6229Z" fill="white"/>
</svg>
