<svg width="13" height="18" viewBox="0 0 13 18" fill="none" xmlns="http://www.w3.org/2000/svg">
<path d="M3.58223 4.25575C4.75904 4.25575 5.7138 3.30098 5.7138 2.12417C5.7138 0.947367 4.75904 0 3.58223 0C2.40542 0 1.45065 0.954768 1.45065 2.12417C1.45065 3.29358 2.41282 4.25575 3.58223 4.25575ZM3.58223 0.74013C4.34456 0.74013 4.96627 1.36184 4.96627 2.12417C4.96627 2.88651 4.34456 3.50822 3.58223 3.50822C2.81989 3.50822 2.19818 2.88651 2.19818 2.12417C2.19818 1.36184 2.81989 0.74013 3.58223 0.74013Z" fill="white"/>
<path d="M6.14309 7.12008C5.93585 7.10528 5.75822 7.26071 5.74342 7.46794L5.41776 12.2344C5.41776 12.2492 5.41036 12.264 5.41036 12.2714L5.1069 16.9046C5.0921 17.1044 4.92927 17.2525 4.73684 17.2525H2.43503C2.2352 17.2525 2.07237 17.097 2.06497 16.9046L1.76151 12.2714C1.75411 12.116 1.64309 11.9827 1.49506 11.9383C1.06579 11.8051 1.06579 11.8051 1.02878 11.3314L0.754934 6.41696V6.37995C1.16201 6.26153 1.84293 6.03949 2.18339 5.93587L3.33059 7.00906C3.47121 7.14229 3.70065 7.14229 3.84128 7.00906L5.00328 5.92107L8.40789 6.69081C8.4597 6.70561 8.51151 6.70561 8.56331 6.69081L11.7755 6.03209C11.9753 5.98768 12.1085 5.79525 12.0641 5.59541C12.0197 5.39558 11.8273 5.26236 11.6275 5.30676L8.4967 5.95068L4.97368 5.15134C4.85526 5.12173 4.72944 5.15874 4.63322 5.24015L3.58223 6.22453L2.53125 5.24015C2.43503 5.14394 2.29441 5.11433 2.16118 5.15874C2.16118 5.15874 1.07319 5.5066 0.518092 5.66943C0.185033 5.77305 0 6.02469 0 6.36515C0 6.39476 0 6.44656 0 6.45397L0.273848 11.3018L0.28125 11.3832C0.333059 12.1234 0.458881 12.3602 1.02878 12.5674L1.31743 16.949C1.35444 17.5337 1.85033 18 2.43503 18H4.73684C5.32154 18 5.81743 17.5411 5.85443 16.949L6.15789 12.3528C6.15789 12.338 6.15789 12.3306 6.16529 12.3158L6.49835 7.51235C6.50575 7.31252 6.35032 7.13488 6.14309 7.12008Z" fill="white"/>
</svg>
