<svg width="42" height="45" viewBox="0 0 42 45" fill="none" xmlns="http://www.w3.org/2000/svg">
<path d="M33.3429 30.1418L28.7911 34.453L26.9222 32.5102C26.5707 32.1401 25.9786 32.1216 25.6085 32.4917C25.2384 32.8432 25.2199 33.4353 25.59 33.8054L28.088 36.4143C28.273 36.5994 28.5135 36.6919 28.7541 36.6919C28.9761 36.6919 29.2167 36.5994 29.4017 36.4328L34.6196 31.474C34.9897 31.1224 35.0082 30.5303 34.6566 30.1603C34.3051 29.7902 33.713 29.7717 33.3429 30.1418Z" fill="white"/>
<path d="M41.6881 31.3815L41.5585 30.6044H40.3188C40.0783 30.6044 39.8377 30.6044 39.5972 30.6044C39.3937 29.8642 39.0976 29.1611 38.709 28.495C38.9866 28.2174 39.2456 27.9399 39.5232 27.6808L40.0968 27.1257L39.6342 26.4781C38.8756 25.4419 37.9689 24.5353 36.9327 23.7766L36.2851 23.3141L35.73 23.8877C35.5635 24.0542 35.3785 24.2392 35.2119 24.4058C35.1194 24.4983 35.0084 24.6093 34.9159 24.7018C34.2498 24.3317 33.5281 24.0357 32.788 23.8321V23.2585C32.788 23.0735 32.788 22.8885 32.788 22.6664V21.8708L32.0109 21.7413C30.7896 21.5377 29.4944 21.5377 28.2732 21.7413L27.459 21.8893L27.4961 22.7219C27.4961 22.907 27.4961 23.092 27.4961 23.277V23.5361V23.8321C26.7559 24.0357 26.0528 24.3317 25.3682 24.7018C25.2572 24.5908 25.1646 24.4983 25.0536 24.3872C24.8871 24.2207 24.7021 24.0542 24.5355 23.8692L23.9804 23.2956L23.3328 23.7581C22.2781 24.4983 21.3715 25.4049 20.6313 26.4596L20.1688 27.1072L20.7424 27.6623C21.0199 27.9399 21.2975 28.1989 21.5565 28.4765C21.1864 29.1426 20.8904 29.8642 20.6683 30.5858C20.4278 30.5858 20.1873 30.5858 19.9467 30.5858H18.707L18.5775 31.363C18.4665 31.9921 18.4294 32.6397 18.4294 33.2688C18.4294 33.8979 18.485 34.5456 18.5775 35.1747L18.6885 35.8778L19.5211 35.9518H19.5766C19.7432 35.9518 19.9282 35.9518 20.0947 35.9518C20.2798 35.9518 20.4833 35.9518 20.6683 35.9518C20.8719 36.7104 21.1864 37.4136 21.5565 38.0982C21.427 38.2277 21.2975 38.3572 21.1864 38.4683L20.8534 38.8013C20.7979 38.8568 20.7424 38.9123 20.7053 38.9493L20.1873 39.5044L20.6313 40.115C21.3715 41.1512 22.2781 42.0394 23.3143 42.7795L23.9064 43.2051L24.4615 42.724L24.554 42.6315C24.7576 42.4095 24.9611 42.2059 25.1831 42.0024C25.2387 41.9469 25.2942 41.8914 25.3497 41.8359C26.0343 42.2059 26.7374 42.502 27.4775 42.7055C27.4775 42.835 27.4775 42.9646 27.4775 43.1126C27.4775 43.3531 27.4775 43.5937 27.4775 43.8527L27.5331 44.6854L28.2732 44.7964C28.8838 44.8889 29.5129 44.9444 30.142 44.9444C30.7711 44.9444 31.4002 44.8889 32.0109 44.7964L32.8065 44.6299L32.788 43.8157C32.788 43.5752 32.788 43.3531 32.788 43.1126C32.788 42.9831 32.788 42.835 32.788 42.7055C33.5281 42.502 34.2498 42.2059 34.9159 41.8359C34.9714 41.8914 35.0269 41.9469 35.0639 41.9839C35.2674 42.1874 35.4895 42.4095 35.693 42.613L36.3221 43.2051L36.9327 42.761C37.9689 42.0209 38.8756 41.1142 39.6157 40.0965L40.0598 39.4674L39.5417 38.9123C39.5047 38.8753 39.4492 38.8198 39.3937 38.7643L39.0606 38.4312C38.9311 38.3017 38.8201 38.1907 38.6905 38.0612C39.0791 37.3766 39.3752 36.6549 39.5787 35.9148C39.6342 35.9148 39.6897 35.9148 39.7452 35.9148C40.0413 35.9148 40.3558 35.9148 40.6519 35.9148L41.5585 35.8408L41.6696 35.1377C41.7806 34.5085 41.8176 33.8794 41.8176 33.2318C41.8361 32.6582 41.7991 32.0106 41.6881 31.3815ZM39.9488 34.1015C39.8933 34.1015 39.8192 34.1015 39.7637 34.1015C39.4862 34.1015 39.2086 34.1015 38.9311 34.1015L38.0799 34.194L37.9504 34.8601C37.7469 35.8963 37.3398 36.8585 36.7477 37.7281L36.3961 38.2647L36.7662 38.7828C36.8217 38.8568 36.8957 38.9493 36.9697 39.0234C37.1918 39.2454 37.4138 39.4674 37.6359 39.6895C37.2843 40.0965 36.8957 40.4851 36.4887 40.8367C36.4516 40.7997 36.4146 40.7627 36.3961 40.7442C36.2111 40.5591 36.0076 40.3556 35.8225 40.1706C35.7485 40.0965 35.656 40.0225 35.5635 39.967L35.0454 39.634L34.5273 39.967C33.6576 40.5406 32.6955 40.9477 31.6593 41.1512L31.0857 41.2623L30.9377 41.8359C30.9007 41.9654 30.9007 42.0949 30.9007 42.2429C30.9007 42.539 30.9007 42.8535 30.9007 43.1496C30.3826 43.1866 29.846 43.1866 29.3279 43.1496C29.3279 42.8535 29.3279 42.539 29.3279 42.2429C29.3279 42.0949 29.3094 41.9654 29.2909 41.8359L29.1428 41.2623L28.5692 41.1512C27.5516 40.9477 26.5894 40.5591 25.7012 39.967L25.1831 39.634L24.6651 39.967C24.5725 40.0225 24.4985 40.0965 24.4245 40.1706C24.2395 40.3741 24.0359 40.5591 23.8509 40.7627C23.8139 40.7997 23.7954 40.8182 23.7584 40.8552C23.3513 40.5036 22.9627 40.1336 22.6112 39.708C22.8332 39.4859 23.0553 39.2639 23.2773 39.0419C23.3698 38.9678 23.4253 38.8753 23.4808 38.8013L23.8324 38.2832L23.4808 37.7651C22.8887 36.8955 22.4817 35.9148 22.2781 34.8971L22.1486 34.231L21.353 34.1385H21.2975C21.1494 34.1385 21.0014 34.1385 20.8534 34.1385C20.6498 34.1385 20.4648 34.1385 20.2798 34.1385C20.2613 33.8609 20.2428 33.6019 20.2428 33.3243C20.2428 33.0468 20.2613 32.7692 20.2798 32.4917C20.5758 32.4917 20.8719 32.4917 21.1494 32.5102C21.2975 32.5102 21.4455 32.4917 21.5935 32.4732L22.1486 32.3252L22.2596 31.7516C22.4632 30.7339 22.8517 29.7902 23.4438 28.9206L23.7769 28.421L23.4623 27.9029C23.3698 27.7548 23.2588 27.6253 23.1478 27.5328L22.9072 27.2923C22.7962 27.1812 22.6852 27.0702 22.5742 26.9592C22.9257 26.5336 23.3143 26.1451 23.7399 25.7935C23.9434 25.997 24.1655 26.2006 24.369 26.4226C24.517 26.5706 24.6651 26.6817 24.8131 26.7557L25.2757 26.9592L25.7012 26.6817C26.5709 26.1081 27.5331 25.7195 28.5507 25.5159L29.1243 25.4049L29.2724 24.8498C29.3094 24.7203 29.3094 24.5908 29.3094 24.4613C29.3094 24.2577 29.3094 24.0542 29.3094 23.8507V23.5361C29.8275 23.4991 30.3641 23.4991 30.8822 23.5361V23.8507C30.8822 24.0542 30.8822 24.2577 30.8822 24.4613C30.8822 24.6093 30.9007 24.7203 30.9192 24.8498L31.0672 25.4049L31.6408 25.5159C32.6585 25.7195 33.6206 26.1081 34.4903 26.6817L34.9159 26.9592L35.3785 26.7557C35.582 26.6632 35.73 26.5336 35.8225 26.4411C36.0261 26.2376 36.2296 26.0155 36.4516 25.812C36.8772 26.1636 37.2658 26.5521 37.6173 26.9777C37.4878 27.1072 37.3768 27.2183 37.2473 27.3478L37.0437 27.5513C36.9142 27.6808 36.8217 27.7919 36.7292 27.9214L36.3961 28.4395L36.7292 28.9391C37.3028 29.8087 37.7099 30.7524 37.9134 31.7701L38.0244 32.3437L38.598 32.4917C38.7275 32.5287 38.8756 32.5472 39.0421 32.5287C39.3382 32.5102 39.6342 32.5102 39.9118 32.5102C39.9303 32.7877 39.9488 33.0653 39.9488 33.3428C39.9858 33.5649 39.9673 33.8424 39.9488 34.1015Z" fill="white"/>
<path d="M8.95566 10.6394C11.8977 10.6394 14.2846 8.25247 14.2846 5.31045C14.2846 2.36842 11.8977 0 8.95566 0C6.01363 0 3.62671 2.38693 3.62671 5.31045C3.62671 8.23397 6.03214 10.6394 8.95566 10.6394ZM8.95566 1.85033C10.8615 1.85033 12.4158 3.40461 12.4158 5.31045C12.4158 7.21629 10.8615 8.77056 8.95566 8.77056C7.04982 8.77056 5.49554 7.21629 5.49554 5.31045C5.49554 3.40461 7.04982 1.85033 8.95566 1.85033Z" fill="white"/>
<path d="M15.3577 17.8C14.8397 17.763 14.3956 18.1516 14.3586 18.6697L13.5444 30.5858C13.5444 30.6228 13.5259 30.6598 13.5259 30.6783L12.7673 42.2614C12.7303 42.761 12.3232 43.131 11.8421 43.131H6.08759C5.588 43.131 5.18093 42.7425 5.16242 42.2614L4.40379 30.6783C4.38528 30.2898 4.10773 29.9567 3.73767 29.8457C2.66448 29.5126 2.66448 29.5126 2.57196 28.3284L1.88734 16.0422V15.9497C2.90502 15.6537 4.60732 15.0986 5.45848 14.8395L8.32649 17.5225C8.67805 17.8555 9.25166 17.8555 9.60322 17.5225L12.5082 14.8025L21.0198 16.7268C21.1493 16.7638 21.2788 16.7638 21.4083 16.7268L29.4388 15.08C29.9384 14.969 30.2714 14.4879 30.1604 13.9884C30.0494 13.4888 29.5683 13.1557 29.0687 13.2667L21.2418 14.8765L12.4342 12.8782C12.1382 12.8041 11.8236 12.8967 11.5831 13.1002L8.9556 15.5611L6.32813 13.1002C6.08759 12.8597 5.73603 12.7856 5.40297 12.8967C5.40297 12.8967 2.68298 13.7663 1.29523 14.1734C0.462583 14.4324 0 15.0615 0 15.9127C0 15.9867 0 16.1162 0 16.1347L0.684623 28.2544L0.703126 28.4579C0.832649 30.3083 1.14721 30.9004 2.57196 31.4185L3.29359 42.3724C3.38611 43.8342 4.62583 44.9999 6.08759 44.9999H11.8421C13.3039 44.9999 14.5436 43.8527 14.6361 42.3724L15.3948 30.8819C15.3948 30.8449 15.3948 30.8263 15.4133 30.7893L16.2459 18.7807C16.2644 18.2811 15.8758 17.837 15.3577 17.8Z" fill="white"/>
</svg>
