<svg width="30" height="32" viewBox="0 0 30 32" fill="none" xmlns="http://www.w3.org/2000/svg">
<path d="M28.875 20.2876L28.55 19.5751L25.225 22.1876L25.325 22.5751C25.4125 22.8876 25.45 23.2251 25.45 23.5626C25.45 24.3501 25.2125 25.1126 24.75 25.7626L24.525 26.0876L26.7375 29.6876L27.2875 29.1376C28.7625 27.6376 29.575 25.6501 29.575 23.5626C29.575 22.4501 29.3375 21.3126 28.875 20.2876ZM26.9375 27.7001L25.975 26.1251C26.4375 25.3501 26.675 24.4751 26.675 23.5626C26.675 23.2626 26.65 22.9626 26.6 22.6626L28.05 21.5251C28.2625 22.1876 28.3625 22.8751 28.3625 23.5626C28.3625 25.0751 27.8625 26.5251 26.9375 27.7001Z" fill="white"/>
<path d="M22.1625 27.3626C21.9875 27.3876 21.8 27.4001 21.6125 27.4001C19.5 27.4001 17.775 25.6751 17.775 23.5626C17.775 23.4251 17.7875 23.2751 17.8 23.1376L17.85 22.7376L14.175 20.6376L13.9625 21.3876C13.7625 22.0876 13.6625 22.8251 13.6625 23.5626C13.6625 27.9501 17.225 31.5126 21.6125 31.5126C22.4375 31.5126 23.25 31.3876 24.025 31.1376L24.7625 30.9001L22.55 27.2876L22.1625 27.3626ZM21.625 30.3001C17.9125 30.3001 14.8875 27.2751 14.8875 23.5626C14.8875 23.2001 14.9125 22.8501 14.975 22.4876L16.575 23.4001C16.575 23.4501 16.575 23.5001 16.575 23.5501C16.575 26.3376 18.8375 28.6001 21.625 28.6001C21.725 28.6001 21.8375 28.6001 21.9375 28.5876L22.9 30.1626C22.4875 30.2626 22.05 30.3001 21.625 30.3001Z" fill="white"/>
<path d="M15.3375 18.65L19 20.75L19.325 20.5125C20.5 19.625 22.1625 19.5125 23.45 20.2125L23.8 20.4L27.125 17.7875L26.5125 17.3125C25.125 16.225 23.3875 15.6375 21.625 15.6375C19.425 15.6375 17.3875 16.5125 15.875 18.1125L15.3375 18.65ZM21.625 16.8375C22.875 16.8375 24.0625 17.175 25.1125 17.8125L23.6625 18.95C22.15 18.2875 20.3375 18.425 18.9375 19.3L17.3375 18.3875C18.525 17.375 20.025 16.8375 21.625 16.8375Z" fill="white"/>
<path d="M6.66251 7.87504C8.70001 7.87504 10.3625 6.21254 10.3625 4.17504C10.3625 2.13754 8.70001 0.475037 6.66251 0.475037C4.62501 0.475037 2.97501 2.13754 2.97501 4.17504C2.97501 6.21254 4.62501 7.87504 6.66251 7.87504ZM6.66251 1.70004C8.02501 1.70004 9.13751 2.81254 9.13751 4.17504C9.13751 5.53754 8.02501 6.65004 6.66251 6.65004C5.30001 6.65004 4.18751 5.53754 4.18751 4.17504C4.18751 2.81254 5.30001 1.70004 6.66251 1.70004Z" fill="white"/>
<path d="M11.15 12.5C10.8125 12.475 10.525 12.725 10.5 13.0625L9.925 21.425C9.925 21.45 9.9125 21.475 9.9125 21.5L9.375 29.6375C9.35 30 9.05 30.3 8.675 30.3H4.6375C4.2625 30.3 3.9625 30.0125 3.9375 29.6375L3.4 21.5C3.3875 21.25 3.2125 21.025 2.975 20.9625C2.1875 20.725 2.1875 20.725 2.125 19.8625L1.6375 11.225V11.125H1.65C2.5875 10.8375 3.525 10.55 4.4875 10.2375C4.9 10.725 5.325 11.2125 5.775 11.7125L6.2 12.1875C6.3125 12.325 6.4875 12.4 6.6625 12.4C6.8375 12.4 7 12.325 7.125 12.1875L7.65 11.6C8.05 11.1375 8.4375 10.7 8.825 10.25C8.85 10.25 8.8625 10.25 8.8875 10.25L15.1625 11.6625C15.25 11.6875 15.3375 11.6875 15.425 11.6625L21.0625 10.5125C21.3875 10.45 21.6 10.125 21.5375 9.78752C21.475 9.46252 21.15 9.25002 20.8125 9.31252L15.3 10.4375L9.1 9.03752C9.075 9.03752 9.05 9.02502 9.025 9.02502C8.9125 9.01252 8.3 8.98752 7.95 9.40002C7.5625 9.86252 7.1625 10.3125 6.75 10.7875L6.6875 10.8625C6.25 10.3625 5.825 9.88752 5.4125 9.40002C5.0875 9.01252 4.6625 8.90002 4.2 9.05002C3.2375 9.36252 2.2875 9.66252 1.3125 9.95002C0.75 10.125 0.4375 10.55 0.4375 11.125C0.4375 11.175 0.4375 11.275 0.4375 11.275L0.9125 19.7875L0.925 19.9375C1.0125 21.225 1.225 21.625 2.225 21.9875L2.7375 29.7125C2.8 30.725 3.65 31.5125 4.65 31.5125H8.7C9.7125 31.5125 10.55 30.725 10.6125 29.7125L11.1375 21.6375C11.1375 21.6125 11.15 21.6 11.15 21.575L11.725 13.1375C11.75 12.825 11.4875 12.525 11.15 12.5Z" fill="white"/>
</svg>
