<svg width="44" height="44" viewBox="0 0 44 44" fill="none" xmlns="http://www.w3.org/2000/svg">
<path d="M27.5859 30.2846C27.7922 28.7721 27.3797 27.2424 26.4688 26.108C25.7469 25.2314 24.6984 24.7158 23.5984 24.7158H23.5813C22.4813 24.7158 21.45 25.2143 20.7281 26.0736C19.0953 28.033 18.9234 30.6111 20.2984 32.7939C20.8313 33.6533 21.6906 34.2377 22.6875 34.4268C22.9281 34.4783 23.1688 34.4955 23.4094 34.4955C24.1484 34.4955 24.8703 34.2721 25.4891 33.8252C26.6234 33.0518 27.3797 31.7455 27.5859 30.2846ZM24.5094 32.4502C24.0797 32.7596 23.5469 32.8627 23.0313 32.7596C22.4984 32.6564 22.0516 32.3471 21.7594 31.883C20.7969 30.3533 20.9 28.5486 22.0516 27.1736C22.4469 26.6924 22.9969 26.4346 23.5813 26.4346C24.1656 26.4346 24.7328 26.7096 25.1281 27.208C25.7469 27.9814 26.0219 29.0127 25.8844 30.0611C25.7469 31.0408 25.2484 31.9174 24.5094 32.4502Z" fill="white"/>
<path d="M39.8578 34.5643C38.7234 33.3268 36.7812 33.069 35.3547 33.9455C34.1344 34.6846 33.3094 36.008 33.0859 37.5549C32.8453 39.1705 33.275 40.7346 34.2719 41.869C35.0453 42.7627 36.0594 43.2096 37.0734 43.2096C37.7781 43.2096 38.5 42.9862 39.1359 42.5393C40.3219 41.6971 41.0953 40.3393 41.25 38.8096C41.4047 37.2283 40.9062 35.6815 39.8578 34.5643ZM39.5312 38.6377C39.4281 39.6862 38.9125 40.5971 38.1391 41.1471C37.2969 41.7486 36.2828 41.5768 35.5609 40.7518C34.8906 39.9955 34.6156 38.9299 34.7875 37.8127C34.9422 36.7643 35.4922 35.8877 36.2656 35.4065C36.5578 35.2174 36.9016 35.1315 37.2453 35.1315C37.7609 35.1315 38.2422 35.3549 38.6203 35.7502C39.3078 36.4893 39.6516 37.5377 39.5312 38.6377Z" fill="white"/>
<path d="M36.1281 24.8359C35.7328 24.5781 35.2 24.6984 34.9422 25.0938L24.2516 41.9203C23.9937 42.3156 24.1141 42.8484 24.5094 43.1063C24.6469 43.1922 24.8187 43.2438 24.9734 43.2438C25.2484 43.2438 25.5406 43.1063 25.6953 42.8484L36.3859 26.0219C36.6437 25.6094 36.5234 25.0766 36.1281 24.8359Z" fill="white"/>
<path d="M11.1547 10.7767C13.9219 10.7767 16.1562 8.5251 16.1562 5.7751C16.1562 3.0251 13.9219 0.756348 11.1547 0.756348C8.3875 0.756348 6.15312 3.00791 6.15312 5.75791C6.15312 8.50791 8.3875 10.7767 11.1547 10.7767ZM11.1547 2.4751C12.9766 2.4751 14.4547 3.95322 14.4547 5.7751C14.4547 7.59697 12.9766 9.0751 11.1547 9.0751C9.33281 9.0751 7.85468 7.59697 7.85468 5.7751C7.85468 3.95322 9.35 2.4751 11.1547 2.4751Z" fill="white"/>
<path d="M17.2047 17.6001C16.7406 17.5658 16.3281 17.9267 16.2938 18.3908L15.5203 29.6486C15.5203 29.683 15.5031 29.7173 15.5031 29.7345L14.7812 40.6658C14.7469 41.147 14.3516 41.508 13.8875 41.508H8.43906C7.95781 41.508 7.5625 41.1298 7.52812 40.6658L6.82344 29.7345C6.80625 29.3736 6.56563 29.0814 6.22188 28.9783C5.19063 28.6689 5.19063 28.6689 5.10469 27.5173L4.45156 15.9158V15.8126C5.70625 15.4345 6.96094 15.0392 8.23281 14.6267C8.78281 15.2798 9.35 15.933 9.95156 16.6033L10.5188 17.2392C10.6734 17.4283 10.9141 17.5314 11.1547 17.5314C11.3953 17.5314 11.6359 17.4283 11.7906 17.2392L12.4781 16.4658C13.0281 15.847 13.5438 15.2455 14.0594 14.6439C14.0766 14.6439 14.0937 14.6439 14.1281 14.6439L22.55 16.5517C22.6703 16.5861 22.7906 16.5861 22.9109 16.5517L30.4906 15.0048C30.9547 14.9017 31.2469 14.4548 31.1609 13.9908C31.0578 13.5267 30.6109 13.2173 30.1469 13.3205L22.7562 14.833L14.4375 12.9251C14.4031 12.9251 14.3688 12.908 14.3172 12.908C14.1625 12.8908 13.3203 12.8564 12.8391 13.4236C12.3062 14.0595 11.7734 14.6611 11.2062 15.3142L11.1719 15.3658C10.5875 14.7126 10.0375 14.0767 9.4875 13.4408C9.04063 12.908 8.45625 12.7361 7.82031 12.9595C6.53125 13.372 5.24219 13.7845 3.95312 14.1798C3.17969 14.4205 2.75 15.0048 2.75 15.7955C2.75 15.8642 2.75 16.0017 2.75 16.0017L3.38594 27.4486L3.40312 27.6377C3.52344 29.3736 3.81562 29.9236 5.15625 30.422L5.84375 40.7861C5.92969 42.1611 7.08125 43.2439 8.45625 43.2439H13.9047C15.2797 43.2439 16.4312 42.1611 16.5172 40.7861L17.2219 29.9236C17.2219 29.8892 17.2219 29.872 17.2391 29.8377L18.0125 18.4939C18.0297 18.0298 17.6687 17.6173 17.2047 17.6001Z" fill="white"/>
</svg>
