<svg width="44" height="44" viewBox="0 0 44 44" fill="none" xmlns="http://www.w3.org/2000/svg">
<g clip-path="url(#clip0)">
<path d="M17.1525 24.339L1.83051 28.678V27.7288L17.2203 16.8136V14.5763L12.4746 17.9661V14.1017C12.4746 13.6271 12.0678 13.2203 11.5932 13.2203C11.1186 13.2203 10.7119 13.6271 10.7119 14.1017V19.2542L7.11864 21.6949V16.7458C7.11864 16.2712 6.71186 15.8644 6.23729 15.8644C5.76271 15.8644 5.35593 16.2712 5.35593 16.7458V22.9831L0.40678 26.5085C0.135593 26.7119 0 26.9831 0 27.2542V29.8983C0 30.3729 0.40678 30.7797 0.881356 30.7797C0.949153 30.7797 1.01695 30.7797 1.15254 30.7119L17.1525 26.1695V24.339Z" fill="white"/>
<path d="M18.2373 39.8644L12.4068 41.8305V38.2373L17.8305 34.3051L17.6271 32.2034L10.9831 37.0169C10.7797 37.1525 10.5763 37.4915 10.5763 37.7627V43.1186C10.5763 43.5932 10.9831 44 11.4576 44C11.5254 44 11.661 44 11.7288 43.9322L18.3051 41.6949L18.2373 39.8644Z" fill="white"/>
<path d="M43.5932 26.5085L38.6441 22.9831V16.7458C38.6441 16.2712 38.2373 15.8644 37.7627 15.8644C37.2881 15.8644 36.8814 16.2712 36.8814 16.7458V21.6949L33.4237 19.2542V14.1017C33.4237 13.6271 33.0169 13.2203 32.5424 13.2203C32.0678 13.2203 31.661 13.6271 31.661 14.1017V17.9661L26.9153 14.5763V16.8136L42.3051 27.7288V28.678L26.9153 24.339V26.2373L42.9153 30.7797C42.983 30.7797 43.0508 30.8475 43.1864 30.8475C43.661 30.8475 44.0678 30.4407 44.0678 29.9661V27.322C44 26.9831 43.8644 26.7119 43.5932 26.5085Z" fill="white"/>
<path d="M33.017 37.0169L26.3729 32.2034L26.2373 34.3051L31.661 38.2373V41.8305L25.7627 39.8644L25.6271 41.6949L32.2034 43.9322C32.2712 43.9322 32.4068 44 32.4746 44C32.9492 44 33.3559 43.5932 33.3559 43.1186V37.7627C33.4237 37.4915 33.2881 37.2203 33.017 37.0169Z" fill="white"/>
<path d="M26.8475 16.8136V14.5763V4.81356C26.8475 2.16949 24.678 -9.53674e-07 22.0339 -9.53674e-07C19.3898 -9.53674e-07 17.2203 2.16949 17.2203 4.81356V14.5763V16.8136V24.339V26.2373L17.6949 32.2712L17.8305 34.3729L18.2373 39.9322L18.3729 41.7627L18.5085 43.2542C18.5763 43.7288 18.9153 44.0678 19.3898 44.0678H24.6102C25.0847 44.0678 25.4915 43.7288 25.4915 43.2542L25.6271 41.7627L25.7627 39.9322L26.1695 34.3729L26.3051 32.2712L26.7797 26.2373V24.339V16.8136H26.8475ZM25.0169 25.8983L23.7966 42.1695H20.2034C20.2034 42.1695 18.983 26.3051 18.983 25.8305V4.81356C18.983 3.11864 20.339 1.76271 22.0339 1.76271C23.7288 1.76271 25.0847 3.11864 25.0847 4.81356L25.0169 25.8983Z" fill="white"/>
</g>
<defs>
<clipPath id="clip0">
<rect width="44" height="44" fill="white"/>
</clipPath>
</defs>
</svg>
