<!-- Generator: Adobe Illustrator 22.1.0, SVG Export Plug-In  -->
<svg version="1.1"
	 xmlns="http://www.w3.org/2000/svg" xmlns:xlink="http://www.w3.org/1999/xlink" xmlns:a="http://ns.adobe.com/AdobeSVGViewerExtensions/3.0/"
	 x="0px" y="0px" width="51px" height="66.4px" viewBox="0 0 51 66.4" style="enable-background:new 0 0 51 66.4;"
	 xml:space="preserve">
<style type="text/css">
	*{fill:#fff;}
</style>
<defs>
</defs>
<g>
	<path class="st0" d="M14.5,48.8c-0.7,0-1.3-0.6-1.3-1.3s0.6-1.3,1.3-1.3h15.4c0.7,0,1.3,0.6,1.3,1.3s-0.6,1.3-1.3,1.3H14.5z"/>
	<path class="st0" d="M34.3,48.8c-0.7,0-1.3-0.6-1.3-1.3s0.6-1.3,1.3-1.3h2.2c0.7,0,1.3,0.6,1.3,1.3s-0.6,1.3-1.3,1.3H34.3z"/>
	<path class="st0" d="M21.1,53.2c-0.7,0-1.3-0.6-1.3-1.3c0-0.7,0.6-1.3,1.3-1.3h15.4c0.7,0,1.3,0.6,1.3,1.3c0,0.7-0.6,1.3-1.3,1.3
		H21.1z"/>
	<path class="st0" d="M14.5,53.2c-0.7,0-1.3-0.6-1.3-1.3c0-0.7,0.6-1.3,1.3-1.3h2.2c0.7,0,1.3,0.6,1.3,1.3c0,0.7-0.6,1.3-1.3,1.3
		H14.5z"/>
	<path class="st0" d="M9,58.7c-0.7,0-1.3-0.6-1.3-1.3V42c0-0.7,0.6-1.3,1.3-1.3h33c0.7,0,1.3,0.6,1.3,1.3v15.4
		c0,0.7-0.6,1.3-1.3,1.3H9z M40.7,56.1V43.3H10.3v12.8H40.7z"/>
	<path d="M1.3,66.4c-0.7,0-1.3-0.6-1.3-1.3V1.3c0-0.1,0-0.2,0-0.3c0-0.1,0-0.2,0.1-0.2c0-0.1,0.1-0.2,0.1-0.2c0-0.1,0.1-0.1,0.1-0.2
		c0.1-0.1,0.1-0.1,0.2-0.2c0.1-0.1,0.1-0.1,0.2-0.1C0.9,0.1,1,0,1,0c0.1,0,0.2,0,0.3,0h48.4c0.1,0,0.2,0,0.2,0c0.1,0,0.2,0,0.3,0.1
		c0.1,0,0.2,0.1,0.2,0.1c0.1,0.1,0.2,0.1,0.2,0.2c0.1,0.1,0.1,0.1,0.2,0.2s0.1,0.1,0.1,0.2C51,0.9,51,1,51,1c0,0.1,0,0.2,0,0.3
		l0,63.8c0,0.7-0.6,1.3-1.3,1.3H1.3z M48.4,63.8V7.9l-5.2,12.6C43,21,42.6,21.3,42,21.3H31.2v8.6c0,3.1-2.6,5.7-5.7,5.7
		s-5.7-2.6-5.7-5.7v-8.6H9c-0.5,0-1-0.3-1.2-0.8L2.6,7.9v55.9H48.4z M25.5,26.8c-1.7,0-3.1,1.4-3.1,3.1c0,1.7,1.4,3.1,3.1,3.1
		s3.1-1.4,3.1-3.1C28.6,28.2,27.2,26.8,25.5,26.8z M22.4,25.1c0.1-0.1,0.4-0.2,0.4-0.2c0.1-0.1,0.3-0.1,0.4-0.2l0.1,0
		c0.2-0.1,0.3-0.1,0.4-0.1l0.2,0c0.1,0,0.2-0.1,0.3-0.1l0.2,0c0.1,0,0.2,0,0.4-0.1l0.2,0c0.2,0,0.4,0,0.5,0c0.2,0,0.4,0,0.5,0l0.1,0
		c0.2,0,0.3,0,0.4,0.1l0.2,0c0.1,0,0.2,0.1,0.3,0.1l0.2,0.1c0.1,0,0.2,0.1,0.4,0.1l0.1,0c0.2,0.1,0.3,0.1,0.5,0.2
		c0,0,0.3,0.2,0.4,0.2V14.9c-0.1,0.1-0.3,0.2-0.3,0.2l-0.1,0.1c-0.1,0.1-0.3,0.2-0.5,0.2l-0.1,0c-0.1,0-0.2,0.1-0.4,0.1l-0.2,0
		c-0.1,0-0.2,0.1-0.3,0.1l-0.2,0c-0.1,0-0.2,0-0.4,0.1l-0.2,0c-0.2,0-0.4,0-0.5,0s-0.4,0-0.5,0l-0.1,0c-0.2,0-0.3,0-0.4-0.1l-0.2,0
		c-0.1,0-0.2-0.1-0.3-0.1l-0.2-0.1c-0.1,0-0.2-0.1-0.4-0.1l-0.1,0c-0.2-0.1-0.3-0.1-0.5-0.2l-0.1-0.1c-0.1-0.1-0.2-0.1-0.3-0.2V25.1
		z M41.1,18.7l6.6-16.1H3.3l6.6,16.1h9.9v-8.6c0-3.1,2.6-5.7,5.7-5.7s5.7,2.6,5.7,5.7v8.6H41.1z M25.5,7c-1.7,0-3.1,1.4-3.1,3.1
		c0,1.7,1.4,3.1,3.1,3.1s3.1-1.4,3.1-3.1C28.6,8.4,27.2,7,25.5,7z"/>
	<path d="M25.5,22.4c-0.7,0-1.3-0.6-1.3-1.3v-2.2c0-0.7,0.6-1.3,1.3-1.3s1.3,0.6,1.3,1.3v2.2C26.8,21.8,26.2,22.4,25.5,22.4z"/>
</g>
</svg>
