<svg width="32" height="31" viewBox="0 0 32 31" fill="none" xmlns="http://www.w3.org/2000/svg">
<path d="M6.02936 14.4208C6.18596 14.4208 6.34257 14.3555 6.47308 14.2381C7.81728 12.9069 9.57911 12.2936 11.9935 12.2936C12.0065 12.2936 12.0326 12.2936 12.0457 12.2936C12.5155 12.2936 13.0114 12.3197 13.5073 12.3327C15.7259 12.4241 18.2316 12.5154 20.1762 11.0407L21.0114 11.8368C21.1289 11.9542 21.2855 12.0064 21.4421 12.0064C21.5073 12.0064 21.5595 11.9934 21.6248 11.9803C21.8336 11.9151 22.0033 11.7454 22.0555 11.5236L22.9037 7.90856C22.9559 7.6867 22.8907 7.46485 22.721 7.30824C22.5514 7.15163 22.3295 7.09943 22.1077 7.16468L18.5579 8.23483C18.3491 8.30008 18.1794 8.46974 18.1272 8.6916C18.075 8.91346 18.1403 9.13532 18.3099 9.29192L19.2365 10.1663C17.6705 11.2365 15.5824 11.1582 13.5595 11.0799C13.0506 11.0538 12.5416 11.0407 12.0587 11.0407C12.0457 11.0407 12.0196 11.0407 12.0065 11.0407C9.2398 11.0407 7.20391 11.7715 5.61174 13.3507C5.36378 13.5986 5.36378 13.9901 5.59869 14.2381C5.70309 14.3555 5.87275 14.4208 6.02936 14.4208ZM21.429 8.67855L21.0767 10.1794L19.9543 9.12227L21.429 8.67855Z" fill="white"/>
<path d="M11.5759 7.88246C11.6542 7.88246 11.7194 7.8694 11.7977 7.8433L12.4633 7.59534L12.7113 8.26092C12.8026 8.50888 13.0506 8.66549 13.2985 8.66549C13.3768 8.66549 13.4421 8.65244 13.5204 8.62634C13.8467 8.50888 14.0163 8.14347 13.8858 7.8172L13.6379 7.15162L14.3034 6.90366C14.6297 6.78621 14.7994 6.42079 14.6688 6.09453C14.5514 5.76826 14.186 5.61166 13.8597 5.72911L13.1941 5.97707L12.9462 5.31149C12.8287 4.98523 12.4633 4.82862 12.137 4.94608C11.8108 5.06353 11.6411 5.42895 11.7716 5.75521L12.0196 6.42079L11.354 6.66875C11.0277 6.78621 10.8581 7.15162 10.9886 7.47789C11.0799 7.72585 11.3149 7.88246 11.5759 7.88246Z" fill="white"/>
<path d="M13.7292 14.4861C12.7243 14.0294 11.5237 14.4731 11.0669 15.478C10.845 15.9609 10.832 16.509 11.0147 17.018C11.1974 17.5269 11.5759 17.9184 12.0587 18.1403C12.3197 18.2578 12.6069 18.323 12.894 18.323C13.1289 18.323 13.3768 18.2839 13.5987 18.1925C14.1077 18.0098 14.4992 17.6313 14.7211 17.1485C14.9429 16.6656 14.956 16.1175 14.7733 15.6085C14.5905 15.1126 14.2251 14.708 13.7292 14.4861ZM13.5857 16.6264C13.5073 16.8091 13.3507 16.9527 13.168 17.018C12.9853 17.0832 12.7765 17.0832 12.5938 16.9919C12.4111 16.9135 12.2675 16.7569 12.2023 16.5742C12.137 16.3915 12.137 16.1827 12.2284 16C12.3589 15.7259 12.633 15.5563 12.9201 15.5563C13.0245 15.5563 13.1289 15.5824 13.2333 15.6215C13.416 15.6998 13.5596 15.8565 13.6248 16.0392C13.677 16.248 13.664 16.4437 13.5857 16.6264Z" fill="white"/>
<path d="M21.938 5.99015C22.0685 6.14676 22.2382 6.22506 22.4339 6.22506C22.5644 6.22506 22.708 6.18591 22.8255 6.09456L26.1273 3.47139C26.4013 3.24953 26.4405 2.85802 26.2317 2.58395C26.0228 2.30989 25.6183 2.27074 25.3442 2.47955L22.5253 4.72425L21.5856 3.56275C21.3638 3.28869 20.9723 3.24953 20.6982 3.47139C20.4241 3.69325 20.385 4.08477 20.6069 4.35883L21.938 5.99015Z" fill="white"/>
<path d="M31.3736 0H0.626427C0.274062 0 0 0.287113 0 0.626428C0 0.965742 0.287113 1.25285 0.626427 1.25285H2.12724V20.3328C2.12724 20.6852 2.41436 20.9592 2.75367 20.9592H9.72267L7.07341 29.4812C6.969 29.8075 7.15171 30.1599 7.49103 30.2643C7.55628 30.2904 7.62153 30.2904 7.67373 30.2904C7.9478 30.2904 8.19576 30.1207 8.27406 29.8467L11.0408 20.9723H20.9592L23.7259 29.8597C23.8042 30.1338 24.0522 30.3034 24.3263 30.3034C24.3915 30.3034 24.4568 30.2904 24.509 30.2773C24.8352 30.1729 25.031 29.8206 24.9266 29.4943L22.2773 20.9723H29.2463C29.5987 20.9723 29.8728 20.6852 29.8728 20.3458V1.26591H31.3736C31.7259 1.26591 32 0.978793 32 0.639478C32 0.300163 31.7129 0 31.3736 0ZM28.6199 19.7064H3.3801V1.26591H28.6199V19.7064Z" fill="white"/>
</svg>
