<svg width="32" height="32" viewBox="0 0 32 32" fill="none" xmlns="http://www.w3.org/2000/svg">
<g clip-path="url(#clip0)">
<path d="M31.4669 1.39631e-08C31.4669 1.39631e-08 31.4667 1.39631e-08 31.4667 1.39631e-08H0.533333C0.238867 -6.66527e-05 6.66667e-05 0.2386 0 0.533067C0 0.533133 0 0.533267 0 0.533333V11.2H1.06667V1.06667H30.9333V12.8H12.2667V13.8667H31.4667C31.7611 13.8667 31.9999 13.6281 32 13.3336C32 13.3335 32 13.3334 32 13.3333V0.533333C32.0001 0.238867 31.7614 6.66806e-05 31.4669 1.39631e-08Z" fill="white"/>
<path d="M28.2667 2.6665H17.6V3.73317H28.2667V2.6665Z" fill="white"/>
<path d="M29.8667 5.8667H19.2V6.93337H29.8667V5.8667Z" fill="white"/>
<path d="M27.7333 9.06665H17.0667V10.1333H27.7333V9.06665Z" fill="white"/>
<path d="M17.0241 4.59823C16.659 3.72057 15.6515 3.3051 14.7739 3.67023C14.7589 3.6765 14.744 3.6829 14.7292 3.68957L10.4047 5.9329C10.5752 5.57943 10.6647 5.19237 10.6667 4.79997C10.6667 3.32723 9.47273 2.1333 8 2.1333C6.52727 2.1333 5.33333 3.32723 5.33333 4.79997C5.33533 5.37883 5.52753 5.94103 5.88033 6.39997H5.85813C4.34427 6.4101 2.99287 7.35124 2.4584 8.7677L1.03467 13.675C0.695733 14.5554 1.13467 15.5439 2.01513 15.8828C2.4166 16.0374 2.8616 16.0348 3.26127 15.8755C3.72047 15.6905 4.0778 15.3169 4.24227 14.85L4.8 13.075V20.7938C4.34107 20.4411 3.77887 20.2489 3.2 20.2468C1.72947 20.2446 0.535533 21.435 0.533333 22.9056C0.532267 23.6258 0.822933 24.3156 1.33913 24.8179C0.519933 25.2364 0.00320001 26.0775 1.39631e-08 26.9974V31.4666C-6.66527e-05 31.7611 0.2386 31.9999 0.533067 32C0.533133 32 0.533267 32 0.533333 32H5.86667C6.16113 32 6.39993 31.7614 6.4 31.4669C6.4 31.4668 6.4 31.4667 6.4 31.4666V26.9974C6.3974 26.2414 6.0462 25.529 5.44827 25.0666H9.48513C8.88713 25.529 8.53593 26.2414 8.5334 26.9974V31.4666C8.53333 31.7611 8.772 31.9999 9.06647 32C9.06653 32 9.06667 32 9.06673 32H14.4001C14.6945 32 14.9333 31.7614 14.9334 31.4669C14.9334 31.4668 14.9334 31.4667 14.9334 31.4666V26.9974C14.9302 26.0775 14.4135 25.2364 13.5943 24.8179C14.6473 23.7901 14.6677 22.1032 13.6399 21.0502C13.007 20.4018 12.0879 20.1194 11.2001 20.3008V9.39057L16.0961 6.84837C16.9737 6.4833 17.3892 5.47583 17.0241 4.59823ZM8 3.19997C8.88367 3.19997 9.6 3.9163 9.6 4.79997C9.6 5.68363 8.88367 6.39997 8 6.39997C7.11673 6.39903 6.40093 5.68323 6.4 4.79997C6.4 3.9163 7.11633 3.19997 8 3.19997ZM3.2 21.3135C4.08367 21.3135 4.8 22.0298 4.8 22.9135C4.8 23.7972 4.08367 24.5135 3.2 24.5135C2.31633 24.5135 1.6 23.7972 1.6 22.9135C1.60093 22.0302 2.31673 21.3145 3.2 21.3135ZM5.33333 30.9333H1.06667V26.9974C1.06773 26.226 1.69287 25.6009 2.46433 25.6H3.93567C4.70707 25.6009 5.33227 26.226 5.33333 26.9974V30.9333ZM13.8667 26.9974V30.9333H9.6V26.9974C9.60107 26.226 10.2262 25.6009 10.9977 25.6H12.469C13.2405 25.6009 13.8656 26.226 13.8667 26.9974ZM11.7333 21.3135C12.6166 21.3144 13.3324 22.0302 13.3333 22.9135C13.3333 23.7972 12.617 24.5135 11.7333 24.5135C10.8497 24.5135 10.1333 23.7972 10.1333 22.9135C10.1333 22.0298 10.8497 21.3135 11.7333 21.3135ZM16.0482 5.48797C15.9768 5.67117 15.8302 5.81497 15.6456 5.88277L10.4211 8.59317C10.2443 8.6849 10.1333 8.8675 10.1333 9.06664V20.7938C9.13433 21.5325 8.78827 22.8694 9.30347 24H8.53333V14.9333H7.46667V24H5.62987C5.7816 23.6646 5.86153 23.3013 5.86467 22.9333H5.86667V9.59997C5.8666 9.30537 5.62773 9.06664 5.3332 9.0667C5.10033 9.06677 4.8944 9.2179 4.82453 9.4401L3.232 14.5078C3.11133 14.8406 2.74367 15.0126 2.41087 14.8918C2.38753 14.8834 2.36467 14.8736 2.3424 14.8624C2.03473 14.7034 1.90413 14.3322 2.04453 14.0156L3.4682 9.1083C3.85213 8.1223 4.79993 7.47123 5.85807 7.46663H9.6344C9.71987 7.46677 9.80413 7.44617 9.88 7.40677L15.1808 4.65523C15.4988 4.52257 15.8653 4.6583 16.0201 4.96617C16.1022 5.12843 16.1124 5.31777 16.0482 5.48797Z" fill="white"/>
<path d="M22.1275 24.8179C23.1824 23.7902 23.2044 22.1018 22.1767 21.047C21.1489 19.9921 19.4606 19.9701 18.4057 20.9978C17.3509 22.0256 17.3289 23.7139 18.3566 24.7688C18.3728 24.7854 18.3892 24.8018 18.4058 24.8179C17.5867 25.2364 17.0699 26.0775 17.0667 26.9974V31.4666C17.0666 31.7611 17.3053 31.9999 17.5997 32C17.5998 32 17.5999 32 17.6 32H22.9333C23.2278 32 23.4666 31.7614 23.4667 31.4669C23.4667 31.4668 23.4667 31.4667 23.4667 31.4666V26.9974C23.4635 26.0775 22.9467 25.2364 22.1275 24.8179ZM20.2667 21.3135C21.1503 21.3135 21.8667 22.0298 21.8667 22.9135C21.8667 23.7972 21.1503 24.5135 20.2667 24.5135C19.383 24.5135 18.6667 23.7972 18.6667 22.9135C18.6676 22.0302 19.3834 21.3145 20.2667 21.3135ZM22.4 30.9333H18.1333V26.9974C18.1344 26.226 18.7595 25.6009 19.531 25.6H21.0023C21.7737 25.6009 22.3989 26.226 22.4 26.9974V30.9333Z" fill="white"/>
<path d="M30.6609 24.8179C31.7157 23.7902 31.7377 22.1018 30.71 21.047C29.6823 19.9921 27.9939 19.9701 26.9391 20.9978C25.8842 22.0256 25.8622 23.7139 26.8899 24.7688C26.9061 24.7854 26.9225 24.8018 26.9391 24.8179C26.12 25.2364 25.6032 26.0775 25.6 26.9974V31.4666C25.5999 31.7611 25.8386 31.9999 26.1331 32C26.1331 32 26.1333 32 26.1333 32H31.4667C31.7611 32 31.9999 31.7614 32 31.4669C32 31.4668 32 31.4667 32 31.4666V26.9974C31.9968 26.0775 31.4801 25.2364 30.6609 24.8179ZM28.8 21.3135C29.6837 21.3135 30.4 22.0298 30.4 22.9135C30.4 23.7972 29.6837 24.5135 28.8 24.5135C27.9163 24.5135 27.2 23.7972 27.2 22.9135C27.2009 22.0302 27.9167 21.3145 28.8 21.3135ZM30.9333 30.9333H26.6667V26.9974C26.6677 26.226 27.2929 25.6009 28.0643 25.6H29.5357C30.3071 25.6009 30.9323 26.226 30.9333 26.9974V30.9333Z" fill="white"/>
</g>
<defs>
<clipPath id="clip0">
<rect width="32" height="32" fill="white"/>
</clipPath>
</defs>
</svg>
