<svg width="32" height="32" viewBox="0 0 32 32" fill="none" xmlns="http://www.w3.org/2000/svg">
<path d="M8.23892 6.83364C7.63879 6.21338 6.81186 5.86425 5.94879 5.86671H5.78452C4.92233 5.86498 4.0966 6.21404 3.49706 6.83364C2.93307 7.41351 2.6336 8.20051 2.66933 9.00857L2.73173 10.4443C2.82627 12.0872 4.201 13.3624 5.84639 13.3334H5.88692C7.53232 13.3624 8.90705 12.0872 9.00158 10.4443L9.06665 9.00857C9.10238 8.20051 8.80292 7.41351 8.23892 6.83364ZM7.93599 10.4C7.86372 11.4709 6.95986 12.2943 5.88692 12.2667H5.84639C4.77346 12.2943 3.8696 11.4709 3.79733 10.4L3.77866 9.96431C4.79533 9.91904 5.77153 9.55271 6.56692 8.91791C6.89492 9.40297 7.39005 9.75024 7.95785 9.89337L7.93599 10.4ZM7.26719 7.87898C7.23752 7.65151 7.06566 7.46851 6.84052 7.42458C6.61619 7.37818 6.38752 7.48151 6.27412 7.68058C6.26719 7.69178 5.60533 8.73871 3.7376 8.89871C3.733 8.40457 3.92306 7.92851 4.26666 7.57338C4.66486 7.16304 5.21273 6.93204 5.78452 6.93338H5.94879C6.52059 6.93204 7.06846 7.16304 7.46665 7.57338C7.77779 7.89758 7.96245 8.32257 7.98719 8.77124C7.61812 8.60631 7.35039 8.27457 7.26719 7.87898Z" fill="white"/>
<path d="M29.0389 19.6337C28.4387 19.0134 27.6118 18.6643 26.7487 18.6668H26.5845C25.7223 18.665 24.8966 19.0141 24.297 19.6337C23.733 20.2136 23.4335 21.0006 23.4693 21.8086L23.5317 23.2443C23.6262 24.8873 25.001 26.1625 26.6464 26.1334H26.6869C28.3323 26.1625 29.707 24.8873 29.8015 23.2443L29.8666 21.8086C29.9023 21.0006 29.6029 20.2136 29.0389 19.6337ZM28.7999 21.7654L28.7359 23.2001C28.6637 24.2709 27.7598 25.0943 26.6869 25.0667H26.6464C25.5734 25.0943 24.6696 24.2709 24.5973 23.2001L24.5333 21.7628C24.5127 21.246 24.7056 20.7436 25.0666 20.3734C25.4648 19.9631 26.0127 19.7321 26.5845 19.7334H26.7487C27.3205 19.7321 27.8684 19.9631 28.2666 20.3734C28.6283 20.7443 28.8213 21.2478 28.7999 21.7654Z" fill="white"/>
<path d="M16.4756 7.75621C15.9033 7.20268 14.9952 7.20268 14.4229 7.75621L8.46878 13.7103C8.36865 13.8105 8.23278 13.8667 8.09118 13.8666H2.66666C1.19466 13.8683 0.00173333 15.0613 0 16.5333V23.9999C0 24.8836 0.716332 25.5999 1.6 25.5999C1.78166 25.5999 1.962 25.569 2.13333 25.5087V26.1332C2.13333 26.4278 2.37213 26.6666 2.66666 26.6666H9.06664C9.36118 26.6666 9.59998 26.4278 9.59998 26.1332V17.4858C9.59991 17.3509 9.65098 17.2209 9.74291 17.1221L16.5104 9.84368C17.0772 9.25768 17.0616 8.32308 16.4756 7.75621ZM15.7487 9.09788C15.7468 9.09974 15.7448 9.10161 15.7429 9.10341L8.95998 16.3962C8.68531 16.6925 8.53285 17.0817 8.53331 17.4858V25.5999H3.19999V17.5999C3.19999 17.3054 2.96119 17.0666 2.66666 17.0666C2.37213 17.0666 2.13333 17.3054 2.13333 17.5999V23.9999C2.13333 24.2944 1.89453 24.5332 1.6 24.5332C1.30546 24.5332 1.06666 24.2944 1.06666 23.9999V16.5333C1.06666 15.6496 1.783 14.9333 2.66666 14.9333H8.09118C8.51591 14.9346 8.92351 14.7658 9.22291 14.4645L15.177 8.51035C15.3394 8.35635 15.5939 8.35635 15.7562 8.51035C15.9164 8.67468 15.913 8.93774 15.7487 9.09788Z" fill="white"/>
<path d="M5.86665 15.4668C5.57212 15.4668 5.33332 15.7056 5.33332 16.0001V22.4001C5.33332 22.6946 5.57212 22.9334 5.86665 22.9334C6.16119 22.9334 6.39999 22.6946 6.39999 22.4001V16.0001C6.39999 15.7056 6.16119 15.4668 5.86665 15.4668Z" fill="white"/>
<path d="M17.3029 19.6334C16.7034 19.0138 15.8776 18.6648 15.0154 18.6665H14.8512C13.989 18.6648 13.1632 19.0138 12.5637 19.6334C11.9997 20.2133 11.7002 21.0003 11.736 21.8084L11.7984 23.2441C11.8929 24.887 13.2676 26.1622 14.913 26.1332H14.9536C16.599 26.1622 17.9737 24.887 18.0682 23.2441L18.1306 21.8084C18.1664 21.0003 17.8669 20.2133 17.3029 19.6334ZM17.0666 21.7652L17.0026 23.1998C16.9304 24.2707 16.0265 25.0941 14.9536 25.0665H14.913C13.8401 25.0941 12.9362 24.2707 12.864 23.1998L12.8 21.7625C12.7794 21.2458 12.9722 20.7434 13.3333 20.3732C13.7315 19.9628 14.2794 19.7318 14.8512 19.7332H15.0154C15.5872 19.7318 16.1351 19.9628 16.5333 20.3732C16.895 20.744 17.088 21.2476 17.0666 21.7652Z" fill="white"/>
<path d="M17.689 26.6667H12.1776C10.7546 26.6682 9.60145 27.8214 9.59998 29.2443V31.4667C9.59998 31.7613 9.83878 32.0001 10.1333 32.0001C10.4278 32.0001 10.6666 31.7613 10.6666 31.4667V29.2443C10.6675 28.4102 11.3435 27.7343 12.1776 27.7334H17.689C18.5232 27.7343 19.1991 28.4102 19.2 29.2443V31.4667C19.2 31.7613 19.4388 32.0001 19.7333 32.0001C20.0278 32.0001 20.2666 31.7613 20.2666 31.4667V29.2443C20.2652 27.8214 19.112 26.6682 17.689 26.6667Z" fill="white"/>
<path d="M29.4223 26.6667H23.9109C22.4879 26.6682 21.3347 27.8214 21.3333 29.2443V31.4667C21.3333 31.7613 21.5721 32.0001 21.8666 32.0001C22.1611 32.0001 22.3999 31.7613 22.3999 31.4667V29.2443C22.4008 28.4102 23.0768 27.7343 23.9109 27.7334H29.4223C30.2565 27.7343 30.9324 28.4102 30.9333 29.2443V31.4667C30.9333 31.7613 31.1721 32.0001 31.4666 32.0001C31.7611 32.0001 31.9999 31.7613 31.9999 31.4667V29.2443C31.9985 27.8214 30.8453 26.6682 29.4223 26.6667Z" fill="white"/>
<path d="M30.4266 0H11.7066C10.8308 0.00853331 10.1271 0.724198 10.1333 1.6V9.59998C10.1333 9.89451 10.3721 10.1333 10.6666 10.1333C10.9612 10.1333 11.2 9.89451 11.2 9.59998V3.19999H30.9333V16C30.9401 16.287 30.7136 16.5254 30.4266 16.5333H12.2266C11.9321 16.5333 11.6933 16.7721 11.6933 17.0666C11.6933 17.3612 11.9321 17.6 12.2266 17.6H30.4266C31.3024 17.5914 32.0061 16.8758 31.9999 16V1.6C32.0061 0.724198 31.3024 0.00853331 30.4266 0ZM30.9333 2.13333H11.2V1.6C11.1931 1.313 11.4196 1.07453 11.7066 1.06666H30.4266C30.7136 1.07453 30.9401 1.313 30.9333 1.6V2.13333Z" fill="white"/>
<path d="M29.3333 6.80005C29.0387 6.80005 28.7999 7.03885 28.7999 7.33338V14.9334C28.7999 15.2279 29.0387 15.4667 29.3333 15.4667C29.6278 15.4667 29.8666 15.2279 29.8666 14.9334V7.33338C29.8666 7.03885 29.6278 6.80005 29.3333 6.80005Z" fill="white"/>
<path d="M27.1999 10.1333C26.9054 10.1333 26.6666 10.3721 26.6666 10.6666V14.9333C26.6666 15.2278 26.9054 15.4666 27.1999 15.4666C27.4945 15.4666 27.7333 15.2278 27.7333 14.9333V10.6666C27.7333 10.3721 27.4945 10.1333 27.1999 10.1333Z" fill="white"/>
<path d="M25.0666 9.06665C24.7721 9.06665 24.5333 9.30545 24.5333 9.59998V14.9333C24.5333 15.2278 24.7721 15.4666 25.0666 15.4666C25.3611 15.4666 25.5999 15.2278 25.5999 14.9333V9.59998C25.5999 9.30545 25.3611 9.06665 25.0666 9.06665Z" fill="white"/>
<path d="M22.9333 12.2666C22.6387 12.2666 22.3999 12.5054 22.3999 12.7999V14.9333C22.3999 15.2278 22.6387 15.4666 22.9333 15.4666C23.2278 15.4666 23.4666 15.2278 23.4666 14.9333V12.7999C23.4666 12.5054 23.2278 12.2666 22.9333 12.2666Z" fill="white"/>
<path d="M29.6293 4.35632C29.3842 4.19285 29.053 4.25899 28.8895 4.50405L27.0687 7.23471L25.3866 5.97338C25.1519 5.79545 24.8174 5.84158 24.6394 6.07632C24.6192 6.10305 24.6015 6.13158 24.5866 6.16165L22.5098 10.3158L20.48 11.84C20.2443 12.0168 20.1966 12.351 20.3733 12.5867C20.55 12.8224 20.8843 12.8701 21.12 12.6934L23.2533 11.0934C23.3205 11.0439 23.3753 10.9794 23.4133 10.9051L25.2602 7.21018L26.8799 8.42671C27.1155 8.60345 27.4499 8.55578 27.6266 8.32011C27.6325 8.31225 27.6382 8.30418 27.6437 8.29605L29.777 5.09605C29.9405 4.85099 29.8743 4.51979 29.6293 4.35632Z" fill="white"/>
<path d="M19.2 4.2666H12.8C12.5054 4.2666 12.2666 4.5054 12.2666 4.79993C12.2666 5.09447 12.5054 5.33327 12.8 5.33327H19.2C19.4945 5.33327 19.7333 5.09447 19.7333 4.79993C19.7333 4.5054 19.4945 4.2666 19.2 4.2666Z" fill="white"/>
<path d="M22.4 4.2666H21.3333C21.0388 4.2666 20.8 4.5054 20.8 4.79993C20.8 5.09447 21.0388 5.33327 21.3333 5.33327H22.4C22.6945 5.33327 22.9333 5.09447 22.9333 4.79993C22.9333 4.5054 22.6945 4.2666 22.4 4.2666Z" fill="white"/>
</svg>
