<svg width="30" height="30" viewBox="0 0 30 30" fill="none" xmlns="http://www.w3.org/2000/svg">
<path d="M29.4223 19.9902C28.6856 19.0911 27.4461 18.8191 26.4085 19.329L20.8234 22.0721V21.7742C20.8234 20.1844 19.5476 18.8911 17.9794 18.8911H10.0732C9.94547 18.8911 9.82131 18.9328 9.71948 19.0099L7.11821 20.9798V19.9801C7.11821 19.6564 6.85589 19.3941 6.53229 19.3941H0.585924C0.262318 19.3941 0 19.6564 0 19.9801V27.1722C0 27.4958 0.262318 27.7581 0.585924 27.7581H6.53229C6.85589 27.7581 7.11821 27.4958 7.11821 27.1722V26.4879L15.9729 28.9865C16.265 29.0737 16.5651 29.117 16.8645 29.117C17.3216 29.117 17.7767 29.016 18.1976 28.8164L28.5459 23.9086C29.2536 23.5779 29.7599 22.9469 29.9349 22.1773C30.1116 21.4006 29.9248 20.6035 29.4223 19.9902ZM5.94636 26.5862H1.17185V20.566H5.94636V26.5862ZM28.7922 21.9174C28.6981 22.3316 28.4274 22.6704 28.0467 22.8483L17.6955 27.7575C17.2601 27.9638 16.7664 28.0012 16.3051 27.8626C16.3019 27.8616 16.2988 27.8607 16.2956 27.8598L7.11821 25.2702V22.4497L10.27 20.063H17.9794C18.9014 20.063 19.6515 20.8306 19.6515 21.7742V22.4268H15.4721C15.1486 22.4268 14.8862 22.6891 14.8862 23.0127C14.8862 23.3363 15.1486 23.5986 15.4721 23.5986H20.2384H20.2395C20.24 23.5987 20.2402 23.5986 20.2406 23.5986C20.3365 23.5981 20.4269 23.5746 20.5066 23.5333L26.9251 20.3808C27.4717 20.1122 28.1259 20.257 28.5159 20.733C28.7873 21.0643 28.8881 21.496 28.7922 21.9174Z" fill="white"/>
<path d="M18.6172 17.1608C23.3485 17.1608 27.1976 13.3117 27.1976 8.58038C27.1976 3.84917 23.3485 0 18.6172 0C13.886 0 10.0369 3.84917 10.0369 8.58038C10.0369 13.3117 13.886 17.1608 18.6172 17.1608ZM18.6172 15.989C18.2541 15.989 17.8969 15.9627 17.5476 15.9119C18.2544 15.4231 19.0696 14.6791 19.569 13.5415C19.9242 12.7325 20.4981 11.6252 21.3783 11.3501C21.8889 11.1906 22.4985 11.3256 23.1909 11.7511C23.4638 11.9189 24.0868 12.3802 24.6806 12.8333C23.3388 14.7404 21.1211 15.989 18.6172 15.989ZM25.975 7.7104C25.0966 7.95889 23.4412 8.27031 22.6197 7.40695C22.4313 7.20874 22.2714 7.00524 22.1166 6.80855C21.6805 6.25403 21.2295 5.68059 20.3314 5.54583C19.5391 5.42723 18.9471 5.79373 18.515 6.06144C18.2102 6.25034 18.016 6.36284 17.8827 6.32821C15.8789 5.80885 16.0176 4.23107 16.3821 2.37592C16.4547 2.00655 16.5116 1.71728 16.5191 1.4743C17.1845 1.27749 17.8888 1.17179 18.6172 1.17179C22.4081 1.17179 25.543 4.03373 25.975 7.7104ZM15.2667 1.97368C15.255 2.03456 15.2433 2.09438 15.2323 2.14999C15.0804 2.9227 14.8724 3.98094 15.0763 4.98316C15.3368 6.26382 16.1821 7.09805 17.589 7.46262C18.2162 7.62527 18.7242 7.31039 19.1323 7.05757C19.4854 6.83878 19.7902 6.64982 20.1577 6.70472C20.5773 6.76771 20.7906 7.01802 21.1955 7.53299C21.3589 7.74076 21.5441 7.97618 21.7704 8.21442C22.4451 8.92362 23.3761 9.14539 24.2767 9.14539C24.9044 9.14539 25.5173 9.03764 26.0184 8.91213C25.9725 9.94975 25.712 10.9326 25.2805 11.8173C24.7784 11.4355 24.1313 10.9538 23.8045 10.7529C22.8106 10.1419 21.8767 9.96656 21.0286 10.2316C19.6922 10.6493 18.9431 12.0518 18.4959 13.0704C17.9653 14.2789 16.9907 14.9362 16.0165 15.4664C15.9985 15.4762 15.9812 15.4868 15.9647 15.4982C15.3349 15.2559 14.7463 14.93 14.2126 14.5341C14.3149 14.4742 14.4189 14.4152 14.5218 14.3568C15.3375 13.8938 16.2621 13.3691 16.2495 12.3787C16.2431 11.88 15.9041 11.4662 15.5453 11.0281C15.2198 10.6308 14.8509 10.1805 14.7018 9.64682C14.5502 9.10508 14.469 8.47791 14.4602 7.78271C14.4425 6.37315 13.725 5.09379 12.5541 4.32728C13.2502 3.33801 14.1818 2.52615 15.2667 1.97368ZM11.9568 5.33753C12.7762 5.89521 13.2761 6.80181 13.2887 7.7973C13.2987 8.59415 13.3945 9.32257 13.5733 9.96223C13.7887 10.7327 14.2601 11.3082 14.6389 11.7706C14.8061 11.9746 15.0582 12.2824 15.0779 12.3973C15.0765 12.6945 14.4747 13.036 13.9435 13.3375C13.7261 13.4609 13.5042 13.5869 13.2903 13.7241C12.0022 12.3906 11.2087 10.5764 11.2087 8.58033C11.2087 7.41809 11.4778 6.31749 11.9568 5.33753Z" fill="white"/>
</svg>
