<svg width="35" height="35" viewBox="0 0 35 35" fill="none" xmlns="http://www.w3.org/2000/svg">
<path d="M9.84363 31.7236H16.9545V2.31956L7.85026 4.88557L13.0294 13.3628L13.0367 13.3737L13.0439 13.3846L13.0512 13.3955L13.0584 13.4063L13.0656 13.4172L13.0693 13.4281V13.4317L13.0729 13.4426V13.4462L13.0765 13.4571V13.4607L13.0801 13.4716V13.4752L13.0838 13.4861V13.4897L13.0874 13.5006V13.5042L13.091 13.5114V13.5151L13.0946 13.5223V13.5259L13.0983 13.5368V13.5404L13.1019 13.5513V13.5549L13.1055 13.5658V13.5694L13.1091 13.5803V13.5839L13.1128 13.5948V13.5984V13.6093V13.6129L13.1164 13.6238L13.12 13.6492V13.6637V13.6745V13.6782V13.689V13.6927V13.6999C13.1128 15.5012 12.3807 17.1358 11.1991 18.3173L11.1665 18.3499C9.98136 19.5206 8.35042 20.2418 6.56001 20.2418C4.75147 20.2418 3.10966 19.5061 1.92089 18.3173C0.732111 17.1285 0 15.4867 0 13.6782C0 13.5658 0.0326188 13.4607 0.0942321 13.3737L0.101481 13.3628L0.105105 13.3592L5.26613 4.91457C4.74785 4.86383 4.28031 4.63187 3.92876 4.28394H3.92513C3.53008 3.88889 3.28363 3.34162 3.28363 2.73636H4.37817C4.37817 3.03717 4.5014 3.309 4.70073 3.50834C4.90007 3.70405 5.17189 3.82727 5.47271 3.82727H5.92938L6.10334 3.54458C6.14683 3.47209 6.20845 3.41048 6.28456 3.36336C6.54188 3.20752 6.87895 3.28725 7.03479 3.54458L7.20876 3.82727H7.61106L16.9618 1.1924V0H18.0563V1.1924L27.4107 3.82727H27.8057L27.9797 3.54458C28.0232 3.47209 28.0848 3.41048 28.1609 3.36336C28.4182 3.20752 28.7553 3.28725 28.9111 3.54458L29.0851 3.82727H29.5454C29.8462 3.82727 30.1217 3.70405 30.3174 3.50834V3.50471C30.5167 3.30537 30.6399 3.03355 30.6399 2.73273H31.7345C31.7345 3.33799 31.488 3.88526 31.093 4.28031C30.7414 4.63187 30.2703 4.86745 29.752 4.91457L34.9203 13.3701L34.9275 13.381L34.9348 13.3918L34.942 13.4027L34.9492 13.4136L34.9565 13.4245L34.9601 13.4353V13.439L34.9637 13.4498V13.4535L34.9674 13.4643V13.4679L34.971 13.4788V13.4824L34.9746 13.4933V13.4969L34.9782 13.5078V13.5114L34.9819 13.5187V13.5223L34.9855 13.5296V13.5332L34.9891 13.5441V13.5477L34.9927 13.5586V13.5622L34.9964 13.5731V13.5767L35 13.5876V13.5912L35.0036 13.602V13.6057V13.6165V13.6202L35.0072 13.631L35.0109 13.6564V13.6709V13.6818V13.6854V13.6963V13.6999V13.7072C35.0036 15.5084 34.2715 17.143 33.09 18.3245L33.0574 18.3571C31.8722 19.5278 30.2413 20.249 28.4509 20.249C26.6423 20.249 25.0005 19.5133 23.8117 18.3245C22.623 17.1358 21.8909 15.4939 21.8909 13.6854C21.8909 13.5731 21.9235 13.4679 21.9851 13.381L21.9923 13.3701L21.996 13.3665L27.1715 4.90007L18.0708 2.33768V31.7417H25.1817C25.6348 31.7417 26.0443 31.9266 26.3415 32.2238C26.6387 32.521 26.8235 32.9305 26.8235 33.3835V34.4781V35.0254H26.2763H8.77084H8.22357V34.4781V33.3835C8.22357 32.9305 8.40841 32.521 8.7056 32.2238C9.00279 31.9266 9.41234 31.7417 9.86538 31.7417L9.84363 31.7236ZM33.4814 13.1236L28.4654 4.91819H28.4074L23.3913 13.1236H33.4778H33.4814ZM32.3035 17.5381C33.1733 16.6682 33.7496 15.5084 33.8801 14.2182H22.9926C23.1195 15.5121 23.6994 16.6718 24.5656 17.5381L24.5692 17.5417C25.5587 18.5311 26.925 19.14 28.4364 19.14C29.9332 19.14 31.2923 18.5384 32.2781 17.567L32.3035 17.5381ZM11.6014 13.1236L6.58538 4.91819H6.52739L1.51134 13.1236H11.5978H11.6014ZM10.4235 17.5381C11.2934 16.6682 11.8696 15.5084 12.0001 14.2182H1.11266C1.23952 15.5121 1.81941 16.6718 2.68562 17.5381L2.68924 17.5417C3.67868 18.5311 5.04504 19.14 6.55638 19.14C8.05322 19.14 9.41234 18.5384 10.3982 17.567L10.4235 17.5381ZM25.1564 32.8182H9.83639C9.68779 32.8182 9.55007 32.8798 9.45221 32.9776C9.35435 33.0755 9.29274 33.2132 9.29274 33.3618V33.9091H25.7036V33.3618C25.7036 33.2132 25.642 33.0755 25.5442 32.9776C25.4463 32.8798 25.3086 32.8182 25.16 32.8182H25.1564Z" fill="white" stroke="white"/>
</svg>
