<svg width="30" height="30" viewBox="0 0 30 30" fill="none" xmlns="http://www.w3.org/2000/svg">
<path d="M26.2303 1.85701C26.7374 1.8575 27.2236 2.05918 27.5822 2.41777C27.9408 2.77637 28.1425 3.26259 28.143 3.76973V26.2303C28.1425 26.7374 27.9408 27.2236 27.5822 27.5822C27.2236 27.9408 26.7374 28.1425 26.2303 28.143H3.76973C3.26259 28.1425 2.77637 27.9408 2.41777 27.5822C2.05918 27.2236 1.8575 26.7374 1.85701 26.2303V3.76973C1.8575 3.26259 2.05918 2.77637 2.41777 2.41777C2.77637 2.05918 3.26259 1.8575 3.76973 1.85701H26.2303ZM26.2303 1.1442e-07H3.76973C2.76993 1.1442e-07 1.81109 0.397168 1.10413 1.10413C0.397168 1.81109 0 2.76993 0 3.76973V26.2303C0 27.2301 0.397168 28.1889 1.10413 28.8959C1.81109 29.6028 2.76993 30 3.76973 30H26.2303C27.2301 30 28.1889 29.6028 28.8959 28.8959C29.6028 28.1889 30 27.2301 30 26.2303V3.76973C30.0001 3.27465 29.9027 2.78441 29.7133 2.32699C29.5239 1.86957 29.2462 1.45392 28.8962 1.10385C28.5461 0.753771 28.1304 0.476104 27.673 0.286701C27.2156 0.0972975 26.7254 -0.000121872 26.2303 1.1442e-07Z" fill="white"/>
<path d="M11.3881 21.6034H11.3185C10.9967 21.5933 10.6804 21.5177 10.3889 21.3812C10.0974 21.2447 9.8368 21.0502 9.62304 20.8095L5.31663 15.9516C5.23579 15.8601 5.17373 15.7537 5.13404 15.6382C5.09435 15.5228 5.0778 15.4007 5.0853 15.2788C5.0928 15.157 5.12418 15.0379 5.17773 14.9282C5.23128 14.8185 5.30594 14.7204 5.39739 14.6396C5.48884 14.5587 5.5953 14.4967 5.71073 14.457C5.82615 14.4173 5.94825 14.4007 6.07008 14.4082C6.19191 14.4157 6.31108 14.4472 6.42076 14.5007C6.53045 14.5543 6.62855 14.6289 6.70939 14.7204L11.0158 19.5783C11.0613 19.6296 11.1168 19.6711 11.1789 19.7002C11.241 19.7292 11.3084 19.7453 11.377 19.7473C11.5146 19.746 11.647 19.6937 11.7484 19.6006L23.3361 8.01286C23.5112 7.84373 23.7457 7.75012 23.9892 7.75223C24.2326 7.75435 24.4655 7.85199 24.6377 8.02414C24.8098 8.19629 24.9075 8.42918 24.9096 8.67263C24.9117 8.91608 24.8182 9.15065 24.649 9.32577L13.0613 20.9135C12.6167 21.3556 12.0151 21.6036 11.3881 21.6034Z" fill="white"/>
</svg>
