<svg width="50" height="57" viewBox="0 0 50 57" fill="none" xmlns="http://www.w3.org/2000/svg">
<path d="M49.3345 10.1934C49.3533 10.306 56.2001 49.2994 25.5499 56.9502C25.3913 57.0054 25.2154 57.0169 25.0402 56.9737L25.0407 56.9715C-5.17734 49.499 0.308921 11.6173 0.516635 10.247C0.522134 10.1927 0.532779 10.1381 0.548835 10.0838C0.688591 9.61213 1.18581 9.34262 1.65923 9.48187L1.65861 9.48398C12.9807 12.8136 23.461 1.21244 24.212 0.360262C24.25 0.309419 24.2938 0.261864 24.3437 0.218604C24.7162 -0.104159 25.2808 -0.0649752 25.6048 0.306132L25.6042 0.309595C25.6356 0.345623 36.4379 12.8996 48.1541 9.49704C48.2034 9.47969 48.2548 9.46628 48.3081 9.45747C48.7951 9.37691 49.2555 9.70493 49.3364 10.1901L49.3345 10.1934V10.1934ZM46.1631 13.5785C40.6913 14.2896 35.2635 12.3702 30.6333 9.33197C28.7333 8.08527 26.7058 6.485 24.9361 4.78413C23.0312 6.58511 20.7108 8.33133 18.8147 9.51794C14.2906 12.3492 9.05528 14.106 3.77404 13.5266C3.32935 19.1776 3.64981 25.1086 4.87084 30.5445C7.42101 41.8975 13.7021 50.223 25.1935 53.3307C36.6509 49.6641 42.9126 41.066 45.2866 29.5183C46.2586 24.79 46.6385 18.7752 46.1631 13.5784L46.1631 13.5785Z" fill="white"/>
</svg>
