<svg width="44" height="44" viewBox="0 0 44 44" fill="none" xmlns="http://www.w3.org/2000/svg">
<g clip-path="url(#clip0)">
<path d="M28.104 21.1734H26.4509V25.4971H28.104V21.1734Z" fill="white"/>
<path d="M33.3815 21.1734H31.7283V25.4971H33.3815V21.1734Z" fill="white"/>
<path d="M38.659 21.1734H37.0058V25.4971H38.659V21.1734Z" fill="white"/>
<path d="M28.104 10.5549H26.4509V14.8786H28.104V10.5549Z" fill="white"/>
<path d="M33.3815 10.5549H31.7283V14.8786H33.3815V10.5549Z" fill="white"/>
<path d="M38.659 10.5549H37.0058V14.8786H38.659V10.5549Z" fill="white"/>
<path d="M21.1098 6.61273V27.7861H19.8382L17.4855 23.1445V14.5607H15.4509H14.7514H13.0983H9.47399H7.82081H5.15029V22.5087H0L8.07514 40.0578H44V6.61273H21.1098ZM6.80347 16.2139H15.8324V22.5087H6.80347V16.2139ZM42.3468 38.4046H9.15607L2.60694 24.1619H16.1503L18.8208 29.4393H42.3468V38.4046ZM42.3468 27.7861H22.8266V18.8844H42.3468V27.7861ZM42.3468 17.1676H22.8266V8.26591H42.3468V17.1676Z" fill="white"/>
<path d="M7.82082 14.5607H9.474V10.9364H13.0983V14.5607H14.7515V3.9422H7.75723V14.5607H7.82082ZM9.474 5.59538H13.0983V9.21966H9.474V5.59538Z" fill="white"/>
</g>
<defs>
<clipPath id="clip0">
<rect width="44" height="44" fill="white"/>
</clipPath>
</defs>
</svg>
