<svg width="32" height="32" viewBox="0 0 32 32" fill="none" xmlns="http://www.w3.org/2000/svg">
<g clip-path="url(#clip0)">
<path d="M24.628 30.4721C24.572 30.4721 24.5147 30.4654 24.4587 30.4494C24.1027 30.3561 23.8893 29.9921 23.984 29.6361L26.4987 20.0694L16 16.0787L5.50267 20.0694L8.01734 29.6361C8.11067 29.9921 7.89867 30.3574 7.54267 30.4494C7.18534 30.5454 6.82134 30.3307 6.72934 29.9747L4.06267 19.8281C3.976 19.4987 4.152 19.1574 4.47067 19.0361L15.764 14.7427C15.916 14.6841 16.0853 14.6841 16.2373 14.7427L27.5307 19.0361C27.8493 19.1574 28.0253 19.4987 27.9387 19.8281L25.272 29.9747C25.1933 30.2747 24.9227 30.4721 24.628 30.4721Z" fill="white"/>
<path d="M31.3333 31.9999C29.3533 31.9999 27.532 31.0439 26.464 29.4412C26.3573 29.2812 26.088 29.2826 25.9813 29.4412C24.912 31.0439 23.092 31.9999 21.1107 31.9999C19.1293 31.9999 17.3093 31.0439 16.24 29.4412C16.1347 29.2826 15.864 29.2826 15.7587 29.4412C14.6907 31.0439 12.8693 31.9999 10.8893 31.9999C8.90933 31.9999 7.088 31.0439 6.02 29.4412C5.91333 29.2826 5.64533 29.2812 5.53733 29.4412C4.468 31.0439 2.64667 31.9999 0.666667 31.9999C0.298667 31.9999 0 31.7012 0 31.3332C0 30.9652 0.298667 30.6666 0.666667 30.6666C2.2 30.6666 3.60667 29.9319 4.42667 28.7012C5.01333 27.8212 6.54133 27.8226 7.128 28.7012C7.94933 29.9319 9.35467 30.6666 10.8893 30.6666C12.424 30.6666 13.8293 29.9319 14.6507 28.7012C15.236 27.8226 16.7653 27.8226 17.3507 28.7012C18.1707 29.9319 19.5773 30.6666 21.1107 30.6666C22.644 30.6666 24.0507 29.9319 24.8707 28.7012C25.456 27.8226 26.9853 27.8212 27.572 28.7012C28.3933 29.9319 29.8 30.6666 31.3333 30.6666C31.7013 30.6666 32 30.9652 32 31.3332C32 31.7012 31.7013 31.9999 31.3333 31.9999Z" fill="white"/>
<path d="M7.33335 19.3198C6.96535 19.3198 6.66669 19.0212 6.66669 18.6532V11.3332C6.66669 10.9652 6.96535 10.6665 7.33335 10.6665H16C16.368 10.6665 16.6667 10.9652 16.6667 11.3332V15.3598C16.6667 15.7278 16.368 16.0265 16 16.0265C15.632 16.0265 15.3334 15.7278 15.3334 15.3598V11.9998H8.00002V18.6532C8.00002 19.0225 7.70135 19.3198 7.33335 19.3198Z" fill="white"/>
<path d="M24.6667 19.3198C24.2987 19.3198 24 19.0212 24 18.6532V11.9998H16.6666V15.3598C16.6666 15.7278 16.368 16.0265 16 16.0265C15.632 16.0265 15.3333 15.7278 15.3333 15.3598V11.3332C15.3333 10.9652 15.632 10.6665 16 10.6665H24.6667C25.0347 10.6665 25.3333 10.9652 25.3333 11.3332V18.6532C25.3333 19.0225 25.0347 19.3198 24.6667 19.3198Z" fill="white"/>
<path d="M20.6667 12C20.2987 12 20 11.7013 20 11.3333V5.33333H12V11.3333C12 11.7013 11.7014 12 11.3334 12C10.9654 12 10.6667 11.7013 10.6667 11.3333V4.66667C10.6667 4.29867 10.9654 4 11.3334 4H20.6667C21.0347 4 21.3334 4.29867 21.3334 4.66667V11.3333C21.3334 11.7013 21.0347 12 20.6667 12Z" fill="white"/>
<path d="M16 5.33333C15.632 5.33333 15.3333 5.03467 15.3333 4.66667V0.666667C15.3333 0.298667 15.632 0 16 0C16.368 0 16.6667 0.298667 16.6667 0.666667V4.66667C16.6667 5.03467 16.368 5.33333 16 5.33333Z" fill="white"/>
</g>
<defs>
<clipPath id="clip0">
<rect width="32" height="32" fill="white"/>
</clipPath>
</defs>
</svg>
