<svg width="45" height="45" viewBox="0 0 45 45" fill="none" xmlns="http://www.w3.org/2000/svg">
<g clip-path="url(#clip0)">
<path d="M18.8688 35.4049C16.6866 35.4049 14.9112 37.1803 14.9112 39.3625C14.9112 41.5448 16.6866 43.3201 18.8688 43.3201C21.0511 43.3201 22.8265 41.5448 22.8265 39.3625C22.8264 37.1803 21.051 35.4049 18.8688 35.4049ZM18.8688 41.1102C17.905 41.1102 17.1209 40.3261 17.1209 39.3623C17.1209 38.3985 17.9051 37.6145 18.8688 37.6145C19.8326 37.6145 20.6167 38.3986 20.6167 39.3623C20.6167 40.3262 19.8326 41.1102 18.8688 41.1102Z" fill="white"/>
<path d="M32.7507 35.4049C30.5685 35.4049 28.7931 37.1803 28.7931 39.3625C28.7931 41.5448 30.5685 43.3201 32.7507 43.3201C34.933 43.3201 36.7084 41.5448 36.7084 39.3625C36.7083 37.1803 34.9329 35.4049 32.7507 35.4049ZM32.7507 41.1102C31.7869 41.1102 31.0028 40.3261 31.0028 39.3623C31.0028 38.3985 31.787 37.6145 32.7507 37.6145C33.7145 37.6145 34.4986 38.3986 34.4986 39.3623C34.4986 40.3262 33.7144 41.1102 32.7507 41.1102Z" fill="white"/>
<path d="M33.7251 14.5683H17.8917C17.2815 14.5683 16.7868 15.063 16.7868 15.6732C16.7868 16.2834 17.2815 16.7781 17.8917 16.7781H33.7251C34.3353 16.7781 34.83 16.2834 34.83 15.6732C34.83 15.0629 34.3353 14.5683 33.7251 14.5683Z" fill="white"/>
<path d="M32.8633 20.3058H18.7535C18.1433 20.3058 17.6486 20.8005 17.6486 21.4107C17.6486 22.0209 18.1433 22.5156 18.7535 22.5156H32.8632C33.4734 22.5156 33.9681 22.0209 33.9681 21.4107C33.9681 20.8006 33.4734 20.3058 32.8633 20.3058Z" fill="white"/>
<path d="M44.5027 9.64548C44.0814 9.12833 43.457 8.83178 42.7898 8.83178H8.37404L7.679 5.45774C7.53389 4.75391 7.05383 4.16294 6.39456 3.87668L1.54501 1.77169C0.985147 1.5285 0.334491 1.7854 0.0916486 2.34509C-0.151457 2.90496 0.105447 3.5557 0.665048 3.79854L5.51469 5.90361L10.8607 31.8543C11.0713 32.8763 11.9815 33.6181 13.025 33.6181H39.4948C40.105 33.6181 40.5997 33.1235 40.5997 32.5133C40.5997 31.903 40.105 31.4084 39.4948 31.4084H13.0251L12.3748 28.2517H39.6994C40.7428 28.2517 41.6531 27.5099 41.8636 26.4879L44.9541 11.4871C45.0887 10.8339 44.9241 10.1625 44.5027 9.64548ZM39.6994 26.0421H11.9196L8.82931 11.0414L42.7897 11.0415L39.6994 26.0421Z" fill="white"/>
</g>
<defs>
<clipPath id="clip0">
<rect width="45" height="45" fill="white"/>
</clipPath>
</defs>
</svg>
