<svg width="19" height="32" viewBox="0 0 19 32" fill="none" xmlns="http://www.w3.org/2000/svg">
<g clip-path="url(#clip0)">
<path d="M0.895264 6.02019C0.895264 5.31253 0.895264 4.61091 0.895264 3.90325C0.895264 2.51212 1.70575 1.4718 2.988 1.21172C3.20575 1.16938 3.42954 1.16333 3.64728 1.16333C7.41542 1.16333 11.1896 1.15728 14.9578 1.16333C16.5787 1.16333 17.6795 2.25204 17.6795 3.87301C17.6795 9.1472 17.6795 14.4154 17.6795 19.6895" stroke="white" stroke-miterlimit="10" stroke-linecap="round" stroke-linejoin="round"/>
<path d="M17.6855 20.8989C17.6855 20.9171 17.6855 20.8989 17.6855 20.9171" stroke="white" stroke-miterlimit="10" stroke-linecap="round" stroke-linejoin="round"/>
<path d="M17.6857 22.0666C17.6857 24.0867 17.6857 26.1069 17.6857 28.121C17.6857 29.7359 16.5848 30.8246 14.9639 30.8307C11.1836 30.8307 7.40339 30.8307 3.62314 30.8307C1.98403 30.8307 0.901367 29.7359 0.901367 28.0968C0.901367 24.0625 0.901367 20.0343 0.901367 16C0.901367 13.5807 0.901367 10.0121 0.901367 7.59277" stroke="white" stroke-miterlimit="10" stroke-linecap="round" stroke-linejoin="round"/>
<path d="M9.29655 26.3306C10.0163 26.3367 10.5728 26.8992 10.5728 27.625C10.5667 28.3447 9.99816 28.9012 9.27841 28.9012C8.55865 28.8951 8.0022 28.3326 8.0022 27.6068C8.00825 26.881 8.57679 26.3246 9.29655 26.3306Z" stroke="white" stroke-miterlimit="10"/>
<path d="M11.1474 4.03002H7.42761C7.25825 4.03002 7.11914 3.89091 7.11914 3.72155C7.11914 3.5522 7.25825 3.41309 7.42761 3.41309H11.1474C11.3167 3.41309 11.4558 3.5522 11.4558 3.72155C11.4558 3.89091 11.3167 4.03002 11.1474 4.03002Z" fill="white"/>
</g>
<defs>
<clipPath id="clip0">
<rect width="18.5806" height="32" fill="white"/>
</clipPath>
</defs>
</svg>
