<svg width="24" height="32" viewBox="0 0 24 32" fill="none" xmlns="http://www.w3.org/2000/svg">
<g clip-path="url(#clip0)">
<path d="M21.5281 21.1361V17.8048L20.1223 18.3518L20.1182 18.3425L20.0847 18.2817C19.546 17.4429 18.6747 16.8594 17.6937 16.6815L14.3109 16.066V15.7989C15.576 15.0643 16.5024 13.8111 16.791 12.3295C17.7283 12.1357 18.435 11.3042 18.435 10.3103V5.21855C18.435 3.77975 17.4927 2.52499 16.1255 2.1167L15.8678 1.85894C14.6687 0.659858 13.0747 0 11.3792 0C7.87936 0 5.03166 2.84718 5.03166 6.34752V10.3103C5.03166 11.3042 5.73843 12.1357 6.67563 12.3295C6.96484 13.8111 7.8907 15.0649 9.15577 15.7989V16.066L5.77348 16.681C4.79349 16.8588 3.92279 17.4414 3.38356 18.2796L3.35263 18.3549L1.93858 17.8048V21.1361C1.08592 21.1361 0.392036 21.8299 0.392036 22.6826V24.7447C0.392036 25.5973 1.08592 26.2912 1.93858 26.2912V28.1904L11.7333 32L21.5281 28.1904V26.2912C22.3808 26.2912 23.0746 25.5973 23.0746 24.7447V22.6826C23.0746 21.8299 22.3808 21.1361 21.5281 21.1361ZM15.277 17.2898L17.5092 17.6955C18.1664 17.8151 18.7485 18.1945 19.1366 18.7348L14.149 20.6742L15.277 17.2898ZM10.2306 16.2717C10.7064 16.417 11.2106 16.4964 11.7333 16.4964C12.2561 16.4964 12.7602 16.417 13.2361 16.2717L11.7333 17.3986L10.2306 16.2717ZM10.9487 18.0987L9.89656 19.1503L9.21402 17.1032L9.54241 17.0439L10.9487 18.0987ZM13.9243 17.0444L14.2527 17.1037L13.5701 19.1508L12.518 18.0992L13.9243 17.0444ZM16.8885 11.198V9.42256C17.1952 9.60144 17.404 9.93034 17.404 10.3103C17.404 10.6902 17.1952 11.0191 16.8885 11.198ZM6.5782 11.198C6.27147 11.0191 6.06269 10.6902 6.06269 10.3103C6.06269 9.93034 6.27147 9.60144 6.5782 9.42256V11.198ZM6.5782 7.73271V8.32142C6.39468 8.36937 6.2225 8.44154 6.06269 8.53485V6.34752C6.06269 3.41631 8.44745 1.03103 11.3792 1.03103C12.7989 1.03103 14.1346 1.58417 15.1388 2.58839L15.5935 3.04359L15.7322 3.07762C16.7168 3.32352 17.404 4.20401 17.404 5.21855V8.53485C17.2442 8.44154 17.072 8.36885 16.8885 8.32142V7.73271H15.2538C13.8567 7.73271 12.5216 7.06563 11.6839 5.94851L11.274 5.40104L10.2497 6.42588C9.40631 7.26874 8.28558 7.73271 7.09372 7.73271H6.5782ZM7.60923 11.3413V8.74002C8.88203 8.62197 10.0631 8.06985 10.9786 7.15481L11.1792 6.95428C12.2128 8.09511 13.7016 8.76373 15.2538 8.76373H15.8574V11.3413C15.8574 13.6152 14.0073 15.4654 11.7333 15.4654C9.45941 15.4654 7.60923 13.6152 7.60923 11.3413ZM5.95752 17.6955L8.1897 17.2898L9.31764 20.6742L4.32902 18.7343C4.7172 18.1935 5.30024 17.8151 5.95752 17.6955ZM1.42306 24.7447V22.6826C1.42306 22.398 1.65453 22.1671 1.93858 22.1671C2.79124 22.1671 3.48512 22.861 3.48512 23.7136C3.48512 24.5663 2.79124 25.2602 1.93858 25.2602C1.65453 25.2602 1.42306 25.0292 1.42306 24.7447ZM11.2178 30.6927L2.96961 27.4856V26.0726C3.87846 25.6736 4.51615 24.7679 4.51615 23.7136C4.51615 22.6594 3.87846 21.7536 2.96961 21.3546V19.3122L11.2178 22.5197V30.6927ZM9.68727 20.8185L11.7333 18.7719L13.7794 20.818L11.7333 21.6139L9.68727 20.8185ZM20.4971 27.4851L12.2489 30.6921V22.5197L20.4971 19.3122V21.3546C19.5882 21.7536 18.9505 22.6594 18.9505 23.7136C18.9505 24.7679 19.5882 25.6736 20.4971 26.0726V27.4851ZM22.0436 24.7447C22.0436 25.0292 21.8121 25.2602 21.5281 25.2602C20.6754 25.2602 19.9816 24.5663 19.9816 23.7136C19.9816 22.861 20.6754 22.1671 21.5281 22.1671C21.8121 22.1671 22.0436 22.398 22.0436 22.6826V24.7447Z" fill="white"/>
</g>
<defs>
<clipPath id="clip0">
<rect width="23.4667" height="32" fill="white"/>
</clipPath>
</defs>
</svg>
