<svg width="30" height="30" viewBox="0 0 30 30" fill="none" xmlns="http://www.w3.org/2000/svg">
<path d="M25 0H7C5.777 0 4.7605 0.884 4.546 2.046C3.384 2.2605 2.5 3.277 2.5 4.5V27.5C2.5 28.8785 3.6215 30 5 30H23C24.223 30 25.2395 29.116 25.454 27.954C26.616 27.7395 27.5 26.723 27.5 25.5V2.5C27.5 1.1215 26.3785 0 25 0ZM24.5 27.5C24.5 28.327 23.827 29 23 29H5C4.173 29 3.5 28.327 3.5 27.5V4.5C3.5 3.673 4.173 3 5 3H20V7C20 7.2765 20.224 7.5 20.5 7.5H24.5V27.5ZM21 6.5V3.707L23.793 6.5H21ZM26.5 25.5C26.5 26.151 26.0805 26.701 25.5 26.908V7C25.5 6.8615 25.444 6.7365 25.353 6.646L20.854 2.147C20.7635 2.056 20.6385 2 20.5 2H5.592C5.799 1.4195 6.349 1 7 1H25C25.827 1 26.5 1.673 26.5 2.5V25.5Z" fill="white"/>
<path d="M14 7.5C10.14 7.5 7 10.64 7 14.5C7 18.36 10.14 21.5 14 21.5C17.86 21.5 21 18.36 21 14.5C21 10.64 17.86 7.5 14 7.5ZM14 20.5C10.6915 20.5 8 17.8085 8 14.5C8 11.1915 10.6915 8.5 14 8.5C17.3085 8.5 20 11.1915 20 14.5C20 17.8085 17.3085 20.5 14 20.5Z" fill="white"/>
<path d="M15.5853 11.2214L11.5852 17.2219L12.4174 17.7767L16.4175 11.7761L15.5853 11.2214Z" fill="white"/>
<path d="M16.5 14.5C15.673 14.5 15 15.173 15 16C15 16.827 15.673 17.5 16.5 17.5C17.327 17.5 18 16.827 18 16C18 15.173 17.327 14.5 16.5 14.5ZM16.5 16.5C16.2245 16.5 16 16.276 16 16C16 15.724 16.2245 15.5 16.5 15.5C16.7755 15.5 17 15.724 17 16C17 16.276 16.7755 16.5 16.5 16.5Z" fill="white"/>
<path d="M11.5 11.5C10.673 11.5 10 12.173 10 13C10 13.827 10.673 14.5 11.5 14.5C12.327 14.5 13 13.827 13 13C13 12.173 12.327 11.5 11.5 11.5ZM11.5 13.5C11.2245 13.5 11 13.276 11 13C11 12.724 11.2245 12.5 11.5 12.5C11.7755 12.5 12 12.724 12 13C12 13.276 11.7755 13.5 11.5 13.5Z" fill="white"/>
</svg>
