<svg width="32" height="32" viewBox="0 0 32 32" fill="none" xmlns="http://www.w3.org/2000/svg">
<path d="M30.8936 30.7498H25.5264L25.4936 15.389C25.4928 15.0442 25.2131 14.7653 24.8685 14.7653C24.8681 14.7653 24.8676 14.7653 24.8671 14.7653C24.5219 14.766 24.2426 15.0464 24.2434 15.3917L24.2762 30.7498H22.4606L22.4446 23.9155C22.4437 23.5708 22.1641 23.2919 21.8195 23.2919C21.819 23.2919 21.8185 23.2919 21.818 23.2919C21.4727 23.2927 21.1935 23.5732 21.1944 23.9184L21.2104 30.7498H19.6926V22.4772C21.462 22.3208 22.8532 20.8668 22.8532 19.1012V13.0435C22.8532 12.0802 22.6488 11.1361 22.2579 10.2641C23.4923 10.3465 24.6414 10.8488 25.5254 11.7024C26.4927 12.6365 27.0271 13.8786 27.0298 15.2006L27.0412 18.7578C27.0424 19.1024 27.322 19.3809 27.6663 19.3809C27.667 19.3809 27.6677 19.3809 27.6684 19.3809C28.0136 19.3798 28.2926 19.0991 28.2915 18.7538L28.2801 15.1973C28.2765 13.5347 27.6066 11.9742 26.3938 10.8031C25.7011 10.1341 24.8782 9.63869 23.9815 9.33813C24.6167 8.73356 25.0131 7.88044 25.0111 6.93644C25.0071 5.11506 23.5242 3.636 21.7036 3.636C21.7012 3.636 21.6988 3.636 21.6965 3.636C21.1661 3.63719 20.6387 3.76706 20.1714 4.01162C19.8656 4.17175 19.7474 4.5495 19.9075 4.85537C20.0677 5.16125 20.4455 5.27944 20.7512 5.11931C21.0454 4.96537 21.3643 4.88694 21.6992 4.88619C22.8354 4.88562 23.7585 5.80469 23.7609 6.93906C23.7634 8.07344 22.8424 8.99831 21.7081 9.00075C21.6811 9.00081 21.6548 9.00313 21.6289 9.0065C21.5956 9.00788 21.5623 9.00906 21.5289 9.01094C20.6258 7.77494 19.3579 6.87831 17.9139 6.42331C18.6806 5.75069 19.166 4.76487 19.166 3.66719C19.1657 1.64506 17.5207 0 15.4987 0C13.4766 0 11.8315 1.64506 11.8315 3.66719C11.8315 4.81806 12.3649 5.84631 13.1969 6.51912C11.8714 6.9975 10.7098 7.85444 9.86618 9.00737C9.76718 9.00294 9.66831 9.00031 9.56993 9.00031C9.52318 9.00031 9.47656 9.00106 9.43 9.00206C9.41856 9.00144 9.40731 9.00031 9.39575 9.00031C8.26137 9.00031 7.3385 8.07744 7.3385 6.94306C7.3385 5.80869 8.26137 4.88581 9.39575 4.88581C9.73862 4.88581 10.0778 4.97169 10.3766 5.13413C10.6799 5.29894 11.0594 5.18681 11.2244 4.8835C11.3892 4.58019 11.2771 4.20062 10.9737 4.03569C10.4922 3.77387 9.94656 3.6355 9.39568 3.6355C7.57193 3.6355 6.08818 5.11925 6.08818 6.943C6.08818 7.93612 6.52881 8.82775 7.22406 9.43456C4.86075 10.3459 3.18518 12.5916 3.18518 15.2108V18.7558C3.18518 19.1011 3.46506 19.3809 3.81031 19.3809C4.15556 19.3809 4.43543 19.1011 4.43543 18.7558V15.2108C4.43543 12.6183 6.50518 10.4854 9.13193 10.2699C8.74275 11.1402 8.53918 12.0822 8.53918 13.0435V19.1012C8.53918 20.9018 9.98587 22.3783 11.8051 22.4851V30.7497H10.1021V23.9167C10.1021 23.5715 9.82225 23.2916 9.477 23.2916C9.13175 23.2916 8.85187 23.5715 8.85187 23.9167V30.7498H7.31525V15.3966C7.31525 15.0514 7.03537 14.7715 6.69012 14.7715C6.34487 14.7715 6.065 15.0514 6.065 15.3966V30.7498H1.10637C0.761122 30.7498 0.481247 31.0296 0.481247 31.3749C0.481247 31.7201 0.761059 32 1.10637 32H30.8937C31.2389 32 31.5188 31.7201 31.5188 31.3749C31.5187 31.0296 31.2389 30.7498 30.8936 30.7498ZM13.0817 3.66719C13.0817 2.3345 14.1659 1.25025 15.4986 1.25025C16.8313 1.25025 17.9155 2.3345 17.9155 3.66719C17.9155 4.99988 16.8312 6.08413 15.4986 6.08413C14.166 6.08413 13.0817 4.99988 13.0817 3.66719ZM19.0674 12.6291C18.7222 12.6291 18.4423 12.909 18.4423 13.2542V30.7498H16.2159V22.0531C16.2159 21.7078 15.9361 21.4279 15.5908 21.4279C15.2456 21.4279 14.9657 21.7078 14.9657 22.0531V30.7498H13.0554V13.2542C13.0554 12.909 12.7755 12.6291 12.4302 12.6291C12.085 12.6291 11.8051 12.909 11.8051 13.2542V21.2318C10.6759 21.1293 9.78937 20.2131 9.78937 19.1013V13.0436C9.78937 11.9617 10.104 10.9086 10.6992 9.99831C11.79 8.33025 13.658 7.33437 15.6961 7.33437C17.7376 7.33437 19.6073 8.33281 20.6974 10.0052C21.2897 10.914 21.6029 11.9646 21.6029 13.0436V19.1013C21.6029 20.1783 20.771 21.0716 19.6926 21.2197V13.2542C19.6926 12.909 19.4127 12.6291 19.0674 12.6291Z" fill="white"/>
</svg>
