<svg width="32" height="32" viewBox="0 0 32 32" fill="none" xmlns="http://www.w3.org/2000/svg">
<path d="M26.3862 12.8103H24.787C24.5749 12.8103 24.3716 12.8945 24.2216 13.0445C24.0717 13.1944 23.9874 13.3978 23.9874 13.6099C23.9874 13.8219 24.0717 14.0253 24.2216 14.1753C24.3716 14.3252 24.5749 14.4095 24.787 14.4095H26.3862C26.5982 14.4095 26.8016 14.3252 26.9516 14.1753C27.1015 14.0253 27.1858 13.8219 27.1858 13.6099C27.1858 13.3978 27.1015 13.1944 26.9516 13.0445C26.8016 12.8945 26.5982 12.8103 26.3862 12.8103Z" fill="white"/>
<path d="M29.5845 3.21532H26.722L23.7476 0.256866C23.6893 0.152242 23.5999 0.068392 23.4917 0.0169918C23.3917 -0.00566395 23.2879 -0.00566395 23.1879 0.0169918H8.79539C8.69538 -0.00566395 8.59156 -0.00566395 8.49155 0.0169918C8.39176 0.0510869 8.30325 0.111936 8.23569 0.1929L5.26124 3.21532H2.39874C1.76256 3.21532 1.15243 3.46804 0.702576 3.91789C0.252724 4.36774 0 4.97787 0 5.61406V26.4032C0 27.0394 0.252724 27.6495 0.702576 28.0993C1.15243 28.5492 1.76256 28.8019 2.39874 28.8019H12.7933L15.352 31.7284C15.4285 31.8138 15.5221 31.8822 15.6268 31.929C15.7315 31.9758 15.8449 32 15.9596 32C16.0743 32 16.1877 31.9758 16.2925 31.929C16.3972 31.8822 16.4908 31.8138 16.5673 31.7284L19.1899 28.8019H29.5845C30.2207 28.8019 30.8308 28.5492 31.2807 28.0993C31.7305 27.6495 31.9832 27.0394 31.9832 26.4032V5.61406C31.9832 4.97787 31.7305 4.36774 31.2807 3.91789C30.8308 3.46804 30.2207 3.21532 29.5845 3.21532ZM16.4554 9.61196H15.5279L13.1291 7.21322L13.9287 6.41364H18.0545L18.8541 7.21322L16.4554 9.61196ZM18.0545 4.81448H13.9287L10.7304 1.61615H21.2529L18.0545 4.81448ZM19.5258 5.61406L23.1879 1.95198L25.2508 4.0149L21.5887 7.67698L19.5258 5.61406ZM8.79539 1.95198L12.4575 5.61406L10.3946 7.67698L6.73247 4.0149L8.79539 1.95198ZM2.39874 27.2027C2.18668 27.2027 1.9833 27.1185 1.83335 26.9686C1.6834 26.8186 1.59916 26.6152 1.59916 26.4032V5.61406C1.59916 5.402 1.6834 5.19862 1.83335 5.04867C1.9833 4.89872 2.18668 4.81448 2.39874 4.81448H5.26124L9.83485 9.37209C9.90663 9.44858 9.99334 9.50954 10.0896 9.55122C10.1859 9.59289 10.2897 9.61439 10.3946 9.61439C10.4995 9.61439 10.6032 9.59289 10.6995 9.55122C10.7958 9.50954 10.8825 9.44858 10.9543 9.37209L11.9937 8.34863L14.2805 10.6354L9.59497 24.5481C9.54995 24.6802 9.53955 24.8215 9.56474 24.9587C9.58994 25.0959 9.6499 25.2243 9.7389 25.3317L11.3381 27.2027H2.39874ZM15.9916 29.9853L11.2901 24.6281L15.7677 11.2111H16.2155L20.6932 24.6281L15.9916 29.9853ZM30.3841 26.4032C30.3841 26.6152 30.2998 26.8186 30.1499 26.9686C29.9999 27.1185 29.7966 27.2027 29.5845 27.2027H20.5492L22.1484 25.3317C22.2374 25.2243 22.2974 25.0959 22.3226 24.9587C22.3477 24.8215 22.3373 24.6802 22.2923 24.5481L17.6548 10.6354L19.9895 8.34863L21.029 9.37209C21.1008 9.44858 21.1875 9.50954 21.2837 9.55122C21.38 9.59289 21.4838 9.61439 21.5887 9.61439C21.6936 9.61439 21.7974 9.59289 21.8936 9.55122C21.9899 9.50954 22.0766 9.44858 22.1484 9.37209L26.722 4.81448H29.5845C29.7966 4.81448 29.9999 4.89872 30.1499 5.04867C30.2998 5.19862 30.3841 5.402 30.3841 5.61406V26.4032Z" fill="white"/>
</svg>