<svg width="56" height="56" viewBox="0 0 56 56" fill="none" xmlns="http://www.w3.org/2000/svg">
<path d="M51.7999 5.59998H44.7999V1.4C44.7999 1.02869 44.6524 0.6726 44.3898 0.41005C44.1273 0.147499 43.7712 0 43.3999 0C43.0286 0 42.6725 0.147499 42.4099 0.41005C42.1474 0.6726 41.9999 1.02869 41.9999 1.4V5.59998H14V1.4C14 1.02869 13.8525 0.6726 13.5899 0.41005C13.3274 0.147499 12.9713 0 12.6 0C12.2287 0 11.8726 0.147499 11.61 0.41005C11.3475 0.6726 11.2 1.02869 11.2 1.4V5.59998H4.19999C3.08608 5.59998 2.0178 6.04248 1.23015 6.83013C0.442498 7.61778 0 8.68607 0 9.79997V51.7999C0 52.9138 0.442498 53.982 1.23015 54.7697C2.0178 55.5573 3.08608 55.9998 4.19999 55.9998H51.7999C52.9138 55.9998 53.982 55.5573 54.7697 54.7697C55.5573 53.982 55.9998 52.9138 55.9998 51.7999V9.79997C55.9998 8.68607 55.5573 7.61778 54.7697 6.83013C53.982 6.04248 52.9138 5.59998 51.7999 5.59998ZM53.1998 51.7999C53.1998 52.1712 53.0524 52.5273 52.7898 52.7898C52.5273 53.0524 52.1712 53.1998 51.7999 53.1998H4.19999C3.82869 53.1998 3.47259 53.0524 3.21004 52.7898C2.94749 52.5273 2.79999 52.1712 2.79999 51.7999V9.79997C2.79999 9.42867 2.94749 9.07258 3.21004 8.81003C3.47259 8.54748 3.82869 8.39998 4.19999 8.39998H11.2V9.79997C11.2 10.1713 11.3475 10.5274 11.61 10.7899C11.8726 11.0525 12.2287 11.2 12.6 11.2C12.9713 11.2 13.3274 11.0525 13.5899 10.7899C13.8525 10.5274 14 10.1713 14 9.79997V8.39998H41.9999V9.79997C41.9999 10.1713 42.1474 10.5274 42.4099 10.7899C42.6725 11.0525 43.0286 11.2 43.3999 11.2C43.7712 11.2 44.1273 11.0525 44.3898 10.7899C44.6524 10.5274 44.7999 10.1713 44.7999 9.79997V8.39998H51.7999C52.1712 8.39998 52.5273 8.54748 52.7898 8.81003C53.0524 9.07258 53.1998 9.42867 53.1998 9.79997V51.7999Z" fill="white"/>
<path d="M23.7999 22.4001H9.7999C9.4286 22.4001 9.0725 22.5476 8.80995 22.8102C8.5474 23.0727 8.3999 23.4288 8.3999 23.8001C8.3999 24.1714 8.5474 24.5275 8.80995 24.7901C9.0725 25.0526 9.4286 25.2001 9.7999 25.2001H23.7999C24.1712 25.2001 24.5273 25.0526 24.7898 24.7901C25.0524 24.5275 25.1999 24.1714 25.1999 23.8001C25.1999 23.4288 25.0524 23.0727 24.7898 22.8102C24.5273 22.5476 24.1712 22.4001 23.7999 22.4001Z" fill="white"/>
<path d="M45.2201 17.2201L37.8001 24.6121L33.1801 20.0201C32.9202 19.7602 32.5677 19.6142 32.2001 19.6142C31.8326 19.6142 31.48 19.7602 31.2201 20.0201C30.9602 20.28 30.8142 20.6326 30.8142 21.0001C30.8142 21.3677 30.9602 21.7202 31.2201 21.9801L36.8201 27.5801C36.9458 27.714 37.0976 27.8208 37.2662 27.8937C37.4347 27.9667 37.6164 28.0044 37.8001 28.0044C37.9838 28.0044 38.1655 27.9667 38.3341 27.8937C38.5026 27.8208 38.6544 27.714 38.7801 27.5801L47.1801 19.1801C47.3088 19.0514 47.4109 18.8987 47.4805 18.7305C47.5502 18.5624 47.586 18.3821 47.586 18.2001C47.586 18.0181 47.5502 17.8379 47.4805 17.6698C47.4109 17.5016 47.3088 17.3488 47.1801 17.2201C47.0514 17.0914 46.8986 16.9894 46.7305 16.9197C46.5623 16.8501 46.3821 16.8142 46.2001 16.8142C46.0181 16.8142 45.8379 16.8501 45.6697 16.9197C45.5016 16.9894 45.3488 17.0914 45.2201 17.2201Z" fill="white"/>
<path d="M23.7999 42H9.7999C9.4286 42 9.0725 42.1475 8.80995 42.41C8.5474 42.6726 8.3999 43.0287 8.3999 43.4C8.3999 43.7713 8.5474 44.1274 8.80995 44.3899C9.0725 44.6525 9.4286 44.8 9.7999 44.8H23.7999C24.1712 44.8 24.5273 44.6525 24.7898 44.3899C25.0524 44.1274 25.1999 43.7713 25.1999 43.4C25.1999 43.0287 25.0524 42.6726 24.7898 42.41C24.5273 42.1475 24.1712 42 23.7999 42Z" fill="white"/>
<path d="M45.2201 36.82L37.8001 44.212L33.1801 39.62C32.9202 39.3601 32.5677 39.2141 32.2001 39.2141C31.8326 39.2141 31.48 39.3601 31.2201 39.62C30.9602 39.8799 30.8142 40.2324 30.8142 40.6C30.8142 40.9675 30.9602 41.3201 31.2201 41.58L36.8201 47.18C36.9458 47.3139 37.0976 47.4206 37.2662 47.4936C37.4347 47.5666 37.6164 47.6042 37.8001 47.6042C37.9838 47.6042 38.1655 47.5666 38.3341 47.4936C38.5026 47.4206 38.6544 47.3139 38.7801 47.18L47.1801 38.78C47.3088 38.6513 47.4109 38.4985 47.4805 38.3304C47.5502 38.1622 47.586 37.982 47.586 37.8C47.586 37.618 47.5502 37.4378 47.4805 37.2696C47.4109 37.1015 47.3088 36.9487 47.1801 36.82C47.0514 36.6913 46.8986 36.5892 46.7305 36.5196C46.5623 36.4499 46.3821 36.4141 46.2001 36.4141C46.0181 36.4141 45.8379 36.4499 45.6697 36.5196C45.5016 36.5892 45.3488 36.6913 45.2201 36.82Z" fill="white"/>
</svg>
