<svg width="30" height="30" viewBox="0 0 30 30" fill="none" xmlns="http://www.w3.org/2000/svg">
<path d="M15.0007 -0.000976562L14.4089 0.0224609L13.823 0.0927734L13.2429 0.207031L12.6746 0.365234L12.1179 0.570312L11.5818 0.816406L11.0662 1.10352L10.574 1.43164L10.1082 1.79492L9.67456 2.19629L9.27319 2.62988L8.90698 3.08984L8.57886 3.5791L8.28882 4.09473L8.03979 4.62793L7.83765 5.18164L7.67651 5.75L7.55933 6.32715L7.49194 6.91309L7.46851 7.49902L7.49194 8.41895L7.5564 9.33594L7.67065 10.2471L7.82886 11.1523L8.03101 12.0488L8.2771 12.9365L8.56421 13.8066L8.89526 14.665L9.27026 15.5029L9.68335 16.3262L9.95874 16.7891L10.2722 17.2256L10.366 17.3721L10.4216 17.5332L10.4363 17.7061L10.4128 17.8789L10.3484 18.0371L10.2546 18.1807L10.1257 18.2949L9.9734 18.3799L9.80933 18.4297L8.72828 18.6289L7.65894 18.8633L6.59547 19.1328L5.54371 19.4404L4.50367 19.7861L3.47535 20.167L3.0564 20.3545L2.66089 20.583L2.28882 20.8525L1.94605 21.1543L1.63843 21.4912L1.36597 21.8545L1.1316 22.2471L0.935303 22.6602L0.668701 23.3662L0.443115 24.084L0.258545 24.8135L0.11499 25.5518L0.0124512 26.2959L0.000732422 26.6035L0.0300293 26.9053L0.100342 27.2012L0.20874 27.4854L0.355225 27.752L0.533935 27.998L0.750732 28.2148L0.988037 28.4023L1.25464 28.5547L1.53589 28.6748L1.83179 28.7481L3.56909 29.0615L5.31519 29.3281L7.06714 29.5508L8.82495 29.7295L10.5857 29.8643L12.3523 29.9551L14.1189 29.999H15.6892L14.1892 28.499H14.1335L12.408 28.4551L10.6824 28.3672L8.95972 28.2383L7.23706 28.0625L5.52612 27.8428L3.81519 27.582L2.11597 27.2773L1.94019 27.2188L1.77905 27.1221L1.65308 26.9844L1.56226 26.8262L1.51245 26.6445L1.50953 26.46L1.60328 25.7949L1.72925 25.1416L1.89332 24.4912L2.09253 23.8525L2.32984 23.2256L2.48218 22.915L2.66675 22.6162L2.88355 22.3467L3.13257 22.1035L3.40796 21.8897L3.70679 21.708L4.0232 21.5645L5.00171 21.2012L5.99195 20.8731L6.9939 20.5801L8.00757 20.3223L9.0271 20.0996L10.0525 19.9092L10.3777 19.8301L10.6882 19.7041L10.9783 19.5342L11.2361 19.3232L11.4587 19.0772L11.6492 18.8018L11.7898 18.5L11.8865 18.1807L11.9363 17.8525V17.5186L11.8835 17.1904L11.7869 16.8711L11.6433 16.5693L11.4558 16.294L11.2185 15.9658L11.0134 15.6201L10.6296 14.8643L10.2869 14.0908L9.98218 13.3027L9.71851 12.5L9.49292 11.6855L9.30542 10.8594L9.16187 10.0273L9.0564 9.18945L8.99487 8.3457L8.97144 7.50195L8.9978 6.97754L9.06519 6.45898L9.17944 5.94922L9.33765 5.44824L9.53979 4.96484L9.78003 4.49902L10.0642 4.05957L10.3835 3.64355L10.738 3.25684L11.1277 2.90234L11.5437 2.58594L11.9861 2.30469L12.4519 2.06152L12.9382 1.8623L13.4392 1.7041L13.9548 1.59277L14.4763 1.52246L14.9978 1.49902L15.5251 1.52246L16.0466 1.59277L16.5593 1.7041L17.0603 1.86231L17.5466 2.06152L18.0154 2.30469L18.4578 2.58594L18.8738 2.90234L19.2634 3.25684L19.615 3.64355L19.9373 4.05957L20.2214 4.49902L20.4617 4.96484L20.6638 5.44824L20.822 5.94922L20.9363 6.45898L21.0037 6.97754L21.0271 7.50195L21.0066 8.3457L20.9451 9.18945L20.8396 10.0273L20.6931 10.8594L20.5086 11.6855L20.283 12.5L20.0193 13.3027L19.7117 14.0908L19.3689 14.8643L18.988 15.6201L18.783 15.9658L18.5457 16.2939L18.3552 16.5693L18.2146 16.8711L18.115 17.1904L18.0623 17.5186V17.8525L18.1121 18.1807L18.2087 18.5L18.3523 18.8018L18.5398 19.0771L18.7624 19.3232L19.0232 19.5342L19.3132 19.7041L19.6238 19.8301L19.946 19.9092L20.9743 20.0996L21.9939 20.3223L23.0046 20.5801L23.4704 20.7178L24.6745 19.5137L24.4578 19.4404L23.406 19.1328L22.3454 18.8633L21.2761 18.6289L20.1951 18.4297L20.0281 18.3799L19.8757 18.2949L19.7497 18.1807L19.6531 18.0371L19.5916 17.8789L19.5652 17.7061L19.5828 17.5332L19.6384 17.3721L19.7293 17.2256L20.0457 16.7891L20.3211 16.3262L20.7341 15.5029L21.1062 14.665L21.4373 13.8066L21.7273 12.9365L21.9734 12.0488L22.1755 11.1523L22.3308 10.2471L22.4451 9.33594L22.5124 8.41895L22.533 7.49902L22.5124 6.91309L22.4421 6.32715L22.325 5.75L22.1667 5.18164L21.9617 4.62793L21.7126 4.09473L21.4255 3.5791L21.0974 3.08984L20.7283 2.62988L20.3298 2.19629L19.8962 1.79492L19.4304 1.43164L18.9382 1.10352L18.4197 0.816406L17.8835 0.570312L17.3298 0.365234L16.7615 0.207031L16.1785 0.0927734L15.5925 0.0224609L15.0007 -0.000976562ZM29.2273 19.4932C29.0327 19.4986 28.8477 19.5795 28.7117 19.7188L20.2419 28.1885L16.2722 24.2188C15.5653 23.4825 14.4755 24.5724 15.2117 25.2793L19.7117 29.7793C20.0046 30.0721 20.4793 30.0721 20.7722 29.7793L29.7722 20.7793C30.2601 20.3023 29.9094 19.4745 29.2273 19.4932Z" fill="white"/>
</svg>
