<svg width="44" height="44" viewBox="0 0 44 44" fill="none" xmlns="http://www.w3.org/2000/svg">
<path d="M20.1266 14.3858C20.2985 14.5748 20.5391 14.6608 20.7625 14.6608C20.986 14.6608 21.2094 14.5748 21.3641 14.4201L26.0906 9.93419C26.4516 9.59044 26.4688 9.04044 26.125 8.6795C25.7813 8.31857 25.2313 8.30138 24.8703 8.64513L20.7969 12.5295L19.1469 10.8108C18.8032 10.4498 18.2532 10.4498 17.8922 10.7936C17.5313 11.1373 17.5313 11.6873 17.875 12.0483L20.1266 14.3858Z" fill="white"/>
<path d="M14.025 15.9499C14.7641 19.7655 18.1156 22.5327 22 22.5327C25.8844 22.5327 29.2359 19.7655 29.975 15.9499L31.0922 10.2093C31.4188 7.76865 30.6797 5.31084 29.0641 3.45459C27.4484 1.59834 25.1109 0.532715 22.6531 0.532715H21.3469C18.8891 0.532715 16.5516 1.59834 14.9359 3.45459C13.3203 5.31084 12.5813 7.76865 12.925 10.2437L14.025 15.9499ZM16.2594 4.62334C17.5313 3.1624 19.3875 2.32021 21.3297 2.32021H22.6359C24.5781 2.32021 26.4344 3.1624 27.7063 4.62334C28.9781 6.08428 29.5625 8.04365 29.3219 9.91709L28.2219 15.6062C27.6375 18.5796 25.025 20.7452 21.9828 20.7452C18.9406 20.7452 16.3281 18.5796 15.7438 15.6062L14.6438 9.95147C14.4031 8.02647 14.9875 6.08428 16.2594 4.62334Z" fill="white"/>
<path d="M41.7828 41.2844L39.3766 29.975C39.1531 28.9438 38.4141 28.1016 37.4172 27.7406L29.7 25.0078C29.3906 24.9047 29.0469 24.9734 28.8063 25.1969L22 31.5563L15.1938 25.1969C14.9531 24.9734 14.6094 24.9047 14.3 25.0078L6.58282 27.7406C5.60313 28.0844 4.84688 28.9438 4.62345 29.975L2.2172 41.2844C2.09688 41.8172 2.23438 42.3672 2.57813 42.7969C2.92188 43.2266 3.43751 43.4672 3.98751 43.4672H40.0125C40.5625 43.4672 41.0781 43.2266 41.4219 42.7969C41.7656 42.3672 41.8859 41.8172 41.7828 41.2844ZM3.95313 41.6625L6.35938 30.3531C6.44532 29.9234 6.7547 29.5625 7.1672 29.425L14.3859 26.8641L21.3984 33.4125C21.7422 33.7391 22.275 33.7391 22.6016 33.4125L29.6141 26.8641L36.8156 29.425C37.2281 29.5797 37.5375 29.9234 37.6234 30.3531L39.9953 41.6969L3.95313 41.6625Z" fill="white"/>
</svg>
