<svg width="32" height="32" viewBox="0 0 32 32" fill="none" xmlns="http://www.w3.org/2000/svg">
<path d="M28.2286 29.2001C25.3714 28.1715 22.8571 27.4858 20.5714 27.0286V24.8572C24.6857 24.4572 27.8857 20.9715 27.8857 16.8001C27.8857 12.3429 24.2286 8.68578 19.7714 8.68578C19.0857 8.68578 18.4571 8.74293 17.8286 8.91436C16.8571 4.80007 13.4286 1.71436 11.0286 1.71436C8.28571 1.71436 4.05714 5.82864 4.05714 10.9715C4.05714 15.8286 6.91429 19.7715 10.4571 20.1715V26.5144C5.71429 27.2001 3.71429 29.1429 3.54286 29.3144C3.31429 29.5429 3.31429 29.8858 3.54286 30.1144C3.77143 30.3429 4.11429 30.3429 4.34286 30.1144C4.4 30.0572 10.5143 24.0572 27.7714 30.2286C27.8286 30.2286 27.8857 30.2858 27.9429 30.2858C28.1714 30.2858 28.4 30.1144 28.4571 29.8858C28.6857 29.6001 28.5143 29.2572 28.2286 29.2001ZM19.7143 9.7715C23.5429 9.7715 26.6857 12.9144 26.6857 16.7429C26.6857 20.3429 24 23.2572 20.5143 23.6572V21.6001L24.4571 17.6572C24.6857 17.4286 24.6857 17.0858 24.4571 16.8572C24.2286 16.6286 23.8857 16.6286 23.6571 16.8572L20.5143 20.0001V14.2286C20.5143 13.8858 20.2857 13.6572 19.9429 13.6572C19.6 13.6572 19.3714 13.8858 19.3714 14.2286V20.0001L17.6571 18.2858C17.4286 18.0572 17.0857 18.0572 16.8571 18.2858C16.6286 18.5144 16.6286 18.8572 16.8571 19.0858L19.3714 21.6001V23.6572C16.7429 23.5429 14.4571 21.9429 13.3714 19.6001C16.0571 18.3429 18 14.9144 18 10.9144C18 10.5715 18 10.2858 17.9429 9.94293C18.5714 9.82864 19.1429 9.7715 19.7143 9.7715ZM5.2 10.9715C5.2 6.5715 8.8 2.85721 11.0286 2.85721C13.2571 2.85721 16.9143 6.5715 16.9143 10.9715C16.9143 15.1429 14.5714 18.6286 11.6 19.0286V17.6001L14.5143 14.6858C14.7429 14.4572 14.7429 14.1144 14.5143 13.8858C14.2857 13.6572 13.9429 13.6572 13.7143 13.8858L11.6 16.0001V14.5715V12.5715L14.5714 9.60007C14.8 9.3715 14.8 9.02864 14.5714 8.80007C14.3429 8.5715 14 8.5715 13.7714 8.80007L11.6 10.9715V8.34293C11.6 8.00007 11.3714 7.7715 11.0286 7.7715C10.6857 7.7715 10.4571 8.00007 10.4571 8.34293V13.0858L7.77143 10.4001C7.54286 10.1715 7.2 10.1715 6.97143 10.4001C6.74286 10.6286 6.74286 10.9715 6.97143 11.2001L10.4571 14.6858V18.9715C7.48571 18.6286 5.2 15.1429 5.2 10.9715ZM11.6 26.3429V20.1715C11.8286 20.1715 12.0571 20.1144 12.2857 20.0572C13.5429 22.8572 16.2857 24.7429 19.3714 24.9144V26.8572C16.2857 26.2286 13.7143 26.1715 11.6 26.3429Z" fill="white"/>
</svg>
