<?xml version="1.0" encoding="utf-8"?>
<!-- Generator: Adobe Illustrator 19.2.1, SVG Export Plug-In . SVG Version: 6.00 Build 0)  -->
<svg version="1.1" id="Layer_1" xmlns="http://www.w3.org/2000/svg" xmlns:xlink="http://www.w3.org/1999/xlink" x="0px" y="0px"
	 viewBox="0 0 61.7 61.7" style="enable-background:new 0 0 61.7 61.7;" xml:space="preserve">
<style type="text/css">
	.st0{fill:#FFFFFF;}
</style>
<path class="st0" d="M52.7,9c-5.5-5.5-12.8-8.7-20.5-9v3h0.1c2.9,0.7,5.7,3.3,7.9,7.7c0.6,1.2,1.1,2.4,1.6,3.8v0.1h-0.1
	c-3,1.2-6.2,2-9.4,2.1h-0.1v2.6h0.1c3.5-0.2,6.9-0.9,10.2-2.2h0.1v0.1c1.1,3.8,1.6,7.9,1.7,12.3v0.1H32.2v2.6h12.2v0.1
	c-0.1,4.4-0.7,8.6-1.8,12.4v0.1h-0.1c-3.3-1.3-6.7-2.1-10.2-2.2h-0.1V32.2h-2.6v10.3h-0.1c-3.5,0.1-7,0.9-10.2,2.2h-0.1v-0.1
	c-1.1-3.8-1.7-8-1.8-12.4v-0.1h-2.6v0.1c0.1,4.8,0.8,9.4,2,13.5v0.1h-0.1c-2.3,1.2-4.4,2.7-6.3,4.4l-0.1,0.1l-0.1-0.1
	c-4.6-4.9-7.3-11.3-7.7-18v-0.1H0c0.3,7.8,3.5,15,9,20.5c5.8,5.8,13.6,9,21.8,9c8.3,0,16-3.2,21.8-9s9-13.6,9-21.8
	C61.7,22.6,58.5,14.9,52.7,9z M23.2,58.1c-4-1.1-7.8-3.2-10.9-5.9l-0.1-0.1l0.1-0.1c1.6-1.4,3.4-2.6,5.3-3.6l0.1-0.1v0.1
	c0.5,1.4,1,2.6,1.6,3.7c1.2,2.3,2.5,4.3,4.1,5.8l0.3,0.3L23.2,58.1z M29.6,58.7h-0.1c-2.9-0.7-5.7-3.3-7.9-7.7
	c-0.6-1.1-1.1-2.4-1.6-3.7v-0.1h0.1c3-1.2,6.2-2,9.4-2.1h0.1V58.7z M51.4,11.5L51.4,11.5c4.6,5,7.3,11.3,7.7,18v0.1H46.9v-0.1
	c-0.1-4.7-0.8-9.4-2-13.4V16H45C47.3,14.8,49.4,13.3,51.4,11.5L51.4,11.5z M44.2,13.4l-0.1,0.1L44.2,13.4c-0.6-1.3-1.1-2.6-1.7-3.8
	c-1.2-2.4-2.6-4.3-4.1-5.8l-0.3-0.3l0.4,0.1c4,1.1,7.8,3.2,11,6l0.1,0.1l-0.1,0.1C47.9,11.1,46.2,12.4,44.2,13.4z M32.3,58.7
	L32.3,58.7l-0.1-13.6h0.1c3.3,0.2,6.5,0.9,9.4,2.1h0.1v0.1c-0.5,1.3-1,2.6-1.6,3.7C37.9,55.4,35.2,58.1,32.3,58.7z M49.5,52.2
	c-3.1,2.8-6.9,4.8-10.9,5.9l-0.4,0.1l0.3-0.3c1.5-1.5,2.9-3.4,4.1-5.8c0.6-1.1,1.1-2.3,1.6-3.7v-0.1l0.1,0.1c1.9,1,3.6,2.2,5.3,3.6
	L49.5,52.2L49.5,52.2z M51.5,50.2L51.5,50.2L51.5,50.2c-2-1.7-4.2-3.2-6.4-4.4H45v-0.1c1.2-4.1,1.9-8.8,2-13.5v-0.1h12.2v0.1
	C58.8,39,56.1,45.3,51.5,50.2z"/>
<path class="st0" d="M32.2,29.6V19.3v-2.6V3V0c-0.4,0-0.9,0-1.3,0C22.6,0,14.9,3.2,9,9c-5.8,5.8-9,13.6-9,21.8c0,0.4,0,0.9,0,1.3
	h2.6h12.2h2.6h12.2h2.6C32.2,32.1,32.2,29.6,32.2,29.6z M16.8,16c-1.2,4.1-1.9,8.8-2,13.4v0.1H2.6v-0.1c0.3-6.7,3-13,7.6-17.9
	l0.1-0.1l0.1,0.1c1.9,1.7,4.1,3.2,6.4,4.4L16.8,16L16.8,16z M12.2,9.8L12.2,9.8V9.6c3.2-2.8,7-4.8,11-6l0.4-0.1l-0.3,0.3
	c-1.5,1.5-2.8,3.4-4.1,5.8c-0.6,1.2-1.1,2.5-1.6,3.8v0.1l-0.1-0.1C15.6,12.4,13.8,11.2,12.2,9.8z M29.6,29.6H17.4v-0.1
	c0.1-4.4,0.7-8.5,1.7-12.3v-0.1h0.1c3.3,1.3,6.7,2.1,10.2,2.2h0.1L29.6,29.6L29.6,29.6z M29.6,16.7h-0.1c-3.3-0.2-6.5-0.9-9.4-2.1
	H20v-0.1c0.5-1.3,1-2.6,1.6-3.8c2.2-4.4,4.9-7.1,7.9-7.7h0.1V16.7z"/>
</svg>
