<svg width="32" height="30" viewBox="0 0 32 30" fill="none" xmlns="http://www.w3.org/2000/svg">
<path d="M28.0373 19.3013C27.1375 21.7813 25.4934 23.9227 23.3299 25.4325C21.1664 26.9423 18.5892 27.7467 15.951 27.7356C13.3128 27.7245 10.7425 26.8985 8.59173 25.3706C6.44099 23.8426 4.81491 21.6875 3.936 19.2" stroke="white" stroke-width="1.5" stroke-linecap="round" stroke-linejoin="round"/>
<path d="M3.96268 10.5495C4.85978 8.06266 6.50487 5.91464 8.67195 4.40048C10.839 2.88632 13.4218 2.08031 16.0654 2.09317C18.7091 2.10603 21.2839 2.93713 23.4361 4.47229C25.5884 6.00746 27.2125 8.17138 28.0853 10.6668" stroke="white" stroke-width="1.5" stroke-linecap="round" stroke-linejoin="round"/>
<path d="M21.504 19.376C20.6773 24.256 18.5227 27.7333 16 27.7333C13.4773 27.7333 11.296 24.208 10.48 19.2747" stroke="white" stroke-width="1.5" stroke-linecap="round" stroke-linejoin="round"/>
<path d="M10.4533 10.6666C11.248 5.6533 13.4293 2.1333 16 2.1333C18.5707 2.1333 20.72 5.6853 21.5307 10.6666" stroke="white" stroke-width="1.5" stroke-linecap="round" stroke-linejoin="round"/>
<path d="M29.8667 10.6667H2.13335C1.54424 10.6667 1.06668 11.1443 1.06668 11.7334V18.1334C1.06668 18.7225 1.54424 19.2001 2.13335 19.2001H29.8667C30.4558 19.2001 30.9333 18.7225 30.9333 18.1334V11.7334C30.9333 11.1443 30.4558 10.6667 29.8667 10.6667Z" stroke="white" stroke-width="1.5" stroke-linecap="round" stroke-linejoin="round"/>
<path d="M13.3707 13.6748L14.6827 16.6348L16 14.2935L17.3173 16.6348L18.6293 13.6748" stroke="white" stroke-width="1.5" stroke-linecap="round" stroke-linejoin="round"/>
<path d="M5.90399 13.6748L7.21599 16.6348L8.53333 14.2935L9.85066 16.6348L11.1627 13.6748" stroke="white" stroke-width="1.5" stroke-linecap="round" stroke-linejoin="round"/>
<path d="M20.8373 13.6748L22.1493 16.6348L23.4667 14.2935L24.784 16.6348L26.096 13.6748" stroke="white" stroke-width="1.5" stroke-linecap="round" stroke-linejoin="round"/>
</svg>
