<svg width="1062" height="412" viewBox="0 0 1062 412" fill="none" xmlns="http://www.w3.org/2000/svg">
<path d="M1034.76 12.4365C1034.76 12.0173 1034.61 11.6641 1034.31 11.377C1034.02 11.0898 1033.53 10.8301 1032.83 10.5977C1031.86 10.3014 1031.15 9.91634 1030.7 9.44238C1030.26 8.96387 1030.04 8.35775 1030.04 7.62402C1030.04 6.87663 1030.26 6.26367 1030.69 5.78516C1031.13 5.30664 1031.73 5.02181 1032.49 4.93066V3.43359H1033.51V4.9375C1034.27 5.04232 1034.87 5.36361 1035.29 5.90137C1035.72 6.43913 1035.93 7.17513 1035.93 8.10938H1034.68C1034.68 7.4668 1034.52 6.95638 1034.22 6.57812C1033.91 6.19987 1033.5 6.01074 1032.98 6.01074C1032.44 6.01074 1032.02 6.15202 1031.74 6.43457C1031.45 6.71257 1031.31 7.10221 1031.31 7.60352C1031.31 8.06836 1031.46 8.43978 1031.76 8.71777C1032.06 8.99121 1032.56 9.24186 1033.25 9.46973C1033.95 9.69303 1034.49 9.94141 1034.88 10.2148C1035.27 10.4837 1035.56 10.7982 1035.74 11.1582C1035.93 11.5182 1036.02 11.9398 1036.02 12.4229C1036.02 13.193 1035.79 13.8128 1035.33 14.2822C1034.87 14.7516 1034.22 15.0296 1033.38 15.1162V16.4219H1032.37V15.1162C1031.52 15.0387 1030.86 14.738 1030.38 14.2139C1029.9 13.6852 1029.66 12.9697 1029.66 12.0674H1030.92C1030.92 12.7008 1031.09 13.1885 1031.42 13.5303C1031.75 13.8721 1032.23 14.043 1032.84 14.043C1033.43 14.043 1033.9 13.8994 1034.25 13.6123C1034.59 13.3252 1034.76 12.9333 1034.76 12.4365ZM1041.75 15H1040.48V6.57129L1037.93 7.50781V6.35938L1041.55 4.99902H1041.75V15ZM1046.04 10.0098L1046.54 5.04688H1051.64V6.21582H1047.62L1047.32 8.92969C1047.8 8.64258 1048.36 8.49902 1048.98 8.49902C1049.88 8.49902 1050.6 8.7998 1051.14 9.40137C1051.67 9.99837 1051.94 10.8073 1051.94 11.8281C1051.94 12.8535 1051.66 13.6624 1051.1 14.2549C1050.55 14.8428 1049.78 15.1367 1048.79 15.1367C1047.91 15.1367 1047.19 14.8929 1046.63 14.4053C1046.08 13.9176 1045.76 13.2432 1045.68 12.3818H1046.88C1046.96 12.9515 1047.16 13.3822 1047.49 13.6738C1047.81 13.9609 1048.25 14.1045 1048.79 14.1045C1049.37 14.1045 1049.83 13.904 1050.17 13.5029C1050.5 13.1019 1050.67 12.5482 1050.67 11.8418C1050.67 11.1764 1050.49 10.6432 1050.13 10.2422C1049.77 9.83659 1049.28 9.63379 1048.68 9.63379C1048.13 9.63379 1047.7 9.75456 1047.38 9.99609L1047.05 10.2695L1046.04 10.0098ZM1059.56 10.7549C1059.56 12.236 1059.31 13.3366 1058.8 14.0566C1058.29 14.7767 1057.5 15.1367 1056.43 15.1367C1055.37 15.1367 1054.58 14.7858 1054.07 14.084C1053.56 13.3776 1053.29 12.3249 1053.28 10.9258V9.2373C1053.28 7.77441 1053.53 6.6875 1054.04 5.97656C1054.54 5.26562 1055.33 4.91016 1056.41 4.91016C1057.49 4.91016 1058.27 5.25423 1058.78 5.94238C1059.29 6.62598 1059.55 7.68327 1059.56 9.11426V10.7549ZM1058.29 9.02539C1058.29 7.95443 1058.14 7.17513 1057.84 6.6875C1057.54 6.19531 1057.07 5.94922 1056.41 5.94922C1055.77 5.94922 1055.3 6.19303 1055 6.68066C1054.7 7.16829 1054.55 7.91797 1054.54 8.92969V10.9531C1054.54 12.0286 1054.7 12.8239 1055.01 13.3389C1055.32 13.8493 1055.79 14.1045 1056.43 14.1045C1057.05 14.1045 1057.52 13.863 1057.82 13.3799C1058.12 12.8968 1058.28 12.1357 1058.29 11.0967V9.02539Z" fill="#A8B0C1"/>
<path d="M1034.76 133.437C1034.76 133.017 1034.61 132.664 1034.31 132.377C1034.02 132.09 1033.53 131.83 1032.83 131.598C1031.86 131.301 1031.15 130.916 1030.7 130.442C1030.26 129.964 1030.04 129.358 1030.04 128.624C1030.04 127.877 1030.26 127.264 1030.69 126.785C1031.13 126.307 1031.73 126.022 1032.49 125.931V124.434H1033.51V125.938C1034.27 126.042 1034.87 126.364 1035.29 126.901C1035.72 127.439 1035.93 128.175 1035.93 129.109H1034.68C1034.68 128.467 1034.52 127.956 1034.22 127.578C1033.91 127.2 1033.5 127.011 1032.98 127.011C1032.44 127.011 1032.02 127.152 1031.74 127.435C1031.45 127.713 1031.31 128.102 1031.31 128.604C1031.31 129.068 1031.46 129.44 1031.76 129.718C1032.06 129.991 1032.56 130.242 1033.25 130.47C1033.95 130.693 1034.49 130.941 1034.88 131.215C1035.27 131.484 1035.56 131.798 1035.74 132.158C1035.93 132.518 1036.02 132.94 1036.02 133.423C1036.02 134.193 1035.79 134.813 1035.33 135.282C1034.87 135.752 1034.22 136.03 1033.38 136.116V137.422H1032.37V136.116C1031.52 136.039 1030.86 135.738 1030.38 135.214C1029.9 134.685 1029.66 133.97 1029.66 133.067H1030.92C1030.92 133.701 1031.09 134.188 1031.42 134.53C1031.75 134.872 1032.23 135.043 1032.84 135.043C1033.43 135.043 1033.9 134.899 1034.25 134.612C1034.59 134.325 1034.76 133.933 1034.76 133.437ZM1041.75 136H1040.48V127.571L1037.93 128.508V127.359L1041.55 125.999H1041.75V136ZM1051.7 131.755C1051.7 133.236 1051.44 134.337 1050.94 135.057C1050.43 135.777 1049.64 136.137 1048.57 136.137C1047.5 136.137 1046.72 135.786 1046.21 135.084C1045.7 134.378 1045.43 133.325 1045.42 131.926V130.237C1045.42 128.774 1045.67 127.688 1046.17 126.977C1046.68 126.266 1047.47 125.91 1048.55 125.91C1049.62 125.91 1050.41 126.254 1050.92 126.942C1051.42 127.626 1051.68 128.683 1051.7 130.114V131.755ZM1050.43 130.025C1050.43 128.954 1050.28 128.175 1049.98 127.688C1049.68 127.195 1049.2 126.949 1048.55 126.949C1047.91 126.949 1047.43 127.193 1047.14 127.681C1046.84 128.168 1046.69 128.918 1046.68 129.93V131.953C1046.68 133.029 1046.84 133.824 1047.14 134.339C1047.46 134.849 1047.93 135.104 1048.57 135.104C1049.19 135.104 1049.65 134.863 1049.95 134.38C1050.26 133.897 1050.42 133.136 1050.43 132.097V130.025ZM1059.56 131.755C1059.56 133.236 1059.31 134.337 1058.8 135.057C1058.29 135.777 1057.5 136.137 1056.43 136.137C1055.37 136.137 1054.58 135.786 1054.07 135.084C1053.56 134.378 1053.29 133.325 1053.28 131.926V130.237C1053.28 128.774 1053.53 127.688 1054.04 126.977C1054.54 126.266 1055.33 125.91 1056.41 125.91C1057.49 125.91 1058.27 126.254 1058.78 126.942C1059.29 127.626 1059.55 128.683 1059.56 130.114V131.755ZM1058.29 130.025C1058.29 128.954 1058.14 128.175 1057.84 127.688C1057.54 127.195 1057.07 126.949 1056.41 126.949C1055.77 126.949 1055.3 127.193 1055 127.681C1054.7 128.168 1054.55 128.918 1054.54 129.93V131.953C1054.54 133.029 1054.7 133.824 1055.01 134.339C1055.32 134.849 1055.79 135.104 1056.43 135.104C1057.05 135.104 1057.52 134.863 1057.82 134.38C1058.12 133.897 1058.28 133.136 1058.29 132.097V130.025Z" fill="#A8B0C1"/>
<path d="M1034.76 253.437C1034.76 253.017 1034.61 252.664 1034.31 252.377C1034.02 252.09 1033.53 251.83 1032.83 251.598C1031.86 251.301 1031.15 250.916 1030.7 250.442C1030.26 249.964 1030.04 249.358 1030.04 248.624C1030.04 247.877 1030.26 247.264 1030.69 246.785C1031.13 246.307 1031.73 246.022 1032.49 245.931V244.434H1033.51V245.938C1034.27 246.042 1034.87 246.364 1035.29 246.901C1035.72 247.439 1035.93 248.175 1035.93 249.109H1034.68C1034.68 248.467 1034.52 247.956 1034.22 247.578C1033.91 247.2 1033.5 247.011 1032.98 247.011C1032.44 247.011 1032.02 247.152 1031.74 247.435C1031.45 247.713 1031.31 248.102 1031.31 248.604C1031.31 249.068 1031.46 249.44 1031.76 249.718C1032.06 249.991 1032.56 250.242 1033.25 250.47C1033.95 250.693 1034.49 250.941 1034.88 251.215C1035.27 251.484 1035.56 251.798 1035.74 252.158C1035.93 252.518 1036.02 252.94 1036.02 253.423C1036.02 254.193 1035.79 254.813 1035.33 255.282C1034.87 255.752 1034.22 256.03 1033.38 256.116V257.422H1032.37V256.116C1031.52 256.039 1030.86 255.738 1030.38 255.214C1029.9 254.685 1029.66 253.97 1029.66 253.067H1030.92C1030.92 253.701 1031.09 254.188 1031.42 254.53C1031.75 254.872 1032.23 255.043 1032.84 255.043C1033.43 255.043 1033.9 254.899 1034.25 254.612C1034.59 254.325 1034.76 253.933 1034.76 253.437ZM1038.18 251.01L1038.68 246.047H1043.78V247.216H1039.76L1039.45 249.93C1039.94 249.643 1040.5 249.499 1041.12 249.499C1042.02 249.499 1042.74 249.8 1043.28 250.401C1043.81 250.998 1044.08 251.807 1044.08 252.828C1044.08 253.854 1043.8 254.662 1043.24 255.255C1042.69 255.843 1041.92 256.137 1040.92 256.137C1040.04 256.137 1039.33 255.893 1038.77 255.405C1038.21 254.918 1037.9 254.243 1037.82 253.382H1039.02C1039.09 253.951 1039.3 254.382 1039.63 254.674C1039.95 254.961 1040.39 255.104 1040.92 255.104C1041.51 255.104 1041.97 254.904 1042.31 254.503C1042.64 254.102 1042.81 253.548 1042.81 252.842C1042.81 252.176 1042.63 251.643 1042.26 251.242C1041.9 250.837 1041.42 250.634 1040.82 250.634C1040.27 250.634 1039.84 250.755 1039.52 250.996L1039.19 251.27L1038.18 251.01ZM1051.7 251.755C1051.7 253.236 1051.44 254.337 1050.94 255.057C1050.43 255.777 1049.64 256.137 1048.57 256.137C1047.5 256.137 1046.72 255.786 1046.21 255.084C1045.7 254.378 1045.43 253.325 1045.42 251.926V250.237C1045.42 248.774 1045.67 247.688 1046.17 246.977C1046.68 246.266 1047.47 245.91 1048.55 245.91C1049.62 245.91 1050.41 246.254 1050.92 246.942C1051.42 247.626 1051.68 248.683 1051.7 250.114V251.755ZM1050.43 250.025C1050.43 248.954 1050.28 248.175 1049.98 247.688C1049.68 247.195 1049.2 246.949 1048.55 246.949C1047.91 246.949 1047.43 247.193 1047.14 247.681C1046.84 248.168 1046.69 248.918 1046.68 249.93V251.953C1046.68 253.029 1046.84 253.824 1047.14 254.339C1047.46 254.849 1047.93 255.104 1048.57 255.104C1049.19 255.104 1049.65 254.863 1049.95 254.38C1050.26 253.897 1050.42 253.136 1050.43 252.097V250.025Z" fill="#A8B0C1"/>
<rect x="271.907" y="28" width="789" height="1" fill="#EEEEEE"/>
<rect x="271.907" y="89" width="789" height="1" fill="#EEEEEE"/>
<rect x="541.907" y="149" width="520" height="1" fill="#EEEEEE"/>
<rect x="811.907" y="210" width="250" height="1" fill="#EEEEEE"/>
<g clip-path="url(#clip0)">
<rect x="0.906616" y="17" width="250" height="340" fill="url(#paint0_linear)"/>
<path opacity="0.45" d="M78.9232 218.842C78.8002 219.895 78.4105 220.708 77.7543 221.282C77.1026 221.852 76.2344 222.137 75.1498 222.137C73.974 222.137 73.0306 221.715 72.3197 220.872C71.6133 220.029 71.2601 218.901 71.2601 217.488V216.531C71.2601 215.606 71.4242 214.793 71.7523 214.091C72.085 213.389 72.5544 212.851 73.1605 212.478C73.7666 212.099 74.4685 211.91 75.266 211.91C76.3233 211.91 77.1709 212.206 77.809 212.799C78.447 213.387 78.8184 214.202 78.9232 215.246H77.6039C77.4899 214.453 77.2416 213.879 76.8588 213.523C76.4805 213.168 75.9496 212.99 75.266 212.99C74.4274 212.99 73.7689 213.3 73.2904 213.92C72.8164 214.54 72.5795 215.422 72.5795 216.565V217.529C72.5795 218.609 72.8051 219.468 73.2562 220.106C73.7074 220.744 74.3386 221.063 75.1498 221.063C75.8789 221.063 76.4372 220.899 76.8246 220.571C77.2165 220.239 77.4763 219.662 77.6039 218.842H78.9232ZM85.0892 222C85.0163 221.854 84.9571 221.594 84.9115 221.221C84.3236 221.831 83.6218 222.137 82.806 222.137C82.0769 222.137 81.4776 221.932 81.0082 221.521C80.5433 221.107 80.3109 220.583 80.3109 219.949C80.3109 219.179 80.6026 218.582 81.1859 218.158C81.7738 217.73 82.5987 217.516 83.6605 217.516H84.891V216.935C84.891 216.493 84.7588 216.142 84.4945 215.882C84.2302 215.618 83.8405 215.485 83.3256 215.485C82.8744 215.485 82.4961 215.599 82.1908 215.827C81.8855 216.055 81.7328 216.331 81.7328 216.654H80.4613C80.4613 216.285 80.5912 215.93 80.851 215.588C81.1153 215.242 81.4707 214.968 81.9174 214.768C82.3685 214.567 82.863 214.467 83.4008 214.467C84.253 214.467 84.9206 214.681 85.4037 215.109C85.8868 215.533 86.1374 216.119 86.1556 216.866V220.271C86.1556 220.95 86.2422 221.49 86.4154 221.891V222H85.0892ZM82.9906 221.036C83.3871 221.036 83.7631 220.934 84.1185 220.729C84.474 220.523 84.7315 220.257 84.891 219.929V218.411H83.8998C82.3503 218.411 81.5756 218.865 81.5756 219.771C81.5756 220.168 81.7077 220.478 81.972 220.701C82.2364 220.924 82.5759 221.036 82.9906 221.036ZM92.3969 220.325L94.9125 214.604H96.4916V222H95.2269V216.62L92.8344 222H91.9594L89.5189 216.504V222H88.2543V214.604H89.8949L92.3969 220.325ZM99.9095 217.153H101.83C102.669 217.162 103.332 217.381 103.82 217.81C104.307 218.238 104.551 218.819 104.551 219.553C104.551 220.291 104.3 220.883 103.799 221.33C103.298 221.777 102.623 222 101.776 222H98.6449V214.604H99.9095V217.153ZM107.19 222H105.918V214.604H107.19V222ZM99.9095 218.186V220.968H101.789C102.263 220.968 102.63 220.847 102.89 220.605C103.15 220.359 103.28 220.024 103.28 219.601C103.28 219.19 103.152 218.855 102.897 218.596C102.646 218.331 102.293 218.195 101.837 218.186H99.9095ZM114.183 214.604H115.448V222H114.183V216.606L110.772 222H109.507V214.604H110.772V220.004L114.183 214.604ZM114.525 211.91C114.525 212.462 114.336 212.906 113.957 213.243C113.584 213.576 113.092 213.742 112.481 213.742C111.87 213.742 111.376 213.574 110.997 213.236C110.619 212.899 110.43 212.457 110.43 211.91H111.462C111.462 212.229 111.549 212.48 111.722 212.662C111.895 212.84 112.148 212.929 112.481 212.929C112.8 212.929 113.048 212.84 113.226 212.662C113.408 212.484 113.499 212.234 113.499 211.91H114.525ZM121.067 222V214.604H123.952C124.936 214.604 125.69 214.777 126.214 215.123C126.743 215.465 127.007 215.968 127.007 216.634C127.007 216.976 126.905 217.285 126.7 217.563C126.495 217.837 126.191 218.047 125.79 218.192C126.237 218.297 126.595 218.502 126.864 218.808C127.137 219.113 127.274 219.478 127.274 219.901C127.274 220.58 127.023 221.1 126.522 221.46C126.025 221.82 125.321 222 124.41 222H121.067ZM122.331 218.753V220.981H124.423C124.952 220.981 125.346 220.883 125.606 220.688C125.87 220.492 126.002 220.216 126.002 219.86C126.002 219.122 125.46 218.753 124.375 218.753H122.331ZM122.331 217.741H123.965C125.15 217.741 125.743 217.395 125.743 216.702C125.743 216.009 125.182 215.652 124.061 215.629H122.331V217.741ZM130.329 217.153H132.25C133.089 217.162 133.752 217.381 134.24 217.81C134.727 218.238 134.971 218.819 134.971 219.553C134.971 220.291 134.72 220.883 134.219 221.33C133.718 221.777 133.043 222 132.196 222H129.065V214.604H130.329V217.153ZM137.61 222H136.338V214.604H137.61V222ZM130.329 218.186V220.968H132.209C132.683 220.968 133.05 220.847 133.31 220.605C133.57 220.359 133.7 220.024 133.7 219.601C133.7 219.19 133.572 218.855 133.317 218.596C133.066 218.331 132.713 218.195 132.257 218.186H130.329ZM142.785 221.104C143.236 221.104 143.63 220.968 143.967 220.694C144.304 220.421 144.491 220.079 144.528 219.669H145.724C145.701 220.093 145.555 220.496 145.286 220.879C145.018 221.262 144.658 221.567 144.206 221.795C143.76 222.023 143.286 222.137 142.785 222.137C141.777 222.137 140.975 221.802 140.378 221.132C139.786 220.457 139.49 219.537 139.49 218.37V218.158C139.49 217.438 139.622 216.798 139.886 216.237C140.15 215.677 140.529 215.242 141.021 214.932C141.518 214.622 142.103 214.467 142.778 214.467C143.607 214.467 144.295 214.715 144.842 215.212C145.394 215.709 145.688 216.354 145.724 217.146H144.528C144.491 216.668 144.309 216.276 143.981 215.971C143.657 215.661 143.256 215.506 142.778 215.506C142.135 215.506 141.636 215.738 141.281 216.203C140.93 216.663 140.754 217.331 140.754 218.206V218.445C140.754 219.298 140.93 219.954 141.281 220.414C141.632 220.874 142.133 221.104 142.785 221.104ZM146.811 218.233C146.811 217.509 146.952 216.857 147.235 216.278C147.522 215.7 147.918 215.253 148.424 214.938C148.935 214.624 149.516 214.467 150.167 214.467C151.175 214.467 151.988 214.815 152.608 215.513C153.232 216.21 153.544 217.137 153.544 218.295V218.384C153.544 219.104 153.405 219.751 153.127 220.325C152.854 220.895 152.46 221.339 151.945 221.658C151.434 221.977 150.846 222.137 150.181 222.137C149.178 222.137 148.365 221.788 147.741 221.091C147.121 220.394 146.811 219.471 146.811 218.322V218.233ZM148.082 218.384C148.082 219.204 148.272 219.863 148.65 220.359C149.033 220.856 149.543 221.104 150.181 221.104C150.824 221.104 151.334 220.854 151.712 220.353C152.091 219.847 152.28 219.14 152.28 218.233C152.28 217.422 152.086 216.766 151.699 216.265C151.316 215.759 150.805 215.506 150.167 215.506C149.543 215.506 149.039 215.754 148.657 216.251C148.274 216.748 148.082 217.459 148.082 218.384ZM157.434 218.849H156.511V222H155.24V214.604H156.511V217.734H157.338L159.827 214.604H161.358L158.432 218.158L161.604 222H159.997L157.434 218.849ZM167.476 214.604H168.741V222H167.476V216.606L164.065 222H162.8V214.604H164.065V220.004L167.476 214.604ZM175.556 214.604H176.821V222H175.556V216.606L172.145 222H170.88V214.604H172.145V220.004L175.556 214.604ZM175.898 211.91C175.898 212.462 175.709 212.906 175.33 213.243C174.957 213.576 174.465 213.742 173.854 213.742C173.243 213.742 172.749 213.574 172.37 213.236C171.992 212.899 171.803 212.457 171.803 211.91H172.835C172.835 212.229 172.922 212.48 173.095 212.662C173.268 212.84 173.521 212.929 173.854 212.929C174.173 212.929 174.421 212.84 174.599 212.662C174.781 212.484 174.872 212.234 174.872 211.91H175.898ZM70.9867 238H69.722V231.649H66.3177V238H65.0463V230.604H70.9867V238ZM72.682 234.233C72.682 233.509 72.8233 232.857 73.1058 232.278C73.3929 231.7 73.7894 231.253 74.2953 230.938C74.8057 230.624 75.3868 230.467 76.0385 230.467C77.0456 230.467 77.8591 230.815 78.4789 231.513C79.1032 232.21 79.4154 233.137 79.4154 234.295V234.384C79.4154 235.104 79.2764 235.751 78.9984 236.325C78.725 236.895 78.3308 237.339 77.8158 237.658C77.3054 237.977 76.7175 238.137 76.0521 238.137C75.0495 238.137 74.236 237.788 73.6117 237.091C72.9919 236.394 72.682 235.471 72.682 234.322V234.233ZM73.9535 234.384C73.9535 235.204 74.1426 235.863 74.5209 236.359C74.9037 236.856 75.4141 237.104 76.0521 237.104C76.6947 237.104 77.2051 236.854 77.5834 236.353C77.9616 235.847 78.1508 235.14 78.1508 234.233C78.1508 233.422 77.9571 232.766 77.5697 232.265C77.1869 231.759 76.6765 231.506 76.0385 231.506C75.4141 231.506 74.9105 231.754 74.5277 232.251C74.1449 232.748 73.9535 233.459 73.9535 234.384ZM83.3051 234.849H82.3822V238H81.1107V230.604H82.3822V233.734H83.2094L85.6976 230.604H87.2289L84.3031 234.158L87.475 238H85.8685L83.3051 234.849ZM93.1283 238C93.0554 237.854 92.9961 237.594 92.9506 237.221C92.3627 237.831 91.6608 238.137 90.8451 238.137C90.1159 238.137 89.5166 237.932 89.0472 237.521C88.5824 237.107 88.35 236.583 88.35 235.949C88.35 235.179 88.6416 234.582 89.225 234.158C89.8129 233.73 90.6377 233.516 91.6996 233.516H92.9301V232.935C92.9301 232.493 92.7979 232.142 92.5336 231.882C92.2692 231.618 91.8796 231.485 91.3646 231.485C90.9135 231.485 90.5352 231.599 90.2299 231.827C89.9245 232.055 89.7719 232.331 89.7719 232.654H88.5004C88.5004 232.285 88.6302 231.93 88.89 231.588C89.1543 231.242 89.5098 230.968 89.9564 230.768C90.4076 230.567 90.9021 230.467 91.4398 230.467C92.292 230.467 92.9597 230.681 93.4427 231.109C93.9258 231.533 94.1765 232.119 94.1947 232.866V236.271C94.1947 236.95 94.2813 237.49 94.4545 237.891V238H93.1283ZM91.0297 237.036C91.4261 237.036 91.8021 236.934 92.1576 236.729C92.5131 236.523 92.7705 236.257 92.9301 235.929V234.411H91.9388C90.3894 234.411 89.6146 234.865 89.6146 235.771C89.6146 236.168 89.7468 236.478 90.0111 236.701C90.2754 236.924 90.6149 237.036 91.0297 237.036ZM100.245 232.627C100.245 232.281 100.112 232.007 99.848 231.807C99.5837 231.602 99.2214 231.499 98.7611 231.499C98.3145 231.499 97.9408 231.615 97.64 231.848C97.3438 232.08 97.1957 232.354 97.1957 232.668H95.9379C95.9379 232.025 96.2067 231.499 96.7445 231.089C97.2823 230.679 97.9545 230.474 98.7611 230.474C99.627 230.474 100.301 230.66 100.785 231.034C101.268 231.403 101.509 231.932 101.509 232.62C101.509 232.953 101.409 233.258 101.208 233.536C101.008 233.814 100.723 234.035 100.354 234.199C101.215 234.491 101.646 235.065 101.646 235.922C101.646 236.601 101.384 237.139 100.86 237.535C100.336 237.932 99.6361 238.13 98.7611 238.13C97.9089 238.13 97.2048 237.923 96.6488 237.508C96.0974 237.089 95.8217 236.523 95.8217 235.812H97.0795C97.0795 236.173 97.239 236.482 97.558 236.742C97.8816 236.997 98.2826 237.125 98.7611 237.125C99.2442 237.125 99.6338 237.013 99.9301 236.79C100.226 236.567 100.374 236.277 100.374 235.922C100.374 235.507 100.249 235.211 99.9984 235.033C99.7523 234.851 99.3672 234.76 98.8431 234.76H97.5785V233.693H98.9525C99.8138 233.671 100.245 233.315 100.245 232.627ZM107.853 238C107.78 237.854 107.721 237.594 107.675 237.221C107.087 237.831 106.385 238.137 105.57 238.137C104.841 238.137 104.241 237.932 103.772 237.521C103.307 237.107 103.075 236.583 103.075 235.949C103.075 235.179 103.366 234.582 103.95 234.158C104.537 233.73 105.362 233.516 106.424 233.516H107.655V232.935C107.655 232.493 107.523 232.142 107.258 231.882C106.994 231.618 106.604 231.485 106.089 231.485C105.638 231.485 105.26 231.599 104.954 231.827C104.649 232.055 104.496 232.331 104.496 232.654H103.225C103.225 232.285 103.355 231.93 103.615 231.588C103.879 231.242 104.234 230.968 104.681 230.768C105.132 230.567 105.627 230.467 106.164 230.467C107.017 230.467 107.684 230.681 108.167 231.109C108.65 231.533 108.901 232.119 108.919 232.866V236.271C108.919 236.95 109.006 237.49 109.179 237.891V238H107.853ZM105.754 237.036C106.151 237.036 106.527 236.934 106.882 236.729C107.238 236.523 107.495 236.257 107.655 235.929V234.411H106.663C105.114 234.411 104.339 234.865 104.339 235.771C104.339 236.168 104.471 236.478 104.736 236.701C105 236.924 105.34 237.036 105.754 237.036ZM116.288 231.629H113.807V238H112.542V231.629H110.109V230.604H116.288V231.629ZM120.041 238.137C119.039 238.137 118.223 237.809 117.594 237.152C116.965 236.492 116.651 235.61 116.651 234.507V234.274C116.651 233.541 116.79 232.887 117.068 232.312C117.35 231.734 117.742 231.283 118.244 230.959C118.749 230.631 119.296 230.467 119.884 230.467C120.846 230.467 121.593 230.784 122.126 231.417C122.66 232.05 122.926 232.957 122.926 234.138V234.664H117.915C117.934 235.393 118.146 235.983 118.551 236.435C118.961 236.881 119.481 237.104 120.11 237.104C120.556 237.104 120.935 237.013 121.245 236.831C121.554 236.649 121.826 236.407 122.058 236.106L122.83 236.708C122.211 237.66 121.281 238.137 120.041 238.137ZM119.884 231.506C119.374 231.506 118.945 231.693 118.599 232.066C118.253 232.436 118.038 232.955 117.956 233.625H121.661V233.529C121.625 232.887 121.452 232.39 121.142 232.039C120.832 231.684 120.413 231.506 119.884 231.506ZM130.459 230.604V238H129.188V231.649H126.672L126.522 234.418C126.44 235.689 126.226 236.599 125.879 237.146C125.537 237.692 124.993 237.977 124.245 238H123.74V236.886L124.102 236.858C124.512 236.813 124.806 236.576 124.984 236.147C125.161 235.719 125.275 234.926 125.326 233.769L125.462 230.604H130.459ZM133.87 233.153H135.791C136.63 233.162 137.293 233.381 137.781 233.81C138.268 234.238 138.512 234.819 138.512 235.553C138.512 236.291 138.261 236.883 137.76 237.33C137.259 237.777 136.584 238 135.737 238H132.606V230.604H133.87V233.153ZM133.87 234.186V236.968H135.75C136.224 236.968 136.591 236.847 136.851 236.605C137.111 236.359 137.241 236.024 137.241 235.601C137.241 235.19 137.113 234.855 136.858 234.596C136.607 234.331 136.254 234.195 135.798 234.186H133.87ZM143.68 238V230.604H146.565C147.549 230.604 148.303 230.777 148.828 231.123C149.356 231.465 149.62 231.968 149.62 232.634C149.62 232.976 149.518 233.285 149.313 233.563C149.108 233.837 148.805 234.047 148.404 234.192C148.85 234.297 149.208 234.502 149.477 234.808C149.75 235.113 149.887 235.478 149.887 235.901C149.887 236.58 149.636 237.1 149.135 237.46C148.638 237.82 147.934 238 147.023 238H143.68ZM144.945 234.753V236.981H147.036C147.565 236.981 147.959 236.883 148.219 236.688C148.483 236.492 148.616 236.216 148.616 235.86C148.616 235.122 148.073 234.753 146.989 234.753H144.945ZM144.945 233.741H146.578C147.763 233.741 148.356 233.395 148.356 232.702C148.356 232.009 147.795 231.652 146.674 231.629H144.945V233.741ZM159.293 236.325L161.809 230.604H163.388V238H162.123V232.62L159.731 238H158.856L156.415 232.504V238H155.151V230.604H156.791L159.293 236.325ZM170.21 230.604H171.475V238H170.21V232.606L166.799 238H165.535V230.604H166.799V236.004L170.21 230.604ZM179.753 234.384C179.753 235.509 179.496 236.416 178.981 237.104C178.466 237.793 177.769 238.137 176.889 238.137C175.991 238.137 175.285 237.852 174.77 237.282V240.844H173.505V230.604H174.661L174.722 231.424C175.237 230.786 175.953 230.467 176.869 230.467C177.757 230.467 178.459 230.802 178.974 231.472C179.494 232.142 179.753 233.074 179.753 234.268V234.384ZM178.489 234.24C178.489 233.406 178.311 232.748 177.955 232.265C177.6 231.782 177.112 231.54 176.493 231.54C175.727 231.54 175.153 231.88 174.77 232.559V236.093C175.148 236.767 175.727 237.104 176.506 237.104C177.112 237.104 177.593 236.865 177.949 236.387C178.309 235.904 178.489 235.188 178.489 234.24ZM184.436 238.137C183.433 238.137 182.618 237.809 181.989 237.152C181.36 236.492 181.045 235.61 181.045 234.507V234.274C181.045 233.541 181.184 232.887 181.462 232.312C181.745 231.734 182.137 231.283 182.638 230.959C183.144 230.631 183.691 230.467 184.279 230.467C185.24 230.467 185.988 230.784 186.521 231.417C187.054 232.05 187.321 232.957 187.321 234.138V234.664H182.31C182.328 235.393 182.54 235.983 182.946 236.435C183.356 236.881 183.875 237.104 184.504 237.104C184.951 237.104 185.329 237.013 185.639 236.831C185.949 236.649 186.22 236.407 186.453 236.106L187.225 236.708C186.605 237.66 185.675 238.137 184.436 238.137ZM184.279 231.506C183.768 231.506 183.34 231.693 182.994 232.066C182.647 232.436 182.433 232.955 182.351 233.625H186.056V233.529C186.02 232.887 185.846 232.39 185.536 232.039C185.227 231.684 184.807 231.506 184.279 231.506Z" fill="#9D7076"/>
<path d="M100.524 179.408C100.524 178.33 100.143 177.422 99.3812 176.684C98.6312 175.945 97.3597 175.277 95.5668 174.68C93.0707 173.918 91.2484 172.928 90.1 171.709C88.9633 170.479 88.3949 168.92 88.3949 167.033C88.3949 165.111 88.9515 163.535 90.0648 162.305C91.1898 161.074 92.7308 160.342 94.6879 160.107V156.258H97.307V160.125C99.2758 160.395 100.805 161.221 101.895 162.604C102.996 163.986 103.547 165.879 103.547 168.281H100.313C100.313 166.629 99.9203 165.316 99.1351 164.344C98.35 163.371 97.2894 162.885 95.9535 162.885C94.559 162.885 93.4926 163.248 92.7543 163.975C92.016 164.689 91.6469 165.691 91.6469 166.98C91.6469 168.176 92.0336 169.131 92.807 169.846C93.5922 170.549 94.8754 171.193 96.6566 171.779C98.4496 172.354 99.8441 172.992 100.84 173.695C101.848 174.387 102.586 175.195 103.055 176.121C103.536 177.047 103.776 178.131 103.776 179.373C103.776 181.354 103.178 182.947 101.983 184.154C100.799 185.361 99.1351 186.076 96.9906 186.299V189.656H94.389V186.299C92.2094 186.1 90.4984 185.326 89.2562 183.979C88.0258 182.619 87.4105 180.779 87.4105 178.459H90.6625C90.6625 180.088 91.0902 181.342 91.9457 182.221C92.8011 183.1 94.014 183.539 95.5844 183.539C97.1195 183.539 98.3265 183.17 99.2054 182.432C100.084 181.693 100.524 180.686 100.524 179.408ZM118.506 186H115.237V164.326L108.68 166.734V163.781L117.996 160.283H118.506V186ZM141.762 177.404H145.313V180.059H141.762V186H138.493V180.059H126.838V178.143L138.299 160.406H141.762V177.404ZM130.53 177.404H138.493V164.854L138.106 165.557L130.53 177.404ZM164.772 162.234L154.172 186H150.762L161.327 163.078H147.475V160.406H164.772V162.234Z" fill="#D64356"/>
<rect x="0.906616" y="13" width="250" height="4" fill="#D64356"/>
<path d="M119.236 386.015C119.236 387.269 119.025 388.364 118.603 389.302C118.181 390.233 117.583 390.945 116.81 391.438C116.036 391.93 115.134 392.176 114.103 392.176C113.095 392.176 112.202 391.93 111.422 391.438C110.643 390.939 110.036 390.233 109.603 389.319C109.175 388.399 108.955 387.336 108.944 386.129V385.206C108.944 383.976 109.158 382.889 109.585 381.945C110.013 381.002 110.617 380.281 111.396 379.783C112.181 379.279 113.078 379.027 114.085 379.027C115.111 379.027 116.013 379.276 116.792 379.774C117.578 380.267 118.181 380.984 118.603 381.928C119.025 382.865 119.236 383.958 119.236 385.206V386.015ZM117.557 385.188C117.557 383.671 117.252 382.508 116.643 381.699C116.034 380.885 115.181 380.478 114.085 380.478C113.019 380.478 112.178 380.885 111.563 381.699C110.953 382.508 110.64 383.633 110.622 385.074V386.015C110.622 387.485 110.93 388.643 111.545 389.486C112.166 390.324 113.019 390.743 114.103 390.743C115.193 390.743 116.036 390.348 116.634 389.557C117.232 388.76 117.539 387.62 117.557 386.138V385.188ZM128.64 388.66H123.279L122.075 392H120.334L125.221 379.203H126.698L131.593 392H129.862L128.64 388.66ZM123.788 387.271H128.139L125.959 381.286L123.788 387.271ZM134.819 387.939C134.983 388.994 135.314 389.735 135.812 390.163C136.316 390.585 137.036 390.796 137.974 390.796C138.988 390.796 139.787 390.4 140.373 389.609C140.965 388.818 141.267 387.72 141.279 386.313H136.243V384.925H141.279C141.279 383.536 140.974 382.438 140.365 381.629C139.761 380.82 138.914 380.416 137.825 380.416C136.946 380.416 136.26 380.645 135.768 381.102C135.282 381.559 134.965 382.297 134.819 383.316H133.122C133.257 381.975 133.735 380.926 134.555 380.17C135.375 379.408 136.465 379.027 137.825 379.027C138.856 379.027 139.761 379.273 140.54 379.766C141.326 380.252 141.926 380.949 142.342 381.857C142.764 382.76 142.975 383.8 142.975 384.978V386.252C142.975 387.43 142.767 388.47 142.351 389.372C141.935 390.274 141.346 390.969 140.584 391.455C139.828 391.936 138.958 392.176 137.974 392.176C136.579 392.176 135.46 391.81 134.617 391.077C133.779 390.339 133.281 389.293 133.122 387.939H134.819Z" fill="black"/>
</g>
<g clip-path="url(#clip1)">
<rect x="271.907" y="159" width="250" height="198" fill="url(#paint1_linear)"/>
<path d="M367.991 263.408C367.991 262.33 367.61 261.422 366.848 260.684C366.098 259.945 364.827 259.277 363.034 258.68C360.537 257.918 358.715 256.928 357.567 255.709C356.43 254.479 355.862 252.92 355.862 251.033C355.862 249.111 356.418 247.535 357.532 246.305C358.657 245.074 360.198 244.342 362.155 244.107V240.258H364.774V244.125C366.743 244.395 368.272 245.221 369.362 246.604C370.463 247.986 371.014 249.879 371.014 252.281H367.78C367.78 250.629 367.387 249.316 366.602 248.344C365.817 247.371 364.756 246.885 363.42 246.885C362.026 246.885 360.959 247.248 360.221 247.975C359.483 248.689 359.114 249.691 359.114 250.98C359.114 252.176 359.5 253.131 360.274 253.846C361.059 254.549 362.342 255.193 364.123 255.779C365.916 256.354 367.311 256.992 368.307 257.695C369.315 258.387 370.053 259.195 370.522 260.121C371.002 261.047 371.243 262.131 371.243 263.373C371.243 265.354 370.645 266.947 369.45 268.154C368.266 269.361 366.602 270.076 364.457 270.299V273.656H361.856V270.299C359.676 270.1 357.965 269.326 356.723 267.979C355.493 266.619 354.877 264.779 354.877 262.459H358.129C358.129 264.088 358.557 265.342 359.412 266.221C360.268 267.1 361.481 267.539 363.051 267.539C364.586 267.539 365.793 267.17 366.672 266.432C367.551 265.693 367.991 264.686 367.991 263.408ZM387.748 258.75C387.069 259.559 386.254 260.209 385.305 260.701C384.368 261.193 383.336 261.439 382.211 261.439C380.735 261.439 379.446 261.076 378.344 260.35C377.254 259.623 376.411 258.604 375.813 257.291C375.215 255.967 374.916 254.508 374.916 252.914C374.916 251.203 375.239 249.662 375.883 248.291C376.539 246.92 377.465 245.871 378.661 245.145C379.856 244.418 381.25 244.055 382.844 244.055C385.375 244.055 387.368 245.004 388.821 246.902C390.286 248.789 391.018 251.367 391.018 254.637V255.586C391.018 260.566 390.034 264.205 388.065 266.502C386.096 268.787 383.125 269.959 379.153 270.018H378.52V267.275H379.205C381.889 267.229 383.952 266.531 385.393 265.184C386.834 263.824 387.62 261.68 387.748 258.75ZM382.739 258.75C383.828 258.75 384.83 258.416 385.745 257.748C386.67 257.08 387.344 256.254 387.766 255.27V253.969C387.766 251.836 387.303 250.102 386.377 248.766C385.452 247.43 384.28 246.762 382.862 246.762C381.432 246.762 380.284 247.312 379.416 248.414C378.549 249.504 378.116 250.945 378.116 252.738C378.116 254.484 378.532 255.926 379.364 257.062C380.207 258.188 381.332 258.75 382.739 258.75ZM411.022 251.086C411.022 252.363 410.682 253.5 410.002 254.496C409.334 255.492 408.426 256.271 407.278 256.834C408.614 257.408 409.668 258.246 410.442 259.348C411.227 260.449 411.62 261.697 411.62 263.092C411.62 265.307 410.87 267.07 409.37 268.383C407.881 269.695 405.918 270.352 403.481 270.352C401.02 270.352 399.045 269.695 397.557 268.383C396.08 267.059 395.342 265.295 395.342 263.092C395.342 261.709 395.717 260.461 396.467 259.348C397.229 258.234 398.278 257.391 399.614 256.816C398.477 256.254 397.58 255.475 396.924 254.479C396.268 253.482 395.94 252.352 395.94 251.086C395.94 248.93 396.631 247.219 398.014 245.953C399.397 244.688 401.219 244.055 403.481 244.055C405.731 244.055 407.547 244.688 408.93 245.953C410.325 247.219 411.022 248.93 411.022 251.086ZM408.368 263.021C408.368 261.592 407.911 260.426 406.996 259.523C406.094 258.621 404.911 258.17 403.446 258.17C401.981 258.17 400.803 258.615 399.912 259.506C399.034 260.396 398.594 261.568 398.594 263.021C398.594 264.475 399.022 265.617 399.877 266.449C400.745 267.281 401.946 267.697 403.481 267.697C405.004 267.697 406.2 267.281 407.067 266.449C407.934 265.605 408.368 264.463 408.368 263.021ZM403.481 246.727C402.203 246.727 401.166 247.125 400.37 247.922C399.584 248.707 399.192 249.779 399.192 251.139C399.192 252.439 399.578 253.494 400.352 254.303C401.137 255.1 402.18 255.498 403.481 255.498C404.782 255.498 405.819 255.1 406.592 254.303C407.377 253.494 407.77 252.439 407.77 251.139C407.77 249.838 407.366 248.777 406.557 247.957C405.748 247.137 404.723 246.727 403.481 246.727ZM415.944 275.098L414.098 273.832C415.2 272.297 415.774 270.715 415.821 269.086V266.15H419.002V268.699C419.002 269.883 418.709 271.066 418.123 272.25C417.549 273.434 416.823 274.383 415.944 275.098ZM439.305 246.234L428.705 270H425.295L435.86 247.078H422.008V244.406H439.305V246.234Z" fill="#4943CD"/>
<rect x="271.907" y="155" width="250" height="4" fill="#4943CD"/>
<path d="M389.805 387.939C389.647 389.293 389.146 390.339 388.302 391.077C387.464 391.81 386.348 392.176 384.953 392.176C383.442 392.176 382.229 391.634 381.315 390.55C380.407 389.466 379.953 388.016 379.953 386.199V384.969C379.953 383.779 380.163 382.733 380.585 381.831C381.013 380.929 381.617 380.237 382.396 379.757C383.175 379.271 384.078 379.027 385.103 379.027C386.462 379.027 387.552 379.408 388.372 380.17C389.193 380.926 389.67 381.975 389.805 383.316H388.109C387.962 382.297 387.643 381.559 387.151 381.102C386.664 380.645 385.982 380.416 385.103 380.416C384.025 380.416 383.178 380.814 382.563 381.611C381.953 382.408 381.649 383.542 381.649 385.013V386.252C381.649 387.641 381.939 388.745 382.519 389.565C383.099 390.386 383.911 390.796 384.953 390.796C385.891 390.796 386.609 390.585 387.107 390.163C387.611 389.735 387.945 388.994 388.109 387.939H389.805ZM393.874 379.203V390.62H398.278V379.203H399.956V390.62H404.333V379.203H406.021V392H392.178V379.203H393.874ZM416.286 388.66H410.925L409.721 392H407.981L412.868 379.203H414.344L419.24 392H417.508L416.286 388.66ZM411.435 387.271H415.786L413.606 381.286L411.435 387.271Z" fill="black"/>
</g>
<g clip-path="url(#clip2)">
<rect x="541.907" y="175" width="250" height="182" fill="url(#paint2_linear)"/>
<path d="M651.631 270.408C651.631 269.33 651.25 268.422 650.489 267.684C649.739 266.945 648.467 266.277 646.674 265.68C644.178 264.918 642.356 263.928 641.207 262.709C640.071 261.479 639.502 259.92 639.502 258.033C639.502 256.111 640.059 254.535 641.172 253.305C642.297 252.074 643.838 251.342 645.795 251.107V247.258H648.414V251.125C650.383 251.395 651.912 252.221 653.002 253.604C654.104 254.986 654.655 256.879 654.655 259.281H651.42C651.42 257.629 651.028 256.316 650.243 255.344C649.457 254.371 648.397 253.885 647.061 253.885C645.666 253.885 644.6 254.248 643.862 254.975C643.123 255.689 642.754 256.691 642.754 257.98C642.754 259.176 643.141 260.131 643.914 260.846C644.7 261.549 645.983 262.193 647.764 262.779C649.557 263.354 650.952 263.992 651.948 264.695C652.955 265.387 653.694 266.195 654.162 267.121C654.643 268.047 654.883 269.131 654.883 270.373C654.883 272.354 654.286 273.947 653.09 275.154C651.907 276.361 650.243 277.076 648.098 277.299V280.656H645.496V277.299C643.317 277.1 641.606 276.326 640.364 274.979C639.133 273.619 638.518 271.779 638.518 269.459H641.77C641.77 271.088 642.198 272.342 643.053 273.221C643.909 274.1 645.121 274.539 646.692 274.539C648.227 274.539 649.434 274.17 650.313 273.432C651.192 272.693 651.631 271.686 651.631 270.408ZM675.45 253.234L664.85 277H661.44L672.004 254.078H658.153V251.406H675.45V253.234ZM691.604 265.75C690.924 266.559 690.11 267.209 689.161 267.701C688.223 268.193 687.192 268.439 686.067 268.439C684.59 268.439 683.301 268.076 682.2 267.35C681.11 266.623 680.266 265.604 679.668 264.291C679.071 262.967 678.772 261.508 678.772 259.914C678.772 258.203 679.094 256.662 679.739 255.291C680.395 253.92 681.321 252.871 682.516 252.145C683.711 251.418 685.106 251.055 686.7 251.055C689.231 251.055 691.223 252.004 692.676 253.902C694.141 255.789 694.873 258.367 694.873 261.637V262.586C694.873 267.566 693.889 271.205 691.92 273.502C689.952 275.787 686.981 276.959 683.008 277.018H682.375V274.275H683.061C685.745 274.229 687.807 273.531 689.248 272.184C690.69 270.824 691.475 268.68 691.604 265.75ZM686.594 265.75C687.684 265.75 688.686 265.416 689.6 264.748C690.526 264.08 691.2 263.254 691.621 262.27V260.969C691.621 258.836 691.159 257.102 690.233 255.766C689.307 254.43 688.135 253.762 686.717 253.762C685.287 253.762 684.139 254.312 683.272 255.414C682.405 256.504 681.971 257.945 681.971 259.738C681.971 261.484 682.387 262.926 683.219 264.062C684.063 265.188 685.188 265.75 686.594 265.75Z" fill="#6AB50B"/>
<rect x="541.907" y="176" width="250" height="4" fill="#34A853"/>
<path d="M644.625 386.085H639.079V390.62H645.522V392H637.392V379.203H645.434V380.592H639.079V384.705H644.625V386.085ZM647.517 392V382.49H651.226C652.492 382.49 653.461 382.713 654.135 383.158C654.815 383.598 655.155 384.245 655.155 385.101C655.155 385.54 655.023 385.938 654.759 386.296C654.495 386.647 654.106 386.917 653.59 387.104C654.164 387.239 654.624 387.503 654.97 387.896C655.322 388.288 655.497 388.757 655.497 389.302C655.497 390.175 655.175 390.843 654.531 391.306C653.892 391.769 652.987 392 651.815 392H647.517ZM649.143 387.825V390.69H651.832C652.512 390.69 653.019 390.564 653.353 390.312C653.693 390.061 653.863 389.706 653.863 389.249C653.863 388.3 653.165 387.825 651.771 387.825H649.143ZM649.143 386.524H651.244C652.767 386.524 653.529 386.079 653.529 385.188C653.529 384.298 652.808 383.838 651.367 383.809H649.143V386.524ZM665.684 387.351C665.684 388.798 665.353 389.964 664.691 390.849C664.029 391.733 663.132 392.176 662.001 392.176C660.847 392.176 659.939 391.81 659.277 391.077V395.656H657.651V382.49H659.136L659.215 383.545C659.877 382.725 660.797 382.314 661.975 382.314C663.118 382.314 664.02 382.745 664.682 383.606C665.35 384.468 665.684 385.666 665.684 387.201V387.351ZM664.058 387.166C664.058 386.094 663.829 385.247 663.372 384.626C662.915 384.005 662.288 383.694 661.492 383.694C660.507 383.694 659.769 384.131 659.277 385.004V389.548C659.763 390.415 660.507 390.849 661.509 390.849C662.288 390.849 662.907 390.541 663.364 389.926C663.827 389.305 664.058 388.385 664.058 387.166ZM667.328 387.157C667.328 386.226 667.509 385.388 667.872 384.644C668.242 383.899 668.751 383.325 669.402 382.921C670.058 382.517 670.805 382.314 671.643 382.314C672.938 382.314 673.984 382.763 674.781 383.659C675.583 384.556 675.985 385.748 675.985 387.236V387.351C675.985 388.276 675.806 389.108 675.449 389.847C675.097 390.579 674.59 391.15 673.928 391.561C673.272 391.971 672.516 392.176 671.661 392.176C670.371 392.176 669.326 391.728 668.523 390.831C667.726 389.935 667.328 388.748 667.328 387.271V387.157ZM668.962 387.351C668.962 388.405 669.205 389.252 669.692 389.891C670.184 390.529 670.84 390.849 671.661 390.849C672.487 390.849 673.143 390.526 673.629 389.882C674.116 389.231 674.359 388.323 674.359 387.157C674.359 386.114 674.11 385.271 673.612 384.626C673.12 383.976 672.463 383.65 671.643 383.65C670.84 383.65 670.193 383.97 669.701 384.608C669.208 385.247 668.962 386.161 668.962 387.351ZM685.802 392H684.176V383.835H679.799V392H678.164V382.49H685.802V392ZM694.284 392C694.19 391.812 694.114 391.479 694.055 390.998C693.299 391.783 692.397 392.176 691.348 392.176C690.411 392.176 689.64 391.912 689.036 391.385C688.439 390.852 688.14 390.178 688.14 389.363C688.14 388.373 688.515 387.605 689.265 387.061C690.021 386.51 691.081 386.234 692.447 386.234H694.029V385.487C694.029 384.919 693.859 384.468 693.519 384.134C693.179 383.794 692.678 383.624 692.016 383.624C691.436 383.624 690.95 383.771 690.557 384.063C690.164 384.356 689.968 384.711 689.968 385.127H688.333C688.333 384.652 688.5 384.195 688.834 383.756C689.174 383.311 689.631 382.959 690.205 382.701C690.786 382.443 691.421 382.314 692.113 382.314C693.208 382.314 694.067 382.59 694.688 383.141C695.309 383.686 695.631 384.438 695.655 385.399V389.776C695.655 390.649 695.766 391.344 695.989 391.859V392H694.284ZM691.585 390.761C692.095 390.761 692.578 390.629 693.036 390.365C693.493 390.102 693.824 389.759 694.029 389.337V387.386H692.754C690.762 387.386 689.766 387.969 689.766 389.135C689.766 389.645 689.936 390.043 690.276 390.33C690.616 390.617 691.052 390.761 691.585 390.761Z" fill="black"/>
</g>
<g clip-path="url(#clip3)">
<rect x="811.907" y="293" width="250" height="64" fill="url(#paint3_linear)"/>
<path d="M921.631 330.408C921.631 329.33 921.25 328.422 920.489 327.684C919.739 326.945 918.467 326.277 916.674 325.68C914.178 324.918 912.356 323.928 911.207 322.709C910.071 321.479 909.502 319.92 909.502 318.033C909.502 316.111 910.059 314.535 911.172 313.305C912.297 312.074 913.838 311.342 915.795 311.107V307.258H918.414V311.125C920.383 311.395 921.912 312.221 923.002 313.604C924.104 314.986 924.655 316.879 924.655 319.281H921.42C921.42 317.629 921.028 316.316 920.243 315.344C919.457 314.371 918.397 313.885 917.061 313.885C915.666 313.885 914.6 314.248 913.862 314.975C913.123 315.689 912.754 316.691 912.754 317.98C912.754 319.176 913.141 320.131 913.914 320.846C914.7 321.549 915.983 322.193 917.764 322.779C919.557 323.354 920.952 323.992 921.948 324.695C922.955 325.387 923.694 326.195 924.162 327.121C924.643 328.047 924.883 329.131 924.883 330.373C924.883 332.354 924.286 333.947 923.09 335.154C921.907 336.361 920.243 337.076 918.098 337.299V340.656H915.496V337.299C913.317 337.1 911.606 336.326 910.364 334.979C909.133 333.619 908.518 331.779 908.518 329.459H911.77C911.77 331.088 912.198 332.342 913.053 333.221C913.909 334.1 915.121 334.539 916.692 334.539C918.227 334.539 919.434 334.17 920.313 333.432C921.192 332.693 921.631 331.686 921.631 330.408ZM945.696 337H928.926V334.662L937.786 324.818C939.098 323.33 940 322.123 940.493 321.197C940.996 320.26 941.248 319.293 941.248 318.297C941.248 316.961 940.844 315.865 940.036 315.01C939.227 314.154 938.149 313.727 936.801 313.727C935.184 313.727 933.924 314.189 933.022 315.115C932.131 316.029 931.686 317.307 931.686 318.947H928.434C928.434 316.592 929.19 314.688 930.702 313.234C932.225 311.781 934.258 311.055 936.801 311.055C939.18 311.055 941.061 311.682 942.444 312.936C943.827 314.178 944.518 315.836 944.518 317.91C944.518 320.43 942.912 323.43 939.702 326.91L932.846 334.346H945.696V337ZM961.903 311.389V314.148H961.305C958.774 314.195 956.758 314.945 955.258 316.398C953.758 317.852 952.891 319.896 952.657 322.533C954.004 320.986 955.844 320.213 958.176 320.213C960.403 320.213 962.178 320.998 963.502 322.568C964.838 324.139 965.506 326.166 965.506 328.65C965.506 331.287 964.786 333.396 963.344 334.979C961.914 336.561 959.993 337.352 957.578 337.352C955.129 337.352 953.143 336.414 951.62 334.539C950.096 332.652 949.334 330.227 949.334 327.262V326.014C949.334 321.303 950.336 317.705 952.34 315.221C954.356 312.725 957.35 311.447 961.323 311.389H961.903ZM957.631 322.92C956.518 322.92 955.493 323.254 954.555 323.922C953.618 324.59 952.967 325.428 952.604 326.436V327.631C952.604 329.74 953.078 331.439 954.028 332.729C954.977 334.018 956.161 334.662 957.578 334.662C959.043 334.662 960.192 334.123 961.024 333.045C961.868 331.967 962.289 330.555 962.289 328.809C962.289 327.051 961.862 325.633 961.006 324.555C960.162 323.465 959.037 322.92 957.631 322.92Z" fill="#FF8A00"/>
<rect x="811.907" y="289" width="250" height="4" fill="#FF8A00"/>
<path d="M836.808 386.99V392H835.12V379.203H839.84C841.241 379.203 842.336 379.561 843.127 380.275C843.924 380.99 844.323 381.937 844.323 383.114C844.323 384.356 843.933 385.314 843.154 385.988C842.38 386.656 841.27 386.99 839.823 386.99H836.808ZM836.808 385.61H839.84C840.743 385.61 841.434 385.399 841.914 384.978C842.395 384.55 842.635 383.935 842.635 383.132C842.635 382.37 842.395 381.761 841.914 381.304C841.434 380.847 840.775 380.609 839.937 380.592H836.808V385.61ZM851.987 392C851.893 391.812 851.817 391.479 851.758 390.998C851.002 391.783 850.1 392.176 849.051 392.176C848.114 392.176 847.343 391.912 846.74 391.385C846.142 390.852 845.843 390.178 845.843 389.363C845.843 388.373 846.218 387.605 846.968 387.061C847.724 386.51 848.785 386.234 850.15 386.234H851.732V385.487C851.732 384.919 851.562 384.468 851.222 384.134C850.882 383.794 850.381 383.624 849.719 383.624C849.139 383.624 848.653 383.771 848.26 384.063C847.868 384.356 847.671 384.711 847.671 385.127H846.036C846.036 384.652 846.203 384.195 846.537 383.756C846.877 383.311 847.334 382.959 847.909 382.701C848.489 382.443 849.124 382.314 849.816 382.314C850.911 382.314 851.77 382.59 852.391 383.141C853.012 383.686 853.334 384.438 853.358 385.399V389.776C853.358 390.649 853.469 391.344 853.692 391.859V392H851.987ZM849.288 390.761C849.798 390.761 850.282 390.629 850.739 390.365C851.196 390.102 851.527 389.759 851.732 389.337V387.386H850.457C848.465 387.386 847.469 387.969 847.469 389.135C847.469 389.645 847.639 390.043 847.979 390.33C848.319 390.617 848.755 390.761 849.288 390.761ZM861.136 385.092C861.136 384.646 860.966 384.295 860.626 384.037C860.286 383.773 859.821 383.642 859.229 383.642C858.655 383.642 858.174 383.791 857.787 384.09C857.407 384.389 857.216 384.74 857.216 385.145H855.599C855.599 384.318 855.945 383.642 856.636 383.114C857.328 382.587 858.192 382.323 859.229 382.323C860.342 382.323 861.209 382.563 861.83 383.044C862.452 383.519 862.762 384.198 862.762 385.083C862.762 385.511 862.633 385.903 862.375 386.261C862.118 386.618 861.751 386.902 861.277 387.113C862.384 387.488 862.938 388.227 862.938 389.328C862.938 390.201 862.601 390.893 861.927 391.402C861.253 391.912 860.354 392.167 859.229 392.167C858.133 392.167 857.228 391.9 856.513 391.367C855.804 390.828 855.45 390.102 855.45 389.188H857.067C857.067 389.65 857.272 390.049 857.682 390.383C858.098 390.711 858.614 390.875 859.229 390.875C859.85 390.875 860.351 390.731 860.732 390.444C861.113 390.157 861.303 389.785 861.303 389.328C861.303 388.795 861.142 388.414 860.82 388.186C860.503 387.951 860.008 387.834 859.334 387.834H857.708V386.463H859.475C860.582 386.434 861.136 385.977 861.136 385.092ZM865.197 392V382.49H868.906C870.171 382.49 871.141 382.713 871.815 383.158C872.495 383.598 872.834 384.245 872.834 385.101C872.834 385.54 872.703 385.938 872.439 386.296C872.175 386.647 871.786 386.917 871.27 387.104C871.844 387.239 872.304 387.503 872.65 387.896C873.001 388.288 873.177 388.757 873.177 389.302C873.177 390.175 872.855 390.843 872.21 391.306C871.572 391.769 870.666 392 869.495 392H865.197ZM866.823 387.825V390.69H869.512C870.192 390.69 870.699 390.564 871.033 390.312C871.372 390.061 871.542 389.706 871.542 389.249C871.542 388.3 870.845 387.825 869.451 387.825H866.823ZM866.823 386.524H868.923C870.447 386.524 871.208 386.079 871.208 385.188C871.208 384.298 870.488 383.838 869.046 383.809H866.823V386.524ZM881.483 382.49H883.109V392H881.483V385.065L877.097 392H875.471V382.49H877.097V389.434L881.483 382.49ZM885.869 392V382.49H889.578C890.843 382.49 891.813 382.713 892.487 383.158C893.166 383.598 893.506 384.245 893.506 385.101C893.506 385.54 893.374 385.938 893.111 386.296C892.847 386.647 892.457 386.917 891.942 387.104C892.516 387.239 892.976 387.503 893.322 387.896C893.673 388.288 893.849 388.757 893.849 389.302C893.849 390.175 893.527 390.843 892.882 391.306C892.244 391.769 891.338 392 890.166 392H885.869ZM887.495 387.825V390.69H890.184C890.864 390.69 891.37 390.564 891.704 390.312C892.044 390.061 892.214 389.706 892.214 389.249C892.214 388.3 891.517 387.825 890.122 387.825H887.495ZM887.495 386.524H889.595C891.119 386.524 891.88 386.079 891.88 385.188C891.88 384.298 891.16 383.838 889.718 383.809H887.495V386.524ZM901.873 392C901.78 391.812 901.703 391.479 901.645 390.998C900.889 391.783 899.987 392.176 898.938 392.176C898 392.176 897.23 391.912 896.626 391.385C896.029 390.852 895.73 390.178 895.73 389.363C895.73 388.373 896.105 387.605 896.855 387.061C897.611 386.51 898.671 386.234 900.036 386.234H901.619V385.487C901.619 384.919 901.449 384.468 901.109 384.134C900.769 383.794 900.268 383.624 899.606 383.624C899.026 383.624 898.539 383.771 898.147 384.063C897.754 384.356 897.558 384.711 897.558 385.127H895.923C895.923 384.652 896.09 384.195 896.424 383.756C896.764 383.311 897.221 382.959 897.795 382.701C898.375 382.443 899.011 382.314 899.703 382.314C900.798 382.314 901.657 382.59 902.278 383.141C902.899 383.686 903.221 384.438 903.245 385.399V389.776C903.245 390.649 903.356 391.344 903.578 391.859V392H901.873ZM899.175 390.761C899.685 390.761 900.168 390.629 900.625 390.365C901.082 390.102 901.413 389.759 901.619 389.337V387.386H900.344C898.352 387.386 897.356 387.969 897.356 389.135C897.356 389.645 897.526 390.043 897.866 390.33C898.205 390.617 898.642 390.761 899.175 390.761ZM907.569 386.524H909.854C909.977 385.259 910.425 384.242 911.199 383.475C911.978 382.701 912.959 382.314 914.143 382.314C915.385 382.314 916.402 382.733 917.193 383.571C917.984 384.409 918.411 385.499 918.476 386.841L918.485 387.351C918.485 388.276 918.303 389.111 917.94 389.855C917.577 390.6 917.067 391.174 916.411 391.578C915.754 391.977 915.004 392.176 914.161 392.176C912.936 392.176 911.934 391.777 911.155 390.98C910.375 390.178 909.939 389.138 909.845 387.86H907.569V392H905.943V382.49H907.569V386.524ZM911.453 387.351C911.453 388.405 911.697 389.252 912.183 389.891C912.675 390.529 913.334 390.849 914.161 390.849C914.987 390.849 915.64 390.523 916.12 389.873C916.607 389.223 916.85 388.317 916.85 387.157C916.85 386.12 916.604 385.276 916.112 384.626C915.62 383.976 914.963 383.65 914.143 383.65C913.334 383.65 912.684 383.97 912.192 384.608C911.7 385.247 911.453 386.161 911.453 387.351ZM922.167 382.49V390.673H925.648V382.49H927.274V390.673H930.745V382.49H932.38V390.673H933.716L933.558 394.821H932.099V392H920.533V382.49H922.167ZM941.53 382.49H943.156V392H941.53V385.065L937.144 392H935.518V382.49H937.144V389.434L941.53 382.49ZM949.712 392.176C948.423 392.176 947.374 391.754 946.566 390.91C945.757 390.061 945.353 388.927 945.353 387.509V387.21C945.353 386.267 945.532 385.426 945.889 384.688C946.252 383.943 946.756 383.363 947.401 382.947C948.051 382.525 948.754 382.314 949.51 382.314C950.746 382.314 951.707 382.722 952.393 383.536C953.078 384.351 953.421 385.517 953.421 387.034V387.711H946.979C947.002 388.648 947.275 389.407 947.796 389.987C948.324 390.562 948.992 390.849 949.8 390.849C950.374 390.849 950.861 390.731 951.259 390.497C951.658 390.263 952.006 389.952 952.305 389.565L953.298 390.339C952.501 391.563 951.306 392.176 949.712 392.176ZM949.51 383.65C948.854 383.65 948.303 383.891 947.858 384.371C947.412 384.846 947.137 385.514 947.032 386.375H951.795V386.252C951.748 385.426 951.526 384.787 951.127 384.336C950.729 383.879 950.19 383.65 949.51 383.65ZM959.125 390.849C959.705 390.849 960.212 390.673 960.646 390.321C961.079 389.97 961.32 389.53 961.367 389.003H962.905C962.875 389.548 962.688 390.066 962.342 390.559C961.996 391.051 961.534 391.443 960.953 391.736C960.379 392.029 959.77 392.176 959.125 392.176C957.83 392.176 956.799 391.745 956.032 390.884C955.27 390.017 954.889 388.833 954.889 387.333V387.061C954.889 386.135 955.059 385.312 955.399 384.591C955.739 383.87 956.225 383.311 956.858 382.912C957.496 382.514 958.249 382.314 959.117 382.314C960.183 382.314 961.068 382.634 961.771 383.272C962.48 383.911 962.858 384.74 962.905 385.76H961.367C961.32 385.145 961.085 384.641 960.663 384.248C960.247 383.85 959.732 383.65 959.117 383.65C958.29 383.65 957.649 383.949 957.192 384.547C956.741 385.139 956.515 385.997 956.515 387.122V387.43C956.515 388.525 956.741 389.369 957.192 389.961C957.643 390.553 958.287 390.849 959.125 390.849ZM972.001 382.49V392H970.367V388.3H967.914L965.673 392H963.915L966.306 388.054C965.697 387.831 965.228 387.488 964.9 387.025C964.578 386.557 964.416 386.012 964.416 385.391C964.416 384.523 964.742 383.826 965.392 383.299C966.042 382.766 966.912 382.496 968.002 382.49H972.001ZM966.051 385.408C966.051 385.871 966.209 386.246 966.526 386.533C966.842 386.814 967.261 386.958 967.783 386.964H970.367V383.809H968.029C967.425 383.809 966.945 383.958 966.587 384.257C966.23 384.55 966.051 384.934 966.051 385.408ZM982.891 390.849C983.471 390.849 983.978 390.673 984.411 390.321C984.845 389.97 985.085 389.53 985.132 389.003H986.67C986.641 389.548 986.453 390.066 986.108 390.559C985.762 391.051 985.299 391.443 984.719 391.736C984.145 392.029 983.536 392.176 982.891 392.176C981.596 392.176 980.565 391.745 979.797 390.884C979.036 390.017 978.655 388.833 978.655 387.333V387.061C978.655 386.135 978.825 385.312 979.164 384.591C979.504 383.87 979.991 383.311 980.623 382.912C981.262 382.514 982.015 382.314 982.882 382.314C983.949 382.314 984.833 382.634 985.536 383.272C986.245 383.911 986.623 384.74 986.67 385.76H985.132C985.085 385.145 984.851 384.641 984.429 384.248C984.013 383.85 983.497 383.65 982.882 383.65C982.056 383.65 981.414 383.949 980.957 384.547C980.506 385.139 980.281 385.997 980.281 387.122V387.43C980.281 388.525 980.506 389.369 980.957 389.961C981.409 390.553 982.053 390.849 982.891 390.849ZM995.565 383.809H992.374V392H990.748V383.809H987.62V382.49H995.565V383.809ZM1005.18 387.351C1005.18 388.798 1004.85 389.964 1004.19 390.849C1003.52 391.733 1002.63 392.176 1001.5 392.176C1000.34 392.176 999.435 391.81 998.773 391.077V395.656H997.147V382.49H998.632L998.711 383.545C999.373 382.725 1000.29 382.314 1001.47 382.314C1002.61 382.314 1003.52 382.745 1004.18 383.606C1004.85 384.468 1005.18 385.666 1005.18 387.201V387.351ZM1003.55 387.166C1003.55 386.094 1003.33 385.247 1002.87 384.626C1002.41 384.005 1001.78 383.694 1000.99 383.694C1000 383.694 999.265 384.131 998.773 385.004V389.548C999.259 390.415 1000 390.849 1001.01 390.849C1001.78 390.849 1002.4 390.541 1002.86 389.926C1003.32 389.305 1003.55 388.385 1003.55 387.166ZM1013.13 392C1013.03 391.812 1012.96 391.479 1012.9 390.998C1012.14 391.783 1011.24 392.176 1010.19 392.176C1009.25 392.176 1008.48 391.912 1007.88 391.385C1007.28 390.852 1006.98 390.178 1006.98 389.363C1006.98 388.373 1007.36 387.605 1008.11 387.061C1008.86 386.51 1009.92 386.234 1011.29 386.234H1012.87V385.487C1012.87 384.919 1012.7 384.468 1012.36 384.134C1012.02 383.794 1011.52 383.624 1010.86 383.624C1010.28 383.624 1009.79 383.771 1009.4 384.063C1009.01 384.356 1008.81 384.711 1008.81 385.127H1007.18C1007.18 384.652 1007.34 384.195 1007.68 383.756C1008.02 383.311 1008.47 382.959 1009.05 382.701C1009.63 382.443 1010.26 382.314 1010.95 382.314C1012.05 382.314 1012.91 382.59 1013.53 383.141C1014.15 383.686 1014.47 384.438 1014.5 385.399V389.776C1014.5 390.649 1014.61 391.344 1014.83 391.859V392H1013.13ZM1010.43 390.761C1010.94 390.761 1011.42 390.629 1011.88 390.365C1012.33 390.102 1012.67 389.759 1012.87 389.337V387.386H1011.6C1009.6 387.386 1008.61 387.969 1008.61 389.135C1008.61 389.645 1008.78 390.043 1009.12 390.33C1009.46 390.617 1009.89 390.761 1010.43 390.761ZM1024.81 392H1023.19V387.939H1018.82V392H1017.19V382.49H1018.82V386.612H1023.19V382.49H1024.81V392ZM1029.21 385.769H1031.68C1032.76 385.78 1033.61 386.062 1034.24 386.612C1034.86 387.163 1035.18 387.91 1035.18 388.854C1035.18 389.803 1034.85 390.564 1034.21 391.139C1033.57 391.713 1032.7 392 1031.61 392H1027.58V382.49H1029.21V385.769ZM1038.57 392H1036.93V382.49H1038.57V392ZM1029.21 387.096V390.673H1031.63C1032.24 390.673 1032.71 390.518 1033.04 390.207C1033.38 389.891 1033.54 389.46 1033.54 388.915C1033.54 388.388 1033.38 387.957 1033.05 387.623C1032.73 387.283 1032.27 387.107 1031.69 387.096H1029.21Z" fill="black"/>
</g>
<defs>
<linearGradient id="paint0_linear" x1="125.907" y1="17" x2="125.907" y2="357" gradientUnits="userSpaceOnUse">
<stop stop-color="#D64356" stop-opacity="0.09"/>
<stop offset="1" stop-color="#D64356" stop-opacity="0"/>
</linearGradient>
<linearGradient id="paint1_linear" x1="396.907" y1="159" x2="396.907" y2="357" gradientUnits="userSpaceOnUse">
<stop stop-color="#4943CD" stop-opacity="0.04"/>
<stop offset="1" stop-color="#4943CD" stop-opacity="0"/>
</linearGradient>
<linearGradient id="paint2_linear" x1="666.907" y1="175" x2="666.907" y2="357" gradientUnits="userSpaceOnUse">
<stop stop-color="#6AB50B" stop-opacity="0.07"/>
<stop offset="1" stop-color="#6AB50B" stop-opacity="0"/>
</linearGradient>
<linearGradient id="paint3_linear" x1="936.907" y1="293" x2="936.907" y2="357" gradientUnits="userSpaceOnUse">
<stop stop-color="#FF8A00" stop-opacity="0.07"/>
<stop offset="1" stop-color="#FF8A00" stop-opacity="0"/>
</linearGradient>
<clipPath id="clip0">
<rect width="250" height="386" fill="white" transform="translate(0.906616 13)"/>
</clipPath>
<clipPath id="clip1">
<rect width="250" height="244" fill="white" transform="translate(271.907 155)"/>
</clipPath>
<clipPath id="clip2">
<rect width="250" height="224" fill="white" transform="translate(541.907 175)"/>
</clipPath>
<clipPath id="clip3">
<rect width="250" height="123" fill="white" transform="translate(811.907 289)"/>
</clipPath>
</defs>
</svg>
