<svg width="466" height="433" viewBox="0 0 466 433" fill="none" xmlns="http://www.w3.org/2000/svg">
<circle cx="205" cy="228" r="204" fill="url(#paint0_linear)" stroke="url(#paint1_linear)" stroke-width="2"/>
<path d="M204 224V24C311.2 24 368.667 96 384 132L204 224Z" fill="#1DAEFF"/>
<path d="M206 222L314 33H381" stroke="#1DAEFF" stroke-width="2"/>
<path d="M204 224L305 49" stroke="white" stroke-width="2"/>
<path d="M146.49 313.998C146.49 315.322 146.104 316.512 145.33 317.566C144.557 318.609 143.537 319.377 142.271 319.869C143.748 320.373 144.932 321.188 145.822 322.312C146.713 323.438 147.158 324.738 147.158 326.215C147.158 328.406 146.414 330.146 144.926 331.436C143.438 332.713 141.469 333.352 139.02 333.352C136.547 333.352 134.566 332.713 133.078 331.436C131.602 330.158 130.863 328.418 130.863 326.215C130.863 324.762 131.291 323.467 132.146 322.33C133.002 321.193 134.174 320.373 135.662 319.869C134.396 319.377 133.389 318.609 132.639 317.566C131.889 316.512 131.514 315.322 131.514 313.998C131.514 311.877 132.193 310.189 133.553 308.936C134.924 307.682 136.734 307.055 138.984 307.055C141.234 307.055 143.045 307.688 144.416 308.953C145.799 310.219 146.49 311.9 146.49 313.998ZM145.049 326.232C145.049 324.639 144.48 323.332 143.344 322.312C142.207 321.281 140.754 320.766 138.984 320.766C137.215 320.766 135.768 321.27 134.643 322.277C133.518 323.285 132.955 324.604 132.955 326.232C132.955 327.861 133.5 329.162 134.59 330.135C135.68 331.096 137.156 331.576 139.02 331.576C140.836 331.576 142.295 331.096 143.396 330.135C144.498 329.174 145.049 327.873 145.049 326.232ZM144.381 313.98C144.381 312.516 143.871 311.297 142.852 310.324C141.844 309.34 140.555 308.848 138.984 308.848C137.391 308.848 136.096 309.322 135.1 310.271C134.115 311.209 133.623 312.445 133.623 313.98C133.623 315.48 134.115 316.688 135.1 317.602C136.096 318.516 137.396 318.973 139.002 318.973C140.584 318.973 141.873 318.516 142.869 317.602C143.877 316.676 144.381 315.469 144.381 313.98ZM152.801 319.887L154.049 307.406H166.846V309.357H155.859L154.963 318.006C156.334 317.068 157.939 316.6 159.779 316.6C162.088 316.6 163.928 317.35 165.299 318.85C166.67 320.35 167.355 322.348 167.355 324.844C167.355 327.539 166.688 329.631 165.352 331.119C164.016 332.607 162.135 333.352 159.709 333.352C157.482 333.352 155.678 332.73 154.295 331.488C152.912 330.246 152.121 328.506 151.922 326.268H153.943C154.143 328.014 154.734 329.338 155.719 330.24C156.703 331.131 158.033 331.576 159.709 331.576C161.537 331.576 162.914 330.996 163.84 329.836C164.777 328.676 165.246 327.023 165.246 324.879C165.246 323.004 164.725 321.475 163.682 320.291C162.639 319.107 161.215 318.516 159.41 318.516C158.414 318.516 157.547 318.645 156.809 318.902C156.07 319.148 155.291 319.635 154.471 320.361L152.801 319.887ZM170.854 312.328C170.854 310.805 171.322 309.545 172.26 308.549C173.209 307.541 174.41 307.037 175.863 307.037C177.316 307.037 178.512 307.541 179.449 308.549C180.398 309.545 180.873 310.84 180.873 312.434V313.682C180.873 315.182 180.404 316.436 179.467 317.443C178.541 318.439 177.352 318.938 175.898 318.938C174.457 318.938 173.256 318.445 172.295 317.461C171.334 316.477 170.854 315.176 170.854 313.559V312.328ZM172.559 313.682C172.559 314.771 172.857 315.668 173.455 316.371C174.064 317.074 174.879 317.426 175.898 317.426C176.895 317.426 177.686 317.074 178.271 316.371C178.869 315.656 179.168 314.736 179.168 313.611V312.328C179.168 311.238 178.863 310.342 178.254 309.639C177.645 308.924 176.848 308.566 175.863 308.566C174.891 308.566 174.094 308.918 173.473 309.621C172.863 310.324 172.559 311.262 172.559 312.434V313.682ZM183.738 326.725C183.738 325.201 184.207 323.941 185.145 322.945C186.094 321.949 187.289 321.451 188.73 321.451C190.172 321.451 191.367 321.949 192.316 322.945C193.277 323.93 193.758 325.23 193.758 326.848V328.096C193.758 329.619 193.283 330.879 192.334 331.875C191.396 332.871 190.207 333.369 188.766 333.369C187.324 333.369 186.123 332.877 185.162 331.893C184.213 330.896 183.738 329.602 183.738 328.008V326.725ZM185.426 328.096C185.426 329.197 185.725 330.1 186.322 330.803C186.932 331.506 187.746 331.857 188.766 331.857C189.773 331.857 190.57 331.506 191.156 330.803C191.754 330.088 192.053 329.156 192.053 328.008V326.725C192.053 325.6 191.748 324.697 191.139 324.018C190.541 323.326 189.738 322.98 188.73 322.98C187.746 322.98 186.949 323.326 186.34 324.018C185.73 324.709 185.426 325.635 185.426 326.795V328.096ZM176.566 330.873L175.248 330.029L187.746 310.025L189.064 310.869L176.566 330.873Z" fill="black"/>
<path d="M206.023 314.211L206.438 313.672C207.094 312.781 207.471 311.479 207.57 309.766L207.719 306.547H212.711V314.211H213.586V317.484H212.656V315H206.305V317.484H205.406L205.414 314.211H206.023ZM207.102 314.211H211.773V307.422H208.609L208.508 309.617C208.414 311.633 207.945 313.164 207.102 314.211ZM214.875 310.648C214.875 309.836 215.031 309.104 215.344 308.453C215.661 307.802 216.107 307.297 216.68 306.938C217.258 306.573 217.911 306.391 218.641 306.391C219.766 306.391 220.677 306.786 221.375 307.578C222.073 308.365 222.422 309.409 222.422 310.711V310.906C222.422 311.724 222.263 312.461 221.945 313.117C221.633 313.768 221.19 314.271 220.617 314.625C220.044 314.979 219.391 315.156 218.656 315.156C217.536 315.156 216.625 314.763 215.922 313.977C215.224 313.185 214.875 312.138 214.875 310.836V310.648ZM215.812 310.906C215.812 311.917 216.073 312.747 216.594 313.398C217.12 314.044 217.807 314.367 218.656 314.367C219.5 314.367 220.182 314.044 220.703 313.398C221.229 312.747 221.492 311.891 221.492 310.828V310.648C221.492 310.003 221.372 309.411 221.133 308.875C220.893 308.339 220.557 307.924 220.125 307.633C219.693 307.336 219.198 307.188 218.641 307.188C217.807 307.188 217.128 307.516 216.602 308.172C216.076 308.823 215.812 309.677 215.812 310.734V310.906ZM230.734 306.547V315H229.797V307.352H226.336L226.188 310.516C226.125 311.688 226.008 312.583 225.836 313.203C225.664 313.818 225.409 314.271 225.07 314.562C224.732 314.854 224.281 315 223.719 315H223.359V314.172L223.648 314.156C224.185 314.146 224.57 313.885 224.805 313.375C225.039 312.865 225.193 311.953 225.266 310.641L225.438 306.547H230.734ZM239.414 306.547V315H238.477V311.594H235.852L233.789 315H232.758L234.883 311.477C234.305 311.326 233.854 311.034 233.531 310.602C233.214 310.169 233.055 309.659 233.055 309.07C233.055 308.305 233.328 307.693 233.875 307.234C234.427 306.776 235.172 306.547 236.109 306.547H239.414ZM233.992 309.086C233.992 309.581 234.148 309.987 234.461 310.305C234.779 310.622 235.219 310.786 235.781 310.797H238.477V307.344H236.086C235.435 307.344 234.922 307.5 234.547 307.812C234.177 308.125 233.992 308.549 233.992 309.086ZM245.312 310.648C245.312 309.836 245.469 309.104 245.781 308.453C246.099 307.802 246.544 307.297 247.117 306.938C247.695 306.573 248.349 306.391 249.078 306.391C250.203 306.391 251.115 306.786 251.812 307.578C252.51 308.365 252.859 309.409 252.859 310.711V310.906C252.859 311.724 252.701 312.461 252.383 313.117C252.07 313.768 251.628 314.271 251.055 314.625C250.482 314.979 249.828 315.156 249.094 315.156C247.974 315.156 247.062 314.763 246.359 313.977C245.661 313.185 245.312 312.138 245.312 310.836V310.648ZM246.25 310.906C246.25 311.917 246.51 312.747 247.031 313.398C247.557 314.044 248.245 314.367 249.094 314.367C249.938 314.367 250.62 314.044 251.141 313.398C251.667 312.747 251.93 311.891 251.93 310.828V310.648C251.93 310.003 251.81 309.411 251.57 308.875C251.331 308.339 250.995 307.924 250.562 307.633C250.13 307.336 249.635 307.188 249.078 307.188C248.245 307.188 247.565 307.516 247.039 308.172C246.513 308.823 246.25 309.677 246.25 310.734V310.906ZM254.445 310.844C254.445 309.469 254.714 308.383 255.25 307.586C255.792 306.789 256.539 306.391 257.492 306.391C258.039 306.391 258.503 306.513 258.883 306.758V303H259.812V306.789C260.198 306.523 260.677 306.391 261.25 306.391C262.151 306.391 262.872 306.753 263.414 307.477C263.956 308.201 264.25 309.208 264.297 310.5L264.305 311.008C264.305 312.294 264.034 313.31 263.492 314.055C262.951 314.794 262.208 315.164 261.266 315.164C260.703 315.164 260.219 315.042 259.812 314.797V318.25H258.883V314.805C258.482 315.044 258.013 315.164 257.477 315.164C256.586 315.164 255.872 314.828 255.336 314.156C254.799 313.479 254.505 312.544 254.453 311.352L254.445 310.844ZM263.375 310.844C263.375 309.708 263.169 308.815 262.758 308.164C262.352 307.513 261.781 307.188 261.047 307.188C260.516 307.188 260.104 307.302 259.812 307.531V314.07C260.141 314.273 260.557 314.375 261.062 314.375C261.792 314.375 262.359 314.083 262.766 313.5C263.172 312.911 263.375 312.026 263.375 310.844ZM255.383 311.008C255.383 312.07 255.578 312.898 255.969 313.492C256.359 314.081 256.922 314.375 257.656 314.375C258.146 314.375 258.555 314.268 258.883 314.055V307.508C258.581 307.294 258.177 307.188 257.672 307.188C256.943 307.188 256.378 307.513 255.977 308.164C255.581 308.81 255.383 309.758 255.383 311.008ZM266.039 310.844C266.039 309.469 266.307 308.383 266.844 307.586C267.385 306.789 268.133 306.391 269.086 306.391C269.633 306.391 270.096 306.513 270.477 306.758V303H271.406V306.789C271.792 306.523 272.271 306.391 272.844 306.391C273.745 306.391 274.466 306.753 275.008 307.477C275.549 308.201 275.844 309.208 275.891 310.5L275.898 311.008C275.898 312.294 275.628 313.31 275.086 314.055C274.544 314.794 273.802 315.164 272.859 315.164C272.297 315.164 271.812 315.042 271.406 314.797V318.25H270.477V314.805C270.076 315.044 269.607 315.164 269.07 315.164C268.18 315.164 267.466 314.828 266.93 314.156C266.393 313.479 266.099 312.544 266.047 311.352L266.039 310.844ZM274.969 310.844C274.969 309.708 274.763 308.815 274.352 308.164C273.945 307.513 273.375 307.188 272.641 307.188C272.109 307.188 271.698 307.302 271.406 307.531V314.07C271.734 314.273 272.151 314.375 272.656 314.375C273.385 314.375 273.953 314.083 274.359 313.5C274.766 312.911 274.969 312.026 274.969 310.844ZM266.977 311.008C266.977 312.07 267.172 312.898 267.562 313.492C267.953 314.081 268.516 314.375 269.25 314.375C269.74 314.375 270.148 314.268 270.477 314.055V307.508C270.174 307.294 269.771 307.188 269.266 307.188C268.536 307.188 267.971 307.513 267.57 308.164C267.174 308.81 266.977 309.758 266.977 311.008ZM284.375 306.547V315H283.438V307.352H279.977L279.828 310.516C279.766 311.688 279.648 312.583 279.477 313.203C279.305 313.818 279.049 314.271 278.711 314.562C278.372 314.854 277.922 315 277.359 315H277V314.172L277.289 314.156C277.826 314.146 278.211 313.885 278.445 313.375C278.68 312.865 278.833 311.953 278.906 310.641L279.078 306.547H284.375ZM292.227 315C292.133 314.734 292.073 314.341 292.047 313.82C291.719 314.247 291.299 314.578 290.789 314.812C290.284 315.042 289.747 315.156 289.18 315.156C288.367 315.156 287.708 314.93 287.203 314.477C286.703 314.023 286.453 313.451 286.453 312.758C286.453 311.935 286.794 311.284 287.477 310.805C288.164 310.326 289.12 310.086 290.344 310.086H292.039V309.125C292.039 308.521 291.852 308.047 291.477 307.703C291.107 307.354 290.565 307.18 289.852 307.18C289.201 307.18 288.661 307.346 288.234 307.68C287.807 308.013 287.594 308.414 287.594 308.883L286.656 308.875C286.656 308.203 286.969 307.622 287.594 307.133C288.219 306.638 288.987 306.391 289.898 306.391C290.841 306.391 291.583 306.628 292.125 307.102C292.672 307.57 292.953 308.227 292.969 309.07V313.07C292.969 313.888 293.055 314.5 293.227 314.906V315H292.227ZM289.289 314.328C289.914 314.328 290.471 314.177 290.961 313.875C291.456 313.573 291.815 313.169 292.039 312.664V310.805H290.367C289.435 310.815 288.706 310.987 288.18 311.32C287.654 311.648 287.391 312.102 287.391 312.68C287.391 313.154 287.565 313.547 287.914 313.859C288.268 314.172 288.727 314.328 289.289 314.328ZM301.023 306.547H301.961V315H301.023V308.055L296.461 315H295.531V306.547H296.461V313.5L301.023 306.547ZM300.977 303.5C300.977 304.099 300.771 304.583 300.359 304.953C299.953 305.323 299.406 305.508 298.719 305.508C298.042 305.508 297.495 305.326 297.078 304.961C296.667 304.591 296.461 304.104 296.461 303.5H297.258C297.258 303.932 297.385 304.263 297.641 304.492C297.901 304.721 298.26 304.836 298.719 304.836C299.177 304.836 299.534 304.716 299.789 304.477C300.049 304.237 300.18 303.911 300.18 303.5H300.977ZM310.961 315H310.023V311.125H305.469V315H304.531V306.547H305.469V310.336H310.023V306.547H310.961V315ZM212.289 326.344H209.211V334H208.273V326.344H205.312V325.547H212.289V326.344ZM212.984 329.648C212.984 328.836 213.141 328.104 213.453 327.453C213.771 326.802 214.216 326.297 214.789 325.938C215.367 325.573 216.021 325.391 216.75 325.391C217.875 325.391 218.786 325.786 219.484 326.578C220.182 327.365 220.531 328.409 220.531 329.711V329.906C220.531 330.724 220.372 331.461 220.055 332.117C219.742 332.768 219.299 333.271 218.727 333.625C218.154 333.979 217.5 334.156 216.766 334.156C215.646 334.156 214.734 333.763 214.031 332.977C213.333 332.185 212.984 331.138 212.984 329.836V329.648ZM213.922 329.906C213.922 330.917 214.182 331.747 214.703 332.398C215.229 333.044 215.917 333.367 216.766 333.367C217.609 333.367 218.292 333.044 218.812 332.398C219.339 331.747 219.602 330.891 219.602 329.828V329.648C219.602 329.003 219.482 328.411 219.242 327.875C219.003 327.339 218.667 326.924 218.234 326.633C217.802 326.336 217.307 326.188 216.75 326.188C215.917 326.188 215.237 326.516 214.711 327.172C214.185 327.823 213.922 328.677 213.922 329.734V329.906ZM229.266 329.859C229.266 331.177 228.974 332.224 228.391 333C227.807 333.771 227.026 334.156 226.047 334.156C224.891 334.156 224.005 333.75 223.391 332.938V337.25H222.461V325.547H223.328L223.375 326.742C223.984 325.841 224.867 325.391 226.023 325.391C227.034 325.391 227.826 325.773 228.398 326.539C228.977 327.305 229.266 328.367 229.266 329.727V329.859ZM228.328 329.695C228.328 328.617 228.107 327.766 227.664 327.141C227.221 326.516 226.604 326.203 225.812 326.203C225.24 326.203 224.747 326.341 224.336 326.617C223.924 326.893 223.609 327.294 223.391 327.82V331.875C223.615 332.359 223.935 332.729 224.352 332.984C224.768 333.24 225.26 333.367 225.828 333.367C226.615 333.367 227.227 333.055 227.664 332.43C228.107 331.799 228.328 330.888 228.328 329.695ZM236.609 326.352H232.336V334H231.398V325.547H236.609V326.352ZM237.422 329.648C237.422 328.836 237.578 328.104 237.891 327.453C238.208 326.802 238.654 326.297 239.227 325.938C239.805 325.573 240.458 325.391 241.188 325.391C242.312 325.391 243.224 325.786 243.922 326.578C244.62 327.365 244.969 328.409 244.969 329.711V329.906C244.969 330.724 244.81 331.461 244.492 332.117C244.18 332.768 243.737 333.271 243.164 333.625C242.591 333.979 241.938 334.156 241.203 334.156C240.083 334.156 239.172 333.763 238.469 332.977C237.771 332.185 237.422 331.138 237.422 329.836V329.648ZM238.359 329.906C238.359 330.917 238.62 331.747 239.141 332.398C239.667 333.044 240.354 333.367 241.203 333.367C242.047 333.367 242.729 333.044 243.25 332.398C243.776 331.747 244.039 330.891 244.039 329.828V329.648C244.039 329.003 243.919 328.411 243.68 327.875C243.44 327.339 243.104 326.924 242.672 326.633C242.24 326.336 241.745 326.188 241.188 326.188C240.354 326.188 239.674 326.516 239.148 327.172C238.622 327.823 238.359 328.677 238.359 329.734V329.906ZM247.008 334V325.547H250.109C251.182 325.547 252.005 325.74 252.578 326.125C253.151 326.505 253.438 327.065 253.438 327.805C253.438 328.227 253.31 328.604 253.055 328.938C252.799 329.266 252.427 329.505 251.938 329.656C252.49 329.76 252.932 329.997 253.266 330.367C253.604 330.737 253.773 331.167 253.773 331.656C253.773 332.401 253.497 332.979 252.945 333.391C252.398 333.797 251.622 334 250.617 334H247.008ZM247.938 330.109V333.219H250.648C251.352 333.219 251.893 333.083 252.273 332.812C252.654 332.542 252.844 332.151 252.844 331.641C252.844 331.172 252.654 330.799 252.273 330.523C251.893 330.247 251.352 330.109 250.648 330.109H247.938ZM247.938 329.328H250.305C251.773 329.307 252.508 328.807 252.508 327.828C252.508 327.312 252.305 326.938 251.898 326.703C251.497 326.464 250.901 326.344 250.109 326.344H247.938V329.328ZM262.359 325.547V334H261.422V326.352H257.961L257.812 329.516C257.75 330.688 257.633 331.583 257.461 332.203C257.289 332.818 257.034 333.271 256.695 333.562C256.357 333.854 255.906 334 255.344 334H254.984V333.172L255.273 333.156C255.81 333.146 256.195 332.885 256.43 332.375C256.664 331.865 256.818 330.953 256.891 329.641L257.062 325.547H262.359ZM270.43 325.547H271.367V334H270.43V327.055L265.867 334H264.938V325.547H265.867V332.5L270.43 325.547Z" fill="black"/>
<path d="M351.398 56H343.945V54.9609L347.883 50.5859C348.466 49.9245 348.867 49.388 349.086 48.9766C349.31 48.5599 349.422 48.1302 349.422 47.6875C349.422 47.0938 349.242 46.6068 348.883 46.2266C348.523 45.8464 348.044 45.6562 347.445 45.6562C346.727 45.6562 346.167 45.862 345.766 46.2734C345.37 46.6797 345.172 47.2474 345.172 47.9766H343.727C343.727 46.9297 344.062 46.0833 344.734 45.4375C345.411 44.7917 346.315 44.4688 347.445 44.4688C348.503 44.4688 349.339 44.7474 349.953 45.3047C350.568 45.8568 350.875 46.5938 350.875 47.5156C350.875 48.6354 350.161 49.9688 348.734 51.5156L345.688 54.8203H351.398V56ZM360.062 51.1484C360.062 52.8411 359.773 54.099 359.195 54.9219C358.617 55.7448 357.714 56.1562 356.484 56.1562C355.271 56.1562 354.372 55.7552 353.789 54.9531C353.206 54.1458 352.904 52.9427 352.883 51.3438V49.4141C352.883 47.7422 353.172 46.5 353.75 45.6875C354.328 44.875 355.234 44.4688 356.469 44.4688C357.693 44.4688 358.594 44.862 359.172 45.6484C359.75 46.4297 360.047 47.638 360.062 49.2734V51.1484ZM358.617 49.1719C358.617 47.9479 358.445 47.0573 358.102 46.5C357.758 45.9375 357.214 45.6562 356.469 45.6562C355.729 45.6562 355.19 45.9349 354.852 46.4922C354.513 47.0495 354.339 47.9062 354.328 49.0625V51.375C354.328 52.6042 354.505 53.513 354.859 54.1016C355.219 54.6849 355.76 54.9766 356.484 54.9766C357.198 54.9766 357.727 54.7005 358.07 54.1484C358.419 53.5964 358.602 52.7266 358.617 51.5391V49.1719ZM366.664 56H365.211V46.3672L362.297 47.4375V46.125L366.438 44.5703H366.664V56ZM371.562 50.2969L372.141 44.625H377.969V45.9609H373.367L373.023 49.0625C373.581 48.7344 374.214 48.5703 374.922 48.5703C375.958 48.5703 376.781 48.9141 377.391 49.6016C378 50.2839 378.305 51.2083 378.305 52.375C378.305 53.5469 377.987 54.4714 377.352 55.1484C376.721 55.8203 375.839 56.1562 374.703 56.1562C373.698 56.1562 372.878 55.8776 372.242 55.3203C371.607 54.763 371.245 53.9922 371.156 53.0078H372.523C372.612 53.6589 372.844 54.151 373.219 54.4844C373.594 54.8125 374.089 54.9766 374.703 54.9766C375.375 54.9766 375.901 54.7474 376.281 54.2891C376.667 53.8307 376.859 53.1979 376.859 52.3906C376.859 51.6302 376.651 51.0208 376.234 50.5625C375.823 50.099 375.273 49.8672 374.586 49.8672C373.956 49.8672 373.461 50.0052 373.102 50.2812L372.719 50.5938L371.562 50.2969Z" fill="#7D879C"/>
<path d="M437.398 147H429.945V145.961L433.883 141.586C434.466 140.924 434.867 140.388 435.086 139.977C435.31 139.56 435.422 139.13 435.422 138.688C435.422 138.094 435.242 137.607 434.883 137.227C434.523 136.846 434.044 136.656 433.445 136.656C432.727 136.656 432.167 136.862 431.766 137.273C431.37 137.68 431.172 138.247 431.172 138.977H429.727C429.727 137.93 430.062 137.083 430.734 136.438C431.411 135.792 432.315 135.469 433.445 135.469C434.503 135.469 435.339 135.747 435.953 136.305C436.568 136.857 436.875 137.594 436.875 138.516C436.875 139.635 436.161 140.969 434.734 142.516L431.688 145.82H437.398V147ZM446.062 142.148C446.062 143.841 445.773 145.099 445.195 145.922C444.617 146.745 443.714 147.156 442.484 147.156C441.271 147.156 440.372 146.755 439.789 145.953C439.206 145.146 438.904 143.943 438.883 142.344V140.414C438.883 138.742 439.172 137.5 439.75 136.688C440.328 135.875 441.234 135.469 442.469 135.469C443.693 135.469 444.594 135.862 445.172 136.648C445.75 137.43 446.047 138.638 446.062 140.273V142.148ZM444.617 140.172C444.617 138.948 444.445 138.057 444.102 137.5C443.758 136.938 443.214 136.656 442.469 136.656C441.729 136.656 441.19 136.935 440.852 137.492C440.513 138.049 440.339 138.906 440.328 140.062V142.375C440.328 143.604 440.505 144.513 440.859 145.102C441.219 145.685 441.76 145.977 442.484 145.977C443.198 145.977 443.727 145.701 444.07 145.148C444.419 144.596 444.602 143.727 444.617 142.539V140.172ZM455.367 147H447.914V145.961L451.852 141.586C452.435 140.924 452.836 140.388 453.055 139.977C453.279 139.56 453.391 139.13 453.391 138.688C453.391 138.094 453.211 137.607 452.852 137.227C452.492 136.846 452.013 136.656 451.414 136.656C450.695 136.656 450.135 136.862 449.734 137.273C449.339 137.68 449.141 138.247 449.141 138.977H447.695C447.695 137.93 448.031 137.083 448.703 136.438C449.38 135.792 450.284 135.469 451.414 135.469C452.471 135.469 453.307 135.747 453.922 136.305C454.536 136.857 454.844 137.594 454.844 138.516C454.844 139.635 454.13 140.969 452.703 142.516L449.656 145.82H455.367V147ZM461.648 147H460.195V137.367L457.281 138.438V137.125L461.422 135.57H461.648V147Z" fill="#7D879C"/>
<path d="M213.398 359H205.945V357.961L209.883 353.586C210.466 352.924 210.867 352.388 211.086 351.977C211.31 351.56 211.422 351.13 211.422 350.688C211.422 350.094 211.242 349.607 210.883 349.227C210.523 348.846 210.044 348.656 209.445 348.656C208.727 348.656 208.167 348.862 207.766 349.273C207.37 349.68 207.172 350.247 207.172 350.977H205.727C205.727 349.93 206.062 349.083 206.734 348.438C207.411 347.792 208.315 347.469 209.445 347.469C210.503 347.469 211.339 347.747 211.953 348.305C212.568 348.857 212.875 349.594 212.875 350.516C212.875 351.635 212.161 352.969 210.734 354.516L207.688 357.82H213.398V359ZM222.062 354.148C222.062 355.841 221.773 357.099 221.195 357.922C220.617 358.745 219.714 359.156 218.484 359.156C217.271 359.156 216.372 358.755 215.789 357.953C215.206 357.146 214.904 355.943 214.883 354.344V352.414C214.883 350.742 215.172 349.5 215.75 348.688C216.328 347.875 217.234 347.469 218.469 347.469C219.693 347.469 220.594 347.862 221.172 348.648C221.75 349.43 222.047 350.638 222.062 352.273V354.148ZM220.617 352.172C220.617 350.948 220.445 350.057 220.102 349.5C219.758 348.938 219.214 348.656 218.469 348.656C217.729 348.656 217.19 348.935 216.852 349.492C216.513 350.049 216.339 350.906 216.328 352.062V354.375C216.328 355.604 216.505 356.513 216.859 357.102C217.219 357.685 217.76 357.977 218.484 357.977C219.198 357.977 219.727 357.701 220.07 357.148C220.419 356.596 220.602 355.727 220.617 354.539V352.172ZM231.367 359H223.914V357.961L227.852 353.586C228.435 352.924 228.836 352.388 229.055 351.977C229.279 351.56 229.391 351.13 229.391 350.688C229.391 350.094 229.211 349.607 228.852 349.227C228.492 348.846 228.013 348.656 227.414 348.656C226.695 348.656 226.135 348.862 225.734 349.273C225.339 349.68 225.141 350.247 225.141 350.977H223.695C223.695 349.93 224.031 349.083 224.703 348.438C225.38 347.792 226.284 347.469 227.414 347.469C228.471 347.469 229.307 347.747 229.922 348.305C230.536 348.857 230.844 349.594 230.844 350.516C230.844 351.635 230.13 352.969 228.703 354.516L225.656 357.82H231.367V359ZM237.648 359H236.195V349.367L233.281 350.438V349.125L237.422 347.57H237.648V359Z" fill="#7D879C"/>
<path d="M361.397 6.47656L354.92 21H352.836L359.292 6.99219H350.827V5.35938H361.397V6.47656ZM363.481 8.36719C363.481 7.42904 363.779 6.6556 364.373 6.04688C364.975 5.43815 365.744 5.13379 366.683 5.13379C367.635 5.13379 368.405 5.44173 368.992 6.05762C369.587 6.66634 369.884 7.45768 369.884 8.43164V9.19434C369.884 10.1396 369.583 10.9131 368.981 11.5146C368.387 12.109 367.628 12.4062 366.704 12.4062C365.773 12.4062 365.003 12.109 364.395 11.5146C363.786 10.9131 363.481 10.1146 363.481 9.11914V8.36719ZM364.964 9.19434C364.964 9.75293 365.121 10.2148 365.437 10.5801C365.752 10.9382 366.174 11.1172 366.704 11.1172C367.213 11.1172 367.621 10.9417 367.929 10.5908C368.244 10.2399 368.401 9.76009 368.401 9.15137V8.36719C368.401 7.80859 368.247 7.34668 367.939 6.98145C367.632 6.61621 367.213 6.43359 366.683 6.43359C366.153 6.43359 365.734 6.61621 365.426 6.98145C365.118 7.34668 364.964 7.82292 364.964 8.41016V9.19434ZM371.098 17.165C371.098 16.2269 371.395 15.457 371.989 14.8555C372.591 14.2467 373.361 13.9424 374.299 13.9424C375.237 13.9424 376.007 14.2432 376.608 14.8447C377.21 15.4463 377.511 16.2448 377.511 17.2402V18.0029C377.511 18.9411 377.21 19.7145 376.608 20.3232C376.014 20.9248 375.251 21.2256 374.32 21.2256C373.389 21.2256 372.619 20.9284 372.011 20.334C371.402 19.7324 371.098 18.9339 371.098 17.9385V17.165ZM372.58 18.0029C372.58 18.5687 372.738 19.0342 373.053 19.3994C373.368 19.7575 373.79 19.9365 374.32 19.9365C374.836 19.9365 375.248 19.7611 375.556 19.4102C375.864 19.0521 376.018 18.5687 376.018 17.96V17.165C376.018 16.5993 375.86 16.1374 375.545 15.7793C375.237 15.4212 374.822 15.2422 374.299 15.2422C373.79 15.2422 373.375 15.4212 373.053 15.7793C372.738 16.1302 372.58 16.6064 372.58 17.208V18.0029ZM367.155 19.8184L366.027 19.1094L373.665 6.88477L374.793 7.59375L367.155 19.8184Z" fill="black"/>
<path d="M420.166 113H418.408V93.7812L412.607 95.9346V94.2939L419.873 91.5986H420.166V113ZM429.834 102.072L430.874 91.6719H441.538V93.2979H432.383L431.636 100.505C432.778 99.7236 434.116 99.333 435.649 99.333C437.573 99.333 439.106 99.958 440.249 101.208C441.392 102.458 441.963 104.123 441.963 106.203C441.963 108.449 441.406 110.192 440.293 111.433C439.18 112.673 437.612 113.293 435.591 113.293C433.735 113.293 432.231 112.775 431.079 111.74C429.927 110.705 429.268 109.255 429.102 107.39H430.786C430.952 108.845 431.445 109.948 432.266 110.7C433.086 111.442 434.194 111.813 435.591 111.813C437.114 111.813 438.262 111.33 439.033 110.363C439.814 109.396 440.205 108.02 440.205 106.232C440.205 104.67 439.771 103.396 438.901 102.409C438.032 101.423 436.846 100.93 435.342 100.93C434.512 100.93 433.789 101.037 433.174 101.252C432.559 101.457 431.909 101.862 431.226 102.468L429.834 102.072ZM444.878 95.7734C444.878 94.5039 445.269 93.4541 446.05 92.624C446.841 91.7842 447.842 91.3643 449.053 91.3643C450.264 91.3643 451.26 91.7842 452.041 92.624C452.832 93.4541 453.228 94.5332 453.228 95.8613V96.9014C453.228 98.1514 452.837 99.1963 452.056 100.036C451.284 100.866 450.293 101.281 449.082 101.281C447.881 101.281 446.88 100.871 446.079 100.051C445.278 99.2305 444.878 98.1465 444.878 96.7988V95.7734ZM446.299 96.9014C446.299 97.8096 446.548 98.5566 447.046 99.1426C447.554 99.7285 448.232 100.021 449.082 100.021C449.912 100.021 450.571 99.7285 451.06 99.1426C451.558 98.5469 451.807 97.7803 451.807 96.8428V95.7734C451.807 94.8652 451.553 94.1182 451.045 93.5322C450.537 92.9365 449.873 92.6387 449.053 92.6387C448.242 92.6387 447.578 92.9316 447.061 93.5176C446.553 94.1035 446.299 94.8848 446.299 95.8613V96.9014ZM455.615 107.771C455.615 106.501 456.006 105.451 456.787 104.621C457.578 103.791 458.574 103.376 459.775 103.376C460.977 103.376 461.973 103.791 462.764 104.621C463.564 105.441 463.965 106.525 463.965 107.873V108.913C463.965 110.183 463.569 111.232 462.778 112.062C461.997 112.893 461.006 113.308 459.805 113.308C458.604 113.308 457.603 112.897 456.802 112.077C456.011 111.247 455.615 110.168 455.615 108.84V107.771ZM457.021 108.913C457.021 109.831 457.271 110.583 457.769 111.169C458.276 111.755 458.955 112.048 459.805 112.048C460.645 112.048 461.309 111.755 461.797 111.169C462.295 110.573 462.544 109.797 462.544 108.84V107.771C462.544 106.833 462.29 106.081 461.782 105.515C461.284 104.938 460.615 104.65 459.775 104.65C458.955 104.65 458.291 104.938 457.783 105.515C457.275 106.091 457.021 106.862 457.021 107.829V108.913ZM449.639 111.228L448.54 110.524L458.955 93.8545L460.054 94.5576L449.639 111.228Z" fill="black"/>
<path d="M384 132L399.5 124.5H464.5" stroke="#1DAEFF" stroke-width="2"/>
<path d="M401 91L406.196 98.3636H395.804L401 91Z" fill="#7FC54F"/>
<path d="M119 314.818L124.196 307.454H113.804L119 314.818Z" fill="#D64356"/>
<defs>
<linearGradient id="paint0_linear" x1="205" y1="23" x2="205" y2="433" gradientUnits="userSpaceOnUse">
<stop stop-color="#E4F7FF"/>
<stop offset="1" stop-color="white" stop-opacity="0"/>
</linearGradient>
<linearGradient id="paint1_linear" x1="205" y1="23" x2="205" y2="433" gradientUnits="userSpaceOnUse">
<stop stop-color="#1EAEFF"/>
<stop offset="1" stop-color="#00E0FF"/>
</linearGradient>
</defs>
</svg>
