<svg width="1060" height="483" viewBox="0 0 1060 483" fill="none" xmlns="http://www.w3.org/2000/svg">
<rect y="76" width="1060" height="1" fill="#EEEEEE"/>
<rect x="159" y="441" width="365" height="1" transform="rotate(-90 159 441)" fill="#EEEEEE"/>
<rect x="900" y="441" width="365" height="1" transform="rotate(-90 900 441)" fill="#EEEEEE"/>
<rect y="137" width="1060" height="1" fill="#EEEEEE"/>
<rect y="197" width="1060" height="1" fill="#EEEEEE"/>
<rect y="258" width="1060" height="1" fill="#EEEEEE"/>
<rect y="320" width="1060" height="1" fill="#EEEEEE"/>
<rect y="380" width="1060" height="1" fill="#EEEEEE"/>
<rect y="440" width="1060" height="1" fill="#EEEEEE"/>
<path d="M614.869 292.871C431.882 424.153 124.842 425.576 1 440H1060V30C831.677 68.465 789.115 167.86 614.869 292.871Z" fill="url(#paint0_linear)" fill-opacity="0.15"/>
<path d="M614.869 292.871C431.882 424.153 124.842 425.576 1 440H1060V30C831.677 68.465 789.115 167.86 614.869 292.871Z" fill="url(#paint1_linear)"/>
<path d="M1 440C124.783 433.984 431.678 433.391 614.579 378.637C788.743 326.498 831.285 285.043 1059.5 269" stroke="url(#paint2_linear)"/>
<circle cx="900.5" cy="288.5" r="3.5" fill="#4943CD"/>
<path d="M1 441C124.783 429.777 431.678 427.671 614.579 325.527C788.743 228.262 831.285 150.928 1059.5 121" stroke="url(#paint3_linear)"/>
<circle cx="900.5" cy="157.5" r="3.5" fill="#FF8A00"/>
<path d="M1 440C124.783 425.505 431.678 424.076 614.579 292.154C788.743 166.533 831.285 66.6526 1059.5 28" stroke="url(#paint4_linear)" stroke-width="2"/>
<circle cx="900" cy="76" r="5" fill="white" stroke="#D64356" stroke-width="2"/>
<circle cx="160" cy="426" r="5" fill="white" stroke="#D64356" stroke-width="2"/>
<path d="M166.448 476H158.063V474.831L162.493 469.909C163.149 469.165 163.601 468.562 163.847 468.099C164.099 467.63 164.225 467.146 164.225 466.648C164.225 465.98 164.022 465.433 163.618 465.005C163.214 464.577 162.675 464.363 162.001 464.363C161.192 464.363 160.562 464.595 160.111 465.058C159.666 465.515 159.443 466.153 159.443 466.974H157.817C157.817 465.796 158.195 464.844 158.951 464.117C159.713 463.391 160.729 463.027 162.001 463.027C163.19 463.027 164.131 463.341 164.822 463.968C165.514 464.589 165.859 465.418 165.859 466.455C165.859 467.715 165.057 469.215 163.451 470.955L160.023 474.673H166.448V476ZM176.195 470.542C176.195 472.446 175.87 473.861 175.22 474.787C174.569 475.713 173.553 476.176 172.17 476.176C170.805 476.176 169.794 475.725 169.138 474.822C168.481 473.914 168.142 472.561 168.118 470.762V468.591C168.118 466.71 168.443 465.312 169.094 464.398C169.744 463.484 170.764 463.027 172.152 463.027C173.529 463.027 174.543 463.47 175.193 464.354C175.844 465.233 176.178 466.593 176.195 468.433V470.542ZM174.569 468.318C174.569 466.941 174.376 465.939 173.989 465.312C173.603 464.68 172.99 464.363 172.152 464.363C171.32 464.363 170.714 464.677 170.333 465.304C169.952 465.931 169.756 466.895 169.744 468.195V470.797C169.744 472.18 169.943 473.202 170.342 473.864C170.746 474.521 171.355 474.849 172.17 474.849C172.973 474.849 173.567 474.538 173.954 473.917C174.347 473.296 174.552 472.317 174.569 470.981V468.318ZM183.622 476H181.987V465.163L178.709 466.367V464.891L183.367 463.142H183.622V476ZM190.75 468.811H191.972C192.739 468.799 193.343 468.597 193.782 468.204C194.222 467.812 194.441 467.281 194.441 466.613C194.441 465.113 193.694 464.363 192.2 464.363C191.497 464.363 190.935 464.565 190.513 464.97C190.097 465.368 189.889 465.898 189.889 466.561H188.263C188.263 465.547 188.632 464.706 189.37 464.038C190.114 463.364 191.058 463.027 192.2 463.027C193.407 463.027 194.354 463.347 195.039 463.985C195.725 464.624 196.067 465.512 196.067 466.648C196.067 467.205 195.886 467.744 195.522 468.266C195.165 468.787 194.676 469.177 194.055 469.435C194.758 469.657 195.3 470.026 195.681 470.542C196.067 471.058 196.261 471.688 196.261 472.432C196.261 473.58 195.886 474.491 195.136 475.165C194.386 475.839 193.41 476.176 192.209 476.176C191.008 476.176 190.029 475.851 189.273 475.2C188.523 474.55 188.148 473.691 188.148 472.625H189.783C189.783 473.299 190.003 473.838 190.442 474.242C190.882 474.646 191.471 474.849 192.209 474.849C192.994 474.849 193.595 474.644 194.011 474.233C194.427 473.823 194.635 473.234 194.635 472.467C194.635 471.723 194.406 471.151 193.949 470.753C193.492 470.354 192.833 470.149 191.972 470.138H190.75V468.811Z" fill="black"/>
<path d="M907.448 476H899.063V474.831L903.493 469.909C904.149 469.165 904.601 468.562 904.847 468.099C905.099 467.63 905.225 467.146 905.225 466.648C905.225 465.98 905.022 465.433 904.618 465.005C904.214 464.577 903.675 464.363 903.001 464.363C902.192 464.363 901.562 464.595 901.111 465.058C900.666 465.515 900.443 466.153 900.443 466.974H898.817C898.817 465.796 899.195 464.844 899.951 464.117C900.713 463.391 901.729 463.027 903.001 463.027C904.19 463.027 905.131 463.341 905.822 463.968C906.514 464.589 906.859 465.418 906.859 466.455C906.859 467.715 906.057 469.215 904.451 470.955L901.023 474.673H907.448V476ZM917.195 470.542C917.195 472.446 916.87 473.861 916.22 474.787C915.569 475.713 914.553 476.176 913.17 476.176C911.805 476.176 910.794 475.725 910.138 474.822C909.481 473.914 909.142 472.561 909.118 470.762V468.591C909.118 466.71 909.443 465.312 910.094 464.398C910.744 463.484 911.764 463.027 913.152 463.027C914.529 463.027 915.543 463.47 916.193 464.354C916.844 465.233 917.178 466.593 917.195 468.433V470.542ZM915.569 468.318C915.569 466.941 915.376 465.939 914.989 465.312C914.603 464.68 913.99 464.363 913.152 464.363C912.32 464.363 911.714 464.677 911.333 465.304C910.952 465.931 910.756 466.895 910.744 468.195V470.797C910.744 472.18 910.943 473.202 911.342 473.864C911.746 474.521 912.355 474.849 913.17 474.849C913.973 474.849 914.567 474.538 914.954 473.917C915.347 473.296 915.552 472.317 915.569 470.981V468.318ZM927.663 476H919.278V474.831L923.708 469.909C924.364 469.165 924.815 468.562 925.062 468.099C925.313 467.63 925.439 467.146 925.439 466.648C925.439 465.98 925.237 465.433 924.833 465.005C924.429 464.577 923.89 464.363 923.216 464.363C922.407 464.363 921.777 464.595 921.326 465.058C920.881 465.515 920.658 466.153 920.658 466.974H919.032C919.032 465.796 919.41 464.844 920.166 464.117C920.928 463.391 921.944 463.027 923.216 463.027C924.405 463.027 925.346 463.341 926.037 463.968C926.729 464.589 927.074 465.418 927.074 466.455C927.074 467.715 926.271 469.215 924.666 470.955L921.238 474.673H927.663V476ZM937.41 470.542C937.41 472.446 937.085 473.861 936.435 474.787C935.784 475.713 934.768 476.176 933.385 476.176C932.02 476.176 931.009 475.725 930.353 474.822C929.696 473.914 929.356 472.561 929.333 470.762V468.591C929.333 466.71 929.658 465.312 930.309 464.398C930.959 463.484 931.979 463.027 933.367 463.027C934.744 463.027 935.758 463.47 936.408 464.354C937.059 465.233 937.393 466.593 937.41 468.433V470.542ZM935.784 468.318C935.784 466.941 935.591 465.939 935.204 465.312C934.817 464.68 934.205 464.363 933.367 464.363C932.535 464.363 931.929 464.677 931.548 465.304C931.167 465.931 930.971 466.895 930.959 468.195V470.797C930.959 472.18 931.158 473.202 931.557 473.864C931.961 474.521 932.57 474.849 933.385 474.849C934.188 474.849 934.782 474.538 935.169 473.917C935.562 473.296 935.767 472.317 935.784 470.981V468.318Z" fill="black"/>
<path d="M906.07 11.6797C906.07 12.7943 905.883 13.7682 905.508 14.6016C905.133 15.4297 904.602 16.0625 903.914 16.5C903.227 16.9375 902.424 17.1562 901.508 17.1562C900.612 17.1562 899.818 16.9375 899.125 16.5C898.432 16.0573 897.893 15.4297 897.508 14.6172C897.128 13.7995 896.932 12.8542 896.922 11.7812V10.9609C896.922 9.86719 897.112 8.90104 897.492 8.0625C897.872 7.22396 898.409 6.58333 899.102 6.14062C899.799 5.69271 900.596 5.46875 901.492 5.46875C902.404 5.46875 903.206 5.6901 903.898 6.13281C904.596 6.57031 905.133 7.20833 905.508 8.04688C905.883 8.88021 906.07 9.85156 906.07 10.9609V11.6797ZM904.578 10.9453C904.578 9.59635 904.307 8.5625 903.766 7.84375C903.224 7.11979 902.466 6.75781 901.492 6.75781C900.544 6.75781 899.797 7.11979 899.25 7.84375C898.708 8.5625 898.43 9.5625 898.414 10.8438V11.6797C898.414 12.987 898.688 14.0156 899.234 14.7656C899.786 15.5104 900.544 15.8828 901.508 15.8828C902.477 15.8828 903.227 15.5312 903.758 14.8281C904.289 14.1198 904.562 13.1068 904.578 11.7891V10.9453ZM914.43 14.0312H909.664L908.594 17H907.047L911.391 5.625H912.703L917.055 17H915.516L914.43 14.0312ZM910.117 12.7969H913.984L912.047 7.47656L910.117 12.7969ZM919.922 13.3906C920.068 14.3281 920.362 14.987 920.805 15.3672C921.253 15.7422 921.893 15.9297 922.727 15.9297C923.628 15.9297 924.339 15.5781 924.859 14.875C925.385 14.1719 925.654 13.1953 925.664 11.9453H921.188V10.7109H925.664C925.664 9.47656 925.393 8.5 924.852 7.78125C924.315 7.0625 923.562 6.70312 922.594 6.70312C921.812 6.70312 921.203 6.90625 920.766 7.3125C920.333 7.71875 920.052 8.375 919.922 9.28125H918.414C918.534 8.08854 918.958 7.15625 919.688 6.48438C920.417 5.80729 921.385 5.46875 922.594 5.46875C923.51 5.46875 924.315 5.6875 925.008 6.125C925.706 6.55729 926.24 7.17708 926.609 7.98438C926.984 8.78646 927.172 9.71094 927.172 10.7578V11.8906C927.172 12.9375 926.987 13.862 926.617 14.6641C926.247 15.4661 925.724 16.0833 925.047 16.5156C924.375 16.9427 923.602 17.1562 922.727 17.1562C921.487 17.1562 920.492 16.8307 919.742 16.1797C918.997 15.5234 918.555 14.5938 918.414 13.3906H919.922Z" fill="black"/>
<path d="M902.688 38.0703C902.688 37.5911 902.518 37.1875 902.18 36.8594C901.846 36.5312 901.281 36.2344 900.484 35.9688C899.375 35.6302 898.565 35.1901 898.055 34.6484C897.549 34.1016 897.297 33.4089 897.297 32.5703C897.297 31.7161 897.544 31.0156 898.039 30.4688C898.539 29.9219 899.224 29.5964 900.094 29.4922V27.7812H901.258V29.5C902.133 29.6198 902.812 29.987 903.297 30.6016C903.786 31.2161 904.031 32.0573 904.031 33.125H902.594C902.594 32.3906 902.419 31.8073 902.07 31.375C901.721 30.9427 901.25 30.7266 900.656 30.7266C900.036 30.7266 899.562 30.888 899.234 31.2109C898.906 31.5286 898.742 31.974 898.742 32.5469C898.742 33.0781 898.914 33.5026 899.258 33.8203C899.607 34.1328 900.177 34.4193 900.969 34.6797C901.766 34.9349 902.385 35.2188 902.828 35.5312C903.276 35.8385 903.604 36.1979 903.812 36.6094C904.026 37.0208 904.133 37.5026 904.133 38.0547C904.133 38.9349 903.867 39.6432 903.336 40.1797C902.81 40.7161 902.07 41.0339 901.117 41.1328V42.625H899.961V41.1328C898.992 41.0443 898.232 40.7005 897.68 40.1016C897.133 39.4974 896.859 38.6797 896.859 37.6484H898.305C898.305 38.3724 898.495 38.9297 898.875 39.3203C899.255 39.7109 899.794 39.9062 900.492 39.9062C901.174 39.9062 901.711 39.7422 902.102 39.4141C902.492 39.0859 902.688 38.638 902.688 38.0703ZM910.68 41H909.227V31.3672L906.312 32.4375V31.125L910.453 29.5703H910.68V41ZM920.453 36C920.151 36.3594 919.789 36.6484 919.367 36.8672C918.951 37.0859 918.492 37.1953 917.992 37.1953C917.336 37.1953 916.763 37.0339 916.273 36.7109C915.789 36.388 915.414 35.9349 915.148 35.3516C914.883 34.763 914.75 34.1146 914.75 33.4062C914.75 32.6458 914.893 31.9609 915.18 31.3516C915.471 30.7422 915.883 30.276 916.414 29.9531C916.945 29.6302 917.565 29.4688 918.273 29.4688C919.398 29.4688 920.284 29.8906 920.93 30.7344C921.581 31.5729 921.906 32.7188 921.906 34.1719V34.5938C921.906 36.8073 921.469 38.4245 920.594 39.4453C919.719 40.4609 918.398 40.9818 916.633 41.0078H916.352V39.7891H916.656C917.849 39.7682 918.766 39.4583 919.406 38.8594C920.047 38.2552 920.396 37.3021 920.453 36ZM918.227 36C918.711 36 919.156 35.8516 919.562 35.5547C919.974 35.2578 920.273 34.8906 920.461 34.4531V33.875C920.461 32.9271 920.255 32.1562 919.844 31.5625C919.432 30.9688 918.911 30.6719 918.281 30.6719C917.646 30.6719 917.135 30.9167 916.75 31.4062C916.365 31.8906 916.172 32.5312 916.172 33.3281C916.172 34.1042 916.357 34.7448 916.727 35.25C917.102 35.75 917.602 36 918.227 36ZM924 43.2656L923.18 42.7031C923.669 42.0208 923.924 41.3177 923.945 40.5938V39.2891H925.359V40.4219C925.359 40.9479 925.229 41.474 924.969 42C924.714 42.526 924.391 42.9479 924 43.2656ZM934.383 30.4375L929.672 41H928.156L932.852 30.8125H926.695V29.625H934.383V30.4375ZM945.008 39.0859L947.883 32.5469H949.688V41H948.242V34.8516L945.508 41H944.508L941.719 34.7188V41H940.273V32.5469H942.148L945.008 39.0859ZM958.945 32.5469V41H957.492V33.7422H954.617L954.445 36.9062C954.352 38.3594 954.107 39.3984 953.711 40.0234C953.32 40.6484 952.698 40.974 951.844 41H951.266V39.7266L951.68 39.6953C952.148 39.6432 952.484 39.3724 952.688 38.8828C952.891 38.3932 953.021 37.487 953.078 36.1641L953.234 32.5469H958.945ZM968.406 36.8672C968.406 38.1536 968.112 39.1901 967.523 39.9766C966.935 40.763 966.138 41.1562 965.133 41.1562C964.107 41.1562 963.299 40.8307 962.711 40.1797V44.25H961.266V32.5469H962.586L962.656 33.4844C963.245 32.7552 964.062 32.3906 965.109 32.3906C966.125 32.3906 966.927 32.7734 967.516 33.5391C968.109 34.3047 968.406 35.3698 968.406 36.7344V36.8672ZM966.961 36.7031C966.961 35.75 966.758 34.9974 966.352 34.4453C965.945 33.8932 965.388 33.6172 964.68 33.6172C963.805 33.6172 963.148 34.0052 962.711 34.7812V38.8203C963.143 39.5911 963.805 39.9766 964.695 39.9766C965.388 39.9766 965.938 39.7031 966.344 39.1562C966.755 38.6042 966.961 37.7865 966.961 36.7031ZM970.039 39.8203L970.539 39.2031C971.102 38.474 971.422 37.3802 971.5 35.9219L971.633 32.5469H977.078V39.8203H978.164V43.4844H976.719V41H970.82V43.4844H969.375L969.383 39.8203H970.039ZM971.75 39.8203H975.633V33.8828H973.031L972.945 35.8984C972.857 37.5807 972.458 38.888 971.75 39.8203Z" fill="#7D879C"/>
<path d="M904.492 108.625H905.992V120H904.492V111.234L898.891 120H897.383V108.625H898.891V117.391L904.492 108.625ZM914.781 112.719H911.945V120H910.5V112.719H907.719V111.547H914.781V112.719ZM921.281 120C921.198 119.833 921.13 119.536 921.078 119.109C920.406 119.807 919.604 120.156 918.672 120.156C917.839 120.156 917.154 119.922 916.617 119.453C916.086 118.979 915.82 118.38 915.82 117.656C915.82 116.776 916.154 116.094 916.82 115.609C917.492 115.12 918.435 114.875 919.648 114.875H921.055V114.211C921.055 113.706 920.904 113.305 920.602 113.008C920.299 112.706 919.854 112.555 919.266 112.555C918.75 112.555 918.318 112.685 917.969 112.945C917.62 113.206 917.445 113.521 917.445 113.891H915.992C915.992 113.469 916.141 113.062 916.438 112.672C916.74 112.276 917.146 111.964 917.656 111.734C918.172 111.505 918.737 111.391 919.352 111.391C920.326 111.391 921.089 111.635 921.641 112.125C922.193 112.609 922.479 113.279 922.5 114.133V118.023C922.5 118.799 922.599 119.417 922.797 119.875V120H921.281ZM918.883 118.898C919.336 118.898 919.766 118.781 920.172 118.547C920.578 118.312 920.872 118.008 921.055 117.633V115.898H919.922C918.151 115.898 917.266 116.417 917.266 117.453C917.266 117.906 917.417 118.26 917.719 118.516C918.021 118.771 918.409 118.898 918.883 118.898ZM931.695 111.547V120H930.242V112.742H927.367L927.195 115.906C927.102 117.359 926.857 118.398 926.461 119.023C926.07 119.648 925.448 119.974 924.594 120H924.016V118.727L924.43 118.695C924.898 118.643 925.234 118.372 925.438 117.883C925.641 117.393 925.771 116.487 925.828 115.164L925.984 111.547H931.695ZM939.484 111.547H940.93V120H939.484V113.836L935.586 120H934.141V111.547H935.586V117.719L939.484 111.547ZM949.711 111.547V120H948.258V116.711H946.078L944.086 120H942.523L944.648 116.492C944.107 116.294 943.69 115.99 943.398 115.578C943.112 115.161 942.969 114.677 942.969 114.125C942.969 113.354 943.258 112.734 943.836 112.266C944.414 111.792 945.188 111.552 946.156 111.547H949.711ZM944.422 114.141C944.422 114.552 944.562 114.885 944.844 115.141C945.125 115.391 945.497 115.518 945.961 115.523H948.258V112.719H946.18C945.643 112.719 945.216 112.852 944.898 113.117C944.581 113.378 944.422 113.719 944.422 114.141Z" fill="black"/>
<path d="M902.688 141.07C902.688 140.591 902.518 140.188 902.18 139.859C901.846 139.531 901.281 139.234 900.484 138.969C899.375 138.63 898.565 138.19 898.055 137.648C897.549 137.102 897.297 136.409 897.297 135.57C897.297 134.716 897.544 134.016 898.039 133.469C898.539 132.922 899.224 132.596 900.094 132.492V130.781H901.258V132.5C902.133 132.62 902.812 132.987 903.297 133.602C903.786 134.216 904.031 135.057 904.031 136.125H902.594C902.594 135.391 902.419 134.807 902.07 134.375C901.721 133.943 901.25 133.727 900.656 133.727C900.036 133.727 899.562 133.888 899.234 134.211C898.906 134.529 898.742 134.974 898.742 135.547C898.742 136.078 898.914 136.503 899.258 136.82C899.607 137.133 900.177 137.419 900.969 137.68C901.766 137.935 902.385 138.219 902.828 138.531C903.276 138.839 903.604 139.198 903.812 139.609C904.026 140.021 904.133 140.503 904.133 141.055C904.133 141.935 903.867 142.643 903.336 143.18C902.81 143.716 902.07 144.034 901.117 144.133V145.625H899.961V144.133C898.992 144.044 898.232 143.701 897.68 143.102C897.133 142.497 896.859 141.68 896.859 140.648H898.305C898.305 141.372 898.495 141.93 898.875 142.32C899.255 142.711 899.794 142.906 900.492 142.906C901.174 142.906 901.711 142.742 902.102 142.414C902.492 142.086 902.688 141.638 902.688 141.07ZM910.68 144H909.227V134.367L906.312 135.438V134.125L910.453 132.57H910.68V144ZM922.258 133.438L917.547 144H916.031L920.727 133.812H914.57V132.625H922.258V133.438ZM924 146.266L923.18 145.703C923.669 145.021 923.924 144.318 923.945 143.594V142.289H925.359V143.422C925.359 143.948 925.229 144.474 924.969 145C924.714 145.526 924.391 145.948 924 146.266ZM934.383 133.438L929.672 144H928.156L932.852 133.812H926.695V132.625H934.383V133.438ZM945.008 142.086L947.883 135.547H949.688V144H948.242V137.852L945.508 144H944.508L941.719 137.719V144H940.273V135.547H942.148L945.008 142.086ZM958.945 135.547V144H957.492V136.742H954.617L954.445 139.906C954.352 141.359 954.107 142.398 953.711 143.023C953.32 143.648 952.698 143.974 951.844 144H951.266V142.727L951.68 142.695C952.148 142.643 952.484 142.372 952.688 141.883C952.891 141.393 953.021 140.487 953.078 139.164L953.234 135.547H958.945ZM968.406 139.867C968.406 141.154 968.112 142.19 967.523 142.977C966.935 143.763 966.138 144.156 965.133 144.156C964.107 144.156 963.299 143.831 962.711 143.18V147.25H961.266V135.547H962.586L962.656 136.484C963.245 135.755 964.062 135.391 965.109 135.391C966.125 135.391 966.927 135.773 967.516 136.539C968.109 137.305 968.406 138.37 968.406 139.734V139.867ZM966.961 139.703C966.961 138.75 966.758 137.997 966.352 137.445C965.945 136.893 965.388 136.617 964.68 136.617C963.805 136.617 963.148 137.005 962.711 137.781V141.82C963.143 142.591 963.805 142.977 964.695 142.977C965.388 142.977 965.938 142.703 966.344 142.156C966.755 141.604 966.961 140.786 966.961 139.703ZM970.039 142.82L970.539 142.203C971.102 141.474 971.422 140.38 971.5 138.922L971.633 135.547H977.078V142.82H978.164V146.484H976.719V144H970.82V146.484H969.375L969.383 142.82H970.039ZM971.75 142.82H975.633V136.883H973.031L972.945 138.898C972.857 140.581 972.458 141.888 971.75 142.82Z" fill="#7D879C"/>
<path d="M904.492 239.625H905.992V251H904.492V242.234L898.891 251H897.383V239.625H898.891V248.391L904.492 239.625ZM913.148 244.859C913.148 244.464 912.997 244.151 912.695 243.922C912.393 243.688 911.979 243.57 911.453 243.57C910.943 243.57 910.516 243.703 910.172 243.969C909.833 244.234 909.664 244.547 909.664 244.906H908.227C908.227 244.172 908.534 243.57 909.148 243.102C909.763 242.633 910.531 242.398 911.453 242.398C912.443 242.398 913.214 242.612 913.766 243.039C914.318 243.461 914.594 244.065 914.594 244.852C914.594 245.232 914.479 245.581 914.25 245.898C914.021 246.216 913.695 246.469 913.273 246.656C914.258 246.99 914.75 247.646 914.75 248.625C914.75 249.401 914.451 250.016 913.852 250.469C913.253 250.922 912.453 251.148 911.453 251.148C910.479 251.148 909.674 250.911 909.039 250.438C908.409 249.958 908.094 249.312 908.094 248.5H909.531C909.531 248.911 909.714 249.266 910.078 249.562C910.448 249.854 910.906 250 911.453 250C912.005 250 912.451 249.872 912.789 249.617C913.128 249.362 913.297 249.031 913.297 248.625C913.297 248.151 913.154 247.812 912.867 247.609C912.586 247.401 912.146 247.297 911.547 247.297H910.102V246.078H911.672C912.656 246.052 913.148 245.646 913.148 244.859ZM923.766 246.867C923.766 248.154 923.471 249.19 922.883 249.977C922.294 250.763 921.497 251.156 920.492 251.156C919.466 251.156 918.659 250.831 918.07 250.18V254.25H916.625V242.547H917.945L918.016 243.484C918.604 242.755 919.422 242.391 920.469 242.391C921.484 242.391 922.286 242.773 922.875 243.539C923.469 244.305 923.766 245.37 923.766 246.734V246.867ZM922.32 246.703C922.32 245.75 922.117 244.997 921.711 244.445C921.305 243.893 920.747 243.617 920.039 243.617C919.164 243.617 918.508 244.005 918.07 244.781V248.82C918.503 249.591 919.164 249.977 920.055 249.977C920.747 249.977 921.297 249.703 921.703 249.156C922.115 248.604 922.32 247.786 922.32 246.703ZM930.828 251C930.745 250.833 930.677 250.536 930.625 250.109C929.953 250.807 929.151 251.156 928.219 251.156C927.385 251.156 926.701 250.922 926.164 250.453C925.633 249.979 925.367 249.38 925.367 248.656C925.367 247.776 925.701 247.094 926.367 246.609C927.039 246.12 927.982 245.875 929.195 245.875H930.602V245.211C930.602 244.706 930.451 244.305 930.148 244.008C929.846 243.706 929.401 243.555 928.812 243.555C928.297 243.555 927.865 243.685 927.516 243.945C927.167 244.206 926.992 244.521 926.992 244.891H925.539C925.539 244.469 925.688 244.062 925.984 243.672C926.286 243.276 926.693 242.964 927.203 242.734C927.719 242.505 928.284 242.391 928.898 242.391C929.872 242.391 930.635 242.635 931.188 243.125C931.74 243.609 932.026 244.279 932.047 245.133V249.023C932.047 249.799 932.146 250.417 932.344 250.875V251H930.828ZM928.43 249.898C928.883 249.898 929.312 249.781 929.719 249.547C930.125 249.312 930.419 249.008 930.602 248.633V246.898H929.469C927.698 246.898 926.812 247.417 926.812 248.453C926.812 248.906 926.964 249.26 927.266 249.516C927.568 249.771 927.956 249.898 928.43 249.898ZM939.781 242.547H941.227V251H939.781V244.836L935.883 251H934.438V242.547H935.883V248.719L939.781 242.547ZM950.477 242.547V251H949.023V243.742H946.148L945.977 246.906C945.883 248.359 945.638 249.398 945.242 250.023C944.852 250.648 944.229 250.974 943.375 251H942.797V249.727L943.211 249.695C943.68 249.643 944.016 249.372 944.219 248.883C944.422 248.393 944.552 247.487 944.609 246.164L944.766 242.547H950.477ZM954.375 245.461H956.57C957.529 245.471 958.286 245.721 958.844 246.211C959.401 246.701 959.68 247.365 959.68 248.203C959.68 249.047 959.393 249.724 958.82 250.234C958.247 250.745 957.477 251 956.508 251H952.93V242.547H954.375V245.461ZM954.375 246.641V249.82H956.523C957.065 249.82 957.484 249.682 957.781 249.406C958.078 249.125 958.227 248.742 958.227 248.258C958.227 247.789 958.081 247.406 957.789 247.109C957.503 246.807 957.099 246.651 956.578 246.641H954.375Z" fill="black"/>
<path d="M902.688 272.07C902.688 271.591 902.518 271.188 902.18 270.859C901.846 270.531 901.281 270.234 900.484 269.969C899.375 269.63 898.565 269.19 898.055 268.648C897.549 268.102 897.297 267.409 897.297 266.57C897.297 265.716 897.544 265.016 898.039 264.469C898.539 263.922 899.224 263.596 900.094 263.492V261.781H901.258V263.5C902.133 263.62 902.812 263.987 903.297 264.602C903.786 265.216 904.031 266.057 904.031 267.125H902.594C902.594 266.391 902.419 265.807 902.07 265.375C901.721 264.943 901.25 264.727 900.656 264.727C900.036 264.727 899.562 264.888 899.234 265.211C898.906 265.529 898.742 265.974 898.742 266.547C898.742 267.078 898.914 267.503 899.258 267.82C899.607 268.133 900.177 268.419 900.969 268.68C901.766 268.935 902.385 269.219 902.828 269.531C903.276 269.839 903.604 270.198 903.812 270.609C904.026 271.021 904.133 271.503 904.133 272.055C904.133 272.935 903.867 273.643 903.336 274.18C902.81 274.716 902.07 275.034 901.117 275.133V276.625H899.961V275.133C898.992 275.044 898.232 274.701 897.68 274.102C897.133 273.497 896.859 272.68 896.859 271.648H898.305C898.305 272.372 898.495 272.93 898.875 273.32C899.255 273.711 899.794 273.906 900.492 273.906C901.174 273.906 901.711 273.742 902.102 273.414C902.492 273.086 902.688 272.638 902.688 272.07ZM912.031 271.18H913.609V272.359H912.031V275H910.578V272.359H905.398V271.508L910.492 263.625H912.031V271.18ZM907.039 271.18H910.578V265.602L910.406 265.914L907.039 271.18ZM915.016 277.266L914.195 276.703C914.685 276.021 914.94 275.318 914.961 274.594V273.289H916.375V274.422C916.375 274.948 916.245 275.474 915.984 276C915.729 276.526 915.406 276.948 915.016 277.266ZM923.727 263.617V264.844H923.461C922.336 264.865 921.44 265.198 920.773 265.844C920.107 266.49 919.721 267.398 919.617 268.57C920.216 267.883 921.034 267.539 922.07 267.539C923.06 267.539 923.849 267.888 924.438 268.586C925.031 269.284 925.328 270.185 925.328 271.289C925.328 272.461 925.008 273.398 924.367 274.102C923.732 274.805 922.878 275.156 921.805 275.156C920.716 275.156 919.833 274.74 919.156 273.906C918.479 273.068 918.141 271.99 918.141 270.672V270.117C918.141 268.023 918.586 266.424 919.477 265.32C920.372 264.211 921.703 263.643 923.469 263.617H923.727ZM921.828 268.742C921.333 268.742 920.878 268.891 920.461 269.188C920.044 269.484 919.755 269.857 919.594 270.305V270.836C919.594 271.773 919.805 272.529 920.227 273.102C920.648 273.674 921.174 273.961 921.805 273.961C922.456 273.961 922.966 273.721 923.336 273.242C923.711 272.763 923.898 272.135 923.898 271.359C923.898 270.578 923.708 269.948 923.328 269.469C922.953 268.984 922.453 268.742 921.828 268.742ZM936.023 273.086L938.898 266.547H940.703V275H939.258V268.852L936.523 275H935.523L932.734 268.719V275H931.289V266.547H933.164L936.023 273.086ZM949.961 266.547V275H948.508V267.742H945.633L945.461 270.906C945.367 272.359 945.122 273.398 944.727 274.023C944.336 274.648 943.714 274.974 942.859 275H942.281V273.727L942.695 273.695C943.164 273.643 943.5 273.372 943.703 272.883C943.906 272.393 944.036 271.487 944.094 270.164L944.25 266.547H949.961ZM959.422 270.867C959.422 272.154 959.128 273.19 958.539 273.977C957.951 274.763 957.154 275.156 956.148 275.156C955.122 275.156 954.315 274.831 953.727 274.18V278.25H952.281V266.547H953.602L953.672 267.484C954.26 266.755 955.078 266.391 956.125 266.391C957.141 266.391 957.943 266.773 958.531 267.539C959.125 268.305 959.422 269.37 959.422 270.734V270.867ZM957.977 270.703C957.977 269.75 957.773 268.997 957.367 268.445C956.961 267.893 956.404 267.617 955.695 267.617C954.82 267.617 954.164 268.005 953.727 268.781V272.82C954.159 273.591 954.82 273.977 955.711 273.977C956.404 273.977 956.953 273.703 957.359 273.156C957.771 272.604 957.977 271.786 957.977 270.703ZM961.055 273.82L961.555 273.203C962.117 272.474 962.438 271.38 962.516 269.922L962.648 266.547H968.094V273.82H969.18V277.484H967.734V275H961.836V277.484H960.391L960.398 273.82H961.055ZM962.766 273.82H966.648V267.883H964.047L963.961 269.898C963.872 271.581 963.474 272.888 962.766 273.82Z" fill="#7D879C"/>
<path d="M167.07 363.68C167.07 364.794 166.883 365.768 166.508 366.602C166.133 367.43 165.602 368.062 164.914 368.5C164.227 368.938 163.424 369.156 162.508 369.156C161.612 369.156 160.818 368.938 160.125 368.5C159.432 368.057 158.893 367.43 158.508 366.617C158.128 365.799 157.932 364.854 157.922 363.781V362.961C157.922 361.867 158.112 360.901 158.492 360.062C158.872 359.224 159.409 358.583 160.102 358.141C160.799 357.693 161.596 357.469 162.492 357.469C163.404 357.469 164.206 357.69 164.898 358.133C165.596 358.57 166.133 359.208 166.508 360.047C166.883 360.88 167.07 361.852 167.07 362.961V363.68ZM165.578 362.945C165.578 361.596 165.307 360.562 164.766 359.844C164.224 359.12 163.466 358.758 162.492 358.758C161.544 358.758 160.797 359.12 160.25 359.844C159.708 360.562 159.43 361.562 159.414 362.844V363.68C159.414 364.987 159.688 366.016 160.234 366.766C160.786 367.51 161.544 367.883 162.508 367.883C163.477 367.883 164.227 367.531 164.758 366.828C165.289 366.12 165.562 365.107 165.578 363.789V362.945ZM175.43 366.031H170.664L169.594 369H168.047L172.391 357.625H173.703L178.055 369H176.516L175.43 366.031ZM171.117 364.797H174.984L173.047 359.477L171.117 364.797ZM180.922 365.391C181.068 366.328 181.362 366.987 181.805 367.367C182.253 367.742 182.893 367.93 183.727 367.93C184.628 367.93 185.339 367.578 185.859 366.875C186.385 366.172 186.654 365.195 186.664 363.945H182.188V362.711H186.664C186.664 361.477 186.393 360.5 185.852 359.781C185.315 359.062 184.562 358.703 183.594 358.703C182.812 358.703 182.203 358.906 181.766 359.312C181.333 359.719 181.052 360.375 180.922 361.281H179.414C179.534 360.089 179.958 359.156 180.688 358.484C181.417 357.807 182.385 357.469 183.594 357.469C184.51 357.469 185.315 357.688 186.008 358.125C186.706 358.557 187.24 359.177 187.609 359.984C187.984 360.786 188.172 361.711 188.172 362.758V363.891C188.172 364.938 187.987 365.862 187.617 366.664C187.247 367.466 186.724 368.083 186.047 368.516C185.375 368.943 184.602 369.156 183.727 369.156C182.487 369.156 181.492 368.831 180.742 368.18C179.997 367.523 179.555 366.594 179.414 365.391H180.922Z" fill="black"/>
<path d="M163.688 390.07C163.688 389.591 163.518 389.188 163.18 388.859C162.846 388.531 162.281 388.234 161.484 387.969C160.375 387.63 159.565 387.19 159.055 386.648C158.549 386.102 158.297 385.409 158.297 384.57C158.297 383.716 158.544 383.016 159.039 382.469C159.539 381.922 160.224 381.596 161.094 381.492V379.781H162.258V381.5C163.133 381.62 163.812 381.987 164.297 382.602C164.786 383.216 165.031 384.057 165.031 385.125H163.594C163.594 384.391 163.419 383.807 163.07 383.375C162.721 382.943 162.25 382.727 161.656 382.727C161.036 382.727 160.562 382.888 160.234 383.211C159.906 383.529 159.742 383.974 159.742 384.547C159.742 385.078 159.914 385.503 160.258 385.82C160.607 386.133 161.177 386.419 161.969 386.68C162.766 386.935 163.385 387.219 163.828 387.531C164.276 387.839 164.604 388.198 164.812 388.609C165.026 389.021 165.133 389.503 165.133 390.055C165.133 390.935 164.867 391.643 164.336 392.18C163.81 392.716 163.07 393.034 162.117 393.133V394.625H160.961V393.133C159.992 393.044 159.232 392.701 158.68 392.102C158.133 391.497 157.859 390.68 157.859 389.648H159.305C159.305 390.372 159.495 390.93 159.875 391.32C160.255 391.711 160.794 391.906 161.492 391.906C162.174 391.906 162.711 391.742 163.102 391.414C163.492 391.086 163.688 390.638 163.688 390.07ZM171.68 393H170.227V383.367L167.312 384.438V383.125L171.453 381.57H171.68V393ZM181.586 381.617V382.844H181.32C180.195 382.865 179.299 383.198 178.633 383.844C177.966 384.49 177.581 385.398 177.477 386.57C178.076 385.883 178.893 385.539 179.93 385.539C180.919 385.539 181.708 385.888 182.297 386.586C182.891 387.284 183.188 388.185 183.188 389.289C183.188 390.461 182.867 391.398 182.227 392.102C181.591 392.805 180.737 393.156 179.664 393.156C178.576 393.156 177.693 392.74 177.016 391.906C176.339 391.068 176 389.99 176 388.672V388.117C176 386.023 176.445 384.424 177.336 383.32C178.232 382.211 179.562 381.643 181.328 381.617H181.586ZM179.688 386.742C179.193 386.742 178.737 386.891 178.32 387.188C177.904 387.484 177.615 387.857 177.453 388.305V388.836C177.453 389.773 177.664 390.529 178.086 391.102C178.508 391.674 179.034 391.961 179.664 391.961C180.315 391.961 180.826 391.721 181.195 391.242C181.57 390.763 181.758 390.135 181.758 389.359C181.758 388.578 181.568 387.948 181.188 387.469C180.812 386.984 180.312 386.742 179.688 386.742ZM185 395.266L184.18 394.703C184.669 394.021 184.924 393.318 184.945 392.594V391.289H186.359V392.422C186.359 392.948 186.229 393.474 185.969 394C185.714 394.526 185.391 394.948 185 395.266ZM190.141 386.609H191.227C191.909 386.599 192.445 386.419 192.836 386.07C193.227 385.721 193.422 385.25 193.422 384.656C193.422 383.323 192.758 382.656 191.43 382.656C190.805 382.656 190.305 382.836 189.93 383.195C189.56 383.549 189.375 384.021 189.375 384.609H187.93C187.93 383.708 188.258 382.961 188.914 382.367C189.576 381.768 190.414 381.469 191.43 381.469C192.503 381.469 193.344 381.753 193.953 382.32C194.562 382.888 194.867 383.677 194.867 384.688C194.867 385.182 194.706 385.661 194.383 386.125C194.065 386.589 193.63 386.935 193.078 387.164C193.703 387.362 194.185 387.69 194.523 388.148C194.867 388.607 195.039 389.167 195.039 389.828C195.039 390.849 194.706 391.659 194.039 392.258C193.372 392.857 192.505 393.156 191.438 393.156C190.37 393.156 189.5 392.867 188.828 392.289C188.161 391.711 187.828 390.948 187.828 390H189.281C189.281 390.599 189.477 391.078 189.867 391.438C190.258 391.797 190.781 391.977 191.438 391.977C192.135 391.977 192.669 391.794 193.039 391.43C193.409 391.065 193.594 390.542 193.594 389.859C193.594 389.198 193.391 388.69 192.984 388.336C192.578 387.982 191.992 387.799 191.227 387.789H190.141V386.609ZM206.008 391.086L208.883 384.547H210.688V393H209.242V386.852L206.508 393H205.508L202.719 386.719V393H201.273V384.547H203.148L206.008 391.086ZM219.945 384.547V393H218.492V385.742H215.617L215.445 388.906C215.352 390.359 215.107 391.398 214.711 392.023C214.32 392.648 213.698 392.974 212.844 393H212.266V391.727L212.68 391.695C213.148 391.643 213.484 391.372 213.688 390.883C213.891 390.393 214.021 389.487 214.078 388.164L214.234 384.547H219.945ZM229.406 388.867C229.406 390.154 229.112 391.19 228.523 391.977C227.935 392.763 227.138 393.156 226.133 393.156C225.107 393.156 224.299 392.831 223.711 392.18V396.25H222.266V384.547H223.586L223.656 385.484C224.245 384.755 225.062 384.391 226.109 384.391C227.125 384.391 227.927 384.773 228.516 385.539C229.109 386.305 229.406 387.37 229.406 388.734V388.867ZM227.961 388.703C227.961 387.75 227.758 386.997 227.352 386.445C226.945 385.893 226.388 385.617 225.68 385.617C224.805 385.617 224.148 386.005 223.711 386.781V390.82C224.143 391.591 224.805 391.977 225.695 391.977C226.388 391.977 226.938 391.703 227.344 391.156C227.755 390.604 227.961 389.786 227.961 388.703ZM231.039 391.82L231.539 391.203C232.102 390.474 232.422 389.38 232.5 387.922L232.633 384.547H238.078V391.82H239.164V395.484H237.719V393H231.82V395.484H230.375L230.383 391.82H231.039ZM232.75 391.82H236.633V385.883H234.031L233.945 387.898C233.857 389.581 233.458 390.888 232.75 391.82Z" fill="#7D879C"/>
<path d="M5.9834 68H4.71191V59.5713L2.16211 60.5078V59.3594L5.78516 57.999H5.9834V68ZM16.1143 58.7578L11.9922 68H10.666L14.7744 59.0859H9.3877V58.0469H16.1143V58.7578ZM18.1309 63.0098L18.6367 58.0469H23.7363V59.2158H19.71L19.4092 61.9297C19.8968 61.6426 20.4505 61.499 21.0703 61.499C21.9772 61.499 22.6973 61.7998 23.2305 62.4014C23.7637 62.9984 24.0303 63.8073 24.0303 64.8281C24.0303 65.8535 23.7523 66.6624 23.1963 67.2549C22.6449 67.8428 21.8724 68.1367 20.8789 68.1367C19.9993 68.1367 19.2816 67.8929 18.7256 67.4053C18.1696 66.9176 17.8529 66.2432 17.7754 65.3818H18.9717C19.0492 65.9515 19.252 66.3822 19.5801 66.6738C19.9082 66.9609 20.3411 67.1045 20.8789 67.1045C21.4668 67.1045 21.9271 66.904 22.2598 66.5029C22.597 66.1019 22.7656 65.5482 22.7656 64.8418C22.7656 64.1764 22.5833 63.6432 22.2188 63.2422C21.8587 62.8366 21.3779 62.6338 20.7764 62.6338C20.2249 62.6338 19.792 62.7546 19.4775 62.9961L19.1426 63.2695L18.1309 63.0098ZM25.3018 59.9609C25.3018 59.3639 25.4909 58.8717 25.8691 58.4844C26.252 58.097 26.7419 57.9033 27.3389 57.9033C27.945 57.9033 28.4349 58.0993 28.8086 58.4912C29.1868 58.8786 29.376 59.3822 29.376 60.002V60.4873C29.376 61.0889 29.1846 61.5811 28.8018 61.9639C28.4235 62.3421 27.9404 62.5312 27.3525 62.5312C26.7601 62.5312 26.2702 62.3421 25.8828 61.9639C25.4954 61.5811 25.3018 61.0729 25.3018 60.4395V59.9609ZM26.2451 60.4873C26.2451 60.8428 26.3454 61.1367 26.5459 61.3691C26.7464 61.597 27.0153 61.7109 27.3525 61.7109C27.6761 61.7109 27.9359 61.5993 28.1318 61.376C28.3324 61.1527 28.4326 60.8473 28.4326 60.46V59.9609C28.4326 59.6055 28.3346 59.3115 28.1387 59.0791C27.9427 58.8467 27.6761 58.7305 27.3389 58.7305C27.0016 58.7305 26.735 58.8467 26.5391 59.0791C26.3431 59.3115 26.2451 59.6146 26.2451 59.9883V60.4873ZM30.1484 65.5596C30.1484 64.9626 30.3376 64.4727 30.7158 64.0898C31.0986 63.7025 31.5885 63.5088 32.1855 63.5088C32.7826 63.5088 33.2725 63.7002 33.6553 64.083C34.0381 64.4658 34.2295 64.974 34.2295 65.6074V66.0928C34.2295 66.6898 34.0381 67.182 33.6553 67.5693C33.277 67.9521 32.7917 68.1436 32.1992 68.1436C31.6068 68.1436 31.1169 67.9544 30.7295 67.5762C30.3421 67.1934 30.1484 66.6852 30.1484 66.0518V65.5596ZM31.0918 66.0928C31.0918 66.4528 31.1921 66.749 31.3926 66.9814C31.5931 67.2093 31.862 67.3232 32.1992 67.3232C32.5273 67.3232 32.7894 67.2116 32.9854 66.9883C33.1813 66.7604 33.2793 66.4528 33.2793 66.0654V65.5596C33.2793 65.1995 33.179 64.9056 32.9785 64.6777C32.7826 64.4499 32.5182 64.3359 32.1855 64.3359C31.862 64.3359 31.5977 64.4499 31.3926 64.6777C31.1921 64.901 31.0918 65.2041 31.0918 65.5869V66.0928ZM27.6396 67.248L26.9219 66.7969L31.7822 59.0176L32.5 59.4688L27.6396 67.248Z" fill="#A8B0C1"/>
<path d="M5.9834 189H4.71191V180.571L2.16211 181.508V180.359L5.78516 178.999H5.9834V189ZM10.2695 184.01L10.7754 179.047H15.875V180.216H11.8486L11.5479 182.93C12.0355 182.643 12.5892 182.499 13.209 182.499C14.1159 182.499 14.8359 182.8 15.3691 183.401C15.9023 183.998 16.1689 184.807 16.1689 185.828C16.1689 186.854 15.891 187.662 15.335 188.255C14.7835 188.843 14.0111 189.137 13.0176 189.137C12.138 189.137 11.4202 188.893 10.8643 188.405C10.3083 187.918 9.99154 187.243 9.91406 186.382H11.1104C11.1878 186.951 11.3906 187.382 11.7188 187.674C12.0469 187.961 12.4798 188.104 13.0176 188.104C13.6055 188.104 14.0658 187.904 14.3984 187.503C14.7357 187.102 14.9043 186.548 14.9043 185.842C14.9043 185.176 14.722 184.643 14.3574 184.242C13.9974 183.837 13.5166 183.634 12.915 183.634C12.3636 183.634 11.9307 183.755 11.6162 183.996L11.2812 184.27L10.2695 184.01ZM23.791 184.755C23.791 186.236 23.5381 187.337 23.0322 188.057C22.5264 188.777 21.7357 189.137 20.6602 189.137C19.5983 189.137 18.8122 188.786 18.3018 188.084C17.7913 187.378 17.527 186.325 17.5088 184.926V183.237C17.5088 181.774 17.7617 180.688 18.2676 179.977C18.7734 179.266 19.5664 178.91 20.6465 178.91C21.7174 178.91 22.5059 179.254 23.0117 179.942C23.5176 180.626 23.7773 181.683 23.791 183.114V184.755ZM22.5264 183.025C22.5264 181.954 22.376 181.175 22.0752 180.688C21.7744 180.195 21.2982 179.949 20.6465 179.949C19.9993 179.949 19.5277 180.193 19.2314 180.681C18.9352 181.168 18.7826 181.918 18.7734 182.93V184.953C18.7734 186.029 18.9284 186.824 19.2383 187.339C19.5527 187.849 20.0267 188.104 20.6602 188.104C21.2845 188.104 21.7471 187.863 22.0479 187.38C22.3532 186.897 22.5127 186.136 22.5264 185.097V183.025ZM25.3018 180.961C25.3018 180.364 25.4909 179.872 25.8691 179.484C26.252 179.097 26.7419 178.903 27.3389 178.903C27.945 178.903 28.4349 179.099 28.8086 179.491C29.1868 179.879 29.376 180.382 29.376 181.002V181.487C29.376 182.089 29.1846 182.581 28.8018 182.964C28.4235 183.342 27.9404 183.531 27.3525 183.531C26.7601 183.531 26.2702 183.342 25.8828 182.964C25.4954 182.581 25.3018 182.073 25.3018 181.439V180.961ZM26.2451 181.487C26.2451 181.843 26.3454 182.137 26.5459 182.369C26.7464 182.597 27.0153 182.711 27.3525 182.711C27.6761 182.711 27.9359 182.599 28.1318 182.376C28.3324 182.153 28.4326 181.847 28.4326 181.46V180.961C28.4326 180.605 28.3346 180.312 28.1387 180.079C27.9427 179.847 27.6761 179.73 27.3389 179.73C27.0016 179.73 26.735 179.847 26.5391 180.079C26.3431 180.312 26.2451 180.615 26.2451 180.988V181.487ZM30.1484 186.56C30.1484 185.963 30.3376 185.473 30.7158 185.09C31.0986 184.702 31.5885 184.509 32.1855 184.509C32.7826 184.509 33.2725 184.7 33.6553 185.083C34.0381 185.466 34.2295 185.974 34.2295 186.607V187.093C34.2295 187.69 34.0381 188.182 33.6553 188.569C33.277 188.952 32.7917 189.144 32.1992 189.144C31.6068 189.144 31.1169 188.954 30.7295 188.576C30.3421 188.193 30.1484 187.685 30.1484 187.052V186.56ZM31.0918 187.093C31.0918 187.453 31.1921 187.749 31.3926 187.981C31.5931 188.209 31.862 188.323 32.1992 188.323C32.5273 188.323 32.7894 188.212 32.9854 187.988C33.1813 187.76 33.2793 187.453 33.2793 187.065V186.56C33.2793 186.2 33.179 185.906 32.9785 185.678C32.7826 185.45 32.5182 185.336 32.1855 185.336C31.862 185.336 31.5977 185.45 31.3926 185.678C31.1921 185.901 31.0918 186.204 31.0918 186.587V187.093ZM27.6396 188.248L26.9219 187.797L31.7822 180.018L32.5 180.469L27.6396 188.248Z" fill="#A8B0C1"/>
<path d="M4.9834 312H3.71191V303.571L1.16211 304.508V303.359L4.78516 301.999H4.9834V312ZM15.21 312H8.68848V311.091L12.1338 307.263C12.6442 306.684 12.9951 306.215 13.1865 305.854C13.3825 305.49 13.4805 305.114 13.4805 304.727C13.4805 304.207 13.3232 303.781 13.0088 303.448C12.6943 303.116 12.2751 302.949 11.751 302.949C11.1221 302.949 10.6322 303.129 10.2812 303.489C9.9349 303.845 9.76172 304.341 9.76172 304.979H8.49707C8.49707 304.063 8.79102 303.323 9.37891 302.758C9.97135 302.193 10.762 301.91 11.751 301.91C12.6761 301.91 13.4076 302.154 13.9453 302.642C14.4831 303.125 14.752 303.77 14.752 304.576C14.752 305.556 14.1276 306.723 12.8789 308.076L10.2129 310.968H15.21V312ZM17.1309 307.01L17.6367 302.047H22.7363V303.216H18.71L18.4092 305.93C18.8968 305.643 19.4505 305.499 20.0703 305.499C20.9772 305.499 21.6973 305.8 22.2305 306.401C22.7637 306.998 23.0303 307.807 23.0303 308.828C23.0303 309.854 22.7523 310.662 22.1963 311.255C21.6449 311.843 20.8724 312.137 19.8789 312.137C18.9993 312.137 18.2816 311.893 17.7256 311.405C17.1696 310.918 16.8529 310.243 16.7754 309.382H17.9717C18.0492 309.951 18.252 310.382 18.5801 310.674C18.9082 310.961 19.3411 311.104 19.8789 311.104C20.4668 311.104 20.9271 310.904 21.2598 310.503C21.597 310.102 21.7656 309.548 21.7656 308.842C21.7656 308.176 21.5833 307.643 21.2188 307.242C20.8587 306.837 20.3779 306.634 19.7764 306.634C19.2249 306.634 18.792 306.755 18.4775 306.996L18.1426 307.27L17.1309 307.01ZM24.3018 303.961C24.3018 303.364 24.4909 302.872 24.8691 302.484C25.252 302.097 25.7419 301.903 26.3389 301.903C26.945 301.903 27.4349 302.099 27.8086 302.491C28.1868 302.879 28.376 303.382 28.376 304.002V304.487C28.376 305.089 28.1846 305.581 27.8018 305.964C27.4235 306.342 26.9404 306.531 26.3525 306.531C25.7601 306.531 25.2702 306.342 24.8828 305.964C24.4954 305.581 24.3018 305.073 24.3018 304.439V303.961ZM25.2451 304.487C25.2451 304.843 25.3454 305.137 25.5459 305.369C25.7464 305.597 26.0153 305.711 26.3525 305.711C26.6761 305.711 26.9359 305.599 27.1318 305.376C27.3324 305.153 27.4326 304.847 27.4326 304.46V303.961C27.4326 303.605 27.3346 303.312 27.1387 303.079C26.9427 302.847 26.6761 302.73 26.3389 302.73C26.0016 302.73 25.735 302.847 25.5391 303.079C25.3431 303.312 25.2451 303.615 25.2451 303.988V304.487ZM29.1484 309.56C29.1484 308.963 29.3376 308.473 29.7158 308.09C30.0986 307.702 30.5885 307.509 31.1855 307.509C31.7826 307.509 32.2725 307.7 32.6553 308.083C33.0381 308.466 33.2295 308.974 33.2295 309.607V310.093C33.2295 310.69 33.0381 311.182 32.6553 311.569C32.277 311.952 31.7917 312.144 31.1992 312.144C30.6068 312.144 30.1169 311.954 29.7295 311.576C29.3421 311.193 29.1484 310.685 29.1484 310.052V309.56ZM30.0918 310.093C30.0918 310.453 30.1921 310.749 30.3926 310.981C30.5931 311.209 30.862 311.323 31.1992 311.323C31.5273 311.323 31.7894 311.212 31.9854 310.988C32.1813 310.76 32.2793 310.453 32.2793 310.065V309.56C32.2793 309.2 32.179 308.906 31.9785 308.678C31.7826 308.45 31.5182 308.336 31.1855 308.336C30.862 308.336 30.5977 308.45 30.3926 308.678C30.1921 308.901 30.0918 309.204 30.0918 309.587V310.093ZM26.6396 311.248L25.9219 310.797L30.7822 303.018L31.5 303.469L26.6396 311.248Z" fill="#A8B0C1"/>
<defs>
<linearGradient id="paint0_linear" x1="7" y1="440" x2="1060.49" y2="442.393" gradientUnits="userSpaceOnUse">
<stop offset="0.536458" stop-color="#FFCDCD"/>
<stop offset="1" stop-color="white" stop-opacity="0"/>
</linearGradient>
<linearGradient id="paint1_linear" x1="530" y1="338" x2="520" y2="422" gradientUnits="userSpaceOnUse">
<stop stop-color="white" stop-opacity="0"/>
<stop offset="1" stop-color="white"/>
</linearGradient>
<linearGradient id="paint2_linear" x1="531" y1="249.493" x2="531" y2="440" gradientUnits="userSpaceOnUse">
<stop offset="0.104167" stop-color="#4943CD" stop-opacity="0"/>
<stop offset="0.151042" stop-color="#4943CD"/>
<stop offset="0.59375" stop-color="#0085FF"/>
<stop offset="0.760417" stop-color="#00A3FF"/>
<stop offset="1" stop-color="#439BCD" stop-opacity="0"/>
</linearGradient>
<linearGradient id="paint3_linear" x1="531" y1="84.6092" x2="531" y2="440" gradientUnits="userSpaceOnUse">
<stop offset="0.104167" stop-color="#FF8A00" stop-opacity="0"/>
<stop offset="0.151042" stop-color="#FF8A00"/>
<stop offset="0.963542" stop-color="#FFD600"/>
<stop offset="1" stop-color="#FFD600" stop-opacity="0"/>
</linearGradient>
<linearGradient id="paint4_linear" x1="531" y1="-19.0001" x2="531" y2="440" gradientUnits="userSpaceOnUse">
<stop offset="0.104167" stop-color="#D64356" stop-opacity="0"/>
<stop offset="0.151042" stop-color="#D64356"/>
<stop offset="0.963542" stop-color="#FF005C"/>
<stop offset="1" stop-color="#FF005C" stop-opacity="0"/>
</linearGradient>
</defs>
</svg>
