<svg width="527" height="427" viewBox="0 0 527 427" fill="none" xmlns="http://www.w3.org/2000/svg">
<path d="M300.268 144.163C210.762 167.217 60.5761 167.467 0 170V387H518V98C406.318 104.755 385.499 122.21 300.268 144.163Z" fill="url(#paint0_linear)" fill-opacity="0.04"/>
<path d="M300.268 144.163C210.762 167.217 60.5761 167.467 0 170V387H518V98C406.318 104.755 385.499 122.21 300.268 144.163Z" fill="url(#paint1_linear)"/>
<path d="M300.268 144.163C210.762 167.217 60.5761 167.467 0 170V387H518V98C406.318 104.755 385.499 122.21 300.268 144.163Z" fill="url(#paint2_linear)"/>
<rect y="23" width="519" height="1" fill="#EEEEEE"/>
<rect x="89" y="388" width="365" height="1" transform="rotate(-90 89 388)" fill="#EEEEEE"/>
<rect x="449" y="388" width="365" height="1" transform="rotate(-90 449 388)" fill="#EEEEEE"/>
<rect x="-1" y="84" width="520" height="1" fill="#EEEEEE"/>
<rect x="-1" y="144" width="520" height="1" fill="#EEEEEE"/>
<rect x="-1" y="205" width="520" height="1" fill="#EEEEEE"/>
<rect x="-1" y="267" width="520" height="1" fill="#EEEEEE"/>
<rect x="-1" y="327" width="520" height="1" fill="#EEEEEE"/>
<rect x="-1" y="387" width="520" height="1" fill="#EEEEEE"/>
<path d="M1 173C61.5761 170.467 211.762 170.217 301.268 147.163C386.499 125.21 407.318 107.755 519 101" stroke="url(#paint3_linear)" stroke-width="2"/>
<circle cx="90" cy="170" r="5" fill="white" stroke="#3FE6FD" stroke-width="2"/>
<circle cx="450" cy="108" r="5" fill="white" stroke="#00A5FF" stroke-width="2"/>
<path d="M98.4482 423H90.0635V421.831L94.4932 416.909C95.1494 416.165 95.6006 415.562 95.8467 415.099C96.0986 414.63 96.2246 414.146 96.2246 413.648C96.2246 412.98 96.0225 412.433 95.6182 412.005C95.2139 411.577 94.6748 411.363 94.001 411.363C93.1924 411.363 92.5625 411.595 92.1113 412.058C91.666 412.515 91.4434 413.153 91.4434 413.974H89.8174C89.8174 412.796 90.1953 411.844 90.9512 411.117C91.7129 410.391 92.7295 410.027 94.001 410.027C95.1904 410.027 96.1309 410.341 96.8223 410.968C97.5137 411.589 97.8594 412.418 97.8594 413.455C97.8594 414.715 97.0566 416.215 95.4512 417.955L92.0234 421.673H98.4482V423ZM108.195 417.542C108.195 419.446 107.87 420.861 107.22 421.787C106.569 422.713 105.553 423.176 104.17 423.176C102.805 423.176 101.794 422.725 101.138 421.822C100.481 420.914 100.142 419.561 100.118 417.762V415.591C100.118 413.71 100.443 412.312 101.094 411.398C101.744 410.484 102.764 410.027 104.152 410.027C105.529 410.027 106.543 410.47 107.193 411.354C107.844 412.233 108.178 413.593 108.195 415.433V417.542ZM106.569 415.318C106.569 413.941 106.376 412.939 105.989 412.312C105.603 411.68 104.99 411.363 104.152 411.363C103.32 411.363 102.714 411.677 102.333 412.304C101.952 412.931 101.756 413.895 101.744 415.195V417.797C101.744 419.18 101.943 420.202 102.342 420.864C102.746 421.521 103.355 421.849 104.17 421.849C104.973 421.849 105.567 421.538 105.954 420.917C106.347 420.296 106.552 419.317 106.569 417.981V415.318ZM115.622 423H113.987V412.163L110.709 413.367V411.891L115.367 410.142H115.622V423ZM121.133 416.584L121.783 410.203H128.34V411.706H123.163L122.776 415.195C123.403 414.826 124.115 414.642 124.912 414.642C126.078 414.642 127.004 415.028 127.689 415.802C128.375 416.569 128.718 417.609 128.718 418.922C128.718 420.24 128.36 421.28 127.646 422.042C126.937 422.798 125.943 423.176 124.666 423.176C123.535 423.176 122.612 422.862 121.897 422.235C121.183 421.608 120.775 420.741 120.676 419.634H122.214C122.313 420.366 122.574 420.92 122.996 421.295C123.418 421.664 123.975 421.849 124.666 421.849C125.422 421.849 126.014 421.591 126.441 421.075C126.875 420.56 127.092 419.848 127.092 418.939C127.092 418.084 126.857 417.398 126.389 416.883C125.926 416.361 125.308 416.101 124.534 416.101C123.825 416.101 123.269 416.256 122.864 416.566L122.434 416.918L121.133 416.584Z" fill="black"/>
<path d="M458.448 423H450.063V421.831L454.493 416.909C455.149 416.165 455.601 415.562 455.847 415.099C456.099 414.63 456.225 414.146 456.225 413.648C456.225 412.98 456.022 412.433 455.618 412.005C455.214 411.577 454.675 411.363 454.001 411.363C453.192 411.363 452.562 411.595 452.111 412.058C451.666 412.515 451.443 413.153 451.443 413.974H449.817C449.817 412.796 450.195 411.844 450.951 411.117C451.713 410.391 452.729 410.027 454.001 410.027C455.19 410.027 456.131 410.341 456.822 410.968C457.514 411.589 457.859 412.418 457.859 413.455C457.859 414.715 457.057 416.215 455.451 417.955L452.023 421.673H458.448V423ZM468.195 417.542C468.195 419.446 467.87 420.861 467.22 421.787C466.569 422.713 465.553 423.176 464.17 423.176C462.805 423.176 461.794 422.725 461.138 421.822C460.481 420.914 460.142 419.561 460.118 417.762V415.591C460.118 413.71 460.443 412.312 461.094 411.398C461.744 410.484 462.764 410.027 464.152 410.027C465.529 410.027 466.543 410.47 467.193 411.354C467.844 412.233 468.178 413.593 468.195 415.433V417.542ZM466.569 415.318C466.569 413.941 466.376 412.939 465.989 412.312C465.603 411.68 464.99 411.363 464.152 411.363C463.32 411.363 462.714 411.677 462.333 412.304C461.952 412.931 461.756 413.895 461.744 415.195V417.797C461.744 419.18 461.943 420.202 462.342 420.864C462.746 421.521 463.355 421.849 464.17 421.849C464.973 421.849 465.567 421.538 465.954 420.917C466.347 420.296 466.552 419.317 466.569 417.981V415.318ZM475.622 423H473.987V412.163L470.709 413.367V411.891L475.367 410.142H475.622V423ZM488.146 413.543C488.146 414.182 487.977 414.75 487.637 415.248C487.303 415.746 486.849 416.136 486.274 416.417C486.942 416.704 487.47 417.123 487.856 417.674C488.249 418.225 488.445 418.849 488.445 419.546C488.445 420.653 488.07 421.535 487.32 422.191C486.576 422.848 485.595 423.176 484.376 423.176C483.146 423.176 482.158 422.848 481.414 422.191C480.676 421.529 480.307 420.647 480.307 419.546C480.307 418.854 480.494 418.23 480.869 417.674C481.25 417.117 481.774 416.695 482.442 416.408C481.874 416.127 481.426 415.737 481.098 415.239C480.77 414.741 480.605 414.176 480.605 413.543C480.605 412.465 480.951 411.609 481.643 410.977C482.334 410.344 483.245 410.027 484.376 410.027C485.501 410.027 486.409 410.344 487.101 410.977C487.798 411.609 488.146 412.465 488.146 413.543ZM486.819 419.511C486.819 418.796 486.591 418.213 486.134 417.762C485.683 417.311 485.091 417.085 484.358 417.085C483.626 417.085 483.037 417.308 482.592 417.753C482.152 418.198 481.933 418.784 481.933 419.511C481.933 420.237 482.146 420.809 482.574 421.225C483.008 421.641 483.608 421.849 484.376 421.849C485.138 421.849 485.735 421.641 486.169 421.225C486.603 420.803 486.819 420.231 486.819 419.511ZM484.376 411.363C483.737 411.363 483.219 411.562 482.82 411.961C482.428 412.354 482.231 412.89 482.231 413.569C482.231 414.22 482.425 414.747 482.812 415.151C483.204 415.55 483.726 415.749 484.376 415.749C485.026 415.749 485.545 415.55 485.932 415.151C486.324 414.747 486.521 414.22 486.521 413.569C486.521 412.919 486.318 412.389 485.914 411.979C485.51 411.568 484.997 411.363 484.376 411.363Z" fill="black"/>
<path d="M90.6875 203.07C90.6875 202.591 90.5182 202.188 90.1797 201.859C89.8464 201.531 89.2812 201.234 88.4844 200.969C87.375 200.63 86.5651 200.19 86.0547 199.648C85.5495 199.102 85.2969 198.409 85.2969 197.57C85.2969 196.716 85.5443 196.016 86.0391 195.469C86.5391 194.922 87.224 194.596 88.0938 194.492V192.781H89.2578V194.5C90.1328 194.62 90.8125 194.987 91.2969 195.602C91.7865 196.216 92.0312 197.057 92.0312 198.125H90.5938C90.5938 197.391 90.4193 196.807 90.0703 196.375C89.7214 195.943 89.25 195.727 88.6562 195.727C88.0365 195.727 87.5625 195.888 87.2344 196.211C86.9062 196.529 86.7422 196.974 86.7422 197.547C86.7422 198.078 86.9141 198.503 87.2578 198.82C87.6068 199.133 88.1771 199.419 88.9688 199.68C89.7656 199.935 90.3854 200.219 90.8281 200.531C91.276 200.839 91.6042 201.198 91.8125 201.609C92.026 202.021 92.1328 202.503 92.1328 203.055C92.1328 203.935 91.8672 204.643 91.3359 205.18C90.8099 205.716 90.0703 206.034 89.1172 206.133V207.625H87.9609V206.133C86.9922 206.044 86.2318 205.701 85.6797 205.102C85.1328 204.497 84.8594 203.68 84.8594 202.648H86.3047C86.3047 203.372 86.4948 203.93 86.875 204.32C87.2552 204.711 87.7943 204.906 88.4922 204.906C89.1745 204.906 89.7109 204.742 90.1016 204.414C90.4922 204.086 90.6875 203.638 90.6875 203.07ZM98.6797 206H97.2266V196.367L94.3125 197.438V196.125L98.4531 194.57H98.6797V206ZM103.016 208.266L102.195 207.703C102.685 207.021 102.94 206.318 102.961 205.594V204.289H104.375V205.422C104.375 205.948 104.245 206.474 103.984 207C103.729 207.526 103.406 207.948 103.016 208.266ZM113.398 195.438L108.688 206H107.172L111.867 195.812H105.711V194.625H113.398V195.438ZM122.383 195.438L117.672 206H116.156L120.852 195.812H114.695V194.625H122.383V195.438ZM134.422 198.719H131.586V206H130.141V198.719H127.359V197.547H134.422V198.719ZM142.969 201.867C142.969 203.154 142.674 204.19 142.086 204.977C141.497 205.763 140.701 206.156 139.695 206.156C138.669 206.156 137.862 205.831 137.273 205.18V209.25H135.828V197.547H137.148L137.219 198.484C137.807 197.755 138.625 197.391 139.672 197.391C140.688 197.391 141.49 197.773 142.078 198.539C142.672 199.305 142.969 200.37 142.969 201.734V201.867ZM141.523 201.703C141.523 200.75 141.32 199.997 140.914 199.445C140.508 198.893 139.951 198.617 139.242 198.617C138.367 198.617 137.711 199.005 137.273 199.781V203.82C137.706 204.591 138.367 204.977 139.258 204.977C139.951 204.977 140.5 204.703 140.906 204.156C141.318 203.604 141.523 202.786 141.523 201.703ZM151.633 197.547V206H150.18V198.742H147.305L147.133 201.906C147.039 203.359 146.794 204.398 146.398 205.023C146.008 205.648 145.385 205.974 144.531 206H143.953V204.727L144.367 204.695C144.836 204.643 145.172 204.372 145.375 203.883C145.578 203.393 145.708 202.487 145.766 201.164L145.922 197.547H151.633ZM160.859 206H159.414V202.391H155.531V206H154.078V197.547H155.531V201.211H159.414V197.547H160.859V206Z" fill="#7D879C"/>
<path d="M449.688 142.07C449.688 141.591 449.518 141.188 449.18 140.859C448.846 140.531 448.281 140.234 447.484 139.969C446.375 139.63 445.565 139.19 445.055 138.648C444.549 138.102 444.297 137.409 444.297 136.57C444.297 135.716 444.544 135.016 445.039 134.469C445.539 133.922 446.224 133.596 447.094 133.492V131.781H448.258V133.5C449.133 133.62 449.812 133.987 450.297 134.602C450.786 135.216 451.031 136.057 451.031 137.125H449.594C449.594 136.391 449.419 135.807 449.07 135.375C448.721 134.943 448.25 134.727 447.656 134.727C447.036 134.727 446.562 134.888 446.234 135.211C445.906 135.529 445.742 135.974 445.742 136.547C445.742 137.078 445.914 137.503 446.258 137.82C446.607 138.133 447.177 138.419 447.969 138.68C448.766 138.935 449.385 139.219 449.828 139.531C450.276 139.839 450.604 140.198 450.812 140.609C451.026 141.021 451.133 141.503 451.133 142.055C451.133 142.935 450.867 143.643 450.336 144.18C449.81 144.716 449.07 145.034 448.117 145.133V146.625H446.961V145.133C445.992 145.044 445.232 144.701 444.68 144.102C444.133 143.497 443.859 142.68 443.859 141.648H445.305C445.305 142.372 445.495 142.93 445.875 143.32C446.255 143.711 446.794 143.906 447.492 143.906C448.174 143.906 448.711 143.742 449.102 143.414C449.492 143.086 449.688 142.638 449.688 142.07ZM460.383 145H452.93V143.961L456.867 139.586C457.451 138.924 457.852 138.388 458.07 137.977C458.294 137.56 458.406 137.13 458.406 136.688C458.406 136.094 458.227 135.607 457.867 135.227C457.508 134.846 457.029 134.656 456.43 134.656C455.711 134.656 455.151 134.862 454.75 135.273C454.354 135.68 454.156 136.247 454.156 136.977H452.711C452.711 135.93 453.047 135.083 453.719 134.438C454.396 133.792 455.299 133.469 456.43 133.469C457.487 133.469 458.323 133.747 458.938 134.305C459.552 134.857 459.859 135.594 459.859 136.516C459.859 137.635 459.146 138.969 457.719 140.516L454.672 143.82H460.383V145ZM462.016 147.266L461.195 146.703C461.685 146.021 461.94 145.318 461.961 144.594V143.289H463.375V144.422C463.375 144.948 463.245 145.474 462.984 146C462.729 146.526 462.406 146.948 462.016 147.266ZM467.156 138.609H468.242C468.924 138.599 469.461 138.419 469.852 138.07C470.242 137.721 470.438 137.25 470.438 136.656C470.438 135.323 469.773 134.656 468.445 134.656C467.82 134.656 467.32 134.836 466.945 135.195C466.576 135.549 466.391 136.021 466.391 136.609H464.945C464.945 135.708 465.273 134.961 465.93 134.367C466.591 133.768 467.43 133.469 468.445 133.469C469.518 133.469 470.359 133.753 470.969 134.32C471.578 134.888 471.883 135.677 471.883 136.688C471.883 137.182 471.721 137.661 471.398 138.125C471.081 138.589 470.646 138.935 470.094 139.164C470.719 139.362 471.201 139.69 471.539 140.148C471.883 140.607 472.055 141.167 472.055 141.828C472.055 142.849 471.721 143.659 471.055 144.258C470.388 144.857 469.521 145.156 468.453 145.156C467.385 145.156 466.516 144.867 465.844 144.289C465.177 143.711 464.844 142.948 464.844 142H466.297C466.297 142.599 466.492 143.078 466.883 143.438C467.273 143.797 467.797 143.977 468.453 143.977C469.151 143.977 469.685 143.794 470.055 143.43C470.424 143.065 470.609 142.542 470.609 141.859C470.609 141.198 470.406 140.69 470 140.336C469.594 139.982 469.008 139.799 468.242 139.789H467.156V138.609ZM479.711 133.617V134.844H479.445C478.32 134.865 477.424 135.198 476.758 135.844C476.091 136.49 475.706 137.398 475.602 138.57C476.201 137.883 477.018 137.539 478.055 137.539C479.044 137.539 479.833 137.888 480.422 138.586C481.016 139.284 481.312 140.185 481.312 141.289C481.312 142.461 480.992 143.398 480.352 144.102C479.716 144.805 478.862 145.156 477.789 145.156C476.701 145.156 475.818 144.74 475.141 143.906C474.464 143.068 474.125 141.99 474.125 140.672V140.117C474.125 138.023 474.57 136.424 475.461 135.32C476.357 134.211 477.688 133.643 479.453 133.617H479.711ZM477.812 138.742C477.318 138.742 476.862 138.891 476.445 139.188C476.029 139.484 475.74 139.857 475.578 140.305V140.836C475.578 141.773 475.789 142.529 476.211 143.102C476.633 143.674 477.159 143.961 477.789 143.961C478.44 143.961 478.951 143.721 479.32 143.242C479.695 142.763 479.883 142.135 479.883 141.359C479.883 140.578 479.693 139.948 479.312 139.469C478.938 138.984 478.438 138.742 477.812 138.742ZM493.422 137.719H490.586V145H489.141V137.719H486.359V136.547H493.422V137.719ZM501.969 140.867C501.969 142.154 501.674 143.19 501.086 143.977C500.497 144.763 499.701 145.156 498.695 145.156C497.669 145.156 496.862 144.831 496.273 144.18V148.25H494.828V136.547H496.148L496.219 137.484C496.807 136.755 497.625 136.391 498.672 136.391C499.688 136.391 500.49 136.773 501.078 137.539C501.672 138.305 501.969 139.37 501.969 140.734V140.867ZM500.523 140.703C500.523 139.75 500.32 138.997 499.914 138.445C499.508 137.893 498.951 137.617 498.242 137.617C497.367 137.617 496.711 138.005 496.273 138.781V142.82C496.706 143.591 497.367 143.977 498.258 143.977C498.951 143.977 499.5 143.703 499.906 143.156C500.318 142.604 500.523 141.786 500.523 140.703ZM510.633 136.547V145H509.18V137.742H506.305L506.133 140.906C506.039 142.359 505.794 143.398 505.398 144.023C505.008 144.648 504.385 144.974 503.531 145H502.953V143.727L503.367 143.695C503.836 143.643 504.172 143.372 504.375 142.883C504.578 142.393 504.708 141.487 504.766 140.164L504.922 136.547H510.633ZM519.859 145H518.414V141.391H514.531V145H513.078V136.547H514.531V140.211H518.414V136.547H519.859V145Z" fill="#7D879C"/>
<path d="M5.85156 12.4365C5.85156 12.0173 5.70345 11.6641 5.40723 11.377C5.11556 11.0898 4.62109 10.8301 3.92383 10.5977C2.95312 10.3014 2.24447 9.91634 1.79785 9.44238C1.35579 8.96387 1.13477 8.35775 1.13477 7.62402C1.13477 6.87663 1.35124 6.26367 1.78418 5.78516C2.22168 5.30664 2.82096 5.02181 3.58203 4.93066V3.43359H4.60059V4.9375C5.36621 5.04232 5.96094 5.36361 6.38477 5.90137C6.81315 6.43913 7.02734 7.17513 7.02734 8.10938H5.76953C5.76953 7.4668 5.61686 6.95638 5.31152 6.57812C5.00618 6.19987 4.59375 6.01074 4.07422 6.01074C3.5319 6.01074 3.11719 6.15202 2.83008 6.43457C2.54297 6.71257 2.39941 7.10221 2.39941 7.60352C2.39941 8.06836 2.5498 8.43978 2.85059 8.71777C3.15592 8.99121 3.65495 9.24186 4.34766 9.46973C5.04492 9.69303 5.58724 9.94141 5.97461 10.2148C6.36654 10.4837 6.65365 10.7982 6.83594 11.1582C7.02279 11.5182 7.11621 11.9398 7.11621 12.4229C7.11621 13.193 6.88379 13.8128 6.41895 14.2822C5.95866 14.7516 5.31152 15.0296 4.47754 15.1162V16.4219H3.46582V15.1162C2.61816 15.0387 1.9528 14.738 1.46973 14.2139C0.991211 13.6852 0.751953 12.9697 0.751953 12.0674H2.0166C2.0166 12.7008 2.18294 13.1885 2.51562 13.5303C2.84831 13.8721 3.31999 14.043 3.93066 14.043C4.52767 14.043 4.99707 13.8994 5.33887 13.6123C5.68066 13.3252 5.85156 12.9333 5.85156 12.4365ZM10.5273 9.4082H11.4775C12.0745 9.39909 12.5439 9.24186 12.8857 8.93652C13.2275 8.63118 13.3984 8.21875 13.3984 7.69922C13.3984 6.53255 12.8174 5.94922 11.6553 5.94922C11.1084 5.94922 10.6709 6.10645 10.3428 6.4209C10.0192 6.73079 9.85742 7.14323 9.85742 7.6582H8.59277C8.59277 6.86979 8.87988 6.21582 9.4541 5.69629C10.0329 5.1722 10.7666 4.91016 11.6553 4.91016C12.5941 4.91016 13.3301 5.15853 13.8633 5.65527C14.3965 6.15202 14.6631 6.84245 14.6631 7.72656C14.6631 8.15951 14.5218 8.57878 14.2393 8.98438C13.9613 9.38997 13.5807 9.69303 13.0977 9.89355C13.6445 10.0667 14.0661 10.3538 14.3623 10.7549C14.6631 11.1559 14.8135 11.6458 14.8135 12.2246C14.8135 13.1178 14.5218 13.8265 13.9385 14.3506C13.3551 14.8747 12.5964 15.1367 11.6621 15.1367C10.7279 15.1367 9.9668 14.8838 9.37891 14.3779C8.79557 13.8721 8.50391 13.2044 8.50391 12.375H9.77539C9.77539 12.8991 9.94629 13.3184 10.2881 13.6328C10.6299 13.9473 11.0879 14.1045 11.6621 14.1045C12.2728 14.1045 12.7399 13.945 13.0635 13.626C13.387 13.307 13.5488 12.849 13.5488 12.252C13.5488 11.6732 13.3711 11.2288 13.0156 10.9189C12.6602 10.609 12.1475 10.4495 11.4775 10.4404H10.5273V9.4082ZM25.6484 8.62891H23.167V15H21.9023V8.62891H19.4688V7.60352H25.6484V8.62891ZM33.127 11.3838C33.127 12.5094 32.8695 13.4163 32.3545 14.1045C31.8395 14.7926 31.1423 15.1367 30.2627 15.1367C29.3649 15.1367 28.6585 14.8519 28.1436 14.2822V17.8438H26.8789V7.60352H28.0342L28.0957 8.42383C28.6107 7.78581 29.3262 7.4668 30.2422 7.4668C31.1309 7.4668 31.8327 7.80176 32.3477 8.47168C32.8672 9.1416 33.127 10.0736 33.127 11.2676V11.3838ZM31.8623 11.2402C31.8623 10.4062 31.6846 9.74772 31.3291 9.26465C30.9736 8.78158 30.486 8.54004 29.8662 8.54004C29.1006 8.54004 28.5264 8.87956 28.1436 9.55859V13.0928C28.5218 13.7673 29.1006 14.1045 29.8799 14.1045C30.486 14.1045 30.9668 13.8652 31.3223 13.3867C31.6823 12.9036 31.8623 12.1882 31.8623 11.2402ZM40.708 7.60352V15H39.4365V8.64941H36.9209L36.7705 11.418C36.6885 12.6895 36.4743 13.5986 36.1279 14.1455C35.7861 14.6924 35.2415 14.9772 34.4941 15H33.9883V13.8857L34.3506 13.8584C34.7607 13.8128 35.0547 13.5758 35.2324 13.1475C35.4102 12.7191 35.5241 11.9261 35.5742 10.7686L35.7109 7.60352H40.708ZM48.7812 15H47.5166V11.8418H44.1191V15H42.8477V7.60352H44.1191V10.8096H47.5166V7.60352H48.7812V15ZM50.8457 14.3369C50.8457 14.1182 50.9095 13.9359 51.0371 13.79C51.1693 13.6442 51.3652 13.5713 51.625 13.5713C51.8848 13.5713 52.0807 13.6442 52.2129 13.79C52.3496 13.9359 52.418 14.1182 52.418 14.3369C52.418 14.5465 52.3496 14.722 52.2129 14.8633C52.0807 15.0046 51.8848 15.0752 51.625 15.0752C51.3652 15.0752 51.1693 15.0046 51.0371 14.8633C50.9095 14.722 50.8457 14.5465 50.8457 14.3369Z" fill="#A8B0C1"/>
<path d="M5.85156 133.437C5.85156 133.017 5.70345 132.664 5.40723 132.377C5.11556 132.09 4.62109 131.83 3.92383 131.598C2.95312 131.301 2.24447 130.916 1.79785 130.442C1.35579 129.964 1.13477 129.358 1.13477 128.624C1.13477 127.877 1.35124 127.264 1.78418 126.785C2.22168 126.307 2.82096 126.022 3.58203 125.931V124.434H4.60059V125.938C5.36621 126.042 5.96094 126.364 6.38477 126.901C6.81315 127.439 7.02734 128.175 7.02734 129.109H5.76953C5.76953 128.467 5.61686 127.956 5.31152 127.578C5.00618 127.2 4.59375 127.011 4.07422 127.011C3.5319 127.011 3.11719 127.152 2.83008 127.435C2.54297 127.713 2.39941 128.102 2.39941 128.604C2.39941 129.068 2.5498 129.44 2.85059 129.718C3.15592 129.991 3.65495 130.242 4.34766 130.47C5.04492 130.693 5.58724 130.941 5.97461 131.215C6.36654 131.484 6.65365 131.798 6.83594 132.158C7.02279 132.518 7.11621 132.94 7.11621 133.423C7.11621 134.193 6.88379 134.813 6.41895 135.282C5.95866 135.752 5.31152 136.03 4.47754 136.116V137.422H3.46582V136.116C2.61816 136.039 1.9528 135.738 1.46973 135.214C0.991211 134.685 0.751953 133.97 0.751953 133.067H2.0166C2.0166 133.701 2.18294 134.188 2.51562 134.53C2.84831 134.872 3.31999 135.043 3.93066 135.043C4.52767 135.043 4.99707 134.899 5.33887 134.612C5.68066 134.325 5.85156 133.933 5.85156 133.437ZM15.21 136H8.68848V135.091L12.1338 131.263C12.6442 130.684 12.9951 130.215 13.1865 129.854C13.3825 129.49 13.4805 129.114 13.4805 128.727C13.4805 128.207 13.3232 127.781 13.0088 127.448C12.6943 127.116 12.2751 126.949 11.751 126.949C11.1221 126.949 10.6322 127.129 10.2812 127.489C9.9349 127.845 9.76172 128.341 9.76172 128.979H8.49707C8.49707 128.063 8.79102 127.323 9.37891 126.758C9.97135 126.193 10.762 125.91 11.751 125.91C12.6761 125.91 13.4076 126.154 13.9453 126.642C14.4831 127.125 14.752 127.77 14.752 128.576C14.752 129.556 14.1276 130.723 12.8789 132.076L10.2129 134.968H15.21V136ZM25.6484 129.629H23.167V136H21.9023V129.629H19.4688V128.604H25.6484V129.629ZM33.127 132.384C33.127 133.509 32.8695 134.416 32.3545 135.104C31.8395 135.793 31.1423 136.137 30.2627 136.137C29.3649 136.137 28.6585 135.852 28.1436 135.282V138.844H26.8789V128.604H28.0342L28.0957 129.424C28.6107 128.786 29.3262 128.467 30.2422 128.467C31.1309 128.467 31.8327 128.802 32.3477 129.472C32.8672 130.142 33.127 131.074 33.127 132.268V132.384ZM31.8623 132.24C31.8623 131.406 31.6846 130.748 31.3291 130.265C30.9736 129.782 30.486 129.54 29.8662 129.54C29.1006 129.54 28.5264 129.88 28.1436 130.559V134.093C28.5218 134.767 29.1006 135.104 29.8799 135.104C30.486 135.104 30.9668 134.865 31.3223 134.387C31.6823 133.904 31.8623 133.188 31.8623 132.24ZM40.708 128.604V136H39.4365V129.649H36.9209L36.7705 132.418C36.6885 133.689 36.4743 134.599 36.1279 135.146C35.7861 135.692 35.2415 135.977 34.4941 136H33.9883V134.886L34.3506 134.858C34.7607 134.813 35.0547 134.576 35.2324 134.147C35.4102 133.719 35.5241 132.926 35.5742 131.769L35.7109 128.604H40.708ZM48.7812 136H47.5166V132.842H44.1191V136H42.8477V128.604H44.1191V131.81H47.5166V128.604H48.7812V136ZM50.8457 135.337C50.8457 135.118 50.9095 134.936 51.0371 134.79C51.1693 134.644 51.3652 134.571 51.625 134.571C51.8848 134.571 52.0807 134.644 52.2129 134.79C52.3496 134.936 52.418 135.118 52.418 135.337C52.418 135.547 52.3496 135.722 52.2129 135.863C52.0807 136.005 51.8848 136.075 51.625 136.075C51.3652 136.075 51.1693 136.005 51.0371 135.863C50.9095 135.722 50.8457 135.547 50.8457 135.337Z" fill="#A8B0C1"/>
<path d="M4.85156 256.437C4.85156 256.017 4.70345 255.664 4.40723 255.377C4.11556 255.09 3.62109 254.83 2.92383 254.598C1.95312 254.301 1.24447 253.916 0.797852 253.442C0.355794 252.964 0.134766 252.358 0.134766 251.624C0.134766 250.877 0.351237 250.264 0.78418 249.785C1.22168 249.307 1.82096 249.022 2.58203 248.931V247.434H3.60059V248.938C4.36621 249.042 4.96094 249.364 5.38477 249.901C5.81315 250.439 6.02734 251.175 6.02734 252.109H4.76953C4.76953 251.467 4.61686 250.956 4.31152 250.578C4.00618 250.2 3.59375 250.011 3.07422 250.011C2.5319 250.011 2.11719 250.152 1.83008 250.435C1.54297 250.713 1.39941 251.102 1.39941 251.604C1.39941 252.068 1.5498 252.44 1.85059 252.718C2.15592 252.991 2.65495 253.242 3.34766 253.47C4.04492 253.693 4.58724 253.941 4.97461 254.215C5.36654 254.484 5.65365 254.798 5.83594 255.158C6.02279 255.518 6.11621 255.94 6.11621 256.423C6.11621 257.193 5.88379 257.813 5.41895 258.282C4.95866 258.752 4.31152 259.03 3.47754 259.116V260.422H2.46582V259.116C1.61816 259.039 0.952799 258.738 0.469727 258.214C-0.00878906 257.685 -0.248047 256.97 -0.248047 256.067H1.0166C1.0166 256.701 1.18294 257.188 1.51562 257.53C1.84831 257.872 2.31999 258.043 2.93066 258.043C3.52767 258.043 3.99707 257.899 4.33887 257.612C4.68066 257.325 4.85156 256.933 4.85156 256.437ZM11.8447 259H10.5732V250.571L8.02344 251.508V250.359L11.6465 248.999H11.8447V259ZM24.6484 252.629H22.167V259H20.9023V252.629H18.4688V251.604H24.6484V252.629ZM32.127 255.384C32.127 256.509 31.8695 257.416 31.3545 258.104C30.8395 258.793 30.1423 259.137 29.2627 259.137C28.3649 259.137 27.6585 258.852 27.1436 258.282V261.844H25.8789V251.604H27.0342L27.0957 252.424C27.6107 251.786 28.3262 251.467 29.2422 251.467C30.1309 251.467 30.8327 251.802 31.3477 252.472C31.8672 253.142 32.127 254.074 32.127 255.268V255.384ZM30.8623 255.24C30.8623 254.406 30.6846 253.748 30.3291 253.265C29.9736 252.782 29.486 252.54 28.8662 252.54C28.1006 252.54 27.5264 252.88 27.1436 253.559V257.093C27.5218 257.767 28.1006 258.104 28.8799 258.104C29.486 258.104 29.9668 257.865 30.3223 257.387C30.6823 256.904 30.8623 256.188 30.8623 255.24ZM39.708 251.604V259H38.4365V252.649H35.9209L35.7705 255.418C35.6885 256.689 35.4743 257.599 35.1279 258.146C34.7861 258.692 34.2415 258.977 33.4941 259H32.9883V257.886L33.3506 257.858C33.7607 257.813 34.0547 257.576 34.2324 257.147C34.4102 256.719 34.5241 255.926 34.5742 254.769L34.7109 251.604H39.708ZM47.7812 259H46.5166V255.842H43.1191V259H41.8477V251.604H43.1191V254.81H46.5166V251.604H47.7812V259ZM49.8457 258.337C49.8457 258.118 49.9095 257.936 50.0371 257.79C50.1693 257.644 50.3652 257.571 50.625 257.571C50.8848 257.571 51.0807 257.644 51.2129 257.79C51.3496 257.936 51.418 258.118 51.418 258.337C51.418 258.547 51.3496 258.722 51.2129 258.863C51.0807 259.005 50.8848 259.075 50.625 259.075C50.3652 259.075 50.1693 259.005 50.0371 258.863C49.9095 258.722 49.8457 258.547 49.8457 258.337Z" fill="#A8B0C1"/>
<defs>
<linearGradient id="paint0_linear" x1="2.93484" y1="170" x2="518.224" y2="173.26" gradientUnits="userSpaceOnUse">
<stop offset="0.541667" stop-color="#00C0FF"/>
<stop offset="1" stop-color="white" stop-opacity="0"/>
</linearGradient>
<linearGradient id="paint1_linear" x1="499" y1="387" x2="-12.5954" y2="321.711" gradientUnits="userSpaceOnUse">
<stop stop-color="white" stop-opacity="0"/>
<stop offset="0.822917" stop-color="white" stop-opacity="0"/>
<stop offset="1" stop-color="white"/>
</linearGradient>
<linearGradient id="paint2_linear" x1="259" y1="98" x2="259" y2="387" gradientUnits="userSpaceOnUse">
<stop offset="0.317708" stop-color="white" stop-opacity="0"/>
<stop offset="1" stop-color="white"/>
</linearGradient>
<linearGradient id="paint3_linear" x1="260.367" y1="92.7864" x2="260.367" y2="173" gradientUnits="userSpaceOnUse">
<stop offset="0.104167" stop-color="#00A3FF" stop-opacity="0"/>
<stop offset="0.151042" stop-color="#00A3FF"/>
<stop offset="0.963542" stop-color="#00E0FF"/>
<stop offset="1" stop-color="#00E0FF" stop-opacity="0"/>
</linearGradient>
</defs>
</svg>
