<svg width="842" height="383" viewBox="0 0 842 383" fill="none" xmlns="http://www.w3.org/2000/svg">
<rect x="753.347" y="34.9888" width="1" height="180" fill="url(#paint0_linear)"/>
<rect x="625.5" y="110" width="1" height="180" fill="url(#paint1_linear)"/>
<rect x="497.5" y="98" width="1" height="180" fill="url(#paint2_linear)"/>
<rect x="368.5" y="211" width="1" height="180" fill="url(#paint3_linear)"/>
<rect x="241.5" y="259" width="1" height="180" fill="url(#paint4_linear)"/>
<rect x="113.5" y="249.009" width="1" height="180" fill="url(#paint5_linear)"/>
<path d="M1 383L113.995 338.901L241.914 349.222L369.832 301.37L497.751 187.84L626.381 200.037L753.589 131.543L841 3" stroke="url(#paint6_linear)" stroke-width="3"/>
<circle cx="114" cy="339" r="3" fill="#716CE6"/>
<circle cx="242" cy="349" r="3" fill="#716BE8"/>
<circle cx="369" cy="301" r="3" fill="#726DE9"/>
<circle cx="498" cy="188" r="3" fill="#817CFA"/>
<circle cx="626" cy="200" r="3" fill="#8883FF"/>
<circle cx="754" cy="131" r="3" fill="#ACA8FF"/>
<circle cx="841" cy="3" r="3" fill="#BEBBFF"/>
<defs>
<linearGradient id="paint0_linear" x1="753.847" y1="34.9888" x2="753.847" y2="214.989" gradientUnits="userSpaceOnUse">
<stop stop-color="white" stop-opacity="0"/>
<stop offset="0.552083" stop-color="white" stop-opacity="0.19"/>
<stop offset="1" stop-color="white" stop-opacity="0"/>
</linearGradient>
<linearGradient id="paint1_linear" x1="626" y1="110" x2="626" y2="290" gradientUnits="userSpaceOnUse">
<stop stop-color="white" stop-opacity="0"/>
<stop offset="0.552083" stop-color="white" stop-opacity="0.14"/>
<stop offset="1" stop-color="white" stop-opacity="0"/>
</linearGradient>
<linearGradient id="paint2_linear" x1="498" y1="98" x2="498" y2="278" gradientUnits="userSpaceOnUse">
<stop stop-color="white" stop-opacity="0"/>
<stop offset="0.552083" stop-color="white" stop-opacity="0.11"/>
<stop offset="1" stop-color="white" stop-opacity="0"/>
</linearGradient>
<linearGradient id="paint3_linear" x1="369" y1="211" x2="369" y2="391" gradientUnits="userSpaceOnUse">
<stop stop-color="white" stop-opacity="0"/>
<stop offset="0.552083" stop-color="white" stop-opacity="0.07"/>
<stop offset="1" stop-color="white" stop-opacity="0"/>
</linearGradient>
<linearGradient id="paint4_linear" x1="242" y1="259" x2="242" y2="439" gradientUnits="userSpaceOnUse">
<stop stop-color="white" stop-opacity="0"/>
<stop offset="0.552083" stop-color="white" stop-opacity="0.04"/>
<stop offset="1" stop-color="white" stop-opacity="0"/>
</linearGradient>
<linearGradient id="paint5_linear" x1="114" y1="249.009" x2="114" y2="429.009" gradientUnits="userSpaceOnUse">
<stop stop-color="white" stop-opacity="0"/>
<stop offset="0.552083" stop-color="white" stop-opacity="0.02"/>
<stop offset="1" stop-color="white" stop-opacity="0"/>
</linearGradient>
<linearGradient id="paint6_linear" x1="421" y1="3" x2="421" y2="383" gradientUnits="userSpaceOnUse">
<stop stop-color="#D64356"/>
<stop offset="1" stop-color="#FF8D4D" stop-opacity="0"/>
</linearGradient>
</defs>
</svg>
