<svg width="620" height="388" viewBox="0 0 620 388" fill="none" xmlns="http://www.w3.org/2000/svg">
<g clip-path="url(#clip0)">
<rect x="160.298" y="264" width="2" height="180" transform="rotate(56.0405 160.298 264)" fill="url(#paint0_linear)"/>
<rect x="506" y="240.683" width="2" height="180" transform="rotate(-57.2962 506 240.683)" fill="url(#paint1_linear)"/>
<path d="M163.211 149.85L350.892 23.37L506.789 128.601L471.473 152.084M163.211 149.85V263.176L319.612 365.878M163.211 149.85L198.527 173.155M319.612 253.058L471.473 152.084M319.612 253.058V317.309M319.612 253.058L198.527 173.155M319.612 365.878L506.789 239.398L471.473 216.125M319.612 365.878V317.309M471.473 216.125V152.084M471.473 216.125L319.612 317.309M319.612 317.309L198.527 239.398V173.155M327.18 83.0685L403.867 135.178" stroke="url(#paint2_linear)" stroke-width="4" stroke-linecap="round" stroke-linejoin="round"/>
<circle cx="163" cy="149.459" r="3" fill="#ACA8FF"/>
<circle cx="319.269" cy="252.211" r="3" fill="#ACA8FF"/>
<circle cx="198.321" cy="239.367" r="3" fill="#8782F6"/>
<circle cx="471.257" cy="215.82" r="3" fill="#8782F7"/>
<circle cx="505.508" cy="128.052" r="3" fill="#ACA8FF"/>
<circle cx="350.309" cy="23.159" r="3" fill="#ACA8FF"/>
</g>
<defs>
<linearGradient id="paint0_linear" x1="161.298" y1="264" x2="161.298" y2="444" gradientUnits="userSpaceOnUse">
<stop stop-color="white" stop-opacity="0.1"/>
<stop offset="1" stop-color="white" stop-opacity="0"/>
</linearGradient>
<linearGradient id="paint1_linear" x1="507" y1="240.683" x2="507" y2="420.683" gradientUnits="userSpaceOnUse">
<stop stop-color="white" stop-opacity="0.1"/>
<stop offset="1" stop-color="white" stop-opacity="0"/>
</linearGradient>
<linearGradient id="paint2_linear" x1="335" y1="23.37" x2="335" y2="365.878" gradientUnits="userSpaceOnUse">
<stop stop-color="#D64356"/>
<stop offset="1" stop-color="#FF8D4D" stop-opacity="0"/>
</linearGradient>
<clipPath id="clip0">
<rect width="620" height="388" fill="white"/>
</clipPath>
</defs>
</svg>
