<svg width="30" height="30" viewBox="0 0 30 30" fill="none" xmlns="http://www.w3.org/2000/svg">
<rect width="30" height="30" rx="7" fill="#D6DEE1"/>
<path d="M19.8481 22H11.2437V20.5322L15.5063 15.8828C16.1216 15.1973 16.5581 14.626 16.8159 14.1689C17.0796 13.7061 17.2114 13.2432 17.2114 12.7803C17.2114 12.1709 17.0386 11.6787 16.6929 11.3037C16.353 10.9287 15.8931 10.7412 15.313 10.7412C14.6216 10.7412 14.0854 10.9521 13.7046 11.374C13.3237 11.7959 13.1333 12.373 13.1333 13.1055H10.9976C10.9976 12.3262 11.1733 11.626 11.5249 11.0049C11.8823 10.3779 12.3892 9.8916 13.0454 9.5459C13.7075 9.2002 14.4692 9.02734 15.3306 9.02734C16.5728 9.02734 17.5513 9.34082 18.2661 9.96777C18.9868 10.5889 19.3472 11.4502 19.3472 12.5518C19.3472 13.1904 19.1655 13.8613 18.8022 14.5645C18.4448 15.2617 17.856 16.0557 17.0356 16.9463L13.9067 20.2949H19.8481V22Z" fill="white"/>
</svg>
