<svg width="30" height="30" viewBox="0 0 30 30" fill="none" xmlns="http://www.w3.org/2000/svg">
<rect width="30" height="30" rx="7" fill="#D6DEE1"/>
<path d="M13.7134 14.626H15.0142C15.6704 14.6201 16.189 14.4502 16.5698 14.1162C16.9565 13.7822 17.1499 13.2988 17.1499 12.666C17.1499 12.0566 16.9888 11.585 16.6665 11.251C16.3501 10.9111 15.8638 10.7412 15.2075 10.7412C14.6333 10.7412 14.1616 10.9082 13.7925 11.2422C13.4233 11.5703 13.2388 12.001 13.2388 12.5342H11.103C11.103 11.8779 11.2759 11.2803 11.6216 10.7412C11.9731 10.2021 12.4595 9.7832 13.0806 9.48438C13.7075 9.17969 14.4077 9.02734 15.1812 9.02734C16.4585 9.02734 17.4604 9.34961 18.187 9.99414C18.9194 10.6328 19.2856 11.5234 19.2856 12.666C19.2856 13.2402 19.1011 13.7822 18.7319 14.292C18.3687 14.7959 17.897 15.1768 17.3169 15.4346C18.02 15.6748 18.5532 16.0527 18.9165 16.5684C19.2856 17.084 19.4702 17.6992 19.4702 18.4141C19.4702 19.5625 19.0747 20.4766 18.2837 21.1562C17.4985 21.8359 16.4644 22.1758 15.1812 22.1758C13.9507 22.1758 12.9429 21.8477 12.1577 21.1914C11.3726 20.5352 10.98 19.6621 10.98 18.5723H13.1157C13.1157 19.1348 13.3032 19.5918 13.6782 19.9434C14.0591 20.2949 14.5688 20.4707 15.2075 20.4707C15.8696 20.4707 16.3911 20.2949 16.772 19.9434C17.1528 19.5918 17.3433 19.082 17.3433 18.4141C17.3433 17.7402 17.144 17.2217 16.7456 16.8584C16.3472 16.4951 15.7554 16.3135 14.9702 16.3135H13.7134V14.626Z" fill="white"/>
</svg>
