<svg width="31" height="31" viewBox="0 0 31 31" fill="none" xmlns="http://www.w3.org/2000/svg">
<rect y="0.32312" width="30.3266" height="30" rx="7" fill="#D6DEE1"/>
<path d="M11.9269 15.9773L12.6213 9.52615H19.4943V11.3719H14.3967L14.0451 14.4305C14.6369 14.0906 15.3049 13.9207 16.049 13.9207C17.2678 13.9207 18.2141 14.3103 18.8879 15.0896C19.5676 15.8689 19.9074 16.9178 19.9074 18.2361C19.9074 19.5369 19.5324 20.574 18.7824 21.3474C18.0324 22.115 17.0041 22.4988 15.6974 22.4988C14.5256 22.4988 13.5529 22.1678 12.7795 21.5056C12.0119 20.8377 11.5959 19.9588 11.5314 18.8689H13.5969C13.6789 19.49 13.9016 19.9676 14.2648 20.3015C14.6281 20.6297 15.1027 20.7937 15.6887 20.7937C16.3449 20.7937 16.8547 20.5594 17.218 20.0906C17.5871 19.6219 17.7717 18.9832 17.7717 18.1746C17.7717 17.3953 17.5695 16.7801 17.1652 16.3289C16.7609 15.8719 16.2043 15.6433 15.4953 15.6433C15.1086 15.6433 14.7805 15.6961 14.5109 15.8015C14.2414 15.9012 13.9484 16.1004 13.632 16.3992L11.9269 15.9773Z" fill="white"/>
</svg>
