<svg width="31" height="31" viewBox="0 0 31 31" fill="none" xmlns="http://www.w3.org/2000/svg">
<rect y="0.32312" width="30.3266" height="30" rx="7" fill="#D6DEE1"/>
<path d="M18.0002 9.46463V11.2312H17.7365C16.5412 11.2488 15.5861 11.5769 14.8713 12.2156C14.1564 12.8543 13.7316 13.7596 13.5969 14.9314C14.2824 14.2107 15.1584 13.8504 16.2248 13.8504C17.3557 13.8504 18.2463 14.2488 18.8967 15.0457C19.5529 15.8426 19.881 16.8709 19.881 18.1306C19.881 19.4314 19.4973 20.4861 18.7297 21.2947C17.968 22.0974 16.966 22.4988 15.7238 22.4988C14.4465 22.4988 13.4094 22.0271 12.6125 21.0838C11.8215 20.1404 11.426 18.9041 11.426 17.3748V16.6453C11.426 14.4012 11.9709 12.6433 13.0607 11.3719C14.1564 10.1004 15.7297 9.46463 17.7805 9.46463H18.0002ZM15.7062 15.573C15.2375 15.573 14.8068 15.7049 14.4142 15.9685C14.0275 16.2322 13.7433 16.5838 13.5617 17.0232V17.6736C13.5617 18.6228 13.7609 19.3787 14.1594 19.9412C14.5578 20.4978 15.0734 20.7762 15.7062 20.7762C16.3391 20.7762 16.84 20.5388 17.2092 20.0642C17.5783 19.5896 17.7629 18.9656 17.7629 18.1922C17.7629 17.4187 17.5754 16.7888 17.2004 16.3025C16.8254 15.8162 16.3273 15.573 15.7062 15.573Z" fill="white"/>
</svg>
