<svg width="50" height="50" viewBox="0 0 50 50" fill="none" xmlns="http://www.w3.org/2000/svg">
<path d="M50 25C50 17.5977 46.7676 10.9375 41.6406 6.35742C41.5723 6.28906 41.5039 6.2207 41.4258 6.17188C37.0312 2.33398 31.2793 0 25 0C18.7109 0 12.9492 2.34375 8.54492 6.19141C8.49609 6.23047 8.4375 6.2793 8.39844 6.32813C3.25195 10.9082 0 17.5781 0 25C0 32.3926 3.23242 39.0527 8.34961 43.6328C8.34961 43.6328 8.34961 43.6426 8.35938 43.6426C8.42773 43.7207 8.49609 43.7793 8.57422 43.8379C12.9688 47.6758 18.7207 50 25 50C31.2891 50 37.0508 47.666 41.4453 43.8086C41.5039 43.7695 41.5527 43.7207 41.6113 43.6621C46.7578 39.082 50 32.4121 50 25ZM40.7031 41.2598C39.4141 40.2246 38.0371 39.3164 36.5918 38.5645C37.8418 34.9902 38.5938 30.7715 38.7109 26.1914H47.5879C47.2754 32.0898 44.6973 37.4023 40.7031 41.2598ZM26.1914 38.125C28.7207 38.2617 31.1914 38.8086 33.5156 39.7559C31.6699 43.9648 29.0723 46.8555 26.1914 47.4902V38.125ZM26.1914 35.7422V26.1914H36.3281C36.2109 30.3418 35.5078 34.2383 34.375 37.5391C31.7871 36.4844 29.0234 35.8789 26.1914 35.7422ZM26.1914 23.8086V14.2578C29.0234 14.1211 31.7871 13.5156 34.375 12.4609C35.5078 15.7617 36.2109 19.6582 36.3281 23.8086H26.1914ZM26.1914 11.875V2.50977C29.0723 3.14453 31.6699 6.02539 33.5156 10.2441C31.1914 11.1816 28.7207 11.7383 26.1914 11.875ZM32.1387 3.53516C34.5996 4.35547 36.875 5.58594 38.877 7.14844C37.8809 7.92969 36.8164 8.61328 35.7129 9.20898C34.7168 6.95313 33.5059 5.0293 32.1387 3.53516ZM23.8086 2.50977V11.875C21.2793 11.7383 18.7988 11.1914 16.4844 10.2441C18.3301 6.03516 20.9277 3.14453 23.8086 2.50977ZM14.2871 9.20898C13.1836 8.61328 12.1289 7.92969 11.123 7.14844C13.125 5.58594 15.4004 4.35547 17.8613 3.53516C16.4941 5.0293 15.2832 6.95313 14.2871 9.20898ZM23.8086 14.2578V23.8086H13.6719C13.7891 19.6582 14.4922 15.7617 15.625 12.4609C18.2129 13.5156 20.9766 14.1211 23.8086 14.2578ZM23.8086 26.1914V35.7422C20.9766 35.8789 18.2129 36.4844 15.625 37.5391C14.4922 34.2383 13.7891 30.3418 13.6719 26.1914H23.8086ZM23.8086 38.125V47.4902C20.9277 46.8555 18.3301 43.9746 16.4844 39.7559C18.8086 38.8184 21.2793 38.2617 23.8086 38.125ZM17.8711 46.4648C15.4102 45.6445 13.1348 44.4141 11.1328 42.8516C12.1289 42.0703 13.1934 41.3867 14.2969 40.791C15.2832 43.0469 16.4941 44.9707 17.8711 46.4648ZM35.7129 40.791C36.8164 41.3867 37.8711 42.0703 38.877 42.8516C36.875 44.4141 34.5996 45.6445 32.1387 46.4648C33.5059 44.9707 34.7168 43.0469 35.7129 40.791ZM47.5879 23.8086H38.7109C38.5938 19.2285 37.8418 15.0098 36.5918 11.4355C38.0371 10.6738 39.4141 9.77539 40.7031 8.74023C44.6973 12.5977 47.2754 17.9102 47.5879 23.8086ZM9.29688 8.74023C10.5859 9.77539 11.9629 10.6836 13.4082 11.4355C12.1582 15.0098 11.4062 19.2285 11.2891 23.8086H2.41211C2.72461 17.9102 5.30273 12.5977 9.29688 8.74023ZM2.41211 26.1914H11.2891C11.4062 30.7715 12.1582 34.9902 13.4082 38.5645C11.9629 39.3262 10.5859 40.2246 9.29688 41.2598C5.30273 37.4023 2.72461 32.0898 2.41211 26.1914Z" fill="white"/>
</svg>
