<svg width="46" height="32" viewBox="0 0 46 32" fill="none" xmlns="http://www.w3.org/2000/svg">
<path fill-rule="evenodd" clip-rule="evenodd" d="M0.0833435 8.66683V31.5835H45.9167V8.66683H0.0833435ZM2.16668 4.50016V6.5835H43.8333V4.50016H2.16668ZM4.25001 0.333496V2.41683H41.75V0.333496H4.25001ZM2.16668 10.7502V29.5002H43.8333V10.7502H2.16668ZM23.2644 12.8335V14.2208C23.8212 14.3105 24.2765 14.4945 24.6304 14.773C24.9843 15.0514 25.3217 15.4784 25.6426 16.0541L24.2624 16.8256C23.8472 16.0706 23.3044 15.6931 22.6343 15.6931C22.219 15.6931 21.8746 15.8158 21.6009 16.0612C21.3272 16.3066 21.1904 16.6133 21.1904 16.9813C21.1904 17.3164 21.3013 17.5948 21.5231 17.8166C21.7402 18.0336 22.179 18.2908 22.8397 18.5881C23.4106 18.8476 23.8825 19.0918 24.2553 19.3207C24.6281 19.5496 24.9088 19.7702 25.0976 19.9826C25.6308 20.5583 25.8974 21.2542 25.8974 22.0706C25.8974 22.8728 25.6567 23.5807 25.1754 24.1941C24.6988 24.8028 24.0619 25.2133 23.2644 25.4257V26.8909H22.0256V25.4682C21.1007 25.3172 20.3953 24.9987 19.9092 24.5126C19.4232 24.0266 19.0646 23.2763 18.8333 22.2617L20.3905 21.9361C20.6028 22.6534 20.8625 23.1654 21.1692 23.4721C21.4901 23.7647 21.9171 23.911 22.4503 23.911C22.9694 23.911 23.4036 23.7435 23.7528 23.4084C24.0973 23.0781 24.2694 22.651 24.2694 22.1272C24.2694 21.6601 24.1256 21.2849 23.8377 21.0018C23.6914 20.8649 23.4755 20.7104 23.19 20.5382C22.9045 20.3659 22.54 20.1784 22.0964 19.9754C21.181 19.5649 20.5793 19.1874 20.2914 18.8429C19.8337 18.3286 19.6049 17.7128 19.6049 16.9955C19.6049 16.6558 19.6592 16.3396 19.7677 16.047C19.8762 15.7544 20.0332 15.489 20.2384 15.2507C20.4437 15.0124 20.6973 14.806 20.9993 14.6314C21.3013 14.4568 21.6434 14.3199 22.0256 14.2208V12.8335H23.2644Z" fill="white"/>
</svg>