<svg width="50" height="50" viewBox="0 0 50 50" fill="none" xmlns="http://www.w3.org/2000/svg">
<path d="M45.0889 28.5118L29.6452 25.092C29.433 25.0477 29.2115 25.092 29.0362 25.2212C28.8627 25.3485 28.752 25.546 28.7335 25.7619L27.4527 41.0321C27.4232 41.3625 27.6169 41.6725 27.927 41.7943L31.93 43.3594V45.4135L18.4205 45.1145V43.3704L22.4309 41.715C22.7317 41.5895 22.92 41.2831 22.8923 40.9564L21.6078 25.6863C21.5912 25.4703 21.4786 25.2729 21.3051 25.1437C21.1335 25.0163 20.9083 24.9683 20.6979 25.0163L4.90913 28.5118V25.3079L21.0024 17.682C21.2645 17.5584 21.4306 17.2945 21.4306 17.0047V8.31028C21.4306 6.24694 23.1101 4.56747 25.1753 4.56747C27.2386 4.56747 28.9181 6.24694 28.9181 8.31028V17.0269C28.9181 17.3166 29.0842 17.5805 29.3444 17.7042L45.0889 25.247V28.5118ZM46.163 24.0972L30.4204 16.5563V8.31028C30.4204 5.41828 28.0673 3.06519 25.1753 3.06519C22.2814 3.06519 19.9302 5.41828 19.9302 8.31028V16.5286L3.83686 24.1544C3.57479 24.2781 3.40869 24.542 3.40869 24.8318V29.4475C3.40869 29.6745 3.5102 29.8904 3.68922 30.0326C3.86824 30.1765 4.10078 30.2282 4.3204 30.1802L20.1849 26.6681L21.3494 40.5375L17.3833 42.1727C17.1028 42.2889 16.9182 42.5639 16.9182 42.8666V45.849C16.9182 46.2551 17.2449 46.5891 17.6527 46.5983L32.6646 46.9342C32.6683 46.9342 32.6756 46.9342 32.6812 46.9342C32.8768 46.9342 33.065 46.8567 33.2072 46.7201C33.3493 46.578 33.4323 46.3843 33.4323 46.1831V42.8463C33.4323 42.5363 33.2422 42.2594 32.9543 42.1468L28.9937 40.5984L30.1583 26.7438L45.6758 30.1802C45.8991 30.2263 46.1316 30.1747 46.3107 30.0326C46.486 29.8904 46.5912 29.6745 46.5912 29.4475V24.7745C46.5912 24.4866 46.4232 24.2227 46.163 24.0972Z" fill="white"/>
</svg>
