<svg width="74" height="80" viewBox="0 0 74 80" fill="none" xmlns="http://www.w3.org/2000/svg">
<path d="M18.1838 19.8072C18.8332 20.3484 19.6991 20.2402 20.2403 19.699C20.6732 19.1578 20.6732 18.2919 20.2403 17.7508L12.772 10.2824C12.1226 9.74126 11.2567 9.74126 10.7155 10.3907C10.2825 10.9319 10.2825 11.7978 10.7155 12.339L18.1838 19.8072Z" fill="black"/>
<path d="M36.4754 13.5295C36.5836 13.5295 36.5836 13.5295 36.4754 13.5295C37.3412 13.5295 37.9907 12.8801 37.9907 12.0142V1.51531C37.9907 0.757653 37.3412 0 36.4754 0C35.6095 0 34.9601 0.649417 34.9601 1.51531V12.1224C35.0683 12.8801 35.7177 13.5295 36.4754 13.5295Z" fill="black"/>
<path d="M54.0097 20.2404C54.3344 20.2404 54.7674 20.024 54.9838 19.8075L62.4521 12.3392C62.9933 11.6898 62.8851 10.8239 62.3439 10.2827C61.8027 9.84977 60.9368 9.84977 60.3956 10.2827L52.9273 17.751C52.3862 18.2922 52.3862 19.2663 52.9273 19.8075C53.1438 20.024 53.5768 20.2404 54.0097 20.2404Z" fill="black"/>
<path d="M13.4213 36.1508C13.4213 35.3932 12.7719 34.6355 11.906 34.6355H1.51531C0.649417 34.6355 0 35.3932 0 36.1508C0 36.9085 0.649417 37.6661 1.51531 37.6661H12.0142C12.7719 37.6661 13.4213 36.9085 13.4213 36.1508Z" fill="black"/>
<path d="M37.1249 22.1885C36.3672 22.1885 35.6096 22.8379 35.6096 23.7038C35.6096 24.4614 36.259 25.2191 37.1249 25.2191C43.1861 25.2191 48.1649 30.1979 48.1649 36.2592C48.1649 37.0168 48.8144 37.7745 49.6802 37.7745C50.5461 37.7745 51.1956 37.1251 51.1956 36.2592C51.0873 28.4662 44.8096 22.1885 37.1249 22.1885Z" fill="black"/>
<path d="M62.4521 59.9627L54.9838 52.4944C54.4426 51.845 53.5767 51.845 52.9273 52.3862C52.2779 52.9274 52.2779 53.7933 52.8191 54.4427C52.8191 54.5509 52.9273 54.5509 52.9273 54.5509L60.3956 62.0192C60.8286 62.6686 61.8027 62.7769 62.4521 62.3439C63.1015 61.911 63.2098 60.9369 62.7768 60.2874C62.6686 60.1792 62.5603 60.071 62.4521 59.9627Z" fill="black"/>
<path d="M71.6524 34.6355H61.1535C60.3958 34.6355 59.6382 35.2849 59.6382 36.1508C59.6382 36.9085 60.2876 37.6661 61.1535 37.6661H71.6524C72.41 37.6661 73.1677 37.0167 73.1677 36.1508C73.1677 35.3932 72.5183 34.6355 71.6524 34.6355Z" fill="black"/>
<path d="M18.2918 52.3863C18.1835 52.3863 18.1835 52.4946 18.1835 52.4946L10.7152 59.9628C10.0658 60.504 10.0658 61.3699 10.607 62.0193C11.1482 62.6688 12.0141 62.6688 12.6635 62.1276C12.7717 62.1276 12.7717 62.0193 12.7717 62.0193L20.24 54.551C20.8894 54.0099 20.8894 53.144 20.3483 52.4946C19.8071 51.9534 18.9412 51.8451 18.2918 52.3863Z" fill="black"/>
<path d="M36.584 15.5859C25.2192 15.5859 15.9109 24.786 15.9109 36.259C16.0192 43.7273 19.5909 50.6544 25.6522 54.9839V61.6945H28.5745V54.118C28.5745 53.5768 28.3581 53.1439 27.9251 52.9274C22.2968 49.1391 18.9415 42.9697 18.8333 36.1508C19.158 26.4095 27.2757 18.6165 37.017 18.9413C46.4335 19.1577 53.9018 26.7343 54.2265 36.1508C54.1183 42.8614 50.7629 49.1391 45.1347 52.9274C44.7017 53.2521 44.4852 53.685 44.4852 54.118V61.6945H47.2994V54.9839C53.3606 50.6544 56.9324 43.7273 57.0406 36.259C57.0406 24.8942 47.9488 15.6942 36.584 15.5859Z" fill="black"/>
<path d="M44.4852 61.6946H28.5745H25.6522V69.9205C25.6522 70.137 25.6522 70.2452 25.7604 70.4617V70.5699C25.7604 70.6782 25.8686 70.6782 25.8686 70.7864L31.064 78.4712C31.3887 78.9041 31.8216 79.1206 32.2546 79.1206H40.8052C41.2382 79.1206 41.7793 78.9041 41.9958 78.4712L47.1911 70.7864C47.1911 70.6782 47.2994 70.6782 47.2994 70.5699V70.3535C47.4076 70.2452 47.4076 70.0288 47.4076 69.8123V61.6946H44.4852ZM40.0476 76.09H33.1205L29.9816 71.3276H43.2946L40.0476 76.09ZM28.5745 68.4052V64.5087H44.4852V68.4052H28.5745Z" fill="#D64356"/>
</svg>
