<svg width="70" height="71" viewBox="0 0 70 71" fill="none" xmlns="http://www.w3.org/2000/svg">
<path d="M68.1768 66.6038H62.9324V45.6264C65.0547 45.1932 66.9405 43.9874 68.2243 42.2427C69.5081 40.4981 70.0983 38.3389 69.8806 36.1838C69.6629 34.0288 68.6527 32.0313 67.046 30.5786C65.4392 29.126 63.3503 28.3217 61.1843 28.3217C59.0182 28.3217 56.9293 29.126 55.3225 30.5786C53.7158 32.0313 52.7056 34.0288 52.4879 36.1838C52.2702 38.3389 52.8605 40.4981 54.1442 42.2427C55.428 43.9874 57.3138 45.1932 59.4361 45.6264V66.6038H45.4512V1.92333C45.4688 1.53773 45.3583 1.15713 45.137 0.840898C44.9156 0.524671 44.5958 0.290601 44.2275 0.175204C43.8726 0.0687763 43.4933 0.0755588 43.1424 0.194609C42.7915 0.313659 42.4865 0.539062 42.2696 0.83949C39.6348 4.68552 36.3167 8.01547 32.4801 10.6639C27.9213 12.0047 23.2336 12.8602 18.4951 13.2162C16.2471 13.5466 14.1958 14.6826 12.723 16.4127C11.2501 18.1428 10.4561 20.3492 10.4887 22.6211V24.6489H5.24437C3.85347 24.6489 2.51955 25.2014 1.53604 26.1849C0.55253 27.1685 0 28.5024 0 29.8933V68.3519C0 68.8156 0.184177 69.2602 0.512013 69.5881C0.83985 69.9159 1.28449 70.1001 1.74812 70.1001H68.1768C68.6404 70.1001 69.085 69.9159 69.4129 69.5881C69.7407 69.2602 69.9249 68.8156 69.9249 68.3519C69.9249 67.8883 69.7407 67.4437 69.4129 67.1158C69.085 66.788 68.6404 66.6038 68.1768 66.6038ZM55.9399 36.8858C55.9399 35.8485 56.2475 34.8346 56.8237 33.9721C57.4 33.1097 58.2191 32.4375 59.1773 32.0406C60.1356 31.6437 61.1901 31.5398 62.2074 31.7422C63.2247 31.9445 64.1591 32.444 64.8926 33.1774C65.626 33.9109 66.1255 34.8453 66.3279 35.8626C66.5302 36.8799 66.4264 37.9344 66.0294 38.8927C65.6325 39.851 64.9603 40.67 64.0979 41.2463C63.2354 41.8225 62.2215 42.1301 61.1843 42.1301C59.7934 42.1301 58.4594 41.5776 57.4759 40.5941C56.4924 39.6106 55.9399 38.2766 55.9399 36.8858ZM13.985 66.6038V56.1151H20.9775V66.6038H13.985ZM24.4737 66.6038V54.367C24.4737 53.9033 24.2895 53.4587 23.9617 53.1309C23.6339 52.803 23.1892 52.6189 22.7256 52.6189H12.2369C11.7732 52.6189 11.3286 52.803 11.0007 53.1309C10.6729 53.4587 10.4887 53.9033 10.4887 54.367V66.6038H3.49624V29.8933C3.49624 29.4296 3.68042 28.985 4.00826 28.6572C4.33609 28.3293 4.78073 28.1452 5.24437 28.1452H29.7181C30.1817 28.1452 30.6263 28.3293 30.9542 28.6572C31.282 28.985 31.4662 29.4296 31.4662 29.8933V66.6038H24.4737ZM34.9624 66.6038V29.8933C34.9624 28.5024 34.4099 27.1685 33.4264 26.1849C32.4429 25.2014 31.109 24.6489 29.7181 24.6489H13.985V22.6211C13.9745 21.2049 14.4854 19.8343 15.4203 18.7705C16.3552 17.7067 17.6487 17.0239 19.0545 16.8523C24.0994 16.5698 29.0902 15.6656 33.9136 14.1602C37.0123 12.3592 39.7411 9.98638 41.9549 7.16769V66.6038H34.9624Z" fill="black"/>
<path d="M20.9379 34.3558L11.3577 43.936C10.9342 44.3595 10.6583 44.8958 10.5907 45.4271C10.5231 45.9583 10.6693 46.441 10.9971 46.7688C11.3249 47.0966 11.8076 47.2428 12.3388 47.1752C12.8701 47.1076 13.4064 46.8317 13.8299 46.4082L23.4101 36.828C23.8336 36.4045 24.1095 35.8682 24.1771 35.3369C24.2447 34.8057 24.0985 34.323 23.7707 33.9952C23.4429 33.6673 22.9602 33.5212 22.429 33.5888C21.8977 33.6564 21.3614 33.9323 20.9379 34.3558Z" fill="#CC4051"/>
<path d="M23.4101 43.936L13.8299 34.3558C13.4064 33.9323 12.8701 33.6564 12.3388 33.5888C11.8076 33.5211 11.3249 33.6673 10.9971 33.9952C10.6693 34.323 10.5231 34.8056 10.5907 35.3369C10.6583 35.8682 10.9342 36.4045 11.3577 36.828L20.9379 46.4082C21.3614 46.8317 21.8977 47.1076 22.429 47.1752C22.9602 47.2428 23.4429 47.0966 23.7707 46.7688C24.0986 46.4409 24.2447 45.9583 24.1771 45.4271C24.1095 44.8958 23.8336 44.3594 23.4101 43.936Z" fill="#CC4051"/>
</svg>