<svg width="64" height="71" viewBox="0 0 64 71" fill="none" xmlns="http://www.w3.org/2000/svg">
<path d="M40.9183 48.9488C41.2581 46.4569 40.5785 43.9367 39.0777 42.0677C37.8884 40.6236 36.161 39.774 34.3487 39.774H34.3204C32.5081 39.774 30.8091 40.5952 29.6198 42.0111C26.9297 45.2393 26.6465 49.4868 28.9119 53.0831C29.7897 54.499 31.2055 55.4617 32.8479 55.7732C33.2444 55.8582 33.6408 55.8865 34.0373 55.8865C35.2549 55.8865 36.4442 55.5184 37.4636 54.7821C39.3326 53.5079 40.5785 51.3558 40.9183 48.9488ZM35.8496 52.5168C35.1416 53.0265 34.2638 53.1964 33.4143 53.0265C32.5365 52.8566 31.8002 52.3469 31.3188 51.5823C29.7331 49.0621 29.903 46.0888 31.8002 43.8234C32.4515 43.0305 33.3576 42.6058 34.3204 42.6058C35.2832 42.6058 36.2177 43.0588 36.869 43.88C37.8884 45.1543 38.3415 46.8533 38.1149 48.5807C37.8884 50.1948 37.0672 51.6389 35.8496 52.5168Z" fill="#CD4051"/>
<path d="M61.1367 55.9999C59.2678 53.961 56.068 53.5363 53.7176 54.9804C51.7071 56.1981 50.3479 58.3785 49.9798 60.927C49.5833 63.5889 50.2913 66.1657 51.9337 68.0346C53.2079 69.5071 54.8786 70.2434 56.5493 70.2434C57.7104 70.2434 58.8997 69.8753 59.9474 69.139C61.9013 67.7515 63.1756 65.5144 63.4304 62.9942C63.6853 60.389 62.8641 57.8405 61.1367 55.9999ZM60.5987 62.711C60.4288 64.4384 59.5793 65.9392 58.305 66.8453C56.9175 67.8364 55.2468 67.5533 54.0574 66.194C52.9531 64.9481 52.5 63.1924 52.7832 61.3518C53.038 59.6244 53.9442 58.1803 55.2184 57.3874C55.6998 57.0759 56.2662 56.9343 56.8325 56.9343C57.682 56.9343 58.4749 57.3024 59.0979 57.9537C60.2306 59.1714 60.7969 60.8987 60.5987 62.711Z" fill="#CD4051"/>
<path d="M54.9918 39.9723C54.3405 39.5476 53.4627 39.7458 53.0379 40.3971L35.4247 68.1196C34.9999 68.7709 35.1981 69.6487 35.8494 70.0735C36.0759 70.2151 36.3591 70.3 36.614 70.3C37.067 70.3 37.5484 70.0735 37.8033 69.6487L55.4166 41.9262C55.8413 41.2466 55.6431 40.3688 54.9918 39.9723Z" fill="black"/>
<path d="M13.8472 16.8089C18.4062 16.8089 22.0875 13.0993 22.0875 8.56861C22.0875 4.03786 18.4062 0.300003 13.8472 0.300003C9.2881 0.300003 5.60687 4.00955 5.60687 8.54029C5.60687 13.071 9.2881 16.8089 13.8472 16.8089ZM13.8472 3.13172C16.8488 3.13172 19.2841 5.56699 19.2841 8.56861C19.2841 11.5702 16.8488 14.0055 13.8472 14.0055C10.8455 14.0055 8.41027 11.5702 8.41027 8.56861C8.41027 5.56699 10.8739 3.13172 13.8472 3.13172Z" fill="black"/>
<path d="M23.8147 28.0508C23.0502 27.9942 22.3705 28.5888 22.3139 29.3534L21.0396 47.9011C21.0396 47.9578 21.0113 48.0144 21.0113 48.0427L19.822 66.0524C19.7654 66.8453 19.1141 67.44 18.3495 67.44H9.37297C8.58009 67.44 7.9288 66.817 7.87217 66.0524L6.71116 48.0427C6.68285 47.448 6.28641 46.9667 5.72006 46.7968C4.02103 46.287 4.02103 46.287 3.87945 44.3898L2.8034 25.2757V25.1058C4.87055 24.4828 6.9377 23.8315 9.03317 23.1519C9.93932 24.228 10.8738 25.304 11.8649 26.4084L12.7993 27.4561C13.0542 27.7676 13.4506 27.9375 13.8471 27.9375C14.2435 27.9375 14.64 27.7676 14.8948 27.4561L16.0275 26.1819C16.9337 25.1625 17.7832 24.1714 18.6327 23.1803C18.661 23.1803 18.6893 23.1803 18.7459 23.1803L32.6213 26.3235C32.8196 26.3801 33.0178 26.3801 33.216 26.3235L45.7039 23.7749C46.4684 23.605 46.9498 22.8688 46.8082 22.1042C46.6383 21.3396 45.9021 20.8299 45.1375 20.9998L32.9612 23.4917L19.2557 20.3485C19.199 20.3485 19.1424 20.3202 19.0574 20.3202C18.8026 20.2919 17.415 20.2353 16.6222 21.1697C15.7443 22.2175 14.8665 23.2086 13.932 24.2846L13.8754 24.3696C12.9126 23.2935 12.0065 22.2458 11.1003 21.1981C10.3641 20.3202 9.40129 20.037 8.35356 20.4052C6.22977 21.0848 4.10599 21.7644 1.9822 22.4157C0.707929 22.8121 0 23.7749 0 25.0775C0 25.1908 0 25.4173 0 25.4173L1.04773 44.2765L1.07605 44.588C1.27427 47.448 1.75566 48.3542 3.9644 49.1754L5.09709 66.2506C5.23867 68.516 7.13592 70.3 9.40129 70.3H18.3778C20.6432 70.3 22.5404 68.516 22.682 66.2506L23.843 48.3542C23.843 48.2976 23.843 48.2692 23.8714 48.2126L25.1456 29.5233C25.1739 28.7587 24.5793 28.0791 23.8147 28.0508Z" fill="black"/>
</svg>
