<svg width="64" height="71" viewBox="0 0 64 71" fill="none" xmlns="http://www.w3.org/2000/svg">
<path d="M40.9183 49.044C41.2581 46.5521 40.5785 44.0319 39.0777 42.1629C37.8883 40.7188 36.161 39.8693 34.3487 39.8693H34.3204C32.5081 39.8693 30.8091 40.6905 29.6197 42.1063C26.9296 45.3345 26.6464 49.582 28.9118 53.1783C29.7896 54.5942 31.2055 55.557 32.8479 55.8684C33.2443 55.9534 33.6408 55.9817 34.0372 55.9817C35.2549 55.9817 36.4442 55.6136 37.4636 54.8773C39.3325 53.6031 40.5785 51.451 40.9183 49.044ZM35.8495 52.612C35.1416 53.1217 34.2638 53.2916 33.4142 53.1217C32.5364 52.9518 31.8002 52.4421 31.3188 51.6775C29.733 49.1573 29.9029 46.184 31.8002 43.9186C32.4515 43.1257 33.3576 42.701 34.3204 42.701C35.2832 42.701 36.2176 43.1541 36.8689 43.9752C37.8883 45.2495 38.3414 46.9485 38.1149 48.6759C37.8883 50.29 37.0672 51.7341 35.8495 52.612Z" fill="#E3E3E3"/>
<path d="M61.1367 56.095C59.2678 54.0561 56.0679 53.6314 53.7176 55.0755C51.7071 56.2932 50.3479 58.4736 49.9798 61.0221C49.5833 63.684 50.2912 66.2608 51.9336 68.1298C53.2079 69.6022 54.8786 70.3385 56.5493 70.3385C57.7103 70.3385 58.8997 69.9704 59.9474 69.2341C61.9013 67.8466 63.1755 65.6095 63.4304 63.0893C63.6853 60.4841 62.8641 57.9356 61.1367 56.095ZM60.5987 62.8061C60.4288 64.5335 59.5793 66.0343 58.305 66.9404C56.9175 67.9315 55.2467 67.6484 54.0574 66.2891C52.9531 65.0432 52.5 63.2875 52.7832 61.4469C53.038 59.7196 53.9442 58.2754 55.2184 57.4825C55.6998 57.171 56.2662 57.0294 56.8325 57.0294C57.682 57.0294 58.4749 57.3975 59.0979 58.0488C60.2306 59.2665 60.7969 60.9938 60.5987 62.8061Z" fill="#E3E3E3"/>
<path d="M54.9919 40.0675C54.3406 39.6427 53.4628 39.8409 53.038 40.4922L35.4248 68.2147C35 68.866 35.1982 69.7439 35.8495 70.1686C36.0761 70.3102 36.3592 70.3952 36.6141 70.3952C37.0672 70.3952 37.5485 70.1686 37.8034 69.7439L55.4167 42.0214C55.8414 41.3417 55.6432 40.4639 54.9919 40.0675Z" fill="#E3E3E3"/>
<path d="M13.8471 16.9042C18.4061 16.9042 22.0874 13.1946 22.0874 8.66387C22.0874 4.13313 18.4061 0.395264 13.8471 0.395264C9.288 0.395264 5.60677 4.10481 5.60677 8.63555C5.60677 13.1663 9.288 16.9042 13.8471 16.9042ZM13.8471 3.22698C16.8487 3.22698 19.284 5.66225 19.284 8.66387C19.284 11.6655 16.8487 14.1008 13.8471 14.1008C10.8454 14.1008 8.41016 11.6655 8.41016 8.66387C8.41016 5.66225 10.8738 3.22698 13.8471 3.22698Z" fill="#E3E3E3"/>
<path d="M23.8147 28.1461C23.0502 28.0895 22.3705 28.6841 22.3139 29.4487L21.0396 47.9964C21.0396 48.0531 21.0113 48.1097 21.0113 48.138L19.822 66.1477C19.7654 66.9406 19.1141 67.5353 18.3495 67.5353H9.37297C8.58009 67.5353 7.9288 66.9123 7.87217 66.1477L6.71116 48.138C6.68285 47.5434 6.28641 47.062 5.72006 46.8921C4.02103 46.3824 4.02103 46.3824 3.87945 44.4851L2.8034 25.371V25.2011C4.87055 24.5782 6.9377 23.9269 9.03317 23.2473C9.93932 24.3233 10.8738 25.3994 11.8649 26.5037L12.7993 27.5515C13.0542 27.863 13.4506 28.0329 13.8471 28.0329C14.2435 28.0329 14.64 27.863 14.8948 27.5515L16.0275 26.2772C16.9337 25.2578 17.7832 24.2667 18.6327 23.2756C18.661 23.2756 18.6893 23.2756 18.7459 23.2756L32.6213 26.4188C32.8196 26.4754 33.0178 26.4754 33.216 26.4188L45.7039 23.8702C46.4684 23.7003 46.9498 22.9641 46.8082 22.1995C46.6383 21.435 45.9021 20.9253 45.1375 21.0952L32.9612 23.5871L19.2557 20.4439C19.199 20.4439 19.1424 20.4155 19.0574 20.4155C18.8026 20.3872 17.415 20.3306 16.6222 21.2651C15.7443 22.3128 14.8665 23.3039 13.932 24.3799L13.8754 24.4649C12.9126 23.3888 12.0065 22.3411 11.1003 21.2934C10.3641 20.4155 9.40129 20.1324 8.35356 20.5005C6.22977 21.1801 4.10599 21.8597 1.9822 22.511C0.707929 22.9075 0 23.8702 0 25.1728C0 25.2861 0 25.5126 0 25.5126L1.04773 44.3718L1.07605 44.6833C1.27427 47.5434 1.75566 48.4495 3.9644 49.2707L5.09709 66.346C5.23867 68.6113 7.13592 70.3953 9.40129 70.3953H18.3778C20.6432 70.3953 22.5404 68.6113 22.682 66.346L23.843 48.4495C23.843 48.3929 23.843 48.3646 23.8714 48.3079L25.1456 29.6186C25.1739 28.8541 24.5793 28.1744 23.8147 28.1461Z" fill="#E3E3E3"/>
</svg>
