<svg width="320" height="320" viewBox="0 0 320 320" fill="none" xmlns="http://www.w3.org/2000/svg">
<path d="M166.957 168.956H168.957V166.956V153.043V151.043H166.957H153.043H151.043V153.043V166.956V168.956H153.043H166.957ZM146.087 141.13H173.913C176.654 141.13 178.87 143.35 178.87 146.087V173.913C178.87 176.65 176.654 178.87 173.913 178.87H146.087C143.352 178.87 141.13 176.648 141.13 173.913V146.087C141.13 143.351 143.352 141.13 146.087 141.13Z" fill="url(#paint0_linear)" stroke="#4943CD" stroke-width="4"/>
<mask id="path-2-inside-1" fill="white">
<path d="M313.043 153.043H222.609V125.217H257.391C261.238 125.217 264.348 122.101 264.348 118.261V90.4348C264.348 86.5948 261.238 83.4783 257.391 83.4783C253.544 83.4783 250.435 86.5948 250.435 90.4348V111.304H222.609V104.348C222.609 100.508 219.499 97.3913 215.652 97.3913H208.696V13.913H243.478C247.325 13.913 250.435 10.7965 250.435 6.95652C250.435 3.11652 247.325 0 243.478 0H201.739C197.892 0 194.783 3.11652 194.783 6.95652V97.3913H166.957V6.95652C166.957 3.11652 163.84 0 160 0C156.16 0 153.043 3.11652 153.043 6.95652V97.3913H125.217V34.7826C125.217 30.9426 122.101 27.8261 118.261 27.8261C114.421 27.8261 111.304 30.9426 111.304 34.7826V97.3913H104.348C100.508 97.3913 97.3913 100.508 97.3913 104.348V111.304H34.7826C30.9426 111.304 27.8261 114.421 27.8261 118.261C27.8261 122.101 30.9426 125.217 34.7826 125.217H97.3913V153.043H6.95652C3.11652 153.043 0 156.16 0 160C0 163.84 3.11652 166.957 6.95652 166.957H97.3913V194.783H62.6087C58.7687 194.783 55.6522 197.899 55.6522 201.739V229.565C55.6522 233.405 58.7687 236.522 62.6087 236.522C66.4487 236.522 69.5652 233.405 69.5652 229.565V208.696H97.3913V215.652C97.3913 219.492 100.508 222.609 104.348 222.609H111.304V306.087H76.5217C72.6817 306.087 69.5652 309.203 69.5652 313.043C69.5652 316.883 72.6817 320 76.5217 320H118.261C122.101 320 125.217 316.883 125.217 313.043V222.609H153.043V313.043C153.043 316.883 156.16 320 160 320C163.84 320 166.957 316.883 166.957 313.043V222.609H194.783V285.217C194.783 289.057 197.892 292.174 201.739 292.174C205.586 292.174 208.696 289.057 208.696 285.217V222.609H215.652C219.499 222.609 222.609 219.492 222.609 215.652V208.696H285.217C289.064 208.696 292.174 205.579 292.174 201.739C292.174 197.899 289.064 194.783 285.217 194.783H222.609V166.957H313.043C316.89 166.957 320 163.84 320 160C320 156.16 316.89 153.043 313.043 153.043ZM208.696 208.696H201.753C201.746 208.696 201.739 208.696 201.739 208.696H201.725H160.021C160.014 208.696 160.007 208.696 160.007 208.696H159.993H118.289C118.282 208.696 118.275 208.696 118.275 208.696H118.261H111.304V201.753C111.304 201.746 111.304 201.739 111.304 201.739V201.725V160.021C111.304 160.014 111.304 160.007 111.304 160.007V159.993V118.289C111.304 118.282 111.304 118.275 111.304 118.275V118.261V111.304H208.696V208.696Z"/>
</mask>
<path d="M313.043 153.043H222.609V125.217H257.391C261.238 125.217 264.348 122.101 264.348 118.261V90.4348C264.348 86.5948 261.238 83.4783 257.391 83.4783C253.544 83.4783 250.435 86.5948 250.435 90.4348V111.304H222.609V104.348C222.609 100.508 219.499 97.3913 215.652 97.3913H208.696V13.913H243.478C247.325 13.913 250.435 10.7965 250.435 6.95652C250.435 3.11652 247.325 0 243.478 0H201.739C197.892 0 194.783 3.11652 194.783 6.95652V97.3913H166.957V6.95652C166.957 3.11652 163.84 0 160 0C156.16 0 153.043 3.11652 153.043 6.95652V97.3913H125.217V34.7826C125.217 30.9426 122.101 27.8261 118.261 27.8261C114.421 27.8261 111.304 30.9426 111.304 34.7826V97.3913H104.348C100.508 97.3913 97.3913 100.508 97.3913 104.348V111.304H34.7826C30.9426 111.304 27.8261 114.421 27.8261 118.261C27.8261 122.101 30.9426 125.217 34.7826 125.217H97.3913V153.043H6.95652C3.11652 153.043 0 156.16 0 160C0 163.84 3.11652 166.957 6.95652 166.957H97.3913V194.783H62.6087C58.7687 194.783 55.6522 197.899 55.6522 201.739V229.565C55.6522 233.405 58.7687 236.522 62.6087 236.522C66.4487 236.522 69.5652 233.405 69.5652 229.565V208.696H97.3913V215.652C97.3913 219.492 100.508 222.609 104.348 222.609H111.304V306.087H76.5217C72.6817 306.087 69.5652 309.203 69.5652 313.043C69.5652 316.883 72.6817 320 76.5217 320H118.261C122.101 320 125.217 316.883 125.217 313.043V222.609H153.043V313.043C153.043 316.883 156.16 320 160 320C163.84 320 166.957 316.883 166.957 313.043V222.609H194.783V285.217C194.783 289.057 197.892 292.174 201.739 292.174C205.586 292.174 208.696 289.057 208.696 285.217V222.609H215.652C219.499 222.609 222.609 219.492 222.609 215.652V208.696H285.217C289.064 208.696 292.174 205.579 292.174 201.739C292.174 197.899 289.064 194.783 285.217 194.783H222.609V166.957H313.043C316.89 166.957 320 163.84 320 160C320 156.16 316.89 153.043 313.043 153.043ZM208.696 208.696H201.753C201.746 208.696 201.739 208.696 201.739 208.696H201.725H160.021C160.014 208.696 160.007 208.696 160.007 208.696H159.993H118.289C118.282 208.696 118.275 208.696 118.275 208.696H118.261H111.304V201.753C111.304 201.746 111.304 201.739 111.304 201.739V201.725V160.021C111.304 160.014 111.304 160.007 111.304 160.007V159.993V118.289C111.304 118.282 111.304 118.275 111.304 118.275V118.261V111.304H208.696V208.696Z" fill="url(#paint1_linear)" stroke="#4943CD" stroke-width="8" mask="url(#path-2-inside-1)"/>
<path d="M22 36.5981V33.5981L212.613 33.5981V36.5981L22 36.5981Z" fill="url(#paint2_linear)"/>
<path d="M119 106.598V103.598L309.613 103.598V106.598L119 106.598Z" fill="url(#paint3_linear)"/>
<path d="M9 216.598V213.598H199.613V216.598H9Z" fill="url(#paint4_linear)"/>
<ellipse cx="117.958" cy="35" rx="3.99998" ry="3.99999" fill="#C2BFFF"/>
<ellipse cx="214.958" cy="105" rx="3.99998" ry="3.99999" fill="#C2BFFF"/>
<ellipse cx="104.958" cy="215" rx="3.99998" ry="3.99999" fill="#9691F8"/>
<defs>
<linearGradient id="paint0_linear" x1="160" y1="139.13" x2="160" y2="180.87" gradientUnits="userSpaceOnUse">
<stop stop-color="#D64356"/>
<stop offset="1" stop-color="#FFC327" stop-opacity="0"/>
</linearGradient>
<linearGradient id="paint1_linear" x1="160" y1="0" x2="160" y2="320" gradientUnits="userSpaceOnUse">
<stop stop-color="#D64356"/>
<stop offset="1" stop-color="#FFC327" stop-opacity="0"/>
</linearGradient>
<linearGradient id="paint2_linear" x1="22" y1="35.0981" x2="212.613" y2="35.0981" gradientUnits="userSpaceOnUse">
<stop stop-color="white" stop-opacity="0"/>
<stop offset="0.552083" stop-color="white" stop-opacity="0.19"/>
<stop offset="1" stop-color="white" stop-opacity="0"/>
</linearGradient>
<linearGradient id="paint3_linear" x1="119" y1="105.098" x2="309.613" y2="105.098" gradientUnits="userSpaceOnUse">
<stop stop-color="white" stop-opacity="0"/>
<stop offset="0.552083" stop-color="white" stop-opacity="0.19"/>
<stop offset="1" stop-color="white" stop-opacity="0"/>
</linearGradient>
<linearGradient id="paint4_linear" x1="9" y1="215.098" x2="199.613" y2="215.098" gradientUnits="userSpaceOnUse">
<stop stop-color="white" stop-opacity="0"/>
<stop offset="0.552083" stop-color="white" stop-opacity="0.19"/>
<stop offset="1" stop-color="white" stop-opacity="0"/>
</linearGradient>
</defs>
</svg>
