<svg width="282" height="325" viewBox="0 0 282 325" fill="none" xmlns="http://www.w3.org/2000/svg">
<mask id="path-1-inside-1" fill="white">
<path d="M274.854 138.88C278.359 138.88 281.201 136.039 281.201 132.533C281.201 129.027 278.359 126.185 274.854 126.185H250.807V108.904H274.854C278.359 108.904 281.201 106.062 281.201 102.556C281.201 99.0501 278.359 96.2083 274.854 96.2083H250.807V85.8228C250.807 84.1401 250.14 82.5265 248.95 81.3363L230.594 62.9656C229.404 61.7741 227.789 61.1044 226.104 61.1044H215.716V37.0798C215.716 33.574 212.874 30.7322 209.369 30.7322C205.863 30.7322 203.021 33.574 203.021 37.0798V61.1044H185.736V37.0798C185.736 33.574 182.894 30.7322 179.389 30.7322C175.883 30.7322 173.041 33.574 173.041 37.0798V61.1044H155.774V38.357C155.774 17.2066 138.566 0 117.413 0C100.106 0 85.0656 11.6975 80.4781 27.9481C67.2864 29.2887 55.064 35.1209 45.632 44.6697C34.9807 55.4544 29.1148 69.7436 29.1148 84.905C29.1148 92.4289 30.6001 99.881 33.4483 106.789C24.5381 111.524 16.893 118.333 11.0976 126.748C3.83779 137.29 0 149.65 0 162.491C0 186.13 12.9251 207.333 33.4452 218.211C30.6001 225.106 29.1161 232.552 29.1161 240.077C29.1161 255.239 34.9819 269.528 45.6333 280.312C55.0646 289.861 67.2871 295.694 80.4788 297.034C85.0656 313.296 100.108 325 117.414 325C138.566 325 155.775 307.793 155.775 286.643V263.878H173.042V287.92C173.042 291.426 175.884 294.268 179.39 294.268C182.896 294.268 185.738 291.426 185.738 287.92V263.878H203.022V287.92C203.022 291.426 205.864 294.268 209.37 294.268C212.876 294.268 215.717 291.426 215.717 287.92V263.878H226.105C227.789 263.878 229.403 263.209 230.594 262.019L248.949 243.666C250.14 242.475 250.809 240.861 250.809 239.177V228.773H274.854C278.359 228.773 281.201 225.932 281.201 222.426C281.201 218.92 278.359 216.078 274.854 216.078H250.807V198.815H274.854C278.359 198.815 281.201 195.973 281.201 192.467C281.201 188.961 278.359 186.12 274.854 186.12H250.807V168.839H274.854C278.359 168.839 281.201 165.997 281.201 162.491C281.201 158.985 278.359 156.143 274.854 156.143H250.807V138.88H274.854ZM117.414 312.305C106.884 312.305 97.613 305.829 93.7098 296.479C98.3398 295.65 102.854 294.241 107.195 292.249C113.504 289.353 119.147 285.389 123.965 280.467C126.417 277.961 126.375 273.943 123.87 271.49C121.365 269.038 117.347 269.08 114.893 271.585C111.164 275.394 106.792 278.464 101.9 280.71C96.7307 283.081 91.2514 284.396 85.6127 284.624C61.4459 284.226 41.8114 264.276 41.8114 240.075C41.8114 232.428 43.776 224.894 47.4925 218.284C48.3888 216.692 48.5545 214.79 47.9477 213.067C47.3415 211.343 46.0211 209.964 44.3257 209.283C25.1113 201.566 12.6953 183.198 12.6953 162.491C12.6953 141.778 25.1094 123.418 44.3219 115.718C48.0962 113.677 49.1543 110.677 47.4963 106.72C43.7772 100.092 41.8114 92.5482 41.8114 84.9056C41.8114 60.7045 61.4459 40.7551 85.6127 40.3565C91.2158 40.5844 96.6996 41.9002 101.899 44.2705C106.8 46.5201 111.168 49.593 114.884 53.4041C116.128 54.68 117.778 55.3211 119.43 55.3211C121.027 55.3211 122.626 54.7219 123.86 53.519C126.37 51.072 126.421 47.0526 123.974 44.5428C119.165 39.61 113.52 35.6364 107.18 32.726C102.825 30.7411 98.3169 29.3357 93.7092 28.5073C97.6124 19.1642 106.883 12.6953 117.414 12.6953C131.566 12.6953 143.08 24.2074 143.08 38.357V116.181H123.318L106.477 99.3421C108.27 96.0699 109.226 92.3832 109.226 88.5485C109.226 82.5335 106.884 76.8784 102.629 72.6248C93.8488 63.846 79.5615 63.8454 70.7808 72.6248C66.5272 76.8784 64.1843 82.5335 64.1843 88.5479C64.1843 94.5623 66.5266 100.217 70.7808 104.471C75.1709 108.86 80.9377 111.055 86.7045 111.055C90.4243 111.055 94.1415 110.136 97.4924 108.31L116.2 127.016C117.554 128.228 119.05 128.848 120.689 128.875H143.079V156.142H103.3C100.551 146.815 91.9077 139.984 81.6937 139.984C69.2828 139.984 59.1862 150.08 59.1862 162.49C59.1862 174.909 69.2828 185.013 81.6937 185.013C91.9096 185.013 100.554 178.175 103.302 168.838H143.079V196.104H120.689C120.519 196.104 120.373 196.113 120.238 196.126C118.767 196.23 117.324 196.84 116.198 197.965L97.4898 216.686C88.9459 212.03 78.0013 213.307 70.7802 220.526C66.5222 224.784 64.1799 230.444 64.1837 236.464C64.1875 242.474 66.533 248.12 70.7802 252.356C75.1715 256.746 80.939 258.941 86.7064 258.941C92.4714 258.941 98.2363 256.747 102.622 252.362C106.875 248.12 109.221 242.475 109.225 236.464C109.227 232.624 108.271 228.932 106.475 225.655L123.318 208.8H143.078V286.642C143.079 300.793 131.566 312.305 117.414 312.305ZM96.5307 88.5492C96.5307 91.1727 95.5087 93.6394 93.6533 95.4948C89.8219 99.3256 83.5891 99.3256 79.7577 95.4948C77.9022 93.6394 76.8803 91.1727 76.8803 88.5492C76.8803 85.9257 77.9022 83.4584 79.7577 81.6036C83.5891 77.7734 89.8225 77.7734 93.6533 81.6036C95.5087 83.4584 96.5307 85.925 96.5307 88.5492ZM91.5237 162.491C91.5237 167.91 87.114 172.319 81.6937 172.319C76.2836 172.319 71.8815 167.91 71.8815 162.491C71.8815 157.082 76.2836 152.681 81.6937 152.681C87.114 152.681 91.5237 157.082 91.5237 162.491ZM96.5307 236.456C96.5288 239.072 95.5094 241.528 93.6533 243.379C89.8219 247.209 83.5885 247.209 79.7513 243.372C77.9016 241.528 76.8815 239.072 76.8803 236.456C76.8784 233.831 77.9003 231.363 79.7577 229.505C83.5885 225.676 89.8219 225.675 93.652 229.505C93.6527 229.505 93.6533 229.506 93.654 229.507L93.6546 229.508C95.5113 231.365 96.5326 233.832 96.5307 236.456ZM238.112 236.547L223.476 251.182H155.775V232.372H212.95C216.456 232.372 219.298 229.53 219.298 226.024V190.974C219.298 187.468 216.456 184.626 212.95 184.626C209.444 184.626 206.602 187.468 206.602 190.974V219.677H155.775V105.323H206.602V133.954C206.602 137.46 209.444 140.302 212.95 140.302C216.456 140.302 219.298 137.46 219.298 133.954V98.9758C219.298 95.47 216.456 92.6282 212.95 92.6282H155.775V73.7998H223.474L238.112 88.4508V236.547Z"/>
</mask>
<path d="M274.854 138.88C278.359 138.88 281.201 136.039 281.201 132.533C281.201 129.027 278.359 126.185 274.854 126.185H250.807V108.904H274.854C278.359 108.904 281.201 106.062 281.201 102.556C281.201 99.0501 278.359 96.2083 274.854 96.2083H250.807V85.8228C250.807 84.1401 250.14 82.5265 248.95 81.3363L230.594 62.9656C229.404 61.7741 227.789 61.1044 226.104 61.1044H215.716V37.0798C215.716 33.574 212.874 30.7322 209.369 30.7322C205.863 30.7322 203.021 33.574 203.021 37.0798V61.1044H185.736V37.0798C185.736 33.574 182.894 30.7322 179.389 30.7322C175.883 30.7322 173.041 33.574 173.041 37.0798V61.1044H155.774V38.357C155.774 17.2066 138.566 0 117.413 0C100.106 0 85.0656 11.6975 80.4781 27.9481C67.2864 29.2887 55.064 35.1209 45.632 44.6697C34.9807 55.4544 29.1148 69.7436 29.1148 84.905C29.1148 92.4289 30.6001 99.881 33.4483 106.789C24.5381 111.524 16.893 118.333 11.0976 126.748C3.83779 137.29 0 149.65 0 162.491C0 186.13 12.9251 207.333 33.4452 218.211C30.6001 225.106 29.1161 232.552 29.1161 240.077C29.1161 255.239 34.9819 269.528 45.6333 280.312C55.0646 289.861 67.2871 295.694 80.4788 297.034C85.0656 313.296 100.108 325 117.414 325C138.566 325 155.775 307.793 155.775 286.643V263.878H173.042V287.92C173.042 291.426 175.884 294.268 179.39 294.268C182.896 294.268 185.738 291.426 185.738 287.92V263.878H203.022V287.92C203.022 291.426 205.864 294.268 209.37 294.268C212.876 294.268 215.717 291.426 215.717 287.92V263.878H226.105C227.789 263.878 229.403 263.209 230.594 262.019L248.949 243.666C250.14 242.475 250.809 240.861 250.809 239.177V228.773H274.854C278.359 228.773 281.201 225.932 281.201 222.426C281.201 218.92 278.359 216.078 274.854 216.078H250.807V198.815H274.854C278.359 198.815 281.201 195.973 281.201 192.467C281.201 188.961 278.359 186.12 274.854 186.12H250.807V168.839H274.854C278.359 168.839 281.201 165.997 281.201 162.491C281.201 158.985 278.359 156.143 274.854 156.143H250.807V138.88H274.854ZM117.414 312.305C106.884 312.305 97.613 305.829 93.7098 296.479C98.3398 295.65 102.854 294.241 107.195 292.249C113.504 289.353 119.147 285.389 123.965 280.467C126.417 277.961 126.375 273.943 123.87 271.49C121.365 269.038 117.347 269.08 114.893 271.585C111.164 275.394 106.792 278.464 101.9 280.71C96.7307 283.081 91.2514 284.396 85.6127 284.624C61.4459 284.226 41.8114 264.276 41.8114 240.075C41.8114 232.428 43.776 224.894 47.4925 218.284C48.3888 216.692 48.5545 214.79 47.9477 213.067C47.3415 211.343 46.0211 209.964 44.3257 209.283C25.1113 201.566 12.6953 183.198 12.6953 162.491C12.6953 141.778 25.1094 123.418 44.3219 115.718C48.0962 113.677 49.1543 110.677 47.4963 106.72C43.7772 100.092 41.8114 92.5482 41.8114 84.9056C41.8114 60.7045 61.4459 40.7551 85.6127 40.3565C91.2158 40.5844 96.6996 41.9002 101.899 44.2705C106.8 46.5201 111.168 49.593 114.884 53.4041C116.128 54.68 117.778 55.3211 119.43 55.3211C121.027 55.3211 122.626 54.7219 123.86 53.519C126.37 51.072 126.421 47.0526 123.974 44.5428C119.165 39.61 113.52 35.6364 107.18 32.726C102.825 30.7411 98.3169 29.3357 93.7092 28.5073C97.6124 19.1642 106.883 12.6953 117.414 12.6953C131.566 12.6953 143.08 24.2074 143.08 38.357V116.181H123.318L106.477 99.3421C108.27 96.0699 109.226 92.3832 109.226 88.5485C109.226 82.5335 106.884 76.8784 102.629 72.6248C93.8488 63.846 79.5615 63.8454 70.7808 72.6248C66.5272 76.8784 64.1843 82.5335 64.1843 88.5479C64.1843 94.5623 66.5266 100.217 70.7808 104.471C75.1709 108.86 80.9377 111.055 86.7045 111.055C90.4243 111.055 94.1415 110.136 97.4924 108.31L116.2 127.016C117.554 128.228 119.05 128.848 120.689 128.875H143.079V156.142H103.3C100.551 146.815 91.9077 139.984 81.6937 139.984C69.2828 139.984 59.1862 150.08 59.1862 162.49C59.1862 174.909 69.2828 185.013 81.6937 185.013C91.9096 185.013 100.554 178.175 103.302 168.838H143.079V196.104H120.689C120.519 196.104 120.373 196.113 120.238 196.126C118.767 196.23 117.324 196.84 116.198 197.965L97.4898 216.686C88.9459 212.03 78.0013 213.307 70.7802 220.526C66.5222 224.784 64.1799 230.444 64.1837 236.464C64.1875 242.474 66.533 248.12 70.7802 252.356C75.1715 256.746 80.939 258.941 86.7064 258.941C92.4714 258.941 98.2363 256.747 102.622 252.362C106.875 248.12 109.221 242.475 109.225 236.464C109.227 232.624 108.271 228.932 106.475 225.655L123.318 208.8H143.078V286.642C143.079 300.793 131.566 312.305 117.414 312.305ZM96.5307 88.5492C96.5307 91.1727 95.5087 93.6394 93.6533 95.4948C89.8219 99.3256 83.5891 99.3256 79.7577 95.4948C77.9022 93.6394 76.8803 91.1727 76.8803 88.5492C76.8803 85.9257 77.9022 83.4584 79.7577 81.6036C83.5891 77.7734 89.8225 77.7734 93.6533 81.6036C95.5087 83.4584 96.5307 85.925 96.5307 88.5492ZM91.5237 162.491C91.5237 167.91 87.114 172.319 81.6937 172.319C76.2836 172.319 71.8815 167.91 71.8815 162.491C71.8815 157.082 76.2836 152.681 81.6937 152.681C87.114 152.681 91.5237 157.082 91.5237 162.491ZM96.5307 236.456C96.5288 239.072 95.5094 241.528 93.6533 243.379C89.8219 247.209 83.5885 247.209 79.7513 243.372C77.9016 241.528 76.8815 239.072 76.8803 236.456C76.8784 233.831 77.9003 231.363 79.7577 229.505C83.5885 225.676 89.8219 225.675 93.652 229.505C93.6527 229.505 93.6533 229.506 93.654 229.507L93.6546 229.508C95.5113 231.365 96.5326 233.832 96.5307 236.456ZM238.112 236.547L223.476 251.182H155.775V232.372H212.95C216.456 232.372 219.298 229.53 219.298 226.024V190.974C219.298 187.468 216.456 184.626 212.95 184.626C209.444 184.626 206.602 187.468 206.602 190.974V219.677H155.775V105.323H206.602V133.954C206.602 137.46 209.444 140.302 212.95 140.302C216.456 140.302 219.298 137.46 219.298 133.954V98.9758C219.298 95.47 216.456 92.6282 212.95 92.6282H155.775V73.7998H223.474L238.112 88.4508V236.547Z" fill="url(#paint0_linear)" stroke="#FFFCFC" stroke-width="8" mask="url(#path-1-inside-1)"/>
<defs>
<linearGradient id="paint0_linear" x1="140.601" y1="0" x2="140.601" y2="325" gradientUnits="userSpaceOnUse">
<stop stop-color="#FB5461"/>
<stop offset="1" stop-color="#FBD347" stop-opacity="0.25"/>
</linearGradient>
</defs>
</svg>
