<svg width="33" height="32" viewBox="0 0 33 32" fill="none" xmlns="http://www.w3.org/2000/svg">
<path d="M16.1284 30.7692H2.01668C3.65844 28.7193 4.54761 26.1836 4.53984 23.5739V1.23077H26.3102V13.0132C26.3102 13.1764 26.3761 13.333 26.4934 13.4484C26.6108 13.5638 26.7699 13.6286 26.9358 13.6286C27.1017 13.6286 27.2608 13.5638 27.3782 13.4484C27.4955 13.333 27.5614 13.1764 27.5614 13.0132V0.615385C27.5614 0.534565 27.5452 0.454534 27.5138 0.379862C27.4824 0.305191 27.4363 0.237343 27.3782 0.180195C27.3201 0.123047 27.2511 0.0777187 27.1752 0.0468002C27.0993 0.0158817 27.018 -2.12022e-05 26.9358 2.1215e-08H3.91424C3.83208 -2.12022e-05 3.75072 0.0158817 3.67481 0.0468002C3.5989 0.0777187 3.52993 0.123047 3.47183 0.180195C3.41374 0.237343 3.36766 0.305191 3.33622 0.379862C3.30479 0.454534 3.28863 0.534565 3.28865 0.615385V23.5739C3.2925 24.9442 3.02002 26.3017 2.48698 27.5677C1.95394 28.8337 1.17092 29.9832 0.18326 30.9495C0.0957616 31.0356 0.036172 31.1452 0.0120268 31.2646C-0.0121184 31.384 0.000265606 31.5077 0.0476126 31.6201C0.0949596 31.7326 0.175143 31.8287 0.278021 31.8963C0.380899 31.9639 0.501852 32 0.625581 32H16.1284C16.2943 32 16.4534 31.9352 16.5707 31.8198C16.688 31.7044 16.754 31.5478 16.754 31.3846C16.754 31.2214 16.688 31.0649 16.5707 30.9495C16.4534 30.8341 16.2943 30.7692 16.1284 30.7692Z" fill="white"/>
<path d="M22.6006 7.75122H8.24941C8.08349 7.75122 7.92436 7.81606 7.80704 7.93146C7.68972 8.04687 7.62381 8.20339 7.62381 8.36661C7.62381 8.52982 7.68972 8.68634 7.80704 8.80175C7.92436 8.91715 8.08349 8.98199 8.24941 8.98199H22.6006C22.7665 8.98199 22.9257 8.91715 23.043 8.80175C23.1603 8.68634 23.2262 8.52982 23.2262 8.36661C23.2262 8.20339 23.1603 8.04687 23.043 7.93146C22.9257 7.81606 22.7665 7.75122 22.6006 7.75122Z" fill="white"/>
<path d="M23.2262 12.536C23.2262 12.4552 23.2101 12.3752 23.1786 12.3005C23.1472 12.2258 23.1011 12.158 23.043 12.1008C22.9849 12.0437 22.916 11.9984 22.84 11.9675C22.7641 11.9365 22.6828 11.9206 22.6006 11.9207H8.24941C8.08349 11.9207 7.92436 11.9855 7.80704 12.1009C7.68972 12.2163 7.62381 12.3728 7.62381 12.536C7.62381 12.6993 7.68972 12.8558 7.80704 12.9712C7.92436 13.0866 8.08349 13.1514 8.24941 13.1514H22.6006C22.6828 13.1514 22.7641 13.1355 22.84 13.1046C22.916 13.0737 22.9849 13.0284 23.043 12.9712C23.1011 12.9141 23.1472 12.8462 23.1786 12.7716C23.2101 12.6969 23.2262 12.6169 23.2262 12.536Z" fill="white"/>
<path d="M16.9886 16.7055C16.9886 16.6247 16.9724 16.5447 16.941 16.47C16.9095 16.3953 16.8635 16.3275 16.8054 16.2703C16.7473 16.2132 16.6783 16.1679 16.6024 16.1369C16.5265 16.106 16.4451 16.0901 16.363 16.0901H8.24944C8.08352 16.0901 7.9244 16.155 7.80707 16.2704C7.68975 16.3858 7.62384 16.5423 7.62384 16.7055C7.62384 16.8687 7.68975 17.0253 7.80707 17.1407C7.9244 17.2561 8.08352 17.3209 8.24944 17.3209H16.363C16.4451 17.3209 16.5265 17.305 16.6024 17.2741C16.6783 17.2432 16.7473 17.1979 16.8054 17.1407C16.8635 17.0836 16.9095 17.0157 16.941 16.9411C16.9724 16.8664 16.9886 16.7864 16.9886 16.7055Z" fill="white"/>
<path d="M8.24944 20.2596C8.08352 20.2596 7.9244 20.3244 7.80707 20.4398C7.68975 20.5552 7.62384 20.7118 7.62384 20.875C7.62384 21.0382 7.68975 21.1947 7.80707 21.3101C7.9244 21.4255 8.08352 21.4904 8.24944 21.4904H13.3523C13.5182 21.4904 13.6773 21.4255 13.7946 21.3101C13.912 21.1947 13.9779 21.0382 13.9779 20.875C13.9779 20.7118 13.912 20.5552 13.7946 20.4398C13.6773 20.3244 13.5182 20.2596 13.3523 20.2596H8.24944Z" fill="white"/>
<path d="M30.6341 18.4201C29.5877 17.389 28.2733 16.6606 26.8346 16.3146C25.3958 15.9686 23.8881 16.0183 22.4761 16.4583C21.0641 16.8982 19.8023 17.7115 18.8284 18.8092C17.8546 19.9069 17.2062 21.2469 16.9541 22.6826L16.457 22.1935C16.3397 22.0781 16.1806 22.0133 16.0147 22.0133C15.8488 22.0133 15.6897 22.0781 15.5724 22.1935C15.4551 22.3089 15.3892 22.4654 15.3892 22.6286C15.3892 22.7918 15.4551 22.9483 15.5724 23.0637L17.012 24.4797C17.1296 24.5949 17.2888 24.6595 17.4547 24.6595C17.6206 24.6595 17.7798 24.5949 17.8974 24.4797L19.3373 23.0637C19.4546 22.9483 19.5205 22.7918 19.5205 22.6286C19.5205 22.4654 19.4546 22.3089 19.3373 22.1935C19.22 22.0781 19.0609 22.0133 18.895 22.0133C18.7291 22.0133 18.57 22.0781 18.4527 22.1935L18.3106 22.3332C18.6953 20.9025 19.5494 19.6367 20.7405 18.7325C21.9315 17.8282 23.3928 17.3362 24.8973 17.3327C26.4018 17.3292 27.8654 17.8145 29.0608 18.7132C30.2561 19.6119 31.1163 20.8737 31.5079 22.3027C31.8994 23.7317 31.8003 25.2478 31.2259 26.6157C30.6515 27.9836 29.6341 29.1266 28.3316 29.8673C27.029 30.608 25.5143 30.9049 24.0226 30.7119C22.531 30.5189 21.1458 29.8467 20.0823 28.7999C19.965 28.6845 19.8059 28.6197 19.64 28.6197C19.4741 28.6197 19.315 28.6845 19.1977 28.7999C19.0804 28.9153 19.0145 29.0718 19.0145 29.235C19.0145 29.3982 19.0804 29.5547 19.1977 29.6701C20.7146 31.1607 22.7711 31.9977 24.9152 31.9972C27.0593 31.9967 29.1154 31.1586 30.6315 29.6672C32.1476 28.1758 32.9995 26.1533 33 24.0442C33.0005 21.9351 32.1495 19.9121 30.6341 18.4201H30.6341Z" fill="white"/>
<path d="M23.6506 23.1473C23.6446 23.0801 23.6405 23.0123 23.6405 22.9436C23.6405 22.6832 23.686 22.4335 23.7663 22.1994C23.3306 22.1783 22.9817 21.8258 22.9817 21.3921C22.9817 20.9446 23.3517 20.5807 23.8066 20.5807C24.154 20.5807 24.4507 20.7939 24.572 21.0938C24.8274 20.9008 25.1232 20.7583 25.4454 20.6801C25.1671 20.0611 24.5387 19.6289 23.8066 19.6289C22.8167 19.6289 22.0143 20.4182 22.0143 21.3919C22.0143 22.3138 22.7339 23.0692 23.6506 23.1473Z" fill="white"/>
<path d="M20.9674 24.9957C21.3609 24.7635 21.8371 24.581 22.3485 24.4664C22.7014 24.6183 23.0767 24.7132 23.4589 24.7498C23.7205 24.659 23.9917 24.5815 24.2698 24.5214C24.0778 24.3164 23.9226 24.0777 23.8141 23.8157C23.8122 23.8157 23.8102 23.816 23.8083 23.816C23.3265 23.816 22.8751 23.6891 22.4837 23.47C21.5821 23.6215 20.7853 23.9455 20.1944 24.356C20.0801 24.4356 20.0071 24.56 19.9998 24.6976L20.0003 25.9968C19.987 26.249 20.1911 26.4606 20.4479 26.4606H21.626L21.6258 26.2493V26.2343L21.6266 26.2193C21.6413 25.9435 21.7684 25.6902 21.9789 25.509H20.9674V24.9957Z" fill="white"/>
<path d="M29.1926 25.8809C28.7096 25.5229 28.021 25.2376 27.2384 25.0752C26.871 25.2608 26.4559 25.3677 26.0152 25.3677C25.5334 25.3677 25.082 25.2408 24.6906 25.0217C23.789 25.1732 22.9922 25.4972 22.4013 25.9077C22.2869 25.9872 22.214 26.1117 22.2066 26.2493L22.2072 27.5485C22.1939 27.8007 22.398 28.0123 22.6548 28.0123H28.9265C29.1649 28.0123 29.3615 27.8288 29.3741 27.5945L29.3756 26.2381C29.3756 26.0969 29.3069 25.9657 29.1926 25.8809ZM28.407 27.0605H23.1743L23.1741 26.5472C23.5676 26.315 24.0438 26.1325 24.5551 26.0179C25.0151 26.2158 25.5131 26.3192 26.015 26.3192C26.4706 26.3192 26.9124 26.2373 27.333 26.0757C27.7432 26.1842 28.1162 26.334 28.4074 26.5068L28.407 27.0605Z" fill="white"/>
<path d="M24.221 22.9435C24.221 23.9172 25.0234 24.7064 26.0132 24.7064C27.0031 24.7064 27.8055 23.9172 27.8055 22.9435C27.8055 21.9698 27.0031 21.1805 26.0132 21.1805C25.0234 21.1805 24.221 21.9698 24.221 22.9435ZM26.0132 22.1321C26.4681 22.1321 26.8381 22.496 26.8381 22.9435C26.8381 23.3909 26.4681 23.7548 26.0132 23.7548C25.5584 23.7548 25.1884 23.3909 25.1884 22.9435C25.1884 22.496 25.5584 22.1321 26.0132 22.1321Z" fill="white"/>
</svg>
