<svg width="34" height="34" viewBox="0 0 34 34" fill="none" xmlns="http://www.w3.org/2000/svg">
<path d="M29.7567 25.5172C28.8938 25.5177 28.0521 25.7843 27.3464 26.2807L24.7665 23.634C26.3263 21.795 27.1824 19.4624 27.1824 17.0514C27.1824 14.6405 26.3263 12.3078 24.7665 10.4688L27.3974 7.85607C28.183 8.38136 29.1216 8.62941 30.0644 8.56089C31.0071 8.49237 31.8999 8.1112 32.6013 7.47783C33.3027 6.84446 33.7724 5.99516 33.9359 5.06464C34.0995 4.13411 33.9476 3.17564 33.5042 2.34124C33.0608 1.50684 32.3515 0.844285 31.4886 0.458665C30.6257 0.0730437 29.6587 -0.0135657 28.7409 0.212574C27.8232 0.438713 27.0073 0.964654 26.4226 1.70698C25.8379 2.4493 25.5179 3.3655 25.5133 4.31027C25.5183 5.14864 25.7659 5.96766 26.2262 6.66848L23.5953 9.26422C21.7579 7.71408 19.4311 6.86375 17.0267 6.86375C14.6223 6.86375 12.2954 7.71408 10.458 9.26422L7.81014 6.68545C8.40784 5.81012 8.65899 4.7441 8.51486 3.69416C8.37074 2.64422 7.84162 1.68521 7.03013 1.00314C6.21864 0.321075 5.18264 -0.0354283 4.12307 0.00278213C3.0635 0.0409926 2.05589 0.471194 1.29569 1.20994C0.535485 1.94869 0.0768796 2.94332 0.00882563 4.00091C-0.0592283 5.0585 0.26812 6.10366 0.927375 6.93366C1.58663 7.76366 2.5308 8.31934 3.57674 8.49291C4.62269 8.66648 5.69585 8.44558 6.58806 7.87304L9.25288 10.4688C7.69308 12.3078 6.83695 14.6405 6.83695 17.0514C6.83695 19.4624 7.69308 21.795 9.25288 23.634L6.72385 26.2976C6.01702 25.7888 5.1677 25.5158 4.29666 25.5172C3.45741 25.5172 2.63701 25.766 1.93919 26.232C1.24138 26.6981 0.697503 27.3605 0.376335 28.1355C0.0551669 28.9105 -0.0288652 29.7633 0.134865 30.5861C0.298595 31.4088 0.702733 32.1646 1.29617 32.7577C1.88961 33.3509 2.6457 33.7548 3.46883 33.9185C4.29196 34.0822 5.14515 33.9982 5.92052 33.6771C6.69588 33.3561 7.3586 32.8125 7.82487 32.115C8.29113 31.4175 8.54 30.5975 8.54 29.7586C8.53981 28.9717 8.31615 28.201 7.89501 27.5361L10.4919 24.8216C10.8355 25.1118 11.1984 25.3782 11.5782 25.619C13.1963 26.6486 15.0746 27.1956 16.9927 27.1956C18.9108 27.1956 20.7892 26.6486 22.4072 25.619C22.787 25.3782 23.1499 25.1118 23.4935 24.8216L26.1074 27.5192C25.7019 28.1946 25.4959 28.971 25.5133 29.7586C25.5133 30.5975 25.7622 31.4175 26.2285 32.115C26.6947 32.8125 27.3574 33.3561 28.1328 33.6771C28.9082 33.9982 29.7614 34.0822 30.5845 33.9185C31.4076 33.7548 32.1637 33.3509 32.7572 32.7577C33.3506 32.1646 33.7547 31.4088 33.9185 30.5861C34.0822 29.7633 33.9982 28.9105 33.677 28.1355C33.3558 27.3605 32.8119 26.6981 32.1141 26.232C31.4163 25.766 30.5959 25.5172 29.7567 25.5172ZM29.7567 1.76544C30.1761 1.75414 30.5918 1.84662 30.9668 2.03465C31.3418 2.22268 31.6645 2.50043 31.9062 2.8432C32.1479 3.18597 32.3012 3.58314 32.3523 3.99938C32.4034 4.41562 32.3508 4.83803 32.1991 5.22905C32.0475 5.62007 31.8016 5.96757 31.4832 6.24066C31.1648 6.51374 30.7838 6.70394 30.3741 6.79435C29.9644 6.88475 29.5387 6.87255 29.1349 6.75884C28.731 6.64513 28.3616 6.43342 28.0593 6.14255C27.603 5.69293 27.3359 5.08602 27.3125 4.446C27.2942 4.10897 27.3432 3.77167 27.4566 3.45375C27.57 3.13583 27.7456 2.84363 27.973 2.59417C28.2005 2.34471 28.4753 2.14297 28.7816 2.00069C29.0878 1.85842 29.4192 1.77845 29.7567 1.76544ZM1.75066 4.31027C1.75066 3.63534 2.0189 2.98805 2.49637 2.5108C2.97384 2.03355 3.62142 1.76544 4.29666 1.76544C4.9719 1.76544 5.61949 2.03355 6.09696 2.5108C6.57443 2.98805 6.84266 3.63534 6.84266 4.31027C6.84431 4.64869 6.7775 4.98394 6.64624 5.2959C6.51499 5.60785 6.322 5.89007 6.07886 6.12559C5.60226 6.59109 4.96302 6.85276 4.29666 6.85511C3.62142 6.85511 2.97384 6.58699 2.49637 6.10974C2.0189 5.63249 1.75066 4.9852 1.75066 4.31027ZM17.0267 8.55166C18.7135 8.55846 20.36 9.06755 21.756 10.0139C23.152 10.9603 24.2342 12.3011 24.8645 13.865C25.4947 15.4289 25.6444 17.1451 25.2944 18.7945C24.9444 20.4438 24.1106 21.9515 22.8994 23.1251C22.7522 21.7998 22.1529 20.5656 21.2021 19.6302C20.7665 19.2017 20.2686 18.8414 19.7254 18.5613C20.2043 18.1718 20.5901 17.6802 20.8544 17.1225C21.1187 16.5648 21.2549 15.955 21.253 15.3379C21.2561 14.6233 21.0786 13.9195 20.7368 13.2918C20.3951 12.6642 19.9002 12.133 19.2981 11.7476C18.6961 11.3622 18.0064 11.1352 17.2931 11.0874C16.5797 11.0397 15.8659 11.1729 15.2179 11.4747C14.5698 11.7765 14.0085 12.237 13.5861 12.8135C13.1638 13.3901 12.894 14.0639 12.8018 14.7726C12.7096 15.4812 12.7981 16.2016 13.059 16.867C13.3198 17.5323 13.7446 18.121 14.294 18.5783C13.4361 19.0231 12.701 19.6721 12.1534 20.468C11.6058 21.2639 11.2625 22.1822 11.1539 23.142C9.93681 21.9695 9.09777 20.4604 8.74433 18.8081C8.39088 17.1559 8.53912 15.4357 9.17006 13.8682C9.80099 12.3007 10.8859 10.9573 12.2856 10.01C13.6854 9.06282 15.3363 8.55499 17.0267 8.55166ZM14.4807 15.3379C14.4807 14.8346 14.63 14.3425 14.9097 13.9241C15.1895 13.5056 15.5871 13.1794 16.0524 12.9868C16.5176 12.7942 17.0295 12.7438 17.5234 12.8419C18.0172 12.9401 18.4709 13.1825 18.827 13.5384C19.183 13.8943 19.4255 14.3478 19.5237 14.8414C19.622 15.3351 19.5716 15.8467 19.3789 16.3118C19.1862 16.7768 18.8598 17.1742 18.4411 17.4538C18.0225 17.7335 17.5302 17.8827 17.0267 17.8827C16.3514 17.8827 15.7038 17.6146 15.2264 17.1374C14.7489 16.6601 14.4807 16.0128 14.4807 15.3379ZM4.29666 32.3034C3.62142 32.3034 2.97384 32.0353 2.49637 31.5581C2.0189 31.0808 1.75066 30.4335 1.75066 29.7586C1.75066 29.0837 2.0189 28.4364 2.49637 27.9591C2.97384 27.4819 3.62142 27.2138 4.29666 27.2138C4.64086 27.2121 4.98163 27.2822 5.29724 27.4195C5.61285 27.5568 5.89639 27.7583 6.12978 28.0112C6.55628 28.472 6.78747 29.0801 6.77477 29.7077C6.78846 30.3798 6.53553 31.03 6.07123 31.5164C5.60693 32.0027 4.96897 32.2857 4.29666 32.3034ZM12.7833 24.3296V23.8207C12.7833 22.6958 13.2304 21.617 14.0262 20.8216C14.822 20.0261 15.9013 19.5793 17.0267 19.5793C18.1521 19.5793 19.2314 20.0261 20.0272 20.8216C20.8229 21.617 21.27 22.6958 21.27 23.8207V24.3296C19.9913 25.1072 18.5234 25.5185 17.0267 25.5185C15.5299 25.5185 14.062 25.1072 12.7833 24.3296ZM29.7567 32.3034C29.2649 32.3086 28.7824 32.1703 28.3681 31.9055C27.9537 31.6407 27.6256 31.261 27.4239 30.8127C27.2222 30.3644 27.1556 29.8671 27.2323 29.3815C27.309 28.896 27.5256 28.4434 27.8556 28.079V27.9942C28.0996 27.7375 28.395 27.5353 28.7227 27.4008C29.0503 27.2663 29.4027 27.2026 29.7567 27.2138C30.4319 27.2138 31.0795 27.4819 31.557 27.9591C32.0344 28.4364 32.3027 29.0837 32.3027 29.7586C32.3027 30.4335 32.0344 31.0808 31.557 31.5581C31.0795 32.0353 30.4319 32.3034 29.7567 32.3034Z" fill="white"/>
</svg>
