<svg width="33" height="29" viewBox="0 0 33 29" fill="none" xmlns="http://www.w3.org/2000/svg">
<path d="M16.1513 6.32912C17.903 6.32912 19.3247 4.91139 19.3247 3.16456C19.3247 1.41772 17.903 0 16.1513 0C14.3995 0 12.9778 1.41772 12.9778 3.16456C12.9778 4.89874 14.3995 6.32912 16.1513 6.32912ZM16.1513 1.29114C17.1794 1.29114 18.0299 2.12658 18.0299 3.16456C18.0299 4.18988 17.1921 5.03798 16.1513 5.03798C15.1231 5.03798 14.2726 4.20253 14.2726 3.16456C14.2853 2.12658 15.1231 1.29114 16.1513 1.29114Z" fill="white"/>
<path d="M9.2459 18.6202C8.97933 18.6835 8.77624 18.924 8.76354 19.2025L8.28118 26.6075C8.26849 26.8987 8.02731 27.1139 7.73535 27.1139H4.05418C3.76223 27.1139 3.52105 26.886 3.50835 26.6075L3.0133 19.2151C3.00061 18.9493 2.8102 18.7215 2.55633 18.6455C2.4167 18.6075 2.0105 18.481 1.94703 18.405C1.89626 18.3291 1.87087 17.9113 1.85817 17.6962L1.4139 9.86071C2.04858 9.67084 3.08946 9.34172 3.63529 9.16451L5.45049 10.8607C5.70436 11.0886 6.08517 11.0886 6.33905 10.8607L8.15424 9.16451C8.33196 9.21514 8.54775 9.29109 8.78893 9.36704C9.13166 9.48096 9.49978 9.29109 9.60133 8.94932C9.71557 8.60755 9.52516 8.24046 9.18243 8.13919C8.63661 7.96198 8.19233 7.82273 8.19233 7.82273C7.96384 7.74679 7.72266 7.81008 7.54495 7.96198L5.89477 9.50628L4.24459 7.96198C4.06688 7.79742 3.8257 7.74679 3.59721 7.82273C3.59721 7.82273 1.85817 8.3797 0.98231 8.64552C0.436481 8.81008 0.106445 9.24046 0.106445 9.81008C0.106445 9.84805 0.106445 9.94932 0.106445 9.94932L0.538031 17.6708C0.538031 17.6708 0.538031 17.7848 0.550724 17.8101C0.626887 18.9493 0.791905 19.367 1.74393 19.7341L2.2009 26.6962C2.26437 27.6582 3.07677 28.4177 4.04149 28.4177H7.72266C8.68738 28.4177 9.49978 27.6582 9.56324 26.6962L10.0329 19.481C10.0837 19.3544 10.0837 19.2025 10.0456 19.0632C9.95675 18.7215 9.58863 18.5316 9.2459 18.6202Z" fill="white"/>
<path d="M5.88207 6.77223C7.6338 6.77223 9.0555 5.35451 9.0555 3.60767C9.0555 1.86084 7.6338 0.443115 5.88207 0.443115C4.13034 0.443115 2.70865 1.86084 2.70865 3.60767C2.70865 5.35451 4.14304 6.77223 5.88207 6.77223ZM5.88207 1.74691C6.91026 1.74691 7.76074 2.58236 7.76074 3.62033C7.76074 4.6583 6.92296 5.49375 5.88207 5.49375C4.85388 5.49375 4.00341 4.6583 4.00341 3.62033C4.00341 2.58236 4.85388 1.74691 5.88207 1.74691Z" fill="white"/>
<path d="M21.0637 8.62019C20.1879 8.35437 18.4488 7.79741 18.4488 7.79741C18.2203 7.72146 17.9792 7.78475 17.8014 7.93665L16.1513 9.48095L14.5011 7.93665C14.3234 7.77209 14.0822 7.72146 13.8537 7.79741C13.8537 7.79741 12.1147 8.35437 11.2388 8.62019C10.6803 8.78475 10.3629 9.21513 10.3629 9.78475L10.7945 17.6708L10.8072 17.7974C10.8834 18.9366 11.0484 19.367 12.0004 19.7215L12.4574 26.6835C12.5209 27.6455 13.3333 28.405 14.298 28.405H17.9919C18.9566 28.405 19.769 27.6455 19.8324 26.6835L20.2894 19.7215C21.2414 19.3544 21.4065 18.924 21.4826 17.7974L21.9269 9.89867V9.78475C21.9396 9.20247 21.6222 8.78475 21.0637 8.62019ZM20.2006 17.5696L20.1879 17.6961C20.1752 17.8987 20.1498 18.3037 20.099 18.3797C20.0355 18.4556 19.6166 18.5822 19.477 18.6202C19.2231 18.6961 19.0327 18.924 19.02 19.2025L18.5377 26.5949C18.525 26.886 18.2838 27.1012 17.9919 27.1012H14.298C14.006 27.1012 13.7775 26.8734 13.7522 26.5949L13.2698 19.2025C13.2571 18.9367 13.0667 18.7088 12.8128 18.6202C12.6732 18.5822 12.267 18.4556 12.2035 18.3797C12.1528 18.3037 12.1274 17.886 12.1147 17.6961L11.6704 9.8607V9.82272C12.3051 9.63285 13.346 9.30374 13.8918 9.12652L15.707 10.8227C15.9609 11.0506 16.3417 11.0506 16.5955 10.8227L18.4107 9.13918C18.9566 9.31639 19.9975 9.64551 20.6321 9.83538L20.2006 17.5696Z" fill="white"/>
<path d="M31.3329 8.62019C30.457 8.35437 28.718 7.79741 28.718 7.79741C28.4895 7.72146 28.2483 7.78475 28.0706 7.93665L26.4205 9.48095L24.7703 7.93665C24.5926 7.77209 24.3514 7.72146 24.1229 7.79741C24.1229 7.79741 23.6786 7.93665 23.1328 8.11386C22.7901 8.22779 22.5997 8.58222 22.7139 8.92399C22.8281 9.26576 23.1836 9.45563 23.5263 9.34171C23.7675 9.26576 23.9833 9.18981 24.161 9.13918L25.9762 10.8354C26.23 11.0632 26.6109 11.0632 26.8647 10.8354L28.6799 9.13918C29.2258 9.31639 30.2539 9.63285 30.9013 9.83538L30.4697 17.5696L30.457 17.6961C30.4444 17.8987 30.419 18.3037 30.3682 18.3797C30.3047 18.4556 29.8858 18.5822 29.7462 18.6202C29.4923 18.6961 29.3019 18.924 29.2892 19.2025L28.8069 26.5949C28.7815 26.886 28.5403 27.1012 28.261 27.1012H24.5672C24.2879 27.1012 24.0467 26.8734 24.0213 26.5949L23.5263 19.2025C23.5136 18.9367 23.2978 18.7088 23.0439 18.6202C22.7012 18.5063 22.3585 18.6961 22.2442 19.0379C22.2061 19.1645 22.2061 19.3037 22.2442 19.4177L22.7266 26.6835C22.7901 27.6455 23.5898 28.405 24.5672 28.405H28.261C29.2258 28.405 30.0382 27.6455 30.1016 26.6835L30.5586 19.7215C31.5106 19.3544 31.6756 18.9367 31.7518 17.8101C31.7518 17.7594 31.7645 17.6455 31.7645 17.6455L32.1961 9.88601V9.77209C32.1961 9.21513 31.8787 8.78475 31.3329 8.62019Z" fill="white"/>
<path d="M26.4205 6.77223C28.1722 6.77223 29.5939 5.35451 29.5939 3.60767C29.5939 1.86084 28.1722 0.443115 26.4205 0.443115C24.6687 0.443115 23.247 1.86084 23.247 3.60767C23.247 5.35451 24.6687 6.77223 26.4205 6.77223ZM26.4205 1.74691C27.4487 1.74691 28.2991 2.58236 28.2991 3.62033C28.2991 4.6583 27.4613 5.49375 26.4205 5.49375C25.3923 5.49375 24.5418 4.6583 24.5418 3.62033C24.5418 2.58236 25.3796 1.74691 26.4205 1.74691Z" fill="white"/>
</svg>
