<svg width="70" height="70" viewBox="0 0 70 70" fill="none" xmlns="http://www.w3.org/2000/svg">
<path d="M69.5994 12.8401L57.158 0.400449C56.9017 0.144102 56.554 0 56.1914 0H15.5859C13.3243 0 11.4844 1.83996 11.4844 4.10156V6.70797C4.76807 9.34254 0 15.8888 0 23.5281C0 24.283 0.612227 24.8953 1.36719 24.8953H18.0593C18.8143 24.8953 19.4265 24.283 19.4265 23.5281V6.83594C19.4265 6.08098 18.8143 5.46875 18.0593 5.46875C16.7416 5.46875 15.457 5.61189 14.2188 5.88123V4.10156C14.2188 3.3477 14.8321 2.73438 15.5859 2.73438H54.8242V11.0742C54.8242 13.3358 56.6642 15.1758 58.9258 15.1758H67.2656V65.8984C67.2656 66.6523 66.6523 67.2656 65.8984 67.2656H15.5859C14.8321 67.2656 14.2188 66.6523 14.2188 65.8984V54.1862C14.2188 53.4312 13.6065 52.819 12.8516 52.819C12.0966 52.819 11.4844 53.4312 11.4844 54.1862V65.8984C11.4844 68.16 13.3243 70 15.5859 70H65.8984C68.16 70 70 68.16 70 65.8984V13.8068C70 13.4442 69.8559 13.0964 69.5994 12.8401ZM16.692 8.26369V22.1609H2.7948C3.44846 14.7988 9.3301 8.91734 16.692 8.26369ZM58.9258 12.4414C58.1719 12.4414 57.5586 11.8281 57.5586 11.0742V4.66758L65.3335 12.4414H58.9258Z" fill="black"/>
<path d="M22.9563 10.3662C22.2013 10.3662 21.5891 10.9784 21.5891 11.7334V27.0582H6.26428C5.50932 27.0582 4.89709 27.6704 4.89709 28.4254C4.89709 38.3833 12.9984 46.4847 22.9563 46.4847C32.9142 46.4847 41.0156 38.3833 41.0156 28.4254C41.0156 18.4675 32.9142 10.3662 22.9563 10.3662ZM24.3235 13.1612C27.524 13.4453 30.4445 14.7181 32.7776 16.6707L24.3235 25.1247V13.1612ZM22.9563 43.7503C14.9668 43.7503 8.38561 37.605 7.69204 29.7926H22.9563C23.3336 29.7926 23.6751 29.6397 23.9226 29.3925C23.9227 29.3924 23.9229 29.3924 23.9231 29.3921L34.7115 18.6039C36.9388 21.2654 38.2812 24.6916 38.2812 28.4254C38.2812 36.8756 31.4065 43.7503 22.9563 43.7503Z" fill="black"/>
<path d="M59.8927 43.1489C57.6311 43.1489 55.7912 44.9889 55.7912 47.2505C55.7912 47.8173 55.9068 48.3575 56.1156 48.849L48.2388 56.7258C47.6975 56.4621 47.09 56.3137 46.4485 56.3137C45.8222 56.3137 45.2285 56.4554 44.6971 56.7073L39.4665 51.4767C39.6478 51.0141 39.7484 50.5111 39.7484 49.9847C39.7484 47.7231 37.9085 45.8832 35.6469 45.8832C33.3853 45.8832 31.5453 47.7231 31.5453 49.9847C31.5453 50.5975 31.6814 51.1788 31.9233 51.7015L26.9065 56.7184C26.372 56.4627 25.774 56.3193 25.1432 56.3193C22.8816 56.3193 21.0416 58.1593 21.0416 60.4209C21.0416 62.6825 22.8816 64.5224 25.1432 64.5224C27.4048 64.5224 29.2448 62.6825 29.2448 60.4209C29.2448 59.7869 29.1001 59.1862 28.8423 58.6498L33.8311 53.661C34.379 53.9328 34.9953 54.0863 35.6472 54.0863C36.3834 54.0863 37.0742 53.8904 37.6721 53.5494L42.7552 58.6325C42.4938 59.1718 42.3469 59.7767 42.3469 60.4153C42.3469 62.6769 44.1869 64.5168 46.4485 64.5168C48.7101 64.5168 50.55 62.6769 50.55 60.4153C50.55 59.7921 50.4098 59.2012 50.16 58.6718L57.9632 50.8686C58.5387 51.1768 59.1956 51.3521 59.8927 51.3521C62.1543 51.3521 63.9943 49.5121 63.9943 47.2505C63.9943 44.9889 62.1543 43.1489 59.8927 43.1489ZM25.1431 61.7882C24.3892 61.7882 23.7759 61.1749 23.7759 60.421C23.7759 59.6671 24.3892 59.0538 25.1431 59.0538C25.5101 59.0538 25.8431 59.2 26.0889 59.4362C26.0943 59.442 26.0991 59.4481 26.1047 59.4537C26.1113 59.4603 26.1184 59.4658 26.1251 59.4721C26.363 59.7181 26.5102 60.0526 26.5102 60.421C26.5102 61.1747 25.8969 61.7882 25.1431 61.7882ZM35.6469 51.3519C34.893 51.3519 34.2797 50.7386 34.2797 49.9847C34.2797 49.2309 34.893 48.6175 35.6469 48.6175C36.4007 48.6175 37.0141 49.2309 37.0141 49.9847C37.0141 50.7386 36.4007 51.3519 35.6469 51.3519ZM46.4482 61.7825C45.6943 61.7825 45.081 61.1691 45.081 60.4153C45.081 59.6614 45.6943 59.0481 46.4482 59.0481C47.2021 59.0481 47.8154 59.6614 47.8154 60.4153C47.8154 61.1691 47.2021 61.7825 46.4482 61.7825ZM59.8924 48.6175C59.1386 48.6175 58.5253 48.0042 58.5253 47.2504C58.5253 46.4965 59.1387 45.8832 59.8924 45.8832C60.6463 45.8832 61.2596 46.4965 61.2596 47.2504C61.2596 48.0042 60.6463 48.6175 59.8924 48.6175Z" fill="#D64356"/>
<path d="M53.0591 32.1289H45.8433C45.0883 32.1289 44.4761 32.7411 44.4761 33.4961C44.4761 34.2511 45.0882 34.8633 45.8433 34.8633H53.0591C53.8141 34.8633 54.4263 34.2511 54.4263 33.4961C54.4263 32.7411 53.8141 32.1289 53.0591 32.1289Z" fill="black"/>
<path d="M62.544 19.0039H45.8433C45.0883 19.0039 44.4761 19.6161 44.4761 20.3711C44.4761 21.1261 45.0882 21.7383 45.8433 21.7383H62.544C63.299 21.7383 63.9112 21.1261 63.9112 20.3711C63.9112 19.6161 63.299 19.0039 62.544 19.0039Z" fill="black"/>
<path d="M62.544 25.5664H45.8433C45.0883 25.5664 44.4761 26.1786 44.4761 26.9336C44.4761 27.6886 45.0882 28.3008 45.8433 28.3008H62.544C63.299 28.3008 63.9112 27.6886 63.9112 26.9336C63.9112 26.1786 63.299 25.5664 62.544 25.5664Z" fill="black"/>
</svg>
