<svg width="70" height="70" viewBox="0 0 70 70" fill="none" xmlns="http://www.w3.org/2000/svg">
<g clip-path="url(#clip0)">
<path d="M68.8339 3.05442e-08C68.8338 3.05442e-08 68.8335 3.05442e-08 68.8333 3.05442e-08H1.16667C0.522521 -0.000145803 0.000145833 0.521938 0 1.16608C0 1.16623 0 1.16652 0 1.16667V24.5H2.33333V2.33333H67.6667V28H26.8333V30.3333H68.8333C69.4775 30.3335 69.9999 29.8114 70 29.1673C70 29.1671 70 29.1668 70 29.1667V1.16667C70.0001 0.522521 69.4781 0.000145864 68.8339 3.05442e-08Z" fill="black"/>
<path d="M61.8333 5.83325H38.5V8.16659H61.8333V5.83325Z" fill="#D64356"/>
<path d="M65.3333 12.8333H42V15.1666H65.3333V12.8333Z" fill="#D64356"/>
<path d="M60.6667 19.8333H37.3334V22.1666H60.6667V19.8333Z" fill="#D64356"/>
<path d="M37.2403 10.0588C36.4416 8.13889 34.2377 7.23006 32.318 8.02879C32.2852 8.0425 32.2525 8.0565 32.2201 8.07108L22.7602 12.9784C23.1333 12.2052 23.3291 11.3585 23.3333 10.5001C23.3333 7.27848 20.7216 4.66675 17.5 4.66675C14.2784 4.66675 11.6667 7.27848 11.6667 10.5001C11.671 11.7664 12.0915 12.9962 12.8632 14.0001H12.8147C9.50308 14.0222 6.5469 16.081 5.37775 19.1795L2.26333 29.9141C1.52192 31.84 2.48208 34.0024 4.4081 34.7439C5.28631 35.0819 6.25975 35.0762 7.13402 34.7278C8.13852 34.3231 8.92019 33.5059 9.27996 32.4845L10.5 28.6016V45.4867C9.49608 44.7151 8.26627 44.2946 7 44.2901C3.78321 44.2853 1.17148 46.8891 1.16667 50.1061C1.16433 51.6815 1.80017 53.1906 2.92935 54.2893C1.13735 55.2049 0.00700003 57.0447 3.05442e-08 59.0569V68.8334C-0.000145803 69.4776 0.521938 69.9999 1.16608 70.0001C1.16623 70.0001 1.16652 70.0001 1.16667 70.0001H12.8333C13.4775 70.0002 13.9999 69.4781 14 68.834C14 68.8339 14 68.8336 14 68.8334V59.0569C13.9943 57.4033 13.2261 55.8449 11.9181 54.8334H20.7487C19.4406 55.8449 18.6724 57.4033 18.6668 59.0569V68.8334C18.6667 69.4776 19.1888 69.9999 19.8329 70.0001C19.833 70.0001 19.8333 70.0001 19.8335 70.0001H31.5001C32.1443 70.0002 32.6667 69.4781 32.6668 68.834C32.6668 68.8339 32.6668 68.8336 32.6668 68.8334V59.0569C32.6598 57.0447 31.5295 55.2049 29.7375 54.2893C32.0409 52.041 32.0857 48.351 29.8374 46.0475C28.4528 44.629 26.4422 44.0114 24.5001 44.4081V20.542L35.2103 14.981C37.13 14.1824 38.0389 11.9785 37.2403 10.0588ZM17.5 7.00008C19.433 7.00008 21 8.56706 21 10.5001C21 12.4331 19.433 14.0001 17.5 14.0001C15.5679 13.998 14.002 12.4322 14 10.5001C14 8.56706 15.567 7.00008 17.5 7.00008ZM7 46.6234C8.93302 46.6234 10.5 48.1904 10.5 50.1234C10.5 52.0565 8.93302 53.6234 7 53.6234C5.06698 53.6234 3.5 52.0565 3.5 50.1234C3.50204 48.1913 5.06785 46.6256 7 46.6234ZM11.6667 67.6668H2.33333V59.0569C2.33567 57.3695 3.70315 56.0021 5.39073 56.0001H8.60927C10.2967 56.0021 11.6643 57.3695 11.6667 59.0569V67.6668ZM30.3333 59.0569V67.6668H21V59.0569C21.0023 57.3695 22.3698 56.0021 24.0574 56.0001H27.2759C28.9635 56.0021 30.331 57.3695 30.3333 59.0569ZM25.6667 46.6234C27.5988 46.6255 29.1646 48.1913 29.1667 50.1234C29.1667 52.0565 27.5997 53.6234 25.6667 53.6234C23.7336 53.6234 22.1667 52.0565 22.1667 50.1234C22.1667 48.1904 23.7336 46.6234 25.6667 46.6234ZM35.1054 12.0051C34.9493 12.4058 34.6286 12.7204 34.2248 12.8687L22.7962 18.7977C22.4095 18.9984 22.1667 19.3978 22.1667 19.8334V45.4867C19.9814 47.1025 19.2243 50.0269 20.3513 52.5001H18.6667V32.6667H16.3333V52.5001H12.3153C12.6473 51.7665 12.8221 50.9718 12.829 50.1668H12.8333V21.0001C12.8332 20.3556 12.3107 19.8334 11.6664 19.8336C11.157 19.8337 10.7065 20.1643 10.5537 20.6504L7.07 31.7359C6.80604 32.4639 6.00177 32.8401 5.27377 32.576C5.22273 32.5575 5.17271 32.5361 5.124 32.5117C4.45098 32.1639 4.16529 31.3519 4.47242 30.6592L7.58669 19.9246C8.42654 17.7677 10.4999 16.3435 12.8145 16.3334H21.0753C21.2622 16.3337 21.4465 16.2886 21.6125 16.2025L33.208 10.1835C33.9036 9.89327 34.7054 10.1902 35.044 10.8636C35.2236 11.2186 35.2459 11.6328 35.1054 12.0051Z" fill="black"/>
<path d="M48.404 54.2894C50.7115 52.0412 50.7597 48.348 48.5115 46.0405C46.2633 43.7329 42.5701 43.6848 40.2626 45.933C37.9551 48.1811 37.9069 51.8744 40.1551 54.1819C40.1905 54.2182 40.2264 54.2541 40.2627 54.2894C38.4709 55.2049 37.3404 57.0447 37.3334 59.057V68.8335C37.3332 69.4776 37.8553 70 38.4995 70.0001C38.4996 70.0001 38.4999 70.0001 38.5 70.0001H50.1667C50.8109 70.0003 51.3332 69.4782 51.3334 68.8341C51.3334 68.8339 51.3334 68.8336 51.3334 68.8335V59.057C51.3264 57.0447 50.196 55.2049 48.404 54.2894ZM44.3334 46.6235C46.2664 46.6235 47.8334 48.1905 47.8334 50.1235C47.8334 52.0565 46.2664 53.6235 44.3334 53.6235C42.4004 53.6235 40.8334 52.0565 40.8334 50.1235C40.8354 48.1913 42.4012 46.6257 44.3334 46.6235ZM49 67.6668H39.6667V59.057C39.669 57.3695 41.0365 56.0022 42.7241 56.0001H45.9426C47.6301 56.0022 48.9977 57.3695 49 59.057V67.6668Z" fill="black"/>
<path d="M67.0706 54.2894C69.3782 52.0412 69.4263 48.348 67.1781 46.0405C64.93 43.7329 61.2367 43.6848 58.9292 45.933C56.6217 48.1811 56.5736 51.8744 58.8217 54.1819C58.8572 54.2182 58.893 54.2541 58.9294 54.2894C57.1375 55.2049 56.007 57.0447 56 59.057V68.8335C55.9999 69.4776 56.5219 70 57.1661 70.0001C57.1662 70.0001 57.1665 70.0001 57.1667 70.0001H68.8333C69.4775 70.0003 69.9999 69.4782 70 68.8341C70 68.8339 70 68.8336 70 68.8335V59.057C69.993 57.0447 68.8626 55.2049 67.0706 54.2894ZM63 46.6235C64.933 46.6235 66.5 48.1905 66.5 50.1235C66.5 52.0565 64.933 53.6235 63 53.6235C61.067 53.6235 59.5 52.0565 59.5 50.1235C59.502 48.1913 61.0679 46.6257 63 46.6235ZM67.6667 67.6668H58.3333V59.057C58.3357 57.3695 59.7031 56.0022 61.3907 56.0001H64.6093C66.2967 56.0022 67.6643 57.3695 67.6667 59.057V67.6668Z" fill="black"/>
</g>
<defs>
<clipPath id="clip0">
<rect width="70" height="70" fill="white"/>
</clipPath>
</defs>
</svg>
