<svg width="68" height="80" viewBox="0 0 68 80" fill="none" xmlns="http://www.w3.org/2000/svg">
<path d="M60.6452 72.2581V50.3226C60.6452 46.7652 57.751 43.871 54.1935 43.871H51.6129V40.2039C51.6129 38.6181 51.1703 37.1071 50.4168 35.7768C52.1135 35.3677 53.4013 34.7406 53.48 34.7019L55.2826 33.8L53.7084 32.5394C47.8452 27.8503 47.7419 20.7135 47.7419 20.6413H47.6761C47.7148 20.2168 47.7419 19.7897 47.7419 19.3548V10.3226C47.7419 6.76516 44.8477 3.87097 41.2903 3.87097H40.6903L40.0258 2.87355C38.8258 1.07355 36.8194 0 34.6568 0H30.9677C24.5639 0 19.3548 5.20903 19.3548 11.6129V19.3548C19.3548 19.791 19.3819 20.2194 19.4206 20.6452H19.3548C19.3548 20.7174 19.2865 27.8219 13.3871 32.5406L11.8129 33.8013L13.6155 34.7032C13.6942 34.7419 14.9819 35.3677 16.6787 35.7781C15.9265 37.1071 15.4839 38.6181 15.4839 40.2039V43.871H12.9032C9.34581 43.871 6.45161 46.7652 6.45161 50.3226V72.2581H0V76.129C0 78.2632 1.73677 80 3.87097 80H63.2258C65.36 80 67.0968 78.2632 67.0968 76.129V72.2581H60.6452ZM40.5342 43.871L42.8606 41.5445L41.8194 39.4632L45.5768 38.2103L43.8013 33.7716L44.8465 34.1639C47.3497 35.1019 49.0323 37.529 49.0323 40.2039V43.871H40.5342ZM30.2116 43.871L27.3768 41.0361L28.9161 37.9561L24.9316 36.6284L26.5652 32.5458L27.4658 32.2077L31.7071 43.871H30.2116ZM45.1613 19.3548H42.3432C41.809 17.8568 40.3897 16.7742 38.7097 16.7742C37.0297 16.7742 35.6103 17.8568 35.0761 19.3548H32.0194C31.4852 17.8568 30.0658 16.7742 28.3858 16.7742C26.7058 16.7742 25.2865 17.8568 24.7523 19.3548H21.9355V17.5716L23.6594 16.7097C25.2632 15.9071 27.0594 15.4839 28.8516 15.4839H33.7845C35.5742 15.4839 37.3058 14.96 38.7948 13.9665L39.8529 13.2606C41.3406 14.5613 43.1897 15.3213 45.16 15.4555V19.3548H45.1613ZM40 20.6452C40 21.3574 39.4219 21.9355 38.7097 21.9355C37.9974 21.9355 37.4194 21.3574 37.4194 20.6452C37.4194 19.9329 37.9974 19.3548 38.7097 19.3548C39.4219 19.3548 40 19.9329 40 20.6452ZM29.6774 20.6452C29.6774 21.3574 29.0994 21.9355 28.3871 21.9355C27.6748 21.9355 27.0968 21.3574 27.0968 20.6452C27.0968 19.9329 27.6748 19.3548 28.3871 19.3548C29.0994 19.3548 29.6774 19.9329 29.6774 20.6452ZM24.7535 21.9355C25.2877 23.4335 26.7071 24.5161 28.3871 24.5161C30.0671 24.5161 31.4865 23.4335 32.0206 21.9355H35.0774C35.6116 23.4335 37.031 24.5161 38.711 24.5161C40.391 24.5161 41.8103 23.4335 42.3445 21.9355H44.8645C43.6865 27.0994 39.0658 30.9677 33.551 30.9677C28.0361 30.9677 23.4155 27.0994 22.2374 21.9355H24.7535ZM36.5135 33.231L33.5484 41.3871L30.5832 33.2323C31.5406 33.4361 32.5316 33.5484 33.5484 33.5484C34.5652 33.5484 35.5561 33.4361 36.5135 33.231ZM39.631 32.2077L40.5316 32.5458L42.1652 36.6284L38.1806 37.9561L39.72 41.0361L36.8852 43.871H35.3897L39.631 32.2077ZM50.48 33.0955C49.911 33.2671 49.2555 33.4181 48.5819 33.4942C47.7626 32.7574 46.8194 32.1458 45.7523 31.7458L42.5045 30.5277L42.489 30.4877L42.4452 30.5045L42.3484 30.4684C43.9084 29.231 45.2026 27.6748 46.1316 25.8955C46.8723 28.1277 48.1768 30.7497 50.48 33.0955ZM30.9677 2.58065H34.6568C35.9535 2.58065 37.1574 3.22452 37.8774 4.30452L39.3097 6.45161H41.2903C43.4245 6.45161 45.1613 8.18839 45.1613 10.3226V12.8426C43.6761 12.6994 42.2929 12.0813 41.2245 11.0142L40.1639 9.95355L37.3639 11.8206C36.3006 12.529 35.0632 12.9032 33.7858 12.9032H28.8516C26.6606 12.9032 24.4658 13.4206 22.5045 14.4013L21.9355 14.6865V11.6129C21.9355 6.63355 25.9884 2.58065 30.9677 2.58065ZM20.9652 25.8968C21.8942 27.6761 23.1871 29.231 24.7484 30.4697L24.6516 30.5058L24.6077 30.489L24.5923 30.529L21.3458 31.7471C20.2787 32.1471 19.3355 32.7587 18.5148 33.4955C17.8413 33.4194 17.1845 33.2684 16.6168 33.0968C18.92 30.7497 20.2245 28.1277 20.9652 25.8968ZM18.0645 40.2039C18.0645 37.529 19.7471 35.1019 22.2516 34.1626L23.2942 33.7716L21.5187 38.2103L25.2761 39.4632L24.2348 41.5445L26.5626 43.871H18.0645V40.2039ZM9.03226 50.3226C9.03226 48.1884 10.769 46.4516 12.9032 46.4516H54.1935C56.3277 46.4516 58.0645 48.1884 58.0645 50.3226V72.2581H9.03226V50.3226ZM64.5161 76.129C64.5161 76.8413 63.9381 77.4193 63.2258 77.4193H3.87097C3.15871 77.4193 2.58065 76.8413 2.58065 76.129V74.8387H64.5161V76.129Z" fill="#1A1A1A"/>
<path d="M33.5484 54.1935C29.991 54.1935 27.0968 57.0877 27.0968 60.6452C27.0968 64.2026 29.991 67.0968 33.5484 67.0968C37.1058 67.0968 40 64.2026 40 60.6452C40 57.0877 37.1058 54.1935 33.5484 54.1935ZM33.5484 64.5161C31.4142 64.5161 29.6774 62.7793 29.6774 60.6452C29.6774 58.511 31.4142 56.7742 33.5484 56.7742C35.6826 56.7742 37.4194 58.511 37.4194 60.6452C37.4194 62.7793 35.6826 64.5161 33.5484 64.5161Z" fill="#CC4051"/>
</svg>
