<svg width="70" height="70" viewBox="0 0 70 70" fill="none" xmlns="http://www.w3.org/2000/svg">
<path d="M62.6353 55.9358C63.3516 54.9081 63.7732 53.6604 63.7732 52.3155V51.0701C63.7732 47.5698 60.9254 44.7219 57.425 44.7219C53.9246 44.7219 51.0768 47.5698 51.0768 51.0701V52.3155C51.0768 53.6604 51.4983 54.9081 52.2147 55.9358C49.7343 56.0098 47.5498 57.2779 46.2168 59.1851C44.884 57.2779 42.6995 56.0099 40.219 55.9358C40.9353 54.9081 41.3569 53.6604 41.3569 52.3155V51.0701C41.3569 47.5698 38.509 44.7219 35.0087 44.7219C31.5083 44.7219 28.6605 47.5698 28.6605 51.0701V52.3155C28.6605 53.6604 29.082 54.9081 29.7984 55.9358C27.3125 56.0099 25.1239 57.2833 23.7919 59.1973C22.4599 57.2833 20.2712 56.01 17.7854 55.9358C18.5018 54.9081 18.9233 53.6604 18.9233 52.3155V51.0701C18.9233 47.5698 16.0755 44.7219 12.5751 44.7219C9.07478 44.7219 6.22695 47.5698 6.22695 51.0701V52.3155C6.22695 53.6604 6.64849 54.9081 7.36485 55.9358C3.28331 56.0576 0 59.4132 0 63.5236V68.6243C0 69.3791 0.612075 69.9911 1.36685 69.9911H68.6331C69.3879 69.9911 70 69.3791 70 68.6243V63.5236C70 59.4132 66.7167 56.0576 62.6353 55.9358ZM53.8105 51.0701C53.8105 49.0771 55.432 47.4556 57.425 47.4556C59.418 47.4556 61.0395 49.0771 61.0395 51.0701V52.3155C61.0395 54.3085 59.418 55.9299 57.425 55.9299C55.432 55.9299 53.8105 54.3085 53.8105 52.3155V51.0701ZM31.3942 51.0701C31.3942 49.0771 33.0157 47.4556 35.0087 47.4556C37.0017 47.4556 38.6232 49.0771 38.6232 51.0701V52.3155C38.6232 54.3085 37.0017 55.9299 35.0087 55.9299C33.0157 55.9299 31.3942 54.3085 31.3942 52.3155V51.0701ZM8.96051 51.0701C8.96051 49.0771 10.582 47.4556 12.575 47.4556C14.568 47.4556 16.1895 49.0771 16.1895 51.0701V52.3155C16.1895 54.3085 14.568 55.9299 12.575 55.9299C10.582 55.9299 8.96051 54.3085 8.96051 52.3155V51.0701ZM22.4163 67.2574H2.7337V63.5236C2.7337 60.8439 4.91382 58.6636 7.59366 58.6636H17.5565C20.2362 58.6636 22.4165 60.8438 22.4165 63.5236V67.2574H22.4163ZM25.1674 63.5236C25.1674 60.8439 27.3475 58.6636 30.0273 58.6636H39.9902C42.6699 58.6636 44.8501 60.8438 44.8501 63.5236V67.2574H25.1675V63.5236H25.1674ZM67.2663 67.2574H47.5837V63.5236C47.5837 60.8439 49.7638 58.6636 52.4436 58.6636H62.4065C65.0862 58.6636 67.2664 60.8438 67.2664 63.5236V67.2574H67.2663Z" fill="black"/>
<path d="M25.5601 36.7468C25.2006 36.7468 24.848 36.8929 24.5937 37.1473C24.3395 37.4014 24.1932 37.7528 24.1932 38.1137C24.1932 38.4732 24.3394 38.8258 24.5937 39.0799C24.848 39.3341 25.2006 39.4805 25.5601 39.4805C25.9196 39.4805 26.2722 39.3343 26.5263 39.0799C26.7805 38.8243 26.9269 38.4732 26.9269 38.1137C26.9269 37.7541 26.7807 37.4014 26.5263 37.1473C26.2722 36.8929 25.9196 36.7468 25.5601 36.7468Z" fill="#D64356"/>
<path d="M8.74783 39.4801H20.0927C20.8474 39.4801 21.4595 38.868 21.4595 38.1133C21.4595 37.3585 20.8474 36.7464 20.0927 36.7464H10.1147V27.0678C10.1147 24.5268 12.1819 22.4597 14.7227 22.4597H16.9828V28.8496C16.9828 29.3976 17.31 29.8924 17.814 30.1071C18.3181 30.3217 18.9016 30.2148 19.2968 29.8352L24.1932 25.1305V29.2456C24.1932 30.0003 24.8053 30.6124 25.5601 30.6124C26.3148 30.6124 26.9269 30.0003 26.9269 29.2456V25.1305L31.8234 29.8352C32.0831 30.0847 32.4242 30.2164 32.7707 30.2164C32.9513 30.2164 33.1334 30.1806 33.3061 30.1071C33.8102 29.8924 34.1373 29.3976 34.1373 28.8496V22.4597H36.3974C38.9382 22.4597 41.0055 24.5268 41.0055 27.0678V36.7464H31.0275C30.2727 36.7464 29.6606 37.3585 29.6606 38.1133C29.6606 38.868 30.2727 39.4801 31.0275 39.4801H42.3723C43.1271 39.4801 43.7391 38.868 43.7391 38.1133V27.0678C43.7391 23.0196 40.4456 19.726 36.3974 19.726H31.9106C33.4045 18.1536 34.3243 16.0305 34.3243 13.6955V10.5536V9.09986V8.77278C34.3243 3.94028 30.3927 0.00854492 25.5601 0.00854492C20.7274 0.00854492 16.7958 3.94028 16.7958 8.77278V9.09986V10.5536V13.6955C16.7958 16.0305 17.7156 18.1536 19.2096 19.726H14.7227C10.6745 19.726 7.38098 23.0196 7.38098 27.0678V38.1133C7.38098 38.868 7.99306 39.4801 8.74783 39.4801ZM19.7165 22.4597H23.0272L19.7165 25.6406V22.4597ZM31.4036 25.6408L28.093 22.4599H31.4036V25.6408ZM19.5295 8.77291C19.5295 5.44764 22.2348 2.74238 25.5601 2.74238C28.6737 2.74238 31.244 5.11441 31.5583 8.14635L28.7014 6.46786C28.1258 6.1297 27.3901 6.25682 26.9614 6.76843C25.6735 8.30532 23.7848 9.1868 21.7796 9.1868H19.5295V9.09986V8.77291ZM19.5295 13.6955V11.9205H21.7795C24.2024 11.9205 26.5037 11.0044 28.2513 9.37392L31.5907 11.3359V13.6955C31.5907 17.0208 28.8855 19.726 25.5602 19.726C22.2349 19.726 19.5295 17.0208 19.5295 13.6955Z" fill="black"/>
<path d="M44.1243 22.2468C44.347 22.3881 44.6015 22.4599 44.8572 22.4599C45.0549 22.4599 45.2533 22.4169 45.4381 22.3303L50.0712 20.1545H67.0495C68.6667 20.1545 69.9826 18.8388 69.9826 17.2214V2.94167C69.9826 1.32427 68.6667 0.00854492 67.0495 0.00854492H46.4235C44.8062 0.00854492 43.4904 1.32427 43.4904 2.94167V21.0929C43.4904 21.5606 43.7296 21.9959 44.1243 22.2468ZM46.2241 2.94167C46.2241 2.83163 46.3134 2.74224 46.4235 2.74224H67.0495C67.1595 2.74224 67.2489 2.83163 67.2489 2.94167V17.2213C67.2489 17.3313 67.1595 17.4207 67.0495 17.4207H49.7662C49.5653 17.4207 49.367 17.465 49.1852 17.5503L46.2241 18.9409V2.94167Z" fill="black"/>
<path d="M50.2227 8.56182H63.2504C64.0052 8.56182 64.6172 7.94975 64.6172 7.19497C64.6172 6.4402 64.0052 5.82812 63.2504 5.82812H50.2227C49.4679 5.82812 48.8558 6.4402 48.8558 7.19497C48.8558 7.94975 49.4678 8.56182 50.2227 8.56182Z" fill="#D64356"/>
<path d="M50.2227 14.0291H59.2101C59.9649 14.0291 60.577 13.417 60.577 12.6623C60.577 11.9075 59.9649 11.2954 59.2101 11.2954H50.2227C49.4679 11.2954 48.8558 11.9075 48.8558 12.6623C48.8558 13.417 49.4678 14.0291 50.2227 14.0291Z" fill="#D64356"/>
</svg>
