<svg width="70" height="70" viewBox="0 0 70 70" fill="none" xmlns="http://www.w3.org/2000/svg">
<g clip-path="url(#clip0)">
<path d="M35 11.6667C31.7916 11.6667 29.1666 9.04167 29.1666 5.83333C29.1666 2.625 31.7916 0 35 0C38.2083 0 40.8333 2.625 40.8333 5.83333C40.8333 9.04167 38.2083 11.6667 35 11.6667ZM35 2.91667C33.25 2.91667 32.0833 4.08333 32.0833 5.83333C32.0833 7.58333 33.25 8.75 35 8.75C36.75 8.75 37.9166 7.58333 37.9166 5.83333C37.9166 4.08333 36.75 2.91667 35 2.91667Z" fill="black"/>
<path d="M45.2084 26.2502C44.3334 26.2502 43.75 25.6668 43.75 24.7918V21.8752C43.75 19.5418 41.7084 17.5002 39.375 17.5002H30.625C28.2917 17.5002 26.25 19.5418 26.25 21.8752V24.7918C26.25 25.6668 25.6667 26.2502 24.7917 26.2502C23.9167 26.2502 23.3334 25.6668 23.3334 24.7918V21.8752C23.3334 17.7918 26.5417 14.5835 30.625 14.5835H39.375C43.4584 14.5835 46.6667 17.7918 46.6667 21.8752V24.7918C46.6667 25.6668 46.0834 26.2502 45.2084 26.2502Z" fill="black"/>
<path d="M58.3333 55.4167C55.125 55.4167 52.5 52.7917 52.5 49.5833C52.5 46.375 55.125 43.75 58.3333 43.75C61.5417 43.75 64.1667 46.375 64.1667 49.5833C64.1667 52.7917 61.5417 55.4167 58.3333 55.4167ZM58.3333 46.6667C56.5833 46.6667 55.4167 47.8333 55.4167 49.5833C55.4167 51.3333 56.5833 52.5 58.3333 52.5C60.0833 52.5 61.25 51.3333 61.25 49.5833C61.25 47.8333 60.0833 46.6667 58.3333 46.6667Z" fill="black"/>
<path d="M68.5416 70.0002C67.6666 70.0002 67.0833 69.4168 67.0833 68.5418V65.6252C67.0833 63.2918 65.0416 61.2502 62.7083 61.2502H53.9583C51.625 61.2502 49.5833 63.2918 49.5833 65.6252V68.5418C49.5833 69.4168 49 70.0002 48.125 70.0002C47.25 70.0002 46.6666 69.4168 46.6666 68.5418V65.6252C46.6666 61.5418 49.875 58.3335 53.9583 58.3335H62.7083C66.7916 58.3335 69.9999 61.5418 69.9999 65.6252V68.5418C69.9999 69.4168 69.4166 70.0002 68.5416 70.0002Z" fill="black"/>
<path d="M11.6667 55.4167C8.45837 55.4167 5.83337 52.7917 5.83337 49.5833C5.83337 46.375 8.45837 43.75 11.6667 43.75C14.875 43.75 17.5 46.375 17.5 49.5833C17.5 52.7917 14.875 55.4167 11.6667 55.4167ZM11.6667 46.6667C9.91671 46.6667 8.75004 47.8333 8.75004 49.5833C8.75004 51.3333 9.91671 52.5 11.6667 52.5C13.4167 52.5 14.5834 51.3333 14.5834 49.5833C14.5834 47.8333 13.4167 46.6667 11.6667 46.6667Z" fill="black"/>
<path d="M21.875 70.0002C21 70.0002 20.4167 69.4168 20.4167 68.5418V65.6252C20.4167 63.2918 18.375 61.2502 16.0417 61.2502H7.29167C4.95833 61.2502 2.91667 63.2918 2.91667 65.6252V68.5418C2.91667 69.4168 2.33333 70.0002 1.45833 70.0002C0.583333 70.0002 0 69.4168 0 68.5418V65.6252C0 61.5418 3.20833 58.3335 7.29167 58.3335H16.0417C20.125 58.3335 23.3333 61.5418 23.3333 65.6252V68.5418C23.3333 69.4168 22.75 70.0002 21.875 70.0002Z" fill="black"/>
<path d="M24.7916 49.5832C24.2083 49.5832 23.9166 49.2915 23.625 48.9998C23.0416 48.4165 23.3333 47.5415 23.9166 46.9582L33.5416 39.9582V30.6248C33.5416 29.7498 34.125 29.1665 35 29.1665C35.875 29.1665 36.4583 29.7498 36.4583 30.6248V40.8332C36.4583 41.4165 36.1666 41.7082 35.875 41.9998L25.6666 49.2915C25.375 49.5832 25.0833 49.5832 24.7916 49.5832Z" fill="#D64356"/>
<path d="M45.2084 49.5833C44.9167 49.5833 44.625 49.5833 44.3334 49.2916L34.125 41.9999C33.5417 41.4166 33.25 40.5416 33.8333 39.9583C34.4167 39.3749 35.2917 39.0833 35.875 39.6666L46.0834 46.9583C46.6667 47.5416 46.9584 48.4166 46.375 48.9999C46.0834 49.2916 45.7917 49.5833 45.2084 49.5833Z" fill="#D64356"/>
</g>
<defs>
<clipPath id="clip0">
<rect width="70" height="70" fill="white"/>
</clipPath>
</defs>
</svg>
