<svg width="880" height="438" viewBox="0 0 880 438" fill="none" xmlns="http://www.w3.org/2000/svg">
<path d="M875.469 103.61C882.13 128.688 876.529 155.887 860.441 183.69C844.349 211.501 817.817 239.815 782.835 267.001C712.876 321.369 609.363 371.035 488.874 403.04C368.385 435.045 253.871 443.292 166.154 430.806C122.293 424.563 85.2076 413.147 57.436 396.988C29.6717 380.832 11.3113 359.999 4.64987 334.92C-2.01154 309.842 3.59028 282.643 19.6781 254.84C35.7702 227.029 62.3022 198.715 97.284 171.529C167.243 117.161 270.755 67.495 391.244 35.4902C511.733 3.48537 626.248 -4.76176 713.964 7.72347C757.826 13.9665 794.911 25.3828 822.683 41.5423C850.447 57.6975 868.808 78.5312 875.469 103.61Z" stroke="url(#paint0_linear)" stroke-width="3"/>
<defs>
<linearGradient id="paint0_linear" x1="390.859" y1="34.0405" x2="489.26" y2="404.489" gradientUnits="userSpaceOnUse">
<stop stop-color="#FF6B00" stop-opacity="0"/>
<stop offset="0.510417" stop-color="#FF0021" stop-opacity="0.489583"/>
<stop offset="1" stop-color="#FFB800" stop-opacity="0"/>
</linearGradient>
</defs>
</svg>
