<svg width="130" height="260" viewBox="0 0 130 260" fill="none" xmlns="http://www.w3.org/2000/svg">
<rect x="99.0576" y="20" width="8.73163" height="8.73163" fill="#CC4051"/>
<rect x="98.3301" y="43.2844" width="10.1869" height="10.1869" fill="#CC4051"/>
<rect opacity="0.8" x="73.5903" y="20" width="8.73163" height="8.73163" fill="#CC4051"/>
<rect opacity="0.8" x="72.8625" y="43.2844" width="10.1869" height="10.1869" fill="#CC4051"/>
<rect opacity="0.7" x="49.5784" y="20" width="8.73163" height="8.73163" fill="#CC4051"/>
<rect opacity="0.7" x="48.8506" y="43.2844" width="10.1869" height="10.1869" fill="#CC4051"/>
<rect opacity="0.5" x="24.8386" y="20" width="8.73163" height="8.73163" fill="#CC4051"/>
<rect opacity="0.5" x="24.1111" y="43.2844" width="10.1869" height="10.1869" fill="#CC4051"/>
<rect opacity="0.4" x="0.0991211" y="20" width="8.73163" height="8.73163" fill="#CC4051"/>
<rect opacity="0.4" x="0.0991211" y="44.012" width="8.73163" height="8.73163" fill="#CC4051"/>
<rect x="97.8845" y="68.2468" width="11.6422" height="11.6422" fill="#CC4051"/>
<rect x="97.0381" y="94.4861" width="13.8251" height="13.8251" fill="#CC4051"/>
<rect x="96.1917" y="123.265" width="15.2358" height="15.2358" fill="#CC4051"/>
<rect opacity="0.8" x="72.135" y="68.0239" width="11.6422" height="11.6422" fill="#CC4051"/>
<rect opacity="0.8" x="71.4075" y="94.2188" width="13.8251" height="13.8251" fill="#CC4051"/>
<rect opacity="0.8" x="71.4075" y="124.052" width="13.8251" height="13.8251" fill="#CC4051"/>
<rect opacity="0.7" x="48.123" y="68.0239" width="11.6422" height="11.6422" fill="#CC4051"/>
<rect opacity="0.7" x="48.123" y="94.9465" width="11.6422" height="11.6422" fill="#CC4051"/>
<rect opacity="0.7" x="48.123" y="125.507" width="11.6422" height="11.6422" fill="#CC4051"/>
<rect opacity="0.5" x="24.1111" y="68.7515" width="10.1869" height="10.1869" fill="#CC4051"/>
<rect opacity="0.5" x="24.1111" y="95.6741" width="10.1869" height="10.1869" fill="#CC4051"/>
<rect opacity="0.5" x="24.1111" y="126.235" width="10.1869" height="10.1869" fill="#CC4051"/>
<rect opacity="0.4" x="0.0991211" y="69.4792" width="8.73163" height="8.73163" fill="#CC4051"/>
<rect opacity="0.4" x="0.0991211" y="96.4019" width="8.73163" height="8.73163" fill="#CC4051"/>
<rect opacity="0.4" x="0.0991211" y="126.962" width="8.73163" height="8.73163" fill="#CC4051"/>
<rect width="8.73163" height="8.73163" transform="matrix(1 0 0 -1 99.5774 240.34)" fill="#CC4051"/>
<rect width="10.1869" height="10.1869" transform="matrix(1 0 0 -1 98.731 217.249)" fill="#CC4051"/>
<rect opacity="0.8" width="8.73163" height="8.73163" transform="matrix(1 0 0 -1 75.0454 240.474)" fill="#CC4051"/>
<rect opacity="0.8" width="10.1869" height="10.1869" transform="matrix(1 0 0 -1 74.3179 217.189)" fill="#CC4051"/>
<rect opacity="0.7" width="8.73163" height="8.73163" transform="matrix(1 0 0 -1 51.0334 240.474)" fill="#CC4051"/>
<rect opacity="0.7" width="10.1869" height="10.1869" transform="matrix(1 0 0 -1 50.3059 217.189)" fill="#CC4051"/>
<rect opacity="0.5" width="8.73163" height="8.73163" transform="matrix(1 0 0 -1 26.2939 240.474)" fill="#CC4051"/>
<rect opacity="0.5" width="10.1869" height="10.1869" transform="matrix(1 0 0 -1 25.5664 217.189)" fill="#CC4051"/>
<rect opacity="0.4" width="8.73163" height="8.73163" transform="matrix(1 0 0 -1 1.55444 240.474)" fill="#CC4051"/>
<rect opacity="0.4" width="8.73163" height="8.73163" transform="matrix(1 0 0 -1 1.55444 216.462)" fill="#CC4051"/>
<rect width="11.6422" height="11.6422" transform="matrix(1 0 0 -1 97.8845 192.465)" fill="#CC4051"/>
<rect width="13.8251" height="13.8251" transform="matrix(1 0 0 -1 97.0381 166.715)" fill="#CC4051"/>
<rect opacity="0.8" width="11.6422" height="11.6422" transform="matrix(1 0 0 -1 73.5903 192.45)" fill="#CC4051"/>
<rect opacity="0.8" width="13.8251" height="13.8251" transform="matrix(1 0 0 -1 72.8625 166.255)" fill="#CC4051"/>
<rect opacity="0.7" width="11.6422" height="11.6422" transform="matrix(1 0 0 -1 49.5784 192.45)" fill="#CC4051"/>
<rect opacity="0.7" width="11.6422" height="11.6422" transform="matrix(1 0 0 -1 49.5784 165.527)" fill="#CC4051"/>
<rect opacity="0.5" width="10.1869" height="10.1869" transform="matrix(1 0 0 -1 25.5664 191.722)" fill="#CC4051"/>
<rect opacity="0.5" width="10.1869" height="10.1869" transform="matrix(1 0 0 -1 25.5664 164.8)" fill="#CC4051"/>
<rect opacity="0.4" width="8.73163" height="8.73163" transform="matrix(1 0 0 -1 1.55444 190.994)" fill="#CC4051"/>
<rect opacity="0.4" width="8.73163" height="8.73163" transform="matrix(1 0 0 -1 1.55444 164.072)" fill="#CC4051"/>
</svg>
