<svg width="32" height="22" viewBox="0 0 32 22" fill="none" xmlns="http://www.w3.org/2000/svg">
<path d="M21.3995 3.28598C21.3338 3.28596 21.2688 3.29888 21.2081 3.32401C21.1475 3.34913 21.0923 3.38596 21.0459 3.43239C20.9995 3.47882 20.9627 3.53395 20.9375 3.59462C20.9124 3.65529 20.8995 3.72031 20.8995 3.78598V10.9999C20.8995 11.0655 20.9124 11.1305 20.9375 11.1912C20.9627 11.2519 20.9995 11.307 21.0459 11.3534C21.0923 11.3999 21.1475 11.4367 21.2081 11.4618C21.2688 11.4869 21.3338 11.4999 21.3995 11.4999H25.7667C25.8993 11.4999 26.0265 11.4472 26.1202 11.3534C26.214 11.2596 26.2667 11.1325 26.2667 10.9999C26.2667 10.8672 26.214 10.7401 26.1202 10.6463C26.0265 10.5525 25.8993 10.4999 25.7667 10.4999H21.8995V3.78598C21.8995 3.72031 21.8866 3.65529 21.8615 3.59462C21.8364 3.53395 21.7995 3.47882 21.7531 3.43239C21.7067 3.38596 21.6515 3.34913 21.5909 3.32401C21.5302 3.29889 21.4652 3.28596 21.3995 3.28598Z" fill="#D64356"/>
<path d="M3.9288 13.0312H11.8656C11.9982 13.0312 12.1254 12.9785 12.2192 12.8848C12.3129 12.791 12.3656 12.6638 12.3656 12.5312C12.3656 12.3986 12.3129 12.2714 12.2192 12.1777C12.1254 12.0839 11.9982 12.0312 11.8656 12.0312H3.9288C3.79619 12.0312 3.66902 12.0839 3.57525 12.1777C3.48148 12.2714 3.4288 12.3986 3.4288 12.5312C3.4288 12.6638 3.48148 12.791 3.57525 12.8848C3.66902 12.9785 3.79619 13.0312 3.9288 13.0312Z" fill="#D64356"/>
<path d="M6.91223 9.9682H11.8656C11.9982 9.9682 12.1254 9.91552 12.2192 9.82175C12.3129 9.72799 12.3656 9.60081 12.3656 9.4682C12.3656 9.33559 12.3129 9.20842 12.2192 9.11465C12.1254 9.02088 11.9982 8.9682 11.8656 8.9682H6.91223C6.77962 8.9682 6.65245 9.02088 6.55868 9.11465C6.46491 9.20842 6.41223 9.33559 6.41223 9.4682C6.41223 9.60081 6.46491 9.72799 6.55868 9.82175C6.65245 9.91552 6.77962 9.9682 6.91223 9.9682Z" fill="#D64356"/>
<path d="M21.3995 0.845093C19.621 0.845479 17.8738 1.31316 16.3328 2.20131C14.7919 3.08945 13.5114 4.36688 12.6196 5.90564H9.89535C9.76275 5.90564 9.63557 5.95832 9.5418 6.05209C9.44803 6.14586 9.39535 6.27303 9.39535 6.40564C9.39535 6.53825 9.44803 6.66543 9.5418 6.7592C9.63557 6.85296 9.76275 6.90564 9.89535 6.90564H12.9058C12.9535 6.90317 13.0005 6.89367 13.0454 6.87744C13.0484 6.87659 13.0514 6.87659 13.0543 6.87561C13.1055 6.85905 13.1536 6.83404 13.1965 6.80164C13.2075 6.79382 13.2191 6.78809 13.2295 6.77942C13.2613 6.75039 13.289 6.71731 13.3122 6.68103C13.3255 6.66699 13.3379 6.65215 13.3495 6.6366C14.1354 5.18703 15.2983 3.97664 16.7152 3.13326C18.1322 2.28988 19.7506 1.84482 21.3995 1.84509C26.4474 1.84509 30.5543 5.95203 30.5543 10.9999C30.5543 16.0477 26.4474 20.1547 21.3995 20.1547C19.749 20.1551 18.1292 19.7093 16.7113 18.8644C15.2935 18.0196 14.1305 16.8071 13.3453 15.3553C13.3322 15.3371 13.3178 15.3199 13.3022 15.3037C13.2828 15.2748 13.2605 15.2481 13.2355 15.224C13.2117 15.2044 13.186 15.1871 13.1589 15.1724C13.1048 15.1338 13.0409 15.1113 12.9746 15.1075C12.952 15.1012 12.9289 15.0965 12.9056 15.0936H0.945648C0.81304 15.0936 0.685863 15.1463 0.592095 15.2401C0.498327 15.3338 0.445648 15.461 0.445648 15.5936C0.445648 15.7262 0.498327 15.8534 0.592095 15.9472C0.685863 16.041 0.81304 16.0936 0.945648 16.0936H12.6195C13.5112 17.6326 14.7917 18.9102 16.3326 19.7984C17.8736 20.6867 19.6209 21.1544 21.3995 21.1547C26.9989 21.1547 31.5543 16.5995 31.5543 10.9999C31.5543 5.40027 26.9989 0.845093 21.3995 0.845093Z" fill="#D64356"/>
</svg>
