<svg width="88" height="100" viewBox="0 0 88 100" fill="none" xmlns="http://www.w3.org/2000/svg">
<path opacity="0.05" d="M1.56671 100C1.15119 100 0.752695 99.8354 0.45888 99.5424C0.165064 99.2493 0 98.8519 0 98.4375C0 98.0231 0.165064 97.6257 0.45888 97.3326C0.752695 97.0396 1.15119 96.875 1.56671 96.875H11.4887L12.5337 90.625C12.6669 89.7359 13.2356 89.0625 14.1004 89.0625H21.934L21.9324 32.8125H17.2338C16.8183 32.8125 16.4198 32.6479 16.126 32.3549C15.8322 32.0618 15.6671 31.6644 15.6671 31.25C15.6671 30.8356 15.8322 30.4382 16.126 30.1451C16.4198 29.8521 16.8183 29.6875 17.2338 29.6875H21.9324L21.934 1.5625C21.934 1.1481 22.099 0.750671 22.3928 0.457646C22.6867 0.16462 23.0852 0 23.5007 0C23.9162 0 24.3147 0.16462 24.6085 0.457646C24.9023 0.750671 25.0674 1.1481 25.0674 1.5625V7.175C35.526 12.5947 44.6302 20.2883 51.7078 29.6875H57.9683C58.3838 29.6875 58.7823 29.8521 59.0762 30.1451C59.37 30.4382 59.535 30.8356 59.535 31.25C59.535 31.6644 59.37 32.0618 59.0762 32.3549C58.7823 32.6479 58.3838 32.8125 57.9683 32.8125H53.9419C62.7153 45.723 67.3934 60.9663 67.3686 76.5625C67.3686 80.8172 67.0271 84.9922 66.3706 89.0625H73.6354C74.4345 89.0625 74.9045 89.5906 75.1473 90.4125L75.2069 90.6562L76.2472 96.875H86.1691C86.5847 96.875 86.9832 97.0396 87.277 97.3326C87.5708 97.6257 87.7358 98.0231 87.7358 98.4375C87.7358 98.8519 87.5708 99.2493 87.277 99.5424C86.9832 99.8354 86.5847 100 86.1691 100H1.56671ZM72.0687 92.1875H15.6671L14.7271 96.875H73.0088L72.0687 92.1875ZM25.0674 10.7188V29.6875H39.1474C36.729 27.0461 34.1175 24.5872 31.3342 22.3312V26.5625C31.3342 26.9769 31.1692 27.3743 30.8754 27.6674C30.5815 27.9604 30.183 28.125 29.7675 28.125C29.352 28.125 28.9535 27.9604 28.6597 27.6674C28.3659 27.3743 28.2008 26.9769 28.2008 26.5625V18.75C28.1993 18.3733 28.3342 18.0088 28.5808 17.7235C28.8274 17.4382 29.1691 17.2514 29.5428 17.1974C29.9166 17.1433 30.2974 17.2258 30.615 17.4296C30.9327 17.6333 31.1658 17.9447 31.2716 18.3062C49.3921 32 61.1018 53.6984 61.1018 78.125C61.1018 80.6016 60.9811 83.05 60.7461 85.4656L60.6787 86.0109C60.6254 86.3794 60.4419 86.7168 60.1613 86.9623C59.8806 87.2078 59.5213 87.3453 59.1481 87.35L58.8943 87.3344C58.5333 87.298 58.1982 87.1308 57.9527 86.8643C57.7072 86.5979 57.5684 86.2509 57.5626 85.8891L57.572 85.6953L57.6033 85.3984C58.0774 80.6974 58.091 75.9615 57.644 71.2578L36.3681 89.0625L63.1949 89.0641C63.8795 85 64.2352 80.8219 64.2352 76.5625C64.2352 48.1625 48.4067 23.4484 25.0674 10.7188ZM28.2008 32.8125H25.0658L25.0674 89.0625H28.2008V32.8125ZM53.8965 70.3125H31.3327L31.3342 89.0625H31.5019L31.5927 88.9797L53.8949 70.3125H53.8965ZM52.2326 49.9797L31.6664 67.1875H57.1395C56.2342 61.269 54.5856 55.4876 52.2326 49.9797ZM47.3304 50H31.3327V63.3875L47.3304 50ZM44.186 35.8438L31.3327 46.5969V46.875H50.8179C48.9424 43.0076 46.7228 39.3157 44.186 35.8438ZM41.8453 32.8125H31.3342L31.3327 42.5172L42.284 33.3563L41.8453 32.8125Z" fill="black"/>
</svg>
