<svg width="100" height="100" viewBox="0 0 100 100" fill="none" xmlns="http://www.w3.org/2000/svg">
<g opacity="0.05">
<path d="M95.8589 63.8281C94.062 61.6016 91.0932 60.8594 88.476 61.9531L64.5307 71.9922C63.5542 72.4219 63.0854 73.5156 63.5151 74.4922C63.9448 75.4687 65.0385 75.9375 66.0151 75.5078L89.9604 65.4688C90.976 65.0391 92.1479 65.3516 92.8901 66.2109C93.3198 66.7578 93.5151 67.4609 93.3979 68.1641C93.2807 68.8672 92.8901 69.4922 92.3042 69.8828C81.8745 76.6797 58.1635 90.1172 56.9917 90.7812C56.9526 90.8203 56.9135 90.8203 56.8354 90.8594C53.9448 92.5781 50.7026 93.0469 46.6401 92.3047C46.3667 92.2656 40.937 91.6016 28.0073 90L21.0542 89.1406V62.9687C22.1479 62.8906 23.0854 62.8516 23.5151 62.8516H23.7495C32.7729 62.2656 41.4057 64.0234 50.5464 65.8594C51.7182 66.0938 52.8901 66.3281 54.062 66.5625C55.312 66.7969 56.2104 67.9297 56.2104 69.1797C56.2104 69.2578 56.2104 69.3359 56.1714 69.4922C56.0932 70.2344 55.7026 70.7422 55.4292 71.0547C54.9214 71.5625 54.2573 71.8359 53.5542 71.8359H35.2339C34.1792 71.8359 33.3198 72.6953 33.3198 73.75C33.3198 74.8047 34.1792 75.6641 35.2339 75.6641H53.5151C55.2339 75.6641 56.9136 74.9609 58.1245 73.75C59.1792 72.6953 59.8042 71.3672 59.9604 70C59.9995 69.7266 60.0385 69.4141 60.0385 69.1406C60.0385 66.0156 57.812 63.3203 54.7651 62.7344C53.5932 62.5 52.4214 62.2656 51.2886 62.0313C42.3042 60.2344 33.0464 58.3203 23.5151 58.9453H23.3198C22.8901 58.9844 21.9526 59.0234 20.937 59.0625C20.7026 58.2422 19.9995 57.6172 19.1011 57.6172H4.687C3.63231 57.6172 2.77293 58.4766 2.77293 59.5312V92.1484C2.77293 93.2031 3.63231 94.0625 4.687 94.0625H19.1011C19.8823 94.0625 20.5464 93.5937 20.8198 92.9297L27.4995 93.75C35.1167 94.6875 45.5073 95.9375 45.937 96.0156C47.3823 96.2891 48.7495 96.4062 50.0776 96.4062C53.2807 96.4062 56.1323 95.6641 58.7104 94.1016C58.7495 94.1016 58.7495 94.0625 58.7885 94.0625C59.0229 93.9062 83.5932 80.0391 94.3354 73.0078C95.8589 72.0312 96.8745 70.4688 97.1479 68.6719C97.4604 67.0313 96.9526 65.1953 95.8589 63.8281ZM17.187 90.2734H6.60106V61.5234H17.187V90.2734Z" fill="black"/>
<path d="M44.7656 22.6954H29.4922V51.7189H44.7656V22.6954ZM40.9375 47.8907H33.3203V26.5626H40.8984V47.8907H40.9375Z" fill="black"/>
<path d="M88.6711 16.6799H73.3977V51.7581H88.6711V16.6799ZM84.843 47.8909H77.2649V20.5081H84.843V47.8909Z" fill="black"/>
<path d="M66.7177 3.51562H51.4443V51.7187H66.7177V3.51562ZM62.8896 47.8906H55.3115V7.38281H62.8896V47.8906Z" fill="black"/>
</g>
</svg>
