<svg width="100" height="100" viewBox="0 0 100 100" fill="none" xmlns="http://www.w3.org/2000/svg">
<g opacity="0.05" clip-path="url(#clip0)">
<path d="M50 0C22.429 0 0 22.429 0 50C0 63.1258 5.21613 76.4258 13.9532 85.5742C14.8758 86.5419 16.1919 87.0968 17.5661 87.0968C20.3306 87.0968 22.5806 84.8468 22.5806 81.971C22.5806 80.7355 22.1145 79.5371 21.2661 78.5968C14.1194 70.6516 9.67742 59.6919 9.67742 50C9.67742 38.771 14.1806 28.3435 22.3581 20.6419C30.5323 12.9435 41.2371 9.07258 52.4903 9.75161C69.9677 10.8016 85.0419 23.3242 89.1452 40.2064C91.2242 48.7581 90.5581 57.5806 87.2177 65.7258L90.2016 66.9516C93.8016 58.1726 94.5226 48.6597 92.2806 39.4435C87.8452 21.2 71.5613 7.66613 52.6823 6.53226C40.5532 5.80323 28.9758 9.98226 20.1468 18.2935C11.3161 26.6129 6.45161 37.871 6.45161 50C6.45161 60.4548 11.2097 72.2403 18.8694 80.7548C19.1839 81.1032 19.3548 81.5355 19.3548 82.0823C19.3548 83.0677 18.5516 83.871 17.5661 83.871C17.0694 83.871 16.6048 83.6806 16.2887 83.3484C8.10806 74.7822 3.22581 62.3161 3.22581 50C3.22581 24.2097 24.2097 3.22581 50 3.22581C75.7903 3.22581 96.7742 24.2097 96.7742 50C96.7742 62.3129 91.8919 74.779 83.7113 83.35C83.3952 83.6806 82.929 83.871 82.4323 83.871C81.4468 83.871 80.6452 83.0694 80.6452 82.0452C80.6452 81.5871 80.8355 81.1387 81.1806 80.7839C84.0903 77.7887 86.5629 74.35 88.529 70.5629L85.6661 69.0758C83.8452 72.5839 81.5581 75.7677 78.8694 78.5339C77.9339 79.4952 77.4194 80.7419 77.4194 82.0839C77.4194 84.8468 79.6677 87.0968 82.4323 87.0968C83.8081 87.0968 85.1242 86.5419 86.0452 85.5758C94.7839 76.421 100 63.1226 100 50C100 22.429 77.571 0 50 0Z" fill="black"/>
<path d="M79.0177 69.7242C79.1161 68.4339 78.7064 67.1823 77.8677 66.2081C77.4887 65.7629 68.7016 55.6629 54.8387 53.621V53.4517C68.9129 54.3613 80.7516 57.8291 80.8822 57.8678C81.3354 57.9984 81.7967 58.0646 82.258 58.0646C84.4113 58.0646 86.2742 56.6791 86.8935 54.6146C87.6596 52.0613 86.2032 49.3581 83.6451 48.5904C83.0903 48.4242 70.2693 44.6629 54.8387 43.7613V43.4984C64.0032 39.9807 77.7113 38.7033 77.8548 38.6904C79.1419 38.5742 80.3064 37.9629 81.1338 36.9694C81.9629 35.9758 82.3548 34.7194 82.2387 33.4307C82.0064 30.9242 79.9403 29.0323 77.358 29.0323C77.3564 29.0323 77.3548 29.0323 77.3532 29.0323L76.9693 29.0533C75.6435 29.1742 64.4919 30.2629 54.8387 33.2694V32.8662C59.2484 28.6678 62.9564 26.1323 65.3096 25.7404C66.5838 25.5275 67.7 24.8323 68.4516 23.7791C69.2032 22.7275 69.5 21.4468 69.2887 20.1758C68.9032 17.8291 66.9 16.1258 64.529 16.1258C64.2532 16.1258 63.9725 16.1516 63.7032 16.1984C61.0645 16.6387 58.0887 18.0194 54.8387 20.2855V17.742C54.8387 15.0742 52.6677 12.9033 50 12.9033C47.3322 12.9033 45.1613 15.0742 45.1613 17.742V20.2855C41.9113 18.0194 38.9371 16.6387 36.3113 16.2C33.5855 15.7323 31.1435 17.5565 30.7113 20.1726C30.4984 21.4468 30.7967 22.7275 31.5484 23.7791C32.3 24.8307 33.4161 25.5275 34.6887 25.7404C37.0435 26.1323 40.7516 28.6678 45.1613 32.8662V33.2694C35.508 30.2629 24.3516 29.1742 22.9645 29.0484L22.5661 29.0307C20.0597 29.0307 17.9951 30.9226 17.7613 33.4339C17.6451 34.7194 18.0371 35.9742 18.8661 36.9678C19.6951 37.9613 20.858 38.5726 22.1468 38.6887C22.2903 38.7 35.9984 39.9791 45.1629 43.4968V43.7597C29.7306 44.6613 16.9113 48.421 16.3516 48.5888C13.7984 49.3581 12.3435 52.0597 13.108 54.6129C13.7258 56.6791 15.5887 58.0646 17.7419 58.0646C18.2032 58.0646 18.6645 57.9984 19.1258 57.8629C19.2484 57.8275 31.0871 54.3597 45.1613 53.45V53.6194C31.2968 55.6613 22.5113 65.7629 22.1387 66.2C21.2935 67.1807 20.8838 68.4339 20.9822 69.7242C21.0806 71.0146 21.6774 72.1871 22.6532 73.0226C23.5306 73.7775 24.65 74.1936 25.8064 74.1936C27.2258 74.1936 28.5645 73.5775 29.458 72.5275C29.5242 72.4533 35.8451 65.4291 45.1613 63.4452V65.4613L42.8806 67.742H41.4274C39.0387 67.742 37.0967 69.6839 37.0967 72.0726C37.0967 74.063 38.4451 75.792 40.3774 76.2726L41.9355 76.6629V91.6581C41.9355 95.9275 45.1322 99.5726 49.2145 99.963C49.4709 99.9872 49.7274 100 49.9838 100C51.9871 100 53.9355 99.2565 55.4226 97.9049C57.1016 96.3791 58.0645 94.2033 58.0645 91.9355V76.6629L59.6226 76.2726C61.5548 75.7904 62.9032 74.063 62.9032 72.0726C62.9032 69.6839 60.9613 67.742 58.5726 67.742H57.1193L54.8387 65.4613V63.4452C64.1564 65.4291 70.4742 72.4517 70.5242 72.5065C71.4355 73.5775 72.7742 74.1936 74.1935 74.1936C75.35 74.1936 76.4693 73.7775 77.3419 73.0259C78.3225 72.1871 78.9193 71.0146 79.0177 69.7242ZM45.1613 40.0581C35.6645 36.7258 22.5709 35.4887 22.4339 35.4775C22.0064 35.4404 21.6177 35.2355 21.3419 34.9033C21.0645 34.5726 20.9338 34.1533 20.9742 33.7291C21.0516 32.8887 21.7371 32.2565 22.4871 32.2549L22.7387 32.2662C24.0726 32.3871 35.6451 33.521 45.1613 36.6629V40.0581ZM45.1629 28.5016C41.1597 25.0049 37.8177 22.992 35.2193 22.5581C34.7887 22.4855 34.4274 22.2597 34.1726 21.9049C33.9193 21.5484 33.8209 21.1323 33.8935 20.6984C34.0226 19.9194 34.6855 19.3516 35.4726 19.3516C35.5661 19.3516 35.6597 19.3613 35.7693 19.3807C38.4016 19.8194 41.5629 21.4823 45.1629 24.2968V28.5016ZM82.7209 51.6807C83.5725 51.9355 84.058 52.8371 83.8032 53.6888C83.55 54.5339 82.6355 55.0129 81.7984 54.7726C81.6725 54.7339 69.2903 51.1307 54.8387 50.2178V46.9936C69.8113 47.8904 82.1871 51.521 82.7209 51.6807ZM54.8387 24.2952C58.4387 21.4823 61.6016 19.8194 64.2467 19.3791C65.1467 19.2146 65.9613 19.8258 66.1064 20.7016C66.179 21.1323 66.0806 21.5484 65.8274 21.9049C65.5726 22.2613 65.2096 22.4855 64.779 22.5581C62.1822 22.992 58.8387 25.0033 54.8387 28.5V24.2952ZM18.2129 54.7694C17.3097 55.0291 16.45 54.5339 16.1968 53.6888C15.9419 52.8371 16.4274 51.9355 17.2742 51.6807C17.8129 51.521 30.1887 47.8904 45.1613 46.9936V50.2178C30.7097 51.1307 18.3274 54.7339 18.2129 54.7694ZM27.0193 70.4146C26.4806 71.0517 25.4129 71.1404 24.7532 70.5759C24.429 70.2968 24.2322 69.9081 24.1984 69.4759C24.1645 69.0404 24.2984 68.6355 24.5887 68.3C24.9306 67.8984 32.7597 58.892 45.1613 56.8775V60.171C34.3984 62.1758 27.3419 70.0484 27.0193 70.4146ZM55.7838 70.9678H58.5726C59.1822 70.9678 59.6774 71.463 59.6774 72.0726C59.6774 72.5807 59.3322 73.021 58.8403 73.1452L54.8387 74.1436V91.9355C54.8387 93.2968 54.2613 94.6017 53.2548 95.5178C52.2338 96.4452 50.9177 96.8742 49.5209 96.7533C47.0742 96.5194 45.1613 94.2807 45.1613 91.6581V74.1436L41.1597 73.1452C40.6677 73.0194 40.3226 72.5807 40.3226 72.0726C40.3226 71.463 40.8177 70.9678 41.4274 70.9678H44.2161L48.3871 66.7968V17.742C48.3871 16.8516 49.1096 16.1291 50 16.1291C50.8903 16.1291 51.6129 16.8516 51.6129 17.742V66.7968L55.7838 70.9678ZM54.8355 40.0565V36.6613C64.3548 33.521 75.9258 32.3871 77.1951 32.271L77.4322 32.2565C78.2629 32.2565 78.9467 32.8904 79.0242 33.7242C79.0629 34.1533 78.9322 34.571 78.6548 34.9017C78.379 35.2339 77.9903 35.4387 77.5661 35.4758C77.4258 35.4871 64.3322 36.7242 54.8355 40.0565ZM75.8016 69.4791C75.7693 69.9081 75.5709 70.2968 75.2419 70.5791C74.5935 71.1388 73.5338 71.0694 72.9629 70.3968C72.6564 70.0484 65.6016 62.1758 54.8387 60.1726V56.8791C67.2403 58.8936 75.0693 67.9 75.4177 68.3081C75.7032 68.6388 75.8355 69.0436 75.8016 69.4791Z" fill="black"/>
<path d="M51.6128 70.9678H48.387V74.1936H51.6128V70.9678Z" fill="black"/>
<path d="M51.6128 77.4194H48.387V80.6452H51.6128V77.4194Z" fill="black"/>
<path d="M51.6128 83.8708H48.387V87.0967H51.6128V83.8708Z" fill="black"/>
<path d="M51.6128 90.3226H48.387V93.5484H51.6128V90.3226Z" fill="black"/>
</g>
<defs>
<clipPath id="clip0">
<rect width="100" height="100" fill="white"/>
</clipPath>
</defs>
</svg>
