<svg width="100" height="98" viewBox="0 0 100 98" fill="none" xmlns="http://www.w3.org/2000/svg">
<g opacity="0.05">
<path d="M98.0744 66.6341C95.6186 63.6369 91.4871 62.7303 88.0282 64.4299L69.4113 73.5736V72.5805C69.4113 67.2814 65.1586 62.9703 59.9314 62.9703H33.5773C33.1516 62.9703 32.7377 63.1094 32.3983 63.3664L23.7274 69.9325V66.6001C23.7274 65.5214 22.853 64.6471 21.7743 64.6471H1.95308C0.874394 64.6471 0 65.5214 0 66.6001V90.574C0 91.6527 0.874394 92.5271 1.95308 92.5271H21.7743C22.853 92.5271 23.7274 91.6527 23.7274 90.574V88.293L53.2429 96.6215C54.2167 96.9123 55.2171 97.0566 56.2149 97.0566C57.7387 97.0566 59.2556 96.7199 60.6587 96.0545L95.1528 79.6953C97.512 78.5928 99.1996 76.4895 99.783 73.9244C100.372 71.3352 99.7492 68.6782 98.0744 66.6341ZM19.8212 88.6207H3.90616V68.5532H19.8212V88.6207ZM95.9741 73.058C95.6602 74.4386 94.7579 75.5681 93.489 76.161L58.9849 92.5249C57.5338 93.2128 55.8879 93.3372 54.3503 92.8753C54.3397 92.872 54.3292 92.869 54.3186 92.8661L23.7274 84.2341V74.8322L34.2334 66.8765H59.9312C63.0046 66.8765 65.5049 69.4354 65.5049 72.5805V74.7558H51.5738C50.4953 74.7558 49.6207 75.6302 49.6207 76.7089C49.6207 77.7876 50.4953 78.662 51.5738 78.662H67.4615H67.465C67.4666 78.6622 67.4674 78.662 67.4687 78.662C67.7882 78.6602 68.0896 78.5819 68.3552 78.4442L89.7502 67.9358C91.5723 67.0407 93.7531 67.5232 95.053 69.1098C95.9577 70.2143 96.2936 71.6533 95.9741 73.058Z" fill="black"/>
<path d="M62.0575 57.2027C77.8284 57.2027 90.6588 44.3722 90.6588 28.6013C90.6588 12.8306 77.8284 0 62.0575 0C46.2866 0 33.4562 12.8306 33.4562 28.6013C33.4562 44.3722 46.2868 57.2027 62.0575 57.2027ZM62.0575 53.2966C60.847 53.2966 59.6564 53.2089 58.492 53.0398C60.8482 51.4103 63.5653 48.9305 65.2301 45.1382C66.4139 42.4418 68.3271 38.7506 71.261 37.8337C72.9631 37.3021 74.9951 37.7518 77.3031 39.1704C78.2128 39.7295 80.2893 41.2672 82.2686 42.7775C77.796 49.1348 70.4036 53.2966 62.0575 53.2966ZM86.5833 25.7013C83.6554 26.5296 78.1372 27.5677 75.399 24.6898C74.7711 24.0291 74.2379 23.3508 73.7221 22.6952C72.2684 20.8468 70.7651 18.9353 67.7714 18.4861C65.1305 18.0908 63.1569 19.3124 61.7167 20.2048C60.7007 20.8345 60.0533 21.2095 59.6091 21.094C52.9296 19.3628 53.3919 14.1036 54.6071 7.91973C54.8491 6.68851 55.0385 5.72428 55.0635 4.91434C57.2818 4.2583 59.6293 3.90596 62.0573 3.90596C74.6937 3.90596 85.1435 13.4458 86.5833 25.7013ZM50.889 6.57895C50.85 6.78187 50.8109 6.98128 50.7744 7.16663C50.2681 9.74235 49.5748 13.2698 50.2543 16.6105C51.1226 20.8794 53.9403 23.6602 58.6299 24.8754C60.7208 25.4176 62.414 24.368 63.7743 23.5252C64.9514 22.7959 65.9672 22.1661 67.1924 22.3491C68.591 22.559 69.3019 23.3934 70.6518 25.11C71.1964 25.8025 71.8137 26.5873 72.568 27.3814C74.8172 29.7454 77.9202 30.4846 80.9225 30.4846C83.0146 30.4846 85.0576 30.1255 86.728 29.7071C86.5749 33.1658 85.7068 36.4419 84.2685 39.3911C82.5947 38.1184 80.4378 36.5126 79.3483 35.8429C76.0355 33.8064 72.9225 33.2219 70.0952 34.1054C65.6406 35.4978 63.1436 40.1727 61.653 43.5681C59.8845 47.5963 56.6356 49.7873 53.3882 51.5548C53.3282 51.5875 53.2706 51.6228 53.2155 51.6607C51.1164 50.8531 49.1545 49.7668 47.3754 48.4471C47.7164 48.2473 48.0631 48.0506 48.4061 47.8559C51.1252 46.3128 54.2069 44.5636 54.1649 41.2623C54.1438 39.6 53.0138 38.2208 51.8175 36.7605C50.7326 35.4361 49.5031 33.9349 49.0059 32.1561C48.5008 30.3503 48.2301 28.2597 48.2008 25.9424C48.1418 21.2438 45.7499 16.9793 41.8471 14.4243C44.1673 11.1267 47.2727 8.4205 50.889 6.57895ZM39.8561 17.7918C42.5873 19.6507 44.2538 22.6727 44.2956 25.991C44.329 28.6472 44.6484 31.0752 45.2444 33.2074C45.9624 35.7757 47.5338 37.694 48.7963 39.2352C49.3537 39.9155 50.1939 40.9414 50.2596 41.3242C50.2549 42.315 48.2491 43.4535 46.4784 44.4583C45.7536 44.8696 45.014 45.2896 44.3011 45.7472C40.0074 41.302 37.3624 35.2546 37.3624 28.6011C37.3624 24.727 38.2592 21.0583 39.8561 17.7918Z" fill="black"/>
</g>
</svg>
