<svg width="100" height="100" viewBox="0 0 100 100" fill="none" xmlns="http://www.w3.org/2000/svg">
<path opacity="0.05" d="M87.5196 75.0507C84.9818 75.0521 82.5062 75.8363 80.4307 77.2961L72.8427 69.5119C77.4303 64.1031 79.9483 57.2422 79.9483 50.1512C79.9483 43.0602 77.4303 36.1993 72.8427 30.7905L80.5805 23.1061C82.8912 24.6511 85.6519 25.3806 88.4246 25.1791C91.1973 24.9776 93.8233 23.8565 95.8862 21.9936C97.949 20.1308 99.3305 17.6328 99.8116 14.896C100.293 12.1592 99.8457 9.34012 98.5418 6.886C97.2378 4.43188 95.1514 2.48319 92.6134 1.34901C90.0755 0.214834 87.2314 -0.0398993 84.5322 0.625217C81.833 1.29033 79.4332 2.83722 77.7135 5.02052C75.9938 7.20382 75.0526 9.89854 75.0392 12.6773C75.0537 15.1431 75.7819 17.552 77.1359 19.6132L69.3981 27.2477C63.9939 22.6885 57.1502 20.1875 50.0784 20.1875C43.0066 20.1875 36.1629 22.6885 30.7588 27.2477L22.971 19.6631C24.729 17.0886 25.4676 13.9532 25.0437 10.8652C24.6198 7.77713 23.0636 4.9565 20.6769 2.95042C18.2901 0.94434 15.2431 -0.104201 12.1267 0.00818272C9.01028 0.120566 6.04673 1.38586 3.81084 3.55865C1.57496 5.73143 0.226116 8.65682 0.0259577 11.7674C-0.174201 14.8779 0.788589 17.9519 2.72757 20.3931C4.66656 22.8343 7.44353 24.4686 10.5198 24.9792C13.5961 25.4897 16.7525 24.8399 19.3767 23.156L27.2143 30.7905C22.6267 36.1993 20.1087 43.0602 20.1087 50.1512C20.1087 57.2422 22.6267 64.1031 27.2143 69.5119L19.776 77.346C17.6971 75.8495 15.1991 75.0464 12.6372 75.0507C10.1689 75.0507 7.7559 75.7823 5.70351 77.153C3.65112 78.5237 2.05148 80.472 1.10687 82.7515C0.162256 85.0309 -0.0848977 87.5392 0.396661 89.959C0.87822 92.3789 2.06686 94.6016 3.81228 96.3463C5.55769 98.0909 7.78148 99.279 10.2024 99.7603C12.6234 100.242 15.1328 99.9946 17.4133 99.0504C19.6938 98.1062 21.643 96.5073 23.0143 94.4559C24.3857 92.4044 25.1176 89.9926 25.1176 87.5253C25.1171 85.2109 24.4593 82.9441 23.2206 80.9886L30.8586 73.0048C31.8691 73.8581 32.9366 74.6416 34.0536 75.35C38.8126 78.3784 44.337 79.9869 49.9786 79.9869C55.6201 79.9869 61.1446 78.3784 65.9036 75.35C67.0206 74.6416 68.088 73.8581 69.0985 73.0048L76.7865 80.9387C75.5938 82.9254 74.9881 85.209 75.0392 87.5253C75.0392 89.9926 75.7712 92.4044 77.1425 94.4559C78.5139 96.5073 80.4631 98.1062 82.7436 99.0504C85.0241 99.9946 87.5334 100.242 89.9544 99.7603C92.3754 99.279 94.5992 98.0909 96.3446 96.3463C98.09 94.6016 99.2786 92.3789 99.7602 89.959C100.242 87.5392 99.9946 85.0309 99.05 82.7515C98.1054 80.472 96.5057 78.5237 94.4533 77.153C92.4009 75.7823 89.988 75.0507 87.5196 75.0507ZM87.5196 5.19247C88.7531 5.15925 89.9758 5.43125 91.0788 5.98428C92.1818 6.5373 93.1309 7.35422 93.8419 8.36237C94.5528 9.37051 95.0034 10.5386 95.1537 11.7629C95.304 12.9871 95.1493 14.2295 94.7034 15.3796C94.2574 16.5296 93.534 17.5517 92.5975 18.3549C91.661 19.1581 90.5405 19.7175 89.3355 19.9834C88.1306 20.2493 86.8785 20.2134 85.6908 19.8789C84.503 19.5445 83.4164 18.9218 82.5274 18.0663C81.1854 16.7439 80.3996 14.9589 80.3309 13.0765C80.2772 12.0852 80.4213 11.0932 80.7548 10.1581C81.0884 9.22303 81.6047 8.36363 82.2737 7.62992C82.9427 6.89621 83.751 6.30285 84.6516 5.88439C85.5523 5.46593 86.5272 5.23072 87.5196 5.19247ZM5.14901 12.6773C5.14901 10.6922 5.93795 8.78839 7.34226 7.38471C8.74658 5.98104 10.6512 5.19247 12.6372 5.19247C14.6232 5.19247 16.5279 5.98104 17.9322 7.38471C19.3365 8.78839 20.1255 10.6922 20.1255 12.6773C20.1303 13.6726 19.9338 14.6587 19.5478 15.5762C19.1617 16.4937 18.5941 17.3237 17.879 18.0164C16.4773 19.3856 14.5971 20.1552 12.6372 20.1621C10.6512 20.1621 8.74658 19.3735 7.34226 17.9698C5.93795 16.5662 5.14901 14.6624 5.14901 12.6773ZM50.0784 25.1519C55.0396 25.172 59.8823 26.6693 63.9883 29.4527C68.0942 32.2362 71.2772 36.1796 73.1308 40.7794C74.9845 45.3793 75.4247 50.4269 74.3953 55.2779C73.3658 60.129 70.9135 64.5633 67.3513 68.0149C66.9184 64.117 65.1554 60.487 62.3591 57.7358C61.0778 56.4756 59.6136 55.4158 58.016 54.5922C59.4245 53.4466 60.559 52.0007 61.3364 50.3603C62.1138 48.7199 62.5144 46.9265 62.5089 45.1114C62.5181 43.0097 61.9958 40.9397 60.9907 39.0936C59.9855 37.2476 58.53 35.6853 56.7593 34.5518C54.9885 33.4184 52.96 32.7505 50.862 32.6101C48.7639 32.4698 46.6644 32.8616 44.7584 33.7491C42.8524 34.6366 41.2016 35.9911 39.9593 37.6868C38.717 39.3826 37.9234 41.3646 37.6524 43.4488C37.3813 45.533 37.6415 47.6519 38.4087 49.6087C39.1759 51.5656 40.4254 53.2969 42.041 54.6421C39.5181 55.9504 37.356 57.8592 35.7454 60.2C34.1347 62.5408 33.1251 65.2419 32.8056 68.0648C29.2259 64.6162 26.7582 60.1776 25.7186 55.318C24.6791 50.4584 25.1151 45.3992 26.9708 40.7889C28.8265 36.1786 32.0173 32.2272 36.1342 29.4413C40.2512 26.6553 45.1067 25.1617 50.0784 25.1519ZM42.5902 45.1114C42.5902 43.6311 43.0294 42.184 43.8522 40.9531C44.675 39.7222 45.8445 38.7629 47.2128 38.1964C48.5811 37.6299 50.0867 37.4816 51.5393 37.7704C52.9919 38.0592 54.3262 38.7721 55.3734 39.8189C56.4207 40.8656 57.1338 42.1993 57.4228 43.6512C57.7117 45.1031 57.5634 46.6081 56.9967 47.9757C56.4299 49.3434 55.4701 50.5124 54.2387 51.3348C53.0072 52.1573 51.5595 52.5962 50.0784 52.5962C48.0924 52.5962 46.1878 51.8077 44.7834 50.404C43.3791 49.0003 42.5902 47.0965 42.5902 45.1114ZM12.6372 95.0101C10.6512 95.0101 8.74658 94.2215 7.34226 92.8179C5.93795 91.4142 5.14901 89.5104 5.14901 87.5253C5.14901 85.5402 5.93795 83.6364 7.34226 82.2328C8.74658 80.8291 10.6512 80.0405 12.6372 80.0405C13.6496 80.0357 14.6518 80.2418 15.5801 80.6456C16.5084 81.0494 17.3423 81.642 18.0288 82.3858C19.2832 83.7411 19.9631 85.5297 19.9258 87.3756C19.966 89.3524 19.2222 91.2648 17.8566 92.6952C16.491 94.1256 14.6146 94.9578 12.6372 95.0101ZM37.598 71.5577V70.0608C37.598 66.7523 38.9129 63.5793 41.2535 61.2398C43.594 58.9004 46.7684 57.5861 50.0784 57.5861C53.3884 57.5861 56.5629 58.9004 58.9034 61.2398C61.2439 63.5793 62.5588 66.7523 62.5588 70.0608V71.5577C58.798 73.8447 54.4806 75.0543 50.0784 75.0543C45.6763 75.0543 41.3589 73.8447 37.598 71.5577ZM87.5196 95.0101C86.0733 95.0252 84.6541 94.6184 83.4355 93.8397C82.2169 93.0609 81.2519 91.944 80.6586 90.6255C80.0653 89.3071 79.8694 87.8443 80.0949 86.4163C80.3205 84.9883 80.9576 83.657 81.9284 82.5854V82.3359C82.6458 81.5809 83.5148 80.9861 84.4784 80.5905C85.442 80.195 86.4784 80.0075 87.5196 80.0405C89.5056 80.0405 91.4103 80.8291 92.8146 82.2328C94.2189 83.6364 95.0078 85.5402 95.0078 87.5253C95.0078 89.5104 94.2189 91.4142 92.8146 92.8179C91.4103 94.2215 89.5056 95.0101 87.5196 95.0101Z" fill="black"/>
</svg>
