<svg width="100" height="100" viewBox="0 0 100 100" fill="none" xmlns="http://www.w3.org/2000/svg">
<path opacity="0.05" d="M92.4516 10.0479H83.5062L74.2111 0.802707C74.029 0.475758 73.7495 0.213725 73.4115 0.0530995C73.099 -0.0176998 72.7746 -0.0176998 72.462 0.0530995H27.4856C27.1731 -0.0176998 26.8486 -0.0176998 26.5361 0.0530995C26.2243 0.159647 25.9477 0.3498 25.7365 0.602811L16.4414 10.0479H7.49607C5.50799 10.0479 3.60134 10.8376 2.19555 12.2434C0.789763 13.6492 0 15.5559 0 17.5439V82.5099C0 84.498 0.789763 86.4046 2.19555 87.8104C3.60134 89.2162 5.50799 90.006 7.49607 90.006H39.9791L47.9749 99.1512C48.2139 99.4182 48.5066 99.6319 48.8338 99.7781C49.1611 99.9244 49.5154 100 49.8739 100C50.2323 100 50.5867 99.9244 50.9139 99.7781C51.2411 99.6319 51.5338 99.4182 51.7729 99.1512L59.9686 90.006H92.4516C94.4396 90.006 96.3463 89.2162 97.7521 87.8104C99.1579 86.4046 99.9476 84.498 99.9476 82.5099V17.5439C99.9476 15.5559 99.1579 13.6492 97.7521 12.2434C96.3463 10.8376 94.4396 10.0479 92.4516 10.0479ZM51.4231 30.0374H48.5246L41.0285 22.5413L43.5272 20.0426H56.4204L58.9191 22.5413L51.4231 30.0374ZM56.4204 15.0452H43.5272L33.5324 5.05048H66.4152L56.4204 15.0452ZM61.018 17.5439L72.462 6.09993L78.9087 12.5466L67.4647 23.9906L61.018 17.5439ZM27.4856 6.09993L38.9296 17.5439L32.483 23.9906L21.039 12.5466L27.4856 6.09993ZM7.49607 85.0086C6.83338 85.0086 6.19783 84.7453 5.72923 84.2767C5.26064 83.8081 4.99738 83.1726 4.99738 82.5099V17.5439C4.99738 16.8812 5.26064 16.2457 5.72923 15.7771C6.19783 15.3085 6.83338 15.0452 7.49607 15.0452H16.4414L30.7339 29.2878C30.9582 29.5268 31.2292 29.7173 31.53 29.8476C31.8308 29.9778 32.1552 30.045 32.483 30.045C32.8108 30.045 33.1351 29.9778 33.436 29.8476C33.7368 29.7173 34.0077 29.5268 34.2321 29.2878L37.4804 26.0895L44.6266 33.2357L29.9843 76.7129C29.8436 77.1255 29.8111 77.5672 29.8898 77.9959C29.9686 78.4247 30.1559 78.826 30.4341 79.1617L35.4314 85.0086H7.49607ZM49.9738 93.704L35.2815 76.9628L49.2742 35.0348H50.6735L64.6661 76.9628L49.9738 93.704ZM94.9502 82.5099C94.9502 83.1726 94.687 83.8081 94.2184 84.2767C93.7498 84.7453 93.1143 85.0086 92.4516 85.0086H64.2164L69.2137 79.1617C69.4918 78.826 69.6792 78.4247 69.758 77.9959C69.8367 77.5672 69.8042 77.1255 69.6635 76.7129L55.1711 33.2357L62.4673 26.0895L65.7156 29.2878C65.9399 29.5268 66.2108 29.7173 66.5117 29.8476C66.8125 29.9778 67.1368 30.045 67.4647 30.045C67.7925 30.045 68.1168 29.9778 68.4176 29.8476C68.7185 29.7173 68.9894 29.5268 69.2137 29.2878L83.5062 15.0452H92.4516C93.1143 15.0452 93.7498 15.3085 94.2184 15.7771C94.687 16.2457 94.9502 16.8812 94.9502 17.5439V82.5099Z" fill="black"/>
</svg>
