<svg width="86" height="100" viewBox="0 0 86 100" fill="none" xmlns="http://www.w3.org/2000/svg">
<g opacity="0.05">
<path d="M54.6964 8.0762H10.4439C10.0257 8.0762 9.62467 8.24288 9.32897 8.53957C9.03327 8.83626 8.86714 9.23865 8.86714 9.65823V30.6043C8.86714 31.0239 9.03327 31.4263 9.32897 31.723C9.62467 32.0197 10.0257 32.1864 10.4439 32.1864H54.6964C55.1146 32.1864 55.5157 32.0197 55.8114 31.723C56.1071 31.4263 56.2732 31.0239 56.2732 30.6043V9.66761C56.2741 9.45915 56.2341 9.25256 56.1553 9.05968C56.0765 8.86679 55.9605 8.69141 55.814 8.54357C55.6675 8.39573 55.4934 8.27835 55.3016 8.19815C55.1099 8.11795 54.9042 8.07651 54.6964 8.0762ZM53.1197 29.0223H12.0207V11.2496H53.1197V29.0223Z" fill="#231F20"/>
<path d="M18.3463 34.9074C17.1695 34.9074 16.0191 35.2575 15.0405 35.9132C14.0619 36.569 13.299 37.5011 12.8483 38.5918C12.3975 39.6825 12.2791 40.8828 12.508 42.0409C12.7369 43.1991 13.3028 44.2632 14.1343 45.0987C14.9658 45.9343 16.0254 46.5038 17.1794 46.7353C18.3334 46.9668 19.5298 46.8498 20.6176 46.3993C21.7053 45.9487 22.6356 45.1848 23.2907 44.2039C23.9458 43.2231 24.2965 42.0694 24.2983 40.8887C24.299 40.1038 24.1455 39.3265 23.8467 38.6012C23.5479 37.8759 23.1097 37.2167 22.557 36.6612C22.0043 36.1058 21.348 35.6651 20.6255 35.3642C19.903 35.0633 19.1286 34.9081 18.3463 34.9074ZM18.3463 43.6848C17.7919 43.6848 17.2499 43.5198 16.789 43.2108C16.328 42.9017 15.9687 42.4625 15.7565 41.9486C15.5444 41.4347 15.4889 40.8692 15.597 40.3236C15.7052 39.778 15.9722 39.2769 16.3642 38.8835C16.7562 38.4902 17.2557 38.2223 17.7994 38.1138C18.3432 38.0053 18.9068 38.061 19.419 38.2739C19.9312 38.4867 20.369 38.8472 20.6771 39.3097C20.9851 39.7723 21.1495 40.316 21.1495 40.8723C21.1495 41.6182 20.8541 42.3336 20.3284 42.861C19.8027 43.3885 19.0898 43.6848 18.3463 43.6848Z" fill="#231F20"/>
<path d="M32.5702 34.9074C31.3932 34.9065 30.2423 35.2557 29.2631 35.911C28.2839 36.5662 27.5202 37.498 27.0688 38.5886C26.6173 39.6792 26.4982 40.8796 26.7266 42.038C26.9549 43.1965 27.5205 44.2611 28.3518 45.0971C29.1831 45.9331 30.2428 46.5031 31.3969 46.7349C32.551 46.9668 33.7477 46.8502 34.8357 46.3997C35.9237 45.9493 36.8542 45.1853 37.5096 44.2044C38.1649 43.2235 38.5157 42.0696 38.5175 40.8887C38.5182 39.3046 37.8922 37.785 36.7771 36.6636C35.662 35.5422 34.149 34.9105 32.5702 34.9074ZM32.5702 43.6848C32.0157 43.6848 31.4738 43.5198 31.0128 43.2108C30.5518 42.9017 30.1925 42.4625 29.9804 41.9486C29.7682 41.4347 29.7127 40.8692 29.8209 40.3236C29.929 39.778 30.196 39.2769 30.588 38.8835C30.9801 38.4902 31.4795 38.2223 32.0233 38.1138C32.567 38.0053 33.1307 38.061 33.6429 38.2739C34.1551 38.4867 34.5929 38.8472 34.9009 39.3097C35.2089 39.7723 35.3733 40.316 35.3733 40.8723C35.3733 41.6182 35.078 42.3336 34.5523 42.861C34.0266 43.3885 33.3136 43.6848 32.5702 43.6848Z" fill="#231F20"/>
<path d="M46.7937 34.9074C45.6168 34.907 44.4662 35.2566 43.4873 35.9121C42.5084 36.5676 41.7451 37.4996 41.294 38.5902C40.8429 39.6808 40.7241 40.8812 40.9527 42.0395C41.1814 43.1978 41.7471 44.2621 42.5785 45.0979C43.4099 45.9337 44.4696 46.5035 45.6236 46.7351C46.7777 46.9668 47.9742 46.85 49.0621 46.3995C50.15 45.949 51.0804 45.1851 51.7356 44.2042C52.3909 43.2233 52.7416 42.0695 52.7434 40.8887C52.744 39.3042 52.1178 37.7843 51.0022 36.6628C49.8866 35.5413 48.3729 34.9099 46.7937 34.9074ZM46.7937 43.6848C46.2393 43.6848 45.6973 43.5198 45.2364 43.2108C44.7754 42.9018 44.4161 42.4625 44.2039 41.9486C43.9918 41.4347 43.9363 40.8692 44.0444 40.3236C44.1526 39.778 44.4196 39.2769 44.8116 38.8835C45.2036 38.4902 45.7031 38.2224 46.2469 38.1138C46.7906 38.0053 47.3542 38.061 47.8664 38.2739C48.3786 38.4867 48.8164 38.8472 49.1245 39.3097C49.4325 39.7723 49.5969 40.316 49.5969 40.8723C49.5969 41.6182 49.3015 42.3336 48.7759 42.861C48.2502 43.3885 47.5372 43.6848 46.7937 43.6848Z" fill="#231F20"/>
<path d="M18.3463 48.5081C17.1692 48.5081 16.0186 48.8583 15.0398 49.5144C14.061 50.1705 13.2981 51.1031 12.8476 52.1941C12.397 53.2852 12.279 54.4858 12.5085 55.6442C12.738 56.8026 13.3046 57.8667 14.1368 58.7019C14.9689 59.5372 16.0293 60.1062 17.1837 60.3369C18.3381 60.5675 19.5348 60.4496 20.6224 59.998C21.7101 59.5463 22.6398 58.7813 23.2941 57.7995C23.9484 56.8178 24.2979 55.6634 24.2984 54.4824C24.2977 52.8985 23.6705 51.3796 22.5545 50.2595C21.4385 49.1393 19.9249 48.5094 18.3463 48.5081ZM18.3463 57.2855C17.7919 57.2855 17.2499 57.1205 16.789 56.8115C16.328 56.5025 15.9687 56.0632 15.7565 55.5493C15.5444 55.0354 15.4889 54.4699 15.597 53.9243C15.7052 53.3787 15.9722 52.8776 16.3642 52.4843C16.7562 52.0909 17.2557 51.8231 17.7995 51.7145C18.3432 51.606 18.9068 51.6617 19.419 51.8746C19.9313 52.0875 20.369 52.4479 20.6771 52.9104C20.9851 53.373 21.1495 53.9167 21.1495 54.473C21.1507 54.8431 21.0791 55.2099 20.9388 55.5522C20.7985 55.8945 20.5922 56.2056 20.3318 56.4678C20.0713 56.73 19.7619 56.938 19.4212 57.0799C19.0805 57.2218 18.7152 57.2949 18.3463 57.2949V57.2855Z" fill="#231F20"/>
<path d="M32.5701 48.5081C31.3928 48.5072 30.2417 48.8566 29.2623 49.5121C28.2829 50.1677 27.5193 51.0999 27.068 52.1909C26.6167 53.2819 26.4981 54.4826 26.727 55.6413C26.9559 56.8 27.5222 57.8645 28.3542 58.7003C29.1862 59.536 30.2465 60.1054 31.4011 60.3365C32.5556 60.5676 33.7526 60.4499 34.8405 59.9984C35.9284 59.5469 36.8584 58.7819 37.5129 57.8C38.1674 56.8181 38.517 55.6636 38.5175 54.4824C38.5168 52.8993 37.8903 51.3812 36.7753 50.2611C35.6602 49.1411 34.1479 48.5106 32.5701 48.5081ZM32.5701 57.2855C32.0157 57.2855 31.4737 57.1205 31.0127 56.8115C30.5518 56.5024 30.1925 56.0632 29.9803 55.5493C29.7681 55.0354 29.7126 54.4699 29.8208 53.9243C29.929 53.3787 30.1959 52.8776 30.588 52.4842C30.98 52.0909 31.4795 51.823 32.0232 51.7145C32.567 51.606 33.1306 51.6617 33.6428 51.8746C34.155 52.0874 34.5928 52.4479 34.9008 52.9104C35.2088 53.3729 35.3732 53.9167 35.3732 54.473C35.3745 54.8431 35.3029 55.2098 35.1626 55.5522C35.0222 55.8945 34.816 56.2056 34.5555 56.4678C34.2951 56.7299 33.9857 56.9379 33.645 57.0799C33.3043 57.2218 32.939 57.2949 32.5701 57.2948V57.2855Z" fill="#231F20"/>
<path d="M46.7937 48.5081C45.6165 48.5077 44.4656 48.8575 43.4865 49.5133C42.5075 50.1691 41.7442 51.1015 41.2933 52.1925C40.8424 53.2836 40.724 54.4843 40.9532 55.6428C41.1824 56.8013 41.7489 57.8656 42.581 58.7011C43.413 59.5366 44.4734 60.1058 45.6279 60.3367C46.7824 60.5676 47.9791 60.4498 49.0669 59.9982C50.1547 59.5466 51.0846 58.7816 51.739 57.7998C52.3934 56.818 52.7429 55.6635 52.7434 54.4824C52.7427 52.8989 52.1158 51.3804 51.0003 50.2603C49.8848 49.1402 48.3719 48.51 46.7937 48.5081ZM46.7937 57.2855C46.2393 57.2855 45.6973 57.1205 45.2363 56.8115C44.7753 56.5025 44.4161 56.0632 44.2039 55.5493C43.9917 55.0354 43.9362 54.4699 44.0444 53.9243C44.1525 53.3787 44.4195 52.8776 44.8115 52.4843C45.2036 52.0909 45.703 51.8231 46.2468 51.7145C46.7906 51.606 47.3542 51.6617 47.8664 51.8746C48.3786 52.0875 48.8164 52.4479 49.1244 52.9104C49.4324 53.373 49.5968 53.9167 49.5968 54.473C49.598 54.8431 49.5264 55.2099 49.3861 55.5522C49.2458 55.8945 49.0395 56.2056 48.7791 56.4678C48.5187 56.73 48.2093 56.938 47.8686 57.0799C47.5278 57.2218 47.1626 57.2949 46.7937 57.2949V57.2855Z" fill="#231F20"/>
<path d="M27.3048 28.2324C27.6995 28.3713 28.133 28.3477 28.5104 28.1667C28.8877 27.9857 29.1783 27.6621 29.3184 27.2667L29.9935 25.3402H33.7521L34.4272 27.2667C34.5361 27.5755 34.7377 27.8428 35.0041 28.0321C35.2705 28.2213 35.5888 28.3232 35.9152 28.3238C36.0942 28.3229 36.2719 28.292 36.4408 28.2324C36.8351 28.0928 37.158 27.8018 37.3385 27.4233C37.5189 27.0449 37.5422 26.61 37.4032 26.2144L33.3596 14.7066C33.2511 14.3979 33.0497 14.1307 32.7835 13.9417C32.5172 13.7527 32.199 13.6512 31.8728 13.6512C31.5466 13.6512 31.2284 13.7527 30.9622 13.9417C30.6959 14.1307 30.4946 14.3979 30.386 14.7066L26.3424 26.2144C26.2034 26.61 26.2267 27.0449 26.4071 27.4233C26.5876 27.8018 26.9105 28.0928 27.3048 28.2324ZM32.6402 22.1761H31.1054L31.874 19.9917L32.6402 22.1761Z" fill="#CD4051"/>
<path d="M19.0099 16.7012H20.7408V26.627C20.7408 27.0466 20.9069 27.449 21.2026 27.7457C21.4983 28.0424 21.8994 28.209 22.3176 28.209C22.7358 28.209 23.1368 28.0424 23.4325 27.7457C23.7282 27.449 23.8944 27.0466 23.8944 26.627V16.7012H25.6253C26.0435 16.7012 26.4446 16.5346 26.7403 16.2379C27.036 15.9412 27.2021 15.5388 27.2021 15.1192C27.2021 14.6996 27.036 14.2972 26.7403 14.0005C26.4446 13.7038 26.0435 13.5372 25.6253 13.5372H19.0099C18.5917 13.5372 18.1906 13.7038 17.8949 14.0005C17.5992 14.2972 17.4331 14.6996 17.4331 15.1192C17.4331 15.5388 17.5992 15.9412 17.8949 16.2379C18.1906 16.5346 18.5917 16.7012 19.0099 16.7012Z" fill="#CD4051"/>
<path d="M38.6366 27.9699C38.8145 28.0763 39.0115 28.1465 39.2165 28.1765C39.4214 28.2064 39.6302 28.1955 39.8309 28.1443C40.0316 28.0931 40.2203 28.0028 40.3862 27.8783C40.552 27.7539 40.6918 27.5978 40.7974 27.4191L42.8531 23.9574L44.9064 27.4191C45.0098 27.6023 45.1487 27.7629 45.3149 27.8915C45.481 28.0201 45.671 28.1142 45.8739 28.1682C46.0767 28.2221 46.2882 28.235 46.4961 28.2058C46.7039 28.1767 46.9039 28.1063 47.0842 27.9987C47.2646 27.891 47.4217 27.7484 47.5464 27.579C47.6711 27.4097 47.7608 27.2171 47.8103 27.0125C47.8599 26.8079 47.8682 26.5954 47.8348 26.3875C47.8015 26.1797 47.7271 25.9806 47.6161 25.8019L44.6868 20.866L47.6278 15.9277C47.7388 15.7491 47.8132 15.55 47.8465 15.3421C47.8799 15.1342 47.8715 14.9218 47.822 14.7172C47.7725 14.5126 47.6827 14.32 47.558 14.1506C47.4334 13.9813 47.2762 13.8386 47.0959 13.731C46.9155 13.6233 46.7156 13.5529 46.5077 13.5238C46.2999 13.4947 46.0884 13.5075 45.8856 13.5615C45.6827 13.6155 45.4927 13.7095 45.3265 13.8381C45.1604 13.9668 45.0215 14.1274 44.918 14.3105L42.8647 17.7722L40.8091 14.3105C40.7056 14.1274 40.5667 13.9668 40.4006 13.8381C40.2345 13.7095 40.0444 13.6155 39.8416 13.5615C39.6387 13.5075 39.4272 13.4947 39.2194 13.5238C39.0116 13.5529 38.8116 13.6233 38.6313 13.731C38.4509 13.8386 38.2938 13.9813 38.1691 14.1506C38.0444 14.32 37.9547 14.5126 37.9051 14.7172C37.8556 14.9218 37.8473 15.1342 37.8806 15.3421C37.914 15.55 37.9883 15.7491 38.0994 15.9277L41.0287 20.866L38.0994 25.8019C37.8853 26.1612 37.8217 26.5909 37.9224 26.9971C38.023 27.4033 38.2798 27.753 38.6366 27.9699Z" fill="#CD4051"/>
<path d="M77.6099 63.3559L63.9282 59.1371V9.36056C63.9257 7.0601 63.0148 4.85436 61.3948 3.22637C59.7749 1.59838 57.5779 0.680821 55.2851 0.674622H9.867C7.57419 0.680821 5.37726 1.59838 3.75731 3.22637C2.13735 4.85436 1.2264 7.0601 1.22394 9.36056V66.1027C1.22641 68.405 2.13904 70.6123 3.76159 72.2402C5.38413 73.8682 7.58406 74.7839 9.87868 74.7863H41.7576C42.9069 76.1364 43.7174 77.3645 44.1426 78.384L44.4346 79.1035C45.995 82.9403 47.7563 87.2692 55.0492 92.2145V97.3332C55.0492 97.7528 55.2153 98.1552 55.511 98.4519C55.8067 98.7486 56.2078 98.9152 56.626 98.9152C57.0442 98.9152 57.4452 98.7486 57.7409 98.4519C58.0366 98.1552 58.2028 97.7528 58.2028 97.3332V91.366C58.2032 91.1024 58.1378 90.8428 58.0126 90.6111C57.8873 90.3794 57.7061 90.1828 57.4856 90.0395C50.417 85.434 48.8589 81.602 47.3569 77.9082L47.0555 77.1746C46.2239 75.159 44.4463 72.8082 41.7669 70.1879C41.3884 69.806 41.1633 69.2977 41.1346 68.7599C41.1059 68.2221 41.2756 67.6926 41.6113 67.2723C41.9469 66.852 42.4251 66.5705 42.9545 66.4814C43.4838 66.3924 44.0274 66.502 44.4813 66.7895C47.0742 68.484 51.634 71.8942 53.059 75.677C53.1898 76.0226 53.4372 76.3113 53.7581 76.493C54.079 76.6746 54.4532 76.7378 54.8157 76.6715C55.1781 76.6053 55.5061 76.4137 55.7425 76.1301C55.9789 75.8465 56.1088 75.4889 56.1097 75.1192V46.134C56.1097 45.5124 56.3558 44.9163 56.7939 44.4767C57.232 44.0372 57.8262 43.7903 58.4457 43.7903C59.0652 43.7903 59.6594 44.0372 60.0975 44.4767C60.5355 44.9163 60.7817 45.5124 60.7817 46.134V67.5559C60.7817 67.9755 60.9478 68.3779 61.2435 68.6745C61.5392 68.9712 61.9402 69.1379 62.3584 69.1379C62.7766 69.1379 63.1777 68.9712 63.4734 68.6745C63.7691 68.3779 63.9352 67.9755 63.9352 67.5559V62.4512L76.6942 66.377C77.833 66.7223 78.8302 67.4275 79.5374 68.3874C80.2445 69.3473 80.6237 70.5107 80.6187 71.7043V84.6254C80.6198 85.2222 80.5034 85.8132 80.2761 86.3647C80.0488 86.9161 79.7151 87.4171 79.2942 87.8387L77.4931 89.6434C77.3457 89.7901 77.2285 89.9646 77.1483 90.1568C77.0681 90.3491 77.0266 90.5553 77.0259 90.7637V97.3262C77.0259 97.7458 77.1921 98.1482 77.4878 98.4449C77.7835 98.7415 78.1845 98.9082 78.6027 98.9082C79.0209 98.9082 79.422 98.7415 79.7177 98.4449C80.0134 98.1482 80.1795 97.7458 80.1795 97.3262V91.4223L81.518 90.0793C82.2336 89.3655 82.8009 88.5163 83.1871 87.5809C83.5732 86.6455 83.7705 85.6425 83.7675 84.6301V71.709C83.7747 69.837 83.1793 68.0127 82.0698 66.5076C80.9603 65.0025 79.3961 63.8971 77.6099 63.3559ZM58.4036 40.6684C56.9593 40.6696 55.5744 41.2459 54.5531 42.2706C53.5317 43.2953 52.9574 44.6848 52.9562 46.134V69.7637C50.9192 67.4809 48.3707 65.5567 46.2052 64.1387C45.1727 63.4716 43.9426 63.1819 42.7221 63.3182C41.5015 63.4545 40.365 64.0085 39.5039 64.8871C38.6429 65.7656 38.1097 66.915 37.9943 68.1417C37.8789 69.3684 38.1883 70.5976 38.8703 71.6223H9.867C8.40856 71.6204 7.01039 71.0383 5.97912 70.0036C4.94785 68.9689 4.36766 67.566 4.36581 66.1027V9.36056C4.36705 7.89685 4.94696 6.49342 5.97829 5.4582C7.00963 4.42299 8.40816 3.84055 9.867 3.83868H55.2735C56.7321 3.84116 58.1303 4.4238 59.1615 5.45889C60.1927 6.49397 60.7728 7.89705 60.7747 9.36056V41.191C60.0318 40.8452 59.2225 40.6668 58.4036 40.6684Z" fill="#231F20"/>
</g>
</svg>
