<svg width="84" height="84" viewBox="0 0 84 84" fill="none" xmlns="http://www.w3.org/2000/svg">
<path d="M81.5833 35.7503C82.1359 35.7503 82.6658 35.5308 83.0565 35.1401C83.4472 34.7494 83.6667 34.2195 83.6667 33.667V27.417C83.6707 27.3476 83.6707 27.278 83.6667 27.2086C83.69 27.0707 83.69 26.9299 83.6667 26.792C83.6824 26.6674 83.6824 26.5415 83.6667 26.417C83.6126 26.2969 83.5425 26.1848 83.4583 26.0836C83.3509 25.9972 83.2531 25.8994 83.1667 25.792L60.5 11.7503C58.7439 8.35915 56.0895 5.51592 52.8269 3.5313C49.5642 1.54668 45.8189 0.497025 42 0.497025C38.1812 0.497025 34.4358 1.54668 31.1731 3.5313C27.9105 5.51592 25.2561 8.35915 23.5 11.7503L1.29168 25.667L0.958344 25.9586C0.874174 26.0598 0.804093 26.1719 0.75001 26.292C0.734323 26.4165 0.734323 26.5424 0.75001 26.667C0.726699 26.8049 0.726699 26.9457 0.75001 27.0836C0.75001 27.0836 0.75001 27.0836 0.75001 27.292V33.667C0.75001 34.2195 0.969504 34.7494 1.3602 35.1401C1.75091 35.5308 2.28081 35.7503 2.83334 35.7503H4.50001V67.0003H2.41668C1.86414 67.0003 1.33424 67.2198 0.943538 67.6105C0.552837 68.0012 0.333344 68.5311 0.333344 69.0836V81.5836C0.333344 82.1362 0.552837 82.6661 0.943538 83.0568C1.33424 83.4475 1.86414 83.667 2.41668 83.667H81.5833C82.1359 83.667 82.6658 83.4475 83.0565 83.0568C83.4472 82.6661 83.6667 82.1362 83.6667 81.5836V69.0836C83.6667 68.5311 83.4472 68.0012 83.0565 67.6105C82.6658 67.2198 82.1359 67.0003 81.5833 67.0003H79.5V35.7503H81.5833ZM79.5 28.5836V31.5836H59.9167C61.8135 28.4393 62.8216 24.8391 62.8333 21.167C62.807 20.0904 62.6956 19.0176 62.5 17.9586L79.5 28.5836ZM37.8333 67.0003V41.5836C40.5833 42.1392 43.4167 42.1392 46.1667 41.5836V67.0003H37.8333ZM21.1667 67.0003C21.1863 66.8481 21.1863 66.6941 21.1667 66.5419V35.7503H27.1667C29.0263 37.6514 31.2327 39.1789 33.6667 40.2503V67.0003H21.1667ZM50.3333 40.2503C52.7674 39.1789 54.9737 37.6514 56.8333 35.7503H62.8333V66.5419C62.8137 66.6941 62.8137 66.8481 62.8333 67.0003H50.3333V40.2503ZM42 4.50029C45.2964 4.50029 48.5187 5.47777 51.2595 7.30913C54.0003 9.14048 56.1365 11.7435 57.398 14.7889C58.6595 17.8343 58.9895 21.1854 58.3464 24.4185C57.7033 27.6515 56.116 30.6212 53.7851 32.9521C51.4542 35.2829 48.4845 36.8703 45.2515 37.5134C42.0185 38.1565 38.6674 37.8264 35.622 36.5649C32.5765 35.3035 29.9735 33.1673 28.1422 30.4265C26.3108 27.6856 25.3333 24.4633 25.3333 21.167C25.3333 16.7467 27.0893 12.5074 30.2149 9.38184C33.3405 6.25623 37.5797 4.50029 42 4.50029ZM24.0833 31.5836H4.50001V28.5836L21.5 17.9586C21.3023 19.0173 21.1909 20.0903 21.1667 21.167C21.1784 24.8391 22.1865 28.4393 24.0833 31.5836ZM8.66668 35.7503H17V66.5419C16.9804 66.6941 16.9804 66.8481 17 67.0003H8.66668V35.7503ZM79.5 79.5003H4.50001V71.167H79.5V79.5003ZM75.3333 67.0003H67C67.0196 66.8481 67.0196 66.6941 67 66.5419V35.7503H75.3333V67.0003Z" fill="black"/>
<path d="M42 29.5C43.6482 29.5 45.2594 29.0113 46.6298 28.0956C48.0002 27.1799 49.0683 25.8784 49.699 24.3557C50.3297 22.833 50.4948 21.1574 50.1732 19.5409C49.8517 17.9244 49.058 16.4396 47.8926 15.2741C46.7271 14.1087 45.2423 13.315 43.6258 12.9935C42.0093 12.6719 40.3337 12.837 38.811 13.4677C37.2883 14.0984 35.9868 15.1665 35.0711 16.5369C34.1554 17.9073 33.6667 19.5185 33.6667 21.1667C33.6667 23.3768 34.5447 25.4964 36.1075 27.0592C37.6703 28.622 39.7899 29.5 42 29.5ZM42 17C42.8241 17 43.6297 17.2444 44.3149 17.7022C45.0001 18.1601 45.5342 18.8108 45.8495 19.5722C46.1649 20.3335 46.2474 21.1713 46.0866 21.9796C45.9259 22.7878 45.529 23.5302 44.9463 24.113C44.3636 24.6957 43.6212 25.0925 42.8129 25.2533C42.0046 25.4141 41.1669 25.3315 40.4055 25.0162C39.6441 24.7008 38.9934 24.1668 38.5356 23.4816C38.0777 22.7964 37.8334 21.9908 37.8334 21.1667C37.8334 20.0616 38.2723 19.0018 39.0537 18.2204C39.8351 17.439 40.895 17 42 17Z" fill="black"/>
</svg>
