<svg width="100" height="100" viewBox="0 0 100 100" fill="none" xmlns="http://www.w3.org/2000/svg">
<g opacity="0.05">
<path d="M0 79.1667H60.4167V99.5125L72.9167 92.0125L85.4167 99.5125V79.1667H100V0H0V79.1667ZM81.8021 65.0292C81.6146 65.2188 81.4146 65.3937 81.2167 65.5708C81.1042 65.6708 81 65.7771 80.8833 65.8729C80.7542 65.9812 80.6167 66.0729 80.4833 66.175C78.7271 67.5187 76.6104 68.4125 74.3 68.6687C74.2625 68.6729 74.225 68.6812 74.1854 68.6854C73.7667 68.7271 73.3417 68.75 72.9125 68.75C72.4833 68.75 72.0583 68.7271 71.6396 68.6854C71.6021 68.6812 71.5646 68.6729 71.525 68.6687C69.2146 68.4125 67.1 67.5187 65.3417 66.175C65.2083 66.0729 65.0708 65.9792 64.9417 65.8729C64.8271 65.7771 64.7208 65.6708 64.6083 65.5708C64.4104 65.3937 64.2125 65.2188 64.0229 65.0292C61.7917 62.7708 60.4083 59.6708 60.4083 56.25C60.4083 49.3562 66.0146 43.75 72.9083 43.75C79.8021 43.75 85.4083 49.3562 85.4083 56.25C85.4167 59.6687 84.0354 62.7687 81.8021 65.0292ZM81.25 92.1542L72.9167 87.1542L64.5833 92.1542V79.1667V70.6875C64.6542 70.7292 64.7333 70.7562 64.8062 70.7958C65.3583 71.1042 65.9271 71.3875 66.5146 71.6333C66.5396 71.6437 66.5667 71.6521 66.5938 71.6625C68.5458 72.4667 70.6792 72.9167 72.9187 72.9167C75.1583 72.9167 77.2917 72.4667 79.2437 71.6625C79.2687 71.6521 79.2958 71.6437 79.3229 71.6333C79.9104 71.3875 80.4792 71.1062 81.0312 70.7958C81.1042 70.7562 81.1833 70.7292 81.2542 70.6875V79.1667V92.1542H81.25ZM4.16667 4.16667H95.8333V75H85.4167V67.2375C88.0021 64.3 89.5833 60.4604 89.5833 56.25C89.5833 47.0604 82.1062 39.5833 72.9167 39.5833C63.7271 39.5833 56.25 47.0604 56.25 56.25C56.25 60.4604 57.8312 64.3 60.4167 67.2375V75H4.16667V4.16667Z" fill="black"/>
<path d="M77.0842 12.5H22.9175V16.6667H77.0842V12.5Z" fill="black"/>
<path d="M66.6674 25.0001H33.334V29.1667H66.6674V25.0001Z" fill="black"/>
<path d="M35.4157 62.5001H12.4991V66.6668H35.4157V62.5001Z" fill="black"/>
</g>
</svg>
