<svg width="97" height="100" viewBox="0 0 97 100" fill="none" xmlns="http://www.w3.org/2000/svg">
<path d="M94.7729 5.22968H49.8351C48.9679 2.21375 46.1861 0 42.895 0C38.913 0 35.6733 3.23964 35.6733 7.22171V64.1757H17.9122C8.03526 64.1757 0 72.2112 0 82.0879C0 91.9645 8.03546 100 17.9122 100H77.9187C87.7954 100 95.8309 91.9645 95.8309 82.0879C95.8309 78.0721 94.4484 74.1229 91.938 70.9673C89.4699 67.8647 86.009 65.6369 82.1932 64.6944C81.1253 64.4307 80.0454 65.0827 79.7817 66.1506C79.5179 67.2187 80.1697 68.2984 81.2378 68.5622C87.4843 70.1052 91.847 75.6671 91.847 82.0879C91.847 89.7679 85.599 96.0159 77.9189 96.0159H17.9122C10.2321 96.0159 3.98406 89.7679 3.98406 82.0879C3.98406 74.4078 10.2321 68.1598 17.9122 68.1598H35.6733V77.7171C35.6733 81.6992 38.913 84.9389 42.895 84.9389C46.8771 84.9389 50.1167 81.6992 50.1167 77.7171V45.4028H94.7729C95.8729 45.4028 96.7649 44.5108 96.7649 43.4108V7.22171C96.7649 6.12151 95.8729 5.22968 94.7729 5.22968ZM46.1327 77.7171C46.1327 79.5024 44.6803 80.9548 42.895 80.9548C41.1098 80.9548 39.6574 79.5024 39.6574 77.7171V7.22171C39.6574 5.43645 41.1098 3.98406 42.895 3.98406C44.6803 3.98406 46.1327 5.43645 46.1327 7.22171V77.7171ZM92.7809 41.4187H50.1167V9.21375H92.7809V41.4187Z" fill="black"/>
</svg>
