<svg width="28" height="32" viewBox="0 0 28 32" fill="none" xmlns="http://www.w3.org/2000/svg">
<path d="M17.5028 2.58447H3.34197C3.20815 2.58447 3.07981 2.63781 2.98519 2.73275C2.89056 2.82769 2.8374 2.95646 2.8374 3.09072V9.79347C2.8374 9.92774 2.89056 10.0565 2.98519 10.1514C3.07981 10.2464 3.20815 10.2997 3.34197 10.2997H17.5028C17.6366 10.2997 17.7649 10.2464 17.8596 10.1514C17.9542 10.0565 18.0073 9.92774 18.0073 9.79347V3.09372C18.0076 3.02702 17.9948 2.96091 17.9696 2.89918C17.9444 2.83746 17.9073 2.78134 17.8604 2.73403C17.8135 2.68672 17.7578 2.64916 17.6964 2.6235C17.6351 2.59783 17.5693 2.58457 17.5028 2.58447ZM16.9982 9.28722H3.84654V3.59997H16.9982V9.28722Z" fill="white"/>
<path d="M5.87096 11.1704C5.49438 11.1704 5.12626 11.2824 4.8131 11.4923C4.49995 11.7021 4.25582 12.0004 4.11158 12.3494C3.96733 12.6984 3.92944 13.0825 4.00269 13.4531C4.07594 13.8237 4.25704 14.1643 4.52311 14.4316C4.78918 14.699 5.12828 14.8812 5.49755 14.9553C5.86682 15.0294 6.24969 14.992 6.59777 14.8478C6.94585 14.7036 7.24352 14.4592 7.45317 14.1453C7.66281 13.8314 7.77502 13.4622 7.77561 13.0844C7.77581 12.8333 7.7267 12.5845 7.63109 12.3524C7.53547 12.1203 7.39523 11.9094 7.21837 11.7316C7.04151 11.5539 6.83148 11.4129 6.6003 11.3166C6.36911 11.2203 6.12128 11.1706 5.87096 11.1704ZM5.87096 13.9792C5.69355 13.9792 5.52012 13.9264 5.37261 13.8275C5.22509 13.7286 5.11012 13.588 5.04223 13.4236C4.97434 13.2591 4.95657 13.0782 4.99118 12.9036C5.02579 12.729 5.11123 12.5686 5.23668 12.4428C5.36213 12.3169 5.52196 12.2312 5.69596 12.1965C5.86996 12.1617 6.05032 12.1795 6.21423 12.2477C6.37814 12.3158 6.51823 12.4311 6.6168 12.5791C6.71536 12.7271 6.76797 12.9012 6.76797 13.0792C6.76797 13.3179 6.67346 13.5468 6.50524 13.7156C6.33702 13.8843 6.10886 13.9792 5.87096 13.9792Z" fill="white"/>
<path d="M10.4225 11.1704C10.0459 11.1701 9.67759 11.2819 9.36424 11.4915C9.05089 11.7012 8.80653 11.9994 8.66206 12.3484C8.51758 12.6974 8.47948 13.0815 8.55256 13.4522C8.62564 13.8229 8.80662 14.1636 9.07263 14.4311C9.33865 14.6986 9.67774 14.881 10.047 14.9552C10.4164 15.0294 10.7993 14.9921 11.1475 14.8479C11.4956 14.7038 11.7934 14.4593 12.0031 14.1454C12.2128 13.8315 12.3251 13.4623 12.3257 13.0844C12.3259 12.5775 12.1256 12.0912 11.7687 11.7324C11.4119 11.3735 10.9277 11.1714 10.4225 11.1704ZM10.4225 13.9792C10.2451 13.9792 10.0717 13.9264 9.92415 13.8275C9.77664 13.7286 9.66167 13.588 9.59377 13.4236C9.52588 13.2591 9.50812 13.0782 9.54273 12.9036C9.57734 12.729 9.66277 12.5686 9.78822 12.4428C9.91367 12.3169 10.0735 12.2312 10.2475 12.1965C10.4215 12.1617 10.6019 12.1795 10.7658 12.2477C10.9297 12.3158 11.0698 12.4311 11.1683 12.5791C11.2669 12.7272 11.3195 12.9012 11.3195 13.0792C11.3195 13.3179 11.225 13.5468 11.0568 13.7156C10.8886 13.8843 10.6604 13.9792 10.4225 13.9792Z" fill="white"/>
<path d="M14.974 11.1704C14.5974 11.1703 14.2292 11.2821 13.9159 11.4919C13.6027 11.7017 13.3584 11.9999 13.2141 12.3489C13.0697 12.6979 13.0317 13.082 13.1049 13.4527C13.1781 13.8233 13.3591 14.1639 13.6251 14.4314C13.8912 14.6988 14.2303 14.8811 14.5996 14.9553C14.9689 15.0294 15.3518 14.992 15.6999 14.8479C16.048 14.7037 16.3457 14.4593 16.5554 14.1454C16.7651 13.8315 16.8773 13.4623 16.8779 13.0844C16.8781 12.5774 16.6777 12.091 16.3207 11.7321C15.9637 11.3732 15.4794 11.1712 14.974 11.1704ZM14.974 13.9792C14.7966 13.9792 14.6232 13.9264 14.4756 13.8275C14.3281 13.7286 14.2132 13.588 14.1453 13.4236C14.0774 13.2591 14.0596 13.0782 14.0942 12.9036C14.1288 12.729 14.2143 12.5686 14.3397 12.4428C14.4652 12.3169 14.625 12.2312 14.799 12.1965C14.973 12.1617 15.1534 12.1796 15.3173 12.2477C15.4812 12.3158 15.6213 12.4311 15.7198 12.5791C15.8184 12.7272 15.871 12.9012 15.871 13.0792C15.871 13.3179 15.7765 13.5468 15.6083 13.7156C15.4401 13.8843 15.2119 13.9792 14.974 13.9792Z" fill="white"/>
<path d="M5.87096 15.5225C5.49429 15.5225 5.12607 15.6345 4.81287 15.8445C4.49967 16.0544 4.25554 16.3528 4.11136 16.702C3.96718 17.0511 3.92942 17.4353 4.00285 17.806C4.07628 18.1767 4.25761 18.5172 4.5239 18.7845C4.7902 19.0518 5.12951 19.2338 5.49892 19.3076C5.86834 19.3815 6.25128 19.3437 6.59932 19.1992C6.94736 19.0547 7.24488 18.8099 7.45425 18.4957C7.66363 18.1815 7.77546 17.8121 7.77561 17.4342C7.77541 16.9274 7.5747 16.4413 7.21758 16.0829C6.86045 15.7244 6.37611 15.5229 5.87096 15.5225ZM5.87096 18.3312C5.69355 18.3312 5.52012 18.2784 5.37261 18.1795C5.2251 18.0806 5.11012 17.9401 5.04223 17.7756C4.97434 17.6112 4.95657 17.4302 4.99119 17.2556C5.0258 17.081 5.11123 16.9207 5.23668 16.7948C5.36213 16.6689 5.52196 16.5832 5.69596 16.5485C5.86996 16.5138 6.05032 16.5316 6.21423 16.5997C6.37814 16.6678 6.51823 16.7832 6.6168 16.9312C6.71536 17.0792 6.76797 17.2532 6.76797 17.4312C6.76836 17.5497 6.74545 17.667 6.70055 17.7765C6.65565 17.8861 6.58964 17.9857 6.5063 18.0695C6.42297 18.1534 6.32395 18.22 6.21492 18.2654C6.1059 18.3108 5.98901 18.3342 5.87096 18.3342V18.3312Z" fill="white"/>
<path d="M10.4225 15.5225C10.0458 15.5222 9.67741 15.634 9.36401 15.8437C9.05061 16.0535 8.80625 16.3518 8.66184 16.7009C8.51743 17.0501 8.47946 17.4343 8.55272 17.8051C8.62598 18.1759 8.80719 18.5165 9.07342 18.7839C9.33966 19.0514 9.67897 19.2336 10.0484 19.3075C10.4179 19.3815 10.8009 19.3438 11.149 19.1994C11.4972 19.0549 11.7948 18.8101 12.0042 18.4959C12.2136 18.1817 12.3255 17.8122 12.3257 17.4342C12.3255 16.9276 12.125 16.4418 11.7682 16.0834C11.4114 15.725 10.9274 15.5233 10.4225 15.5225ZM10.4225 18.3312C10.2451 18.3312 10.0717 18.2784 9.92415 18.1795C9.77664 18.0806 9.66167 17.9401 9.59378 17.7756C9.52588 17.6112 9.50812 17.4302 9.54273 17.2556C9.57734 17.081 9.66277 16.9207 9.78822 16.7948C9.91367 16.6689 10.0735 16.5832 10.2475 16.5485C10.4215 16.5138 10.6019 16.5316 10.7658 16.5997C10.9297 16.6678 11.0698 16.7832 11.1683 16.9312C11.2669 17.0792 11.3195 17.2532 11.3195 17.4312C11.3199 17.5497 11.297 17.667 11.2521 17.7765C11.2072 17.8861 11.1412 17.9857 11.0578 18.0695C10.9745 18.1534 10.8755 18.22 10.7665 18.2654C10.6574 18.3108 10.5406 18.3342 10.4225 18.3342V18.3312Z" fill="white"/>
<path d="M14.974 15.5225C14.5973 15.5223 14.229 15.6342 13.9157 15.8441C13.6024 16.054 13.3582 16.3523 13.2139 16.7015C13.0696 17.0506 13.0317 17.4348 13.1051 17.8055C13.1784 18.1763 13.3597 18.5168 13.6259 18.7842C13.8922 19.0516 14.2315 19.2337 14.6009 19.3076C14.9704 19.3815 15.3534 19.3438 15.7014 19.1993C16.0495 19.0548 16.3471 18.81 16.5565 18.4958C16.7659 18.1816 16.8777 17.8122 16.8779 17.4342C16.8777 16.9275 16.6771 16.4416 16.3201 16.0831C15.9632 15.7247 15.479 15.5231 14.974 15.5225ZM14.974 18.3312C14.7966 18.3312 14.6232 18.2784 14.4756 18.1795C14.3281 18.0806 14.2132 17.9401 14.1453 17.7756C14.0774 17.6112 14.0596 17.4302 14.0942 17.2556C14.1288 17.081 14.2143 16.9207 14.3397 16.7948C14.4652 16.6689 14.625 16.5832 14.799 16.5485C14.973 16.5138 15.1534 16.5316 15.3173 16.5997C15.4812 16.6678 15.6213 16.7832 15.7198 16.9312C15.8184 17.0792 15.871 17.2532 15.871 17.4312C15.8714 17.5497 15.8485 17.667 15.8036 17.7765C15.7587 17.8861 15.6927 17.9857 15.6093 18.0695C15.526 18.1534 15.427 18.22 15.318 18.2654C15.2089 18.3108 15.092 18.3342 14.974 18.3342V18.3312Z" fill="white"/>
<path d="M24.8351 20.2738L20.457 18.9238V2.99532C20.4562 2.25917 20.1647 1.55334 19.6463 1.03238C19.1279 0.511424 18.4249 0.217804 17.6912 0.21582H3.15738C2.42368 0.217804 1.72067 0.511424 1.20228 1.03238C0.683895 1.55334 0.39239 2.25917 0.391602 2.99532V21.1528C0.392393 21.8895 0.684435 22.5959 1.20365 23.1168C1.72286 23.6378 2.42684 23.9308 3.16112 23.9316H13.3624C13.7301 24.3636 13.9895 24.7566 14.1256 25.0828L14.219 25.3131C14.7183 26.5408 15.282 27.9261 17.6157 29.5086V31.1466C17.6157 31.2808 17.6688 31.4096 17.7635 31.5045C17.8581 31.5995 17.9864 31.6528 18.1203 31.6528C18.2541 31.6528 18.3824 31.5995 18.477 31.5045C18.5717 31.4096 18.6248 31.2808 18.6248 31.1466V29.2371C18.625 29.1527 18.604 29.0697 18.564 28.9955C18.5239 28.9213 18.4659 28.8584 18.3953 28.8126C16.1334 27.3388 15.6348 26.1126 15.1541 24.9306L15.0577 24.6958C14.7916 24.0508 14.2227 23.2986 13.3654 22.4601C13.2442 22.3379 13.1722 22.1752 13.163 22.0031C13.1538 21.831 13.2081 21.6616 13.3155 21.5271C13.423 21.3926 13.576 21.3025 13.7454 21.274C13.9148 21.2455 14.0887 21.2806 14.234 21.3726C15.0637 21.9148 16.5228 23.0061 16.9788 24.2166C17.0207 24.3272 17.0998 24.4195 17.2025 24.4777C17.3052 24.5358 17.4249 24.556 17.5409 24.5348C17.6569 24.5136 17.7619 24.4523 17.8375 24.3616C17.9132 24.2708 17.9548 24.1564 17.9551 24.0381V14.7628C17.9551 14.5639 18.0338 14.3731 18.174 14.2325C18.3142 14.0918 18.5043 14.0128 18.7026 14.0128C18.9008 14.0128 19.0909 14.0918 19.2311 14.2325C19.3713 14.3731 19.4501 14.5639 19.4501 14.7628V21.6178C19.4501 21.7521 19.5032 21.8809 19.5979 21.9758C19.6925 22.0707 19.8208 22.1241 19.9546 22.1241C20.0885 22.1241 20.2168 22.0707 20.3114 21.9758C20.406 21.8809 20.4592 21.7521 20.4592 21.6178V19.9843L24.5421 21.2406C24.9065 21.3511 25.2256 21.5767 25.4519 21.8839C25.6782 22.1911 25.7995 22.5634 25.7979 22.9453V27.0801C25.7983 27.271 25.761 27.4602 25.6883 27.6366C25.6155 27.8131 25.5088 27.9734 25.3741 28.1083L24.7977 28.6858C24.7506 28.7328 24.7131 28.7886 24.6874 28.8501C24.6617 28.9116 24.6484 28.9776 24.6482 29.0443V31.1443C24.6482 31.2786 24.7014 31.4074 24.796 31.5023C24.8907 31.5972 25.019 31.6506 25.1528 31.6506C25.2866 31.6506 25.415 31.5972 25.5096 31.5023C25.6042 31.4074 25.6574 31.2786 25.6574 31.1443V29.2551L26.0857 28.8253C26.3147 28.5969 26.4962 28.3252 26.6198 28.0258C26.7434 27.7265 26.8065 27.4056 26.8056 27.0816V22.9468C26.8079 22.3478 26.6173 21.764 26.2623 21.2824C25.9072 20.8007 25.4067 20.447 24.8351 20.2738ZM18.6891 13.0138C18.2269 13.0142 17.7838 13.1986 17.4569 13.5265C17.1301 13.8544 16.9463 14.2991 16.9459 14.7628V22.3243C16.2941 21.5938 15.4786 20.9781 14.7856 20.5243C14.4552 20.3109 14.0616 20.2181 13.671 20.2617C13.2804 20.3054 12.9168 20.4827 12.6412 20.7638C12.3657 21.0449 12.1951 21.4127 12.1581 21.8053C12.1212 22.1978 12.2202 22.5912 12.4384 22.9191H3.15738C2.69068 22.9185 2.24327 22.7322 1.91326 22.4011C1.58325 22.07 1.39759 21.6211 1.397 21.1528V2.99532C1.3974 2.52693 1.58297 2.07784 1.913 1.74657C2.24302 1.4153 2.69055 1.22892 3.15738 1.22832H17.6874C18.1542 1.22911 18.6016 1.41556 18.9316 1.74678C19.2616 2.07801 19.4472 2.527 19.4478 2.99532V13.1811C19.2101 13.0704 18.9512 13.0133 18.6891 13.0138Z" fill="white"/>
</svg>
