<svg width="32" height="32" viewBox="0 0 32 32" fill="none" xmlns="http://www.w3.org/2000/svg">
<path d="M30.3869 14.0259V6.39724C30.3869 4.20618 25.8288 3.19862 21.5907 3.19862C20.2513 3.19344 18.9139 3.30043 17.5924 3.51848V3.19862C17.5924 1.00756 13.0344 0 8.7962 0C4.55803 0 0 1.00756 0 3.19862V27.1883C0 29.3793 4.55803 30.3869 8.7962 30.3869C10.3153 30.3895 11.8311 30.2449 13.3222 29.9551C15.5685 31.4687 18.2615 32.1764 20.9618 31.9626C23.6621 31.7488 26.2101 30.6261 28.1902 28.7778C30.1703 26.9295 31.4655 24.4646 31.8645 21.7854C32.2634 19.1063 31.7425 16.371 30.3869 14.0259ZM25.413 9.30798C26.5804 9.15388 27.718 8.825 28.7876 8.3324V11.8669C27.8223 10.8218 26.6798 9.95548 25.413 9.30798ZM8.7962 6.39724C11.2574 6.48778 13.7099 6.05722 15.9931 5.13378V7.99655C15.8651 8.44435 13.4662 9.59586 8.7962 9.59586C4.12622 9.59586 1.72725 8.42836 1.59931 7.99655V5.13378C3.88248 6.05722 6.33502 6.48778 8.7962 6.39724ZM8.70024 15.9931C8.30811 17.0184 8.07094 18.0965 7.99655 19.1917C3.83834 19.0638 1.67927 18.0242 1.59931 17.5924V14.7296C3.85363 15.6367 6.27141 16.0669 8.70024 15.9931ZM1.59931 22.3903V19.5276C3.62522 20.3741 5.80092 20.8038 7.99655 20.791C8.07326 21.8829 8.29927 22.9591 8.66826 23.9896C4.09423 23.9896 1.72725 22.8221 1.59931 22.3903ZM9.40394 14.3938H8.7962C4.12622 14.3938 1.72725 13.2263 1.59931 12.7945V9.93171C3.88248 10.8552 6.33502 11.2857 8.7962 11.1952C9.89779 11.1991 10.9984 11.1297 12.0908 10.9873C10.9963 11.9507 10.0859 13.105 9.40394 14.3938ZM21.5907 4.79793C26.2767 4.79793 28.6756 5.96542 28.7876 6.39724C28.8995 6.82905 26.2767 7.99655 21.5907 7.99655C20.2507 7.9996 18.913 7.88723 17.5924 7.66069V5.13378C18.913 4.90724 20.2507 4.79487 21.5907 4.79793ZM8.7962 1.59931C13.4342 1.59931 15.8332 2.75081 15.9931 3.19862C15.8332 3.63043 13.5941 4.70197 9.29199 4.79793H8.7962C4.12622 4.79793 1.72725 3.63043 1.59931 3.19862C1.72725 2.76681 4.12622 1.59931 8.7962 1.59931ZM8.7962 28.7876C4.12622 28.7876 1.72725 27.6201 1.59931 27.1883V24.3255C3.88248 25.2489 6.33502 25.6795 8.7962 25.5889H9.38795C9.9804 26.7102 10.7469 27.7305 11.659 28.6116C10.7092 28.7286 9.75315 28.7874 8.7962 28.7876ZM19.9914 30.3869C17.9353 30.3869 15.9255 29.7772 14.2159 28.6349C12.5064 27.4926 11.174 25.8691 10.3872 23.9696C9.60036 22.07 9.39449 19.9798 9.7956 17.9633C10.1967 15.9468 11.1868 14.0945 12.6406 12.6406C14.0945 11.1868 15.9468 10.1967 17.9633 9.7956C19.9798 9.39449 22.07 9.60036 23.9696 10.3872C25.8691 11.174 27.4926 12.5064 28.6349 14.2159C29.7772 15.9255 30.3869 17.9353 30.3869 19.9914C30.3827 22.7471 29.2861 25.3888 27.3374 27.3374C25.3888 29.2861 22.7471 30.3826 19.9914 30.3869Z" fill="white"/>
</svg>
