<svg width="40" height="40" viewBox="0 0 40 40" fill="none" xmlns="http://www.w3.org/2000/svg">
<path d="M34 9.75016H24.6667V9.0835C24.6628 5.77132 21.9788 3.0874 18.6667 3.0835H6C2.68783 3.0874 0.00390625 5.77132 0 9.0835V17.0835C0.00390625 20.3957 2.68783 23.0796 6 23.0835H6.66667V28.4168C6.66667 28.6864 6.8291 28.9295 7.07812 29.0327C7.32715 29.1359 7.61393 29.0786 7.80469 28.8882L13.6094 23.0835H15.3333V23.7502C15.3372 27.0623 18.0212 29.7463 21.3333 29.7502H25.0573L32.1953 36.8882C32.3861 37.0786 32.6729 37.1359 32.9219 37.0327C33.1709 36.9295 33.3333 36.6864 33.3333 36.4168V29.7502H34C37.3122 29.7463 39.9961 27.0623 40 23.7502V15.7502C39.9961 12.438 37.3122 9.75407 34 9.75016ZM13.3333 21.7502C13.1566 21.7502 12.987 21.8205 12.862 21.9455L8 26.8075V22.4168C8 22.0487 7.7015 21.7502 7.33333 21.7502H6C3.42383 21.7472 1.33626 19.6597 1.33333 17.0835V9.0835C1.33626 6.50732 3.42383 4.41976 6 4.41683H18.6667C21.2428 4.41976 23.3304 6.50732 23.3333 9.0835V9.75016H21.3333C18.0212 9.75407 15.3372 12.438 15.3333 15.7502V21.7502H13.3333ZM38.6667 23.7502C38.6637 26.3263 36.5762 28.4139 34 28.4168H32.6667C32.2985 28.4168 32 28.7153 32 29.0835V34.8075L25.8047 28.6121C25.6797 28.4871 25.5101 28.4168 25.3333 28.4168H21.3333C18.7572 28.4139 16.6696 26.3263 16.6667 23.7502V15.7502C16.6696 13.174 18.7572 11.0864 21.3333 11.0835H34C36.5762 11.0864 38.6637 13.174 38.6667 15.7502V23.7502Z" fill="white"/>
<path d="M35.3335 15.0835H20.0002C19.632 15.0835 19.3335 15.382 19.3335 15.7502C19.3335 16.1183 19.632 16.4168 20.0002 16.4168H35.3335C35.7017 16.4168 36.0002 16.1183 36.0002 15.7502C36.0002 15.382 35.7017 15.0835 35.3335 15.0835Z" fill="white"/>
<path d="M35.3335 19.0835H20.0002C19.632 19.0835 19.3335 19.382 19.3335 19.7502C19.3335 20.1183 19.632 20.4168 20.0002 20.4168H35.3335C35.7017 20.4168 36.0002 20.1183 36.0002 19.7502C36.0002 19.382 35.7017 19.0835 35.3335 19.0835Z" fill="white"/>
<path d="M35.3335 23.0835H20.0002C19.632 23.0835 19.3335 23.382 19.3335 23.7502C19.3335 24.1183 19.632 24.4168 20.0002 24.4168H35.3335C35.7017 24.4168 36.0002 24.1183 36.0002 23.7502C36.0002 23.382 35.7017 23.0835 35.3335 23.0835Z" fill="white"/>
<path d="M4.00016 9.74984H18.0002C18.3683 9.74984 18.6668 9.45134 18.6668 9.08317C18.6668 8.71501 18.3683 8.4165 18.0002 8.4165H4.00016C3.632 8.4165 3.3335 8.71501 3.3335 9.08317C3.3335 9.45134 3.632 9.74984 4.00016 9.74984Z" fill="white"/>
<path d="M14.0002 12.4165H4.00016C3.632 12.4165 3.3335 12.715 3.3335 13.0832C3.3335 13.4513 3.632 13.7498 4.00016 13.7498H14.0002C14.3683 13.7498 14.6668 13.4513 14.6668 13.0832C14.6668 12.715 14.3683 12.4165 14.0002 12.4165Z" fill="white"/>
<path d="M13.3335 16.4165H4.00016C3.632 16.4165 3.3335 16.715 3.3335 17.0832C3.3335 17.4513 3.632 17.7498 4.00016 17.7498H13.3335C13.7017 17.7498 14.0002 17.4513 14.0002 17.0832C14.0002 16.715 13.7017 16.4165 13.3335 16.4165Z" fill="white"/>
</svg>
