<svg width="24" height="32" viewBox="0 0 24 32" fill="none" xmlns="http://www.w3.org/2000/svg">
<path d="M2.72342 14.9786H4.50999C4.9661 15.7654 5.54984 16.4708 6.23732 17.0661C2.80723 18.9924 0.683034 22.6192 0.680856 26.5532V29.9574C0.680856 31.0855 1.59534 32 2.72342 32H20.4257C21.5538 32 22.4682 31.0855 22.4682 29.9574V26.5532C22.4607 22.6207 20.3397 18.9958 16.9152 17.0627C17.601 16.468 18.1836 15.7638 18.6391 14.9786H20.4257C21.9298 14.9786 23.1491 13.7593 23.1491 12.2552V9.53176C23.1463 8.57324 22.6383 7.68722 21.8126 7.20051C20.2607 2.88085 16.1645 0 11.5745 0C6.98457 0 2.88844 2.88085 1.33652 7.20051C0.510761 7.68722 0.00279648 8.57324 0 9.53176V12.2552C0 13.7593 1.21932 14.9786 2.72342 14.9786ZM2.72342 13.6169C1.97137 13.6169 1.36171 13.0072 1.36171 12.2552V9.53176C1.36171 8.77971 1.97137 8.17005 2.72342 8.17005H3.88088C3.24544 9.93006 3.24544 11.8569 3.88088 13.6169H2.72342ZM4.76599 10.8935C4.76507 8.2168 6.33258 5.78793 8.77197 4.68614C11.2114 3.58435 14.07 4.01409 16.0776 5.7844C18.0853 7.55471 18.8693 10.3371 18.0815 12.8952C16.8137 13.3084 15.4933 13.5377 14.1604 13.576C13.861 12.7832 13.103 12.2576 12.2554 12.2552H10.8937C9.76561 12.2552 8.85113 13.1697 8.85113 14.2978C8.85113 15.4258 9.76561 16.3403 10.8937 16.3403H12.2554C13.1329 16.3376 13.9101 15.7733 14.1843 14.9398C15.2399 14.8975 16.2897 14.7608 17.321 14.5313C15.7042 17.095 12.586 18.2796 9.67478 17.4361C6.76353 16.5926 4.76172 13.9245 4.76599 10.8935ZM12.9363 14.2978C12.9363 14.6738 12.6314 14.9786 12.2554 14.9786H10.8937C10.5177 14.9786 10.2128 14.6738 10.2128 14.2978C10.2128 13.9217 10.5177 13.6169 10.8937 13.6169H12.2554C12.6314 13.6169 12.9363 13.9217 12.9363 14.2978ZM18.3109 19.8181C20.1071 21.5982 21.1142 24.0244 21.1065 26.5532V29.9574C21.1065 30.3335 20.8017 30.6383 20.4257 30.6383H17.0214V26.5532C17.0214 26.1771 16.7166 25.8723 16.3405 25.8723C15.9645 25.8723 15.6597 26.1771 15.6597 26.5532V30.6383H7.48941V26.5532C7.48941 26.1771 7.18458 25.8723 6.80856 25.8723C6.43253 25.8723 6.1277 26.1771 6.1277 26.5532V30.6383H2.72342C2.3474 30.6383 2.04257 30.3335 2.04257 29.9574V26.5532C2.0457 22.8779 4.16154 19.5318 7.48056 17.9533C10.0084 19.4328 13.138 19.4328 15.6658 17.9533C16.6495 18.4159 17.5447 19.047 18.3109 19.8181ZM21.7874 12.2552C21.7874 13.0072 21.1777 13.6169 20.4257 13.6169H19.2682C19.9037 11.8569 19.9037 9.93006 19.2682 8.17005H20.4257C21.1777 8.17005 21.7874 8.77971 21.7874 9.53176V12.2552ZM11.5745 1.36149C15.2542 1.3598 18.6046 3.48129 20.1765 6.80834H18.6391C17.1845 4.28106 14.4906 2.72335 11.5745 2.72335C8.65853 2.72335 5.96464 4.28106 4.50999 6.80834H2.97262C4.5445 3.48129 7.89487 1.3598 11.5745 1.36149Z" fill="white"/>
</svg>
