<svg width="32" height="32" viewBox="0 0 32 32" fill="none" xmlns="http://www.w3.org/2000/svg">
<path d="M0 25.3333H19.3333V31.844L23.3333 29.444L27.3333 31.844V25.3333H32V0H0V25.3333ZM26.1767 20.8093C26.1167 20.87 26.0527 20.926 25.9893 20.9827C25.9533 21.0147 25.92 21.0487 25.8827 21.0793C25.8413 21.114 25.7973 21.1433 25.7547 21.176C25.1927 21.606 24.5153 21.892 23.776 21.974C23.764 21.9753 23.752 21.978 23.7393 21.9793C23.6053 21.9927 23.4693 22 23.332 22C23.1947 22 23.0587 21.9927 22.9247 21.9793C22.9127 21.978 22.9007 21.9753 22.888 21.974C22.1487 21.892 21.472 21.606 20.9093 21.176C20.8667 21.1433 20.8227 21.1133 20.7813 21.0793C20.7447 21.0487 20.7107 21.0147 20.6747 20.9827C20.6113 20.926 20.548 20.87 20.4873 20.8093C19.7733 20.0867 19.3307 19.0947 19.3307 18C19.3307 15.794 21.1247 14 23.3307 14C25.5367 14 27.3307 15.794 27.3307 18C27.3333 19.094 26.8913 20.086 26.1767 20.8093ZM26 29.4893L23.3333 27.8893L20.6667 29.4893V25.3333V22.62C20.6893 22.6333 20.7147 22.642 20.738 22.6547C20.9147 22.7533 21.0967 22.844 21.2847 22.9227C21.2927 22.926 21.3013 22.9287 21.31 22.932C21.9347 23.1893 22.6173 23.3333 23.334 23.3333C24.0507 23.3333 24.7333 23.1893 25.358 22.932C25.366 22.9287 25.3747 22.926 25.3833 22.9227C25.5713 22.844 25.7533 22.754 25.93 22.6547C25.9533 22.642 25.9787 22.6333 26.0013 22.62V25.3333V29.4893H26ZM1.33333 1.33333H30.6667V24H27.3333V21.516C28.1607 20.576 28.6667 19.3473 28.6667 18C28.6667 15.0593 26.274 12.6667 23.3333 12.6667C20.3927 12.6667 18 15.0593 18 18C18 19.3473 18.506 20.576 19.3333 21.516V24H1.33333V1.33333Z" fill="white"/>
<path d="M24.6666 4H7.33325V5.33333H24.6666V4Z" fill="white"/>
<path d="M21.3334 8H10.6667V9.33333H21.3334V8Z" fill="white"/>
<path d="M11.3333 20.0001H4V21.3334H11.3333V20.0001Z" fill="white"/>
</svg>
