<svg width="32" height="32" viewBox="0 0 32 32" fill="none" xmlns="http://www.w3.org/2000/svg">
<path d="M29.3333 28.0001H2.66667C1.196 28.0001 0 26.7507 0 25.2154V5.45141C0 3.91608 1.196 2.66675 2.66667 2.66675H29.3333C30.804 2.66675 32 3.91608 32 5.45141V25.2154C32 26.7507 30.804 28.0001 29.3333 28.0001ZM2.66667 4.00008C1.93133 4.00008 1.33333 4.65141 1.33333 5.45141V25.2154C1.33333 26.0154 1.93133 26.6667 2.66667 26.6667H29.3333C30.0687 26.6667 30.6667 26.0154 30.6667 25.2154V5.45141C30.6667 4.65141 30.0687 4.00008 29.3333 4.00008H2.66667Z" fill="white"/>
<path d="M25.3333 30.6668H6.66667C6.29867 30.6668 6 30.3682 6 30.0002C6 29.6322 6.29867 29.3335 6.66667 29.3335H25.3333C25.7013 29.3335 26 29.6322 26 30.0002C26 30.3682 25.7013 30.6668 25.3333 30.6668Z" fill="white"/>
<path d="M16 30.6667C15.632 30.6667 15.3333 30.3681 15.3333 30.0001V27.3334C15.3333 26.9654 15.632 26.6667 16 26.6667C16.368 26.6667 16.6667 26.9654 16.6667 27.3334V30.0001C16.6667 30.3681 16.368 30.6667 16 30.6667Z" fill="white"/>
<path d="M16 26.0002C16.7364 26.0002 17.3333 25.4032 17.3333 24.6668C17.3333 23.9304 16.7364 23.3335 16 23.3335C15.2636 23.3335 14.6667 23.9304 14.6667 24.6668C14.6667 25.4032 15.2636 26.0002 16 26.0002Z" fill="white"/>
<path d="M31.3333 21.3335H0.666664V22.6668H31.3333V21.3335Z" fill="white"/>
</svg>
