<svg width="34" height="40" viewBox="0 0 34 40" fill="none" xmlns="http://www.w3.org/2000/svg">
<path d="M30.3226 36.129V25.1613C30.3226 23.3826 28.8755 21.9355 27.0968 21.9355H25.8064V20.1019C25.8064 19.309 25.5852 18.5535 25.2084 17.8884C26.0568 17.6839 26.7006 17.3703 26.74 17.351L27.6413 16.9L26.8542 16.2697C23.9226 13.9252 23.871 10.3568 23.871 10.3206H23.8381C23.8574 10.1084 23.871 9.89484 23.871 9.67742V5.16129C23.871 3.38258 22.4239 1.93548 20.6452 1.93548H20.3452L20.0129 1.43677C19.4129 0.536774 18.4097 0 17.3284 0H15.4839C12.2819 0 9.67742 2.60452 9.67742 5.80645V9.67742C9.67742 9.89548 9.69097 10.1097 9.71032 10.3226H9.67742C9.67742 10.3587 9.64323 13.911 6.69355 16.2703L5.90645 16.9006L6.80774 17.3516C6.8471 17.371 7.49097 17.6839 8.33935 17.889C7.96323 18.5535 7.74194 19.309 7.74194 20.1019V21.9355H6.45161C4.6729 21.9355 3.22581 23.3826 3.22581 25.1613V36.129H0V38.0645C0 39.1316 0.868387 40 1.93548 40H31.6129C32.68 40 33.5484 39.1316 33.5484 38.0645V36.129H30.3226ZM20.2671 21.9355L21.4303 20.7723L20.9097 19.7316L22.7884 19.1052L21.9006 16.8858L22.4232 17.0819C23.6748 17.551 24.5161 18.7645 24.5161 20.1019V21.9355H20.2671ZM15.1058 21.9355L13.6884 20.5181L14.4581 18.9781L12.4658 18.3142L13.2826 16.2729L13.7329 16.1039L15.8535 21.9355H15.1058ZM22.5806 9.67742H21.1716C20.9045 8.92839 20.1948 8.3871 19.3548 8.3871C18.5148 8.3871 17.8052 8.92839 17.5381 9.67742H16.0097C15.7426 8.92839 15.0329 8.3871 14.1929 8.3871C13.3529 8.3871 12.6432 8.92839 12.3761 9.67742H10.9677V8.78581L11.8297 8.35484C12.6316 7.95355 13.5297 7.74194 14.4258 7.74194H16.8923C17.7871 7.74194 18.6529 7.48 19.3974 6.98323L19.9265 6.63032C20.6703 7.28065 21.5948 7.66064 22.58 7.72774V9.67742H22.5806ZM20 10.3226C20 10.6787 19.711 10.9677 19.3548 10.9677C18.9987 10.9677 18.7097 10.6787 18.7097 10.3226C18.7097 9.96645 18.9987 9.67742 19.3548 9.67742C19.711 9.67742 20 9.96645 20 10.3226ZM14.8387 10.3226C14.8387 10.6787 14.5497 10.9677 14.1935 10.9677C13.8374 10.9677 13.5484 10.6787 13.5484 10.3226C13.5484 9.96645 13.8374 9.67742 14.1935 9.67742C14.5497 9.67742 14.8387 9.96645 14.8387 10.3226ZM12.3768 10.9677C12.6439 11.7168 13.3535 12.2581 14.1935 12.2581C15.0335 12.2581 15.7432 11.7168 16.0103 10.9677H17.5387C17.8058 11.7168 18.5155 12.2581 19.3555 12.2581C20.1955 12.2581 20.9052 11.7168 21.1723 10.9677H22.4323C21.8432 13.5497 19.5329 15.4839 16.7755 15.4839C14.0181 15.4839 11.7077 13.5497 11.1187 10.9677H12.3768ZM18.2568 16.6155L16.7742 20.6935L15.2916 16.6161C15.7703 16.7181 16.2658 16.7742 16.7742 16.7742C17.2826 16.7742 17.7781 16.7181 18.2568 16.6155ZM19.8155 16.1039L20.2658 16.2729L21.0826 18.3142L19.0903 18.9781L19.86 20.5181L18.4426 21.9355H17.6948L19.8155 16.1039ZM25.24 16.5477C24.9555 16.6335 24.6277 16.709 24.291 16.7471C23.8813 16.3787 23.4097 16.0729 22.8761 15.8729L21.2523 15.2639L21.2445 15.2439L21.2226 15.2523L21.1742 15.2342C21.9542 14.6155 22.6013 13.8374 23.0658 12.9477C23.4361 14.0639 24.0884 15.3748 25.24 16.5477ZM15.4839 1.29032H17.3284C17.9768 1.29032 18.5787 1.61226 18.9387 2.15226L19.6548 3.22581H20.6452C21.7123 3.22581 22.5806 4.09419 22.5806 5.16129V6.42129C21.8381 6.34968 21.1465 6.04065 20.6123 5.5071L20.0819 4.97677L18.6819 5.91032C18.1503 6.26452 17.5316 6.45161 16.8929 6.45161H14.4258C13.3303 6.45161 12.2329 6.71032 11.2523 7.20064L10.9677 7.34323V5.80645C10.9677 3.31677 12.9942 1.29032 15.4839 1.29032ZM10.4826 12.9484C10.9471 13.8381 11.5935 14.6155 12.3742 15.2348L12.3258 15.2529L12.3039 15.2445L12.2961 15.2645L10.6729 15.8735C10.1394 16.0735 9.66774 16.3794 9.25742 16.7477C8.92065 16.7097 8.59226 16.6342 8.30839 16.5484C9.46 15.3748 10.1123 14.0639 10.4826 12.9484ZM9.03226 20.1019C9.03226 18.7645 9.87355 17.551 11.1258 17.0813L11.6471 16.8858L10.7594 19.1052L12.6381 19.7316L12.1174 20.7723L13.2813 21.9355H9.03226V20.1019ZM4.51613 25.1613C4.51613 24.0942 5.38452 23.2258 6.45161 23.2258H27.0968C28.1639 23.2258 29.0323 24.0942 29.0323 25.1613V36.129H4.51613V25.1613ZM32.2581 38.0645C32.2581 38.4206 31.969 38.7097 31.6129 38.7097H1.93548C1.57935 38.7097 1.29032 38.4206 1.29032 38.0645V37.4194H32.2581V38.0645Z" fill="white"/>
<path d="M16.7741 27.0967C14.9954 27.0967 13.5483 28.5438 13.5483 30.3225C13.5483 32.1012 14.9954 33.5483 16.7741 33.5483C18.5529 33.5483 20 32.1012 20 30.3225C20 28.5438 18.5529 27.0967 16.7741 27.0967ZM16.7741 32.258C15.707 32.258 14.8387 31.3896 14.8387 30.3225C14.8387 29.2554 15.707 28.387 16.7741 28.387C17.8412 28.387 18.7096 29.2554 18.7096 30.3225C18.7096 31.3896 17.8412 32.258 16.7741 32.258Z" fill="white"/>
</svg>
