<svg width="32" height="32" viewBox="0 0 32 32" fill="none" xmlns="http://www.w3.org/2000/svg">
<path d="M18.2581 20.5363C17.9061 20.5363 17.6206 20.8217 17.6206 21.1737C17.6206 21.5257 17.9061 21.8112 18.2581 21.8112H24.1488C24.5008 21.8112 24.7862 21.5257 24.7862 21.1737C24.7862 20.8217 24.5008 20.5363 24.1488 20.5363H18.2581Z" fill="white"/>
<path d="M30.9096 1.6735H16.5295C16.252 0.708398 15.3618 0 14.3087 0C13.0345 0 11.9978 1.03669 11.9978 2.31095V20.5362H6.31419C3.15359 20.5362 0.582306 23.1076 0.582306 26.2681C0.582306 29.4287 3.15365 32 6.31419 32H25.5163C28.6768 32 31.2482 29.4287 31.2482 26.2681C31.2482 24.9831 30.8058 23.7193 30.0025 22.7095C29.2127 21.7167 28.1052 21.0038 26.8841 20.7022C26.5424 20.6178 26.1968 20.8265 26.1124 21.1682C26.028 21.51 26.2366 21.8555 26.5784 21.9399C28.5773 22.4337 29.9734 24.2135 29.9734 26.2681C29.9734 28.7257 27.974 30.7251 25.5164 30.7251H6.31419C3.85657 30.7251 1.85721 28.7257 1.85721 26.2681C1.85721 23.8105 3.85657 21.8111 6.31419 21.8111H11.9978V24.8695C11.9978 26.1437 13.0345 27.1804 14.3087 27.1804C15.583 27.1804 16.6197 26.1437 16.6197 24.8695V14.5289H30.9096C31.2616 14.5289 31.5471 14.2434 31.5471 13.8914V2.31095C31.5471 1.95888 31.2616 1.6735 30.9096 1.6735ZM15.3448 24.8695C15.3448 25.4408 14.88 25.9055 14.3087 25.9055C13.7374 25.9055 13.2727 25.4408 13.2727 24.8695V2.31095C13.2727 1.73967 13.7374 1.2749 14.3087 1.2749C14.88 1.2749 15.3448 1.73967 15.3448 2.31095V24.8695ZM30.2722 13.254H16.6197V2.9484H30.2722V13.254Z" fill="white"/>
<path d="M18.2581 5.02344H24.4051C24.7571 5.02344 25.0426 4.73799 25.0426 4.38599C25.0426 4.03399 24.7571 3.74854 24.4051 3.74854H18.2581C17.9061 3.74854 17.6206 4.03399 17.6206 4.38599C17.6206 4.73799 17.9061 5.02344 18.2581 5.02344Z" fill="white"/>
<path d="M26.9232 5.02344H28.7007C29.0527 5.02344 29.3381 4.73799 29.3381 4.38599C29.3381 4.03399 29.0527 3.74854 28.7007 3.74854H26.9232C26.5712 3.74854 26.2858 4.03399 26.2858 4.38599C26.2858 4.73799 26.5712 5.02344 26.9232 5.02344Z" fill="white"/>
</svg>
