<svg width="32" height="28" viewBox="0 0 32 28" fill="none" xmlns="http://www.w3.org/2000/svg">
<path d="M31.5118 5.49464L16.2474 0.0428482C16.0874 -0.0142827 15.9124 -0.0142827 15.7525 0.0428482L0.488147 5.49464C0.192767 5.60015 -0.00330873 5.88148 4.22908e-05 6.19516C0.00331158 6.50885 0.205272 6.78601 0.502859 6.88523L6.68526 8.9466V16.1309C6.68526 16.4588 6.90226 16.7471 7.2175 16.8378L15.7966 19.3063C15.8631 19.3254 15.9315 19.335 16 19.335C16.0685 19.335 16.1369 19.3255 16.2033 19.3063L18.9046 18.5291C19.2951 18.4167 19.5205 18.0092 19.4082 17.6187C19.2958 17.2283 18.8885 17.0027 18.4979 17.1152L16 17.8339L8.15644 15.5771V9.43708L15.7673 11.9747C15.9183 12.025 16.0816 12.0251 16.2326 11.9747L17.5991 11.5191C17.5993 11.5191 17.5994 11.519 17.5995 11.519L18.7506 11.1352C19.1359 11.0067 19.3443 10.5902 19.2157 10.2047C19.0872 9.81934 18.6706 9.61092 18.2852 9.73957L16 10.5015L9.16011 8.2209L2.9894 6.16345L16 1.51664L29.0105 6.16345L24.3465 7.71857C24.3465 7.71857 24.3465 7.71857 24.3465 7.71857L23.7708 7.91048L23.2963 8.06871H23.2962L22.5605 8.31399C22.175 8.44248 21.9667 8.85907 22.0953 9.24451C22.2238 9.62988 22.6402 9.83789 23.0258 9.70965L23.8436 9.43699V15.577L22.9267 15.8408C22.5363 15.9532 22.3108 16.3607 22.4231 16.7511C22.516 17.0737 22.8101 17.2835 23.1298 17.2835C23.1971 17.2835 23.2656 17.2743 23.3335 17.2547L24.7825 16.8377C25.0977 16.747 25.3147 16.4586 25.3147 16.1308V8.94652L31.4971 6.88515C31.7948 6.78593 31.9967 6.50885 32 6.19508C32.0032 5.88139 31.8072 5.60015 31.5118 5.49464Z" fill="white"/>
<path d="M21.6569 9.61601C21.6564 9.59901 21.6559 9.58192 21.6543 9.56492C21.6531 9.55258 21.6509 9.54057 21.6491 9.52839C21.6474 9.51695 21.6462 9.50559 21.644 9.49431C21.6414 9.48074 21.6378 9.4675 21.6344 9.45426C21.6319 9.44445 21.6297 9.43456 21.6268 9.42483C21.6229 9.41176 21.6182 9.39917 21.6137 9.38642C21.6101 9.37653 21.6068 9.36664 21.6028 9.35691C21.5981 9.34531 21.5926 9.33419 21.5873 9.32291C21.5824 9.31237 21.5776 9.30166 21.5721 9.29128C21.5668 9.28131 21.5609 9.27183 21.5552 9.26227C21.5487 9.25124 21.5423 9.24012 21.5352 9.22933C21.5292 9.22034 21.5226 9.21176 21.5162 9.20293C21.5085 9.19247 21.501 9.18184 21.4929 9.17171C21.4849 9.16207 21.4764 9.15299 21.4681 9.14384C21.4604 9.13534 21.4531 9.12668 21.4451 9.1185C21.4321 9.10526 21.4182 9.09292 21.4041 9.08074C21.4002 9.07731 21.3967 9.07363 21.3927 9.07028L21.3909 9.06873C21.3905 9.0684 21.39 9.06799 21.3896 9.06758L16.4704 4.97484C16.1583 4.71501 15.6945 4.75751 15.4345 5.06981C15.1746 5.38211 15.2172 5.84594 15.5295 6.10577L20.1866 9.98053V23.0214C19.3703 23.1891 18.7545 23.9131 18.7545 24.7783V25.7775C18.7545 26.7665 19.5591 27.571 20.548 27.571H21.5472C22.5362 27.571 23.3407 26.7664 23.3407 25.7775V24.7783C23.3407 23.8266 22.5954 23.046 21.6578 22.9886V9.6393C21.6578 9.63914 21.6578 9.63889 21.6578 9.63865V9.63562C21.6579 9.62908 21.6571 9.62263 21.6569 9.61601ZM21.8695 24.7783V25.7775C21.8695 25.9553 21.7249 26.0998 21.5472 26.0998H20.548C20.3702 26.0998 20.2257 25.9552 20.2257 25.7775V24.7783C20.2257 24.6006 20.3703 24.4561 20.548 24.4561H21.5472C21.725 24.4561 21.8695 24.6006 21.8695 24.7783Z" fill="white"/>
</svg>
