<svg width="30" height="31" viewBox="0 0 30 31" fill="none" xmlns="http://www.w3.org/2000/svg">
<path d="M26.294 5.20991C26.2699 5.17964 26.2433 5.15141 26.2146 5.1255C24.8094 3.53778 23.083 2.2666 21.1497 1.39609C19.2164 0.525582 17.1203 0.0756013 15 0.0759279C6.72875 0.0759279 0 6.8087 0 15.0759C0 23.3432 6.73277 30.0759 15 30.0759C23.2672 30.0759 30 23.3432 30 15.0759C30.0031 11.4595 28.6941 7.96469 26.3161 5.24006L26.294 5.20991ZM28.5841 13.8068H16.5094L25.6619 6.57154C27.323 8.64535 28.3391 11.161 28.5841 13.8068ZM24.7655 5.55559L15.2382 13.0852V1.43554C18.8327 1.49631 22.2569 2.97758 24.7625 5.55559H24.7655ZM15 28.7193C7.47739 28.7193 1.3566 22.5995 1.3566 15.0759C1.3566 7.93116 6.87848 2.05154 13.8785 1.47876V14.4851C13.8785 14.4931 13.8785 14.5001 13.8785 14.5082C13.8785 14.5162 13.8785 14.5333 13.8785 14.5464C13.8785 14.5594 13.8785 14.5665 13.8785 14.5765C13.8785 14.5865 13.8785 14.6006 13.8836 14.6117C13.8886 14.6227 13.8886 14.6328 13.8906 14.6438L13.8996 14.676C13.8996 14.687 13.9067 14.6981 13.9097 14.7081L13.9208 14.7383L13.9358 14.7714C13.9358 14.7805 13.9439 14.7895 13.9489 14.7986C13.9539 14.8076 13.9609 14.8207 13.968 14.8317L13.9821 14.8559L14.0072 14.891L14.0182 14.9061C14.0333 14.9252 14.0504 14.9433 14.0675 14.9614L14.0745 14.9674C14.0896 14.9815 14.1046 14.9955 14.1207 15.0086L14.1448 15.0267L14.178 15.0508L14.2061 15.0669C14.2175 15.0738 14.2293 15.0802 14.2413 15.086L14.2684 15.099C14.2818 15.1056 14.2956 15.1113 14.3096 15.1161L14.3338 15.1252L14.383 15.1392L14.4031 15.1443C14.422 15.1483 14.4411 15.1514 14.4604 15.1533H14.4744C14.4985 15.1548 14.5227 15.1548 14.5468 15.1533H28.6424C28.5952 22.6468 22.4945 28.7193 15 28.7193Z" fill="white"/>
</svg>
