<svg width="33" height="33" viewBox="0 0 33 33" fill="none" xmlns="http://www.w3.org/2000/svg">
<path d="M28.3469 5.89691C28.3212 5.86462 28.2929 5.8345 28.2622 5.80687C26.7634 4.11329 24.9219 2.75737 22.8597 1.82883C20.7975 0.900286 18.5616 0.420306 16.3 0.420654C7.47734 0.420654 0.300003 7.60227 0.300003 16.4207C0.300003 25.239 7.48163 32.4207 16.3 32.4207C25.1184 32.4207 32.3 25.239 32.3 16.4207C32.3033 12.5631 30.9071 8.83533 28.3705 5.92906L28.3469 5.89691ZM30.7897 15.0669H17.91L27.6727 7.34931C29.4446 9.56137 30.5283 12.2447 30.7897 15.0669ZM26.7166 6.26563L16.554 14.2973V1.87091C20.3882 1.93573 24.0407 3.51575 26.7134 6.26563H26.7166ZM16.3 30.9736C8.27589 30.9736 1.74705 24.4458 1.74705 16.4207C1.74705 8.79957 7.63705 2.52798 15.1038 1.917V15.7904C15.1038 15.799 15.1038 15.8065 15.1038 15.815C15.1038 15.8236 15.1038 15.8418 15.1038 15.8558C15.1038 15.8697 15.1038 15.8772 15.1038 15.8879C15.1038 15.8986 15.1038 15.9137 15.1091 15.9254C15.1145 15.9372 15.1145 15.948 15.1167 15.9597L15.1263 15.994C15.1263 16.0058 15.1338 16.0176 15.137 16.0283L15.1488 16.0605L15.1649 16.0959C15.1649 16.1055 15.1735 16.1152 15.1788 16.1248C15.1842 16.1345 15.1917 16.1484 15.1992 16.1602L15.2142 16.1859L15.241 16.2234L15.2528 16.2395C15.2689 16.2599 15.2871 16.2792 15.3053 16.2985L15.3128 16.3049C15.3289 16.3199 15.345 16.3349 15.3621 16.3488L15.3878 16.3681L15.4232 16.3939L15.4532 16.411C15.4654 16.4184 15.4779 16.4252 15.4907 16.4314L15.5197 16.4453C15.5339 16.4523 15.5486 16.4584 15.5636 16.4635L15.5894 16.4732L15.6419 16.4882L15.6633 16.4935C15.6835 16.4979 15.7039 16.5011 15.7244 16.5032H15.7394C15.7651 16.5048 15.7909 16.5048 15.8166 16.5032H30.8519C30.8015 24.4962 24.2941 30.9736 16.3 30.9736Z" fill="white"/>
<path d="M16.2711 19.0007C16.2215 18.8592 16.1291 18.7366 16.0068 18.6498C15.8845 18.5631 15.7382 18.5165 15.5883 18.5165C15.4383 18.5165 15.2921 18.5631 15.1698 18.6498C15.0474 18.7366 14.9551 18.8592 14.9055 19.0007L13.7618 22.2463L12.9043 24.6709C12.8405 24.852 12.8512 25.051 12.9341 25.2242C13.017 25.3974 13.1653 25.5305 13.3464 25.5944C13.5275 25.6582 13.7265 25.6475 13.8997 25.5645C14.0729 25.4816 14.206 25.3333 14.2699 25.1522L14.6182 24.1639H16.5562L16.9056 25.1522C16.9713 25.3303 17.1043 25.4754 17.276 25.5563C17.4477 25.6372 17.6443 25.6474 17.8235 25.5847C18.0026 25.522 18.1499 25.3914 18.2337 25.221C18.3174 25.0507 18.3309 24.8543 18.2712 24.6741L16.2711 19.0007ZM15.1284 22.7222L15.5883 21.4178L16.0481 22.7222H15.1284Z" fill="white"/>
<path d="M13.2269 19.1882C13.2266 18.9964 13.1503 18.8126 13.0147 18.6769C12.8791 18.5413 12.6952 18.465 12.5034 18.4647H9.22879C9.0369 18.4647 8.85286 18.5409 8.71718 18.6766C8.58149 18.8123 8.50526 18.9964 8.50526 19.1882C8.50526 19.3801 8.58149 19.5642 8.71718 19.6998C8.85286 19.8355 9.0369 19.9118 9.22879 19.9118H10.142V24.8639C10.142 25.0558 10.2183 25.2398 10.3539 25.3755C10.4896 25.5112 10.6737 25.5874 10.8656 25.5874C11.0574 25.5874 11.2415 25.5112 11.3772 25.3755C11.5128 25.2398 11.5891 25.0558 11.5891 24.8639V19.9118H12.5034C12.6953 19.9118 12.8793 19.8355 13.015 19.6998C13.1507 19.5642 13.2269 19.3801 13.2269 19.1882Z" fill="white"/>
<path d="M23.0839 18.5644C22.9188 18.4666 22.7217 18.4382 22.5357 18.4854C22.3496 18.5326 22.1899 18.6516 22.0914 18.8163L21.0259 20.6053L19.9616 18.8163C19.9129 18.7347 19.8487 18.6634 19.7725 18.6066C19.6963 18.5498 19.6097 18.5085 19.5176 18.4852C19.4255 18.4618 19.3297 18.4569 19.2356 18.4706C19.1416 18.4842 19.0512 18.5163 18.9695 18.565C18.8879 18.6136 18.8166 18.6778 18.7598 18.754C18.703 18.8302 18.6617 18.9168 18.6384 19.0089C18.6151 19.101 18.6101 19.1968 18.6238 19.2909C18.6375 19.3849 18.6695 19.4753 18.7182 19.557L20.1845 22.0223L18.7182 24.4876C18.6695 24.5693 18.6375 24.6597 18.6238 24.7537C18.6101 24.8478 18.6151 24.9436 18.6384 25.0357C18.6617 25.1278 18.703 25.2144 18.7598 25.2906C18.8166 25.3668 18.8879 25.431 18.9695 25.4797C19.0512 25.5283 19.1416 25.5604 19.2356 25.5741C19.3297 25.5878 19.4255 25.5828 19.5176 25.5594C19.6097 25.5361 19.6963 25.4948 19.7725 25.438C19.8487 25.3812 19.9129 25.31 19.9616 25.2283L21.0259 23.4393L22.0914 25.2283C22.1896 25.3932 22.3493 25.5123 22.5353 25.5594C22.7214 25.6066 22.9185 25.5779 23.0834 25.4797C23.2483 25.3814 23.3674 25.2218 23.4145 25.0357C23.4617 24.8497 23.433 24.6525 23.3348 24.4876L21.8684 22.0223L23.3348 19.557C23.4329 19.3921 23.4617 19.1949 23.4147 19.0088C23.3676 18.8227 23.2487 18.6629 23.0839 18.5644Z" fill="white"/>
</svg>
