<svg width="32" height="32" viewBox="0 0 32 32" fill="none" xmlns="http://www.w3.org/2000/svg">
<path d="M31.185 30.401H28.7864V12.0112C28.7864 11.7992 28.7021 11.5958 28.5522 11.4459C28.4023 11.2959 28.1989 11.2117 27.9868 11.2117H23.1895C22.9775 11.2117 22.7741 11.2959 22.6241 11.4459C22.4742 11.5958 22.39 11.7992 22.39 12.0112V30.401H19.1917V18.4077C19.1917 18.1956 19.1075 17.9922 18.9576 17.8423C18.8076 17.6923 18.6042 17.6081 18.3922 17.6081H13.5949C13.3828 17.6081 13.1794 17.6923 13.0295 17.8423C12.8795 17.9922 12.7953 18.1956 12.7953 18.4077V30.401H9.59709V20.0068C9.59709 19.7947 9.51285 19.5913 9.3629 19.4414C9.21296 19.2914 9.00959 19.2072 8.79753 19.2072H4.00021C3.78816 19.2072 3.58479 19.2914 3.43484 19.4414C3.2849 19.5913 3.20066 19.7947 3.20066 20.0068V30.401H0.801995C0.58994 30.401 0.386571 30.4852 0.236625 30.6351C0.08668 30.7851 0.00244141 30.9885 0.00244141 31.2005C0.00244141 31.4126 0.08668 31.6159 0.236625 31.7659C0.386571 31.9158 0.58994 32.0001 0.801995 32.0001H31.185C31.3971 32.0001 31.6005 31.9158 31.7504 31.7659C31.9004 31.6159 31.9846 31.4126 31.9846 31.2005C31.9846 30.9885 31.9004 30.7851 31.7504 30.6351C31.6005 30.4852 31.3971 30.401 31.185 30.401ZM7.99798 30.401H4.79977V20.8063H7.99798V30.401ZM17.5926 30.401H14.3944V19.2072H17.5926V30.401ZM27.1873 30.401H23.9891V12.8108H27.1873V30.401Z" fill="white"/>
<path d="M0.801982 17.608C0.906845 17.6093 1.01081 17.5886 1.10721 17.5473C1.2036 17.506 1.29028 17.445 1.36167 17.3682L8.87748 9.86835L14.7142 14.2499C14.8671 14.3664 15.0575 14.4226 15.2492 14.4079C15.4408 14.3931 15.6204 14.3084 15.7536 14.1699L27.1873 2.75232V5.61472C27.1873 5.82678 27.2715 6.03014 27.4214 6.18009C27.5714 6.33004 27.7748 6.41427 27.9868 6.41427C28.1989 6.41427 28.4022 6.33004 28.5522 6.18009C28.7021 6.03014 28.7864 5.82678 28.7864 5.61472V0.817397C28.8102 0.717517 28.8102 0.613446 28.7864 0.513566C28.7458 0.399277 28.6802 0.295476 28.5945 0.20972C28.5087 0.123965 28.4049 0.0584144 28.2906 0.0178427C28.1908 -0.00594758 28.0867 -0.00594758 27.9868 0.0178427H23.1895C22.9774 0.0178427 22.7741 0.102081 22.6241 0.252027C22.4742 0.401972 22.3899 0.605342 22.3899 0.817397C22.3899 1.02945 22.4742 1.23282 22.6241 1.38277C22.7741 1.53271 22.9774 1.61695 23.1895 1.61695H26.0519L15.114 12.5548L9.27725 8.17329C9.12435 8.05681 8.93397 8.00059 8.74232 8.01533C8.55067 8.03008 8.37112 8.11475 8.23783 8.25325L0.242295 16.2488C0.165808 16.3206 0.104846 16.4073 0.0631733 16.5035C0.0215002 16.5998 0 16.7036 0 16.8085C0 16.9134 0.0215002 17.0172 0.0631733 17.1134C0.104846 17.2097 0.165808 17.2964 0.242295 17.3682C0.313688 17.445 0.400367 17.506 0.496759 17.5473C0.59315 17.5886 0.69712 17.6093 0.801982 17.608Z" fill="white"/>
</svg>
