<svg width="32" height="32" viewBox="0 0 32 32" fill="none" xmlns="http://www.w3.org/2000/svg">
<path d="M30.6749 20.425C30.0999 19.7125 29.1499 19.475 28.3124 19.825L20.6499 23.0375C20.3374 23.175 20.1874 23.525 20.3249 23.8375C20.4624 24.15 20.8124 24.3 21.1249 24.1625L28.7874 20.95C29.1124 20.8125 29.4874 20.9125 29.7249 21.1875C29.8624 21.3625 29.9249 21.5875 29.8874 21.8125C29.8499 22.0375 29.7249 22.2375 29.5374 22.3625C26.1999 24.5375 18.6124 28.8375 18.2374 29.05C18.2249 29.0625 18.2124 29.0625 18.1874 29.075C17.2624 29.625 16.2249 29.775 14.9249 29.5375C14.8375 29.525 13.0999 29.3125 8.96245 28.8L6.73745 28.525V20.15C7.08745 20.125 7.38745 20.1125 7.52495 20.1125H7.59995C10.4875 19.925 13.2499 20.4875 16.1749 21.075C16.5499 21.15 16.9249 21.225 17.2999 21.3C17.6999 21.375 17.9874 21.7375 17.9874 22.1375C17.9874 22.1625 17.9874 22.1875 17.9749 22.2375C17.9499 22.475 17.8249 22.6375 17.7374 22.7375C17.5749 22.9 17.3624 22.9875 17.1374 22.9875H11.275C10.9374 22.9875 10.6625 23.2625 10.6625 23.6C10.6625 23.9375 10.9374 24.2125 11.275 24.2125H17.1249C17.6749 24.2125 18.2124 23.9875 18.5999 23.6C18.9374 23.2625 19.1374 22.8375 19.1874 22.4C19.1999 22.3125 19.2124 22.2125 19.2124 22.125C19.2124 21.125 18.4999 20.2625 17.5249 20.075C17.1499 20 16.775 19.925 16.4124 19.85C13.5374 19.275 10.575 18.6625 7.52495 18.8625H7.46245C7.32495 18.875 7.02495 18.8875 6.69995 18.9C6.62495 18.6375 6.39995 18.4375 6.11245 18.4375H1.49995C1.16245 18.4375 0.887451 18.7125 0.887451 19.05V29.4875C0.887451 29.825 1.16245 30.1 1.49995 30.1H6.11245C6.36245 30.1 6.57495 29.95 6.66245 29.7375L8.79995 30C11.2375 30.3 14.5624 30.7 14.6999 30.725C15.1624 30.8125 15.5999 30.85 16.0249 30.85C17.0499 30.85 17.9624 30.6125 18.7874 30.1125C18.7999 30.1125 18.7999 30.1 18.8124 30.1C18.8874 30.05 26.7499 25.6125 30.1874 23.3625C30.6749 23.05 30.9999 22.55 31.0874 21.975C31.1874 21.45 31.0249 20.8625 30.6749 20.425ZM5.49995 28.8875H2.11245V19.6875H5.49995V28.8875Z" fill="white"/>
<path d="M14.325 7.26245H9.4375V16.55H14.325V7.26245ZM13.1 15.325H10.6625V8.49995H13.0875V15.325H13.1Z" fill="white"/>
<path d="M28.3751 5.3374H23.4875V16.5624H28.3751V5.3374ZM27.1501 15.3249H24.7251V6.5624H27.1501V15.3249Z" fill="white"/>
<path d="M21.3499 1.125H16.4624V16.55H21.3499V1.125ZM20.1249 15.325H17.6999V2.3625H20.1249V15.325Z" fill="white"/>
</svg>
