<svg width="32" height="32" viewBox="0 0 32 32" fill="none" xmlns="http://www.w3.org/2000/svg">
<path d="M30.675 20.425C30.1 19.7125 29.15 19.475 28.3125 19.825L20.65 23.0375C20.3375 23.175 20.1875 23.525 20.325 23.8375C20.4625 24.15 20.8125 24.3 21.125 24.1625L28.7875 20.95C29.1125 20.8125 29.4875 20.9125 29.725 21.1875C29.8625 21.3625 29.925 21.5875 29.8875 21.8125C29.85 22.0375 29.725 22.2375 29.5375 22.3625C26.2 24.5375 18.6125 28.8375 18.2375 29.05C18.225 29.0625 18.2125 29.0625 18.1875 29.075C17.2625 29.625 16.225 29.775 14.925 29.5375C14.8375 29.525 13.1 29.3125 8.96249 28.8L6.7375 28.525V20.15C7.0875 20.125 7.3875 20.1125 7.525 20.1125H7.6C10.4875 19.925 13.25 20.4875 16.175 21.075C16.55 21.15 16.925 21.225 17.3 21.3C17.7 21.375 17.9875 21.7375 17.9875 22.1375C17.9875 22.1625 17.9875 22.1875 17.975 22.2375C17.95 22.475 17.825 22.6375 17.7375 22.7375C17.575 22.9 17.3625 22.9875 17.1375 22.9875H11.275C10.9375 22.9875 10.6625 23.2625 10.6625 23.6C10.6625 23.9375 10.9375 24.2125 11.275 24.2125H17.125C17.675 24.2125 18.2125 23.9875 18.6 23.6C18.9375 23.2625 19.1375 22.8375 19.1875 22.4C19.2 22.3125 19.2125 22.2125 19.2125 22.125C19.2125 21.125 18.5 20.2625 17.525 20.075C17.15 20 16.775 19.925 16.4125 19.85C13.5375 19.275 10.575 18.6625 7.525 18.8625H7.4625C7.325 18.875 7.025 18.8875 6.7 18.9C6.625 18.6375 6.4 18.4375 6.1125 18.4375H1.5C1.1625 18.4375 0.887497 18.7125 0.887497 19.05V29.4875C0.887497 29.825 1.1625 30.1 1.5 30.1H6.1125C6.3625 30.1 6.575 29.95 6.6625 29.7375L8.8 30C11.2375 30.3 14.5625 30.7 14.7 30.725C15.1625 30.8125 15.6 30.85 16.025 30.85C17.05 30.85 17.9625 30.6125 18.7875 30.1125C18.8 30.1125 18.8 30.1 18.8125 30.1C18.8875 30.05 26.75 25.6125 30.1875 23.3625C30.675 23.05 31 22.55 31.0875 21.975C31.1875 21.45 31.025 20.8625 30.675 20.425ZM5.5 28.8875H2.1125V19.6875H5.5V28.8875Z" fill="white"/>
<path d="M14.325 7.26245H9.4375V16.55H14.325V7.26245ZM13.1 15.325H10.6625V8.49995H13.0875V15.325H13.1Z" fill="white"/>
<path d="M28.375 5.3374H23.4875V16.5624H28.375V5.3374ZM27.15 15.3249H24.725V6.5624H27.15V15.3249Z" fill="white"/>
<path d="M21.35 1.125H16.4625V16.55H21.35V1.125ZM20.125 15.325H17.7V2.3625H20.125V15.325Z" fill="white"/>
</svg>
