<svg width="32" height="32" viewBox="0 0 32 32" fill="none" xmlns="http://www.w3.org/2000/svg">
<g clip-path="url(#clip0)">
<path d="M18 32H14C13.0666 32 12 31.2 12 29.6V26.8C12 25.4667 11.3333 24.2667 10.2666 23.3334C7.86663 21.4667 6.66663 18.8 6.66663 15.8667C6.79996 10.8 10.9333 6.80002 15.8666 6.66669C18.4 6.66669 20.8 7.60002 22.5333 9.33335C24.2666 11.0667 25.3333 13.4667 25.3333 16C25.3333 18.8 24.1333 21.4667 21.8666 23.2C20.6666 24.1334 20 25.6 20 26.9334V30C20 31.0667 19.0666 32 18 32ZM16 8.00002C11.7333 8.00002 8.13329 11.6 7.99996 15.8667C7.99996 18.4 9.06663 20.8 11.0666 22.2667C12.5333 23.4667 13.3333 25.0667 13.3333 26.8V29.6C13.3333 29.8667 13.3333 30.6667 14 30.6667H18C18.4 30.6667 18.6666 30.4 18.6666 30V26.9334C18.6666 25.2 19.6 23.3334 21.0666 22.1334C22.9333 20.6667 24 18.4 24 16C24 13.8667 23.2 11.8667 21.6 10.2667C20.1333 8.80002 18.1333 8.00002 16 8.00002Z" fill="white"/>
<path d="M19.3333 28H12.6667C12.2667 28 12 27.7333 12 27.3333C12 26.9334 12.2667 26.6667 12.6667 26.6667H19.3333C19.7333 26.6667 20 26.9334 20 27.3333C20 27.7333 19.7333 28 19.3333 28Z" fill="white"/>
<path d="M16 4C15.6 4 15.3334 3.73333 15.3334 3.33333V0.666667C15.3334 0.266667 15.6 0 16 0C16.4 0 16.6667 0.266667 16.6667 0.666667V3.33333C16.6667 3.73333 16.4 4 16 4Z" fill="white"/>
<path d="M24.9333 7.73337C24.8 7.73337 24.5333 7.73337 24.4 7.60003C24.1333 7.33337 24.1333 6.93337 24.4 6.6667L26.2666 4.80004C26.5333 4.53337 26.9333 4.53337 27.1999 4.80004C27.4666 5.0667 27.4666 5.4667 27.1999 5.73337L25.3333 7.60003C25.3333 7.60003 25.0666 7.73337 24.9333 7.73337Z" fill="white"/>
<path d="M31.3333 16.6667H28.6667C28.2667 16.6667 28 16.4 28 16C28 15.6 28.2667 15.3334 28.6667 15.3334H31.3333C31.7333 15.3334 32 15.6 32 16C32 16.4 31.7333 16.6667 31.3333 16.6667Z" fill="white"/>
<path d="M26.7999 27.4666C26.6666 27.4666 26.4 27.4666 26.2666 27.3333L24.4 25.4666C24.1333 25.2 24.1333 24.8 24.4 24.5333C24.6666 24.2666 25.0666 24.2666 25.3333 24.5333L27.1999 26.4C27.4666 26.6666 27.4666 27.0666 27.1999 27.3333C27.1999 27.4666 27.0666 27.4666 26.7999 27.4666Z" fill="white"/>
<path d="M5.20001 27.4666C5.06667 27.4666 4.80001 27.4666 4.66667 27.3333C4.40001 27.0666 4.40001 26.6666 4.66667 26.4L6.53334 24.5333C6.80001 24.2666 7.20001 24.2666 7.46667 24.5333C7.73334 24.8 7.73334 25.2 7.46667 25.4666L5.60001 27.3333C5.46667 27.4666 5.33334 27.4666 5.20001 27.4666Z" fill="white"/>
<path d="M3.33333 16.6667H0.666667C0.266667 16.6667 0 16.4 0 16C0 15.6 0.266667 15.3334 0.666667 15.3334H3.33333C3.73333 15.3334 4 15.6 4 16C4 16.4 3.73333 16.6667 3.33333 16.6667Z" fill="white"/>
<path d="M7.06668 7.73334C6.93334 7.73334 6.66667 7.73334 6.53334 7.6L4.66667 5.60001C4.40001 5.33334 4.40001 4.93334 4.66667 4.66667C4.93334 4.40001 5.33334 4.40001 5.60001 4.66667L7.46667 6.53334C7.73334 6.80001 7.73334 7.20001 7.46667 7.46667C7.33334 7.6 7.20001 7.73334 7.06668 7.73334Z" fill="white"/>
<path d="M21.3334 16.6667C20.9334 16.6667 20.6667 16.4 20.6667 16C20.6667 13.4667 18.5334 11.3333 16 11.3333C15.6 11.3333 15.3334 11.0667 15.3334 10.6667C15.3334 10.2667 15.6 10 16 10C19.3334 10 22 12.6667 22 16C22 16.4 21.7334 16.6667 21.3334 16.6667Z" fill="white"/>
</g>
<defs>
<clipPath id="clip0">
<rect width="32" height="32" fill="white"/>
</clipPath>
</defs>
</svg>
