<svg width="32" height="32" viewBox="0 0 32 32" fill="none" xmlns="http://www.w3.org/2000/svg">
<path d="M26.6931 10.9104V4.0473C26.6931 3.06655 26.1907 2.17966 25.3491 1.67622C24.9225 1.42076 24.4505 1.28903 23.9759 1.28104C23.505 1.26824 23.0308 1.37756 22.5962 1.61062L21.3323 2.28792V2.30178L12.1525 7.21994C11.4885 7.57565 11.0122 8.17829 10.8069 8.87906L3.85901 9.30357C2.98118 9.36596 2.28682 10.0534 2.18176 10.9078H1.71245C0.767962 10.9072 0 11.6757 0 12.6197V15.5945C0 16.5389 0.767962 17.3069 1.71245 17.3069H2.18442C2.30015 18.2535 3.06971 19.0151 4.04673 19.0849L4.29419 19.0999V28.3197C4.29419 29.6428 5.37093 30.7196 6.69407 30.7196C8.0172 30.7196 9.09395 29.6428 9.09395 28.3197V19.3921L10.8208 19.4972C11.0394 20.2049 11.5338 20.8043 12.2223 21.1478L21.3323 25.7028V25.7166L22.665 26.3833C23.058 26.58 23.481 26.6776 23.9028 26.6776C23.9071 26.6776 23.9113 26.6766 23.9156 26.6766C23.9204 26.6766 23.9257 26.6776 23.9305 26.6776C24.4334 26.6776 24.9353 26.5384 25.3822 26.2627C26.203 25.7555 26.6931 24.8761 26.6931 23.9114V17.3042C28.1501 17.2893 29.3319 16.1016 29.3319 14.6404V13.5738C29.3319 12.113 28.1501 10.9254 26.6931 10.9104ZM8.02733 28.3202C8.02733 29.0557 7.42949 29.6535 6.69407 29.6535C5.95864 29.6535 5.3608 29.0557 5.3608 28.3202V27.9736H6.42741C6.72233 27.9736 6.96072 27.7352 6.96072 27.4403C6.96072 27.1453 6.72233 26.907 6.42741 26.907H5.3608V25.8403H6.42741C6.72233 25.8403 6.96072 25.602 6.96072 25.307C6.96072 25.0121 6.72233 24.7737 6.42741 24.7737H5.3608V23.7071H6.42741C6.72233 23.7071 6.96072 23.4687 6.96072 23.1738C6.96072 22.8789 6.72233 22.6405 6.42741 22.6405H5.3608V21.5739H6.42741C6.72233 21.5739 6.96072 21.3355 6.96072 21.0406C6.96072 20.7457 6.72233 20.5073 6.42741 20.5073H5.3608V19.1676L8.02733 19.3329V28.3202ZM23.17 25.4292L22.3989 25.0436V2.94122L23.1268 2.55137C23.3519 2.43084 23.594 2.37271 23.8377 2.35938C23.8719 2.35831 23.9049 2.34818 23.9391 2.34872C23.9423 2.34872 23.9449 2.34925 23.9481 2.34925C24.2335 2.35725 24.5172 2.43778 24.7732 2.59137C25.2905 2.90069 25.5987 3.44466 25.5987 4.0473V10.9072V17.3069V23.9108C25.5987 24.5033 25.2979 25.0431 24.7934 25.3545C24.5444 25.5086 24.2676 25.5924 23.9876 25.6068C23.7097 25.6164 23.4298 25.5588 23.17 25.4292ZM2.13323 16.2403H1.71245C1.3562 16.2403 1.06661 15.9507 1.06661 15.595V12.6202C1.06661 12.264 1.3562 11.9744 1.71245 11.9744H2.13323V16.2403ZM3.22757 17.0653V11.1275C3.22757 10.7296 3.53849 10.3958 3.9294 10.3675L10.6939 9.95474V18.4204L4.11713 18.021C3.61795 17.9853 3.22757 17.5656 3.22757 17.0653ZM12.6991 20.1937C12.1199 19.9046 11.7605 19.3228 11.7605 18.6754V9.65715C11.7605 9.02998 12.1039 8.45668 12.657 8.16069L21.3323 3.51239V24.5097L12.6991 20.1937ZM28.2653 14.6404C28.2653 15.5134 27.5624 16.2222 26.6931 16.2376V11.9765C27.5624 11.992 28.2653 12.7013 28.2653 13.5738V14.6404Z" fill="white"/>
<path d="M30.8342 10.5999C30.6651 10.3594 30.3318 10.3018 30.0908 10.4714C29.8503 10.641 29.7921 10.9732 29.9622 11.2148C30.5788 12.09 30.9051 13.0675 30.9313 14.1214C30.9654 15.4509 30.2668 16.5751 29.9644 16.9964C29.7927 17.2359 29.8476 17.5692 30.0865 17.7409C30.1809 17.8086 30.2897 17.8412 30.3969 17.8412C30.5633 17.8412 30.7265 17.7638 30.8305 17.6188C31.1958 17.1095 32.04 15.7469 31.9973 14.0947C31.9659 12.826 31.5744 11.6505 30.8342 10.5999Z" fill="white"/>
<path d="M17.0103 8.00443C16.8797 7.74098 16.5613 7.63165 16.2957 7.76284L13.922 8.93665C13.2297 9.3073 12.7993 10.0257 12.7993 10.8118V11.9744C12.7993 12.2693 13.0377 12.5077 13.3327 12.5077C13.6276 12.5077 13.866 12.2693 13.866 11.9744V10.8118C13.866 10.4203 14.0803 10.0619 14.4105 9.8854L16.7693 8.71906C17.0327 8.5884 17.1415 8.26842 17.0103 8.00443Z" fill="white"/>
<path d="M13.3327 13.0403C13.0377 13.0403 12.7993 13.2787 12.7993 13.5736V14.6402C12.7993 14.9351 13.0377 15.1735 13.3327 15.1735C13.6276 15.1735 13.866 14.9351 13.866 14.6402V13.5736C13.866 13.2792 13.6276 13.0403 13.3327 13.0403Z" fill="white"/>
</svg>
