<svg width="32" height="32" viewBox="0 0 32 32" fill="none" xmlns="http://www.w3.org/2000/svg">
<path d="M27.9934 24.0162C27.1817 24.0167 26.3899 24.2676 25.726 24.7348L23.299 22.2438C24.7663 20.513 25.5717 18.3175 25.5717 16.0484C25.5717 13.7793 24.7663 11.5838 23.299 9.85296L25.774 7.39395C26.513 7.88834 27.3961 8.1218 28.2829 8.05731C29.1698 7.99282 30.0097 7.63407 30.6695 7.03796C31.3293 6.44185 31.7712 5.64251 31.9251 4.76672C32.0789 3.89093 31.936 2.98884 31.5189 2.20352C31.1018 1.4182 30.4345 0.794622 29.6227 0.431684C28.811 0.068747 27.9013 -0.0127678 27.0379 0.200069C26.1746 0.412907 25.407 0.90791 24.8569 1.60657C24.3069 2.30522 24.0058 3.16753 24.0015 4.05673C24.0062 4.84578 24.2391 5.61662 24.6722 6.27622L22.1972 8.71926C20.4687 7.26031 18.2797 6.46 16.0178 6.46C13.7558 6.46 11.5668 7.26031 9.8383 8.71926L7.34736 6.29219C7.90964 5.46835 8.1459 4.46503 8.01032 3.47686C7.87473 2.48868 7.37696 1.58608 6.61356 0.944135C5.85016 0.302189 4.87554 -0.0333443 3.87876 0.00261847C2.88197 0.0385813 1.93407 0.443477 1.21891 1.13877C0.503755 1.83406 0.0723241 2.77018 0.00830267 3.76556C-0.0557188 4.76094 0.252233 5.74462 0.872424 6.5258C1.49262 7.30697 2.38084 7.82997 3.3648 7.99333C4.34877 8.15669 5.35834 7.94878 6.19769 7.40992L8.7046 9.85296C7.23723 11.5838 6.43183 13.7793 6.43183 16.0484C6.43183 18.3175 7.23723 20.513 8.7046 22.2438L6.32543 24.7507C5.66049 24.2719 4.86149 24.0148 4.04207 24.0162C3.25254 24.0162 2.48075 24.2503 1.82429 24.689C1.16782 25.1276 0.656172 25.751 0.354035 26.4805C0.051898 27.2099 -0.0271548 28.0125 0.126873 28.7869C0.280902 29.5612 0.661093 30.2725 1.21937 30.8308C1.77765 31.3891 2.48893 31.7693 3.26329 31.9233C4.03764 32.0773 4.84027 31.9983 5.5697 31.6961C6.29912 31.394 6.92257 30.8823 7.36121 30.2259C7.79984 29.5694 8.03396 28.7976 8.03396 28.0081C8.03379 27.2675 7.82338 26.5421 7.42719 25.9164L9.87023 23.3615C10.1935 23.6346 10.5349 23.8853 10.8922 24.112C12.4143 25.0811 14.1814 25.5958 15.9858 25.5958C17.7903 25.5958 19.5573 25.0811 21.0795 24.112C21.4368 23.8853 21.7782 23.6346 22.1014 23.3615L24.5604 25.9004C24.1789 26.5361 23.9852 27.2669 24.0015 28.0081C24.0015 28.7976 24.2357 29.5694 24.6743 30.2259C25.1129 30.8823 25.7364 31.394 26.4658 31.6961C27.1952 31.9983 27.9979 32.0773 28.7722 31.9233C29.5466 31.7693 30.2579 31.3891 30.8161 30.8308C31.3744 30.2725 31.7546 29.5612 31.9086 28.7869C32.0627 28.0125 31.9836 27.2099 31.6815 26.4805C31.3793 25.751 30.8677 25.1276 30.2112 24.689C29.5548 24.2503 28.783 24.0162 27.9934 24.0162ZM27.9934 1.66159C28.388 1.65096 28.7791 1.738 29.1319 1.91497C29.4847 2.09194 29.7882 2.35335 30.0156 2.67596C30.243 2.99856 30.3872 3.37237 30.4353 3.76412C30.4833 4.15588 30.4338 4.55344 30.2912 4.92146C30.1486 5.28948 29.9172 5.61654 29.6176 5.87356C29.3181 6.13058 28.9597 6.3096 28.5743 6.39468C28.1889 6.47977 27.7884 6.46829 27.4085 6.36126C27.0286 6.25424 26.681 6.05499 26.3967 5.78123C25.9674 5.35805 25.7161 4.78684 25.6941 4.18447C25.6769 3.86726 25.723 3.54981 25.8297 3.25059C25.9364 2.95137 26.1015 2.67636 26.3155 2.44157C26.5295 2.20679 26.788 2.01691 27.0761 1.883C27.3642 1.7491 27.676 1.67383 27.9934 1.66159ZM1.64693 4.05673C1.64693 3.4215 1.89927 2.81228 2.34845 2.36311C2.79762 1.91393 3.40684 1.66159 4.04207 1.66159C4.6773 1.66159 5.28651 1.91393 5.73568 2.36311C6.18486 2.81228 6.4372 3.4215 6.4372 4.05673C6.43875 4.37524 6.3759 4.69077 6.25242 4.98438C6.12895 5.27798 5.94739 5.54359 5.71866 5.76526C5.27031 6.20338 4.66894 6.44965 4.04207 6.45186C3.40684 6.45186 2.79762 6.19952 2.34845 5.75035C1.89927 5.30117 1.64693 4.69196 1.64693 4.05673ZM16.0178 8.04862C17.6046 8.05503 19.1536 8.53417 20.4669 9.42488C21.7802 10.3156 22.7983 11.5775 23.3911 13.0494C23.984 14.5214 24.1248 16.1366 23.7956 17.6889C23.4663 19.2413 22.6819 20.6603 21.5425 21.7648C21.4041 20.5174 20.8402 19.3558 19.9458 18.4755C19.5359 18.0722 19.0676 17.733 18.5566 17.4695C19.0071 17.1029 19.37 16.6402 19.6187 16.1153C19.8673 15.5904 19.9954 15.0165 19.9937 14.4357C19.9966 13.7631 19.8296 13.1007 19.5081 12.51C19.1866 11.9192 18.721 11.4193 18.1546 11.0566C17.5883 10.6939 16.9394 10.4801 16.2684 10.4352C15.5973 10.3903 14.9258 10.5157 14.3161 10.7997C13.7065 11.0837 13.1785 11.5172 12.7811 12.0598C12.3838 12.6024 12.1299 13.2367 12.0432 13.9036C11.9565 14.5706 12.0398 15.2486 12.2852 15.8748C12.5306 16.501 12.9302 17.055 13.447 17.4855C12.64 17.9041 11.9484 18.5149 11.4333 19.264C10.9181 20.0131 10.5952 20.8774 10.493 21.7807C9.34801 20.6772 8.55869 19.2568 8.22618 17.7018C7.89368 16.1467 8.03314 14.5277 8.62669 13.0525C9.22024 11.5772 10.2408 10.3127 11.5577 9.42121C12.8745 8.52971 14.4275 8.05176 16.0178 8.04862ZM13.6226 14.4357C13.6226 13.9619 13.7631 13.4989 14.0263 13.105C14.2895 12.7111 14.6635 12.4041 15.1012 12.2228C15.5388 12.0416 16.0204 11.9941 16.485 12.0865C16.9496 12.179 17.3764 12.4071 17.7114 12.742C18.0463 13.077 18.2745 13.5038 18.3669 13.9684C18.4593 14.433 18.4119 14.9146 18.2306 15.3522C18.0493 15.7899 17.7423 16.164 17.3484 16.4271C16.9545 16.6903 16.4915 16.8308 16.0178 16.8308C15.3825 16.8308 14.7733 16.5785 14.3241 16.1293C13.875 15.6801 13.6226 15.0709 13.6226 14.4357ZM4.04207 30.4032C3.40684 30.4032 2.79762 30.1509 2.34845 29.7017C1.89927 29.2525 1.64693 28.6433 1.64693 28.0081C1.64693 27.3729 1.89927 26.7637 2.34845 26.3145C2.79762 25.8653 3.40684 25.613 4.04207 25.613C4.36587 25.6114 4.68644 25.6774 4.98335 25.8066C5.28026 25.9358 5.547 26.1254 5.76657 26.3634C6.16779 26.7971 6.38528 27.3695 6.37333 27.9602C6.38621 28.5928 6.14827 29.2047 5.71149 29.6625C5.2747 30.1202 4.67454 30.3865 4.04207 30.4032ZM12.0259 22.8985V22.4195C12.0259 21.3607 12.4464 20.3454 13.1951 19.5968C13.9437 18.8481 14.959 18.4276 16.0178 18.4276C17.0765 18.4276 18.0918 18.8481 18.8405 19.5968C19.5891 20.3454 20.0097 21.3607 20.0097 22.4195V22.8985C18.8067 23.6303 17.4258 24.0174 16.0178 24.0174C14.6097 24.0174 13.2288 23.6303 12.0259 22.8985ZM27.9934 30.4032C27.5308 30.4081 27.0769 30.2779 26.6871 30.0287C26.2974 29.7795 25.9887 29.4221 25.7989 29.0002C25.6092 28.5783 25.5465 28.1102 25.6186 27.6532C25.6908 27.1963 25.8946 26.7702 26.2051 26.4273V26.3475C26.4345 26.1059 26.7125 25.9156 27.0207 25.789C27.3289 25.6624 27.6604 25.6024 27.9934 25.613C28.6287 25.613 29.2379 25.8653 29.6871 26.3145C30.1362 26.7637 30.3886 27.3729 30.3886 28.0081C30.3886 28.6433 30.1362 29.2525 29.6871 29.7017C29.2379 30.1509 28.6287 30.4032 27.9934 30.4032Z" fill="white"/>
</svg>
