<svg width="32" height="28" viewBox="0 0 32 28" fill="none" xmlns="http://www.w3.org/2000/svg">
<path d="M31.1012 17.6872L29.4491 18.1565L25.3845 3.92585C25.3376 3.74749 25.2156 3.5973 25.0466 3.50343C24.887 3.40956 24.6899 3.39079 24.5116 3.43772L17.5652 5.41838L13.5945 6.55421L7.32395 8.33774L5.66244 2.50841C5.60612 2.31128 5.46532 2.15171 5.28696 2.06722L1.00649 0.0677897C0.649784 -0.101176 0.236756 0.0584026 0.0677897 0.405722C-0.101176 0.762428 0.0584026 1.17546 0.405722 1.34442L4.3952 3.21244L6.15996 9.39847C6.15996 9.39847 6.15996 9.39847 6.15996 9.40786L9.46418 21.0196C8.82587 21.3481 8.30019 21.855 7.94349 22.4933C7.46475 23.3476 7.35211 24.3426 7.62433 25.2813C8.07491 26.8489 9.5205 27.9472 11.1538 27.9472C11.4918 27.9472 11.8297 27.9003 12.1583 27.8064C13.097 27.5342 13.8855 26.9146 14.3548 26.0604C14.7397 25.3658 14.8899 24.5773 14.7866 23.7981L29.1393 19.7148H29.1487L31.4861 19.0483C31.8616 18.9451 32.0775 18.5508 31.9742 18.1753C31.8616 17.7998 31.4673 17.5839 31.1012 17.6872ZM18.2316 10.3278L17.124 9.94292C16.8424 9.83966 16.5326 9.93353 16.3449 10.1682L15.6127 11.0787L14.6552 7.7182L17.2742 6.97663L18.2316 10.3278ZM13.1251 25.3845C12.8341 25.9102 12.346 26.2951 11.7734 26.4547C11.5669 26.511 11.3604 26.5391 11.1538 26.5391C10.1494 26.5391 9.25767 25.8633 8.98545 24.8964C8.81648 24.3144 8.89157 23.7043 9.18257 23.1786C9.47357 22.6529 9.96169 22.2681 10.5343 22.1085C10.7408 22.0522 10.9473 22.024 11.1538 22.024C12.1583 22.024 13.05 22.6999 13.3222 23.6667C13.4912 24.2487 13.4161 24.8589 13.1251 25.3845ZM14.336 22.4652C13.6977 21.3387 12.4868 20.6159 11.1538 20.6159C11.0412 20.6159 10.9379 20.6253 10.8253 20.6347L7.70881 9.69886L13.3035 8.10307L14.6364 12.7684C14.7115 13.0219 14.918 13.2096 15.1715 13.2659C15.2184 13.2753 15.2654 13.2753 15.3123 13.2753C15.5188 13.2753 15.7253 13.1814 15.8567 13.0125L17.1334 11.4261L19.0483 12.1019C19.1234 12.1301 19.2079 12.1395 19.2924 12.1395C19.6772 12.1395 19.9964 11.8203 19.9964 11.4355C19.9964 11.351 19.9776 11.2665 19.9495 11.1914L18.6353 6.57299L24.2299 4.97719L28.0974 18.532L14.336 22.4652Z" fill="white"/>
</svg>
