<svg width="32" height="32" viewBox="0 0 32 32" fill="none" xmlns="http://www.w3.org/2000/svg">
<path d="M30.5 3.5H26C25.9343 3.49978 25.8693 3.51257 25.8086 3.53763C25.7478 3.56269 25.6927 3.59953 25.6463 3.64601C25.5999 3.6925 25.5632 3.74772 25.5383 3.80848C25.5133 3.86923 25.5007 3.93433 25.501 4H25.5V5.5H22.5V4.5H21.5V20.5H20.5C20.3885 20.5 20.2802 20.5373 20.1923 20.6059C20.1044 20.6745 20.042 20.7706 20.0149 20.8787L19.75 21.9384L19.4851 20.8787C19.458 20.7706 19.3956 20.6745 19.3077 20.6059C19.2198 20.5373 19.1115 20.5 19 20.5V14.5C19.1115 14.5 19.2198 14.4627 19.3077 14.3941C19.3956 14.3255 19.458 14.2295 19.4851 14.1213L19.9851 12.1213C19.9857 12.1188 19.9859 12.1162 19.9865 12.1137C19.9893 12.1017 19.9915 12.0896 19.9934 12.0774C19.9944 12.0713 19.9955 12.0652 19.9962 12.0591C19.9976 12.0475 19.9982 12.0356 19.9988 12.0237C19.9991 12.0173 19.9997 12.0108 19.9998 12.0044C19.9998 12.0029 20 12.0015 20 12V9.00003C20 8.9102 19.9758 8.82203 19.93 8.74479C19.8841 8.66754 19.8183 8.60407 19.7394 8.56104L11.4894 4.06104C11.416 4.02097 11.3337 3.99997 11.25 3.99997C11.1663 3.99997 11.084 4.02097 11.0106 4.06104L2.76056 8.56104C2.68171 8.60407 2.6159 8.66754 2.57005 8.74479C2.5242 8.82203 2.5 8.9102 2.5 9.00003V12C2.5 12.0015 2.50021 12.0029 2.50023 12.0044C2.50028 12.0108 2.50089 12.0172 2.50119 12.0236C2.50175 12.0355 2.50242 12.0474 2.5038 12.0591C2.50453 12.0652 2.50563 12.0713 2.50658 12.0774C2.50849 12.0896 2.5107 12.1017 2.51348 12.1137C2.51407 12.1162 2.5143 12.1188 2.51492 12.1213L3.01492 14.1213C3.04197 14.2295 3.1044 14.3255 3.19229 14.3941C3.28018 14.4627 3.38849 14.5 3.5 14.5V20.5C3.38849 20.5 3.28019 20.5373 3.19229 20.6059C3.1044 20.6745 3.04197 20.7706 3.01492 20.8787L2.6096 22.5H1.5C1.36739 22.5 1.24022 22.5527 1.14645 22.6465C1.05268 22.7402 1 22.8674 1 23V28C1 28.1326 1.05268 28.2598 1.14645 28.3536C1.24022 28.4473 1.36739 28.5 1.5 28.5H27C27.1326 28.5 27.2598 28.4473 27.3536 28.3536C27.4473 28.2598 27.5 28.1326 27.5 28V25.5C27.5 25.3674 27.4473 25.2402 27.3536 25.1465C27.2598 25.0527 27.1326 25 27 25H25.5V23C25.5 22.8674 25.4473 22.7402 25.3536 22.6465C25.2598 22.5527 25.1326 22.5 25 22.5H24.3904L23.9851 20.8787C23.958 20.7706 23.8956 20.6745 23.8077 20.6059C23.7198 20.5373 23.6115 20.5 23.5 20.5H22.5V12.5H27.5C27.6326 12.5 27.7598 12.4473 27.8536 12.3536C27.9473 12.2598 28 12.1326 28 12V10.5H30.5C30.6326 10.5 30.7598 10.4473 30.8536 10.3536C30.9473 10.2598 31 10.1326 31 10V4C31 3.8674 30.9473 3.74022 30.8536 3.64645C30.7598 3.55268 30.6326 3.5 30.5 3.5ZM13.8904 22.5L13.4851 20.8787C13.458 20.7706 13.3956 20.6745 13.3077 20.6059C13.2198 20.5373 13.1115 20.5 13 20.5V14.5C13.1115 14.5 13.2198 14.4627 13.3077 14.3941C13.3956 14.3255 13.458 14.2295 13.4851 14.1213L13.8904 12.5H14.6096L15.0149 14.1213C15.042 14.2295 15.1044 14.3255 15.1923 14.3941C15.2802 14.4627 15.3885 14.5 15.5 14.5V20.5C15.3885 20.5 15.2802 20.5373 15.1923 20.6059C15.1044 20.6745 15.042 20.7706 15.0149 20.8787L14.6096 22.5H13.8904ZM7.8904 22.5L7.48508 20.8787C7.45803 20.7706 7.3956 20.6745 7.30771 20.6059C7.21982 20.5373 7.11151 20.5 7 20.5V14.5C7.11151 14.5 7.21982 14.4627 7.30771 14.3941C7.3956 14.3255 7.45803 14.2295 7.48508 14.1213L7.8904 12.5H8.6096L9.01492 14.1213C9.04197 14.2295 9.1044 14.3255 9.19229 14.3941C9.28018 14.4627 9.38849 14.5 9.5 14.5V20.5C9.38849 20.5 9.28018 20.5373 9.19229 20.6059C9.1044 20.6745 9.04197 20.7706 9.01492 20.8787L8.6096 22.5H7.8904ZM3.89038 13.5L3.64038 12.5H6.85962L6.60962 13.5H3.89038ZM19 11.5H3.5V9.5H19V11.5ZM18.6096 13.5H15.8904L15.6404 12.5H18.8596L18.6096 13.5ZM12 20.5H10.5V14.5H12V20.5ZM12.6096 13.5H9.89038L9.64038 12.5H12.8596L12.6096 13.5ZM9.89038 21.5H12.6096L12.8596 22.5H9.64038L9.89038 21.5ZM15.8904 21.5H18.6096L18.8596 22.5H15.6404L15.8904 21.5ZM18 20.5H16.5V14.5H18V20.5ZM11.25 5.06952L17.5392 8.5H4.96085L11.25 5.06952ZM4.5 14.5H6V20.5H4.5V14.5ZM3.89038 21.5H6.60962L6.85962 22.5H3.64038L3.89038 21.5ZM26.5 27.5H2V26H26.5V27.5ZM24.5 25H2V23.5H24.5V25ZM23.3596 22.5H20.6404L20.8904 21.5H23.1096L23.3596 22.5ZM30 4.5V6.5H28V6C28 5.89185 27.9648 5.78664 27.8996 5.70034L27.9 5.70002L27 4.5H30ZM27 6.5V8.5H22.5V6.5H27ZM22.5 11.5V9.5H27V11.5H22.5ZM28 9.5V7.5H30V9.5H28Z" fill="white"/>
<rect x="22.4995" y="8.49951" width="4.49721" height="1.01258" fill="white"/>
<rect x="2.00011" y="24.9712" width="22.4977" height="1.01258" fill="white"/>
</svg>
