<svg width="32" height="32" viewBox="0 0 32 32" fill="none" xmlns="http://www.w3.org/2000/svg">
<path d="M5.40283 11.8994C7.70142 11.8994 9.57129 10.0295 9.57129 7.73096C9.57129 5.43262 7.70142 3.5625 5.40283 3.5625C3.10425 3.5625 1.23438 5.43237 1.23438 7.73096C1.23438 10.0295 3.10425 11.8994 5.40283 11.8994ZM5.40283 5.4375C6.66748 5.4375 7.69629 6.46631 7.69629 7.73096C7.69629 8.99561 6.66748 10.0244 5.40283 10.0244C4.13818 10.0244 3.10938 8.99561 3.10938 7.73096C3.10938 6.46631 4.13818 5.4375 5.40283 5.4375Z" fill="white"/>
<path d="M31.3503 1.79688C28.6367 -0.104736 25.7136 -0.120361 22.4146 1.74878C20.3721 2.90601 18.1746 2.97949 15.875 1.97021V0.9375C15.875 0.419678 15.4553 0 14.9375 0C14.4197 0 14 0.419678 14 0.9375V13.6248C12.2634 13.6248 4.85815 13.6228 2.89209 13.6228C1.427 13.6228 0.187256 14.8455 0.1875 16.3135L0.188721 21.9658C0.188721 23.0007 0.774414 23.9116 1.65869 24.3608L1.66211 31.063C1.66235 31.5806 2.08203 32 2.59961 32H8.18604C8.70361 32 9.12354 31.5801 9.12354 31.0625V19.25H14V31.0625C14 31.5803 14.4197 32 14.9375 32C15.4553 32 15.875 31.5803 15.875 31.0625V13.365C16.7847 13.7646 17.7192 13.9658 18.6855 13.9658C20.1565 13.9656 21.7 13.5022 23.3354 12.5757C25.5298 11.3323 27.9031 11.3396 30.3894 12.5967C30.6802 12.7434 31.0261 12.729 31.3035 12.5586C31.5811 12.3879 31.75 12.0857 31.75 11.76V2.56445C31.75 2.25879 31.6008 1.97217 31.3503 1.79688ZM13.7498 17.375H8.18628C7.66846 17.375 7.24878 17.7949 7.24878 18.3125L7.24854 30.125H3.53662L3.53345 23.6929C3.5332 23.2358 3.20312 22.8455 2.75244 22.769C2.35986 22.7026 2.06372 22.3572 2.06348 21.9653C2.06348 21.9653 2.0625 16.3225 2.0625 16.313C2.06226 15.8665 2.45142 15.498 2.89209 15.498C4.85791 15.498 12.0962 15.4998 13.7498 15.5V17.375ZM22.4111 10.9441C19.9011 12.3665 17.8647 12.4688 15.875 11.2539V3.98779C16.8979 4.35278 17.915 4.54346 18.9119 4.5564C20.4368 4.5769 21.9268 4.18018 23.3386 3.38037C25.8486 1.95801 27.8853 1.85571 29.875 3.07056V10.3367C28.8518 9.97168 27.835 9.78076 26.8379 9.76807C25.3113 9.74683 23.823 10.1443 22.4111 10.9441Z" fill="white"/>
</svg>
