<svg width="31" height="32" viewBox="0 0 31 32" fill="none" xmlns="http://www.w3.org/2000/svg">
<path d="M29.3194 20.4269L28.9843 19.6923L25.5562 22.3858L25.6593 22.7854C25.7495 23.1075 25.7882 23.4555 25.7882 23.8035C25.7882 24.6154 25.5433 25.4015 25.0665 26.0717L24.8345 26.4068L27.1156 30.1184L27.6826 29.5514C29.2034 28.0048 30.0411 25.9557 30.0411 23.8035C30.0411 22.6565 29.7962 21.4837 29.3194 20.4269ZM27.3218 28.0693L26.3294 26.4454C26.8063 25.6464 27.0511 24.7443 27.0511 23.8035C27.0511 23.4942 27.0254 23.1849 26.9738 22.8756L28.4688 21.7028C28.6879 22.3858 28.791 23.0947 28.791 23.8035C28.791 25.3629 28.2755 26.8578 27.3218 28.0693Z" fill="white"/>
<path d="M22.3986 27.7213C22.2182 27.7471 22.0249 27.76 21.8315 27.76C19.6535 27.76 17.875 25.9815 17.875 23.8035C17.875 23.6617 17.8879 23.5071 17.9008 23.3653L17.9524 22.9529L14.1634 20.7878L13.9443 21.561C13.7381 22.2827 13.635 23.0431 13.635 23.8035C13.635 28.327 17.308 32 21.8315 32C22.6821 32 23.5198 31.8711 24.3189 31.6134L25.0792 31.3685L22.7981 27.644L22.3986 27.7213ZM21.8444 30.7499C18.0168 30.7499 14.898 27.6311 14.898 23.8035C14.898 23.4297 14.9238 23.0689 14.9882 22.6951L16.6378 23.6359C16.6378 23.6875 16.6378 23.739 16.6378 23.7906C16.6378 26.6645 18.9705 28.9972 21.8444 28.9972C21.9475 28.9972 22.0635 28.9972 22.1666 28.9843L23.159 30.6082C22.7337 30.7113 22.2826 30.7499 21.8444 30.7499Z" fill="white"/>
<path d="M15.3621 18.7386L19.1381 20.9037L19.4732 20.6589C20.6847 19.7439 22.3987 19.6279 23.7261 20.3496L24.087 20.5429L27.5151 17.8494L26.8836 17.3596C25.4531 16.2384 23.6617 15.6327 21.8445 15.6327C19.5763 15.6327 17.4756 16.5348 15.9162 18.1844L15.3621 18.7386ZM21.8445 16.8699C23.1333 16.8699 24.3576 17.2179 25.4402 17.8751L23.9452 19.0479C22.3858 18.3649 20.5171 18.5066 19.0737 19.4088L17.4241 18.468C18.6484 17.4241 20.1949 16.8699 21.8445 16.8699Z" fill="white"/>
<path d="M6.41806 7.62948C8.51875 7.62948 10.2328 5.91542 10.2328 3.81474C10.2328 1.71406 8.51875 0 6.41806 0C4.31738 0 2.61621 1.71406 2.61621 3.81474C2.61621 5.91542 4.31738 7.62948 6.41806 7.62948ZM6.41806 1.26299C7.82281 1.26299 8.96981 2.40999 8.96981 3.81474C8.96981 5.21949 7.82281 6.36649 6.41806 6.36649C5.01331 6.36649 3.86631 5.21949 3.86631 3.81474C3.86631 2.40999 5.01331 1.26299 6.41806 1.26299Z" fill="white"/>
<path d="M11.0447 12.3979C10.6967 12.3722 10.4003 12.6299 10.3745 12.9779L9.78172 21.5997C9.78172 21.6255 9.76883 21.6513 9.76883 21.677L9.21466 30.0669C9.18888 30.4406 8.87958 30.7499 8.49295 30.7499H4.33025C3.94362 30.7499 3.63431 30.4535 3.60854 30.0669L3.05437 21.677C3.04148 21.4193 2.86106 21.1873 2.61619 21.1229C1.80427 20.878 1.80427 20.878 1.73983 19.9887L1.23721 11.0834V10.9803H1.2501C2.21667 10.6839 3.18325 10.3875 4.17559 10.0653C4.60089 10.5679 5.03907 11.0705 5.50302 11.586L5.9412 12.0757C6.05719 12.2175 6.23762 12.2948 6.41804 12.2948C6.59847 12.2948 6.76601 12.2175 6.89489 12.0757L7.43617 11.47C7.84857 10.9932 8.24809 10.5421 8.6476 10.0782C8.67338 10.0782 8.68627 10.0782 8.71204 10.0782L15.1816 11.5345C15.2718 11.5602 15.3621 11.5602 15.4523 11.5345L21.2646 10.3488C21.5997 10.2844 21.8188 9.94928 21.7543 9.60132C21.6899 9.26624 21.3548 9.04715 21.0068 9.11159L15.3234 10.2715L8.93113 8.82806C8.90536 8.82806 8.87958 8.81517 8.85381 8.81517C8.73782 8.80228 8.10632 8.77651 7.74547 9.2018C7.34595 9.67864 6.93355 10.1426 6.50826 10.6323L6.44382 10.7097C5.99275 10.1941 5.55457 9.70442 5.12928 9.2018C4.7942 8.80228 4.35602 8.68629 3.87918 8.84095C2.88683 9.16314 1.90737 9.47244 0.902135 9.76885C0.322191 9.94928 0 10.3875 0 10.9803C0 11.0318 0 11.1349 0 11.1349L0.48973 19.9114L0.502618 20.0661C0.592831 21.3935 0.811921 21.8059 1.84293 22.1796L2.37133 30.1442C2.43576 31.1881 3.31212 32 4.34313 32H8.51873C9.56263 32 10.4261 31.1881 10.4905 30.1442L11.0318 21.8188C11.0318 21.793 11.0447 21.7801 11.0447 21.7544L11.6375 13.0552C11.6633 12.733 11.3927 12.4237 11.0447 12.3979Z" fill="white"/>
</svg>
