<svg width="32" height="32" viewBox="0 0 32 32" fill="none" xmlns="http://www.w3.org/2000/svg">
<path d="M29.1309 24.3869V19.635H16.9375V16.831H23.3726V15.8935C23.3726 12.69 21.3186 9.95762 18.4585 8.943C19.8656 8.10269 20.8104 6.56506 20.8104 4.81038C20.8104 2.15794 18.6525 0 16 0C13.3475 0 11.1895 2.15794 11.1895 4.81044C11.1895 6.56513 12.1343 8.10275 13.5414 8.94306C10.6814 9.95769 8.62744 12.6901 8.62744 15.8936V16.8311H15.0625V19.6351H2.86906V24.3869H0V32H7.61312V25.1451V24.3869H4.74406V21.51H15.0625V24.3869H12.1934V25.1451V32H19.8066V25.1451V24.3869H16.9375V21.51H27.2559V24.3869H24.3869V25.1451V32H32V24.3869H29.1309ZM5.73812 26.2619V30.125H1.875V26.2619H5.73812ZM13.0645 4.81044C13.0645 3.19181 14.3814 1.875 16 1.875C17.6186 1.875 18.9354 3.19181 18.9354 4.81044C18.9354 6.42906 17.6186 7.74587 16 7.74587C14.3814 7.74587 13.0645 6.42906 13.0645 4.81044ZM17.9316 26.2619V30.125H14.0684V26.2619H17.9316ZM10.5824 14.9561C11.0286 12.3697 13.2881 10.396 16 10.396C18.7119 10.396 20.9714 12.3697 21.4176 14.9561H10.5824ZM30.125 30.125H26.2619V26.2619H30.125V30.125Z" fill="white"/>
</svg>
