<svg width="32" height="32" viewBox="0 0 32 32" fill="none" xmlns="http://www.w3.org/2000/svg">
<path d="M31.3838 22.0459C30.598 21.0868 29.2759 20.7967 28.169 21.3406L22.2116 24.2666V23.9488C22.2116 22.2531 20.8508 20.8735 19.178 20.8735H10.7447C10.6085 20.8735 10.4761 20.918 10.3674 21.0003L7.59276 23.1014V22.0351C7.59276 21.6899 7.31295 21.4101 6.96777 21.4101H0.624985C0.279806 21.4101 0 21.6899 0 22.0351V29.7067C0 30.0519 0.279806 30.3317 0.624985 30.3317H6.96777C7.31295 30.3317 7.59276 30.0519 7.59276 29.7067V28.9768L17.0377 31.6419C17.3493 31.735 17.6695 31.7811 17.9888 31.7811C18.4764 31.7811 18.9618 31.6734 19.4108 31.4605L30.4489 26.2255C31.2038 25.8727 31.7439 25.1997 31.9306 24.3788C32.119 23.5503 31.9197 22.7001 31.3838 22.0459ZM6.34279 29.0817H1.24997V22.6601H6.34279V29.0817ZM30.7117 24.1016C30.6113 24.5434 30.3225 24.9048 29.9165 25.0946L18.8752 30.331C18.4108 30.5511 17.8841 30.5909 17.3921 30.4431C17.3887 30.4421 17.3853 30.4411 17.382 30.4402L7.59276 27.6779V24.6693L10.9547 22.1235H19.178C20.1615 22.1235 20.9616 22.9424 20.9616 23.9488V24.6449H16.5036C16.1585 24.6449 15.8786 24.9247 15.8786 25.2699C15.8786 25.615 16.1585 25.8949 16.5036 25.8949H21.5877H21.5888C21.5893 25.8949 21.5896 25.8949 21.59 25.8949C21.6922 25.8943 21.7887 25.8692 21.8737 25.8252L28.7201 22.4625C29.3031 22.1761 30.001 22.3304 30.417 22.8382C30.7065 23.1916 30.814 23.6521 30.7117 24.1016Z" fill="white"/>
<path d="M19.8584 19.028C24.9051 19.028 29.0108 14.9222 29.0108 9.87555C29.0108 4.82892 24.9051 0.723145 19.8584 0.723145C14.8117 0.723145 10.706 4.82892 10.706 9.87555C10.706 14.9222 14.8118 19.028 19.8584 19.028ZM19.8584 17.7781C19.471 17.7781 19.09 17.75 18.7174 17.6959C19.4714 17.1744 20.3409 16.3809 20.8736 15.1674C21.2524 14.3045 21.8647 13.1234 22.8035 12.8299C23.3482 12.6598 23.9984 12.8037 24.737 13.2577C25.0281 13.4366 25.6926 13.9286 26.3259 14.4119C24.8947 16.4463 22.5292 17.7781 19.8584 17.7781ZM27.7067 8.94757C26.7697 9.21263 25.0039 9.54481 24.1277 8.62389C23.9267 8.41246 23.7561 8.19541 23.5911 7.9856C23.1259 7.39411 22.6448 6.78244 21.6869 6.63869C20.8418 6.51219 20.2102 6.90312 19.7493 7.18868C19.4242 7.39017 19.217 7.51017 19.0749 7.47323C16.9375 6.91925 17.0854 5.23629 17.4743 3.25746C17.5517 2.86347 17.6123 2.55491 17.6203 2.29573C18.3302 2.0858 19.0814 1.97305 19.8583 1.97305C23.902 1.97305 27.2459 5.02579 27.7067 8.94757ZM16.2845 2.82841C16.272 2.89334 16.2595 2.95715 16.2478 3.01647C16.0858 3.8407 15.8639 4.96948 16.0814 6.03852C16.3592 7.40455 17.2609 8.2944 18.7616 8.68327C19.4307 8.85676 19.9725 8.5209 20.4078 8.25122C20.7844 8.01785 21.1095 7.81629 21.5015 7.87485C21.9491 7.94204 22.1766 8.20903 22.6086 8.75833C22.7828 8.97995 22.9804 9.23107 23.2218 9.48519C23.9415 10.2417 24.9345 10.4782 25.8952 10.4782C26.5647 10.4782 27.2184 10.3633 27.753 10.2294C27.704 11.3362 27.4262 12.3846 26.9659 13.3283C26.4303 12.921 25.7401 12.4072 25.3915 12.1929C24.3314 11.5412 23.3352 11.3541 22.4305 11.6369C21.005 12.0824 20.206 13.5784 19.729 14.6649C19.163 15.954 18.1234 16.6551 17.0842 17.2207C17.065 17.2311 17.0466 17.2424 17.029 17.2546C16.3572 16.9961 15.7294 16.6485 15.1601 16.2262C15.2693 16.1623 15.3802 16.0993 15.4899 16.037C16.36 15.5432 17.3462 14.9835 17.3328 13.9271C17.326 13.3952 16.9644 12.9538 16.5816 12.4865C16.2344 12.0627 15.841 11.5823 15.6819 11.0131C15.5203 10.4352 15.4336 9.76624 15.4243 9.0247C15.4054 7.52117 14.64 6.15652 13.3911 5.33891C14.1335 4.28368 15.1273 3.41771 16.2845 2.82841ZM12.7539 6.41651C13.6279 7.01137 14.1612 7.97841 14.1746 9.04026C14.1853 9.89024 14.2875 10.6672 14.4782 11.3495C14.708 12.1714 15.2108 12.7852 15.6148 13.2784C15.7932 13.4961 16.0621 13.8244 16.0831 13.9469C16.0816 14.2639 15.4397 14.6283 14.8731 14.9498C14.6412 15.0814 14.4045 15.2158 14.1763 15.3622C12.8024 13.9398 11.956 12.0046 11.956 9.87549C11.956 8.63577 12.243 7.4618 12.7539 6.41651Z" fill="white"/>
</svg>
