<svg width="32" height="32" viewBox="0 0 32 32" fill="none" xmlns="http://www.w3.org/2000/svg">
<path d="M31.8467 28.4665C31.6202 28.206 31.2254 28.1785 30.9649 28.405C30.2985 28.9845 29.6817 29.5852 28.8073 29.8269C27.8352 30.0955 26.9114 29.8835 26.0317 29.4437L29.2866 18.4922C29.3676 18.2197 29.2545 17.9269 29.0114 17.7796L26 15.9549V10.6266C26 10.2815 25.7202 10.0016 25.375 10.0016H24.125V8.12663C24.125 7.78151 23.8452 7.50163 23.5 7.50163H21.5312V5.62664C21.5312 5.28151 21.2514 5.00164 20.9062 5.00164H17.875V0.626647C17.875 0.281522 17.5952 0.00164795 17.25 0.00164795H14.75C14.4048 0.00164795 14.125 0.281522 14.125 0.626647V5.00164H11.0938C10.7486 5.00164 10.4688 5.28151 10.4688 5.62664V7.50163H8.50002C8.15483 7.50163 7.87502 7.78151 7.87502 8.12663V10.0016H6.62502C6.27983 10.0016 6.00002 10.2815 6.00002 10.6266V15.9549L2.98865 17.7796C2.74553 17.9269 2.63247 18.2197 2.71347 18.4921C2.71347 18.4921 5.9604 29.4165 5.96177 29.4212C5.90633 29.2347 4.90621 29.1119 4.7294 29.089C2.90959 28.8535 1.52578 29.7652 0.214908 30.905C-0.0455919 31.1315 -0.0730919 31.5261 0.153345 31.7866C0.369532 32.0353 0.771844 32.077 1.03503 31.8482C2.38553 30.6742 3.90809 29.7793 5.69496 30.6728C7.31146 31.481 8.9847 31.8276 10.6684 30.9416C12.026 30.227 13.3361 29.6099 14.8515 30.3314L16.4094 31.0733C17.7423 31.708 19.2641 31.6934 20.5844 31.0332C21.398 30.6263 22.2249 30.085 23.1543 30.0211C24.0653 29.9585 24.9455 30.2977 25.746 30.6983C26.8034 31.227 28.0414 31.3327 29.1769 31.009C30.2228 30.7108 30.984 30.0447 31.785 29.3482C32.0456 29.1217 32.0731 28.727 31.8467 28.4665ZM24.75 11.2516V15.1976L18.2376 11.2516H24.75ZM15.375 1.25165H16.625V5.00164H15.375V1.25165ZM11.7188 6.25164H20.2812V7.50163H11.7188V6.25164ZM7.25002 11.2516H13.7624L7.25002 15.1976V11.2516ZM15.375 29.1963C15.3751 29.0852 14.4841 28.8803 14.3675 28.8551C13.2798 28.6197 12.112 28.7692 11.1259 29.2882C10.4104 29.6648 9.72008 30.1041 8.90177 30.2095C8.90027 30.2097 8.89877 30.2098 8.89727 30.21C8.41914 30.2682 7.92977 30.233 7.46702 30.098L4.04909 18.5986L15.375 11.7361C15.375 11.7361 15.375 29.1956 15.375 29.1963ZM9.12502 10.0016V8.75163H22.875V10.0016H9.12502ZM24.8764 28.9428C24.8833 28.7494 23.1239 28.7512 23.0061 28.7636C21.9212 28.8783 20.9827 29.4365 20.0253 29.9152C18.8943 30.4807 17.7306 30.3182 16.625 29.7915V11.7361L27.9509 18.5986L24.8764 28.9428Z" fill="white"/>
</svg>
