<svg width="32" height="32" viewBox="0 0 32 32" fill="none" xmlns="http://www.w3.org/2000/svg">
<g clip-path="url(#clip0)">
<path d="M13.4178 25.1768C11.866 25.1768 10.6035 26.4393 10.6035 27.9911C10.6035 29.5429 11.866 30.8054 13.4178 30.8054C14.9697 30.8054 16.2322 29.5429 16.2322 27.9911C16.2321 26.4393 14.9696 25.1768 13.4178 25.1768ZM13.4178 29.2339C12.7325 29.2339 12.1749 28.6763 12.1749 27.991C12.1749 27.3056 12.7325 26.748 13.4178 26.748C14.1031 26.748 14.6608 27.3056 14.6608 27.991C14.6608 28.6764 14.1031 29.2339 13.4178 29.2339Z" fill="white"/>
<path d="M23.2894 25.1768C21.7376 25.1768 20.4751 26.4393 20.4751 27.9911C20.4751 29.5429 21.7376 30.8054 23.2894 30.8054C24.8412 30.8054 26.1037 29.5429 26.1037 27.9911C26.1037 26.4393 24.8412 25.1768 23.2894 25.1768ZM23.2894 29.2339C22.604 29.2339 22.0465 28.6763 22.0465 27.991C22.0465 27.3056 22.6041 26.748 23.2894 26.748C23.9748 26.748 24.5324 27.3056 24.5324 27.991C24.5324 28.6764 23.9747 29.2339 23.2894 29.2339Z" fill="white"/>
<path d="M23.9823 10.3596H12.723C12.289 10.3596 11.9373 10.7114 11.9373 11.1453C11.9373 11.5792 12.2891 11.931 12.723 11.931H23.9823C24.4162 11.931 24.768 11.5792 24.768 11.1453C24.768 10.7113 24.4162 10.3596 23.9823 10.3596Z" fill="white"/>
<path d="M23.3695 14.4397H13.3358C12.9019 14.4397 12.5502 14.7914 12.5502 15.2254C12.5502 15.6593 12.9019 16.0111 13.3358 16.0111H23.3694C23.8034 16.0111 24.1551 15.6593 24.1551 15.2254C24.1551 14.7915 23.8034 14.4397 23.3695 14.4397Z" fill="white"/>
<path d="M31.6464 6.85897C31.3468 6.49122 30.9028 6.28034 30.4283 6.28034H5.95489L5.46064 3.88102C5.35745 3.38052 5.01607 2.96027 4.54726 2.75671L1.09869 1.25983C0.700562 1.08689 0.237873 1.26958 0.0651853 1.66758C-0.10769 2.06571 0.0749978 2.52846 0.472936 2.70115L3.92157 4.19809L7.7232 22.6519C7.87295 23.3787 8.5202 23.9062 9.26227 23.9062H28.0852C28.5191 23.9062 28.8709 23.5544 28.8709 23.1205C28.8709 22.6866 28.5191 22.3348 28.0852 22.3348H9.26233L8.79989 20.0901H28.2307C28.9727 20.0901 29.62 19.5626 29.7697 18.8358L31.9674 8.16859C32.0631 7.70409 31.9461 7.22666 31.6464 6.85897ZM28.2307 18.5188H8.4762L6.27864 7.85166L30.4283 7.85172L28.2307 18.5188Z" fill="white"/>
</g>
<defs>
<clipPath id="clip0">
<rect width="32" height="32" fill="white"/>
</clipPath>
</defs>
</svg>
