<svg width="32" height="32" viewBox="0 0 32 32" fill="none" xmlns="http://www.w3.org/2000/svg">
<g clip-path="url(#clip0)">
<path d="M25.4118 1.69714V4.52067H20.7059V7.3442H16V10.1677H11.2941V15.3581C10.4105 15.0448 9.4602 14.8736 8.47059 14.8736C3.79991 14.8736 0 18.6735 0 23.3442C0 28.0149 3.79991 31.8148 8.47059 31.8148C13.4965 31.8148 17.4476 27.4363 16.8886 22.403H32V1.69714H25.4118ZM13.1765 12.0501H16V19.4654C15.6617 18.8124 15.2363 18.2012 14.7381 17.6518C14.7381 17.6518 14.7381 17.6518 14.738 17.6518C14.2758 17.1422 13.7521 16.6868 13.1765 16.3008V12.0501ZM5.3019 29.1188C5.64198 27.6838 6.93308 26.6127 8.47059 26.6127C10.0081 26.6127 11.2992 27.6838 11.6393 29.1188C9.67071 30.2034 7.27354 30.2051 5.3019 29.1188ZM6.78789 23.0476C6.78789 22.1198 7.54271 21.365 8.47059 21.365C9.39846 21.365 10.1533 22.1198 10.1533 23.0476C10.1533 23.9755 9.3984 24.7303 8.47059 24.7303C7.54278 24.7303 6.78789 23.9755 6.78789 23.0476ZM13.2193 27.9061C12.7931 26.8791 12.0434 26.0196 11.0977 25.4548C11.6797 24.82 12.0357 23.9747 12.0357 23.0476C12.0357 21.0819 10.4364 19.4826 8.47065 19.4826C6.50491 19.4826 4.9056 21.0819 4.9056 23.0476C4.9056 23.9747 5.26155 24.82 5.84364 25.4548C4.89795 26.0196 4.1482 26.8791 3.72198 27.9061C2.58334 26.7215 1.88235 25.1132 1.88235 23.3442C1.88235 19.7115 4.83784 16.756 8.47059 16.756C12.1012 16.756 15.0588 19.7087 15.0588 23.3442C15.0588 25.1132 14.3578 26.7215 13.2193 27.9061ZM20.7059 20.5207H17.8824C17.8824 19.8578 17.8824 9.87973 17.8824 9.22656H20.7059V20.5207ZM25.4118 20.5207H22.5882C22.5882 19.9302 22.5882 6.89915 22.5882 6.40303H25.4118V20.5207ZM30.1176 20.5207H27.2941C27.2941 19.0634 27.2941 4.46797 27.2941 3.5795H30.1176V20.5207Z" fill="white"/>
<path d="M6.68289 6.1747L9.34492 8.83667L16.6655 1.51613L15.3346 0.18512L9.34492 6.1747L6.68289 3.51268L0.693237 9.50226L2.02425 10.8333L6.68289 6.1747Z" fill="white"/>
</g>
<defs>
<clipPath id="clip0">
<rect width="32" height="32" fill="white"/>
</clipPath>
</defs>
</svg>
