<svg width="32" height="32" viewBox="0 0 32 32" fill="none" xmlns="http://www.w3.org/2000/svg">
<path d="M30.7883 30.7498H25.4211L25.3883 15.389C25.3875 15.0442 25.1078 14.7653 24.7632 14.7653C24.7628 14.7653 24.7623 14.7653 24.7618 14.7653C24.4166 14.766 24.1374 15.0464 24.1381 15.3917L24.1709 30.7498H22.3553L22.3393 23.9155C22.3385 23.5708 22.0588 23.2919 21.7142 23.2919C21.7137 23.2919 21.7132 23.2919 21.7127 23.2919C21.3675 23.2927 21.0882 23.5732 21.0891 23.9184L21.1052 30.7498H19.5873V22.4772C21.3567 22.3208 22.7479 20.8668 22.7479 19.1012V13.0435C22.7479 12.0802 22.5435 11.1361 22.1526 10.2641C23.387 10.3465 24.5361 10.8488 25.4201 11.7024C26.3875 12.6365 26.9218 13.8786 26.9245 15.2006L26.936 18.7578C26.9371 19.1024 27.2167 19.3809 27.561 19.3809C27.5617 19.3809 27.5624 19.3809 27.5631 19.3809C27.9083 19.3798 28.1873 19.0991 28.1862 18.7538L28.1748 15.1973C28.1712 13.5347 27.5013 11.9742 26.2885 10.8031C25.5958 10.1341 24.773 9.63869 23.8762 9.33813C24.5114 8.73356 24.9078 7.88044 24.9058 6.93644C24.9018 5.11506 23.4189 3.636 21.5983 3.636C21.596 3.636 21.5935 3.636 21.5912 3.636C21.0609 3.63719 20.5335 3.76706 20.0662 4.01162C19.7603 4.17175 19.6421 4.5495 19.8022 4.85537C19.9624 5.16125 20.3402 5.27944 20.646 5.11931C20.9401 4.96537 21.259 4.88694 21.594 4.88619C22.7302 4.88562 23.6532 5.80469 23.6557 6.93906C23.6581 8.07344 22.7372 8.99831 21.6028 9.00075C21.5758 9.00081 21.5495 9.00313 21.5236 9.0065C21.4903 9.00788 21.457 9.00906 21.4237 9.01094C20.5205 7.77494 19.2527 6.87831 17.8087 6.42331C18.5753 5.75069 19.0607 4.76487 19.0607 3.66719C19.0605 1.64506 17.4155 0 15.3934 0C13.3713 0 11.7262 1.64506 11.7262 3.66719C11.7262 4.81806 12.2596 5.84631 13.0917 6.51912C11.7662 6.9975 10.6045 7.85444 9.76091 9.00737C9.66191 9.00294 9.56304 9.00031 9.46466 9.00031C9.41791 9.00031 9.37129 9.00106 9.32473 9.00206C9.31329 9.00144 9.30204 9.00031 9.29048 9.00031C8.1561 9.00031 7.23323 8.07744 7.23323 6.94306C7.23323 5.80869 8.1561 4.88581 9.29048 4.88581C9.63335 4.88581 9.97254 4.97169 10.2713 5.13413C10.5746 5.29894 10.9541 5.18681 11.1191 4.8835C11.284 4.58019 11.1718 4.20062 10.8685 4.03569C10.387 3.77387 9.84129 3.6355 9.29041 3.6355C7.46666 3.6355 5.98291 5.11925 5.98291 6.943C5.98291 7.93612 6.42354 8.82775 7.11879 9.43456C4.75548 10.3459 3.07991 12.5916 3.07991 15.2108V18.7558C3.07991 19.1011 3.35979 19.3809 3.70504 19.3809C4.05029 19.3809 4.33016 19.1011 4.33016 18.7558V15.2108C4.33016 12.6183 6.39991 10.4854 9.02666 10.2699C8.63748 11.1402 8.43391 12.0822 8.43391 13.0435V19.1012C8.43391 20.9018 9.8806 22.3783 11.6999 22.4851V30.7497H9.99685V23.9167C9.99685 23.5715 9.71698 23.2916 9.37173 23.2916C9.02648 23.2916 8.7466 23.5715 8.7466 23.9167V30.7498H7.20998V15.3966C7.20998 15.0514 6.9301 14.7715 6.58485 14.7715C6.2396 14.7715 5.95973 15.0514 5.95973 15.3966V30.7498H1.0011C0.655852 30.7498 0.375977 31.0296 0.375977 31.3749C0.375977 31.7201 0.655789 32 1.0011 32H30.7884C31.1337 32 31.4135 31.7201 31.4135 31.3749C31.4134 31.0296 31.1336 30.7498 30.7883 30.7498ZM12.9764 3.66719C12.9764 2.3345 14.0607 1.25025 15.3934 1.25025C16.726 1.25025 17.8102 2.3345 17.8102 3.66719C17.8102 4.99988 16.726 6.08413 15.3934 6.08413C14.0607 6.08413 12.9764 4.99988 12.9764 3.66719ZM18.9622 12.6291C18.6169 12.6291 18.337 12.909 18.337 13.2542V30.7498H16.1107V22.0531C16.1107 21.7078 15.8308 21.4279 15.4855 21.4279C15.1403 21.4279 14.8604 21.7078 14.8604 22.0531V30.7498H12.9501V13.2542C12.9501 12.909 12.6702 12.6291 12.325 12.6291C11.9797 12.6291 11.6999 12.909 11.6999 13.2542V21.2318C10.5707 21.1293 9.6841 20.2131 9.6841 19.1013V13.0436C9.6841 11.9617 9.99873 10.9086 10.594 9.99831C11.6847 8.33025 13.5527 7.33437 15.5909 7.33437C17.6324 7.33437 19.502 8.33281 20.5922 10.0052C21.1845 10.914 21.4976 11.9646 21.4976 13.0436V19.1013C21.4976 20.1783 20.6657 21.0716 19.5873 21.2197V13.2542C19.5873 12.909 19.3074 12.6291 18.9622 12.6291Z" fill="white"/>
</svg>
