<svg width="32" height="32" viewBox="0 0 32 32" fill="none" xmlns="http://www.w3.org/2000/svg">
<g clip-path="url(#clip0)">
<path d="M26.3859 12.8113H24.7867C24.5747 12.8113 24.3713 12.8955 24.2213 13.0455C24.0714 13.1954 23.9872 13.3988 23.9872 13.6109C23.9872 13.8229 24.0714 14.0263 24.2213 14.1763C24.3713 14.3262 24.5747 14.4104 24.7867 14.4104H26.3859C26.598 14.4104 26.8013 14.3262 26.9513 14.1763C27.1012 14.0263 27.1855 13.8229 27.1855 13.6109C27.1855 13.3988 27.1012 13.1954 26.9513 13.0455C26.8013 12.8955 26.598 12.8113 26.3859 12.8113Z" fill="white"/>
<path d="M29.5843 3.21629H26.7218L23.7473 0.257843C23.6891 0.153219 23.5996 0.0693685 23.4914 0.0179684C23.3914 -0.00468738 23.2876 -0.00468738 23.1876 0.0179684H8.79515C8.69514 -0.00468738 8.59132 -0.00468738 8.49131 0.0179684C8.39152 0.0520635 8.30301 0.112913 8.23544 0.193876L5.261 3.21629H2.3985C1.76231 3.21629 1.15218 3.46902 0.702332 3.91887C0.25248 4.36872 -0.000244141 4.97885 -0.000244141 5.61504V26.4041C-0.000244141 27.0403 0.25248 27.6505 0.702332 28.1003C1.15218 28.5502 1.76231 28.8029 2.3985 28.8029H12.7931L15.3517 31.7294C15.4282 31.8148 15.5219 31.8832 15.6266 31.93C15.7313 31.9768 15.8447 32.001 15.9594 32.001C16.0741 32.001 16.1875 31.9768 16.2922 31.93C16.3969 31.8832 16.4906 31.8148 16.5671 31.7294L19.1897 28.8029H29.5843C30.2204 28.8029 30.8306 28.5502 31.2804 28.1003C31.7303 27.6505 31.983 27.0403 31.983 26.4041V5.61504C31.983 4.97885 31.7303 4.36872 31.2804 3.91887C30.8306 3.46902 30.2204 3.21629 29.5843 3.21629ZM16.4551 9.61294H15.5276L13.1289 7.2142L13.9285 6.41462H18.0543L18.8539 7.2142L16.4551 9.61294ZM18.0543 4.81545H13.9285L10.7301 1.61713H21.2526L18.0543 4.81545ZM19.5255 5.61504L23.1876 1.95295L25.2505 4.01587L21.5884 7.67795L19.5255 5.61504ZM8.79515 1.95295L12.4572 5.61504L10.3943 7.67795L6.73223 4.01587L8.79515 1.95295ZM2.3985 27.2037C2.18644 27.2037 1.98306 27.1195 1.83311 26.9695C1.68316 26.8196 1.59892 26.6162 1.59892 26.4041V5.61504C1.59892 5.40297 1.68316 5.1996 1.83311 5.04965C1.98306 4.8997 2.18644 4.81545 2.3985 4.81545H5.261L9.8346 9.37307C9.90639 9.44956 9.99309 9.51052 10.0894 9.55219C10.1856 9.59387 10.2894 9.61537 10.3943 9.61537C10.4992 9.61537 10.603 9.59387 10.6993 9.55219C10.7955 9.51052 10.8822 9.44956 10.954 9.37307L11.9935 8.3496L14.2803 10.6364L9.59473 24.5491C9.54971 24.6811 9.5393 24.8225 9.5645 24.9597C9.5897 25.0969 9.64966 25.2253 9.73866 25.3327L11.3378 27.2037H2.3985ZM15.9914 29.9863L11.2898 24.6291L15.7675 11.2121H16.2153L20.6929 24.6291L15.9914 29.9863ZM30.3838 26.4041C30.3838 26.6162 30.2996 26.8196 30.1497 26.9695C29.9997 27.1195 29.7963 27.2037 29.5843 27.2037H20.549L22.1482 25.3327C22.2371 25.2253 22.2971 25.0969 22.3223 24.9597C22.3475 24.8225 22.3371 24.6811 22.2921 24.5491L17.6545 10.6364L19.9893 8.3496L21.0287 9.37307C21.1005 9.44956 21.1872 9.51052 21.2835 9.55219C21.3798 9.59387 21.4835 9.61537 21.5884 9.61537C21.6933 9.61537 21.7971 9.59387 21.8934 9.55219C21.9897 9.51052 22.0764 9.44956 22.1482 9.37307L26.7218 4.81545H29.5843C29.7963 4.81545 29.9997 4.8997 30.1497 5.04965C30.2996 5.1996 30.3838 5.40297 30.3838 5.61504V26.4041Z" fill="white"/>
</g>
<defs>
<clipPath id="clip0">
<rect width="31.9832" height="32" fill="white" transform="translate(-0.000244141 0.000976562)"/>
</clipPath>
</defs>
</svg>
