<svg width="32" height="32" viewBox="0 0 32 32" fill="none" xmlns="http://www.w3.org/2000/svg">
<path d="M29.6 3.2H25.6V0.8C25.6 0.587827 25.5157 0.384344 25.3657 0.234315C25.2157 0.0842856 25.0122 0 24.8 0C24.5878 0 24.3843 0.0842856 24.2343 0.234315C24.0843 0.384344 24 0.587827 24 0.8V3.2H8V0.8C8 0.587827 7.91571 0.384344 7.76569 0.234315C7.61566 0.0842856 7.41217 0 7.2 0C6.98783 0 6.78434 0.0842856 6.63432 0.234315C6.48429 0.384344 6.4 0.587827 6.4 0.8V3.2H2.4C1.76348 3.2 1.15303 3.45286 0.702944 3.90294C0.252856 4.35303 0 4.96348 0 5.6V29.6C0 30.2365 0.252856 30.847 0.702944 31.2971C1.15303 31.7471 1.76348 32 2.4 32H29.6C30.2365 32 30.847 31.7471 31.2971 31.2971C31.7471 30.847 32 30.2365 32 29.6V5.6C32 4.96348 31.7471 4.35303 31.2971 3.90294C30.847 3.45286 30.2365 3.2 29.6 3.2ZM30.4 29.6C30.4 29.8122 30.3157 30.0157 30.1657 30.1657C30.0157 30.3157 29.8122 30.4 29.6 30.4H2.4C2.18783 30.4 1.98434 30.3157 1.83431 30.1657C1.68429 30.0157 1.6 29.8122 1.6 29.6V5.6C1.6 5.38783 1.68429 5.18434 1.83431 5.03431C1.98434 4.88429 2.18783 4.8 2.4 4.8H6.4V5.6C6.4 5.81217 6.48429 6.01566 6.63432 6.16569C6.78434 6.31571 6.98783 6.4 7.2 6.4C7.41217 6.4 7.61566 6.31571 7.76569 6.16569C7.91571 6.01566 8 5.81217 8 5.6V4.8H24V5.6C24 5.81217 24.0843 6.01566 24.2343 6.16569C24.3843 6.31571 24.5878 6.4 24.8 6.4C25.0122 6.4 25.2157 6.31571 25.3657 6.16569C25.5157 6.01566 25.6 5.81217 25.6 5.6V4.8H29.6C29.8122 4.8 30.0157 4.88429 30.1657 5.03431C30.3157 5.18434 30.4 5.38783 30.4 5.6V29.6Z" fill="white"/>
<path d="M13.6 12.8H5.59999C5.38781 12.8 5.18433 12.8843 5.0343 13.0344C4.88427 13.1844 4.79999 13.3879 4.79999 13.6C4.79999 13.8122 4.88427 14.0157 5.0343 14.1657C5.18433 14.3158 5.38781 14.4 5.59999 14.4H13.6C13.8122 14.4 14.0156 14.3158 14.1657 14.1657C14.3157 14.0157 14.4 13.8122 14.4 13.6C14.4 13.3879 14.3157 13.1844 14.1657 13.0344C14.0156 12.8843 13.8122 12.8 13.6 12.8Z" fill="white"/>
<path d="M25.84 9.84011L21.6 14.0641L18.96 11.4401C18.8115 11.2916 18.6101 11.2082 18.4 11.2082C18.19 11.2082 17.9885 11.2916 17.84 11.4401C17.6915 11.5886 17.6081 11.7901 17.6081 12.0001C17.6081 12.2102 17.6915 12.4116 17.84 12.5601L21.04 15.7601C21.1118 15.8366 21.1986 15.8976 21.2949 15.9393C21.3912 15.981 21.4951 16.0025 21.6 16.0025C21.705 16.0025 21.8088 15.981 21.9051 15.9393C22.0015 15.8976 22.0882 15.8366 22.16 15.7601L26.96 10.9601C27.0336 10.8866 27.0919 10.7993 27.1317 10.7032C27.1715 10.6071 27.192 10.5041 27.192 10.4001C27.192 10.2961 27.1715 10.1931 27.1317 10.097C27.0919 10.001 27.0336 9.91365 26.96 9.84011C26.8865 9.76657 26.7992 9.70824 26.7031 9.66844C26.607 9.62864 26.504 9.60815 26.4 9.60815C26.296 9.60815 26.193 9.62864 26.097 9.66844C26.0009 9.70824 25.9136 9.76657 25.84 9.84011Z" fill="white"/>
<path d="M13.6 24H5.59999C5.38781 24 5.18433 24.0843 5.0343 24.2343C4.88427 24.3843 4.79999 24.5878 4.79999 24.8C4.79999 25.0122 4.88427 25.2157 5.0343 25.3657C5.18433 25.5157 5.38781 25.6 5.59999 25.6H13.6C13.8122 25.6 14.0156 25.5157 14.1657 25.3657C14.3157 25.2157 14.4 25.0122 14.4 24.8C14.4 24.5878 14.3157 24.3843 14.1657 24.2343C14.0156 24.0843 13.8122 24 13.6 24Z" fill="white"/>
<path d="M25.84 21.0401L21.6 25.2641L18.96 22.6401C18.8115 22.4915 18.6101 22.4081 18.4 22.4081C18.19 22.4081 17.9885 22.4915 17.84 22.6401C17.6915 22.7886 17.6081 22.99 17.6081 23.2001C17.6081 23.4101 17.6915 23.6115 17.84 23.7601L21.04 26.9601C21.1118 27.0366 21.1986 27.0976 21.2949 27.1393C21.3912 27.181 21.4951 27.2025 21.6 27.2025C21.705 27.2025 21.8088 27.181 21.9051 27.1393C22.0015 27.0976 22.0882 27.0366 22.16 26.9601L26.96 22.1601C27.0336 22.0865 27.0919 21.9992 27.1317 21.9031C27.1715 21.8071 27.192 21.7041 27.192 21.6001C27.192 21.4961 27.1715 21.3931 27.1317 21.297C27.0919 21.2009 27.0336 21.1136 26.96 21.0401C26.8865 20.9665 26.7992 20.9082 26.7031 20.8684C26.607 20.8286 26.504 20.8081 26.4 20.8081C26.296 20.8081 26.193 20.8286 26.097 20.8684C26.0009 20.9082 25.9136 20.9665 25.84 21.0401Z" fill="white"/>
</svg>
