<svg width="40" height="40" viewBox="0 0 40 40" fill="none" xmlns="http://www.w3.org/2000/svg">
<path d="M20 0L19.2109 0.03125L18.4297 0.125L17.6562 0.277344L16.8984 0.488281L16.1562 0.761719L15.4414 1.08984L14.7539 1.47266L14.0977 1.91016L13.4766 2.39453L12.8984 2.92969L12.3633 3.50781L11.875 4.12109L11.4375 4.77344L11.0508 5.46094L10.7188 6.17188L10.4492 6.91016L10.2344 7.66797L10.0781 8.4375L9.98828 9.21875L9.95703 10L9.98828 11.2266L10.0742 12.4492L10.2266 13.6641L10.4375 14.8711L10.707 16.0664L11.0352 17.25L11.418 18.4102L11.8594 19.5547L12.3594 20.6719L12.9102 21.7695L13.2773 22.3867L13.6953 22.9688L13.8203 23.1641L13.8945 23.3789L13.9141 23.6094L13.8828 23.8399L13.7969 24.0508L13.6719 24.2422L13.5 24.3945L13.2969 24.5078L13.0781 24.5742L11.6367 24.8398L10.2109 25.1523L8.79298 25.5117L7.39063 25.9219L6.00392 26.3828L4.63282 26.8906L4.07423 27.1406L3.54688 27.4453L3.05079 27.8047L2.59376 28.207L2.1836 28.6562L1.82032 29.1406L1.50782 29.6641L1.24609 30.2148L0.890625 31.1563L0.589844 32.1133L0.34375 33.0859L0.152344 34.0703L0.015625 35.0625L0 35.4727L0.0390625 35.875L0.132812 36.2695L0.277344 36.6484L0.472656 37.0039L0.710937 37.332L1 37.6211L1.31641 37.8711L1.67188 38.0742L2.04688 38.2344L2.44141 38.332L4.75781 38.75L7.08594 39.1055L9.42188 39.4024L11.7656 39.6406L14.1133 39.8203L16.4688 39.9414L18.8242 40H20.918L18.918 38H18.8438L16.543 37.9414L14.2422 37.8242L11.9453 37.6523L9.64844 37.418L7.36719 37.125L5.08594 36.7773L2.82031 36.3711L2.58594 36.293L2.37109 36.1641L2.20313 35.9805L2.08203 35.7695L2.01563 35.5274L2.01173 35.2813L2.13673 34.3945L2.30469 33.5234L2.52344 32.6563L2.78907 31.8047L3.10548 30.9688L3.3086 30.5547L3.55469 30.1563L3.84376 29.7969L4.17579 29.4727L4.54297 29.1875L4.94141 28.9453L5.36329 28.7539L6.66798 28.2695L7.98829 27.832L9.32423 27.4414L10.6758 27.0977L12.0352 26.8008L13.4024 26.5469L13.8359 26.4414L14.25 26.2734L14.6367 26.0469L14.9805 25.7656L15.2774 25.4375L15.5313 25.0703L15.7188 24.668L15.8477 24.2422L15.9141 23.8047V23.3594L15.8438 22.9219L15.7149 22.4961L15.5234 22.0938L15.2734 21.7266L14.957 21.2891L14.6836 20.8281L14.1719 19.8203L13.7148 18.7891L13.3086 17.7383L12.957 16.668L12.6562 15.582L12.4063 14.4805L12.2148 13.3711L12.0742 12.2539L11.9922 11.1289L11.9609 10.0039L11.9961 9.30469L12.0859 8.61328L12.2383 7.93359L12.4492 7.26562L12.7188 6.62109L13.0391 6L13.418 5.41406L13.8438 4.85938L14.3164 4.34375L14.8359 3.87109L15.3906 3.44922L15.9805 3.07422L16.6016 2.75L17.25 2.48438L17.918 2.27344L18.6055 2.125L19.3008 2.03125L19.9961 2L20.6992 2.03125L21.3945 2.125L22.0781 2.27344L22.7461 2.48438L23.3945 2.75L24.0195 3.07422L24.6094 3.44922L25.1641 3.87109L25.6836 4.34375L26.1523 4.85938L26.582 5.41406L26.9609 6L27.2813 6.62109L27.5508 7.26562L27.7617 7.93359L27.9141 8.61328L28.0039 9.30469L28.0352 10.0039L28.0078 11.1289L27.9258 12.2539L27.7852 13.3711L27.5899 14.4805L27.3438 15.582L27.043 16.668L26.6914 17.7383L26.2813 18.7891L25.8242 19.8203L25.3164 20.8281L25.043 21.2891L24.7266 21.7266L24.4727 22.0938L24.2852 22.4961L24.1523 22.9219L24.082 23.3594V23.8047L24.1484 24.2422L24.2773 24.668L24.4687 25.0703L24.7187 25.4375L25.0156 25.7656L25.3633 26.0469L25.75 26.2734L26.164 26.4414L26.5937 26.5469L27.9648 26.8008L29.3242 27.0977L30.6719 27.4414L31.2929 27.625L32.8984 26.0195L32.6094 25.9219L31.207 25.5117L29.7929 25.1523L28.3672 24.8398L26.9258 24.5742L26.7031 24.5078L26.5 24.3945L26.332 24.2422L26.2031 24.0508L26.1211 23.8399L26.0859 23.6094L26.1094 23.3789L26.1836 23.1641L26.3047 22.9688L26.7266 22.3867L27.0938 21.7695L27.6445 20.6719L28.1406 19.5547L28.582 18.4102L28.9688 17.25L29.2969 16.0664L29.5664 14.8711L29.7734 13.6641L29.9258 12.4492L30.0156 11.2266L30.043 10L30.0156 9.21875L29.9219 8.4375L29.7656 7.66797L29.5547 6.91016L29.2813 6.17188L28.9492 5.46094L28.5664 4.77344L28.1289 4.12109L27.6367 3.50781L27.1055 2.92969L26.5273 2.39453L25.9063 1.91016L25.25 1.47266L24.5586 1.08984L23.8438 0.761719L23.1055 0.488281L22.3477 0.277344L21.5703 0.125L20.7891 0.03125L20 0ZM38.9688 25.9922C38.7092 25.9994 38.4627 26.1073 38.2812 26.293L26.9883 37.5859L21.6953 32.293C20.7528 31.3114 19.2996 32.7645 20.2813 33.707L26.2813 39.707C26.6718 40.0974 27.3048 40.0974 27.6953 39.707L39.6953 27.707C40.3459 27.071 39.8782 25.9672 38.9688 25.9922Z" fill="white"/>
</svg>
