<svg width="30" height="30" viewBox="0 0 30 30" fill="none" xmlns="http://www.w3.org/2000/svg">
<g clip-path="url(#clip0)">
<path d="M15.4167 0.833374C7.37115 0.833374 0.833336 7.37119 0.833336 15.4167C0.833336 23.4622 7.37115 30 15.4167 30C16.271 30 17.1032 29.9107 17.9175 29.7693L16.6329 28.4847C16.2323 28.5217 15.8272 28.5417 15.4167 28.5417C12.1799 28.5417 9.22674 27.3684 6.94011 25.4314L7.08537 25.3858L8.25318 25.0639L9.43807 24.7905L10.6287 24.5655L10.9648 24.4829L11.2895 24.3461L11.5828 24.161L11.8449 23.9275L12.0642 23.6597L12.2408 23.3549L12.369 23.0302L12.4373 22.6884L12.4573 22.3409L12.4174 21.9934L12.3234 21.6573L12.1781 21.3412L11.9873 21.0535L11.7566 20.7316L11.5572 20.3984L11.1499 19.5809L10.7882 18.7407L10.472 17.8862L10.2014 17.0118L9.9821 16.1259L9.80835 15.2287L9.68303 14.3258L9.60612 13.4172L9.58334 12.5029L9.61182 11.9304L9.69727 11.3636L9.83399 10.8081L10.0277 10.2698L10.2726 9.75142L10.566 9.26151L10.9078 8.80009L11.2895 8.37569L11.7167 7.99117L12.1753 7.64937L12.6681 7.35885L13.1864 7.11104L13.7248 6.92021L14.2773 6.78064L14.8442 6.69519L15.4167 6.66671L15.9892 6.69519L16.556 6.78064L17.1086 6.92021L17.6469 7.11104L18.1681 7.35885L18.658 7.64937L19.1166 7.99117L19.5439 8.37569L19.9255 8.80009L20.2673 9.26151L20.5607 9.75142L20.8057 10.2698L20.9993 10.8081L21.1389 11.3636L21.2244 11.9304L21.25 12.5029L21.2272 13.4172L21.1503 14.3258L21.025 15.2287L20.8541 16.1259L20.6319 17.0118L20.3613 17.8862L20.0452 18.7407L19.6834 19.5809L19.2761 20.3984L19.0767 20.7316L18.846 21.0535L18.6552 21.3412L18.5099 21.6573L18.4159 21.9934L18.3761 22.3409L18.396 22.6884L18.4672 23.0302L18.5925 23.3549L18.7691 23.6597L18.9913 23.9275L19.2505 24.161L19.5439 24.3461L19.8686 24.4829L20.2047 24.5655L21.3953 24.7905L21.8054 24.8845L23.016 23.6739L22.9362 23.6512L21.6972 23.3635L20.4439 23.1271L20.2616 23.073L20.1021 22.9733L19.974 22.8365L19.8828 22.6713L19.8401 22.4862L19.8429 22.3011L19.8942 22.1188L19.991 21.9564L20.2987 21.532L20.5636 21.082L21.0079 20.1933L21.401 19.2847L21.7456 18.3533L22.039 17.402L22.2782 16.4421L22.4662 15.468L22.6001 14.4825L22.6827 13.4941L22.7083 12.5029L22.6827 11.8677L22.5972 11.2354L22.4605 10.6145L22.2668 10.0078L22.0247 9.42102L21.7314 8.85421L21.3924 8.31873L21.0022 7.81457L20.575 7.3446L20.1021 6.91736L19.6008 6.52999L19.0625 6.18534L18.4985 5.89197L17.9118 5.64986L17.3051 5.45618L16.6813 5.31946L16.0518 5.23686L15.4167 5.20837L14.7815 5.23686L14.152 5.31946L13.5282 5.45618L12.9216 5.64986L12.3348 5.89197L11.7708 6.18534L11.2354 6.52999L10.7312 6.91736L10.2584 7.3446L9.83114 7.81457L9.44377 8.31873L9.10197 8.85421L8.8086 9.42102L8.56649 10.0078L8.3728 10.6145L8.23609 11.2354L8.15349 11.8677L8.125 12.5029L8.15064 13.4941L8.23324 14.4825L8.36711 15.468L8.5551 16.4421L8.79435 17.402L9.08773 18.3533L9.43522 19.2847L9.82544 20.1933L10.2698 21.082L10.5347 21.532L10.8423 21.9564L10.9391 22.1188L10.9904 22.3011L10.9961 22.4862L10.9505 22.6713L10.8594 22.8365L10.7312 22.9733L10.5717 23.073L10.3894 23.1271L9.139 23.3635L7.89714 23.6512L6.66952 23.9901L5.75521 24.2835C3.61084 21.9479 2.29167 18.8429 2.29167 15.4167C2.29167 8.15933 8.15929 2.29171 15.4167 2.29171C22.674 2.29171 28.5417 8.15933 28.5417 15.4167C28.5417 16.5398 28.3862 17.6227 28.1201 18.6609C28.446 18.4592 28.8192 18.3385 29.2082 18.3277C29.3759 18.3231 29.5336 18.3594 29.6924 18.3932C29.8924 17.4318 30 16.4369 30 15.4167C30 7.37119 23.4622 0.833374 15.4167 0.833374ZM29.248 19.786C29.0588 19.7913 28.879 19.8699 28.7467 20.0053L20.5123 28.2398L16.6528 24.3803C15.9656 23.6646 14.906 24.7242 15.6217 25.4114L19.9967 29.7864C20.2815 30.0711 20.7431 30.0711 21.0278 29.7864L29.7778 21.0364C30.2522 20.5727 29.9112 19.7678 29.248 19.786Z" fill="white"/>
</g>
<defs>
<clipPath id="clip0">
<rect width="29.1667" height="29.1667" fill="white" transform="translate(0.833336 0.833374)"/>
</clipPath>
</defs>
</svg>
