<svg width="270" height="175" viewBox="0 0 270 175" fill="none" xmlns="http://www.w3.org/2000/svg">
<rect width="270" height="175" fill="#EBECEE"/>
<path d="M77 83V69.5H89.5V109.5H77M77 83H68M77 83V109.5M68 83V63H55.5V93.5M68 83V109.5M55.5 93.5H46.5M55.5 93.5V109.5M46.5 93.5V78.5H35V109.5H46.5M46.5 93.5V109.5M46.5 109.5H55.5M55.5 109.5H68M68 109.5H77" stroke="black" stroke-width="3"/>
<path d="M113.112 85C111.329 85 109.602 84.7444 107.929 84.2333C106.278 83.7222 104.968 83.0444 104 82.2L105.486 78.8333C106.432 79.5889 107.588 80.2111 108.952 80.7C110.339 81.1667 111.726 81.4 113.112 81.4C114.829 81.4 116.106 81.1222 116.942 80.5667C117.8 80.0111 118.23 79.2778 118.23 78.3667C118.23 77.7 117.988 77.1556 117.503 76.7333C117.041 76.2889 116.447 75.9444 115.72 75.7C114.994 75.4556 114.004 75.1778 112.749 74.8667C110.988 74.4444 109.558 74.0222 108.457 73.6C107.379 73.1778 106.443 72.5222 105.651 71.6333C104.88 70.7222 104.495 69.5 104.495 67.9667C104.495 66.6778 104.836 65.5111 105.519 64.4667C106.223 63.4 107.269 62.5556 108.655 61.9333C110.064 61.3111 111.781 61 113.806 61C115.214 61 116.601 61.1778 117.966 61.5333C119.33 61.8889 120.508 62.4 121.498 63.0667L120.145 66.4333C119.132 65.8333 118.076 65.3778 116.975 65.0667C115.875 64.7556 114.807 64.6 113.773 64.6C112.078 64.6 110.812 64.8889 109.976 65.4667C109.161 66.0444 108.754 66.8111 108.754 67.7667C108.754 68.4333 108.985 68.9778 109.448 69.4C109.932 69.8222 110.537 70.1556 111.263 70.4C111.99 70.6444 112.98 70.9222 114.235 71.2333C115.952 71.6333 117.36 72.0556 118.461 72.5C119.561 72.9222 120.497 73.5778 121.267 74.4667C122.059 75.3556 122.456 76.5556 122.456 78.0667C122.456 79.3556 122.103 80.5222 121.399 81.5667C120.717 82.6111 119.671 83.4444 118.263 84.0667C116.854 84.6889 115.137 85 113.112 85Z" fill="#262834"/>
<path d="M137.508 85C135.153 85 133.029 84.4889 131.136 83.4667C129.243 82.4222 127.757 80.9889 126.679 79.1667C125.6 77.3222 125.061 75.2667 125.061 73C125.061 70.7333 125.6 68.6889 126.679 66.8667C127.757 65.0222 129.243 63.5889 131.136 62.5667C133.029 61.5222 135.153 61 137.508 61C139.863 61 141.987 61.5222 143.88 62.5667C145.773 63.5889 147.258 65.0111 148.337 66.8333C149.415 68.6556 149.954 70.7111 149.954 73C149.954 75.2889 149.415 77.3444 148.337 79.1667C147.258 80.9889 145.773 82.4222 143.88 83.4667C141.987 84.4889 139.863 85 137.508 85ZM137.508 81.2C139.048 81.2 140.435 80.8556 141.668 80.1667C142.9 79.4556 143.869 78.4778 144.573 77.2333C145.277 75.9667 145.629 74.5556 145.629 73C145.629 71.4444 145.277 70.0444 144.573 68.8C143.869 67.5333 142.9 66.5556 141.668 65.8667C140.435 65.1556 139.048 64.8 137.508 64.8C135.967 64.8 134.58 65.1556 133.348 65.8667C132.115 66.5556 131.147 67.5333 130.442 68.8C129.738 70.0444 129.386 71.4444 129.386 73C129.386 74.5556 129.738 75.9667 130.442 77.2333C131.147 78.4778 132.115 79.4556 133.348 80.1667C134.58 80.8556 135.967 81.2 137.508 81.2Z" fill="#262834"/>
<path d="M169.625 84.6667L164.904 77.8333C164.706 77.8556 164.409 77.8667 164.012 77.8667H158.796V84.6667H154.504V61.3333H164.012C166.015 61.3333 167.754 61.6667 169.229 62.3333C170.726 63 171.87 63.9556 172.662 65.2C173.455 66.4444 173.851 67.9222 173.851 69.6333C173.851 71.3889 173.422 72.9 172.563 74.1667C171.727 75.4333 170.516 76.3778 168.932 77L174.247 84.6667H169.625ZM169.526 69.6333C169.526 68.1444 169.042 67 168.073 66.2C167.105 65.4 165.685 65 163.814 65H158.796V74.3H163.814C165.685 74.3 167.105 73.9 168.073 73.1C169.042 72.2778 169.526 71.1222 169.526 69.6333Z" fill="#262834"/>
<path d="M188.161 61.3333C190.164 61.3333 191.903 61.6667 193.378 62.3333C194.875 63 196.019 63.9556 196.811 65.2C197.604 66.4444 198 67.9222 198 69.6333C198 71.3222 197.604 72.8 196.811 74.0667C196.019 75.3111 194.875 76.2667 193.378 76.9333C191.903 77.6 190.164 77.9333 188.161 77.9333H182.945V84.6667H178.653V61.3333H188.161ZM187.963 74.2667C189.834 74.2667 191.254 73.8667 192.222 73.0667C193.191 72.2667 193.675 71.1222 193.675 69.6333C193.675 68.1444 193.191 67 192.222 66.2C191.254 65.4 189.834 65 187.963 65H182.945V74.2667H187.963Z" fill="#262834"/>
<path d="M234 60V68.2727H230.848V63.1515H211.152V68.2727H208V60H234ZM208 77.7273H211.152V82.8485H230.848V77.7273H234V86H208V77.7273ZM214.237 72.6061L221 63.9394L227.763 72.6061H234V75.7576H226.121L221 69.0606L215.879 75.7576H208V72.6061H214.237Z" fill="#262932"/>
<path d="M110.531 111.21C109.397 111.21 108.298 111.049 107.234 110.727C106.184 110.405 105.351 109.978 104.735 109.446L105.68 107.325C106.282 107.801 107.017 108.193 107.885 108.501C108.767 108.795 109.649 108.942 110.531 108.942C111.623 108.942 112.435 108.767 112.967 108.417C113.513 108.067 113.786 107.605 113.786 107.031C113.786 106.611 113.632 106.268 113.324 106.002C113.03 105.722 112.652 105.505 112.19 105.351C111.728 105.197 111.098 105.022 110.3 104.826C109.18 104.56 108.27 104.294 107.57 104.028C106.884 103.762 106.289 103.349 105.785 102.789C105.295 102.215 105.05 101.445 105.05 100.479C105.05 99.667 105.267 98.932 105.701 98.274C106.149 97.602 106.814 97.07 107.696 96.678C108.592 96.286 109.684 96.09 110.972 96.09C111.868 96.09 112.75 96.202 113.618 96.426C114.486 96.65 115.235 96.972 115.865 97.392L115.004 99.513C114.36 99.135 113.688 98.848 112.988 98.652C112.288 98.456 111.609 98.358 110.951 98.358C109.873 98.358 109.068 98.54 108.536 98.904C108.018 99.268 107.759 99.751 107.759 100.353C107.759 100.773 107.906 101.116 108.2 101.382C108.508 101.648 108.893 101.858 109.355 102.012C109.817 102.166 110.447 102.341 111.245 102.537C112.337 102.789 113.233 103.055 113.933 103.335C114.633 103.601 115.228 104.014 115.718 104.574C116.222 105.134 116.474 105.89 116.474 106.842C116.474 107.654 116.25 108.389 115.802 109.047C115.368 109.705 114.703 110.23 113.807 110.622C112.911 111.014 111.819 111.21 110.531 111.21ZM125.67 110.391C125.362 110.643 124.984 110.832 124.536 110.958C124.102 111.084 123.64 111.147 123.15 111.147C121.918 111.147 120.966 110.825 120.294 110.181C119.622 109.537 119.286 108.599 119.286 107.367V101.97H117.438V99.87H119.286V97.308H121.911V99.87H124.914V101.97H121.911V107.304C121.911 107.85 122.044 108.27 122.31 108.564C122.576 108.844 122.961 108.984 123.465 108.984C124.053 108.984 124.543 108.83 124.935 108.522L125.67 110.391ZM132.113 99.66C133.765 99.66 135.025 100.059 135.893 100.857C136.775 101.641 137.216 102.831 137.216 104.427V111H134.738V109.635C134.416 110.125 133.954 110.503 133.352 110.769C132.764 111.021 132.05 111.147 131.21 111.147C130.37 111.147 129.635 111.007 129.005 110.727C128.375 110.433 127.885 110.034 127.535 109.53C127.199 109.012 127.031 108.431 127.031 107.787C127.031 106.779 127.402 105.974 128.144 105.372C128.9 104.756 130.083 104.448 131.693 104.448H134.591V104.28C134.591 103.496 134.353 102.894 133.877 102.474C133.415 102.054 132.722 101.844 131.798 101.844C131.168 101.844 130.545 101.942 129.929 102.138C129.327 102.334 128.816 102.607 128.396 102.957L127.367 101.046C127.955 100.598 128.662 100.255 129.488 100.017C130.314 99.779 131.189 99.66 132.113 99.66ZM131.756 109.236C132.414 109.236 132.995 109.089 133.499 108.795C134.017 108.487 134.381 108.053 134.591 107.493V106.191H131.882C130.37 106.191 129.614 106.688 129.614 107.682C129.614 108.158 129.803 108.536 130.181 108.816C130.559 109.096 131.084 109.236 131.756 109.236ZM147.326 110.391C147.018 110.643 146.64 110.832 146.192 110.958C145.758 111.084 145.296 111.147 144.806 111.147C143.574 111.147 142.622 110.825 141.95 110.181C141.278 109.537 140.942 108.599 140.942 107.367V101.97H139.094V99.87H140.942V97.308H143.567V99.87H146.57V101.97H143.567V107.304C143.567 107.85 143.7 108.27 143.966 108.564C144.232 108.844 144.617 108.984 145.121 108.984C145.709 108.984 146.199 108.83 146.591 108.522L147.326 110.391ZM149.486 99.786H152.111V111H149.486V99.786ZM150.809 97.938C150.333 97.938 149.934 97.791 149.612 97.497C149.29 97.189 149.129 96.811 149.129 96.363C149.129 95.915 149.29 95.544 149.612 95.25C149.934 94.942 150.333 94.788 150.809 94.788C151.285 94.788 151.684 94.935 152.006 95.229C152.328 95.509 152.489 95.866 152.489 96.3C152.489 96.762 152.328 97.154 152.006 97.476C151.698 97.784 151.299 97.938 150.809 97.938ZM159.021 111.147C158.111 111.147 157.222 111.028 156.354 110.79C155.486 110.552 154.793 110.251 154.275 109.887L155.283 107.892C155.787 108.228 156.389 108.501 157.089 108.711C157.803 108.907 158.503 109.005 159.189 109.005C160.757 109.005 161.541 108.592 161.541 107.766C161.541 107.374 161.338 107.101 160.932 106.947C160.54 106.793 159.903 106.646 159.021 106.506C158.097 106.366 157.341 106.205 156.753 106.023C156.179 105.841 155.675 105.526 155.241 105.078C154.821 104.616 154.611 103.979 154.611 103.167C154.611 102.103 155.052 101.256 155.934 100.626C156.83 99.982 158.034 99.66 159.546 99.66C160.316 99.66 161.086 99.751 161.856 99.933C162.626 100.101 163.256 100.332 163.746 100.626L162.738 102.621C161.786 102.061 160.715 101.781 159.525 101.781C158.755 101.781 158.167 101.9 157.761 102.138C157.369 102.362 157.173 102.663 157.173 103.041C157.173 103.461 157.383 103.762 157.803 103.944C158.237 104.112 158.902 104.273 159.798 104.427C160.694 104.567 161.429 104.728 162.003 104.91C162.577 105.092 163.067 105.4 163.473 105.834C163.893 106.268 164.103 106.884 164.103 107.682C164.103 108.732 163.648 109.572 162.738 110.202C161.828 110.832 160.589 111.147 159.021 111.147ZM173.105 110.391C172.797 110.643 172.419 110.832 171.971 110.958C171.537 111.084 171.075 111.147 170.585 111.147C169.353 111.147 168.401 110.825 167.729 110.181C167.057 109.537 166.721 108.599 166.721 107.367V101.97H164.873V99.87H166.721V97.308H169.346V99.87H172.349V101.97H169.346V107.304C169.346 107.85 169.479 108.27 169.745 108.564C170.011 108.844 170.396 108.984 170.9 108.984C171.488 108.984 171.978 108.83 172.37 108.522L173.105 110.391ZM175.264 99.786H177.889V111H175.264V99.786ZM176.587 97.938C176.111 97.938 175.712 97.791 175.39 97.497C175.068 97.189 174.907 96.811 174.907 96.363C174.907 95.915 175.068 95.544 175.39 95.25C175.712 94.942 176.111 94.788 176.587 94.788C177.063 94.788 177.462 94.935 177.784 95.229C178.106 95.509 178.267 95.866 178.267 96.3C178.267 96.762 178.106 97.154 177.784 97.476C177.476 97.784 177.077 97.938 176.587 97.938ZM186.479 111.147C185.317 111.147 184.274 110.902 183.35 110.412C182.426 109.922 181.705 109.243 181.187 108.375C180.669 107.493 180.41 106.499 180.41 105.393C180.41 104.287 180.669 103.3 181.187 102.432C181.705 101.564 182.419 100.885 183.329 100.395C184.253 99.905 185.303 99.66 186.479 99.66C187.585 99.66 188.551 99.884 189.377 100.332C190.217 100.78 190.847 101.424 191.267 102.264L189.251 103.44C188.929 102.922 188.523 102.537 188.033 102.285C187.557 102.019 187.032 101.886 186.458 101.886C185.478 101.886 184.666 102.208 184.022 102.852C183.378 103.482 183.056 104.329 183.056 105.393C183.056 106.457 183.371 107.311 184.001 107.955C184.645 108.585 185.464 108.9 186.458 108.9C187.032 108.9 187.557 108.774 188.033 108.522C188.523 108.256 188.929 107.864 189.251 107.346L191.267 108.522C190.833 109.362 190.196 110.013 189.356 110.475C188.53 110.923 187.571 111.147 186.479 111.147Z" fill="black"/>
</svg>
