<svg width="63" height="70" viewBox="0 0 63 70" fill="none" xmlns="http://www.w3.org/2000/svg">
<path d="M22.75 10.5H12.25C11.7859 10.5 11.3408 10.6844 11.0126 11.0126C10.6844 11.3408 10.5 11.7859 10.5 12.25C10.5 12.7141 10.6844 13.1592 11.0126 13.4874C11.3408 13.8156 11.7859 14 12.25 14H22.75C23.2141 14 23.6592 13.8156 23.9874 13.4874C24.3156 13.1592 24.5 12.7141 24.5 12.25C24.5 11.7859 24.3156 11.3408 23.9874 11.0126C23.6592 10.6844 23.2141 10.5 22.75 10.5Z" fill="#DDD8D8"/>
<path d="M22.75 21H12.25C11.7859 21 11.3408 21.1844 11.0126 21.5126C10.6844 21.8408 10.5 22.2859 10.5 22.75C10.5 23.2141 10.6844 23.6592 11.0126 23.9874C11.3408 24.3156 11.7859 24.5 12.25 24.5H22.75C23.2141 24.5 23.6592 24.3156 23.9874 23.9874C24.3156 23.6592 24.5 23.2141 24.5 22.75C24.5 22.2859 24.3156 21.8408 23.9874 21.5126C23.6592 21.1844 23.2141 21 22.75 21Z" fill="#DDD8D8"/>
<path d="M22.75 31.5H12.25C11.7859 31.5 11.3408 31.6844 11.0126 32.0126C10.6844 32.3408 10.5 32.7859 10.5 33.25C10.5 33.7141 10.6844 34.1592 11.0126 34.4874C11.3408 34.8156 11.7859 35 12.25 35H22.75C23.2141 35 23.6592 34.8156 23.9874 34.4874C24.3156 34.1592 24.5 33.7141 24.5 33.25C24.5 32.7859 24.3156 32.3408 23.9874 32.0126C23.6592 31.6844 23.2141 31.5 22.75 31.5Z" fill="#DDD8D8"/>
<path d="M56 49H52.5C52.5911 46.519 53.5583 44.1505 55.23 42.315C59.5 39.13 63 35.42 63 29.75C62.9968 25.7112 61.4455 21.8272 58.6655 18.8974C55.8854 15.9676 52.0881 14.2149 48.055 14L34.475 0.525C34.2635 0.275345 33.9837 0.0928768 33.67 0H5.25C3.85761 0 2.52226 0.553124 1.53769 1.53769C0.553124 2.52226 0 3.85761 0 5.25V64.75C0 66.1424 0.553124 67.4777 1.53769 68.4623C2.52226 69.4469 3.85761 70 5.25 70H43.75C45.1424 70 46.4777 69.4469 47.4623 68.4623C48.4469 67.4777 49 66.1424 49 64.75V63H61.25C61.7141 63 62.1592 62.8156 62.4874 62.4874C62.8156 62.1592 63 61.7141 63 61.25V56C63 54.1435 62.2625 52.363 60.9497 51.0503C59.637 49.7375 57.8565 49 56 49ZM59.5 29.75C59.2611 31.763 58.5663 33.6951 57.4686 35.3993C56.3709 37.1035 54.899 38.535 53.165 39.585C50.6103 42.0659 49.1172 45.4408 49 49H45.5C45.4106 45.4557 43.9561 42.0828 41.44 39.585C39.6864 38.5467 38.1941 37.1204 37.0777 35.4155C35.9613 33.7105 35.2506 31.7724 35 29.75C35 26.5011 36.2906 23.3853 38.5879 21.0879C40.8853 18.7906 44.0011 17.5 47.25 17.5C50.4989 17.5 53.6147 18.7906 55.9121 21.0879C58.2094 23.3853 59.5 26.5011 59.5 29.75ZM43.015 14H35V5.985L43.015 14ZM45.5 64.75C45.5 65.2141 45.3156 65.6592 44.9874 65.9874C44.6592 66.3156 44.2141 66.5 43.75 66.5H5.25C4.78587 66.5 4.34075 66.3156 4.01256 65.9874C3.68437 65.6592 3.5 65.2141 3.5 64.75V5.25C3.5 4.78587 3.68437 4.34075 4.01256 4.01256C4.34075 3.68437 4.78587 3.5 5.25 3.5H31.5V15.75C31.5 16.2141 31.6844 16.6592 32.0126 16.9874C32.3408 17.3156 32.7859 17.5 33.25 17.5H37.485C35.6257 18.9561 34.1211 20.8152 33.0844 22.937C32.0477 25.0589 31.506 27.3884 31.5 29.75C31.5 35.42 35.175 39.13 39.165 42.315C40.8522 44.15 41.8537 46.5115 42 49H38.5C36.6435 49 34.863 49.7375 33.5503 51.0503C32.2375 52.363 31.5 54.1435 31.5 56V61.25C31.5 61.7141 31.6844 62.1592 32.0126 62.4874C32.3408 62.8156 32.7859 63 33.25 63H45.5V64.75ZM59.5 59.5H35V56C35 55.0717 35.3688 54.1815 36.0251 53.5251C36.6815 52.8687 37.5717 52.5 38.5 52.5H56C56.9283 52.5 57.8185 52.8687 58.4749 53.5251C59.1313 54.1815 59.5 55.0717 59.5 56V59.5Z" fill="#DDD8D8"/>
<path d="M17.5 42C16.1155 42 14.7622 42.4105 13.611 43.1797C12.4599 43.9489 11.5627 45.0421 11.0328 46.3212C10.503 47.6003 10.3644 49.0078 10.6345 50.3656C10.9046 51.7235 11.5713 52.9708 12.5503 53.9497C13.5292 54.9287 14.7765 55.5954 16.1344 55.8655C17.4922 56.1356 18.8997 55.997 20.1788 55.4672C21.4579 54.9373 22.5511 54.0401 23.3203 52.889C24.0895 51.7379 24.5 50.3845 24.5 49C24.5 47.1435 23.7625 45.363 22.4498 44.0503C21.137 42.7375 19.3565 42 17.5 42ZM17.5 52.5C16.8078 52.5 16.1311 52.2947 15.5555 51.9101C14.9799 51.5256 14.5313 50.9789 14.2664 50.3394C14.0015 49.6998 13.9322 48.9961 14.0673 48.3172C14.2023 47.6383 14.5356 47.0146 15.0251 46.5251C15.5146 46.0356 16.1383 45.7023 16.8172 45.5673C17.4961 45.4322 18.1999 45.5015 18.8394 45.7664C19.4789 46.0313 20.0256 46.4799 20.4101 47.0555C20.7947 47.6311 21 48.3078 21 49C21 49.9283 20.6313 50.8185 19.9749 51.4749C19.3185 52.1313 18.4283 52.5 17.5 52.5Z" fill="#DDD8D8"/>
</svg>
