<svg width="70" height="70" viewBox="0 0 70 70" fill="none" xmlns="http://www.w3.org/2000/svg">
<path d="M61.2357 52.5355C59.46 52.5365 57.7279 53.0854 56.2757 54.1073L50.9665 48.6583C54.1764 44.8721 55.9382 40.0696 55.9382 35.1058C55.9382 30.1421 54.1764 25.3395 50.9665 21.5534L56.3805 16.1743C57.9973 17.2557 59.9289 17.7664 61.8689 17.6254C63.8089 17.4843 65.6462 16.6995 67.0896 15.3955C68.5329 14.0915 69.4995 12.343 69.8361 10.4272C70.1727 8.51141 69.86 6.53808 68.9476 4.8202C68.0353 3.10232 66.5754 1.73823 64.7997 0.944309C63.024 0.150384 61.034 -0.0279295 59.1454 0.437652C57.2568 0.903233 55.5778 1.98605 54.3745 3.51436C53.1713 5.04268 52.5127 6.92898 52.5034 8.87409C52.5135 10.6001 53.023 12.2864 53.9704 13.7292L48.5564 19.0734C44.7752 15.8819 39.9868 14.1313 35.0388 14.1313C30.0909 14.1313 25.3024 15.8819 21.5213 19.0734L16.0723 13.7642C17.3023 11.962 17.8192 9.76726 17.5226 7.60563C17.226 5.44399 16.1371 3.46955 14.4672 2.06529C12.7972 0.661038 10.6652 -0.0729407 8.48478 0.00572791C6.30431 0.0843965 4.23077 0.970105 2.66637 2.49105C1.10196 4.012 0.158209 6.05977 0.0181621 8.23716C-0.121885 10.4146 0.551759 12.5664 1.90843 14.2752C3.2651 15.984 5.20808 17.1281 7.36051 17.4854C9.51293 17.8428 11.7214 17.388 13.5574 16.2092L19.0413 21.5534C15.8314 25.3395 14.0696 30.1421 14.0696 35.1058C14.0696 40.0696 15.8314 44.8721 19.0413 48.6583L13.8369 54.1422C12.3823 53.0947 10.6345 52.5325 8.84202 52.5355C7.11494 52.5355 5.42664 53.0476 3.99063 54.0071C2.55461 54.9666 1.43538 56.3304 0.774452 57.926C0.113527 59.5216 -0.0594012 61.2774 0.277535 62.9713C0.614472 64.6652 1.44614 66.2211 2.66737 67.4424C3.8886 68.6636 5.44454 69.4953 7.13844 69.8322C8.83233 70.1692 10.5881 69.9962 12.1837 69.3353C13.7793 68.6744 15.1431 67.5551 16.1026 66.1191C17.0622 64.6831 17.5743 62.9948 17.5743 61.2677C17.5739 59.6476 17.1136 58.0609 16.247 56.692L21.5911 51.1034C22.2982 51.7007 23.0451 52.2492 23.8266 52.745C27.1564 54.8649 31.0217 55.9909 34.969 55.9909C38.9162 55.9909 42.7816 54.8649 46.1114 52.745C46.8929 52.2492 47.6398 51.7007 48.3468 51.1034L53.7259 56.6571C52.8914 58.0478 52.4676 59.6463 52.5034 61.2677C52.5034 62.9948 53.0155 64.6831 53.975 66.1191C54.9345 67.5551 56.2983 68.6744 57.894 69.3353C59.4896 69.9962 61.2453 70.1692 62.9392 69.8322C64.6331 69.4953 66.1891 68.6636 67.4103 67.4424C68.6315 66.2211 69.4632 64.6652 69.8001 62.9713C70.1371 61.2774 69.9641 59.5216 69.3032 57.926C68.6423 56.3304 67.5231 54.9666 66.087 54.0071C64.651 53.0476 62.9627 52.5355 61.2357 52.5355ZM61.2357 3.63473C62.0987 3.61147 62.9542 3.80187 63.7259 4.18899C64.4977 4.57611 65.1618 5.14795 65.6592 5.85366C66.1566 6.55936 66.4719 7.37706 66.5771 8.23402C66.6823 9.09098 66.574 9.96066 66.262 10.7657C65.95 11.5707 65.4438 12.2862 64.7886 12.8484C64.1333 13.4106 63.3493 13.8022 62.5062 13.9884C61.6631 14.1745 60.7871 14.1494 59.9561 13.9153C59.125 13.6811 58.3647 13.2453 57.7427 12.6464C56.8037 11.7207 56.2539 10.4712 56.2059 9.15352C56.1683 8.45964 56.2691 7.76521 56.5025 7.11067C56.7359 6.45612 57.0971 5.85454 57.5652 5.34094C58.0333 4.82735 58.5989 4.412 59.229 4.11907C59.8591 3.82615 60.5413 3.66151 61.2357 3.63473ZM3.60266 8.87409C3.60266 7.48452 4.15466 6.15187 5.13723 5.1693C6.1198 4.18673 7.45245 3.63473 8.84202 3.63473C10.2316 3.63473 11.5642 4.18673 12.5468 5.1693C13.5294 6.15187 14.0814 7.48452 14.0814 8.87409C14.0848 9.57083 13.9473 10.2611 13.6772 10.9033C13.4071 11.5456 13.0099 12.1266 12.5096 12.6115C11.5288 13.5699 10.2133 14.1086 8.84202 14.1135C7.45245 14.1135 6.1198 13.5615 5.13723 12.5789C4.15466 11.5963 3.60266 10.2637 3.60266 8.87409ZM35.0388 17.6064C38.5101 17.6204 41.8984 18.6685 44.7713 20.6169C47.6441 22.5654 49.8712 25.3257 51.1681 28.5456C52.4651 31.7655 52.7731 35.2988 52.0528 38.6945C51.3326 42.0903 49.6167 45.1943 47.1243 47.6105C46.8214 44.8819 45.5879 42.3409 43.6314 40.4151C42.7349 39.5329 41.7104 38.791 40.5926 38.2145C41.5781 37.4126 42.3719 36.4005 42.9158 35.2522C43.4597 34.1039 43.74 32.8486 43.7362 31.578C43.7426 30.1068 43.3772 28.6578 42.6739 27.3656C41.9706 26.0733 40.9522 24.9797 39.7133 24.1863C38.4743 23.3929 37.055 22.9253 35.5871 22.8271C34.1191 22.7288 32.6501 23.0031 31.3165 23.6244C29.9829 24.2456 28.8279 25.1938 27.9587 26.3808C27.0895 27.5678 26.5343 28.9552 26.3446 30.4141C26.1549 31.8731 26.337 33.3563 26.8738 34.7261C27.4106 36.0959 28.2848 37.3079 29.4153 38.2495C27.65 39.1653 26.1372 40.5014 25.0103 42.14C23.8834 43.7786 23.177 45.6693 22.9534 47.6454C20.4488 45.2313 18.7221 42.1243 17.9948 38.7226C17.2674 35.3209 17.5725 31.7795 18.8709 28.5522C20.1693 25.325 22.4018 22.5591 25.2824 20.6089C28.1629 18.6587 31.5602 17.6132 35.0388 17.6064ZM29.7995 31.578C29.7995 30.5418 30.1068 29.5288 30.6825 28.6672C31.2582 27.8056 32.0765 27.134 33.0338 26.7375C33.9912 26.3409 35.0447 26.2371 36.061 26.4393C37.0773 26.6415 38.0109 27.1405 38.7436 27.8732C39.4764 28.6059 39.9754 29.5395 40.1775 30.5559C40.3797 31.5722 40.2759 32.6256 39.8794 33.583C39.4828 34.5404 38.8113 35.3587 37.9497 35.9344C37.0881 36.5101 36.0751 36.8174 35.0388 36.8174C33.6493 36.8174 32.3166 36.2654 31.334 35.2828C30.3515 34.3002 29.7995 32.9676 29.7995 31.578ZM8.84202 66.5071C7.45245 66.5071 6.1198 65.9551 5.13723 64.9725C4.15466 63.9899 3.60266 62.6573 3.60266 61.2677C3.60266 59.8782 4.15466 58.5455 5.13723 57.5629C6.1198 56.5804 7.45245 56.0284 8.84202 56.0284C9.55034 56.025 10.2516 56.1693 10.9011 56.4519C11.5506 56.7346 12.1341 57.1494 12.6144 57.67C13.492 58.6188 13.9678 59.8708 13.9417 61.1629C13.9698 62.5467 13.4493 63.8853 12.4939 64.8866C11.5384 65.8879 10.2256 66.4705 8.84202 66.5071ZM26.3066 50.0904V49.0425C26.3066 46.7266 27.2266 44.5055 28.8642 42.8679C30.5018 41.2303 32.7229 40.3103 35.0388 40.3103C37.3548 40.3103 39.5759 41.2303 41.2135 42.8679C42.8511 44.5055 43.7711 46.7266 43.7711 49.0425V50.0904C41.1397 51.6913 38.1189 52.538 35.0388 52.538C31.9587 52.538 28.9379 51.6913 26.3066 50.0904ZM61.2357 66.5071C60.2237 66.5176 59.2307 66.2329 58.3781 65.6878C57.5255 65.1426 56.8503 64.3608 56.4352 63.4379C56.02 62.5149 55.883 61.491 56.0408 60.4914C56.1986 59.4918 56.6444 58.5599 57.3236 57.8097V57.6351C57.8256 57.1066 58.4336 56.6903 59.1078 56.4134C59.782 56.1365 60.5072 56.0053 61.2357 56.0284C62.6252 56.0284 63.9579 56.5804 64.9404 57.5629C65.923 58.5455 66.475 59.8782 66.475 61.2677C66.475 62.6573 65.923 63.9899 64.9404 64.9725C63.9579 65.9551 62.6252 66.5071 61.2357 66.5071Z" fill="#E3E3E3"/>
<path d="M35.0388 40.383C36.7803 40.383 38.4827 39.8666 39.9306 38.8991C41.3786 37.9316 42.5072 36.5564 43.1736 34.9475C43.84 33.3386 44.0144 31.5682 43.6747 29.8602C43.3349 28.1522 42.4963 26.5833 41.2649 25.3519C40.0335 24.1205 38.4646 23.2819 36.7566 22.9421C35.0486 22.6024 33.2782 22.7768 31.6693 23.4432C30.0604 24.1096 28.6852 25.2382 27.7177 26.6862C26.7502 28.1341 26.2338 29.8365 26.2338 31.578C26.2338 33.9132 27.1615 36.1528 28.8127 37.8041C30.464 39.4553 32.7036 40.383 35.0388 40.383ZM35.0388 27.1755C35.9096 27.1755 36.7607 27.4337 37.4847 27.9174C38.2087 28.4012 38.773 29.0888 39.1062 29.8932C39.4394 30.6977 39.5266 31.5829 39.3568 32.4369C39.1869 33.2909 38.7676 34.0753 38.1519 34.691C37.5362 35.3067 36.7517 35.726 35.8977 35.8959C35.0437 36.0658 34.1585 35.9786 33.3541 35.6454C32.5496 35.3122 31.862 34.7479 31.3783 34.0239C30.8945 33.2999 30.6363 32.4487 30.6363 31.578C30.6363 30.4104 31.1002 29.2906 31.9258 28.4649C32.7514 27.6393 33.8712 27.1755 35.0388 27.1755Z" fill="#E3E3E3"/>
</svg>
