<svg width="50" height="51" viewBox="0 0 50 51" fill="none" xmlns="http://www.w3.org/2000/svg">
<g clip-path="url(#clip0)">
<path d="M41.237 20.0203H38.7378C38.4064 20.0203 38.0886 20.1519 37.8542 20.3863C37.6199 20.6206 37.4882 20.9385 37.4882 21.2699C37.4882 21.6013 37.6199 21.9191 37.8542 22.1535C38.0886 22.3878 38.4064 22.5195 38.7378 22.5195H41.237C41.5685 22.5195 41.8863 22.3878 42.1206 22.1535C42.355 21.9191 42.4866 21.6013 42.4866 21.2699C42.4866 20.9385 42.355 20.6206 42.1206 20.3863C41.8863 20.1519 41.5685 20.0203 41.237 20.0203Z" fill="#DDD8D8"/>
<path d="M46.2355 5.02498H41.7619L37.1133 0.401438C37.0223 0.237929 36.8825 0.106885 36.7135 0.0265553C36.5572 -0.00885177 36.3949 -0.00885177 36.2386 0.0265553H13.7457C13.5894 -0.00885177 13.4271 -0.00885177 13.2708 0.0265553C13.1149 0.0798401 12.9766 0.174937 12.871 0.301469L8.22242 5.02498H3.74882C2.75457 5.02498 1.80105 5.41995 1.098 6.12299C0.394964 6.82603 0 7.77956 0 8.77381V41.2636C0 42.2578 0.394964 43.2114 1.098 43.9144C1.80105 44.6175 2.75457 45.0124 3.74882 45.0124H19.9937L23.9925 49.586C24.112 49.7195 24.2584 49.8264 24.422 49.8995C24.5857 49.9727 24.7629 50.0105 24.9422 50.0105C25.1214 50.0105 25.2986 49.9727 25.4623 49.8995C25.6259 49.8264 25.7723 49.7195 25.8919 49.586L29.9906 45.0124H46.2355C47.2297 45.0124 48.1832 44.6175 48.8863 43.9144C49.5893 43.2114 49.9843 42.2578 49.9843 41.2636V8.77381C49.9843 7.77956 49.5893 6.82603 48.8863 6.12299C48.1832 5.41995 47.2297 5.02498 46.2355 5.02498ZM25.7169 15.0218H24.2674L20.5186 11.273L21.7682 10.0234H28.2161L29.4657 11.273L25.7169 15.0218ZM28.2161 7.5242H21.7682L16.7697 2.52577H33.2146L28.2161 7.5242ZM30.5154 8.77381L36.2386 3.0506L39.4626 6.27459L33.7394 11.9978L30.5154 8.77381ZM13.7457 3.0506L19.4689 8.77381L16.2449 11.9978L10.5217 6.27459L13.7457 3.0506ZM3.74882 42.5132C3.41741 42.5132 3.09956 42.3815 2.86522 42.1472C2.63087 41.9129 2.49921 41.595 2.49921 41.2636V8.77381C2.49921 8.44239 2.63087 8.12455 2.86522 7.8902C3.09956 7.65585 3.41741 7.5242 3.74882 7.5242H8.22242L15.3702 14.647C15.4824 14.7665 15.6179 14.8618 15.7683 14.9269C15.9188 14.992 16.081 15.0256 16.2449 15.0256C16.4088 15.0256 16.571 14.992 16.7215 14.9269C16.8719 14.8618 17.0074 14.7665 17.1196 14.647L18.7441 13.0475L22.318 16.6213L14.9953 38.3645C14.9249 38.5708 14.9087 38.7917 14.948 39.0061C14.9874 39.2205 15.0811 39.4213 15.2202 39.5891L17.7194 42.5132H3.74882ZM24.9921 46.8618L17.6445 38.4895L24.6423 17.5211H25.342L32.3398 38.4895L24.9921 46.8618ZM47.4851 41.2636C47.4851 41.595 47.3534 41.9129 47.1191 42.1472C46.8847 42.3815 46.5669 42.5132 46.2355 42.5132H32.1149L34.6141 39.5891C34.7532 39.4213 34.8469 39.2205 34.8863 39.0061C34.9257 38.7917 34.9094 38.5708 34.8391 38.3645L27.5913 16.6213L31.2402 13.0475L32.8647 14.647C32.9769 14.7665 33.1124 14.8618 33.2628 14.9269C33.4133 14.992 33.5755 15.0256 33.7394 15.0256C33.9033 15.0256 34.0655 14.992 34.216 14.9269C34.3664 14.8618 34.5019 14.7665 34.6141 14.647L41.7619 7.5242H46.2355C46.5669 7.5242 46.8847 7.65585 47.1191 7.8902C47.3534 8.12455 47.4851 8.44239 47.4851 8.77381V41.2636Z" fill="#DDD8D8"/>
</g>
<defs>
<clipPath id="clip0">
<rect width="49.9843" height="50.0105" fill="white"/>
</clipPath>
</defs>
</svg>
