<svg width="70" height="59" viewBox="0 0 70 59" fill="none" xmlns="http://www.w3.org/2000/svg">
<path d="M65.4559 30.4889H62.632V27.665C62.632 23.0055 58.3962 20.6052 54.1603 20.6052H11.8002C6.15236 20.6052 0.504547 17.2167 0.504547 10.7216C0.504547 4.22643 6.15236 0.837891 11.8002 0.837891H55.8542C61.502 0.837891 65.4559 4.79181 65.4559 10.7216V17.7813H62.632V10.7208C62.632 6.34398 60.0908 3.66104 55.8542 3.66104H11.8002C7.56432 3.66104 3.32845 6.06129 3.32845 10.7208C3.32845 15.3803 7.56432 17.7806 11.8002 17.7806H54.1595C59.8074 17.7806 65.4552 21.1691 65.4552 27.6643V30.4889H65.4559Z" fill="#E3E3E3"/>
<path d="M55.5723 57.3168H10.3882C4.31675 57.3168 0.504547 53.3855 0.504547 47.1241V10.7208H3.32845V47.1241C3.32845 51.7836 5.86967 54.4047 10.3882 54.4047H55.5715C59.8074 54.4047 62.6313 51.4926 62.6313 47.1241V44.212H65.4552V47.1241C65.4559 53.0938 61.361 57.3168 55.5723 57.3168Z" fill="#E3E3E3"/>
<path d="M53.4539 6.48486H9.68262V9.30877H53.4539V6.48486Z" fill="#E3E3E3"/>
<path d="M53.4539 12.1327H23.8022V14.9566H53.4539V12.1327Z" fill="#E3E3E3"/>
<path d="M65.4559 46.0211H56.9842C52.3247 46.0211 48.5125 42.2089 48.5125 37.5494C48.5125 32.8891 52.3247 29.0769 56.9842 29.0769H65.4559C67.8562 29.0769 69.6918 30.9125 69.6918 33.3128V41.7845C69.6918 44.1855 67.8562 46.0211 65.4559 46.0211ZM56.9842 31.9008C53.8776 31.9008 51.3364 34.442 51.3364 37.5486C51.3364 40.6552 53.8776 43.1964 56.9842 43.1964H65.4559C66.3032 43.1964 66.8679 42.6318 66.8679 41.7845V33.3128C66.8679 32.4654 66.3032 31.9008 65.4559 31.9008H56.9842Z" fill="#E3E3E3"/>
<path d="M58.3961 41.7846C55.9959 41.7846 54.1603 39.949 54.1603 37.5487C54.1603 35.1485 55.9959 33.3129 58.3961 33.3129C60.7964 33.3129 62.632 35.1485 62.632 37.5487C62.632 39.949 60.7964 41.7846 58.3961 41.7846ZM58.3961 36.1368C57.5488 36.1368 56.9842 36.7014 56.9842 37.5487C56.9842 38.396 57.5488 38.9607 58.3961 38.9607C59.2435 38.9607 59.8081 38.396 59.8081 37.5487C59.8081 36.7014 59.2435 36.1368 58.3961 36.1368Z" fill="#E3E3E3"/>
</svg>
