<svg width="520" height="451" viewBox="0 0 520 451" fill="none" xmlns="http://www.w3.org/2000/svg" style="">
<path d="M0 234.167L2.64407 229.76L8.81356 234.167L9.69491 244.157L11.7514 245.92V239.75L16.7458 240.631L18.5085 252.384L20.8588 253.853L21.7401 243.276L29.0847 247.683L26.1469 277.945L43.1864 292.342V279.708L55.5254 288.229H73.7401L93.7175 277.945V269.131H105.763L111.932 257.085L128.678 269.131L158.056 270.306L166.282 263.842L173.627 274.126V261.492L183.028 274.126L202.124 269.131L220.339 279.708L249.718 277.945L277.627 263.842L271.751 250.915L277.627 243.276L285.559 261.492L295.842 257.085H304.655L312.588 243.276L309.062 232.698L322.282 234.167L331.684 208.9V199.792L337.559 191.271H346.96V184.22L387.503 151.019L411.299 121.638V100.483L420.407 84.3238L438.621 51.4169L459.774 0L474.169 10.871L472.407 22.6235V51.4169L468.881 69.6332L481.808 76.0971H494.441L515.006 84.3238L520 105.478L515.006 144.555V168.941L485.333 200.967L474.169 184.22L487.39 173.936L481.808 164.534H472.407L453.311 177.462V199.792L459.774 208.9L450.667 220.064L453.311 232.698L459.774 241.219L450.667 261.492L468.881 257.085L474.169 263.842L472.407 270.306L481.808 277.945H468.881L456.542 284.997L450.667 277.945L446.554 282.059L438.621 279.708L426.576 288.229L414.237 292.342L428.927 298.806V318.785H424.814L420.407 322.311L422.463 338.764L411.299 344.053V356.687L391.322 399.583L393.672 442.773L382.508 451L105.763 411.336L5.28814 269.131V250.915L0 234.167Z" fill="white"/>
</svg>