<svg width="334" height="382" viewBox="0 0 334 382" fill="none" xmlns="http://www.w3.org/2000/svg">
<path opacity="0.1" d="M328.036 382C329.618 382 331.135 381.371 332.253 380.252C333.372 379.132 334 377.614 334 376.031C334 374.448 333.372 372.93 332.253 371.811C331.135 370.691 329.618 370.062 328.036 370.062H290.264L286.286 346.188C285.779 342.791 283.614 340.219 280.321 340.219H250.5L250.506 125.344H268.393C269.975 125.344 271.492 124.715 272.61 123.596C273.729 122.476 274.357 120.958 274.357 119.375C274.357 117.792 273.729 116.274 272.61 115.154C271.492 114.035 269.975 113.406 268.393 113.406H250.506L250.5 5.96875C250.5 4.38574 249.872 2.86756 248.753 1.74821C247.635 0.628849 246.118 0 244.536 0C242.954 0 241.437 0.628849 240.318 1.74821C239.2 2.86756 238.571 4.38574 238.571 5.96875V27.4085C198.757 48.1117 164.098 77.5011 137.155 113.406H113.321C111.74 113.406 110.223 114.035 109.104 115.154C107.986 116.274 107.357 117.792 107.357 119.375C107.357 120.958 107.986 122.476 109.104 123.596C110.223 124.715 111.74 125.344 113.321 125.344H128.65C95.2502 174.662 77.4413 232.891 77.5357 292.469C77.5357 308.722 78.8359 324.67 81.335 340.219H53.6786C50.6368 340.219 48.8475 342.236 47.923 345.376L47.6964 346.307L43.7361 370.062H5.96426C4.38245 370.062 2.86542 370.691 1.74689 371.811C0.628357 372.93 0 374.448 0 376.031C0 377.614 0.628357 379.132 1.74689 380.252C2.86542 381.371 4.38245 382 5.96426 382H328.036ZM59.6429 352.156H274.357L277.936 370.062H56.0643L59.6429 352.156ZM238.571 40.9456V113.406H184.97C194.177 103.316 204.119 93.9232 214.714 85.3054V101.469C214.714 103.052 215.343 104.57 216.461 105.689C217.58 106.809 219.097 107.438 220.679 107.438C222.26 107.438 223.777 106.809 224.896 105.689C226.014 104.57 226.643 103.052 226.643 101.469V71.625C226.649 70.1862 226.135 68.7937 225.196 67.7038C224.257 66.614 222.957 65.9002 221.534 65.6939C220.111 65.4876 218.661 65.8026 217.452 66.5809C216.243 67.3593 215.355 68.5486 214.953 69.9299C145.97 122.24 101.393 205.128 101.393 298.438C101.393 307.898 101.852 317.251 102.747 326.479L103.003 328.562C103.206 329.969 103.905 331.258 104.973 332.196C106.042 333.134 107.409 333.659 108.83 333.677L109.797 333.617C111.171 333.479 112.446 332.84 113.381 331.822C114.315 330.804 114.844 329.478 114.866 328.096L114.83 327.356L114.711 326.222C112.906 308.264 112.854 290.173 114.556 272.205L195.551 340.219L93.4246 340.225C90.8182 324.7 89.4643 308.74 89.4643 292.469C89.4643 183.981 149.721 89.573 238.571 40.9456ZM226.643 125.344H238.577L238.571 340.219H226.643V125.344ZM128.823 268.594H214.72L214.714 340.219H214.076L213.73 339.902L128.829 268.594H128.823ZM135.157 190.922L213.45 256.656H116.477C119.923 234.048 126.199 211.963 135.157 190.922ZM153.819 191H214.72V242.14L153.819 191ZM165.789 136.923L214.72 178V179.062H140.542C147.682 164.289 156.132 150.186 165.789 136.923ZM174.7 125.344H214.714L214.72 162.416L173.03 127.421L174.7 125.344Z" fill="#C8B0B0"/>
</svg>