<svg width="242" height="242" viewBox="0 0 242 242" fill="none" xmlns="http://www.w3.org/2000/svg">
<path d="M235.89 102.349C237.494 102.349 239.032 101.712 240.166 100.578C241.301 99.4434 241.938 97.905 241.938 96.3008V78.1554C241.95 77.954 241.95 77.7521 241.938 77.5506C242.006 77.1502 242.006 76.7413 241.938 76.3409C241.984 75.9794 241.984 75.6137 241.938 75.2522C241.781 74.9038 241.578 74.5783 241.333 74.2844C241.021 74.0335 240.737 73.7496 240.486 73.4377L174.679 32.6711C169.581 22.8258 161.875 14.5712 152.402 8.80929C142.93 3.04743 132.056 0 120.969 0C109.882 0 99.0081 3.04743 89.5358 8.80929C80.0635 14.5712 72.3571 22.8258 67.2588 32.6711L2.78229 73.0748L1.81454 73.9215C1.57017 74.2153 1.36671 74.5409 1.20969 74.8893C1.16415 75.2508 1.16415 75.6165 1.20969 75.978C1.14201 76.3784 1.14201 76.7873 1.20969 77.1877C1.20969 77.1877 1.20969 77.1877 1.20969 77.7925V96.3008C1.20969 97.905 1.84694 99.4434 2.98124 100.578C4.11554 101.712 5.65399 102.349 7.25814 102.349H12.0969V193.076H6.04845C4.4443 193.076 2.90586 193.713 1.77155 194.848C0.637247 195.982 0 197.52 0 199.124V235.415C0 237.019 0.637247 238.558 1.77155 239.692C2.90586 240.826 4.4443 241.464 6.04845 241.464H235.89C237.494 241.464 239.032 240.826 240.166 239.692C241.301 238.558 241.938 237.019 241.938 235.415V199.124C241.938 197.52 241.301 195.982 240.166 194.848C239.032 193.713 237.494 193.076 235.89 193.076H229.841V102.349H235.89ZM229.841 81.5426V90.2523H172.986C178.493 81.1235 181.419 70.6714 181.454 60.0101C181.377 56.8846 181.053 53.77 180.486 50.6955L229.841 81.5426ZM108.872 193.076V119.285C116.856 120.898 125.082 120.898 133.066 119.285V193.076H108.872ZM60.4845 193.076C60.5415 192.634 60.5415 192.187 60.4845 191.745V102.349H77.904C83.3029 107.869 89.7086 112.303 96.7752 115.414V193.076H60.4845ZM145.163 115.414C152.229 112.303 158.635 107.869 164.034 102.349H181.454V191.745C181.397 192.187 181.397 192.634 181.454 193.076H145.163V115.414ZM120.969 11.6225C130.539 11.6225 139.894 14.4604 147.852 19.7773C155.809 25.0942 162.011 32.6513 165.673 41.493C169.336 50.3346 170.294 60.0638 168.427 69.4501C166.56 78.8363 161.951 87.4582 155.184 94.2253C148.417 100.992 139.795 105.601 130.409 107.468C121.023 109.335 111.294 108.377 102.452 104.714C93.6102 101.052 86.0531 94.8501 80.7362 86.8928C75.4193 78.9355 72.5814 69.5803 72.5814 60.0101C72.5814 47.1769 77.6794 34.8693 86.7538 25.7949C95.8282 16.7205 108.136 11.6225 120.969 11.6225ZM68.9523 90.2523H12.0969V81.5426L61.4523 50.6955C60.8784 53.7691 60.5547 56.8842 60.4845 60.0101C60.5186 70.6714 63.4452 81.1235 68.9523 90.2523ZM24.1938 102.349H48.3876V191.745C48.3306 192.187 48.3306 192.634 48.3876 193.076H24.1938V102.349ZM229.841 229.367H12.0969V205.173H229.841V229.367ZM217.744 193.076H193.55C193.607 192.634 193.607 192.187 193.55 191.745V102.349H217.744V193.076Z" fill="#EEEEEE"/>
<path d="M120.969 84.2039C125.754 84.2039 130.432 82.785 134.41 80.1265C138.389 77.4681 141.49 73.6895 143.321 69.2687C145.152 64.8479 145.632 59.9833 144.698 55.2902C143.764 50.597 141.46 46.2861 138.077 42.9025C134.693 39.519 130.382 37.2147 125.689 36.2812C120.996 35.3477 116.131 35.8268 111.711 37.658C107.29 39.4891 103.511 42.5901 100.853 46.5688C98.1942 50.5474 96.7753 55.225 96.7753 60.0101C96.7753 66.4267 99.3243 72.5805 103.861 77.1177C108.399 81.6549 114.552 84.2039 120.969 84.2039ZM120.969 47.9132C123.362 47.9132 125.7 48.6227 127.69 49.9519C129.679 51.2811 131.23 53.1704 132.145 55.3808C133.061 57.5913 133.3 60.0235 132.834 62.3701C132.367 64.7167 131.215 66.8721 129.523 68.5639C127.831 70.2557 125.676 71.4078 123.329 71.8746C120.982 72.3414 118.55 72.1018 116.34 71.1862C114.129 70.2706 112.24 68.7201 110.911 66.7308C109.582 64.7415 108.872 62.4027 108.872 60.0101C108.872 56.8018 110.147 53.7249 112.415 51.4563C114.684 49.1877 117.761 47.9132 120.969 47.9132Z" fill="#EEEEEE"/>
</svg>
