<svg width="300" height="299" viewBox="0 0 300 299" fill="none" xmlns="http://www.w3.org/2000/svg">
<path d="M0 237.5H181.25V298.538L218.75 276.038L256.25 298.538V237.5H300V0H0V237.5ZM245.406 195.088C244.844 195.656 244.244 196.181 243.65 196.713C243.312 197.013 243 197.331 242.65 197.619C242.262 197.944 241.85 198.219 241.45 198.525C236.181 202.556 229.831 205.238 222.9 206.006C222.788 206.019 222.675 206.044 222.556 206.056C221.3 206.181 220.025 206.25 218.738 206.25C217.45 206.25 216.175 206.181 214.919 206.056C214.806 206.044 214.694 206.019 214.575 206.006C207.644 205.238 201.3 202.556 196.025 198.525C195.625 198.219 195.212 197.938 194.825 197.619C194.481 197.331 194.162 197.013 193.825 196.713C193.231 196.181 192.637 195.656 192.069 195.088C185.375 188.313 181.225 179.013 181.225 168.75C181.225 148.069 198.044 131.25 218.725 131.25C239.406 131.25 256.225 148.069 256.225 168.75C256.25 179.006 252.106 188.306 245.406 195.088ZM243.75 276.463L218.75 261.462L193.75 276.463V237.5V212.063C193.962 212.188 194.2 212.269 194.419 212.387C196.075 213.312 197.781 214.163 199.544 214.9C199.619 214.931 199.7 214.956 199.781 214.988C205.637 217.4 212.037 218.75 218.756 218.75C225.475 218.75 231.875 217.4 237.731 214.988C237.806 214.956 237.887 214.931 237.969 214.9C239.731 214.163 241.437 213.319 243.094 212.387C243.312 212.269 243.55 212.188 243.762 212.063V237.5V276.463H243.75ZM12.5 12.5H287.5V225H256.25V201.713C264.006 192.9 268.75 181.381 268.75 168.75C268.75 141.181 246.319 118.75 218.75 118.75C191.181 118.75 168.75 141.181 168.75 168.75C168.75 181.381 173.494 192.9 181.25 201.713V225H12.5V12.5Z" fill="#F4F4F4"/>
<path d="M231.25 37.5H68.7504V50H231.25V37.5Z" fill="#F4F4F4"/>
<path d="M200 75H99.9999V87.5H200V75Z" fill="#F4F4F4"/>
<path d="M106.25 187.5H37.5V200H106.25V187.5Z" fill="#F4F4F4"/>
</svg>