<svg width="30" height="32" viewBox="0 0 30 32" fill="none" xmlns="http://www.w3.org/2000/svg">
<rect y="0.263184" width="30" height="31.5789" rx="7" fill="#4943CD"/>
<path d="M6.5625 26C6.47962 26 6.40013 25.9671 6.34153 25.9085C6.28292 25.8499 6.25 25.7704 6.25 25.6875C6.25 25.6046 6.28292 25.5251 6.34153 25.4665C6.40013 25.4079 6.47962 25.375 6.5625 25.375H8.54156L8.75 24.125C8.77656 23.9472 8.89 23.8125 9.0625 23.8125H10.625L10.6247 12.5625H9.6875C9.60462 12.5625 9.52513 12.5296 9.46653 12.471C9.40792 12.4124 9.375 12.3329 9.375 12.25C9.375 12.1671 9.40792 12.0876 9.46653 12.029C9.52513 11.9704 9.60462 11.9375 9.6875 11.9375H10.6247L10.625 6.3125C10.625 6.22962 10.6579 6.15013 10.7165 6.09153C10.7751 6.03292 10.8546 6 10.9375 6C11.0204 6 11.0999 6.03292 11.1585 6.09153C11.2171 6.15013 11.25 6.22962 11.25 6.3125V7.435C13.3361 8.51894 15.1521 10.0577 16.5638 11.9375H17.8125C17.8954 11.9375 17.9749 11.9704 18.0335 12.029C18.0921 12.0876 18.125 12.1671 18.125 12.25C18.125 12.3329 18.0921 12.4124 18.0335 12.471C17.9749 12.5296 17.8954 12.5625 17.8125 12.5625H17.0094C18.7593 15.1446 19.6924 18.1933 19.6875 21.3125C19.6875 22.1634 19.6194 22.9984 19.4884 23.8125H20.9375C21.0969 23.8125 21.1906 23.9181 21.2391 24.0825L21.2509 24.1313L21.4584 25.375H23.4375C23.5204 25.375 23.5999 25.4079 23.6585 25.4665C23.7171 25.5251 23.75 25.6046 23.75 25.6875C23.75 25.7704 23.7171 25.8499 23.6585 25.9085C23.5999 25.9671 23.5204 26 23.4375 26H6.5625ZM20.625 24.4375H9.375L9.1875 25.375H20.8125L20.625 24.4375ZM11.25 8.14375V11.9375H14.0584C13.5761 11.4092 13.0552 10.9174 12.5 10.4662V11.3125C12.5 11.3954 12.4671 11.4749 12.4085 11.5335C12.3499 11.5921 12.2704 11.625 12.1875 11.625C12.1046 11.625 12.0251 11.5921 11.9665 11.5335C11.9079 11.4749 11.875 11.3954 11.875 11.3125V9.75C11.8747 9.67467 11.9016 9.60176 11.9508 9.5447C12 9.48764 12.0681 9.45027 12.1427 9.43947C12.2172 9.42867 12.2932 9.44516 12.3565 9.48591C12.4199 9.52666 12.4664 9.58893 12.4875 9.66125C16.1019 12.4 18.4375 16.7397 18.4375 21.625C18.4375 22.1203 18.4134 22.61 18.3666 23.0931L18.3531 23.2022C18.3425 23.2759 18.3059 23.3434 18.2499 23.3925C18.1939 23.4416 18.1223 23.4691 18.0478 23.47L17.9972 23.4669C17.9252 23.4596 17.8584 23.4262 17.8094 23.3729C17.7604 23.3196 17.7327 23.2502 17.7316 23.1778L17.7334 23.1391L17.7397 23.0797C17.8343 22.1395 17.837 21.1923 17.7478 20.2516L13.5041 23.8125L18.855 23.8128C18.9916 23 19.0625 22.1644 19.0625 21.3125C19.0625 15.6325 15.9053 10.6897 11.25 8.14375ZM11.875 12.5625H11.2497L11.25 23.8125H11.875V12.5625ZM17.0003 20.0625H12.4997L12.5 23.8125H12.5334L12.5516 23.7959L17 20.0625H17.0003ZM16.6684 15.9959L12.5662 19.4375H17.6472C17.4666 18.2538 17.1378 17.0975 16.6684 15.9959ZM15.6906 16H12.4997V18.6775L15.6906 16ZM15.0634 13.1688L12.4997 15.3194V15.375H16.3863C16.0122 14.6015 15.5694 13.8631 15.0634 13.1688ZM14.5966 12.5625H12.5L12.4997 14.5034L14.6841 12.6713L14.5966 12.5625Z" fill="white"/>
</svg>
