<svg width="30" height="30" viewBox="0 0 30 30" fill="none" xmlns="http://www.w3.org/2000/svg">
<rect width="30" height="30" rx="7" fill="#4943CD"/>
<g opacity="0.9">
<path d="M23.5845 13.6297C23.7041 13.6297 23.8187 13.5822 23.9033 13.4976C23.9879 13.413 24.0354 13.2984 24.0354 13.1788V11.8261C24.0362 11.8111 24.0362 11.7961 24.0354 11.781C24.0404 11.7512 24.0404 11.7207 24.0354 11.6909C24.0388 11.6639 24.0388 11.6367 24.0354 11.6097C24.0237 11.5837 24.0085 11.5595 23.9903 11.5376C23.967 11.5189 23.9459 11.4977 23.9272 11.4744L19.0215 8.43548C18.6415 7.70155 18.067 7.08621 17.3609 6.65669C16.6548 6.22717 15.8442 6 15.0177 6C14.1912 6 13.3806 6.22717 12.6745 6.65669C11.9684 7.08621 11.3939 7.70155 11.0138 8.43548L6.20741 11.4474L6.13527 11.5105C6.11705 11.5324 6.10188 11.5567 6.09018 11.5827C6.08678 11.6096 6.08678 11.6369 6.09018 11.6638C6.08513 11.6937 6.08513 11.7241 6.09018 11.754C6.09018 11.754 6.09018 11.754 6.09018 11.7991V13.1788C6.09018 13.2984 6.13768 13.413 6.22224 13.4976C6.30679 13.5822 6.42148 13.6297 6.54106 13.6297H6.90177V20.3929H6.45088C6.3313 20.3929 6.21662 20.4404 6.13206 20.525C6.0475 20.6095 6 20.7242 6 20.8438V23.5491C6 23.6687 6.0475 23.7834 6.13206 23.8679C6.21662 23.9525 6.3313 24 6.45088 24H23.5845C23.7041 24 23.8187 23.9525 23.9033 23.8679C23.9879 23.7834 24.0354 23.6687 24.0354 23.5491V20.8438C24.0354 20.7242 23.9879 20.6095 23.9033 20.525C23.8187 20.4404 23.7041 20.3929 23.5845 20.3929H23.1336V13.6297H23.5845ZM23.1336 12.0786V12.7279H18.8953C19.3058 12.0474 19.524 11.2682 19.5265 10.4735C19.5208 10.2405 19.4967 10.0083 19.4544 9.77911L23.1336 12.0786ZM14.1159 20.3929V14.8921C14.7111 15.0124 15.3243 15.0124 15.9195 14.8921V20.3929H14.1159ZM10.5088 20.3929C10.5131 20.36 10.5131 20.3267 10.5088 20.2937V13.6297H11.8074C12.2098 14.0411 12.6874 14.3717 13.2141 14.6036V20.3929H10.5088ZM16.8212 14.6036C17.348 14.3717 17.8255 14.0411 18.228 13.6297H19.5265V20.2937C19.5223 20.3267 19.5223 20.36 19.5265 20.3929H16.8212V14.6036ZM15.0177 6.8664C15.7311 6.8664 16.4285 7.07795 17.0217 7.4743C17.6148 7.87066 18.0772 8.434 18.3502 9.09311C18.6232 9.75222 18.6946 10.4775 18.5554 11.1772C18.4163 11.8769 18.0727 12.5196 17.5683 13.0241C17.0638 13.5285 16.4211 13.8721 15.7214 14.0112C15.0217 14.1504 14.2964 14.079 13.6373 13.806C12.9782 13.533 12.4149 13.0706 12.0185 12.4775C11.6222 11.8843 11.4106 11.1869 11.4106 10.4735C11.4106 9.51682 11.7906 8.59935 12.4671 7.92289C13.1436 7.24643 14.061 6.8664 15.0177 6.8664ZM11.1401 12.7279H6.90177V12.0786L10.581 9.77911C10.5382 10.0082 10.5141 10.2405 10.5088 10.4735C10.5114 11.2682 10.7296 12.0474 11.1401 12.7279ZM7.80354 13.6297H9.60707V20.2937C9.60283 20.3267 9.60283 20.36 9.60707 20.3929H7.80354V13.6297ZM23.1336 23.0982H6.90177V21.2947H23.1336V23.0982ZM22.2318 20.3929H20.4283C20.4325 20.36 20.4325 20.3267 20.4283 20.2937V13.6297H22.2318V20.3929Z" fill="white"/>
<path d="M15.0184 12.277C15.3751 12.277 15.7238 12.1712 16.0204 11.973C16.317 11.7749 16.5481 11.4932 16.6846 11.1636C16.8211 10.8341 16.8569 10.4715 16.7873 10.1216C16.7177 9.77175 16.5459 9.4504 16.2937 9.19817C16.0414 8.94594 15.7201 8.77417 15.3702 8.70458C15.0204 8.63499 14.6578 8.6707 14.3282 8.80721C13.9986 8.94371 13.717 9.17488 13.5188 9.47147C13.3206 9.76806 13.2148 10.1168 13.2148 10.4735C13.2148 10.9518 13.4049 11.4105 13.7431 11.7488C14.0813 12.087 14.5401 12.277 15.0184 12.277ZM15.0184 9.57169C15.1967 9.57169 15.3711 9.62458 15.5194 9.72367C15.6677 9.82275 15.7833 9.96359 15.8515 10.1284C15.9198 10.2931 15.9376 10.4745 15.9028 10.6494C15.868 10.8243 15.7821 10.985 15.656 11.1111C15.5299 11.2372 15.3692 11.3231 15.1943 11.3579C15.0194 11.3927 14.8381 11.3748 14.6733 11.3066C14.5085 11.2383 14.3677 11.1227 14.2686 10.9745C14.1695 10.8262 14.1166 10.6518 14.1166 10.4735C14.1166 10.2343 14.2116 10.0049 14.3807 9.83581C14.5498 9.6667 14.7792 9.57169 15.0184 9.57169Z" fill="white"/>
</g>
</svg>
