<svg width="30" height="32" viewBox="0 0 30 32" fill="none" xmlns="http://www.w3.org/2000/svg">
<rect y="0.263184" width="30" height="31.5789" rx="7" fill="#4943CD"/>
<g clip-path="url(#clip0)">
<path d="M15.2273 27C15.1985 27 15.141 27 15.1122 26.9713C10.2506 25.5366 7 21.175 7 16.1248V9.72597C7 9.52511 7.1726 9.35294 7.37397 9.35294C8.4671 9.35294 9.35887 8.46341 9.35887 7.37303C9.35887 7.17217 9.53147 7 9.73284 7H20.7217C20.9231 7 21.0957 7.17217 21.0957 7.37303C21.0957 8.46341 21.9874 9.35294 23.0806 9.35294C23.2819 9.35294 23.4545 9.52511 23.4545 9.72597V16.0961C23.4545 21.1463 20.2039 25.5366 15.3423 26.9713C15.2848 27 15.256 27 15.2273 27ZM10.078 7.77475C9.90544 8.95122 8.95613 9.92683 7.7767 10.0703V16.0961C7.74793 20.7733 10.7684 24.8479 15.2273 26.2253C19.6861 24.8479 22.7066 20.7733 22.7066 16.0961V10.0703C21.4984 9.89813 20.5491 8.95122 20.3765 7.74605H10.078V7.77475Z" fill="white"/>
<path d="M15.2273 19.7402C13.2999 19.7402 11.7178 18.162 11.7178 16.2395C11.7178 14.317 13.2999 12.7388 15.2273 12.7388C17.1547 12.7388 18.7368 14.317 18.7368 16.2395C18.7368 18.162 17.1547 19.7402 15.2273 19.7402ZM15.2273 13.4848C13.7027 13.4848 12.4657 14.7187 12.4657 16.2395C12.4657 17.7603 13.7027 18.9942 15.2273 18.9942C16.7519 18.9942 17.9889 17.7603 17.9889 16.2395C17.9889 14.7187 16.7519 13.4848 15.2273 13.4848Z" fill="white"/>
<path d="M14.8246 17.7601C14.7096 17.7601 14.6233 17.7315 14.5657 17.6454L13.789 16.8706C13.6452 16.7271 13.6452 16.4689 13.789 16.3254C13.8753 16.2393 13.9616 16.2106 14.0479 16.2106C14.1342 16.2106 14.2493 16.2393 14.3068 16.3254L14.8246 16.8419L16.5219 15.149C16.6082 15.0629 16.6945 15.0342 16.7808 15.0342C16.8958 15.0342 16.9821 15.0629 17.0397 15.149C17.1835 15.2924 17.1835 15.5507 17.0397 15.6942L15.0835 17.6454C15.026 17.7315 14.9397 17.7601 14.8246 17.7601Z" fill="white"/>
</g>
<defs>
<clipPath id="clip0">
<rect width="16.4545" height="20" fill="white" transform="translate(7 7)"/>
</clipPath>
</defs>
</svg>
