<svg width="30" height="32" viewBox="0 0 30 32" fill="none" xmlns="http://www.w3.org/2000/svg">
<rect y="0.263184" width="30" height="31.5789" rx="7" fill="#4943CD"/>
<path d="M22.5293 9.42266C22.5133 9.40248 22.4956 9.38365 22.4764 9.36638C21.5396 8.3079 20.3887 7.46045 19.0998 6.88011C17.8109 6.29977 16.4135 5.99978 15 6C9.48583 6 5 10.4885 5 16C5 21.5115 9.48851 26 15 26C20.5115 26 25 21.5115 25 16C25.0021 13.589 24.1294 11.2592 22.5441 9.44275L22.5293 9.42266ZM24.0561 15.1539H16.0062L22.1079 10.3304C23.2153 11.7129 23.8927 13.3901 24.0561 15.1539ZM21.5104 9.65311L15.1588 14.6729V6.90641C17.5551 6.94692 19.838 7.93444 21.5084 9.65311H21.5104ZM15 25.0956C9.98493 25.0956 5.9044 21.0157 5.9044 16C5.9044 11.2368 9.58565 7.31708 14.2524 6.93522V15.6061C14.2524 15.6114 14.2524 15.6161 14.2524 15.6215C14.2524 15.6269 14.2524 15.6382 14.2524 15.6469C14.2524 15.6557 14.2524 15.6603 14.2524 15.667C14.2524 15.6737 14.2524 15.6831 14.2557 15.6905C14.2591 15.6979 14.2591 15.7046 14.2604 15.7119L14.2664 15.7334C14.2664 15.7407 14.2711 15.7481 14.2731 15.7548L14.2805 15.7749L14.2906 15.797C14.2906 15.803 14.2959 15.8091 14.2993 15.8151C14.3026 15.8211 14.3073 15.8298 14.312 15.8372L14.3214 15.8533L14.3381 15.8767L14.3455 15.8868C14.3555 15.8995 14.3669 15.9116 14.3783 15.9236L14.383 15.9276C14.3931 15.937 14.4031 15.9464 14.4138 15.9551L14.4299 15.9672L14.452 15.9833L14.4708 15.994C14.4784 15.9986 14.4862 16.0029 14.4942 16.0067L14.5123 16.0154C14.5212 16.0198 14.5304 16.0236 14.5398 16.0268L14.5558 16.0328L14.5887 16.0422L14.6021 16.0456C14.6147 16.0483 14.6274 16.0503 14.6403 16.0516H14.6496C14.6657 16.0526 14.6818 16.0526 14.6979 16.0516H24.0949C24.0635 21.0472 19.9963 25.0956 15 25.0956Z" fill="white"/>
<path d="M14.982 17.6127C14.951 17.5242 14.8933 17.4476 14.8169 17.3934C14.7404 17.3392 14.649 17.3101 14.5553 17.3101C14.4616 17.3101 14.3702 17.3392 14.2937 17.3934C14.2173 17.4476 14.1595 17.5242 14.1285 17.6127L13.4137 19.6412L12.8778 21.1566C12.8379 21.2698 12.8446 21.3942 12.8964 21.5024C12.9482 21.6106 13.0409 21.6938 13.1541 21.7337C13.2673 21.7736 13.3917 21.7669 13.4999 21.7151C13.6082 21.6633 13.6914 21.5706 13.7313 21.4574L13.949 20.8397H15.1602L15.3786 21.4574C15.4197 21.5687 15.5028 21.6594 15.6101 21.7099C15.7174 21.7605 15.8403 21.7669 15.9523 21.7277C16.0642 21.6885 16.1563 21.6069 16.2087 21.5004C16.261 21.394 16.2694 21.2712 16.2321 21.1586L14.982 17.6127ZM14.2679 19.9387L14.5553 19.1234L14.8427 19.9387H14.2679Z" fill="white"/>
<path d="M13.0792 17.7295C13.079 17.6097 13.0313 17.4948 12.9466 17.41C12.8618 17.3252 12.7469 17.2775 12.627 17.2773H10.5804C10.4604 17.2773 10.3454 17.325 10.2606 17.4098C10.1758 17.4946 10.1282 17.6096 10.1282 17.7295C10.1282 17.8495 10.1758 17.9645 10.2606 18.0493C10.3454 18.1341 10.4604 18.1817 10.5804 18.1817H11.1512V21.2768C11.1512 21.3967 11.1988 21.5118 11.2836 21.5966C11.3684 21.6814 11.4834 21.729 11.6034 21.729C11.7233 21.729 11.8383 21.6814 11.9231 21.5966C12.0079 21.5118 12.0556 21.3967 12.0556 21.2768V18.1817H12.627C12.7469 18.1817 12.862 18.1341 12.9468 18.0493C13.0316 17.9645 13.0792 17.8495 13.0792 17.7295Z" fill="white"/>
<path d="M19.2401 17.3397C19.1369 17.2786 19.0137 17.2609 18.8974 17.2904C18.7811 17.3199 18.6813 17.3942 18.6197 17.4972L17.9538 18.6153L17.2886 17.4972C17.2582 17.4462 17.218 17.4016 17.1704 17.3661C17.1228 17.3306 17.0687 17.3048 17.0111 17.2902C16.9535 17.2756 16.8937 17.2725 16.8349 17.2811C16.7761 17.2896 16.7196 17.3097 16.6686 17.3401C16.6175 17.3705 16.573 17.4106 16.5375 17.4582C16.502 17.5058 16.4762 17.56 16.4616 17.6176C16.447 17.6751 16.4439 17.735 16.4525 17.7938C16.461 17.8526 16.4811 17.9091 16.5115 17.9601L17.4279 19.5009L16.5115 21.0418C16.4811 21.0928 16.461 21.1493 16.4525 21.2081C16.4439 21.2668 16.447 21.3267 16.4616 21.3843C16.4762 21.4419 16.502 21.496 16.5375 21.5436C16.573 21.5912 16.6175 21.6314 16.6686 21.6618C16.7196 21.6922 16.7761 21.7122 16.8349 21.7208C16.8937 21.7293 16.9535 21.7262 17.0111 21.7116C17.0687 21.697 17.1228 21.6713 17.1704 21.6358C17.218 21.6002 17.2582 21.5557 17.2886 21.5047L17.9538 20.3866L18.6197 21.5047C18.6811 21.6077 18.7809 21.6822 18.8972 21.7116C19.0135 21.7411 19.1367 21.7232 19.2397 21.6618C19.3428 21.6004 19.4172 21.5006 19.4467 21.3843C19.4762 21.268 19.4582 21.1448 19.3968 21.0418L18.4804 19.5009L19.3968 17.9601C19.4582 17.857 19.4762 17.7338 19.4468 17.6175C19.4174 17.5012 19.343 17.4013 19.2401 17.3397Z" fill="white"/>
</svg>
