<svg width="30" height="30" viewBox="0 0 30 30" fill="none" xmlns="http://www.w3.org/2000/svg">
<rect width="30" height="30" rx="7" fill="#4943CD"/>
<path d="M22.0762 9.5008C22.0617 9.48264 22.0458 9.4657 22.0286 9.45015C21.1854 8.49752 20.1496 7.73481 18.9896 7.21251C17.8296 6.6902 16.572 6.42021 15.2998 6.42041C10.3371 6.42041 6.2998 10.4601 6.2998 15.4204C6.2998 20.3808 10.3395 24.4204 15.2998 24.4204C20.2602 24.4204 24.2998 20.3808 24.2998 15.4204C24.3017 13.2505 23.5163 11.1537 22.0895 9.51889L22.0762 9.5008ZM23.4503 14.6589H16.2054L21.6969 10.3178C22.6936 11.5621 23.3032 13.0715 23.4503 14.6589ZM21.1591 9.70821L15.4427 14.226V7.23618C17.5994 7.27264 19.654 8.1614 21.1573 9.70821H21.1591ZM15.2998 23.6064C10.7862 23.6064 7.11377 19.9346 7.11377 15.4204C7.11377 11.1335 10.4269 7.60578 14.6269 7.26211V15.0659C14.6269 15.0707 14.6269 15.0749 14.6269 15.0798C14.6269 15.0846 14.6269 15.0948 14.6269 15.1027C14.6269 15.1105 14.6269 15.1147 14.6269 15.1208C14.6269 15.1268 14.6269 15.1352 14.63 15.1419C14.633 15.1485 14.633 15.1545 14.6342 15.1611L14.6396 15.1804C14.6396 15.1871 14.6438 15.1937 14.6456 15.1997L14.6523 15.2178L14.6613 15.2377C14.6613 15.2431 14.6661 15.2486 14.6691 15.254C14.6722 15.2594 14.6764 15.2673 14.6806 15.2739L14.689 15.2884L14.7041 15.3095L14.7107 15.3185C14.7198 15.33 14.73 15.3408 14.7403 15.3517L14.7445 15.3553C14.7536 15.3637 14.7626 15.3722 14.7722 15.38L14.7867 15.3909L14.8066 15.4053L14.8235 15.415C14.8303 15.4192 14.8374 15.423 14.8446 15.4264L14.8609 15.4343C14.8689 15.4382 14.8771 15.4416 14.8856 15.4445L14.9001 15.45L14.9296 15.4584L14.9417 15.4614C14.953 15.4639 14.9645 15.4657 14.976 15.4668H14.9845C14.9989 15.4677 15.0134 15.4677 15.0279 15.4668H23.4852C23.4569 19.9629 19.7965 23.6064 15.2998 23.6064Z" fill="white"/>
</svg>
