<svg width="30" height="32" viewBox="0 0 30 32" fill="none" xmlns="http://www.w3.org/2000/svg">
<rect y="0.263184" width="30" height="31.5789" rx="7" fill="#4943CD"/>
<path d="M15 6L14.6055 6.01562L14.2148 6.0625L13.8281 6.13867L13.4492 6.24414L13.0781 6.38086L12.7207 6.54492L12.377 6.73633L12.0488 6.95508L11.7383 7.19727L11.4492 7.46484L11.1816 7.75391L10.9375 8.06055L10.7188 8.38672L10.5254 8.73047L10.3594 9.08594L10.2246 9.45508L10.1172 9.83398L10.0391 10.2188L9.99414 10.6094L9.97852 11L9.99414 11.6133L10.0371 12.2246L10.1133 12.832L10.2188 13.4355L10.3535 14.0332L10.5176 14.625L10.709 15.2051L10.9297 15.7773L11.1797 16.3359L11.4551 16.8848L11.6387 17.1934L11.8477 17.4844L11.9102 17.582L11.9473 17.6895L11.957 17.8047L11.9414 17.9199L11.8984 18.0254L11.8359 18.1211L11.75 18.1973L11.6484 18.2539L11.5391 18.2871L10.8184 18.4199L10.1055 18.5762L9.39649 18.7559L8.69532 18.9609L8.00196 19.1914L7.31641 19.4453L7.03711 19.5703L6.77344 19.7227L6.52539 19.9023L6.29688 20.1035L6.0918 20.3281L5.91016 20.5703L5.75391 20.832L5.62305 21.1074L5.44531 21.5781L5.29492 22.0566L5.17188 22.543L5.07617 23.0352L5.00781 23.5313L5 23.7363L5.01953 23.9375L5.06641 24.1348L5.13867 24.3242L5.23633 24.502L5.35547 24.666L5.5 24.8105L5.6582 24.9355L5.83594 25.0371L6.02344 25.1172L6.2207 25.166L7.37891 25.375L8.54297 25.5527L9.71094 25.7012L10.8828 25.8203L12.0566 25.9102L13.2344 25.9707L14.4121 26H15.459L14.459 25H14.4219L13.2715 24.9707L12.1211 24.9121L10.9727 24.8262L9.82422 24.709L8.68359 24.5625L7.54297 24.3887L6.41016 24.1855L6.29297 24.1465L6.18555 24.082L6.10156 23.9902L6.04102 23.8848L6.00781 23.7637L6.00586 23.6406L6.06836 23.1973L6.15235 22.7617L6.26172 22.3281L6.39453 21.9023L6.55274 21.4844L6.6543 21.2773L6.77735 21.0781L6.92188 20.8984L7.08789 20.7363L7.27149 20.5938L7.47071 20.4727L7.68164 20.377L8.33399 20.1348L8.99414 19.916L9.66211 19.7207L10.3379 19.5488L11.0176 19.4004L11.7012 19.2734L11.918 19.2207L12.125 19.1367L12.3184 19.0234L12.4902 18.8828L12.6387 18.7188L12.7656 18.5352L12.8594 18.334L12.9238 18.1211L12.957 17.9023V17.6797L12.9219 17.4609L12.8574 17.2481L12.7617 17.0469L12.6367 16.8633L12.4785 16.6445L12.3418 16.4141L12.0859 15.9102L11.8574 15.3945L11.6543 14.8691L11.4785 14.334L11.3281 13.791L11.2031 13.2402L11.1074 12.6855L11.0371 12.127L10.9961 11.5645L10.9805 11.002L10.998 10.6523L11.043 10.3066L11.1191 9.9668L11.2246 9.63281L11.3594 9.31055L11.5195 9L11.709 8.70703L11.9219 8.42969L12.1582 8.17188L12.418 7.93555L12.6953 7.72461L12.9902 7.53711L13.3008 7.375L13.625 7.24219L13.959 7.13672L14.3027 7.0625L14.6504 7.01562L14.998 7L15.3496 7.01562L15.6973 7.0625L16.0391 7.13672L16.373 7.24219L16.6973 7.375L17.0098 7.53711L17.3047 7.72461L17.582 7.93555L17.8418 8.17188L18.0762 8.42969L18.291 8.70703L18.4805 9L18.6406 9.31055L18.7754 9.63281L18.8809 9.9668L18.957 10.3066L19.0019 10.6523L19.0176 11.002L19.0039 11.5645L18.9629 12.127L18.8926 12.6855L18.7949 13.2402L18.6719 13.791L18.5215 14.334L18.3457 14.8691L18.1406 15.3945L17.9121 15.9102L17.6582 16.4141L17.5215 16.6445L17.3633 16.8633L17.2363 17.0469L17.1426 17.248L17.0762 17.4609L17.041 17.6797V17.9023L17.0742 18.1211L17.1387 18.334L17.2344 18.5352L17.3594 18.7188L17.5078 18.8828L17.6816 19.0234L17.875 19.1367L18.082 19.2207L18.2969 19.2734L18.9824 19.4004L19.6621 19.5488L20.3359 19.7207L20.6465 19.8125L21.4492 19.0098L21.3047 18.9609L20.6035 18.7559L19.8965 18.5762L19.1836 18.4199L18.4629 18.2871L18.3516 18.2539L18.25 18.1973L18.166 18.1211L18.1016 18.0254L18.0605 17.9199L18.043 17.8047L18.0547 17.6895L18.0918 17.582L18.1524 17.4844L18.3633 17.1934L18.5469 16.8848L18.8223 16.3359L19.0703 15.7773L19.291 15.2051L19.4844 14.625L19.6484 14.0332L19.7832 13.4355L19.8867 12.832L19.9629 12.2246L20.0078 11.6133L20.0215 11L20.0078 10.6094L19.9609 10.2188L19.8828 9.83398L19.7773 9.45508L19.6406 9.08594L19.4746 8.73047L19.2832 8.38672L19.0645 8.06055L18.8184 7.75391L18.5527 7.46484L18.2637 7.19727L17.9531 6.95508L17.625 6.73633L17.2793 6.54492L16.9219 6.38086L16.5527 6.24414L16.1738 6.13867L15.7852 6.0625L15.3945 6.01562L15 6ZM24.4844 18.9961C24.3546 18.9997 24.2313 19.0536 24.1406 19.1465L18.4941 24.793L15.8477 22.1465C15.3764 21.6557 14.6498 22.3823 15.1406 22.8535L18.1406 25.8535C18.3359 26.0487 18.6524 26.0487 18.8477 25.8535L24.8477 19.8535C25.1729 19.5355 24.9391 18.9836 24.4844 18.9961Z" fill="white"/>
</svg>
