<svg width="30" height="31" viewBox="0 0 30 31" fill="none" xmlns="http://www.w3.org/2000/svg">
<rect y="0.125" width="30" height="30.75" rx="7" fill="#4943CD"/>
<path d="M15 24.7249C19.9626 24.7249 23.9999 20.5866 23.9999 15.4999C23.9999 10.4132 19.9626 6.2749 15 6.2749C10.0373 6.2749 6 10.4132 6 15.4999C6 20.5866 10.0374 24.7249 15 24.7249ZM15 23.465C14.6191 23.465 14.2444 23.4367 13.878 23.3822C14.6194 22.8566 15.4744 22.0568 15.9983 20.8336C16.3708 19.9639 16.9728 18.7734 17.896 18.4777C18.4316 18.3062 19.071 18.4513 19.7973 18.9088C20.0836 19.0891 20.737 19.5851 21.3598 20.0722C19.9524 22.1227 17.6262 23.465 15 23.465ZM22.7175 14.5645C21.7962 14.8317 20.0598 15.1665 19.1981 14.2383C19.0006 14.0252 18.8328 13.8064 18.6705 13.5949C18.213 12.9988 17.74 12.3822 16.798 12.2373C15.9669 12.1098 15.3459 12.5039 14.8927 12.7917C14.573 12.9948 14.3693 13.1157 14.2295 13.0785C12.1277 12.5201 12.2732 10.8238 12.6555 8.82931C12.7317 8.4322 12.7913 8.12119 12.7992 7.85996C13.4972 7.64836 14.2359 7.53472 14.9999 7.53472C18.9762 7.53472 22.2644 10.6117 22.7175 14.5645ZM11.4856 8.39686C11.4733 8.46231 11.461 8.52662 11.4495 8.5864C11.2902 9.41717 11.072 10.5549 11.2858 11.6324C11.5591 13.0093 12.4457 13.9062 13.9214 14.2981C14.5794 14.473 15.1121 14.1345 15.5402 13.8627C15.9106 13.6274 16.2302 13.4243 16.6158 13.4833C17.0558 13.551 17.2796 13.8201 17.7044 14.3738C17.8757 14.5972 18.07 14.8503 18.3073 15.1064C19.0151 15.8689 19.9915 16.1073 20.9362 16.1073C21.5946 16.1073 22.2374 15.9915 22.763 15.8565C22.7149 16.9721 22.4417 18.0288 21.9891 18.98C21.4624 18.5695 20.7837 18.0516 20.4409 17.8356C19.3984 17.1787 18.4189 16.9902 17.5292 17.2752C16.1275 17.7243 15.3417 19.2321 14.8727 20.3272C14.3162 21.6265 13.2938 22.3331 12.272 22.9032C12.2531 22.9138 12.235 22.9252 12.2177 22.9374C11.5571 22.6769 10.9398 22.3265 10.38 21.9009C10.4873 21.8364 10.5964 21.773 10.7043 21.7102C11.5599 21.2125 12.5296 20.6483 12.5164 19.5835C12.5098 19.0474 12.1542 18.6025 11.7778 18.1315C11.4364 17.7043 11.0495 17.2202 10.893 16.6464C10.7341 16.064 10.6489 15.3897 10.6397 14.6423C10.6211 13.1268 9.86845 11.7513 8.64034 10.9273C9.37046 9.86367 10.3476 8.99083 11.4856 8.39686ZM8.01384 12.0134C8.87326 12.613 9.39768 13.5877 9.41083 14.658C9.42134 15.5147 9.52183 16.2978 9.70939 16.9855C9.93531 17.8139 10.4298 18.4326 10.8271 18.9297C11.0025 19.1491 11.2669 19.48 11.2875 19.6035C11.286 19.9231 10.6549 20.2903 10.0977 20.6144C9.86962 20.747 9.63687 20.8825 9.41255 21.0301C8.06147 19.5963 7.22915 17.6458 7.22915 15.4998C7.22915 14.2503 7.51136 13.067 8.01384 12.0134Z" fill="white"/>
</svg>
