<svg width="30" height="30" viewBox="0 0 30 30" fill="none" xmlns="http://www.w3.org/2000/svg">
<rect width="30" height="30" rx="7" fill="#4943CD"/>
<g clip-path="url(#clip0)">
<path d="M12.75 8.7002H10.0961C9.97884 8.7002 9.86634 8.74761 9.78339 8.832C9.70044 8.91639 9.65384 9.03085 9.65384 9.1502C9.65384 9.26954 9.70044 9.384 9.78339 9.46839C9.86634 9.55279 9.97884 9.6002 10.0961 9.6002H12.75C12.8673 9.6002 12.9798 9.55279 13.0628 9.46839C13.1457 9.384 13.1923 9.26954 13.1923 9.1502C13.1923 9.03085 13.1457 8.91639 13.0628 8.832C12.9798 8.74761 12.8673 8.7002 12.75 8.7002Z" fill="white"/>
<path d="M12.75 11.3999H10.0961C9.97884 11.3999 9.86634 11.4473 9.78339 11.5317C9.70044 11.6161 9.65384 11.7306 9.65384 11.8499C9.65384 11.9692 9.70044 12.0837 9.78339 12.1681C9.86634 12.2525 9.97884 12.2999 10.0961 12.2999H12.75C12.8673 12.2999 12.9798 12.2525 13.0628 12.1681C13.1457 12.0837 13.1923 11.9692 13.1923 11.8499C13.1923 11.7306 13.1457 11.6161 13.0628 11.5317C12.9798 11.4473 12.8673 11.3999 12.75 11.3999Z" fill="white"/>
<path d="M12.75 14.1001H10.0961C9.97884 14.1001 9.86634 14.1475 9.78339 14.2319C9.70044 14.3163 9.65384 14.4308 9.65384 14.5501C9.65384 14.6694 9.70044 14.7839 9.78339 14.8683C9.86634 14.9527 9.97884 15.0001 10.0961 15.0001H12.75C12.8673 15.0001 12.9798 14.9527 13.0628 14.8683C13.1457 14.7839 13.1923 14.6694 13.1923 14.5501C13.1923 14.4308 13.1457 14.3163 13.0628 14.2319C12.9798 14.1475 12.8673 14.1001 12.75 14.1001Z" fill="white"/>
<path d="M21.1538 18.6H20.2692C20.2922 17.962 20.5367 17.353 20.9592 16.881C22.0385 16.062 22.9231 15.108 22.9231 13.65C22.9223 12.6114 22.5302 11.6127 21.8275 10.8593C21.1249 10.106 20.1651 9.65527 19.1458 9.6L15.7135 6.135C15.66 6.0708 15.5893 6.02388 15.51 6H8.32692C7.975 6 7.63749 6.14223 7.38865 6.39541C7.1398 6.64858 7 6.99196 7 7.35V22.65C7 23.008 7.1398 23.3514 7.38865 23.6046C7.63749 23.8578 7.975 24 8.32692 24H18.0577C18.4096 24 18.7471 23.8578 18.996 23.6046C19.2448 23.3514 19.3846 23.008 19.3846 22.65V22.2H22.4808C22.5981 22.2 22.7106 22.1526 22.7935 22.0682C22.8765 21.9838 22.9231 21.8693 22.9231 21.75V20.4C22.9231 19.9226 22.7367 19.4648 22.4049 19.1272C22.0731 18.7896 21.6231 18.6 21.1538 18.6ZM22.0385 13.65C21.9781 14.1676 21.8025 14.6644 21.525 15.1027C21.2476 15.5409 20.8756 15.909 20.4373 16.179C19.7916 16.8169 19.4142 17.6848 19.3846 18.6H18.5C18.4774 17.6886 18.1098 16.8213 17.4738 16.179C17.0306 15.912 16.6535 15.5452 16.3713 15.1068C16.0891 14.6684 15.9095 14.1701 15.8462 13.65C15.8462 12.8146 16.1724 12.0134 16.753 11.4226C17.3336 10.8319 18.1212 10.5 18.9423 10.5C19.7635 10.5 20.551 10.8319 21.1316 11.4226C21.7123 12.0134 22.0385 12.8146 22.0385 13.65ZM17.8719 9.6H15.8462V7.539L17.8719 9.6ZM18.5 22.65C18.5 22.7693 18.4534 22.8838 18.3705 22.9682C18.2875 23.0526 18.175 23.1 18.0577 23.1H8.32692C8.20962 23.1 8.09711 23.0526 8.01416 22.9682C7.93122 22.8838 7.88462 22.7693 7.88462 22.65V7.35C7.88462 7.23065 7.93122 7.11619 8.01416 7.0318C8.09711 6.94741 8.20962 6.9 8.32692 6.9H14.9615V10.05C14.9615 10.1693 15.0081 10.2838 15.0911 10.3682C15.174 10.4526 15.2865 10.5 15.4038 10.5H16.4742C16.0043 10.8744 15.624 11.3525 15.362 11.8981C15.1 12.4437 14.9631 13.0427 14.9615 13.65C14.9615 15.108 15.8904 16.062 16.8988 16.881C17.3253 17.3529 17.5784 17.9601 17.6154 18.6H16.7308C16.2615 18.6 15.8115 18.7896 15.4797 19.1272C15.1479 19.4648 14.9615 19.9226 14.9615 20.4V21.75C14.9615 21.8693 15.0081 21.9838 15.0911 22.0682C15.174 22.1526 15.2865 22.2 15.4038 22.2H18.5V22.65ZM22.0385 21.3H15.8462V20.4C15.8462 20.1613 15.9394 19.9324 16.1053 19.7636C16.2711 19.5948 16.4962 19.5 16.7308 19.5H21.1538C21.3885 19.5 21.6135 19.5948 21.7794 19.7636C21.9453 19.9324 22.0385 20.1613 22.0385 20.4V21.3Z" fill="white"/>
<path d="M11.4231 16.7998C11.0731 16.7998 10.7311 16.9054 10.4401 17.1032C10.1492 17.3009 9.92242 17.5821 9.78851 17.911C9.65461 18.2399 9.61957 18.6018 9.68784 18.951C9.7561 19.3001 9.9246 19.6209 10.172 19.8726C10.4195 20.1243 10.7347 20.2958 11.0779 20.3652C11.4211 20.4347 11.7768 20.399 12.1001 20.2628C12.4234 20.1266 12.6997 19.8958 12.8941 19.5998C13.0885 19.3038 13.1923 18.9558 13.1923 18.5998C13.1923 18.1224 13.0059 17.6646 12.6741 17.327C12.3423 16.9894 11.8923 16.7998 11.4231 16.7998ZM11.4231 19.4998C11.2481 19.4998 11.0771 19.447 10.9316 19.3481C10.7861 19.2492 10.6727 19.1087 10.6058 18.9442C10.5388 18.7798 10.5213 18.5988 10.5555 18.4242C10.5896 18.2496 10.6738 18.0893 10.7976 17.9634C10.9213 17.8375 11.0789 17.7518 11.2505 17.7171C11.4221 17.6824 11.6 17.7002 11.7616 17.7683C11.9232 17.8364 12.0614 17.9518 12.1586 18.0998C12.2558 18.2478 12.3077 18.4218 12.3077 18.5998C12.3077 18.8385 12.2145 19.0674 12.0486 19.2362C11.8827 19.405 11.6577 19.4998 11.4231 19.4998Z" fill="white"/>
</g>
<defs>
<clipPath id="clip0">
<rect width="15.9231" height="18" fill="white" transform="translate(7 6)"/>
</clipPath>
</defs>
</svg>
