<svg width="30" height="30" viewBox="0 0 30 30" fill="none" xmlns="http://www.w3.org/2000/svg">
<rect width="30" height="30" rx="7" fill="#4943CD"/>
<path d="M22.5571 7H7.44291C6.64729 7 6 7.64729 6 8.44289V18.1592C6 18.9548 6.64729 19.6021 7.44291 19.6021H12.4119L12.1732 21.0346H11.7612C10.9656 21.0346 10.3183 21.6819 10.3183 22.4776C10.3183 22.6782 10.481 22.8409 10.6816 22.8409H19.3184C19.519 22.8409 19.6817 22.6782 19.6817 22.4776C19.6817 21.6819 19.0344 21.0346 18.2388 21.0346H17.8268L17.5881 19.6021H22.5571C23.3527 19.6021 24 18.9548 24 18.1592V8.44287C24 7.64727 23.3527 7 22.5571 7ZM18.2388 21.7613C18.5012 21.7613 18.7311 21.9031 18.8559 22.1142H11.1441C11.2689 21.9031 11.4988 21.7613 11.7613 21.7613H18.2388ZM12.9098 21.0346L13.1486 19.602H16.8514L17.0901 21.0346H12.9098ZM23.2734 18.1592C23.2734 18.5541 22.952 18.8754 22.5571 18.8754H7.44291C7.04796 18.8754 6.72664 18.5541 6.72664 18.1592V8.44287C6.72664 8.04791 7.04796 7.72662 7.44291 7.72662H22.5571C22.9521 7.72662 23.2734 8.04794 23.2734 8.44287V18.1592Z" fill="white"/>
<path d="M21.8333 8.2915H8.16661C7.68405 8.2915 7.29147 8.68411 7.29147 9.16665V15.9004C7.29147 16.383 7.68405 16.7756 8.16661 16.7756H21.8333C22.3159 16.7756 22.7085 16.383 22.7085 15.9004V9.16665C22.7085 8.68411 22.3159 8.2915 21.8333 8.2915ZM21.9819 15.9004C21.9819 15.9823 21.9152 16.0489 21.8333 16.0489H8.16661C8.08475 16.0489 8.01811 15.9823 8.01811 15.9004V9.16667C8.01811 9.08478 8.08472 9.01817 8.16661 9.01817H21.8333C21.9152 9.01817 21.9819 9.08478 21.9819 9.16667V15.9004Z" fill="white"/>
</svg>
