<svg width="30" height="32" viewBox="0 0 30 32" fill="none" xmlns="http://www.w3.org/2000/svg">
<rect y="0.263184" width="30" height="31.5789" rx="7" fill="#4943CD"/>
<g clip-path="url(#clip0)">
<path d="M12.7483 12.5895C12.9178 11.3465 12.5788 10.0895 11.8303 9.15726C11.237 8.43691 10.3755 8.01318 9.47149 8.01318H9.45737C8.55341 8.01318 7.70595 8.42279 7.11273 9.12901C5.77091 10.7392 5.62967 12.8578 6.75962 14.6516C7.19747 15.3578 7.90369 15.8381 8.7229 15.9934C8.92064 16.0358 9.11838 16.0499 9.31612 16.0499C9.92347 16.0499 10.5167 15.8663 11.0252 15.4991C11.9574 14.8635 12.5788 13.79 12.7483 12.5895ZM10.2201 14.3691C9.86698 14.6234 9.42912 14.7081 9.00539 14.6234C8.56753 14.5386 8.2003 14.2844 7.96019 13.903C7.16922 12.646 7.25397 11.1629 8.2003 10.033C8.52516 9.63749 8.97714 9.42562 9.45737 9.42562C9.9376 9.42562 10.4037 9.65161 10.7286 10.0612C11.237 10.6968 11.463 11.5443 11.35 12.4059C11.237 13.2109 10.8274 13.9313 10.2201 14.3691Z" fill="white"/>
<path d="M22.8331 16.1064C21.9009 15.0895 20.3048 14.8776 19.1325 15.598C18.1297 16.2053 17.4517 17.2929 17.2681 18.5641C17.0704 19.8918 17.4235 21.1771 18.2427 22.1093C18.8783 22.8438 19.7116 23.211 20.5449 23.211C21.124 23.211 21.7173 23.0274 22.2399 22.6601C23.2144 21.968 23.85 20.8522 23.9772 19.5952C24.1043 18.2957 23.6947 17.0245 22.8331 16.1064ZM22.5647 19.4539C22.48 20.3155 22.0562 21.0641 21.4207 21.5161C20.7286 22.0104 19.8952 21.8692 19.302 21.1912C18.7511 20.5697 18.5252 19.694 18.6664 18.7759C18.7935 17.9144 19.2455 17.194 19.8811 16.7985C20.1212 16.6432 20.4037 16.5725 20.6862 16.5725C21.1099 16.5725 21.5054 16.7562 21.8161 17.081C22.3811 17.6884 22.6636 18.55 22.5647 19.4539Z" fill="white"/>
<path d="M19.7684 8.11196C19.4435 7.90009 19.0057 7.99896 18.7938 8.32382L10.0084 22.1516C9.79658 22.4764 9.89545 22.9143 10.2203 23.1262C10.3333 23.1968 10.4745 23.2392 10.6017 23.2392C10.8277 23.2392 11.0678 23.1262 11.1949 22.9143L19.9802 9.08654C20.1921 8.74755 20.0932 8.3097 19.7684 8.11196Z" fill="white"/>
</g>
<defs>
<clipPath id="clip0">
<rect width="20" height="15" fill="white" transform="translate(5 8)"/>
</clipPath>
</defs>
</svg>
