<svg width="30" height="30" viewBox="0 0 30 30" fill="none" xmlns="http://www.w3.org/2000/svg">
<rect width="30" height="30" rx="7" fill="#4943CD"/>
<path d="M21 6H10.2C9.4662 6 8.8563 6.5304 8.7276 7.2276C8.0304 7.3563 7.5 7.9662 7.5 8.7V22.5C7.5 23.3271 8.1729 24 9 24H19.8C20.5338 24 21.1437 23.4696 21.2724 22.7724C21.9696 22.6437 22.5 22.0338 22.5 21.3V7.5C22.5 6.6729 21.8271 6 21 6ZM20.7 22.5C20.7 22.9962 20.2962 23.4 19.8 23.4H9C8.5038 23.4 8.1 22.9962 8.1 22.5V8.7C8.1 8.2038 8.5038 7.8 9 7.8H18V10.2C18 10.3659 18.1344 10.5 18.3 10.5H20.7V22.5ZM18.6 9.9V8.2242L20.2758 9.9H18.6ZM21.9 21.3C21.9 21.6906 21.6483 22.0206 21.3 22.1448V10.2C21.3 10.1169 21.2664 10.0419 21.2118 9.9876L18.5124 7.2882C18.4581 7.2336 18.3831 7.2 18.3 7.2H9.3552C9.4794 6.8517 9.8094 6.6 10.2 6.6H21C21.4962 6.6 21.9 7.0038 21.9 7.5V21.3Z" fill="white"/>
<path d="M14.3992 10.5C12.0832 10.5 10.1992 12.384 10.1992 14.7C10.1992 17.016 12.0832 18.9 14.3992 18.9C16.7152 18.9 18.5992 17.016 18.5992 14.7C18.5992 12.384 16.7152 10.5 14.3992 10.5ZM14.3992 18.3C12.4141 18.3 10.7992 16.6851 10.7992 14.7C10.7992 12.7149 12.4141 11.1 14.3992 11.1C16.3843 11.1 17.9992 12.7149 17.9992 14.7C17.9992 16.6851 16.3843 18.3 14.3992 18.3Z" fill="white"/>
<path d="M15.3512 12.7337L12.9512 16.334L13.4505 16.6668L15.8505 13.0665L15.3512 12.7337Z" fill="white"/>
<path d="M15.9 14.7002C15.4038 14.7002 15 15.104 15 15.6002C15 16.0964 15.4038 16.5002 15.9 16.5002C16.3962 16.5002 16.8 16.0964 16.8 15.6002C16.8 15.104 16.3962 14.7002 15.9 14.7002ZM15.9 15.9002C15.7347 15.9002 15.6 15.7658 15.6 15.6002C15.6 15.4346 15.7347 15.3002 15.9 15.3002C16.0653 15.3002 16.2 15.4346 16.2 15.6002C16.2 15.7658 16.0653 15.9002 15.9 15.9002Z" fill="white"/>
<path d="M12.9 12.9004C12.4038 12.9004 12 13.3042 12 13.8004C12 14.2966 12.4038 14.7004 12.9 14.7004C13.3962 14.7004 13.8 14.2966 13.8 13.8004C13.8 13.3042 13.3962 12.9004 12.9 12.9004ZM12.9 14.1004C12.7347 14.1004 12.6 13.966 12.6 13.8004C12.6 13.6348 12.7347 13.5004 12.9 13.5004C13.0653 13.5004 13.2 13.6348 13.2 13.8004C13.2 13.966 13.0653 14.1004 12.9 14.1004Z" fill="white"/>
</svg>
