<svg width="30" height="30" viewBox="0 0 30 30" fill="none" xmlns="http://www.w3.org/2000/svg">
<rect width="30" height="30" rx="7" fill="#4943CD"/>
<path d="M23.2547 17.4891C22.9312 17.0883 22.3969 16.9547 21.9258 17.1516L17.6156 18.9586C17.4398 19.0359 17.3555 19.2328 17.4328 19.4086C17.5101 19.5844 17.707 19.6687 17.8828 19.5914L22.193 17.7844C22.3758 17.707 22.5867 17.7633 22.7203 17.918C22.7976 18.0164 22.8328 18.143 22.8117 18.2695C22.7906 18.3961 22.7203 18.5086 22.6148 18.5789C20.7375 19.8023 16.4695 22.2211 16.2586 22.3406C16.2515 22.3477 16.2445 22.3477 16.2305 22.3547C15.7101 22.6641 15.1265 22.7484 14.3953 22.6148C14.3461 22.6078 13.3687 22.4883 11.0414 22.2L9.78983 22.0453V17.3344C9.98671 17.3203 10.1555 17.3133 10.2328 17.3133H10.275C11.8992 17.2078 13.4531 17.5242 15.0984 17.8547C15.3094 17.8969 15.5203 17.9391 15.7312 17.9812C15.9562 18.0234 16.118 18.2273 16.118 18.4523C16.118 18.4664 16.118 18.4805 16.1109 18.5086C16.0969 18.6422 16.0265 18.7336 15.9773 18.7898C15.8859 18.8812 15.7664 18.9305 15.6398 18.9305H12.3422C12.1523 18.9305 11.9976 19.0852 11.9976 19.275C11.9976 19.4648 12.1523 19.6195 12.3422 19.6195H15.6328C15.9422 19.6195 16.2445 19.493 16.4625 19.275C16.6523 19.0852 16.7648 18.8461 16.793 18.6C16.8 18.5508 16.807 18.4945 16.807 18.4453C16.807 17.8828 16.4062 17.3977 15.8578 17.2922C15.6469 17.25 15.4359 17.2078 15.232 17.1656C13.6148 16.8422 11.9484 16.4977 10.2328 16.6102H10.1976C10.1203 16.6172 9.95155 16.6242 9.76874 16.6312C9.72655 16.4836 9.59999 16.3711 9.43827 16.3711H6.84374C6.65389 16.3711 6.49921 16.5258 6.49921 16.7156V22.5867C6.49921 22.7766 6.65389 22.9312 6.84374 22.9312H9.43827C9.57889 22.9312 9.69842 22.8469 9.74764 22.7273L10.95 22.875C12.3211 23.0437 14.1914 23.2687 14.2687 23.2828C14.5289 23.332 14.775 23.3531 15.014 23.3531C15.5906 23.3531 16.1039 23.2195 16.568 22.9383C16.575 22.9383 16.575 22.9312 16.582 22.9312C16.6242 22.9031 21.0469 20.407 22.9805 19.1414C23.2547 18.9656 23.4375 18.6844 23.4867 18.3609C23.543 18.0656 23.4515 17.7352 23.2547 17.4891ZM9.09374 22.2492H7.18827V17.0742H9.09374V22.2492Z" fill="white"/>
<path d="M14.0578 10.085H11.3086V15.3092H14.0578V10.085ZM13.3687 14.6201H11.9977V10.7811H13.3617V14.6201H13.3687Z" fill="white"/>
<path d="M21.9609 9.00244H19.2117V15.3165H21.9609V9.00244ZM21.2719 14.6204H19.9078V9.6915H21.2719V14.6204Z" fill="white"/>
<path d="M18.0094 6.63281H15.2601V15.3094H18.0094V6.63281ZM17.3203 14.6203H15.9562V7.32891H17.3203V14.6203Z" fill="white"/>
</svg>
