<svg width="30" height="32" viewBox="0 0 30 32" fill="none" xmlns="http://www.w3.org/2000/svg">
<rect y="0.263184" width="30" height="31.5789" rx="7" fill="#4943CD"/>
<g opacity="0.9" clip-path="url(#clip0)">
<path d="M22.4644 20.9696C21.9571 20.9699 21.4622 21.1267 21.0473 21.4187L19.5304 19.8619C20.4475 18.7801 20.9508 17.4079 20.9508 15.9897C20.9508 14.5715 20.4475 13.1993 19.5304 12.1176L21.0772 10.5807C21.5392 10.8897 22.091 11.0356 22.6453 10.9953C23.1996 10.955 23.7246 10.7308 24.137 10.3582C24.5493 9.98563 24.8255 9.48604 24.9217 8.93867C25.0178 8.3913 24.9285 7.8275 24.6678 7.33667C24.4072 6.84585 23.9901 6.45611 23.4827 6.22928C22.9754 6.00244 22.4068 5.95149 21.8672 6.08452C21.3276 6.21754 20.8479 6.52692 20.5041 6.96358C20.1603 7.40024 19.9721 7.93918 19.9695 8.49493C19.9724 8.98808 20.1179 9.46986 20.3886 9.88211L18.8418 11.409C17.7614 10.4972 16.3933 9.99697 14.9796 9.99697C13.5659 9.99697 12.1978 10.4972 11.1174 11.409L9.5606 9.89209C9.91203 9.37719 10.0597 8.75012 9.97496 8.13251C9.89021 7.5149 9.57911 6.95077 9.10198 6.54956C8.62486 6.14834 8.01572 5.93863 7.39273 5.96111C6.76974 5.98359 6.1773 6.23665 5.73033 6.6712C5.28335 7.10576 5.01371 7.69084 4.9737 8.31295C4.93368 8.93506 5.12615 9.54986 5.51377 10.0381C5.90139 10.5263 6.45653 10.8532 7.07151 10.9553C7.68649 11.0574 8.31747 10.9275 8.84206 10.5907L10.4089 12.1176C9.49178 13.1993 8.9884 14.5715 8.9884 15.9897C8.9884 17.4079 9.49178 18.7801 10.4089 19.8619L8.9219 21.4287C8.50631 21.1294 8.00694 20.9687 7.4948 20.9696C7.00135 20.9696 6.51898 21.1159 6.10869 21.3901C5.6984 21.6642 5.37861 22.0539 5.18978 22.5098C5.00094 22.9657 4.95153 23.4673 5.0478 23.9513C5.14407 24.4352 5.38169 24.8798 5.73061 25.2287C6.07953 25.5776 6.52409 25.8153 7.00806 25.9115C7.49203 26.0078 7.99368 25.9584 8.44957 25.7696C8.90546 25.5807 9.29511 25.2609 9.56926 24.8506C9.84341 24.4404 9.98973 23.958 9.98973 23.4645C9.98962 23.0016 9.85812 22.5483 9.6105 22.1572L11.1374 20.5604C11.3394 20.7311 11.5528 20.8878 11.7761 21.0295C12.7275 21.6351 13.8319 21.9569 14.9596 21.9569C16.0874 21.9569 17.1918 21.6351 18.1432 21.0295C18.3665 20.8878 18.5799 20.7311 18.7819 20.5604L20.3188 22.1472C20.0803 22.5446 19.9592 23.0013 19.9695 23.4645C19.9695 23.958 20.1158 24.4404 20.3899 24.8506C20.6641 25.2609 21.0537 25.5807 21.5096 25.7696C21.9655 25.9584 22.4672 26.0078 22.9511 25.9115C23.4351 25.8153 23.8797 25.5776 24.2286 25.2287C24.5775 24.8798 24.8151 24.4352 24.9114 23.9513C25.0077 23.4673 24.9583 22.9657 24.7694 22.5098C24.5806 22.0539 24.2608 21.6642 23.8505 21.3901C23.4402 21.1159 22.9579 20.9696 22.4644 20.9696ZM22.4644 6.99797C22.711 6.99132 22.9554 7.04572 23.1759 7.15633C23.3964 7.26693 23.5862 7.43032 23.7283 7.63195C23.8704 7.83358 23.9605 8.0672 23.9905 8.31205C24.0206 8.5569 23.9897 8.80537 23.9005 9.03539C23.8114 9.2654 23.6667 9.46981 23.4795 9.63045C23.2923 9.79109 23.0683 9.90297 22.8274 9.95615C22.5865 10.0093 22.3363 10.0022 22.0988 9.93526C21.8614 9.86837 21.6441 9.74384 21.4664 9.57274C21.1981 9.30826 21.0411 8.95125 21.0273 8.57476C21.0166 8.37651 21.0454 8.1781 21.1121 7.99109C21.1787 7.80408 21.282 7.6322 21.4157 7.48546C21.5494 7.33871 21.711 7.22004 21.8911 7.13635C22.0711 7.05266 22.266 7.00562 22.4644 6.99797ZM5.99784 8.49493C5.99784 8.09791 6.15555 7.71715 6.43629 7.43642C6.71702 7.15568 7.09778 6.99797 7.4948 6.99797C7.89182 6.99797 8.27257 7.15568 8.55331 7.43642C8.83404 7.71715 8.99176 8.09791 8.99176 8.49493C8.99273 8.694 8.95344 8.89121 8.87627 9.07471C8.7991 9.25821 8.68562 9.42422 8.54267 9.56276C8.26245 9.83658 7.88659 9.9905 7.4948 9.99189C7.09778 9.99189 6.71702 9.83417 6.43629 9.55344C6.15555 9.2727 5.99784 8.89195 5.99784 8.49493ZM14.9796 10.9899C15.9714 10.9939 16.9395 11.2933 17.7603 11.85C18.5811 12.4067 19.2174 13.1954 19.588 14.1154C19.9585 15.0353 20.0465 16.0448 19.8407 17.0151C19.635 17.9853 19.1447 18.8721 18.4326 19.5625C18.346 18.7829 17.9936 18.0569 17.4346 17.5066C17.1785 17.2546 16.8858 17.0426 16.5664 16.8779C16.848 16.6488 17.0748 16.3596 17.2302 16.0315C17.3856 15.7035 17.4657 15.3448 17.4646 14.9818C17.4664 14.5614 17.362 14.1474 17.1611 13.7782C16.9601 13.409 16.6691 13.0965 16.3152 12.8698C15.9612 12.6431 15.5556 12.5096 15.1362 12.4815C14.7168 12.4534 14.2971 12.5318 13.9161 12.7093C13.5351 12.8868 13.205 13.1577 12.9567 13.4968C12.7084 13.836 12.5497 14.2324 12.4955 14.6492C12.4413 15.0661 12.4933 15.4898 12.6467 15.8812C12.8001 16.2726 13.0499 16.6189 13.3729 16.8879C12.8685 17.1496 12.4363 17.5313 12.1143 17.9995C11.7923 18.4676 11.5905 19.0078 11.5266 19.5724C10.811 18.8827 10.3177 17.995 10.1099 17.0231C9.90206 16.0512 9.98922 15.0393 10.3602 14.1173C10.7312 13.1952 11.369 12.4049 12.192 11.8477C13.0151 11.2905 13.9857 10.9918 14.9796 10.9899ZM13.4826 14.9818C13.4826 14.6857 13.5704 14.3963 13.7349 14.1501C13.8994 13.9039 14.1332 13.712 14.4067 13.5987C14.6803 13.4854 14.9813 13.4558 15.2716 13.5136C15.562 13.5713 15.8288 13.7139 16.0381 13.9232C16.2475 14.1326 16.39 14.3993 16.4478 14.6897C16.5056 14.9801 16.4759 15.2811 16.3626 15.5546C16.2493 15.8282 16.0574 16.0619 15.8113 16.2264C15.5651 16.3909 15.2757 16.4787 14.9796 16.4787C14.5826 16.4787 14.2018 16.321 13.9211 16.0403C13.6404 15.7595 13.4826 15.3788 13.4826 14.9818ZM7.4948 24.9615C7.09778 24.9615 6.71702 24.8038 6.43629 24.523C6.15555 24.2423 5.99784 23.8616 5.99784 23.4645C5.99784 23.0675 6.15555 22.6868 6.43629 22.406C6.71702 22.1253 7.09778 21.9676 7.4948 21.9676C7.69717 21.9666 7.89753 22.0078 8.0831 22.0886C8.26867 22.1693 8.43538 22.2879 8.57261 22.4366C8.82337 22.7077 8.95931 23.0654 8.95184 23.4346C8.95989 23.83 8.81118 24.2124 8.53818 24.4985C8.26519 24.7846 7.89009 24.951 7.4948 24.9615ZM12.4847 20.271V19.9716C12.4847 19.3099 12.7475 18.6753 13.2154 18.2074C13.6833 17.7396 14.3179 17.4767 14.9796 17.4767C15.6413 17.4767 16.2759 17.7396 16.7438 18.2074C17.2117 18.6753 17.4745 19.3099 17.4745 19.9716V20.271C16.7227 20.7284 15.8596 20.9703 14.9796 20.9703C14.0996 20.9703 13.2365 20.7284 12.4847 20.271ZM22.4644 24.9615C22.1753 24.9645 21.8916 24.8832 21.648 24.7274C21.4044 24.5717 21.2114 24.3483 21.0928 24.0846C20.9742 23.8209 20.9351 23.5283 20.9802 23.2427C21.0252 22.9571 21.1526 22.6909 21.3467 22.4765V22.4266C21.4901 22.2757 21.6638 22.1567 21.8564 22.0776C22.0491 21.9985 22.2563 21.961 22.4644 21.9676C22.8614 21.9676 23.2422 22.1253 23.5229 22.406C23.8037 22.6868 23.9614 23.0675 23.9614 23.4645C23.9614 23.8616 23.8037 24.2423 23.5229 24.523C23.2422 24.8038 22.8614 24.9615 22.4644 24.9615Z" fill="white"/>
<path d="M14.9796 17.4973C15.4772 17.4973 15.9635 17.3497 16.3772 17.0733C16.791 16.7969 17.1134 16.404 17.3038 15.9443C17.4942 15.4846 17.544 14.9788 17.447 14.4908C17.3499 14.0027 17.1103 13.5545 16.7585 13.2027C16.4066 12.8508 15.9584 12.6112 15.4704 12.5142C14.9824 12.4171 14.4766 12.4669 14.0169 12.6573C13.5572 12.8477 13.1643 13.1702 12.8878 13.5839C12.6114 13.9976 12.4639 14.484 12.4639 14.9815C12.4639 15.6488 12.7289 16.2886 13.2007 16.7604C13.6725 17.2322 14.3124 17.4973 14.9796 17.4973ZM14.9796 13.7237C15.2284 13.7237 15.4716 13.7975 15.6784 13.9357C15.8853 14.0739 16.0465 14.2703 16.1417 14.5002C16.2369 14.73 16.2618 14.9829 16.2133 15.2269C16.1647 15.4709 16.0449 15.6951 15.869 15.871C15.6931 16.0469 15.469 16.1667 15.225 16.2152C14.981 16.2638 14.7281 16.2389 14.4982 16.1437C14.2684 16.0485 14.0719 15.8872 13.9337 15.6804C13.7955 15.4735 13.7217 15.2303 13.7217 14.9815C13.7217 14.6479 13.8543 14.328 14.0901 14.0921C14.326 13.8562 14.646 13.7237 14.9796 13.7237Z" fill="white"/>
</g>
<defs>
<clipPath id="clip0">
<rect width="19.9908" height="20" fill="white" transform="translate(4.96851 5.95947)"/>
</clipPath>
</defs>
</svg>
