<svg width="30" height="30" viewBox="0 0 30 30" fill="none" xmlns="http://www.w3.org/2000/svg">
<rect width="30" height="30" rx="7" fill="#4943CD"/>
<g clip-path="url(#clip0)">
<path d="M20.8422 13.2056H19.9426C19.8233 13.2056 19.7089 13.253 19.6246 13.3373C19.5402 13.4216 19.4929 13.536 19.4929 13.6553C19.4929 13.7746 19.5402 13.889 19.6246 13.9734C19.7089 14.0577 19.8233 14.1051 19.9426 14.1051H20.8422C20.9614 14.1051 21.0758 14.0577 21.1602 13.9734C21.2445 13.889 21.2919 13.7746 21.2919 13.6553C21.2919 13.536 21.2445 13.4216 21.1602 13.3373C21.0758 13.253 20.9614 13.2056 20.8422 13.2056Z" fill="white"/>
<path d="M22.6413 7.80862H21.0311L19.358 6.14449C19.3252 6.08564 19.2749 6.03847 19.2141 6.00956C19.1578 5.99681 19.0994 5.99681 19.0432 6.00956H10.9474C10.8912 5.99681 10.8328 5.99681 10.7765 6.00956C10.7204 6.02874 10.6706 6.06296 10.6326 6.10851L8.95945 7.80862H7.34929C6.99144 7.80862 6.64824 7.95077 6.3952 8.20381C6.14216 8.45686 6 8.80005 6 9.15791V20.8518C6 21.2096 6.14216 21.5528 6.3952 21.8059C6.64824 22.0589 6.99144 22.2011 7.34929 22.2011H13.1962L14.6355 23.8472C14.6785 23.8953 14.7312 23.9337 14.7901 23.9601C14.849 23.9864 14.9128 24 14.9773 24C15.0418 24 15.1056 23.9864 15.1645 23.9601C15.2234 23.9337 15.2761 23.8953 15.3191 23.8472L16.7943 22.2011H22.6413C22.9991 22.2011 23.3423 22.0589 23.5954 21.8059C23.8484 21.5528 23.9906 21.2096 23.9906 20.8518V9.15791C23.9906 8.80005 23.8484 8.45686 23.5954 8.20381C23.3423 7.95077 22.9991 7.80862 22.6413 7.80862ZM15.2562 11.4067H14.7344L13.3851 10.0574L13.8349 9.60767H16.1557L16.6054 10.0574L15.2562 11.4067ZM16.1557 8.70814H13.8349L12.0358 6.90909H17.9547L16.1557 8.70814ZM16.9832 9.15791L19.0432 7.09799L20.2036 8.25838L18.1436 10.3183L16.9832 9.15791ZM10.9474 7.09799L13.0073 9.15791L11.8469 10.3183L9.78702 8.25838L10.9474 7.09799ZM7.34929 21.3015C7.23001 21.3015 7.11561 21.2542 7.03126 21.1698C6.94691 21.0855 6.89953 20.9711 6.89953 20.8518V9.15791C6.89953 9.03862 6.94691 8.92422 7.03126 8.83988C7.11561 8.75553 7.23001 8.70814 7.34929 8.70814H8.95945L11.5321 11.2718C11.5725 11.3148 11.6213 11.3491 11.6754 11.3726C11.7296 11.396 11.7879 11.4081 11.8469 11.4081C11.9059 11.4081 11.9643 11.396 12.0185 11.3726C12.0726 11.3491 12.1214 11.3148 12.1618 11.2718L12.7465 10.6961L14.0328 11.9824L11.3972 19.8083C11.3718 19.8826 11.366 19.9621 11.3802 20.0393C11.3943 20.1164 11.4281 20.1887 11.4781 20.2491L12.3777 21.3015H7.34929ZM14.9953 22.8667L12.3507 19.8533L14.8694 12.3063H15.1212L17.6399 19.8533L14.9953 22.8667ZM23.091 20.8518C23.091 20.9711 23.0437 21.0855 22.9593 21.1698C22.875 21.2542 22.7606 21.3015 22.6413 21.3015H17.5589L18.4585 20.2491C18.5085 20.1887 18.5423 20.1164 18.5564 20.0393C18.5706 19.9621 18.5648 19.8826 18.5394 19.8083L15.9308 11.9824L17.2441 10.6961L17.8288 11.2718C17.8692 11.3148 17.918 11.3491 17.9721 11.3726C18.0263 11.396 18.0846 11.4081 18.1436 11.4081C18.2026 11.4081 18.261 11.396 18.3152 11.3726C18.3693 11.3491 18.4181 11.3148 18.4585 11.2718L21.0311 8.70814H22.6413C22.7606 8.70814 22.875 8.75553 22.9593 8.83988C23.0437 8.92422 23.091 9.03862 23.091 9.15791V20.8518Z" fill="white"/>
</g>
<defs>
<clipPath id="clip0">
<rect width="17.9906" height="18" fill="white" transform="translate(6 6)"/>
</clipPath>
</defs>
</svg>
