<svg width="30" height="32" viewBox="0 0 30 32" fill="none" xmlns="http://www.w3.org/2000/svg">
<rect y="0.263184" width="30" height="31.5789" rx="7" fill="#4943CD"/>
<path d="M20.2885 16.2329C19.588 16.2329 18.9064 16.382 18.2721 16.6705C16.516 17.4735 15.3848 19.2574 15.3848 21.2145C15.3848 21.2674 15.3848 21.3251 15.3895 21.378C15.4321 22.6763 15.9575 23.888 16.8758 24.792C17.794 25.7008 19.0105 26.1961 20.2885 26.1961C22.9913 26.1961 25.1923 23.9601 25.1923 21.2145C25.1923 18.4689 22.996 16.2329 20.2885 16.2329ZM20.2885 25.5229C17.9834 25.5229 16.1232 23.6909 16.0474 21.3539C16.0474 21.3059 16.0474 21.2626 16.0474 21.2145C16.0474 19.5219 17.0272 17.9832 18.5466 17.286C19.0957 17.0359 19.6827 16.9061 20.2885 16.9061C22.6268 16.9061 24.5296 18.8391 24.5296 21.2145C24.5296 23.5899 22.6268 25.5229 20.2885 25.5229Z" fill="white"/>
<path d="M9.90376 16.2718C11.1865 16.2718 12.3982 15.7717 13.3165 14.8677C14.2348 13.9637 14.7602 12.752 14.8028 11.4537C14.8028 11.4008 14.8075 11.3431 14.8075 11.2902C14.8075 9.33313 13.6715 7.55399 11.9202 6.74617C11.2859 6.45285 10.6043 6.30859 9.90376 6.30859C7.20101 6.30859 5 8.54454 5 11.2902C5 14.0358 7.19628 16.2718 9.90376 16.2718ZM9.90376 6.98178C10.5096 6.98178 11.0966 7.11161 11.6456 7.36165C13.165 8.05888 14.1448 9.60241 14.1448 11.2902C14.1448 11.3383 14.1448 11.3815 14.1448 11.4296C14.0691 13.7666 12.2089 15.5986 9.90376 15.5986C7.56548 15.5986 5.66267 13.6656 5.66267 11.2902C5.66267 8.91479 7.56548 6.98178 9.90376 6.98178Z" fill="white"/>
<path d="M19.6734 7.36626V6.43341C19.6734 6.30358 19.6024 6.18818 19.4888 6.13048C19.3752 6.07278 19.2427 6.0872 19.1433 6.16414L15.5175 8.97229C15.4371 9.0348 15.385 9.13578 15.385 9.24157C15.385 9.34735 15.4323 9.44353 15.5175 9.51084L19.1433 12.319C19.2427 12.3959 19.38 12.4104 19.4888 12.3527C19.6024 12.295 19.6734 12.1796 19.6734 12.0497V11.2611C21.2875 11.5977 22.7028 12.6604 23.4932 14.1462C23.8104 14.7425 24.0186 15.382 24.1086 16.0552C24.1322 16.2235 24.2695 16.3437 24.4352 16.3437H24.8612C25.0458 16.3437 25.1925 16.1946 25.1925 16.0071V13.699C25.1925 12.1122 24.6151 10.5879 23.5642 9.41467C22.5466 8.27025 21.1692 7.54898 19.6734 7.36626ZM24.5299 14.906C24.4115 14.5309 24.2601 14.1703 24.0754 13.8241C23.143 12.069 21.4342 10.8428 19.503 10.5447C19.4652 10.5399 19.4273 10.5351 19.3847 10.5254C19.3705 10.5254 19.3563 10.5206 19.3374 10.5206C19.2569 10.5206 19.1812 10.5495 19.1196 10.6024C19.0486 10.6649 19.006 10.7611 19.006 10.8572V11.3621L16.2559 9.23676L19.006 7.11141V7.66919C19.006 7.84711 19.1386 7.99136 19.3137 8.00579C19.3752 8.0106 19.4368 8.0154 19.4936 8.02021C22.362 8.32315 24.5251 10.7611 24.5251 13.6942V14.906H24.5299Z" fill="white"/>
<path d="M14.675 22.9989L11.0492 20.1907C10.9498 20.1138 10.8126 20.0994 10.7037 20.1571C10.5901 20.2148 10.5191 20.3302 10.5191 20.46V21.2486C8.90502 20.912 7.48974 19.8493 6.69927 18.3635C6.38214 17.7672 6.17387 17.1277 6.08394 16.4545C6.06027 16.2862 5.923 16.166 5.75734 16.166H5.33133C5.14673 16.166 5 16.3151 5 16.5026V18.8107C5 20.3975 5.57747 21.9218 6.62827 23.095C7.64595 24.2347 9.02809 24.9607 10.5191 25.1435V26.0763C10.5191 26.2061 10.5901 26.3215 10.7037 26.3792C10.751 26.4033 10.7984 26.4129 10.8504 26.4129C10.9214 26.4129 10.9924 26.3889 11.0492 26.3456L14.675 23.5374C14.7554 23.4749 14.8075 23.3739 14.8075 23.2682C14.8075 23.1624 14.7602 23.0614 14.675 22.9989ZM11.1818 25.3935V24.8357C11.1818 24.6578 11.0492 24.5135 10.8741 24.4991C10.8126 24.4943 10.751 24.4895 10.6942 24.4847C7.82581 24.1818 5.66267 21.7439 5.66267 18.8107V17.5989C5.781 17.974 5.93247 18.3346 6.11707 18.6809C7.04954 20.436 8.75828 21.6621 10.6895 21.9602C10.7274 21.9651 10.7652 21.9699 10.8078 21.9795C10.9025 21.9939 10.9972 21.9651 11.0729 21.8977C11.1439 21.8352 11.1865 21.7391 11.1865 21.6429V21.138L13.9366 23.2633L11.1818 25.3935Z" fill="white"/>
</svg>
