<svg width="41" height="45" viewBox="0 0 41 45" fill="none" xmlns="http://www.w3.org/2000/svg">
<path d="M26.3046 31.2742C26.5231 29.6723 26.0862 28.0521 25.1214 26.8507C24.3568 25.9223 23.2464 25.3762 22.0813 25.3762H22.0631C20.8981 25.3762 19.8059 25.9041 19.0413 26.8143C17.3119 28.8895 17.1299 31.6201 18.5862 33.932C19.1505 34.8422 20.0607 35.4611 21.1165 35.6614C21.3714 35.716 21.6262 35.7342 21.8811 35.7342C22.6639 35.7342 23.4284 35.4975 24.0838 35.0242C25.2852 34.2051 26.0862 32.8216 26.3046 31.2742ZM23.0461 33.5679C22.591 33.8956 22.0267 34.0048 21.4806 33.8956C20.9163 33.7864 20.443 33.4587 20.1335 32.9672C19.1141 31.347 19.2233 29.4356 20.443 27.9793C20.8617 27.4696 21.4442 27.1966 22.0631 27.1966C22.6821 27.1966 23.2828 27.4878 23.7015 28.0157C24.3568 28.8349 24.6481 29.9271 24.5025 31.0376C24.3568 32.0752 23.8289 33.0036 23.0461 33.5679Z" fill="white"/>
<path d="M39.3022 35.8071C38.1007 34.4964 36.0437 34.2233 34.5328 35.1517C33.2403 35.9345 32.3665 37.3362 32.1299 38.9745C31.875 40.6857 32.3301 42.3422 33.3859 43.5437C34.2051 44.4903 35.2791 44.9636 36.3532 44.9636C37.0995 44.9636 37.8641 44.727 38.5376 44.2537C39.7937 43.3617 40.6129 41.9236 40.7767 40.3034C40.9405 38.6287 40.4126 36.9903 39.3022 35.8071ZM38.9563 40.1214C38.8471 41.2318 38.301 42.1966 37.4818 42.7791C36.5898 43.4163 35.5158 43.2342 34.7512 42.3605C34.0413 41.5595 33.75 40.4308 33.932 39.2476C34.0959 38.1372 34.6784 37.2088 35.4976 36.699C35.807 36.4988 36.1711 36.4078 36.5352 36.4078C37.0813 36.4078 37.591 36.6444 37.9915 37.0631C38.7197 37.8459 39.0837 38.9563 38.9563 40.1214Z" fill="white"/>
<path d="M35.352 25.5036C34.9333 25.2306 34.3689 25.358 34.0959 25.7767L22.7731 43.5983C22.5 44.017 22.6274 44.5813 23.0461 44.8544C23.1918 44.9454 23.3738 45 23.5376 45C23.8289 45 24.1384 44.8544 24.3022 44.5813L35.625 26.7597C35.8981 26.3228 35.7706 25.7585 35.352 25.5036Z" fill="white"/>
<path d="M8.9017 10.6129C11.8325 10.6129 14.199 8.22815 14.199 5.31553C14.199 2.40291 11.8325 0 8.9017 0C5.97088 0 3.60437 2.38471 3.60437 5.29733C3.60437 8.20995 5.97088 10.6129 8.9017 10.6129ZM8.9017 1.82039C10.8313 1.82039 12.3968 3.38592 12.3968 5.31553C12.3968 7.24514 10.8313 8.81068 8.9017 8.81068C6.97209 8.81068 5.40656 7.24514 5.40656 5.31553C5.40656 3.38592 6.99029 1.82039 8.9017 1.82039Z" fill="white"/>
<path d="M15.3095 17.8398C14.818 17.8034 14.3811 18.1857 14.3447 18.6772L13.5255 30.6007C13.5255 30.6371 13.5073 30.6735 13.5073 30.6917L12.7427 42.2694C12.7063 42.7791 12.2876 43.1614 11.7961 43.1614H6.02548C5.51577 43.1614 5.09709 42.7609 5.06068 42.2694L4.31432 30.6917C4.29612 30.3095 4.04126 30 3.67718 29.8908C2.58495 29.5631 2.58495 29.5631 2.49393 28.3434L1.80218 16.0558V15.9466C3.13107 15.5461 4.45995 15.1274 5.80704 14.6905C6.38956 15.3823 6.99029 16.074 7.62743 16.784L8.22815 17.4575C8.39199 17.6578 8.64684 17.767 8.9017 17.767C9.15655 17.767 9.4114 17.6578 9.57524 17.4575L10.3034 16.6383C10.8859 15.983 11.432 15.3459 11.9782 14.7087C11.9964 14.7087 12.0146 14.7087 12.051 14.7087L20.9709 16.7294C21.0983 16.7658 21.2257 16.7658 21.3531 16.7294L29.3811 15.091C29.8726 14.9818 30.182 14.5085 30.091 14.017C29.9818 13.5255 29.5085 13.1978 29.017 13.307L21.1893 14.909L12.3786 12.8883C12.3422 12.8883 12.3058 12.8701 12.2512 12.8701C12.0874 12.8519 11.1954 12.8155 10.6857 13.4163C10.1214 14.0898 9.55704 14.7269 8.95631 15.4187L8.9199 15.4733C8.30097 14.7815 7.71844 14.108 7.13592 13.4345C6.66262 12.8701 6.04369 12.6881 5.37014 12.9247C4.00485 13.3616 2.63956 13.7985 1.27427 14.2172C0.455097 14.4721 0 15.091 0 15.9284C0 16.0012 0 16.1468 0 16.1468L0.673544 28.2706L0.691747 28.4709C0.819174 30.3095 1.12864 30.892 2.54854 31.4199L3.2767 42.3968C3.36772 43.8531 4.58738 45 6.04369 45H11.8143C13.2706 45 14.4903 43.8531 14.5813 42.3968L15.3277 30.892C15.3277 30.8556 15.3277 30.8374 15.3459 30.801L16.165 18.7864C16.1832 18.2949 15.801 17.858 15.3095 17.8398Z" fill="white"/>
</svg>
