<svg width="45" height="45" viewBox="0 0 45 45" fill="none" xmlns="http://www.w3.org/2000/svg">
<path d="M39.441 7.70098C39.4048 7.65557 39.365 7.61322 39.3219 7.57436C37.2141 5.19277 34.6245 3.286 31.7246 1.98024C28.8246 0.674482 25.6804 -0.000489619 22.5 2.66473e-07C10.0931 2.66473e-07 0 10.0992 0 22.5C0 34.9009 10.0992 45 22.5 45C34.9009 45 45 34.9009 45 22.5C45.0046 17.0753 43.0412 11.8331 39.4741 7.7462L39.441 7.70098ZM42.8762 20.5962H24.764L38.4929 9.74342C40.9845 12.8541 42.5086 16.6276 42.8762 20.5962ZM37.1483 8.2195L22.8573 19.514V2.03942C28.249 2.13057 33.3854 4.35248 37.1438 8.2195H37.1483ZM22.5 42.9651C11.2161 42.9651 2.0349 33.7854 2.0349 22.5C2.0349 11.7828 10.3177 2.96342 20.8178 2.10424V21.6137C20.8178 21.6257 20.8178 21.6363 20.8178 21.6484C20.8178 21.6604 20.8178 21.686 20.8178 21.7056C20.8178 21.7252 20.8178 21.7358 20.8178 21.7509C20.8178 21.7659 20.8178 21.787 20.8254 21.8036C20.8329 21.8202 20.8329 21.8353 20.8359 21.8518L20.8495 21.9001C20.8495 21.9167 20.86 21.9332 20.8646 21.9483L20.8811 21.9935L20.9037 22.0433C20.9037 22.0568 20.9158 22.0704 20.9233 22.084C20.9309 22.0975 20.9414 22.1171 20.952 22.1337L20.9731 22.1699L21.0108 22.2227L21.0273 22.2453C21.05 22.2739 21.0756 22.301 21.1012 22.3282L21.1118 22.3372C21.1344 22.3583 21.157 22.3794 21.1811 22.399L21.2173 22.4261L21.267 22.4623L21.3092 22.4864C21.3263 22.4969 21.3439 22.5064 21.362 22.5151L21.4027 22.5347C21.4227 22.5445 21.4434 22.553 21.4645 22.5603L21.5006 22.5739L21.5745 22.595L21.6047 22.6025C21.633 22.6086 21.6617 22.6131 21.6906 22.6161H21.7117C21.7478 22.6183 21.7841 22.6183 21.8202 22.6161H42.9636C42.8928 33.8563 33.7417 42.9651 22.5 42.9651Z" fill="white"/>
<path d="M22.4593 26.1282C22.3895 25.9292 22.2597 25.7567 22.0877 25.6348C21.9156 25.5128 21.71 25.4473 21.4991 25.4473C21.2882 25.4473 21.0826 25.5128 20.9106 25.6348C20.7386 25.7567 20.6087 25.9292 20.5389 26.1282L18.9306 30.6924L17.7247 34.102C17.635 34.3566 17.6501 34.6365 17.7667 34.88C17.8833 35.1236 18.0919 35.3108 18.3465 35.4005C18.6012 35.4903 18.881 35.4752 19.1246 35.3586C19.3681 35.242 19.5553 35.0334 19.6451 34.7788L20.135 33.389H22.8602L23.3516 34.7788C23.444 35.0292 23.6311 35.2332 23.8725 35.347C24.114 35.4608 24.3905 35.4751 24.6424 35.3869C24.8943 35.2987 25.1015 35.1151 25.2192 34.8756C25.337 34.636 25.3559 34.3598 25.272 34.1065L22.4593 26.1282ZM20.8525 31.3616L21.4991 29.5272L22.1458 31.3616H20.8525Z" fill="white"/>
<path d="M18.1785 26.392C18.1781 26.1222 18.0708 25.8637 17.88 25.673C17.6893 25.4822 17.4307 25.3749 17.161 25.3745H12.5561C12.2863 25.3745 12.0275 25.4817 11.8367 25.6725C11.6459 25.8633 11.5387 26.1221 11.5387 26.392C11.5387 26.6618 11.6459 26.9206 11.8367 27.1114C12.0275 27.3022 12.2863 27.4094 12.5561 27.4094H13.8404V34.3733C13.8404 34.6432 13.9476 34.9019 14.1384 35.0928C14.3292 35.2836 14.588 35.3908 14.8578 35.3908C15.1277 35.3908 15.3865 35.2836 15.5773 35.0928C15.7681 34.9019 15.8753 34.6432 15.8753 34.3733V27.4094H17.161C17.4309 27.4094 17.6897 27.3022 17.8805 27.1114C18.0713 26.9206 18.1785 26.6618 18.1785 26.392Z" fill="white"/>
<path d="M32.0399 25.5147C31.8077 25.3771 31.5305 25.3372 31.2689 25.4036C31.0073 25.47 30.7827 25.6373 30.6441 25.8689L29.1458 28.3846L27.6491 25.8689C27.5807 25.7541 27.4903 25.6539 27.3832 25.574C27.2761 25.4941 27.1543 25.4361 27.0247 25.4032C26.8952 25.3704 26.7605 25.3634 26.6282 25.3827C26.496 25.4019 26.3688 25.447 26.254 25.5154C26.1392 25.5838 26.039 25.6742 25.9591 25.7813C25.8792 25.8884 25.8212 26.0102 25.7884 26.1397C25.7555 26.2693 25.7486 26.404 25.7678 26.5363C25.787 26.6685 25.8322 26.7957 25.9005 26.9105L27.9626 30.3773L25.9005 33.8442C25.8322 33.959 25.787 34.0862 25.7678 34.2184C25.7486 34.3506 25.7555 34.4854 25.7884 34.6149C25.8212 34.7445 25.8792 34.8663 25.9591 34.9734C26.039 35.0805 26.1392 35.1709 26.254 35.2392C26.3688 35.3076 26.496 35.3527 26.6282 35.372C26.7605 35.3912 26.8952 35.3842 27.0247 35.3514C27.1543 35.3186 27.2761 35.2606 27.3832 35.1807C27.4903 35.1008 27.5807 35.0006 27.6491 34.8858L29.1458 32.37L30.6441 34.8858C30.7823 35.1176 31.0068 35.2851 31.2684 35.3514C31.5301 35.4177 31.8073 35.3774 32.0392 35.2392C32.271 35.1011 32.4385 34.8765 32.5048 34.6149C32.5711 34.3533 32.5308 34.0761 32.3926 33.8442L30.3306 30.3773L32.3926 26.9105C32.5307 26.6785 32.5711 26.4013 32.505 26.1396C32.4388 25.8779 32.2716 25.6532 32.0399 25.5147Z" fill="white"/>
</svg>
