<svg width="45" height="45" viewBox="0 0 45 45" fill="none" xmlns="http://www.w3.org/2000/svg">
<g clip-path="url(#clip0)">
<path d="M22.5114 45C22.4466 45 22.3172 45 22.2525 44.9354C11.3139 41.7073 4 31.8938 4 20.5308V6.13343C4 5.68149 4.38835 5.29412 4.84143 5.29412C7.30098 5.29412 9.30745 3.29268 9.30745 0.839311C9.30745 0.387374 9.6958 0 10.1489 0H34.8738C35.3269 0 35.7153 0.387374 35.7153 0.839311C35.7153 3.29268 37.7218 5.29412 40.1813 5.29412C40.6344 5.29412 41.0227 5.68149 41.0227 6.13343V20.4663C41.0227 31.8293 33.7088 41.7073 22.7703 44.9354C22.6408 45 22.5761 45 22.5114 45ZM10.9256 1.74319C10.5372 4.39024 8.4013 6.58537 5.74758 6.90818V20.4663C5.68285 30.99 12.479 40.1578 22.5114 43.2568C32.5437 40.1578 39.3399 30.99 39.3399 20.4663V6.90818C36.6214 6.5208 34.4855 4.39024 34.0971 1.67862H10.9256V1.74319Z" fill="white"/>
<path d="M22.5114 28.6657C18.1748 28.6657 14.6149 25.1148 14.6149 20.7891C14.6149 16.4634 18.1748 12.9125 22.5114 12.9125C26.848 12.9125 30.4078 16.4634 30.4078 20.7891C30.4078 25.1148 26.848 28.6657 22.5114 28.6657ZM22.5114 14.5911C19.081 14.5911 16.2978 17.3673 16.2978 20.7891C16.2978 24.2109 19.081 26.9871 22.5114 26.9871C25.9418 26.9871 28.725 24.2109 28.725 20.7891C28.725 17.3673 25.9418 14.5911 22.5114 14.5911Z" fill="white"/>
<path d="M21.6052 24.2109C21.3463 24.2109 21.1521 24.1463 21.0227 23.9526L19.2751 22.2095C18.9515 21.8867 18.9515 21.3056 19.2751 20.9828C19.4693 20.7891 19.6634 20.7245 19.8576 20.7245C20.0518 20.7245 20.3107 20.7891 20.4401 20.9828L21.6052 22.1449L25.424 18.3357C25.6182 18.142 25.8123 18.0775 26.0065 18.0775C26.2654 18.0775 26.4596 18.142 26.589 18.3357C26.9127 18.6585 26.9127 19.2396 26.589 19.5624L22.1877 23.9526C22.0583 24.1463 21.8641 24.2109 21.6052 24.2109Z" fill="white"/>
</g>
<defs>
<clipPath id="clip0">
<rect width="37.0227" height="45" fill="white" transform="translate(4)"/>
</clipPath>
</defs>
</svg>
