<svg width="45" height="45" viewBox="0 0 45 45" fill="none" xmlns="http://www.w3.org/2000/svg">
<path d="M43.8279 42.7524H40.4565V29.2669C41.8209 28.9884 43.0332 28.2133 43.8585 27.0917C44.6838 25.9702 45.0632 24.5821 44.9232 23.1967C44.7833 21.8113 44.1339 20.5272 43.101 19.5934C42.0681 18.6595 40.7252 18.1425 39.3327 18.1425C37.9403 18.1425 36.5974 18.6595 35.5645 19.5934C34.5316 20.5272 33.8822 21.8113 33.7422 23.1967C33.6023 24.5821 33.9817 25.9702 34.807 27.0917C35.6323 28.2133 36.8446 28.9884 38.2089 29.2669V42.7524H29.2186V1.17209C29.23 0.924209 29.1589 0.679537 29.0166 0.476249C28.8743 0.27296 28.6687 0.122486 28.4319 0.0483023C28.2038 -0.0201156 27.96 -0.0157554 27.7344 0.0607767C27.5088 0.137309 27.3127 0.282211 27.1733 0.475344C25.4795 2.94779 23.3465 5.08847 20.8801 6.79106C17.9494 7.653 14.9359 8.20296 11.8897 8.4318C10.4446 8.6442 9.12588 9.37448 8.17905 10.4867C7.23221 11.5989 6.72178 13.0173 6.74275 14.4778V15.7814H3.37138C2.47723 15.7814 1.61971 16.1366 0.987454 16.7689C0.355198 17.4011 0 18.2586 0 19.1528V43.8762C0 44.1743 0.118399 44.4601 0.329151 44.6709C0.539903 44.8816 0.825744 45 1.12379 45H43.8279C44.126 45 44.4118 44.8816 44.6226 44.6709C44.8333 44.4601 44.9517 44.1743 44.9517 43.8762C44.9517 43.5782 44.8333 43.2923 44.6226 43.0816C44.4118 42.8708 44.126 42.7524 43.8279 42.7524ZM35.9614 23.6479C35.9614 22.9811 36.1591 22.3293 36.5295 21.7749C36.9 21.2205 37.4265 20.7884 38.0426 20.5332C38.6586 20.278 39.3365 20.2113 39.9905 20.3413C40.6444 20.4714 41.2452 20.7925 41.7167 21.264C42.1882 21.7355 42.5093 22.3362 42.6393 22.9902C42.7694 23.6442 42.7027 24.3221 42.4475 24.9381C42.1923 25.5542 41.7602 26.0807 41.2058 26.4511C40.6514 26.8216 39.9995 27.0193 39.3327 27.0193C38.4386 27.0193 37.5811 26.6641 36.9488 26.0319C36.3166 25.3996 35.9614 24.5421 35.9614 23.6479ZM8.99034 42.7524V36.0097H13.4855V42.7524H8.99034ZM15.7331 42.7524V34.8859C15.7331 34.5878 15.6147 34.302 15.4039 34.0912C15.1932 33.8805 14.9074 33.7621 14.6093 33.7621H7.86655C7.5685 33.7621 7.28266 33.8805 7.07191 34.0912C6.86115 34.302 6.74275 34.5878 6.74275 34.8859V42.7524H2.24759V19.1528C2.24759 18.8547 2.36598 18.5689 2.57674 18.3581C2.78749 18.1474 3.07333 18.029 3.37138 18.029H19.1045C19.4025 18.029 19.6884 18.1474 19.8991 18.3581C20.1099 18.5689 20.2283 18.8547 20.2283 19.1528V42.7524H15.7331ZM22.4759 42.7524V19.1528C22.4759 18.2586 22.1207 17.4011 21.4884 16.7689C20.8561 16.1366 19.9986 15.7814 19.1045 15.7814H8.99034V14.4778C8.98363 13.5674 9.31205 12.6863 9.91305 12.0024C10.514 11.3185 11.3456 10.8796 12.2493 10.7693C15.4925 10.5877 18.7008 10.0064 21.8016 9.03864C23.7937 7.88088 25.5479 6.35548 26.971 4.54347V42.7524H22.4759Z" fill="white"/>
<path d="M14.6093 24.7717H7.86654C7.5685 24.7717 7.28266 24.8901 7.0719 25.1009C6.86115 25.3116 6.74275 25.5975 6.74275 25.8955C6.74275 26.1936 6.86115 26.4794 7.0719 26.6902C7.28266 26.9009 7.5685 27.0193 7.86654 27.0193H14.6093C14.9073 27.0193 15.1932 26.9009 15.4039 26.6902C15.6147 26.4794 15.7331 26.1936 15.7331 25.8955C15.7331 25.5975 15.6147 25.3116 15.4039 25.1009C15.1932 24.8901 14.9073 24.7717 14.6093 24.7717Z" fill="white"/>
</svg>
