<svg width="45" height="33" viewBox="0 0 45 33" fill="none" xmlns="http://www.w3.org/2000/svg">
<path d="M44.5027 8.64548C44.0814 8.12833 43.457 7.83178 42.7898 7.83178H8.37404L7.679 4.45774C7.53389 3.75391 7.05383 3.16294 6.39456 2.87668L1.54501 0.771692C0.985147 0.528498 0.334491 0.785402 0.0916486 1.34509C-0.151457 1.90496 0.105447 2.5557 0.665048 2.79854L5.51469 4.90361L10.8607 30.8543C11.0713 31.8763 11.9815 32.6181 13.025 32.6181H39.4948C40.105 32.6181 40.5997 32.1235 40.5997 31.5133C40.5997 30.903 40.105 30.4084 39.4948 30.4084H13.0251L12.3748 27.2517H39.6994C40.7428 27.2517 41.6531 26.5099 41.8636 25.4879L44.9541 10.4871C45.0887 9.83394 44.9241 9.16254 44.5027 8.64548ZM39.6994 25.0421H11.9196L8.82931 10.0414L42.7897 10.0415L39.6994 25.0421Z" fill="white"/>
</svg>
