<svg width="45" height="45" viewBox="0 0 45 45" fill="none" xmlns="http://www.w3.org/2000/svg">
<g clip-path="url(#clip0)">
<path d="M37.1056 18.0145H34.8567C34.5585 18.0145 34.2725 18.1329 34.0617 18.3438C33.8508 18.5547 33.7323 18.8407 33.7323 19.1389C33.7323 19.4371 33.8508 19.7231 34.0617 19.934C34.2725 20.1448 34.5585 20.2633 34.8567 20.2633H37.1056C37.4038 20.2633 37.6898 20.1448 37.9006 19.934C38.1115 19.7231 38.23 19.4371 38.23 19.1389C38.23 18.8407 38.1115 18.5547 37.9006 18.3438C37.6898 18.1329 37.4038 18.0145 37.1056 18.0145Z" fill="white"/>
<path d="M41.6032 4.52154H37.5778L33.395 0.361218C33.3131 0.214091 33.1873 0.0961762 33.0352 0.0238948C32.8946 -0.00796493 32.7486 -0.00796493 32.6079 0.0238948H12.3685C12.2279 -0.00796493 12.0819 -0.00796493 11.9412 0.0238948C11.8009 0.071841 11.6764 0.15741 11.5814 0.271265L7.39862 4.52154H3.37323C2.4786 4.52154 1.6206 4.87693 0.987997 5.50953C0.355393 6.14214 0 7.00013 0 7.89477V37.1295C0 38.0241 0.355393 38.8821 0.987997 39.5147C1.6206 40.1473 2.4786 40.5027 3.37323 40.5027H17.9906L21.5887 44.618C21.6963 44.7382 21.828 44.8343 21.9752 44.9002C22.1225 44.966 22.2819 45 22.4432 45C22.6045 45 22.764 44.966 22.9113 44.9002C23.0585 44.8343 23.1902 44.7382 23.2978 44.618L26.9859 40.5027H41.6032C42.4978 40.5027 43.3558 40.1473 43.9884 39.5147C44.621 38.8821 44.9764 38.0241 44.9764 37.1295V7.89477C44.9764 7.00013 44.621 6.14214 43.9884 5.50953C43.3558 4.87693 42.4978 4.52154 41.6032 4.52154ZM23.1404 13.5168H21.8361L18.4628 10.1436L19.5872 9.01918H25.3892L26.5136 10.1436L23.1404 13.5168ZM25.3892 6.77036H19.5872L15.0896 2.27272H29.8868L25.3892 6.77036ZM27.4581 7.89477L32.6079 2.74497L35.5089 5.64595L30.3591 10.7958L27.4581 7.89477ZM12.3685 2.74497L17.5183 7.89477L14.6173 10.7958L9.46754 5.64595L12.3685 2.74497ZM3.37323 38.2539C3.07502 38.2539 2.78902 38.1354 2.57815 37.9245C2.36729 37.7137 2.24882 37.4277 2.24882 37.1295V7.89477C2.24882 7.59656 2.36729 7.31056 2.57815 7.09969C2.78902 6.88882 3.07502 6.77036 3.37323 6.77036H7.39862L13.8303 13.1795C13.9312 13.2871 14.0531 13.3728 14.1885 13.4314C14.3239 13.49 14.4698 13.5202 14.6173 13.5202C14.7649 13.5202 14.9108 13.49 15.0462 13.4314C15.1816 13.3728 15.3035 13.2871 15.4044 13.1795L16.8662 11.7403L20.082 14.9561L13.4929 34.5208C13.4296 34.7065 13.415 34.9053 13.4504 35.0982C13.4859 35.2911 13.5702 35.4717 13.6953 35.6227L15.9441 38.2539H3.37323ZM22.4882 42.1668L15.8767 34.6333L22.1734 15.7656H22.8031L29.0998 34.6333L22.4882 42.1668ZM42.7276 37.1295C42.7276 37.4277 42.6091 37.7137 42.3983 37.9245C42.1874 38.1354 41.9014 38.2539 41.6032 38.2539H28.8974L31.1462 35.6227C31.2713 35.4717 31.3556 35.2911 31.3911 35.0982C31.4265 34.9053 31.4119 34.7065 31.3486 34.5208L24.827 14.9561L28.1103 11.7403L29.572 13.1795C29.673 13.2871 29.7949 13.3728 29.9303 13.4314C30.0656 13.49 30.2116 13.5202 30.3591 13.5202C30.5066 13.5202 30.6526 13.49 30.7879 13.4314C30.9233 13.3728 31.0452 13.2871 31.1462 13.1795L37.5778 6.77036H41.6032C41.9014 6.77036 42.1874 6.88882 42.3983 7.09969C42.6091 7.31056 42.7276 7.59656 42.7276 7.89477V37.1295Z" fill="white"/>
</g>
<defs>
<clipPath id="clip0">
<rect width="44.9764" height="45" fill="white"/>
</clipPath>
</defs>
</svg>
