<svg width="174" height="300" viewBox="0 0 174 300" fill="none" xmlns="http://www.w3.org/2000/svg">
<rect x="140.912" y="20" width="10.3158" height="10.3158" fill="#E3E3E3"/>
<rect x="140.053" y="47.5088" width="12.0351" height="12.0351" fill="#E3E3E3"/>
<rect opacity="0.8" x="110.824" y="20" width="10.3158" height="10.3158" fill="#E3E3E3"/>
<rect opacity="0.8" x="109.965" y="47.5088" width="12.0351" height="12.0351" fill="#E3E3E3"/>
<rect opacity="0.7" x="82.4561" y="20" width="10.3158" height="10.3158" fill="#E3E3E3"/>
<rect opacity="0.7" x="81.5964" y="47.5088" width="12.0351" height="12.0351" fill="#E3E3E3"/>
<rect opacity="0.5" x="53.228" y="20" width="10.3158" height="10.3158" fill="#E3E3E3"/>
<rect opacity="0.5" x="52.3684" y="47.5088" width="12.0351" height="12.0351" fill="#E3E3E3"/>
<rect opacity="0.4" x="24" y="20" width="10.3158" height="10.3158" fill="#E3E3E3"/>
<rect opacity="0.4" x="24" y="48.3684" width="10.3158" height="10.3158" fill="#E3E3E3"/>
<rect x="139.526" y="77" width="13.7544" height="13.7544" fill="#E3E3E3"/>
<rect x="138.526" y="108" width="16.3333" height="16.3333" fill="#E3E3E3"/>
<rect x="137.526" y="142" width="18" height="18" fill="#E3E3E3"/>
<rect opacity="0.8" x="109.105" y="76.7368" width="13.7544" height="13.7544" fill="#E3E3E3"/>
<rect opacity="0.8" x="108.246" y="107.684" width="16.3333" height="16.3333" fill="#E3E3E3"/>
<rect opacity="0.8" x="108.246" y="142.93" width="16.3333" height="16.3333" fill="#E3E3E3"/>
<rect opacity="0.7" x="80.7368" y="76.7368" width="13.7544" height="13.7544" fill="#E3E3E3"/>
<rect opacity="0.7" x="80.7368" y="108.544" width="13.7544" height="13.7544" fill="#E3E3E3"/>
<rect opacity="0.7" x="80.7368" y="144.649" width="13.7544" height="13.7544" fill="#E3E3E3"/>
<rect opacity="0.5" x="52.3684" y="77.5964" width="12.0351" height="12.0351" fill="#E3E3E3"/>
<rect opacity="0.5" x="52.3684" y="109.404" width="12.0351" height="12.0351" fill="#E3E3E3"/>
<rect opacity="0.5" x="52.3684" y="145.509" width="12.0351" height="12.0351" fill="#E3E3E3"/>
<rect opacity="0.4" x="24" y="78.4561" width="10.3158" height="10.3158" fill="#E3E3E3"/>
<rect opacity="0.4" x="24" y="110.263" width="10.3158" height="10.3158" fill="#E3E3E3"/>
<rect opacity="0.4" x="24" y="146.368" width="10.3158" height="10.3158" fill="#E3E3E3"/>
<rect width="10.3158" height="10.3158" transform="matrix(1 0 0 -1 141.526 280.316)" fill="#E3E3E3"/>
<rect width="12.0351" height="12.0351" transform="matrix(1 0 0 -1 140.526 253.035)" fill="#E3E3E3"/>
<rect opacity="0.8" width="10.3158" height="10.3158" transform="matrix(1 0 0 -1 112.544 280.474)" fill="#E3E3E3"/>
<rect opacity="0.8" width="12.0351" height="12.0351" transform="matrix(1 0 0 -1 111.684 252.965)" fill="#E3E3E3"/>
<rect opacity="0.7" width="10.3158" height="10.3158" transform="matrix(1 0 0 -1 84.1753 280.474)" fill="#E3E3E3"/>
<rect opacity="0.7" width="12.0351" height="12.0351" transform="matrix(1 0 0 -1 83.3157 252.965)" fill="#E3E3E3"/>
<rect opacity="0.5" width="10.3158" height="10.3158" transform="matrix(1 0 0 -1 54.9473 280.474)" fill="#E3E3E3"/>
<rect opacity="0.5" width="12.0351" height="12.0351" transform="matrix(1 0 0 -1 54.0876 252.965)" fill="#E3E3E3"/>
<rect opacity="0.4" width="10.3158" height="10.3158" transform="matrix(1 0 0 -1 25.7192 280.474)" fill="#E3E3E3"/>
<rect opacity="0.4" width="10.3158" height="10.3158" transform="matrix(1 0 0 -1 25.7192 252.105)" fill="#E3E3E3"/>
<rect width="13.7544" height="13.7544" transform="matrix(1 0 0 -1 139.526 223.754)" fill="#E3E3E3"/>
<rect width="16.3333" height="16.3333" transform="matrix(1 0 0 -1 138.526 193.333)" fill="#E3E3E3"/>
<rect opacity="0.8" width="13.7544" height="13.7544" transform="matrix(1 0 0 -1 110.824 223.737)" fill="#E3E3E3"/>
<rect opacity="0.8" width="16.3333" height="16.3333" transform="matrix(1 0 0 -1 109.965 192.789)" fill="#E3E3E3"/>
<rect opacity="0.7" width="13.7544" height="13.7544" transform="matrix(1 0 0 -1 82.4561 223.737)" fill="#E3E3E3"/>
<rect opacity="0.7" width="13.7544" height="13.7544" transform="matrix(1 0 0 -1 82.4561 191.93)" fill="#E3E3E3"/>
<rect opacity="0.5" width="12.0351" height="12.0351" transform="matrix(1 0 0 -1 54.0876 222.877)" fill="#E3E3E3"/>
<rect opacity="0.5" width="12.0351" height="12.0351" transform="matrix(1 0 0 -1 54.0876 191.07)" fill="#E3E3E3"/>
<rect opacity="0.4" width="10.3158" height="10.3158" transform="matrix(1 0 0 -1 25.7192 222.018)" fill="#E3E3E3"/>
<rect opacity="0.4" width="10.3158" height="10.3158" transform="matrix(1 0 0 -1 25.7192 190.21)" fill="#E3E3E3"/>
</svg>
