<svg width="390" height="290" viewBox="0 0 390 290" fill="none" xmlns="http://www.w3.org/2000/svg">
<rect width="390" height="290" fill="#D64356"/>
<rect x="360" y="19" width="10" height="10" fill="#CC4051"/>
<rect x="359" y="45" width="12" height="13" fill="#CC4051"/>
<rect x="331" y="19" width="10" height="10" fill="#CC4051"/>
<rect x="330" y="45" width="12" height="13" fill="#CC4051"/>
<rect x="303" y="19" width="10" height="10" fill="#CC4051"/>
<rect x="302" y="45" width="12" height="13" fill="#CC4051"/>
<rect x="274" y="19" width="10" height="10" fill="#CC4051"/>
<rect x="273" y="45" width="12" height="13" fill="#CC4051"/>
<rect x="245" y="19" width="11" height="10" fill="#CC4051"/>
<rect x="245" y="47" width="11" height="10" fill="#CC4051"/>
<rect x="359" y="74" width="13" height="14" fill="#CC4051"/>
<rect x="358" y="105" width="15" height="15" fill="#CC4051"/>
<rect x="357" y="138" width="17" height="18" fill="#CC4051"/>
<rect x="329" y="74" width="13" height="14" fill="#CC4051"/>
<rect x="328" y="105" width="16" height="15" fill="#CC4051"/>
<rect x="328" y="139" width="16" height="16" fill="#CC4051"/>
<rect x="301" y="74" width="13" height="14" fill="#CC4051"/>
<rect x="301" y="106" width="13" height="13" fill="#CC4051"/>
<rect x="301" y="140" width="13" height="14" fill="#CC4051"/>
<rect x="273" y="74" width="12" height="13" fill="#CC4051"/>
<rect x="273" y="106" width="12" height="12" fill="#CC4051"/>
<rect x="273" y="141" width="12" height="13" fill="#CC4051"/>
<rect x="245" y="76" width="11" height="10" fill="#CC4051"/>
<rect x="245" y="107" width="11" height="10" fill="#CC4051"/>
<rect x="245" y="142" width="11" height="10" fill="#CC4051"/>
<rect width="10" height="10" transform="matrix(1 0 0 -1 361 273)" fill="#CC4051"/>
<rect width="11" height="12" transform="matrix(1 0 0 -1 360 247)" fill="#CC4051"/>
<rect width="10" height="10" transform="matrix(1 0 0 -1 332 274)" fill="#CC4051"/>
<rect width="12" height="11" transform="matrix(1 0 0 -1 331 246)" fill="#CC4051"/>
<rect width="10" height="10" transform="matrix(1 0 0 -1 304 274)" fill="#CC4051"/>
<rect width="11" height="11" transform="matrix(1 0 0 -1 304 246)" fill="#CC4051"/>
<rect width="10" height="10" transform="matrix(1 0 0 -1 276 274)" fill="#CC4051"/>
<rect width="11" height="11" transform="matrix(1 0 0 -1 275 246)" fill="#CC4051"/>
<rect width="10" height="10" transform="matrix(1 0 0 -1 247 274)" fill="#CC4051"/>
<rect width="10" height="10" transform="matrix(1 0 0 -1 247 246)" fill="#CC4051"/>
<rect width="13" height="13" transform="matrix(1 0 0 -1 359 218)" fill="#CC4051"/>
<rect width="15" height="15" transform="matrix(1 0 0 -1 358 188)" fill="#CC4051"/>
<rect width="13" height="13" transform="matrix(1 0 0 -1 331 218)" fill="#CC4051"/>
<rect width="15" height="17" transform="matrix(1 0 0 -1 330 188)" fill="#CC4051"/>
<rect width="13" height="13" transform="matrix(1 0 0 -1 303 218)" fill="#CC4051"/>
<rect width="13" height="13" transform="matrix(1 0 0 -1 303 187)" fill="#CC4051"/>
<rect width="11" height="12" transform="matrix(1 0 0 -1 275 217)" fill="#CC4051"/>
<rect width="11" height="11" transform="matrix(1 0 0 -1 275 186)" fill="#CC4051"/>
<rect width="10" height="10" transform="matrix(1 0 0 -1 247 216)" fill="#CC4051"/>
<rect width="10" height="10" transform="matrix(1 0 0 -1 247 185)" fill="#CC4051"/>
<rect x="234" width="156" height="290" fill="url(#paint0_linear)"/>
<defs>
<linearGradient id="paint0_linear" x1="390" y1="145" x2="234" y2="145" gradientUnits="userSpaceOnUse">
<stop stop-color="#D64356" stop-opacity="0"/>
<stop offset="1" stop-color="#D64356"/>
</linearGradient>
</defs>
</svg>
