<svg width="41" height="60" viewBox="0 0 41 60" fill="none" xmlns="http://www.w3.org/2000/svg">
<g clip-path="url(#clip0)">
<path d="M40.123 58.917L38.123 34.917C38.0879 34.4974 37.7937 34.1447 37.387 34.035L36.123 33.69V33C36.1234 32.531 35.7978 32.1247 35.34 32.023L27.123 30.2V27.571C27.21 27.503 27.3 27.442 27.386 27.371C30.7824 24.5377 32.844 20.417 33.075 16H33.123C33.6753 16 34.123 15.5522 34.123 15V14C34.123 6.268 27.855 0 20.123 0C12.391 0 6.12305 6.268 6.12305 14V16C6.12305 16.5522 6.5708 17 7.12304 17C7.16404 16.9961 7.2048 16.9897 7.24505 16.981C7.7148 21.0364 9.72492 24.7561 12.86 27.371C12.946 27.442 13.036 27.503 13.123 27.571V30.2L4.90605 32.025C4.44892 32.1266 4.12355 32.5317 4.12305 33V33.69L2.85905 34.035C2.45405 34.1461 2.16167 34.4985 2.12705 34.917L0.127046 58.917C0.0811714 59.4674 0.490171 59.9507 1.04055 59.9965C1.06792 59.9987 1.09542 59.9999 1.12305 60H39.123C39.6753 60.0019 40.1245 59.5557 40.1265 59.0035C40.1267 58.9746 40.1254 58.9457 40.123 58.917ZM34.123 33.8V34.61L27.123 32.277V32.245L34.123 33.8ZM8.12304 14C8.12304 7.37262 13.4957 2 20.123 2C26.7504 2 32.123 7.37262 32.123 14H29.123C26.363 13.9967 24.1263 11.76 24.123 9C24.1235 8.44775 23.6762 7.99962 23.1239 7.99912C23.0507 7.99912 22.9777 8.007 22.906 8.023L22.306 8.157C17.2594 9.2725 12.455 11.288 8.12304 14.107V14ZM9.16905 15.82C13.1642 13.2097 17.5842 11.3167 22.23 10.226C22.8293 13.5642 25.7314 15.9954 29.123 16H31.075C30.845 19.8232 29.0463 23.3817 26.104 25.834C22.6399 28.7226 17.6062 28.7226 14.142 25.834C11.1558 23.3392 9.35192 19.7069 9.16905 15.82ZM20.123 35.881L15.123 33.381V28.83C16.6782 29.5976 18.3888 29.9979 20.123 30C21.8574 29.9976 23.568 29.597 25.123 28.829V33.381L20.123 35.881ZM25.123 35.617V37.611L22.73 36.811L25.123 35.617ZM22.044 49.771L20.123 52.333L18.202 49.771L20.123 41.447L22.044 49.771ZM17.516 36.818L15.123 37.618V35.618L17.516 36.818ZM6.12305 33.8L13.123 32.245L6.12305 34.61V33.8ZM3.50205 42.487C4.57517 43.3297 5.1783 44.6366 5.12305 46C5.23817 47.6202 4.35267 49.1466 2.88905 49.851L3.50205 42.487ZM32.123 58V43H30.123V58H10.123V43H8.12304V58H2.21005L2.71005 51.954C5.19305 51.6 7.12304 49.068 7.12304 46C7.22204 43.5914 5.86542 41.3587 3.68205 40.337L4.06105 35.78L4.12305 35.763V36C4.12305 36.5522 4.5708 37 5.12305 37C5.23055 37 5.3373 36.9825 5.43905 36.948L13.123 34.387V39C13.1234 39.5522 13.5715 39.9996 14.1238 39.9992C14.2309 39.9991 14.3374 39.9819 14.439 39.948L18.748 38.512L16.148 49.775C16.0819 50.0624 16.1459 50.3642 16.323 50.6L19.323 54.6C19.6544 55.0419 20.2812 55.1314 20.723 54.8C20.7988 54.7431 20.8662 54.6757 20.923 54.6L23.923 50.6C24.1002 50.3642 24.1642 50.0624 24.098 49.775L21.498 38.512L25.807 39.948C25.9088 39.9825 26.0155 40 26.123 40C26.6753 40 27.123 39.5522 27.123 39V34.387L34.807 36.948C34.9088 36.9825 35.0155 37 35.123 37C35.6753 37 36.123 36.5522 36.123 36V35.763L36.185 35.78L38.036 58H32.123Z" fill="#E1DDDD"/>
<path d="M29.123 45H25.123V47H29.123V45Z" fill="#E1DDDD"/>
</g>
<defs>
<clipPath id="clip0">
<rect width="40.25" height="60" fill="white"/>
</clipPath>
</defs>
</svg>
