<svg width="65" height="65" viewBox="0 0 65 65" fill="none" xmlns="http://www.w3.org/2000/svg">
<path d="M55.6613 35.4199C55.6617 33.4704 56.4278 31.5991 57.7946 30.209C59.1614 28.819 61.0196 28.0214 62.9688 27.9881V17.7734H2.03125V27.9881H2.1582C4.12992 27.9881 6.02088 28.7713 7.4151 30.1656C8.80932 31.5598 9.59258 33.4507 9.59258 35.4225C9.59258 37.3942 8.80932 39.2851 7.4151 40.6794C6.02088 42.0736 4.12992 42.8568 2.1582 42.8568H2.03125V51.0352H62.9688V42.8518C61.0196 42.8185 59.1614 42.0209 57.7946 40.6308C56.4278 39.2407 55.6617 37.3694 55.6613 35.4199V35.4199Z" stroke="#DDD8D8" stroke-width="2" stroke-miterlimit="10"/>
<path d="M43.418 17.7734V51.0352" stroke="#DDD8D8" stroke-width="2" stroke-miterlimit="10" stroke-dasharray="12 12"/>
<path d="M34.5109 17.7734C35.3572 19.5373 35.7445 21.4862 35.6369 23.4396C35.5293 25.3929 34.9304 27.2876 33.8956 28.9478C32.8607 30.608 31.4235 31.9801 29.7171 32.937C28.0108 33.8938 26.0904 34.4044 24.1342 34.4214C22.1779 34.4384 20.249 33.9612 18.5263 33.0342C16.8035 32.1072 15.3427 30.7602 14.2792 29.1182C13.2157 27.4762 12.5839 25.5923 12.4424 23.6411C12.3009 21.6899 12.6542 19.7345 13.4697 17.9563" stroke="#DDD8D8" stroke-width="2" stroke-miterlimit="10"/>
<path d="M32.3146 31.0196L18.8195 17.522" stroke="#DDD8D8" stroke-width="2" stroke-miterlimit="10"/>
<path d="M28.8742 17.9561L15.8107 31.0195" stroke="#DDD8D8" stroke-width="2" stroke-miterlimit="10"/>
<path d="M35.6662 22.2523C33.7046 22.632 31.673 22.3782 29.8652 21.5274C28.0573 20.6766 26.5668 19.2731 25.609 17.5195" stroke="#DDD8D8" stroke-width="2" stroke-miterlimit="10"/>
<path d="M23.4914 34.4273C23.7855 32.9149 23.7036 31.3534 23.2531 29.88C22.8026 28.4066 21.9972 27.0663 20.9076 25.977C19.818 24.8876 18.4775 24.0825 17.004 23.6323C15.5305 23.1821 13.969 23.1007 12.4567 23.395" stroke="#DDD8D8" stroke-width="2" stroke-miterlimit="10"/>
<path d="M27.6758 40.8789H36.5625" stroke="#DDD8D8" stroke-width="2" stroke-miterlimit="10"/>
<path d="M13.7109 45.4492H36.5625" stroke="#DDD8D8" stroke-width="2" stroke-miterlimit="10"/>
</svg>
