<svg width="61" height="60" viewBox="0 0 61 60" fill="none" xmlns="http://www.w3.org/2000/svg">
<path d="M58.6149 25.4322C59.0135 25.4322 59.3958 25.2739 59.6777 24.992C59.9595 24.7102 60.1179 24.3279 60.1179 23.9293V19.4204C60.1208 19.3704 60.1208 19.3202 60.1179 19.2701C60.1347 19.1706 60.1347 19.069 60.1179 18.9695C60.1292 18.8797 60.1292 18.7888 60.1179 18.699C60.0789 18.6124 60.0283 18.5316 59.9676 18.4585C59.8901 18.3962 59.8195 18.3256 59.7572 18.2481L43.4051 8.11827C42.1383 5.67185 40.2233 3.62071 37.8696 2.18897C35.5159 0.757239 32.8139 0 30.0589 0C27.304 0 24.602 0.757239 22.2483 2.18897C19.8945 3.62071 17.9796 5.67185 16.7128 8.11827L0.691356 18.158L0.450884 18.3684C0.390163 18.4414 0.339605 18.5223 0.300589 18.6088C0.289273 18.6987 0.289273 18.7895 0.300589 18.8794C0.283772 18.9789 0.283772 19.0805 0.300589 19.18C0.300589 19.18 0.300589 19.18 0.300589 19.3303V23.9293C0.300589 24.3279 0.458935 24.7102 0.740792 24.992C1.02265 25.2739 1.40493 25.4322 1.80354 25.4322H3.00589V47.9764H1.50295C1.10434 47.9764 0.722061 48.1348 0.440203 48.4166C0.158346 48.6985 0 49.0808 0 49.4794V58.4971C0 58.8957 0.158346 59.2779 0.440203 59.5598C0.722061 59.8417 1.10434 60 1.50295 60H58.6149C59.0135 60 59.3958 59.8417 59.6777 59.5598C59.9595 59.2779 60.1179 58.8957 60.1179 58.4971V49.4794C60.1179 49.0808 59.9595 48.6985 59.6777 48.4166C59.3958 48.1348 59.0135 47.9764 58.6149 47.9764H57.112V25.4322H58.6149ZM57.112 20.2621V22.4263H42.9843C44.3527 20.1579 45.0799 17.5607 45.0884 14.9116C45.0694 14.1349 44.989 13.361 44.8479 12.597L57.112 20.2621ZM27.053 47.9764V29.6405C29.0369 30.0413 31.0809 30.0413 33.0648 29.6405V47.9764H27.053ZM15.0295 47.9764C15.0436 47.8667 15.0436 47.7555 15.0295 47.6458V25.4322H19.358C20.6995 26.8037 22.2912 27.9057 24.0472 28.6786V47.9764H15.0295ZM36.0707 28.6786C37.8267 27.9057 39.4184 26.8037 40.7599 25.4322H45.0884V47.6458C45.0743 47.7555 45.0743 47.8667 45.0884 47.9764H36.0707V28.6786ZM30.0589 2.88801C32.437 2.88801 34.7616 3.59318 36.7389 4.91435C38.7161 6.23552 40.2572 8.11334 41.1673 10.3104C42.0773 12.5074 42.3154 14.9249 41.8515 17.2573C41.3876 19.5896 40.2424 21.732 38.5609 23.4135C36.8794 25.0951 34.737 26.2402 32.4046 26.7041C30.0723 27.1681 27.6547 26.93 25.4577 26.0199C23.2607 25.1099 21.3829 23.5688 20.0617 21.5915C18.7405 19.6143 18.0354 17.2896 18.0354 14.9116C18.0354 11.7227 19.3021 8.66449 21.557 6.40964C23.8118 4.15478 26.8701 2.88801 30.0589 2.88801ZM17.1336 22.4263H3.00589V20.2621L15.2699 12.597C15.1273 13.3608 15.0469 14.1348 15.0295 14.9116C15.038 17.5607 15.7652 20.1579 17.1336 22.4263ZM6.01179 25.4322H12.0236V47.6458C12.0094 47.7555 12.0094 47.8667 12.0236 47.9764H6.01179V25.4322ZM57.112 56.9941H3.00589V50.9823H57.112V56.9941ZM54.1061 47.9764H48.0943C48.1085 47.8667 48.1085 47.7555 48.0943 47.6458V25.4322H54.1061V47.9764Z" fill="#DDD8D8"/>
<path d="M30.0589 20.9234C31.248 20.9234 32.4103 20.5708 33.3989 19.9102C34.3875 19.2496 35.1581 18.3107 35.6131 17.2122C36.0681 16.1137 36.1872 14.9049 35.9552 13.7387C35.7232 12.5726 35.1507 11.5014 34.3099 10.6606C33.4691 9.81983 32.398 9.24726 31.2318 9.0153C30.0656 8.78333 28.8568 8.90239 27.7583 9.3574C26.6598 9.81242 25.7209 10.583 25.0603 11.5716C24.3997 12.5602 24.0471 13.7226 24.0471 14.9116C24.0471 16.506 24.6805 18.0351 25.808 19.1625C26.9354 20.29 28.4645 20.9234 30.0589 20.9234ZM30.0589 11.9057C30.6534 11.9057 31.2346 12.082 31.7289 12.4123C32.2232 12.7426 32.6085 13.212 32.836 13.7613C33.0635 14.3105 33.1231 14.9149 33.0071 15.498C32.8911 16.0811 32.6048 16.6167 32.1844 17.0371C31.764 17.4574 31.2284 17.7437 30.6454 17.8597C30.0623 17.9757 29.4579 17.9162 28.9086 17.6887C28.3594 17.4611 27.8899 17.0759 27.5596 16.5816C27.2293 16.0872 27.053 15.5061 27.053 14.9116C27.053 14.1144 27.3697 13.3498 27.9335 12.7861C28.4972 12.2224 29.2617 11.9057 30.0589 11.9057Z" fill="#DDD8D8"/>
</svg>
