<svg width="62" height="70" viewBox="0 0 62 70" fill="none" xmlns="http://www.w3.org/2000/svg">
<path d="M1.09909 69.9998C0.80901 69.9998 0.530811 69.8845 0.325693 69.6794C0.120575 69.4743 0.00534058 69.1961 0.00534058 68.906C0.00534058 68.6159 0.120575 68.3377 0.325693 68.1326C0.530811 67.9275 0.80901 67.8123 1.09909 67.8123H8.02581L8.75534 63.4373C8.84831 62.8149 9.24534 62.3435 9.84909 62.3435H15.3178L15.3167 22.9685H12.0366C11.7465 22.9685 11.4683 22.8533 11.2632 22.6482C11.0581 22.443 10.9428 22.1648 10.9428 21.8748C10.9428 21.5847 11.0581 21.3065 11.2632 21.1014C11.4683 20.8962 11.7465 20.781 12.0366 20.781H15.3167L15.3178 1.09351C15.3178 0.803425 15.4331 0.525226 15.6382 0.320108C15.8433 0.11499 16.1215 -0.000244141 16.4116 -0.000244141C16.7017 -0.000244141 16.9799 0.11499 17.185 0.320108C17.3901 0.525226 17.5053 0.803425 17.5053 1.09351V5.02226C24.8067 8.81604 31.1625 14.2015 36.1035 20.781H40.4741C40.7642 20.781 41.0424 20.8962 41.2475 21.1014C41.4526 21.3065 41.5678 21.5847 41.5678 21.8748C41.5678 22.1648 41.4526 22.443 41.2475 22.6482C41.0424 22.8533 40.7642 22.9685 40.4741 22.9685H37.6632C43.788 32.0059 47.0539 42.6762 47.0366 53.5935C47.0366 56.5718 46.7982 59.4943 46.3399 62.3435H51.4116C51.9694 62.3435 52.2975 62.7132 52.4671 63.2885L52.5086 63.4591L53.2349 67.8123H60.1616C60.4517 67.8123 60.7299 67.9275 60.935 68.1326C61.1401 68.3377 61.2553 68.6159 61.2553 68.906C61.2553 69.1961 61.1401 69.4743 60.935 69.6794C60.7299 69.8845 60.4517 69.9998 60.1616 69.9998H1.09909ZM50.3178 64.531H10.9428L10.2866 67.8123H50.9741L50.3178 64.531ZM17.5053 7.50288V20.781H27.3349C25.6466 18.932 23.8234 17.2108 21.8803 15.6316V18.5935C21.8803 18.8836 21.7651 19.1618 21.56 19.3669C21.3549 19.572 21.0767 19.6873 20.7866 19.6873C20.4965 19.6873 20.2183 19.572 20.0132 19.3669C19.8081 19.1618 19.6928 18.8836 19.6928 18.5935V13.1248C19.6918 12.8611 19.786 12.6059 19.9581 12.4062C20.1303 12.2065 20.3688 12.0757 20.6297 12.0379C20.8907 12.0001 21.1565 12.0578 21.3782 12.2004C21.6 12.3431 21.7628 12.561 21.8366 12.8141C34.4869 22.3998 42.6616 37.5887 42.6616 54.6873C42.6616 56.4208 42.5774 58.1348 42.4133 59.8257L42.3663 60.2074C42.329 60.4653 42.2009 60.7015 42.005 60.8733C41.8091 61.0452 41.5583 61.1414 41.2977 61.1448L41.1205 61.1338C40.8685 61.1084 40.6346 60.9913 40.4632 60.8048C40.2918 60.6183 40.1949 60.3754 40.1908 60.1221L40.1974 59.9865L40.2192 59.7787C40.5502 56.4879 40.5598 53.1728 40.2477 49.8802L25.3946 62.3435L44.1228 62.3446C44.6008 59.4998 44.8491 56.5751 44.8491 53.5935C44.8491 33.7135 33.7989 16.4137 17.5053 7.50288ZM19.6928 22.9685H17.5042L17.5053 62.3435H19.6928V22.9685ZM37.6314 49.2185H21.8792L21.8803 62.3435H21.9974L22.0608 62.2855L37.6303 49.2185H37.6314ZM36.4699 34.9855L22.1122 47.031H39.8955C39.2634 42.888 38.1125 38.8411 36.4699 34.9855ZM33.0475 34.9998H21.8792V44.371L33.0475 34.9998ZM30.8524 25.0904L21.8792 32.6176V32.8123H35.4822C34.1729 30.1051 32.6234 27.5207 30.8524 25.0904ZM29.2183 22.9685H21.8803L21.8792 29.7618L29.5246 23.3491L29.2183 22.9685Z" fill="#E3E3E3"/>
</svg>
