<svg width="56" height="60" viewBox="0 0 56 60" fill="none" xmlns="http://www.w3.org/2000/svg">
<g clip-path="url(#clip0)">
<path d="M35.7002 23.8597H9.7081C9.47481 23.8597 9.25108 23.9524 9.08612 24.1173C8.92116 24.2823 8.82849 24.506 8.82849 24.7393C8.82849 24.9726 8.92116 25.1963 9.08612 25.3613C9.25108 25.5262 9.47481 25.6189 9.7081 25.6189H35.7002C35.9335 25.6189 36.1573 25.5262 36.3222 25.3613C36.4872 25.1963 36.5798 24.9726 36.5798 24.7393C36.5798 24.506 36.4872 24.2823 36.3222 24.1173C36.1573 23.9524 35.9335 23.8597 35.7002 23.8597Z" fill="#DDD8D8"/>
<path d="M9.7081 31.118H15.8328C16.0661 31.118 16.2898 31.0254 16.4548 30.8604C16.6197 30.6955 16.7124 30.4717 16.7124 30.2384C16.7124 30.0051 16.6197 29.7814 16.4548 29.6165C16.2898 29.4515 16.0661 29.3588 15.8328 29.3588H9.7081C9.47481 29.3588 9.25108 29.4515 9.08612 29.6165C8.92116 29.7814 8.82849 30.0051 8.82849 30.2384C8.82849 30.4717 8.92116 30.6955 9.08612 30.8604C9.25108 31.0254 9.47481 31.118 9.7081 31.118Z" fill="#DDD8D8"/>
<path d="M8.83501 35.7337C8.83501 35.967 8.92768 36.1908 9.09264 36.3557C9.2576 36.5207 9.48133 36.6133 9.71462 36.6133H23.8705C24.1038 36.6133 24.3275 36.5207 24.4924 36.3557C24.6574 36.1908 24.7501 35.967 24.7501 35.7337C24.7501 35.5004 24.6574 35.2767 24.4924 35.1118C24.3275 34.9468 24.1038 34.8541 23.8705 34.8541H9.7081C9.47594 34.8558 9.25388 34.9493 9.09033 35.1141C8.92678 35.2788 8.835 35.5016 8.83501 35.7337Z" fill="#DDD8D8"/>
<path d="M9.7081 47.6196H15.0509C15.2842 47.6196 15.5079 47.5269 15.6729 47.3619C15.8378 47.197 15.9305 46.9732 15.9305 46.74C15.9305 46.5067 15.8378 46.2829 15.6729 46.118C15.5079 45.953 15.2842 45.8604 15.0509 45.8604H9.7081C9.47481 45.8604 9.25108 45.953 9.08612 46.118C8.92116 46.2829 8.82849 46.5067 8.82849 46.74C8.82849 46.9732 8.92116 47.197 9.08612 47.3619C9.25108 47.5269 9.47481 47.6196 9.7081 47.6196Z" fill="#DDD8D8"/>
<path d="M54.258 29.3588H50.9846V0.950715C50.9846 0.717429 50.8919 0.493696 50.727 0.328738C50.562 0.163779 50.3383 0.071106 50.105 0.071106H6.58061C6.34823 0.0728271 6.12597 0.166438 5.96238 0.331492C5.79879 0.496546 5.70716 0.71963 5.70752 0.952018V4.68286H0.941987C0.7087 4.68286 0.484968 4.77554 0.320009 4.9405C0.155051 5.10545 0.0623779 5.32919 0.0623779 5.56247V52.544C0.0623779 52.6595 0.0851297 52.7739 0.129334 52.8806C0.173539 52.9874 0.23833 53.0843 0.320009 53.166C0.401689 53.2477 0.498656 53.3125 0.605375 53.3567C0.712094 53.4009 0.826475 53.4236 0.941987 53.4236H29.9704V59.0479C29.9704 59.2812 30.0631 59.505 30.228 59.6699C30.393 59.8349 30.6167 59.9275 30.85 59.9275H54.258C54.4912 59.9272 54.7148 59.8344 54.8796 59.6695C55.0445 59.5046 55.1373 59.2811 55.1377 59.0479V30.2384C55.1373 30.0053 55.0445 29.7817 54.8796 29.6168C54.7148 29.452 54.4912 29.3592 54.258 29.3588ZM7.46022 1.83163H49.2319V29.3588H45.346V5.56247C45.346 5.32919 45.2533 5.10545 45.0883 4.9405C44.9234 4.77554 44.6996 4.68286 44.4664 4.68286H7.45761L7.46022 1.83163ZM21.9353 29.3588C21.702 29.3588 21.4783 29.4515 21.3134 29.6165C21.1484 29.7814 21.0557 30.0052 21.0557 30.2384C21.0557 30.4717 21.1484 30.6955 21.3134 30.8604C21.4783 31.0254 21.702 31.1181 21.9353 31.1181H29.9704V40.3598H9.70811C9.47482 40.3598 9.25109 40.4525 9.08613 40.6175C8.92117 40.7824 8.8285 41.0061 8.8285 41.2394C8.8285 41.4727 8.92117 41.6964 9.08613 41.8614C9.25109 42.0264 9.47482 42.119 9.70811 42.119H29.9704V51.6644H1.8229V6.44599H43.5881V29.3588H21.9353ZM53.3784 58.1683H31.7296V31.1181H53.3784V58.1683Z" fill="#DDD8D8"/>
<path d="M34.4388 40.3273H50.6653C50.8986 40.3273 51.1223 40.2346 51.2873 40.0696C51.4523 39.9047 51.5449 39.6809 51.5449 39.4477V33.766C51.5449 33.5327 51.4523 33.309 51.2873 33.144C51.1223 32.9791 50.8986 32.8864 50.6653 32.8864H34.4388C34.2055 32.8864 33.9818 32.9791 33.8168 33.144C33.6519 33.309 33.5592 33.5327 33.5592 33.766V39.4477C33.5592 39.6809 33.6519 39.9047 33.8168 40.0696C33.9818 40.2346 34.2055 40.3273 34.4388 40.3273ZM35.3184 34.6456H49.7831V38.568H35.3184V34.6456Z" fill="#DDD8D8"/>
<path d="M36.5355 43.5811H34.5899C34.3566 43.5811 34.1329 43.6738 33.968 43.8387C33.803 44.0037 33.7103 44.2274 33.7103 44.4607C33.7103 44.694 33.803 44.9177 33.968 45.0827C34.1329 45.2477 34.3566 45.3403 34.5899 45.3403H36.5355C36.7688 45.3403 36.9925 45.2477 37.1575 45.0827C37.3224 44.9177 37.4151 44.694 37.4151 44.4607C37.4151 44.2274 37.3224 44.0037 37.1575 43.8387C36.9925 43.6738 36.7688 43.5811 36.5355 43.5811Z" fill="#DDD8D8"/>
<path d="M41.1968 43.5811H39.2499C39.0167 43.5811 38.7929 43.6738 38.628 43.8387C38.463 44.0037 38.3703 44.2274 38.3703 44.4607C38.3703 44.694 38.463 44.9177 38.628 45.0827C38.7929 45.2477 39.0167 45.3403 39.2499 45.3403H41.1968C41.4301 45.3403 41.6538 45.2477 41.8188 45.0827C41.9837 44.9177 42.0764 44.694 42.0764 44.4607C42.0764 44.2274 41.9837 44.0037 41.8188 43.8387C41.6538 43.6738 41.4301 43.5811 41.1968 43.5811Z" fill="#DDD8D8"/>
<path d="M45.8568 43.5811H43.9112C43.6779 43.5811 43.4542 43.6738 43.2892 43.8387C43.1243 44.0037 43.0316 44.2274 43.0316 44.4607C43.0316 44.694 43.1243 44.9177 43.2892 45.0827C43.4542 45.2477 43.6779 45.3403 43.9112 45.3403H45.8568C46.0901 45.3403 46.3138 45.2477 46.4788 45.0827C46.6437 44.9177 46.7364 44.694 46.7364 44.4607C46.7364 44.2274 46.6437 44.0037 46.4788 43.8387C46.3138 43.6738 46.0901 43.5811 45.8568 43.5811Z" fill="#DDD8D8"/>
<path d="M50.5167 43.5811H48.5711C48.3379 43.5811 48.1141 43.6738 47.9492 43.8387C47.7842 44.0037 47.6915 44.2274 47.6915 44.4607C47.6915 44.694 47.7842 44.9177 47.9492 45.0827C48.1141 45.2477 48.3379 45.3403 48.5711 45.3403H50.5167C50.75 45.3403 50.9737 45.2477 51.1387 45.0827C51.3036 44.9177 51.3963 44.694 51.3963 44.4607C51.3963 44.2274 51.3036 44.0037 51.1387 43.8387C50.9737 43.6738 50.75 43.5811 50.5167 43.5811Z" fill="#DDD8D8"/>
<path d="M36.5355 47.6234H34.5899C34.3566 47.6234 34.1329 47.7161 33.968 47.881C33.803 48.046 33.7103 48.2697 33.7103 48.503C33.7103 48.7363 33.803 48.96 33.968 49.125C34.1329 49.29 34.3566 49.3826 34.5899 49.3826H36.5355C36.7688 49.3826 36.9925 49.29 37.1575 49.125C37.3224 48.96 37.4151 48.7363 37.4151 48.503C37.4151 48.2697 37.3224 48.046 37.1575 47.881C36.9925 47.7161 36.7688 47.6234 36.5355 47.6234Z" fill="#DDD8D8"/>
<path d="M41.1968 47.6234H39.2499C39.0167 47.6234 38.7929 47.7161 38.628 47.881C38.463 48.046 38.3703 48.2697 38.3703 48.503C38.3703 48.7363 38.463 48.96 38.628 49.125C38.7929 49.29 39.0167 49.3826 39.2499 49.3826H41.1968C41.4301 49.3826 41.6538 49.29 41.8188 49.125C41.9837 48.96 42.0764 48.7363 42.0764 48.503C42.0764 48.2697 41.9837 48.046 41.8188 47.881C41.6538 47.7161 41.4301 47.6234 41.1968 47.6234Z" fill="#DDD8D8"/>
<path d="M45.8568 47.6234H43.9112C43.6779 47.6234 43.4542 47.7161 43.2892 47.881C43.1243 48.046 43.0316 48.2697 43.0316 48.503C43.0316 48.7363 43.1243 48.96 43.2892 49.125C43.4542 49.29 43.6779 49.3826 43.9112 49.3826H45.8568C46.0901 49.3826 46.3138 49.29 46.4788 49.125C46.6437 48.96 46.7364 48.7363 46.7364 48.503C46.7364 48.2697 46.6437 48.046 46.4788 47.881C46.3138 47.7161 46.0901 47.6234 45.8568 47.6234Z" fill="#DDD8D8"/>
<path d="M50.5167 47.6234H48.5711C48.3379 47.6234 48.1141 47.7161 47.9492 47.881C47.7842 48.046 47.6915 48.2697 47.6915 48.503C47.6915 48.7363 47.7842 48.96 47.9492 49.125C48.1141 49.29 48.3379 49.3826 48.5711 49.3826H50.5167C50.75 49.3826 50.9737 49.29 51.1387 49.125C51.3036 48.96 51.3963 48.7363 51.3963 48.503C51.3963 48.2697 51.3036 48.046 51.1387 47.881C50.9737 47.7161 50.75 47.6234 50.5167 47.6234Z" fill="#DDD8D8"/>
<path d="M36.5355 51.6644H34.5899C34.3566 51.6644 34.1329 51.7571 33.968 51.9221C33.803 52.087 33.7103 52.3108 33.7103 52.544C33.7103 52.7773 33.803 53.0011 33.968 53.166C34.1329 53.331 34.3566 53.4236 34.5899 53.4236H36.5355C36.7688 53.4236 36.9925 53.331 37.1575 53.166C37.3224 53.0011 37.4151 52.7773 37.4151 52.544C37.4151 52.3108 37.3224 52.087 37.1575 51.9221C36.9925 51.7571 36.7688 51.6644 36.5355 51.6644Z" fill="#DDD8D8"/>
<path d="M41.1968 51.6644H39.2499C39.0167 51.6644 38.7929 51.7571 38.628 51.9221C38.463 52.087 38.3703 52.3108 38.3703 52.544C38.3703 52.7773 38.463 53.0011 38.628 53.166C38.7929 53.331 39.0167 53.4236 39.2499 53.4236H41.1968C41.4301 53.4236 41.6538 53.331 41.8188 53.166C41.9837 53.0011 42.0764 52.7773 42.0764 52.544C42.0764 52.3108 41.9837 52.087 41.8188 51.9221C41.6538 51.7571 41.4301 51.6644 41.1968 51.6644Z" fill="#DDD8D8"/>
<path d="M45.8568 51.6644H43.9112C43.6779 51.6644 43.4542 51.7571 43.2892 51.9221C43.1243 52.087 43.0316 52.3108 43.0316 52.544C43.0316 52.7773 43.1243 53.0011 43.2892 53.166C43.4542 53.331 43.6779 53.4236 43.9112 53.4236H45.8568C46.0901 53.4236 46.3138 53.331 46.4788 53.166C46.6437 53.0011 46.7364 52.7773 46.7364 52.544C46.7364 52.3108 46.6437 52.087 46.4788 51.9221C46.3138 51.7571 46.0901 51.6644 45.8568 51.6644Z" fill="#DDD8D8"/>
<path d="M50.5167 51.6644H48.5711C48.3379 51.6644 48.1141 51.7571 47.9492 51.9221C47.7842 52.087 47.6915 52.3108 47.6915 52.544C47.6915 52.7773 47.7842 53.0011 47.9492 53.166C48.1141 53.331 48.3379 53.4236 48.5711 53.4236H50.5167C50.75 53.4236 50.9737 53.331 51.1387 53.166C51.3036 53.0011 51.3963 52.7773 51.3963 52.544C51.3963 52.3108 51.3036 52.087 51.1387 51.9221C50.9737 51.7571 50.75 51.6644 50.5167 51.6644Z" fill="#DDD8D8"/>
<path d="M18.099 22.0288C18.3191 22.1056 18.5608 22.0921 18.771 21.9912C18.9813 21.8904 19.143 21.7104 19.2209 21.4906L19.952 19.416H24.0699L24.8009 21.4906C24.8616 21.6624 24.9739 21.8111 25.1226 21.9164C25.2712 22.0216 25.4489 22.0782 25.631 22.0783C25.7308 22.0783 25.8299 22.0616 25.9242 22.0288C26.1443 21.9509 26.3244 21.7889 26.4251 21.5782C26.5258 21.3676 26.5387 21.1257 26.4611 20.9055L22.841 10.6356C22.7807 10.4635 22.6685 10.3145 22.5197 10.209C22.371 10.1036 22.1932 10.0469 22.0109 10.0469C21.8286 10.0469 21.6508 10.1036 21.5021 10.209C21.3534 10.3145 21.2412 10.4635 21.1808 10.6356L17.566 20.9055C17.4878 21.1251 17.5001 21.3668 17.6 21.5775C17.6999 21.7881 17.8794 21.9504 18.099 22.0288ZM20.7717 17.0991L22.0109 13.5806L23.4444 17.6633H20.5723L20.7717 17.0991Z" fill="#DDD8D8"/>
<path d="M10.5017 11.712H12.5867V21.1023C12.5867 21.3356 12.6794 21.5593 12.8443 21.7243C13.0093 21.8892 13.233 21.9819 13.4663 21.9819C13.6996 21.9819 13.9233 21.8892 14.0883 21.7243C14.2532 21.5593 14.3459 21.3356 14.3459 21.1023V11.712H16.4309C16.6642 11.712 16.8879 11.6193 17.0529 11.4543C17.2178 11.2894 17.3105 11.0657 17.3105 10.8324C17.3105 10.5991 17.2178 10.3753 17.0529 10.2104C16.8879 10.0454 16.6642 9.95276 16.4309 9.95276H10.5017C10.2684 9.95276 10.0447 10.0454 9.8797 10.2104C9.71474 10.3753 9.62207 10.5991 9.62207 10.8324C9.62207 11.0657 9.71474 11.2894 9.8797 11.4543C10.0447 11.6193 10.2684 11.712 10.5017 11.712Z" fill="#DDD8D8"/>
<path d="M28.3493 21.8451C28.5499 21.9643 28.7897 21.9991 29.016 21.9416C29.2422 21.8842 29.4364 21.7393 29.556 21.5388L31.8534 17.6803L34.1495 21.5388C34.2086 21.6381 34.2867 21.7247 34.3793 21.7938C34.4719 21.8629 34.5772 21.913 34.6892 21.9414C34.8012 21.9698 34.9177 21.9758 35.032 21.9592C35.1463 21.9425 35.2563 21.9036 35.3555 21.8444C35.4548 21.7853 35.5414 21.7072 35.6105 21.6146C35.6796 21.522 35.7297 21.4167 35.7581 21.3047C35.7865 21.1927 35.7925 21.0762 35.7759 20.9619C35.7592 20.8476 35.7202 20.7376 35.6611 20.6384L32.8763 15.9602L35.6611 11.2819C35.7805 11.0815 35.8154 10.8418 35.7581 10.6156C35.7008 10.3895 35.556 10.1953 35.3555 10.0759C35.1551 9.9565 34.9154 9.92161 34.6892 9.97892C34.463 10.0362 34.2689 10.181 34.1495 10.3815L31.8534 14.24L29.5547 10.3815C29.4353 10.181 29.2411 10.0362 29.0149 9.97892C28.7888 9.92161 28.5491 9.9565 28.3486 10.0759C28.1482 10.1953 28.0034 10.3895 27.946 10.6156C27.8887 10.8418 27.9236 11.0815 28.043 11.2819L30.8278 15.9602L28.043 20.6384C27.9238 20.8391 27.8891 21.0788 27.9465 21.3051C28.0039 21.5313 28.1488 21.7256 28.3493 21.8451Z" fill="#DDD8D8"/>
</g>
<defs>
<clipPath id="clip0">
<rect width="55.2" height="60" fill="white"/>
</clipPath>
</defs>
</svg>
