<svg width="60" height="60" viewBox="0 0 60 60" fill="none" xmlns="http://www.w3.org/2000/svg">
<g clip-path="url(#clip0)">
<path d="M38.3637 52.6364H33.9091V55.0909H38.3637V52.6364Z" fill="#DDD8D8"/>
<path d="M38.3637 47.7272H33.9091V50.1817H38.3637V47.7272Z" fill="#DDD8D8"/>
<path d="M38.3637 42.8181H33.9091V45.2727H38.3637V42.8181Z" fill="#DDD8D8"/>
<path d="M2.45455 14.3636H13.1818C13.9091 14.3636 14.3636 13.8182 14.3636 13.1818V2.45455H47.6364V16.3636H50.0909V1.18182C50.0909 0.454545 49.5455 0 48.9091 0H13.0909C13 0 12.8182 0 12.7273 0.0909091H12.6364L12.5455 0.181818C12.5455 0.181818 12.5455 0.181818 12.4545 0.272727C12.3636 0.272727 12.3636 0.363636 12.2727 0.454545L0.363636 12.2727C0.272727 12.3636 0.272727 12.4545 0.181818 12.4545C0.181818 12.4545 0.181818 12.5455 0.0909091 12.5455L0 12.6364V12.7273V12.9091C0 12.9091 0 13 0 13.0909V24.2727H2.45455V14.3636ZM11.9091 4.18182V11.9091H4.18182L11.9091 4.18182Z" fill="#DDD8D8"/>
<path d="M53.9091 33.0909H49.4546V35.5455H53.9091V33.0909Z" fill="#DDD8D8"/>
<path d="M53.9091 37.9999H49.4546V40.4544H53.9091V37.9999Z" fill="#DDD8D8"/>
<path d="M59.9091 20.5455C59.7273 20.091 59.2728 19.8182 58.8182 19.8182H29C28.2728 19.8182 27.8182 20.3637 27.8182 21.0001V58.7273C27.8182 59.4546 28.3637 59.9091 29 59.9091H58.8182C59.3637 59.9091 59.7273 59.6364 60 59.091L59.9091 20.5455ZM30.2728 23.8182V22.2728H57.6364V27.8182H30.2728V26.2728V23.8182ZM30.2728 57.5455V30.2728H57.6364V57.6364H30.2728V57.5455Z" fill="#DDD8D8"/>
<path d="M53.9091 42.8181H49.4546V45.2727H53.9091V42.8181Z" fill="#DDD8D8"/>
<path d="M38.3637 37.9999H33.9091V40.4544H38.3637V37.9999Z" fill="#DDD8D8"/>
<path d="M46.1818 47.7272H41.7273V50.1817H46.1818V47.7272Z" fill="#DDD8D8"/>
<path d="M46.1818 52.6364H41.7273V55.0909H46.1818V52.6364Z" fill="#DDD8D8"/>
<path d="M38.3637 33.0909H33.9091V35.5455H38.3637V33.0909Z" fill="#DDD8D8"/>
<path d="M46.1818 33.0909H41.7273V35.5455H46.1818V33.0909Z" fill="#DDD8D8"/>
<path d="M46.1818 42.8181H41.7273V45.2727H46.1818V42.8181Z" fill="#DDD8D8"/>
<path d="M53.9091 52.6364H49.4546V55.0909H53.9091V52.6364Z" fill="#DDD8D8"/>
<path d="M53.9091 47.7272H49.4546V50.1817H53.9091V47.7272Z" fill="#DDD8D8"/>
<path d="M46.1818 37.9999H41.7273V40.4544H46.1818V37.9999Z" fill="#DDD8D8"/>
<path d="M24.8182 14.7273H42.5455C43.1818 14.7273 43.7273 14.1818 43.7273 13.5455C43.7273 12.9091 43.1818 12.3636 42.5455 12.3636H24.8182C24.1818 12.3636 23.6364 12.9091 23.6364 13.5455C23.6364 14.1818 24.1818 14.7273 24.8182 14.7273Z" fill="#DDD8D8"/>
<path d="M32.0909 9.5454H42.4546C43.0909 9.5454 43.6364 8.99995 43.6364 8.36358C43.6364 7.72722 43.0909 7.18176 42.4546 7.18176H32.0909C31.4546 7.18176 30.9091 7.72722 30.9091 8.36358C30.9091 8.99995 31.4546 9.5454 32.0909 9.5454Z" fill="#DDD8D8"/>
<path d="M2.45455 30.2727H11.9091V32.7272H14.3636V28.9999C14.3636 28.2727 13.8182 27.8181 13.1818 27.8181H1.18182C0.454545 27.8181 0 28.3636 0 28.9999V32.7272H2.45455V30.2727Z" fill="#DDD8D8"/>
<path d="M2.45455 40.1818H0V42.7272H2.45455V40.1818Z" fill="#DDD8D8"/>
<path d="M14.3636 40.1818H11.9091V42.7272H14.3636V40.1818Z" fill="#DDD8D8"/>
<path d="M25.0909 42.7273H14.3636V45.1818H23.8182V47.7273H14.3636V50.1818H23.8182V52.7273H14.3636V55.1818H23.8182V57.7273H14.3636V55.1818H11.9091V57.7273H2.45455V55.1818H0V58.9091C0 59.5455 0.545455 60 1.18182 60H25C25.7273 60 26.1818 59.4545 26.1818 58.8182V43.9091C26.2727 43.1818 25.7273 42.7273 25.0909 42.7273Z" fill="#DDD8D8"/>
<path d="M11.9091 40.1817H14.3636V32.7272H11.9091H2.45455H0V40.0908H2.45455H11.9091V40.1817ZM2.45455 35.1817H11.9091V37.7272H2.45455V35.1817Z" fill="#DDD8D8"/>
<path d="M11.9091 55.0909H14.3636V52.6364V50.0909V47.6364V45.0909V42.7273H11.9091H2.45455H0V55.0909H2.45455H11.9091ZM2.45455 45.0909H11.9091V47.6364H2.45455V45.0909ZM2.45455 50.0909H11.9091V52.6364H2.45455V50.0909Z" fill="#DDD8D8"/>
</g>
<defs>
<clipPath id="clip0">
<rect width="59.9091" height="60" fill="white"/>
</clipPath>
</defs>
</svg>
