<svg width="48" height="60" viewBox="0 0 48 60" fill="none" xmlns="http://www.w3.org/2000/svg">
<path d="M45.1081 7.10042L42.7714 6.61083V6.25476C42.7714 5.36943 42.4197 4.52037 41.7937 3.89435C41.1677 3.26832 40.3186 2.91663 39.4333 2.91663H26.9487L14.7868 0.0903451C14.357 -0.0117166 13.9113 -0.0274846 13.4755 0.0439548C13.0396 0.115394 12.6223 0.27262 12.2476 0.506523C11.8729 0.740426 11.5484 1.04635 11.2929 1.40658C11.0373 1.76681 10.8557 2.17417 10.7587 2.60507L10.692 2.9055H8.2774C7.39207 2.9055 6.54301 3.2572 5.91699 3.88322C5.29097 4.50924 4.93927 5.35831 4.93927 6.24363V27.8191L0.0878543 48.8938C-0.0125523 49.3228 -0.0270574 49.7674 0.0451764 50.202C0.11741 50.6365 0.274954 51.0525 0.508723 51.4259C0.742493 51.7994 1.04787 52.1228 1.40723 52.3776C1.7666 52.6325 2.17286 52.8136 2.60258 52.9107L4.93927 53.4559V53.7564C4.93927 54.6417 5.29097 55.4908 5.91699 56.1168C6.54301 56.7428 7.39207 57.0945 8.2774 57.0945H20.8733L20.9957 57.1501L32.9239 59.9097C33.3537 60.0117 33.7994 60.0275 34.2352 59.956C34.6711 59.8846 35.0884 59.7274 35.4631 59.4935C35.8378 59.2596 36.1623 58.9536 36.4178 58.5934C36.6734 58.2332 36.855 57.8258 36.9519 57.3949L37.0187 57.0945H39.4333C40.3186 57.0945 41.1677 56.7428 41.7937 56.1168C42.4197 55.4908 42.7714 54.6417 42.7714 53.7564V32.1364L47.6228 11.1173C47.7232 10.6883 47.7377 10.2438 47.6655 9.80917C47.5933 9.37459 47.4357 8.9586 47.202 8.58519C46.9682 8.21177 46.6628 7.88833 46.3035 7.6335C45.9441 7.37867 45.5378 7.19749 45.1081 7.10042ZM4.93927 51.1192L3.1033 50.6853C2.95861 50.6538 2.82165 50.5938 2.70045 50.5087C2.57926 50.4236 2.47626 50.3152 2.3975 50.1898C2.31875 50.0644 2.26581 49.9246 2.24179 49.7785C2.21777 49.6324 2.22316 49.4829 2.25764 49.3389L4.93927 37.7667V51.1192ZM14.286 2.26013L17.0567 2.9055H13.0175C13.1203 2.66669 13.3034 2.47138 13.5351 2.35349C13.7668 2.2356 14.0325 2.20257 14.286 2.26013ZM33.4247 57.6954L30.6651 57.05H34.6931C34.5904 57.2888 34.4073 57.4841 34.1756 57.602C33.9439 57.7199 33.6782 57.7529 33.4247 57.6954ZM40.546 53.7007C40.546 53.9958 40.4288 54.2789 40.2201 54.4875C40.0114 54.6962 39.7284 54.8134 39.4333 54.8134H8.2774C7.98229 54.8134 7.69927 54.6962 7.4906 54.4875C7.28192 54.2789 7.16469 53.9958 7.16469 53.7007V6.25476C7.16469 5.95965 7.28192 5.67663 7.4906 5.46796C7.69927 5.25928 7.98229 5.14205 8.2774 5.14205H39.4333C39.7284 5.14205 40.0114 5.25928 40.2201 5.46796C40.4288 5.67663 40.546 5.95965 40.546 6.25476V53.7007ZM45.4531 10.6166L42.7714 22.2444V8.83625L44.6074 9.25908C44.7533 9.29044 44.8914 9.35083 45.0134 9.43664C45.1355 9.52245 45.2391 9.63194 45.318 9.75859C45.3969 9.88524 45.4495 10.0265 45.4727 10.1739C45.4959 10.3213 45.4892 10.4718 45.4531 10.6166Z" fill="#DDD8D8"/>
<path d="M34.9825 48.7046H13.841V39.6582C13.841 39.3631 13.7237 39.0801 13.5151 38.8714C13.3064 38.6628 13.0234 38.5455 12.7282 38.5455C12.4331 38.5455 12.1501 38.6628 11.9414 38.8714C11.7328 39.0801 11.6155 39.3631 11.6155 39.6582V49.8173C11.6155 50.1124 11.7328 50.3954 11.9414 50.6041C12.1501 50.8128 12.4331 50.93 12.7282 50.93H34.9825C35.2776 50.93 35.5606 50.8128 35.7693 50.6041C35.9779 50.3954 36.0952 50.1124 36.0952 49.8173C36.0952 49.5222 35.9779 49.2392 35.7693 49.0305C35.5606 48.8218 35.2776 48.7046 34.9825 48.7046Z" fill="#DDD8D8"/>
<path d="M16.4336 20.2082C17.7124 20.2082 18.939 19.7009 19.8444 18.7977C20.7497 17.8944 21.2598 16.669 21.2627 15.3901C21.256 14.4949 20.9976 13.6197 20.5172 12.8643L22.5423 10.8503C22.7519 10.6407 22.8696 10.3566 22.8696 10.0602C22.8696 9.76393 22.7519 9.47974 22.5423 9.27022C22.3328 9.06069 22.0486 8.94298 21.7523 8.94298C21.456 8.94298 21.1718 9.06069 20.9623 9.27022L16.4224 13.8101L13.8966 11.2842C13.6881 11.077 13.4061 10.9607 13.1121 10.9607C12.8182 10.9607 12.5361 11.077 12.3277 11.2842C12.1204 11.4927 12.0041 11.7747 12.0041 12.0687C12.0041 12.3626 12.1204 12.6447 12.3277 12.8531C11.8564 13.615 11.6096 14.4943 11.6155 15.3901C11.6155 16.6679 12.1231 17.8934 13.0267 18.797C13.9303 19.7005 15.1557 20.2082 16.4336 20.2082ZM13.9967 14.5222L15.6547 16.1801C15.8619 16.3857 16.1417 16.5016 16.4336 16.5028C16.7139 16.4931 16.9801 16.3778 17.1791 16.1801L18.837 14.5222C18.9337 14.8017 18.9862 15.0945 18.9928 15.3901C18.9496 16.0498 18.6571 16.6684 18.1746 17.1203C17.6921 17.5723 17.0557 17.8237 16.3946 17.8237C15.7335 17.8237 15.0972 17.5723 14.6147 17.1203C14.1321 16.6684 13.8396 16.0498 13.7964 15.3901C13.8117 15.0913 13.8795 14.7975 13.9967 14.5222Z" fill="#DDD8D8"/>
<path d="M16.4336 32.4034C17.3892 32.4056 18.3239 32.1243 19.1195 31.595C19.9152 31.0657 20.5359 30.3122 20.9031 29.43C21.2703 28.5478 21.3675 27.5765 21.1824 26.639C20.9974 25.7015 20.5383 24.8399 19.8634 24.1635C19.1884 23.487 18.328 23.0259 17.3909 22.8387C16.4539 22.6515 15.4823 22.7464 14.5992 23.1116C13.7162 23.4768 12.9613 24.0958 12.4302 24.8901C11.8991 25.6845 11.6155 26.6186 11.6155 27.5742C11.6185 28.8522 12.1267 30.0771 13.0293 30.9818C13.9319 31.8865 15.1556 32.3975 16.4336 32.4034ZM16.4336 24.9816C16.9495 24.9794 17.4544 25.1305 17.8843 25.4158C18.3142 25.701 18.6496 26.1076 18.8481 26.5838C19.0465 27.06 19.099 27.5845 18.9989 28.0906C18.8988 28.5967 18.6506 29.0617 18.2858 29.4265C17.921 29.7913 17.456 30.0395 16.9499 30.1396C16.4438 30.2397 15.9194 30.1872 15.4431 29.9888C14.9669 29.7903 14.5604 29.4549 14.2751 29.025C13.9899 28.5951 13.8388 28.0902 13.841 27.5742C13.8439 26.8875 14.118 26.2298 14.6036 25.7442C15.0891 25.2586 15.7469 24.9846 16.4336 24.9816Z" fill="#DDD8D8"/>
<path d="M34.9824 34.8515H30.6206C30.3255 34.8515 30.0425 34.9687 29.8338 35.1774C29.6251 35.3861 29.5079 35.6691 29.5079 35.9642C29.5079 36.2593 29.6251 36.5424 29.8338 36.751C30.0425 36.9597 30.3255 37.0769 30.6206 37.0769H32.3008L26.0807 43.3304L21.7078 38.8795C21.4993 38.6723 21.2173 38.556 20.9233 38.556C20.6294 38.556 20.3473 38.6723 20.1389 38.8795L16.1554 42.8742C16.0389 42.9739 15.9443 43.0967 15.8775 43.2347C15.8107 43.3728 15.7732 43.5231 15.7672 43.6764C15.7613 43.8296 15.7872 43.9824 15.8431 44.1252C15.899 44.268 15.9839 44.3977 16.0923 44.5061C16.2008 44.6146 16.3304 44.6994 16.4732 44.7553C16.616 44.8113 16.7688 44.8371 16.9221 44.8312C17.0753 44.8253 17.2257 44.7877 17.3637 44.721C17.5018 44.6542 17.6245 44.5596 17.7243 44.4431L20.9289 41.2385L25.2907 45.6114C25.3942 45.7157 25.5172 45.7985 25.6528 45.855C25.7884 45.9115 25.9338 45.9406 26.0807 45.9406C26.2276 45.9406 26.3731 45.9115 26.5087 45.855C26.6442 45.7985 26.7673 45.7157 26.8708 45.6114L33.8697 38.657V40.326C33.8697 40.6212 33.9869 40.9042 34.1956 41.1129C34.4043 41.3215 34.6873 41.4388 34.9824 41.4388C35.2775 41.4388 35.5606 41.3215 35.7692 41.1129C35.9779 40.9042 36.0951 40.6212 36.0951 40.326V35.9642C36.0951 35.6691 35.9779 35.3861 35.7692 35.1774C35.5606 34.9687 35.2775 34.8515 34.9824 34.8515Z" fill="#DDD8D8"/>
<path d="M25.3352 26.4616H30.1088C30.4039 26.4616 30.6869 26.3444 30.8956 26.1357C31.1043 25.9271 31.2215 25.644 31.2215 25.3489C31.2215 25.0538 31.1043 24.7708 30.8956 24.5621C30.6869 24.3535 30.4039 24.2362 30.1088 24.2362H25.3352C25.0401 24.2362 24.7571 24.3535 24.5484 24.5621C24.3398 24.7708 24.2225 25.0538 24.2225 25.3489C24.2225 25.644 24.3398 25.9271 24.5484 26.1357C24.7571 26.3444 25.0401 26.4616 25.3352 26.4616Z" fill="#DDD8D8"/>
<path d="M25.3352 30.9236H34.4929C34.788 30.9236 35.071 30.8064 35.2797 30.5977C35.4883 30.389 35.6056 30.106 35.6056 29.8109C35.6056 29.5158 35.4883 29.2328 35.2797 29.0241C35.071 28.8154 34.788 28.6982 34.4929 28.6982H25.3352C25.0401 28.6982 24.7571 28.8154 24.5484 29.0241C24.3398 29.2328 24.2225 29.5158 24.2225 29.8109C24.2225 30.106 24.3398 30.389 24.5484 30.5977C24.7571 30.8064 25.0401 30.9236 25.3352 30.9236Z" fill="#DDD8D8"/>
<path d="M25.3352 14.2775H30.1088C30.4039 14.2775 30.6869 14.1603 30.8956 13.9516C31.1043 13.7429 31.2215 13.4599 31.2215 13.1648C31.2215 12.8697 31.1043 12.5867 30.8956 12.378C30.6869 12.1693 30.4039 12.0521 30.1088 12.0521H25.3352C25.0401 12.0521 24.7571 12.1693 24.5484 12.378C24.3398 12.5867 24.2225 12.8697 24.2225 13.1648C24.2225 13.4599 24.3398 13.7429 24.5484 13.9516C24.7571 14.1603 25.0401 14.2775 25.3352 14.2775Z" fill="#DDD8D8"/>
<path d="M25.3352 18.7284H34.4929C34.788 18.7284 35.071 18.6111 35.2797 18.4025C35.4883 18.1938 35.6056 17.9108 35.6056 17.6157C35.6056 17.3205 35.4883 17.0375 35.2797 16.8289C35.071 16.6202 34.788 16.5029 34.4929 16.5029H25.3352C25.0401 16.5029 24.7571 16.6202 24.5484 16.8289C24.3398 17.0375 24.2225 17.3205 24.2225 17.6157C24.2225 17.9108 24.3398 18.1938 24.5484 18.4025C24.7571 18.6111 25.0401 18.7284 25.3352 18.7284Z" fill="#DDD8D8"/>
</svg>
