<svg width="69" height="60" viewBox="0 0 69 60" fill="none" xmlns="http://www.w3.org/2000/svg">
<path d="M66.8256 37.953L63.282 38.9597L54.5639 8.43621C54.4632 8.05366 54.2015 7.73151 53.839 7.53017C53.4968 7.32883 53.0739 7.28856 52.6914 7.38923L37.7921 11.6376L29.2753 14.0738L15.8256 17.8993L12.2619 5.39594C12.1411 4.97312 11.839 4.63084 11.4565 4.44963L2.27528 0.161043C1.51018 -0.201373 0.624274 0.140908 0.261858 0.885875C-0.100559 1.65098 0.241723 2.53688 0.986689 2.8993L9.54373 6.90601L13.329 20.1745C13.329 20.1745 13.329 20.1745 13.329 20.1946L20.4162 45.1006C19.0471 45.8053 17.9196 46.8926 17.1545 48.2617C16.1276 50.0939 15.886 52.2282 16.4699 54.2416C17.4364 57.604 20.537 59.9597 24.0404 59.9597C24.7652 59.9597 25.49 59.859 26.1947 59.6577C28.2082 59.0738 29.8994 57.7449 30.9062 55.9127C31.7317 54.4228 32.0538 52.7315 31.8323 51.0604L62.6176 42.302H62.6377L67.6511 40.8725C68.4565 40.651 68.9196 39.8053 68.6981 39C68.4565 38.1946 67.6108 37.7315 66.8256 37.953ZM39.2216 22.1678L36.8457 21.3423C36.2417 21.1208 35.5773 21.3221 35.1746 21.8255L33.6041 23.7785L31.5504 16.5704L37.1679 14.9798L39.2216 22.1678ZM28.2686 54.4631C27.6444 55.5906 26.5974 56.4161 25.3692 56.7584C24.9263 56.8792 24.4833 56.9396 24.0404 56.9396C21.886 56.9396 19.9733 55.4899 19.3894 53.4161C19.027 52.1677 19.188 50.859 19.8122 49.7315C20.4364 48.604 21.4833 47.7785 22.7115 47.4362C23.1545 47.3154 23.5974 47.255 24.0404 47.255C26.1947 47.255 28.1075 48.7047 28.6914 50.7785C29.0538 52.0268 28.8927 53.3355 28.2686 54.4631ZM30.8659 48.2013C29.4968 45.7852 26.8994 44.2349 24.0404 44.2349C23.7988 44.2349 23.5773 44.255 23.3357 44.2751L16.6511 20.8188L28.6511 17.3959L31.5102 27.4027C31.6713 27.9463 32.1142 28.349 32.6578 28.4698C32.7585 28.4899 32.8592 28.4899 32.9598 28.4899C33.4028 28.4899 33.8457 28.2886 34.1276 27.9261L36.8659 24.5235L40.9733 25.9731C41.1343 26.0335 41.3156 26.0537 41.4968 26.0537C42.3223 26.0537 43.0068 25.3691 43.0068 24.5436C43.0068 24.3624 42.9666 24.1812 42.9062 24.0201L40.0874 14.1141L52.0874 10.6912L60.3827 39.7651L30.8659 48.2013Z" fill="#DDD8D8"/>
</svg>
