<svg width="70" height="70" viewBox="0 0 70 70" fill="none" xmlns="http://www.w3.org/2000/svg">
<g clip-path="url(#clip0)">
<path d="M55.4166 37.9167C55.0812 37.9167 54.7487 37.8029 54.4775 37.5725C53.9204 37.1058 40.8333 25.9408 40.8333 14.5833C40.8333 6.54208 47.3754 0 55.4166 0C63.4579 0 70 6.54208 70 14.5833C70 25.9408 56.9129 37.1058 56.3558 37.5725C56.0846 37.8029 55.7521 37.9167 55.4166 37.9167ZM55.4166 2.91667C48.9825 2.91667 43.75 8.14917 43.75 14.5833C43.75 22.9483 52.4912 31.78 55.4166 34.4983C58.3421 31.7771 67.0833 22.9483 67.0833 14.5833C67.0833 8.14917 61.8508 2.91667 55.4166 2.91667Z" fill="#DDD8D8"/>
<path d="M55.4166 20.4167C52.1996 20.4167 49.5833 17.8004 49.5833 14.5833C49.5833 11.3662 52.1996 8.75 55.4166 8.75C58.6337 8.75 61.25 11.3662 61.25 14.5833C61.25 17.8004 58.6337 20.4167 55.4166 20.4167ZM55.4166 11.6667C53.8096 11.6667 52.5 12.9733 52.5 14.5833C52.5 16.1933 53.8096 17.5 55.4166 17.5C57.0237 17.5 58.3333 16.1933 58.3333 14.5833C58.3333 12.9733 57.0237 11.6667 55.4166 11.6667Z" fill="#DDD8D8"/>
<path d="M8.75 67.0833C8.40583 67.0833 8.05875 66.9608 7.78167 66.7158C7.46667 66.4358 0 59.7479 0 52.8646C0 47.8392 3.92583 43.75 8.75 43.75C13.5742 43.75 17.5 47.8392 17.5 52.8646C17.5 59.7479 10.0333 66.4358 9.71833 66.7158C9.44125 66.9608 9.09417 67.0833 8.75 67.0833ZM8.75 46.6667C5.53292 46.6667 2.91667 49.4462 2.91667 52.8646C2.91667 57.1317 6.87167 61.6758 8.75 63.595C10.6283 61.6787 14.5833 57.1317 14.5833 52.8646C14.5833 49.4462 11.9671 46.6667 8.75 46.6667Z" fill="#DDD8D8"/>
<path d="M46.4159 70.0001H8.75002C7.94502 70.0001 7.29169 69.3467 7.29169 68.5417C7.29169 67.7367 7.94502 67.0834 8.75002 67.0834H46.4159C47.3434 67.0834 47.6904 66.3717 47.775 66.153C47.8596 65.9342 48.0813 65.1701 47.3959 64.5459L26.4775 45.5292C25.13 44.3013 24.6838 42.4113 25.34 40.7138C25.9963 39.0134 27.5975 37.9167 29.4175 37.9167H55.4167C56.2217 37.9167 56.875 38.5701 56.875 39.3751C56.875 40.1801 56.2217 40.8334 55.4167 40.8334H29.4175C28.49 40.8334 28.1429 41.5451 28.0584 41.7638C27.9738 41.9826 27.7521 42.7467 28.4375 43.3709L49.3559 62.3876C50.7034 63.6155 51.1496 65.5055 50.4934 67.203C49.8371 68.9034 48.2359 70.0001 46.4159 70.0001Z" fill="#DDD8D8"/>
<path d="M8.74998 55.4166C7.1429 55.4166 5.83331 54.1099 5.83331 52.4999C5.83331 50.8899 7.1429 49.5833 8.74998 49.5833C10.3571 49.5833 11.6666 50.8899 11.6666 52.4999C11.6666 54.1099 10.3571 55.4166 8.74998 55.4166ZM8.74998 52.497C8.74998 52.497 8.74998 52.4999 8.74998 52.497L10.2083 52.4999L8.74998 52.497Z" fill="#DDD8D8"/>
</g>
<defs>
<clipPath id="clip0">
<rect width="70" height="70" fill="white"/>
</clipPath>
</defs>
</svg>
