<svg width="260" height="259" viewBox="0 0 260 259" fill="none" xmlns="http://www.w3.org/2000/svg">
<path d="M0 205.833H157.083V258.733L189.583 239.233L222.083 258.733V205.833H260V0H0V205.833ZM212.685 169.076C212.198 169.569 211.678 170.024 211.163 170.484C210.871 170.744 210.6 171.02 210.297 171.27C209.961 171.551 209.603 171.79 209.257 172.055C204.69 175.549 199.187 177.873 193.18 178.539C193.083 178.55 192.985 178.571 192.882 178.582C191.793 178.69 190.688 178.75 189.573 178.75C188.457 178.75 187.352 178.69 186.263 178.582C186.165 178.571 186.068 178.55 185.965 178.539C179.958 177.873 174.46 175.549 169.888 172.055C169.542 171.79 169.184 171.546 168.848 171.27C168.55 171.02 168.274 170.744 167.982 170.484C167.467 170.024 166.952 169.569 166.46 169.076C160.658 163.204 157.062 155.144 157.062 146.25C157.062 128.326 171.638 113.75 189.562 113.75C207.485 113.75 222.062 128.326 222.062 146.25C222.083 155.139 218.492 163.199 212.685 169.076ZM211.25 239.601L189.583 226.601L167.917 239.601V205.833V183.788C168.101 183.896 168.307 183.966 168.496 184.069C169.932 184.871 171.41 185.608 172.938 186.247C173.003 186.274 173.073 186.295 173.144 186.323C178.219 188.413 183.766 189.583 189.589 189.583C195.412 189.583 200.958 188.413 206.034 186.323C206.099 186.295 206.169 186.274 206.24 186.247C207.767 185.608 209.246 184.876 210.681 184.069C210.871 183.966 211.077 183.896 211.261 183.788V205.833V239.601H211.25ZM10.8333 10.8333H249.167V195H222.083V174.818C228.805 167.18 232.917 157.197 232.917 146.25C232.917 122.357 213.476 102.917 189.583 102.917C165.69 102.917 146.25 122.357 146.25 146.25C146.25 157.197 150.361 167.18 157.083 174.818V195H10.8333V10.8333Z" fill="#EEEEEE"/>
<path d="M200.417 32.5H59.5837V43.3333H200.417V32.5Z" fill="#EEEEEE"/>
<path d="M173.333 65H86.6667V75.8333H173.333V65Z" fill="#EEEEEE"/>
<path d="M92.0833 162.5H32.5V173.333H92.0833V162.5Z" fill="#EEEEEE"/>
</svg>
