<svg width="70" height="70" viewBox="0 0 70 70" fill="none" xmlns="http://www.w3.org/2000/svg">
<path d="M0 55.4167H42.2917V69.6587L51.0417 64.4087L59.7917 69.6587V55.4167H70V0H0V55.4167ZM57.2615 45.5204C57.1302 45.6531 56.9902 45.7756 56.8517 45.8996C56.7729 45.9696 56.7 46.044 56.6183 46.111C56.5279 46.1869 56.4317 46.251 56.3383 46.3225C55.109 47.2631 53.6273 47.8887 52.01 48.0681C51.9838 48.071 51.9575 48.0769 51.9298 48.0798C51.6367 48.109 51.3392 48.125 51.0388 48.125C50.7383 48.125 50.4408 48.109 50.1477 48.0798C50.1215 48.0769 50.0952 48.071 50.0675 48.0681C48.4502 47.8887 46.97 47.2631 45.7392 46.3225C45.6458 46.251 45.5496 46.1854 45.4592 46.111C45.379 46.044 45.3046 45.9696 45.2258 45.8996C45.0873 45.7756 44.9488 45.6531 44.816 45.5204C43.2542 43.9396 42.2858 41.7696 42.2858 39.375C42.2858 34.5494 46.2102 30.625 51.0358 30.625C55.8615 30.625 59.7858 34.5494 59.7858 39.375C59.7917 41.7681 58.8248 43.9381 57.2615 45.5204ZM56.875 64.5079L51.0417 61.0079L45.2083 64.5079V55.4167V49.4812C45.2579 49.5104 45.3133 49.5294 45.3644 49.5571C45.7508 49.7729 46.149 49.9712 46.5602 50.1433C46.5777 50.1506 46.5967 50.1565 46.6156 50.1637C47.9821 50.7267 49.4754 51.0417 51.0431 51.0417C52.6108 51.0417 54.1042 50.7267 55.4706 50.1637C55.4881 50.1565 55.5071 50.1506 55.526 50.1433C55.9373 49.9712 56.3354 49.7744 56.7219 49.5571C56.7729 49.5294 56.8283 49.5104 56.8779 49.4812V55.4167V64.5079H56.875ZM2.91667 2.91667H67.0833V52.5H59.7917V47.0662C61.6015 45.01 62.7083 42.3223 62.7083 39.375C62.7083 32.9423 57.4744 27.7083 51.0417 27.7083C44.609 27.7083 39.375 32.9423 39.375 39.375C39.375 42.3223 40.4819 45.01 42.2917 47.0662V52.5H2.91667V2.91667Z" fill="#DDD8D8"/>
<path d="M53.9583 8.75H16.0417V11.6667H53.9583V8.75Z" fill="#DDD8D8"/>
<path d="M46.6666 17.5H23.3333V20.4167H46.6666V17.5Z" fill="#DDD8D8"/>
<path d="M24.7917 43.7501H8.75003V46.6668H24.7917V43.7501Z" fill="#DDD8D8"/>
</svg>
