<svg width="60" height="58" viewBox="0 0 60 58" fill="none" xmlns="http://www.w3.org/2000/svg">
<path fill-rule="evenodd" clip-rule="evenodd" d="M43.2 38.4H57.6V55.2H2.4V38.4H16.8V42C16.8 45.3137 19.4767 48 22.7906 48H37.2094C40.5179 48 43.2 45.3368 43.2 42V38.4ZM0 37.2V36L7.2 24.48V4.81187C7.2 2.15286 9.352 0 12.0066 0H38.4L52.8 16.8V18V24.48L60 36V57.6H0V37.2ZM7.2 36V29.1839L2.93994 36H7.2ZM52.8 36V29.1839L57.0601 36H52.8ZM9.6 36V4.80737C9.6 3.4534 10.6698 2.4 11.9894 2.4H36V14.3858C36 17.0723 38.1468 19.2 40.795 19.2H50.4V36H9.6ZM38.4 3.6V14.3789C38.4 15.716 39.4816 16.8 40.7922 16.8H49.6799L38.4 3.6ZM19.2 38.4V42C19.2 43.9882 20.8235 45.6 22.8154 45.6H37.1846C39.1814 45.6 40.8 44.0021 40.8 42V38.4H19.2ZM14.4 26.4V28.8H45.6V26.4H14.4ZM14.4 7.2V9.6H31.2V7.2H14.4ZM14.4 16.8V19.2H31.2V16.8H14.4Z" fill="#DDD8D8"/>
</svg>
