<svg width="70" height="70" viewBox="0 0 70 70" fill="none" xmlns="http://www.w3.org/2000/svg">
<path d="M43.1102 19.5999H12.3102V22.3999H43.1102V19.5999Z" fill="#DDD8D8"/>
<path d="M43.1102 28H12.3102V30.8H43.1102V28Z" fill="#DDD8D8"/>
<path d="M36.1102 36.3999H12.3102V39.1999H36.1102V36.3999Z" fill="#DDD8D8"/>
<path d="M29.1102 44.7998H12.3102V47.5998H29.1102V44.7998Z" fill="#DDD8D8"/>
<path d="M29.1102 53.2H12.3102V56H29.1102V53.2Z" fill="#DDD8D8"/>
<path d="M54.3102 26.0203V12.0203L43.6898 1.3999H1.1102V68.5999H54.3102V43.9795L68.8898 29.3999L59.9102 20.4203L54.3102 26.0203ZM52.9102 31.3795L57.9306 36.3999L41.1306 53.1999H36.1102V48.1795L52.9102 31.3795ZM44.5102 6.1795L49.5306 11.1999H44.5102V6.1795ZM51.5102 65.7999H3.9102V4.1999H41.7102V13.9999H51.5102V28.8203L33.3102 47.0203V55.9999H42.2898L51.5102 46.7795V65.7999ZM59.9102 34.4203L54.8898 29.3999L59.9102 24.3795L64.9306 29.3999L59.9102 34.4203Z" fill="#DDD8D8"/>
</svg>
