<svg width="59" height="60" viewBox="0 0 59 60" fill="none" xmlns="http://www.w3.org/2000/svg">
<g clip-path="url(#clip0)">
<path d="M57.8261 38.8044C57.6087 38.587 57.2826 38.4783 56.8478 38.4783C56.413 38.4783 56.087 38.587 55.8696 38.9131L41.3043 55.1087L33.587 47.6087C33.3696 47.3913 33.0435 47.2826 32.6087 47.2826C32.2826 47.2826 31.8478 47.3913 31.6304 47.7174C31.413 47.9348 31.1957 48.3696 31.3043 48.6957C31.3043 49.0217 31.413 49.4565 31.7391 49.6739L40.5435 58.1522C40.7609 58.3696 41.087 58.4783 41.5217 58.4783C41.8478 58.4783 42.2826 58.2609 42.5 58.0435L57.9348 40.8696C58.1522 40.5435 58.3696 40.2174 58.3696 39.7826C58.2609 39.4565 58.1522 39.1304 57.8261 38.8044Z" fill="#DDD8D8"/>
<path d="M37.8261 29.7825C37.8261 29.0217 37.1739 28.3695 36.413 28.3695H13.913C13.1522 28.3695 12.5 29.0217 12.5 29.7825C12.5 30.5434 13.1522 31.1956 13.913 31.1956H36.5217C37.2826 31.1956 37.8261 30.5434 37.8261 29.7825Z" fill="#DDD8D8"/>
<path d="M23.1522 57.2826H2.71739V2.71739H46.8478V31.8478C46.8478 32.6087 47.5 33.2609 48.2609 33.2609C49.0217 33.2609 49.6739 32.6087 49.6739 31.8478V1.41304C49.5652 0.652174 48.913 0 48.1522 0H1.41304C0.652174 0 0 0.652174 0 1.41304V58.6956C0 59.4565 0.652174 60.1087 1.41304 60.1087H23.1522C23.913 60.1087 24.5652 59.4565 24.5652 58.6956C24.4565 57.9348 23.913 57.2826 23.1522 57.2826Z" fill="#DDD8D8"/>
<path d="M13.913 17.3914H36.5217C37.2826 17.3914 37.9348 16.7392 37.9348 15.9784C37.9348 15.2175 37.2826 14.5653 36.5217 14.5653H13.913C13.1522 14.5653 12.5 15.2175 12.5 15.9784C12.5 16.7392 13.1522 17.3914 13.913 17.3914Z" fill="#DDD8D8"/>
<path d="M13.913 41.8478C13.1522 41.8478 12.5 42.5 12.5 43.2608C12.5 44.0217 13.1522 44.6739 13.913 44.6739H20.6522C21.413 44.6739 22.0652 44.0217 22.0652 43.2608C22.0652 42.5 21.413 41.8478 20.6522 41.8478H13.913Z" fill="#DDD8D8"/>
</g>
<defs>
<clipPath id="clip0">
<rect width="58.2609" height="60" fill="white"/>
</clipPath>
</defs>
</svg>
