<svg width="52" height="64" viewBox="0 0 52 64" fill="none" xmlns="http://www.w3.org/2000/svg">
<path d="M51.125 28.451C50.75 28.2 50.125 28.3255 49.75 28.5765L40.125 36.2323V28.953C40.125 28.451 39.875 28.0745 39.5 27.8235C39.125 27.5725 38.625 27.698 38.25 27.949L26.5 36.4833L25.875 28.5765C25.875 28.2 25.625 27.698 25.25 27.5725C24.875 27.3215 24.375 27.447 24 27.5725L9.875 36.1068V24.5604C10.75 24.0584 11.5 23.4309 12 22.5523C12.625 22.8033 13.375 22.8033 14.125 22.8033C16.875 22.8033 19.25 21.2973 20.5 19.0382C20.875 19.0382 21.25 19.1637 21.75 19.1637C26.875 19.1637 31 15.0221 31 9.87642C31 4.73076 26.875 0.463623 21.75 0.463623C17.125 0.463623 13.375 3.72673 12.625 8.24487C9.375 8.87239 7 11.6335 6.75 15.0221C4.375 15.3986 2.5 17.5322 2.5 20.0423C2.5 20.1678 2.5 20.2933 2.5 20.2933H1.25C0.5 20.2933 0 20.7953 0 21.5483V61.9606C0 62.7136 0.5 63.2156 1.25 63.2156H50.625C51.375 63.2156 51.875 62.7136 51.875 61.9606V29.5806C51.75 29.0785 51.5 28.702 51.125 28.451ZM5 20.0423C5 18.5362 6.125 17.4067 7.625 17.4067C7.75 17.4067 7.875 17.4067 8 17.4067C8.375 17.4067 8.75 17.2812 9 17.0302C9.25 16.7791 9.375 16.4026 9.375 16.0261C9.375 15.7751 9.375 15.6496 9.375 15.3986C9.375 12.8885 11.375 10.6294 13.875 10.5039C14.5 10.5039 15 10.0019 15 9.37441C15.125 5.73479 18.125 2.9737 21.75 2.9737C25.5 2.9737 28.5 5.9858 28.5 9.87642C28.5 13.6415 25.5 16.6536 21.75 16.6536C21.25 16.6536 20.625 16.5281 20.125 16.4026C19.5 16.2771 18.875 16.5281 18.625 17.1557C17.875 19.0382 16.125 20.2933 14.125 20.2933C13.375 20.2933 12.625 20.1678 11.875 19.7912C11.5 19.6657 11.125 19.6657 10.75 19.7912C10.375 19.9167 10.125 20.2933 10 20.6698C10 20.9208 9.875 21.1718 9.75 21.4228C9.625 20.7953 9.125 20.4188 8.5 20.4188H4.875C5 20.2933 5 20.1678 5 20.0423ZM4 22.8033H7.375V24.8114H2.5V22.8033H4ZM49.25 60.7056H2.5V27.447H7.375V38.3658C7.375 38.8679 7.625 39.2444 8 39.4954C8.375 39.7464 8.875 39.7464 9.25 39.4954L23.5 30.9611L24.125 38.9934C24.125 39.4954 24.375 39.8719 24.875 39.9974C25.25 40.2484 25.75 40.1229 26.125 39.8719L37.75 31.4631V38.8679C37.75 39.3699 38 39.7464 38.5 39.9974C38.875 40.2484 39.5 40.1229 39.875 39.8719L49.5 32.2161V60.7056H49.25Z" fill="#DDD8D8"/>
<path d="M41.25 56.9405H46.625C47.375 56.9405 47.875 56.4384 47.875 55.6854V50.2887C47.875 49.5357 47.375 49.0337 46.625 49.0337H41.25C40.5 49.0337 40 49.5357 40 50.2887V55.6854C40 56.4384 40.5 56.9405 41.25 56.9405ZM42.5 51.5438H45.375V54.4304H42.5V51.5438Z" fill="#DDD8D8"/>
<path d="M25.5 49.0337H20.125C19.375 49.0337 18.875 49.5357 18.875 50.2887V55.6854C18.875 56.4384 19.375 56.9405 20.125 56.9405H25.5C26.25 56.9405 26.75 56.4384 26.75 55.6854V50.2887C26.75 49.6612 26.125 49.0337 25.5 49.0337ZM24.25 54.4304H21.375V51.5438H24.25V54.4304Z" fill="#DDD8D8"/>
<path d="M15 42.2563H9.625C8.875 42.2563 8.375 42.7584 8.375 43.5114V48.9081C8.375 49.6611 8.875 50.1631 9.625 50.1631H15C15.75 50.1631 16.25 49.6611 16.25 48.9081V43.5114C16.25 42.8839 15.625 42.2563 15 42.2563ZM13.75 47.7785H10.875V44.8919H13.75V47.7785Z" fill="#DDD8D8"/>
<path d="M36 42.2563H30.625C29.875 42.2563 29.375 42.7584 29.375 43.5114V48.9081C29.375 49.6611 29.875 50.1631 30.625 50.1631H36C36.75 50.1631 37.25 49.6611 37.25 48.9081V43.5114C37.25 42.8839 36.75 42.2563 36 42.2563ZM34.75 47.7785H31.875V44.8919H34.75V47.7785Z" fill="#DDD8D8"/>
</svg>
