<svg width="60" height="60" viewBox="0 0 60 60" fill="none" xmlns="http://www.w3.org/2000/svg">
<path d="M49.9627 52.2607H10.1189C5.59571 52.2607 1.91579 48.5809 1.91579 44.0576V20.6201C1.91579 16.0969 5.59571 12.417 10.1189 12.417H49.9627C54.486 12.417 58.1658 16.0969 58.1658 20.6201V44.0576C58.1658 48.5809 54.4859 52.2607 49.9627 52.2607ZM10.1188 14.7609C6.88794 14.7609 4.25942 17.3894 4.25942 20.6202V44.0577C4.25942 47.2886 6.88794 49.9171 10.1188 49.9171H49.9625C53.1934 49.9171 55.8219 47.2886 55.8219 44.0577V20.6202C55.8219 17.3894 53.1934 14.7609 49.9625 14.7609H10.1188Z" fill="#DDD8D8"/>
<path d="M18.3219 56.9482H11.2907C9.99833 56.9482 8.94692 55.8968 8.94692 54.6045V51.0889C8.94692 50.4418 9.47157 49.917 10.1188 49.917H19.4938C20.141 49.917 20.6657 50.4418 20.6657 51.0889V54.6045C20.6657 55.8968 19.6143 56.9482 18.3219 56.9482ZM11.2907 52.2607V54.6045H18.3219C18.323 54.6045 18.3234 54.6044 18.3234 54.6044L18.3225 52.2607H11.2907Z" fill="#DDD8D8"/>
<path d="M49.9627 56.9482H42.9314C41.6391 56.9482 40.5877 55.8968 40.5877 54.6045V51.0889C40.5877 50.4418 41.1124 49.917 41.7595 49.917H51.1345C51.7816 49.917 52.3064 50.4418 52.3064 51.0889V54.6045C52.3064 55.8968 51.255 56.9482 49.9627 56.9482ZM42.9314 52.2607V54.6045H49.9627C49.9637 54.6045 49.9642 54.6044 49.9642 54.6044L49.9631 52.2607H42.9314Z" fill="#DDD8D8"/>
<path d="M44.1033 14.7607H15.9783C15.3311 14.7607 14.8064 14.2361 14.8064 13.5889V11.2451C14.8064 6.72191 18.4863 3.04199 23.0095 3.04199H37.072C41.5952 3.04199 45.2752 6.72191 45.2752 11.2451V13.5889C45.2752 14.236 44.7504 14.7607 44.1033 14.7607ZM17.15 12.417H42.9313V11.2451C42.9313 8.01426 40.3028 5.38574 37.0719 5.38574H23.0094C19.7786 5.38574 17.15 8.01426 17.15 11.2451V12.417Z" fill="#DDD8D8"/>
<path d="M34.7283 47.5732H25.3533C24.7061 47.5732 24.1814 47.0485 24.1814 46.4014V38.1982H15.9783C15.3311 38.1982 14.8064 37.6735 14.8064 37.0264V27.6514C14.8064 27.0041 15.3311 26.4795 15.9783 26.4795H24.1814V18.2764C24.1814 17.6291 24.7061 17.1045 25.3533 17.1045H34.7283C35.3754 17.1045 35.9002 17.6291 35.9002 18.2764V26.4795H44.1033C44.7504 26.4795 45.2752 27.0041 45.2752 27.6514V37.0264C45.2752 37.6735 44.7504 38.1982 44.1033 38.1982H35.9002V46.4014C35.9002 47.0486 35.3754 47.5732 34.7283 47.5732ZM26.525 45.2295H33.5563V37.0264C33.5563 36.3793 34.0811 35.8545 34.7282 35.8545H42.9313V28.8232H34.7282C34.0811 28.8232 33.5563 28.2986 33.5563 27.6514V19.4482H26.525V27.6514C26.525 28.2986 26.0004 28.8232 25.3532 28.8232H17.15V35.8545H25.3532C26.0004 35.8545 26.525 36.3793 26.525 37.0264V45.2295Z" fill="#DDD8D8"/>
<path d="M30.0407 42.8857C29.3934 42.8857 28.8688 42.361 28.8688 41.7139V22.9639C28.8688 22.3166 29.3934 21.792 30.0407 21.792C30.6879 21.792 31.2125 22.3166 31.2125 22.9639V41.7139C31.2127 42.3611 30.6879 42.8857 30.0407 42.8857Z" fill="#DDD8D8"/>
<path d="M39.4158 33.5107H20.6658C20.0186 33.5107 19.4939 32.986 19.4939 32.3389C19.4939 31.6918 20.0186 31.167 20.6658 31.167H39.4158C40.0629 31.167 40.5877 31.6918 40.5877 32.3389C40.5877 32.986 40.0629 33.5107 39.4158 33.5107Z" fill="#DDD8D8"/>
</svg>
