<svg width="65" height="65" viewBox="0 0 65 65" fill="none" xmlns="http://www.w3.org/2000/svg">
<path d="M32.5 2.6001C15.9887 2.6001 2.59998 15.9875 2.59998 32.5001C2.59998 49.0127 15.9887 62.4001 32.5 62.4001C49.0113 62.4001 62.4 49.0127 62.4 32.5001C62.4 15.9875 49.0113 2.6001 32.5 2.6001Z" stroke="#DDD8D8" stroke-width="2" stroke-miterlimit="10" stroke-linecap="round" stroke-linejoin="round"/>
<path d="M24.323 45.1345L19.2413 29.4539L32.5338 19.7637L45.8289 29.4539L40.7524 45.1345H24.323Z" stroke="#DDD8D8" stroke-width="2" stroke-miterlimit="10" stroke-linecap="round" stroke-linejoin="round"/>
<path d="M43.8594 4.92432L32.5338 9.75642L21.2108 4.92432" stroke="#DDD8D8" stroke-width="2" stroke-miterlimit="10" stroke-linecap="round" stroke-linejoin="round"/>
<path d="M9.93979 13.1377L11.0279 25.4396L2.94189 34.7476" stroke="#DDD8D8" stroke-width="2" stroke-miterlimit="10" stroke-linecap="round" stroke-linejoin="round"/>
<path d="M7.24878 48.0439L19.2439 50.8064L25.5736 61.3962" stroke="#DDD8D8" stroke-width="2" stroke-miterlimit="10" stroke-linecap="round" stroke-linejoin="round"/>
<path d="M39.5044 61.3966L45.8289 50.8016L57.8201 48.0391" stroke="#DDD8D8" stroke-width="2" stroke-miterlimit="10" stroke-linecap="round" stroke-linejoin="round"/>
<path d="M62.1309 34.745L54.0384 25.4318L55.1252 13.1377" stroke="#DDD8D8" stroke-width="2" stroke-miterlimit="10" stroke-linecap="round" stroke-linejoin="round"/>
<path d="M32.5338 9.75635V19.7637" stroke="#DDD8D8" stroke-width="2" stroke-miterlimit="10" stroke-linecap="round" stroke-linejoin="round"/>
<path d="M45.8289 29.843L54.0384 25.4321" stroke="#DDD8D8" stroke-width="2" stroke-miterlimit="10" stroke-linecap="round" stroke-linejoin="round"/>
<path d="M40.7524 45.1348L45.8289 50.8015" stroke="#DDD8D8" stroke-width="2" stroke-miterlimit="10" stroke-linecap="round" stroke-linejoin="round"/>
<path d="M24.323 45.1348L19.2439 50.8067" stroke="#DDD8D8" stroke-width="2" stroke-miterlimit="10" stroke-linecap="round" stroke-linejoin="round"/>
<path d="M11.0279 25.4399L19.2413 29.4543" stroke="#DDD8D8" stroke-width="2" stroke-miterlimit="10" stroke-linecap="round" stroke-linejoin="round"/>
</svg>
