<svg width="52" height="62" viewBox="0 0 52 62" fill="none" xmlns="http://www.w3.org/2000/svg">
<path d="M47 56V39C47 36.243 44.757 34 42 34H40V31.158C40 29.929 39.657 28.758 39.073 27.727C40.388 27.41 41.386 26.924 41.447 26.894L42.844 26.195L41.624 25.218C37.08 21.584 37 16.053 37 15.997H36.949C36.979 15.668 37 15.337 37 15V8C37 5.243 34.757 3 32 3H31.535L31.02 2.227C30.09 0.832 28.535 0 26.859 0H24C19.037 0 15 4.037 15 9V15C15 15.338 15.021 15.67 15.051 16H15C15 16.056 14.947 21.562 10.375 25.219L9.155 26.196L10.552 26.895C10.613 26.925 11.611 27.41 12.926 27.728C12.343 28.758 12 29.929 12 31.158V34H10C7.243 34 5 36.243 5 39V56H0V59C0 60.654 1.346 62 3 62H49C50.654 62 52 60.654 52 59V56H47ZM31.414 34L33.217 32.197L32.41 30.584L35.322 29.613L33.946 26.173L34.756 26.477C36.696 27.204 38 29.085 38 31.158V34H31.414ZM23.414 34L21.217 31.803L22.41 29.416L19.322 28.387L20.588 25.223L21.286 24.961L24.573 34H23.414ZM35 15H32.816C32.402 13.839 31.302 13 30 13C28.698 13 27.598 13.839 27.184 15H24.815C24.401 13.839 23.301 13 21.999 13C20.697 13 19.597 13.839 19.183 15H17V13.618L18.336 12.95C19.579 12.328 20.971 12 22.36 12H26.183C27.57 12 28.912 11.594 30.066 10.824L30.886 10.277C32.039 11.285 33.472 11.874 34.999 11.978V15H35ZM31 16C31 16.552 30.552 17 30 17C29.448 17 29 16.552 29 16C29 15.448 29.448 15 30 15C30.552 15 31 15.448 31 16ZM23 16C23 16.552 22.552 17 22 17C21.448 17 21 16.552 21 16C21 15.448 21.448 15 22 15C22.552 15 23 15.448 23 16ZM19.184 17C19.598 18.161 20.698 19 22 19C23.302 19 24.402 18.161 24.816 17H27.185C27.599 18.161 28.699 19 30.001 19C31.303 19 32.403 18.161 32.817 17H34.77C33.857 21.002 30.276 24 26.002 24C21.728 24 18.147 21.002 17.234 17H19.184ZM28.298 25.754L26 32.075L23.702 25.755C24.444 25.913 25.212 26 26 26C26.788 26 27.556 25.913 28.298 25.754ZM30.714 24.961L31.412 25.223L32.678 28.387L29.59 29.416L30.783 31.803L28.586 34H27.427L30.714 24.961ZM39.122 25.649C38.681 25.782 38.173 25.899 37.651 25.958C37.016 25.387 36.285 24.913 35.458 24.603L32.941 23.659L32.929 23.628L32.895 23.641L32.82 23.613C34.029 22.654 35.032 21.448 35.752 20.069C36.326 21.799 37.337 23.831 39.122 25.649ZM24 2H26.859C27.864 2 28.797 2.499 29.355 3.336L30.465 5H32C33.654 5 35 6.346 35 8V9.953C33.849 9.842 32.777 9.363 31.949 8.536L31.127 7.714L28.957 9.161C28.133 9.71 27.174 10 26.184 10H22.36C20.662 10 18.961 10.401 17.441 11.161L17 11.382V9C17 5.141 20.141 2 24 2ZM16.248 20.07C16.968 21.449 17.97 22.654 19.18 23.614L19.105 23.642L19.071 23.629L19.059 23.66L16.543 24.604C15.716 24.914 14.985 25.388 14.349 25.959C13.827 25.9 13.318 25.783 12.878 25.65C14.663 23.831 15.674 21.799 16.248 20.07ZM14 31.158C14 29.085 15.304 27.204 17.245 26.476L18.053 26.173L16.677 29.613L19.589 30.584L18.782 32.197L20.586 34H14V31.158ZM7 39C7 37.346 8.346 36 10 36H42C43.654 36 45 37.346 45 39V56H7V39ZM50 59C50 59.552 49.552 60 49 60H3C2.448 60 2 59.552 2 59V58H50V59Z" fill="#DDD8D8"/>
<path d="M26 42C23.243 42 21 44.243 21 47C21 49.757 23.243 52 26 52C28.757 52 31 49.757 31 47C31 44.243 28.757 42 26 42ZM26 50C24.346 50 23 48.654 23 47C23 45.346 24.346 44 26 44C27.654 44 29 45.346 29 47C29 48.654 27.654 50 26 50Z" fill="#DDD8D8"/>
</svg>
