<svg width="70" height="50" viewBox="0 0 70 50" fill="none" xmlns="http://www.w3.org/2000/svg">
<path d="M69.9703 47.343L66.4256 32.0005C66.351 31.6683 66.1656 31.3716 65.9002 31.1595C65.6348 30.9474 65.3052 30.8326 64.966 30.8341H58.532L55.2554 16.658C55.1807 16.3258 54.9954 16.0291 54.73 15.817C54.4646 15.6049 54.135 15.4901 53.7958 15.4917H47.3618L44.0852 1.31557C44.0117 0.988304 43.8308 0.695347 43.5714 0.483797C43.3121 0.272247 42.9895 0.154394 42.6554 0.149185H27.3745C27.0353 0.147653 26.7057 0.262429 26.4403 0.474526C26.1749 0.686623 25.9896 0.983332 25.9149 1.31557L22.6384 15.4917H16.2043C15.8651 15.4901 15.5355 15.6049 15.2701 15.817C15.0047 16.0291 14.8194 16.3258 14.7447 16.658L11.4681 30.8341H5.0341C4.69489 30.8326 4.36532 30.9474 4.09991 31.1595C3.83449 31.3716 3.64915 31.6683 3.57452 32.0005L5.49704e-05 47.343C-0.0492251 47.5624 -0.0485865 47.7901 0.00192319 48.0092C0.0524329 48.2283 0.151513 48.4331 0.291787 48.6085C0.432061 48.7838 0.609917 48.9251 0.812114 49.0219C1.01431 49.1186 1.23564 49.1683 1.45963 49.1673H68.5107C68.7347 49.1683 68.956 49.1186 69.1582 49.0219C69.3604 48.9251 69.5383 48.7838 69.6785 48.6085C69.8188 48.4331 69.9179 48.2283 69.9684 48.0092C70.0189 47.7901 70.0195 47.5624 69.9703 47.343ZM55.4639 30.8341H36.8767L39.8554 18.4824H52.7532L55.4639 30.8341ZM46.1703 41.0325L44.5022 33.8249H47.8086L46.1703 41.0325ZM35.0001 25.6901L33.332 18.4824H36.6384L35.0001 25.6901ZM28.5362 3.13992H41.4341L44.4128 15.4917H25.7064L28.5362 3.13992ZM17.366 18.4824H30.2639L33.2426 30.8341H14.5362L17.366 18.4824ZM23.8298 41.0325L22.1618 33.8249H25.4979L23.8298 41.0325ZM3.36601 46.1766L6.34474 33.8249H19.1235L22.1022 46.1766H3.36601ZM25.7064 46.1766L28.6852 33.8249H41.583L44.5618 46.1766H25.7064ZM48.0469 46.1766L51.0256 33.8249H63.9235L66.9022 46.1766H48.0469Z" fill="#DDD8D8"/>
</svg>
