<svg width="70" height="70" viewBox="0 0 70 70" fill="none" xmlns="http://www.w3.org/2000/svg">
<g clip-path="url(#clip0)">
<path d="M64.742 0H5.24935C3.85713 0 2.52194 0.553055 1.5375 1.5375C0.553055 2.52194 0 3.85713 0 5.24935V43.7446C0 45.1368 0.553055 46.472 1.5375 47.4564C2.52194 48.4409 3.85713 48.9939 5.24935 48.9939H19.9125L10.6737 67.4716C10.478 67.8906 10.4525 68.3691 10.6026 68.8065C10.7528 69.2439 11.0668 69.6059 11.4786 69.8163C11.72 69.9282 11.9824 69.9878 12.2485 69.9913C12.6054 70.027 12.9647 69.9522 13.2777 69.7769C13.5907 69.6016 13.8422 69.3344 13.9983 69.0114L18.5827 59.4926H51.4086L56.168 69.0114C56.3123 69.3059 56.5365 69.5539 56.8149 69.7272C57.0934 69.9004 57.4149 69.992 57.7428 69.9913C58.0089 69.9878 58.2713 69.9282 58.5127 69.8163C58.9245 69.6059 59.2385 69.2439 59.3887 68.8065C59.5388 68.3691 59.5134 67.8906 59.3176 67.4716L50.0788 48.9939H64.742C66.1342 48.9939 67.4694 48.4409 68.4538 47.4564C69.4382 46.472 69.9913 45.1368 69.9913 43.7446V5.24935C69.9913 3.85713 69.4382 2.52194 68.4538 1.5375C67.4694 0.553055 66.1342 0 64.742 0ZM20.3325 55.993L23.832 48.9939H46.1593L49.6588 55.993H20.3325ZM66.4917 43.7446C66.4917 44.2086 66.3074 44.6537 65.9792 44.9818C65.6511 45.31 65.206 45.4943 64.742 45.4943H5.24935C4.78528 45.4943 4.34021 45.31 4.01206 44.9818C3.68392 44.6537 3.49957 44.2086 3.49957 43.7446V5.24935C3.49957 4.78528 3.68392 4.34021 4.01206 4.01206C4.34021 3.68392 4.78528 3.49957 5.24935 3.49957H64.742C65.206 3.49957 65.6511 3.68392 65.9792 4.01206C66.3074 4.34021 66.4917 4.78528 66.4917 5.24935V43.7446Z" fill="#E1DDDD"/>
<path d="M56.5179 11.0238L40.245 27.2618L30.9711 18.023C30.814 17.8556 30.6243 17.7222 30.4136 17.631C30.203 17.5398 29.9758 17.4927 29.7463 17.4927C29.5167 17.4927 29.2896 17.5398 29.0789 17.631C28.8683 17.7222 28.6785 17.8556 28.5214 18.023L11.0236 35.5208C10.8562 35.6779 10.7228 35.8676 10.6316 36.0783C10.5404 36.2889 10.4933 36.5161 10.4933 36.7456C10.4933 36.9752 10.5404 37.2023 10.6316 37.413C10.7228 37.6236 10.8562 37.8134 11.0236 37.9705C11.1807 38.1379 11.3704 38.2713 11.5811 38.3625C11.7918 38.4537 12.0189 38.5007 12.2484 38.5007C12.478 38.5007 12.7051 38.4537 12.9158 38.3625C13.1265 38.2713 13.3162 38.1379 13.4733 37.9705L29.7463 21.7325L39.0201 30.9713C39.1772 31.1387 39.3669 31.2721 39.5776 31.3633C39.7883 31.4545 40.0154 31.5016 40.245 31.5016C40.4745 31.5016 40.7016 31.4545 40.9123 31.3633C41.123 31.2721 41.3127 31.1387 41.4698 30.9713L58.9676 13.4735C59.2925 13.1487 59.475 12.7081 59.475 12.2487C59.475 11.7893 59.2925 11.3487 58.9676 11.0238C58.6428 10.699 58.2022 10.5165 57.7428 10.5165C57.2834 10.5165 56.8428 10.699 56.5179 11.0238Z" fill="#E1DDDD"/>
</g>
<defs>
<clipPath id="clip0">
<rect width="69.9913" height="70" fill="white"/>
</clipPath>
</defs>
</svg>
