<svg width="70" height="70" viewBox="0 0 70 70" fill="none" xmlns="http://www.w3.org/2000/svg">
<path d="M68.2173 66.5017H62.9702V26.2742C62.9702 25.8103 62.7859 25.3654 62.4579 25.0374C62.1299 24.7094 61.6851 24.5251 61.2212 24.5251H50.727C50.2632 24.5251 49.8183 24.7094 49.4903 25.0374C49.1623 25.3654 48.978 25.8103 48.978 26.2742V66.5017H41.9819V40.2664C41.9819 39.8025 41.7976 39.3576 41.4696 39.0296C41.1416 38.7016 40.6968 38.5173 40.2329 38.5173H29.7388C29.2749 38.5173 28.83 38.7016 28.502 39.0296C28.174 39.3576 27.9897 39.8025 27.9897 40.2664V66.5017H20.9936V43.7644C20.9936 43.3005 20.8094 42.8557 20.4814 42.5277C20.1533 42.1997 19.7085 42.0154 19.2446 42.0154H8.75046C8.28659 42.0154 7.84172 42.1997 7.51371 42.5277C7.18571 42.8557 7.00144 43.3005 7.00144 43.7644V66.5017H1.75436C1.29049 66.5017 0.845624 66.686 0.517618 67.014C0.189613 67.342 0.00534058 67.7869 0.00534058 68.2508C0.00534058 68.7146 0.189613 69.1595 0.517618 69.4875C0.845624 69.8155 1.29049 69.9998 1.75436 69.9998H68.2173C68.6812 69.9998 69.126 69.8155 69.454 69.4875C69.782 69.1595 69.9663 68.7146 69.9663 68.2508C69.9663 67.7869 69.782 67.342 69.454 67.014C69.126 66.686 68.6812 66.5017 68.2173 66.5017ZM17.4956 66.5017H10.4995V45.5134H17.4956V66.5017ZM38.4839 66.5017H31.4878V42.0154H38.4839V66.5017ZM59.4722 66.5017H52.4761V28.0232H59.4722V66.5017Z" fill="#E3E3E3"/>
<path d="M1.75434 38.5176C1.98372 38.5204 2.21116 38.4751 2.42201 38.3848C2.63287 38.2944 2.82248 38.1609 2.97865 37.9929L19.4195 21.587L32.1874 31.1717C32.5218 31.4265 32.9383 31.5494 33.3575 31.5172C33.7768 31.4849 34.1695 31.2997 34.4611 30.9968L59.4721 6.02069V12.2822C59.4721 12.7461 59.6564 13.1909 59.9844 13.5189C60.3124 13.847 60.7573 14.0312 61.2212 14.0312C61.685 14.0312 62.1299 13.847 62.4579 13.5189C62.7859 13.1909 62.9702 12.7461 62.9702 12.2822V1.78806C63.0222 1.56957 63.0222 1.34191 62.9702 1.12343C62.8814 0.873419 62.738 0.646353 62.5505 0.458763C62.3629 0.271173 62.1358 0.127782 61.8858 0.039031C61.6673 -0.0130103 61.4396 -0.0130103 61.2212 0.039031H50.727C50.2631 0.039031 49.8183 0.223303 49.4903 0.551309C49.1623 0.879314 48.978 1.32419 48.978 1.78806C48.978 2.25193 49.1623 2.6968 49.4903 3.0248C49.8183 3.35281 50.2631 3.53708 50.727 3.53708H56.9885L33.0619 27.4637L20.294 17.8791C19.9595 17.6243 19.5431 17.5013 19.1238 17.5335C18.7046 17.5658 18.3118 17.751 18.0203 18.054L0.53002 35.5442C0.362705 35.7013 0.229352 35.8909 0.138192 36.1015C0.0470317 36.3121 0 36.5391 0 36.7685C0 36.998 0.0470317 37.225 0.138192 37.4356C0.229352 37.6462 0.362705 37.8358 0.53002 37.9929C0.686193 38.1609 0.875804 38.2944 1.08666 38.3848C1.29752 38.4751 1.52495 38.5204 1.75434 38.5176Z" fill="#E3E3E3"/>
</svg>
