<svg width="260" height="260" viewBox="0 0 260 260" fill="none" xmlns="http://www.w3.org/2000/svg">
<path d="M253.378 247.007H233.889V97.5906C233.889 95.8676 233.204 94.2152 231.986 92.9969C230.768 91.7786 229.115 91.0942 227.392 91.0942H188.414C186.691 91.0942 185.039 91.7786 183.82 92.9969C182.602 94.2152 181.918 95.8676 181.918 97.5906V247.007H155.932V149.562C155.932 147.839 155.248 146.186 154.029 144.968C152.811 143.75 151.159 143.065 149.436 143.065H110.457C108.734 143.065 107.082 143.75 105.864 144.968C104.645 146.186 103.961 147.839 103.961 149.562V247.007H77.9756V162.554C77.9756 160.831 77.2911 159.179 76.0728 157.961C74.8545 156.742 73.2021 156.058 71.4792 156.058H32.5009C30.778 156.058 29.1256 156.742 27.9073 157.961C26.689 159.179 26.0045 160.831 26.0045 162.554V247.007H6.51542C4.79247 247.007 3.1401 247.692 1.92179 248.91C0.703482 250.128 0.019043 251.781 0.019043 253.504C0.019043 255.227 0.703482 256.879 1.92179 258.097C3.1401 259.316 4.79247 260 6.51542 260H253.378C255.101 260 256.753 259.316 257.971 258.097C259.19 256.879 259.874 255.227 259.874 253.504C259.874 251.781 259.19 250.128 257.971 248.91C256.753 247.692 255.101 247.007 253.378 247.007ZM64.9828 247.007H38.9973V169.051H64.9828V247.007ZM142.939 247.007H116.954V156.058H142.939V247.007ZM220.896 247.007H194.91V104.087H220.896V247.007Z" fill="#EBEBEB"/>
<path d="M6.51611 143.065C7.36812 143.076 8.21287 142.908 8.99605 142.572C9.77923 142.236 10.4835 141.74 11.0636 141.116L72.1295 80.1803L119.553 115.78C120.795 116.727 122.342 117.184 123.899 117.064C125.457 116.944 126.915 116.256 127.998 115.131L220.896 22.3626V45.6196C220.896 47.3425 221.581 48.9949 222.799 50.2132C224.018 51.4315 225.67 52.116 227.393 52.116C229.116 52.116 230.768 51.4315 231.987 50.2132C233.205 48.9949 233.889 47.3425 233.889 45.6196V6.64135C234.083 5.82982 234.083 4.98425 233.889 4.17272C233.56 3.24413 233.027 2.40074 232.33 1.70398C231.633 1.00721 230.79 0.474617 229.861 0.144972C229.05 -0.048324 228.204 -0.048324 227.393 0.144972H188.415C186.692 0.144972 185.039 0.829411 183.821 2.04772C182.603 3.26602 181.918 4.9184 181.918 6.64135C181.918 8.36429 182.603 10.0167 183.821 11.235C185.039 12.4533 186.692 13.1377 188.415 13.1377H211.672L122.801 102.008L75.3777 66.408C74.1354 65.4616 72.5885 65.0048 71.0313 65.1246C69.4742 65.2444 68.0154 65.9323 66.9324 67.0576L1.96864 132.021C1.34719 132.605 0.851878 133.309 0.513283 134.091C0.174689 134.873 0 135.717 0 136.569C0 137.421 0.174689 138.264 0.513283 139.047C0.851878 139.829 1.34719 140.533 1.96864 141.116C2.54872 141.74 3.25298 142.236 4.03616 142.572C4.81934 142.908 5.6641 143.076 6.51611 143.065Z" fill="#EBEBEB"/>
</svg>
