<svg width="90" height="45" viewBox="0 0 90 45" fill="none" xmlns="http://www.w3.org/2000/svg">
<path d="M12.6565 5.72992L23.726 5.88601L29.1892 4.5072C29.3063 4.48118 29.4168 4.46817 29.5274 4.46817V4.46167H40.5384L43.9529 0.669936L44.3757 0.20166H45H56.2516H56.6159L56.9541 0.396775L66.4757 5.89251L77.3501 5.83398V5.73642V4.33159H78.7549H88.6017H90.0065V5.73642V28.4543V29.8591H88.6017H78.7549H77.3501V28.4543V27.16H70.7617L63.666 30.5095L65.8058 32.7533C66.3391 33.3127 66.3131 34.2037 65.7537 34.737C65.6172 34.8671 65.4676 34.9581 65.305 35.0232L42.0083 44.7009C41.4814 44.922 40.8896 44.7919 40.4994 44.4147L20.5651 27.147L12.663 27.0039V28.4543V29.8591H11.2582H1.41136H0.00653076V28.4543V5.73642V4.33159H1.41136H11.2582H12.663V5.73642L12.6565 5.72992ZM85.7855 21.2936V24.1097H82.9694V21.2936H85.7855ZM7.03067 21.2936V24.1097H4.21451V21.2936H7.03067ZM77.3436 8.62412L66.0984 8.68265H65.7212L65.396 8.49404L55.8874 3.00481H45.6244L42.2814 6.7185L42.2749 6.725L42.2554 6.75102L42.1448 6.87459L32.1224 18.0091C31.9533 18.4319 31.9924 18.9327 32.1875 19.3945C32.3631 19.8107 32.6688 20.2074 33.059 20.5196C33.4557 20.8318 33.937 21.0659 34.4703 21.144C35.3809 21.2871 36.48 21.0139 37.6442 20.0774L37.7287 20.0188L46.4439 13.9898L47.4325 13.3069L48.2584 14.1849L61.6303 28.3567L69.8577 24.474L70.1503 24.3374H70.456H77.3501V8.62412H77.3436ZM87.1904 7.12824H80.1597V27.03H87.1904V7.12824ZM39.6539 34.9126C39.075 34.3988 39.023 33.5143 39.5303 32.9354C40.0441 32.3566 40.9286 32.3046 41.5075 32.8119L48.4536 38.9645L51.0226 37.8979L45.0521 32.6037C44.4732 32.0899 44.4212 31.2054 44.9285 30.6266C45.4423 30.0477 46.3268 29.9957 46.9056 30.503L53.8973 36.7012L56.7069 35.537L50.99 30.4705C50.4112 29.9567 50.3592 29.0722 50.8665 28.4933C51.3803 27.9145 52.2648 27.8624 52.8436 28.3697L59.5816 34.3403L62.3522 33.1891L60.9799 31.7517L60.9734 31.7582L60.2775 31.0233L60.271 31.0168L60.2515 30.9973L60.2255 30.9713L47.0227 16.9815L39.3612 22.2822C37.5206 23.7585 35.641 24.1683 34.0216 23.9146C32.9744 23.752 32.0444 23.3163 31.2965 22.7179C30.542 22.1196 29.9502 21.3391 29.5924 20.5001C29.0591 19.2449 29.0266 17.827 29.6835 16.5783L29.7681 16.4157L29.8851 16.2921L38.0019 7.27783H29.69L24.2398 8.65014V8.64363C24.1292 8.66965 24.0057 8.68916 23.8821 8.68265L12.65 8.52656V24.1943L21.1115 24.3439L21.196 24.3504L21.2415 24.3569L21.3196 24.3699L21.3586 24.3764L21.4041 24.3894L21.4366 24.3959L21.6057 24.4544L21.6318 24.4674C21.7618 24.5195 21.8854 24.5975 21.996 24.6951L41.7091 41.7741L45.5593 40.1742L39.6344 34.9256L39.6539 34.9126ZM9.84032 7.12824H2.80968V27.03H9.84032V7.12824Z" fill="#DDD8D8"/>
</svg>
