<svg width="71" height="70" viewBox="0 0 71 70" fill="none" xmlns="http://www.w3.org/2000/svg">
<path d="M68.6245 60.584C68.6245 60.584 68.5967 60.584 68.6245 60.584H68.5967C68.5688 60.5283 68.541 60.4726 68.4853 60.4447L58.3171 48.0201C65.8666 35.7069 64.028 19.5493 53.7763 9.24191C41.4909 -3.04343 21.489 -3.09914 9.14791 9.18619C-3.08171 21.4994 -3.05385 41.5014 9.25935 53.7588C19.5389 64.0106 35.6965 65.877 48.0376 58.2997L60.4065 68.4121C60.4622 68.4678 60.5736 68.5792 60.6293 68.6071C61.7158 69.5264 63.0251 70 64.3344 70C65.6716 70 66.9809 69.5264 68.0952 68.6071L68.6524 68.0778C68.736 67.9942 68.8195 67.8828 68.8753 67.7714C70.4632 65.6542 70.4074 62.6734 68.6245 60.584ZM66.4795 66.1556C66.4516 66.1835 66.4238 66.2392 66.3959 66.267L66.173 66.462C65.0866 67.3814 63.5265 67.3814 62.4122 66.4342L62.3287 66.3506C62.3008 66.3228 62.2729 66.2949 62.2172 66.267L49.0126 55.4582C48.7619 55.2353 48.4276 55.1239 48.1211 55.1239C47.8425 55.1239 47.564 55.2075 47.3132 55.3746L47.2018 55.4582C35.9194 62.8405 20.7925 61.2805 11.2373 51.7531C0.0662378 40.6099 0.0383792 22.4187 11.1815 11.1641C22.3804 0.0209415 40.5716 0.0766575 51.7427 11.2477C61.2701 20.8029 62.8301 35.9298 55.4478 47.2122L55.3642 47.3515C55.0299 47.8808 55.0577 48.5494 55.4478 49.023L66.2566 62.2276C66.3123 62.2834 66.368 62.3391 66.3959 62.3948L66.4238 62.4226C67.3709 63.5091 67.3988 65.0692 66.4795 66.1556Z" fill="#DDD8D8"/>
<path d="M31.4621 49.3013C21.6561 49.3013 13.6887 41.334 13.6887 31.528C13.6887 22.7249 20.0125 15.3704 28.5649 14.0054V11.136C18.3967 12.5567 10.8472 21.1648 10.8472 31.528C10.8472 42.894 20.0961 52.1428 31.4621 52.1428C41.8252 52.1428 50.4612 44.5933 51.8541 34.4252H48.9847C47.6197 42.9776 40.2652 49.3013 31.4621 49.3013Z" fill="#DDD8D8"/>
<path d="M33.5514 11.0248L31.9914 10.8577V30.9989H52.1327L51.9655 29.4389C50.9905 19.7443 43.246 11.9998 33.5514 11.0248ZM34.8329 28.1574V14.0892C41.9367 15.4542 47.5361 21.0815 48.9011 28.1574H34.8329Z" fill="#DDD8D8"/>
</svg>
