<svg width="70" height="70" viewBox="0 0 70 70" fill="none" xmlns="http://www.w3.org/2000/svg">
<g clip-path="url(#clip0)">
<path d="M62.5821 7.40777C52.7067 -2.46926 36.6478 -2.46926 26.7837 7.40777C22.0045 12.1877 19.3658 18.5421 19.3658 25.3155C19.3658 31.4207 21.5629 37.3107 25.5606 41.8981L25.7305 42.1019L22.299 45.534L24.4621 47.6974L27.8936 44.2654L28.0974 44.4353C32.684 48.4223 38.5731 50.6197 44.6773 50.6197C51.4496 50.6197 57.803 47.9919 62.5821 43.212C67.3613 38.432 70 32.0663 70 25.3042C70 18.5421 67.3726 12.1877 62.5821 7.40777ZM60.419 41.0372C51.7441 49.7136 37.6331 49.7136 28.9468 41.0372C24.7452 36.835 22.4349 31.2508 22.4349 25.3042C22.4349 19.3576 24.7452 13.7735 28.9468 9.5712C33.1484 5.38026 38.7316 3.05825 44.6773 3.05825C50.6229 3.05825 56.2175 5.36893 60.4077 9.5712C64.6093 13.7735 66.9196 19.3576 66.9196 25.3042C66.9196 31.2508 64.6206 36.835 60.419 41.0372Z" fill="#DDD8D8"/>
<path d="M7.74632 70C9.8188 70 11.7554 69.1958 13.2163 67.7346L27.769 53.1796C28.0521 52.8964 28.222 52.5 28.222 52.0922C28.222 51.6844 28.0634 51.2993 27.769 51.0048L24.4621 47.6974L22.299 45.534L18.9921 42.2265C18.6976 41.932 18.3126 41.7734 17.9049 41.7734C17.4972 41.7734 17.1121 41.932 16.8177 42.2265L2.26501 56.7815C0.804077 58.2427 0 60.1909 0 62.2524C0 64.3252 0.804077 66.2621 2.26501 67.7233C3.72593 69.1958 5.67384 70 7.74632 70ZM17.9049 45.4773L24.5187 52.0922L21.5402 55.0712L14.9264 48.4563L17.9049 45.4773ZM4.43941 58.945L12.7633 50.6197L19.3771 57.2346L11.0532 65.5598C10.1699 66.4433 8.99207 66.9304 7.74632 66.9304C6.50057 66.9304 5.32276 66.4433 4.43941 65.5598C3.55606 64.6763 3.06908 63.4983 3.06908 62.2524C3.06908 61.0064 3.55606 59.8284 4.43941 58.945Z" fill="#DDD8D8"/>
</g>
<defs>
<clipPath id="clip0">
<rect width="70" height="70" fill="white"/>
</clipPath>
</defs>
</svg>
