<svg width="70" height="70" viewBox="0 0 70 70" fill="none" xmlns="http://www.w3.org/2000/svg">
<g clip-path="url(#clip0)">
<path d="M68.1768 66.5038H62.9324V45.5263C65.0547 45.0931 66.9405 43.8873 68.2243 42.1427C69.5081 40.398 70.0983 38.2389 69.8806 36.0838C69.6629 33.9287 68.6527 31.9312 67.046 30.4786C65.4392 29.026 63.3503 28.2217 61.1843 28.2217C59.0182 28.2217 56.9293 29.026 55.3225 30.4786C53.7158 31.9312 52.7056 33.9287 52.4879 36.0838C52.2702 38.2389 52.8605 40.398 54.1442 42.1427C55.428 43.8873 57.3138 45.0931 59.4361 45.5263V66.5038H45.4512V1.82326C45.4688 1.43766 45.3583 1.05706 45.137 0.740831C44.9156 0.424604 44.5958 0.190534 44.2275 0.0751369C43.8726 -0.0312909 43.4933 -0.0245083 43.1424 0.0945415C42.7915 0.213591 42.4865 0.438995 42.2696 0.739423C39.6348 4.58546 36.3167 7.9154 32.4801 10.5639C27.9213 11.9047 23.2336 12.7602 18.4951 13.1161C16.2471 13.4465 14.1958 14.5825 12.723 16.3126C11.2501 18.0428 10.4561 20.2491 10.4887 22.521V24.5488H5.24437C3.85347 24.5488 2.51955 25.1014 1.53604 26.0849C0.55253 27.0684 0 28.4023 0 29.7932V68.2519C0 68.7155 0.184177 69.1601 0.512013 69.488C0.83985 69.8158 1.28449 70 1.74812 70H68.1768C68.6404 70 69.085 69.8158 69.4129 69.488C69.7407 69.1601 69.9249 68.7155 69.9249 68.2519C69.9249 67.7882 69.7407 67.3436 69.4129 67.0158C69.085 66.6879 68.6404 66.5038 68.1768 66.5038ZM55.9399 36.7857C55.9399 35.7485 56.2475 34.7345 56.8237 33.8721C57.4 33.0096 58.2191 32.3375 59.1773 31.9405C60.1356 31.5436 61.1901 31.4397 62.2074 31.6421C63.2247 31.8444 64.1591 32.3439 64.8926 33.0774C65.626 33.8108 66.1255 34.7453 66.3279 35.7626C66.5302 36.7799 66.4264 37.8343 66.0294 38.7926C65.6325 39.7509 64.9603 40.57 64.0979 41.1462C63.2354 41.7225 62.2215 42.0301 61.1843 42.0301C59.7934 42.0301 58.4594 41.4775 57.4759 40.494C56.4924 39.5105 55.9399 38.1766 55.9399 36.7857ZM13.985 66.5038V56.015H20.9775V66.5038H13.985ZM24.4737 66.5038V54.2669C24.4737 53.8033 24.2895 53.3586 23.9617 53.0308C23.6339 52.703 23.1892 52.5188 22.7256 52.5188H12.2369C11.7732 52.5188 11.3286 52.703 11.0007 53.0308C10.6729 53.3586 10.4887 53.8033 10.4887 54.2669V66.5038H3.49624V29.7932C3.49624 29.3296 3.68042 28.8849 4.00826 28.5571C4.33609 28.2293 4.78073 28.0451 5.24437 28.0451H29.7181C30.1817 28.0451 30.6263 28.2293 30.9542 28.5571C31.282 28.8849 31.4662 29.3296 31.4662 29.7932V66.5038H24.4737ZM34.9624 66.5038V29.7932C34.9624 28.4023 34.4099 27.0684 33.4264 26.0849C32.4429 25.1014 31.109 24.5488 29.7181 24.5488H13.985V22.521C13.9745 21.1048 14.4854 19.7343 15.4203 18.6704C16.3552 17.6066 17.6487 16.9238 19.0545 16.7522C24.0994 16.4697 29.0902 15.5655 33.9136 14.0601C37.0123 12.2591 39.7411 9.88631 41.9549 7.06762V66.5038H34.9624Z" fill="#E3E3E3"/>
<path d="M22.7256 38.5338H12.2368C11.7732 38.5338 11.3286 38.718 11.0007 39.0458C10.6729 39.3737 10.4887 39.8183 10.4887 40.2819C10.4887 40.7456 10.6729 41.1902 11.0007 41.518C11.3286 41.8459 11.7732 42.0301 12.2368 42.0301H22.7256C23.1892 42.0301 23.6338 41.8459 23.9617 41.518C24.2895 41.1902 24.4737 40.7456 24.4737 40.2819C24.4737 39.8183 24.2895 39.3737 23.9617 39.0458C23.6338 38.718 23.1892 38.5338 22.7256 38.5338Z" fill="#E3E3E3"/>
</g>
<defs>
<clipPath id="clip0">
<rect width="69.9249" height="70" fill="white"/>
</clipPath>
</defs>
</svg>
