<svg width="60" height="60" viewBox="0 0 60 60" fill="none" xmlns="http://www.w3.org/2000/svg">
<g clip-path="url(#clip0)">
<path d="M41.25 25H18.75C18.06 25 17.5 24.44 17.5 23.75V1.25C17.5 0.56 18.06 0 18.75 0H41.25C41.94 0 42.5 0.56 42.5 1.25V23.75C42.5 24.44 41.94 25 41.25 25ZM20 22.5H40V2.5H20V22.5Z" fill="#DDD8D8"/>
<path d="M33.75 10H26.25C25.56 10 25 9.44 25 8.75V1.25C25 0.56 25.56 0 26.25 0H33.75C34.44 0 35 0.56 35 1.25V8.75C35 9.44 34.44 10 33.75 10ZM27.5 7.5H32.5V2.5H27.5V7.5Z" fill="#DDD8D8"/>
<path d="M30 47.5H6.25C5.56 47.5 5 46.94 5 46.25V23.75C5 23.06 5.56 22.5 6.25 22.5H30C30.69 22.5 31.25 23.06 31.25 23.75V46.25C31.25 46.94 30.69 47.5 30 47.5ZM7.5 45H28.75V25H7.5V45Z" fill="#DDD8D8"/>
<path d="M21.25 32.5H13.75C13.06 32.5 12.5 31.94 12.5 31.25V23.75C12.5 23.06 13.06 22.5 13.75 22.5H21.25C21.94 22.5 22.5 23.06 22.5 23.75V31.25C22.5 31.94 21.94 32.5 21.25 32.5ZM15 30H20V25H15V30Z" fill="#DDD8D8"/>
<path d="M53.75 47.5H30C29.31 47.5 28.75 46.94 28.75 46.25V23.75C28.75 23.06 29.31 22.5 30 22.5H53.75C54.44 22.5 55 23.06 55 23.75V46.25C55 46.94 54.44 47.5 53.75 47.5ZM31.25 45H52.5V25H31.25V45Z" fill="#DDD8D8"/>
<path d="M46.25 32.5H38.75C38.06 32.5 37.5 31.94 37.5 31.25V23.75C37.5 23.06 38.06 22.5 38.75 22.5H46.25C46.94 22.5 47.5 23.06 47.5 23.75V31.25C47.5 31.94 46.94 32.5 46.25 32.5ZM40 30H45V25H40V30Z" fill="#DDD8D8"/>
<path d="M58.75 60H48.75C48.06 60 47.5 59.44 47.5 58.75V55H37.5V58.75C37.5 59.44 36.94 60 36.25 60H23.75C23.06 60 22.5 59.44 22.5 58.75V55H12.5V58.75C12.5 59.44 11.94 60 11.25 60H1.25C0.56 60 0 59.44 0 58.75V46.25C0 45.56 0.56 45 1.25 45H58.75C59.44 45 60 45.56 60 46.25V58.75C60 59.44 59.44 60 58.75 60ZM50 57.5H57.5V47.5H2.5V57.5H10V53.75C10 53.06 10.56 52.5 11.25 52.5H23.75C24.44 52.5 25 53.06 25 53.75V57.5H35V53.75C35 53.06 35.56 52.5 36.25 52.5H48.75C49.44 52.5 50 53.06 50 53.75V57.5Z" fill="#DDD8D8"/>
</g>
<defs>
<clipPath id="clip0">
<rect width="60" height="60" fill="white"/>
</clipPath>
</defs>
</svg>
