<svg width="68" height="70" viewBox="0 0 68 70" fill="none" xmlns="http://www.w3.org/2000/svg">
<path d="M66.5271 67.2651H54.7862L54.7144 33.6634C54.7128 32.9092 54.101 32.299 53.3471 32.299C53.3461 32.299 53.3451 32.299 53.3441 32.299C52.5889 32.3006 51.978 32.9141 51.9796 33.6693L52.0514 67.2651H48.0799L48.0447 52.3152C48.043 51.561 47.4311 50.951 46.6774 50.951C46.6763 50.951 46.6752 50.951 46.6741 50.951C45.9189 50.9528 45.308 51.5663 45.31 52.3216L45.3451 67.2651H42.0249V49.169C45.8954 48.8268 48.9386 45.6462 48.9386 41.784V28.5327C48.9386 26.4255 48.4915 24.3601 47.6364 22.4526C50.3367 22.633 52.8503 23.7316 54.784 25.5989C56.9002 27.6423 58.069 30.3595 58.075 33.2512L58.1 41.0327C58.1025 41.7864 58.7141 42.3958 59.4673 42.3958C59.4688 42.3958 59.4703 42.3958 59.4718 42.3958C60.2269 42.3933 60.8372 41.7792 60.8349 41.024L60.8099 33.244C60.8021 29.6073 59.3368 26.1935 56.6837 23.6317C55.1683 22.1684 53.3684 21.0846 51.4068 20.4271C52.7963 19.1047 53.6633 17.2385 53.659 15.1735C53.6503 11.1892 50.4064 7.95375 46.4239 7.95375C46.4187 7.95375 46.4134 7.95375 46.4084 7.95375C45.2482 7.95635 44.0945 8.24045 43.0723 8.77543C42.4032 9.1257 42.1446 9.95203 42.4949 10.6211C42.8453 11.2902 43.6718 11.5488 44.3406 11.1985C44.984 10.8618 45.6817 10.6902 46.4144 10.6885C48.8998 10.6873 50.919 12.6978 50.9243 15.1792C50.9296 17.6606 48.9151 19.6838 46.4336 19.6891C46.3747 19.6893 46.3172 19.6943 46.2604 19.7017C46.1876 19.7047 46.1148 19.7073 46.0418 19.7114C44.0662 17.0077 41.2927 15.0463 38.134 14.051C39.811 12.5796 40.8729 10.4232 40.8729 8.02197C40.8723 3.59857 37.2739 0 32.8506 0C28.4272 0 24.8287 3.59857 24.8287 8.02197C24.8287 10.5395 25.9954 12.7888 27.8156 14.2606C24.916 15.307 22.375 17.1816 20.5295 19.7036C20.313 19.6939 20.0967 19.6882 19.8815 19.6882C19.7792 19.6882 19.6772 19.6898 19.5754 19.692C19.5504 19.6906 19.5258 19.6882 19.5005 19.6882C17.019 19.6882 15.0002 17.6694 15.0002 15.1879C15.0002 12.7065 17.019 10.6877 19.5005 10.6877C20.2505 10.6877 20.9925 10.8756 21.646 11.2309C22.3095 11.5914 23.1396 11.3462 23.5006 10.6827C23.8612 10.0192 23.6158 9.18887 22.9523 8.82807C21.8991 8.25535 20.7054 7.95266 19.5003 7.95266C15.5109 7.95266 12.2652 11.1984 12.2652 15.1878C12.2652 17.3603 13.229 19.3107 14.7499 20.6381C9.58016 22.6316 5.91486 27.544 5.91486 33.2737V41.0283C5.91486 41.7836 6.52709 42.3958 7.28232 42.3958C8.03756 42.3958 8.64978 41.7836 8.64978 41.0283V33.2737C8.64978 27.6026 13.1774 22.9369 18.9234 22.4654C18.072 24.3692 17.6267 26.4299 17.6267 28.5327V41.784C17.6267 45.7226 20.7914 48.9526 24.771 49.1861V67.2649H21.0457V52.3179C21.0457 51.5627 20.4334 50.9504 19.6782 50.9504C18.923 50.9504 18.3107 51.5627 18.3107 52.3179V67.2651H14.9494V33.6801C14.9494 32.9249 14.3371 32.3127 13.5819 32.3127C12.8267 32.3127 12.2145 32.9249 12.2145 33.6801V67.2651H1.36746C0.612226 67.2651 0 67.8773 0 68.6325C0 69.3878 0.61209 70 1.36746 70H66.5272C67.2824 70 67.8947 69.3878 67.8947 68.6325C67.8944 67.8773 67.2823 67.2651 66.5271 67.2651ZM27.5635 8.02197C27.5635 5.10672 29.9353 2.73492 32.8505 2.73492C35.7658 2.73492 38.1374 5.10672 38.1374 8.02197C38.1374 10.9372 35.7656 13.309 32.8505 13.309C29.9354 13.309 27.5635 10.9372 27.5635 8.02197ZM40.6573 27.6262C39.902 27.6262 39.2898 28.2384 39.2898 28.9937V67.2651H34.4196V48.2411C34.4196 47.4858 33.8074 46.8736 33.0522 46.8736C32.2969 46.8736 31.6847 47.4858 31.6847 48.2411V67.2652H27.5059V28.9937C27.5059 28.2384 26.8937 27.6262 26.1384 27.6262C25.3832 27.6262 24.771 28.2384 24.771 28.9937V46.4446C22.3009 46.2204 20.3615 44.2162 20.3615 41.7841V28.5328C20.3615 26.1662 21.0498 23.8626 22.3519 21.8713C24.7379 18.2224 28.8241 16.0439 33.2825 16.0439C37.7483 16.0439 41.8383 18.228 44.2229 21.8865C45.5186 23.8744 46.2035 26.1726 46.2035 28.5328V41.7841C46.2035 44.1401 44.3838 46.0942 42.0247 46.4182V28.9937C42.0249 28.2384 41.4125 27.6262 40.6573 27.6262Z" fill="#DDD8D8"/>
</svg>
