<svg width="70" height="70" viewBox="0 0 70 70" fill="none" xmlns="http://www.w3.org/2000/svg">
<path d="M23.064 20.0154C15.1536 20.0154 8.74088 26.4281 8.74088 34.3385C8.74088 42.249 15.1536 48.6617 23.064 48.6617C30.9745 48.6617 37.3872 42.249 37.3872 34.3385C37.3872 26.4281 30.9745 20.0154 23.064 20.0154ZM33.6642 28.9674H28.5022C28.0085 26.4936 27.2375 24.4942 26.4501 22.9516C29.6045 23.8929 32.1939 26.0802 33.6642 28.9674ZM26.6448 34.3385C26.6448 35.4041 26.565 36.383 26.4554 37.3225H19.6732C19.5631 36.383 19.4831 35.404 19.4831 34.3385C19.4831 33.2725 19.5617 32.2938 19.6708 31.3545H26.4577C26.5662 32.2938 26.6448 33.2727 26.6448 34.3385ZM22.7167 22.4375C22.8344 22.4341 22.9451 22.4026 23.064 22.4026C23.1841 22.4026 23.2953 22.4347 23.4148 22.4381C24.3106 23.8124 25.3999 25.9863 26.0595 28.9674H20.0689C20.7316 25.9761 21.8249 23.8031 22.7167 22.4375ZM19.678 22.9516C18.8935 24.4909 18.1218 26.4926 17.6277 28.9674H12.4639C13.9344 26.0802 16.5237 23.8935 19.678 22.9516ZM11.1281 34.3385C11.1281 33.3022 11.3023 32.3139 11.5518 31.3545H17.2651C17.1654 32.2999 17.0961 33.2831 17.0961 34.3385C17.0961 35.3946 17.1672 36.3766 17.2685 37.3225H11.5518C11.3023 36.3632 11.1281 35.3749 11.1281 34.3385ZM12.4639 39.7097H17.6335C18.1324 42.189 18.9045 44.2056 19.6745 45.7244C16.5219 44.7825 13.9338 42.5958 12.4639 39.7097ZM23.4108 46.2396C23.2931 46.2432 23.183 46.2745 23.064 46.2745C22.9451 46.2745 22.835 46.243 22.7167 46.2396C21.8612 44.9237 20.7468 42.7447 20.072 39.7097H26.0564C25.3825 42.7428 24.2693 44.9207 23.4108 46.2396ZM26.4548 45.7244C27.2258 44.2041 27.9975 42.1891 28.4952 39.7097H33.6642C32.1943 42.5955 29.6066 44.7821 26.4548 45.7244ZM28.8601 37.3225C28.961 36.3766 29.032 35.3946 29.032 34.3385C29.032 33.2831 28.9632 32.2999 28.8636 31.3545H34.5763C34.8257 32.3139 35 33.3023 35 34.3385C35 35.3749 34.8257 36.3632 34.5763 37.3225H28.8601Z" fill="#DDD8D8"/>
<path d="M35 55.8232H11.1281V58.2104H35V55.8232Z" fill="#DDD8D8"/>
<path d="M51.619 38.6279L50.3829 43.2395L52.6887 43.8575L53.9248 39.2459L51.619 38.6279Z" fill="#DDD8D8"/>
<path d="M49.1468 47.8465L44.8222 63.9866L47.128 64.6044L51.4525 48.4643L49.1468 47.8465Z" fill="#DDD8D8"/>
<path d="M64.8807 7.57815L37.2107 0.163821C36.7968 0.0529659 36.3811 0 35.9722 0C33.8641 0.0001492 31.9351 1.40695 31.3634 3.53991L28.8679 12.8538H3.96648C2.64815 12.8538 1.57928 13.9226 1.57928 15.241V62.9849C1.57928 64.3034 2.64815 65.3721 3.96648 65.3721H31.5387L48.199 69.8362C48.6128 69.947 49.0282 70 49.4375 70C51.5455 70 53.4745 68.593 54.0462 66.4601L68.2569 13.4254C68.9395 10.8786 67.4277 8.26059 64.8807 7.57815ZM3.96648 62.9849V15.241H39.7744C41.0909 15.241 42.1616 16.312 42.1616 17.6282V60.5977C42.1616 61.914 41.0909 62.9849 39.7744 62.9849H3.96648ZM65.9513 12.8076L51.7407 65.8423C51.4609 66.8849 50.5139 67.613 49.4373 67.613C49.2299 67.613 49.0212 67.5852 48.8166 67.5303L40.4923 65.2998C42.7855 64.9514 44.5486 62.9887 44.5486 60.5979V41.6728L45.7713 42.0004L47.0074 37.3887L44.7013 36.7709L44.5486 37.3414V18.3708C45.2928 18.5703 46.1519 18.8005 46.9848 19.0237L49.8079 28.2535L51.7842 28.7831L51.5971 20.2595C52.895 20.6075 54.2204 20.9624 55.0887 21.1952L56.6232 23.9012L57.9409 24.2542L57.7143 20.4865L59.7945 17.3367L58.4767 16.9837L55.7952 18.56C54.9262 18.3274 53.6015 17.9723 52.303 17.6244L56.7271 10.3366L54.7508 9.80689L47.6911 16.3887C46.3028 16.0167 44.7881 15.6106 43.9675 15.391C43.1633 13.888 41.5973 12.854 39.7742 12.854H31.3386L33.6687 4.15804C33.9484 3.11559 34.8956 2.38749 35.972 2.38734C36.1794 2.38734 36.3882 2.41509 36.5927 2.47L64.2628 9.88433C64.8789 10.0493 65.3935 10.4444 65.7123 10.9966C66.0313 11.5486 66.1162 12.1918 65.9513 12.8076Z" fill="#DDD8D8"/>
<path d="M50.9976 32.3176L50.3869 34.6252L52.6554 35.2255L53.266 32.9178L50.9976 32.3176Z" fill="#DDD8D8"/>
<path d="M55.5283 33.5211L54.9177 35.8286L57.1862 36.4289L57.7968 34.1213L55.5283 33.5211Z" fill="#DDD8D8"/>
<path d="M46.4671 31.1173L45.8564 33.4248L48.1249 34.0251L48.7355 31.7175L46.4671 31.1173Z" fill="#DDD8D8"/>
</svg>
