<svg width="57" height="61" viewBox="0 0 57 61" fill="none" xmlns="http://www.w3.org/2000/svg">
<path d="M44.8542 40.789L38.7851 46.5373L36.2933 43.9469C35.8245 43.4535 35.0351 43.4288 34.5416 43.9222C34.0482 44.3909 34.0236 45.1804 34.517 45.6738L37.8476 49.1524C38.0943 49.3991 38.415 49.5225 38.7357 49.5225C39.0318 49.5225 39.3525 49.3991 39.5992 49.1771L46.5565 42.5653C47.0499 42.0965 47.0746 41.3071 46.6058 40.8137C46.137 40.3202 45.3476 40.2956 44.8542 40.789Z" fill="#DDD8D8"/>
<path d="M55.9807 42.4421L55.808 41.4059H54.1551C53.8344 41.4059 53.5136 41.4059 53.1929 41.4059C52.9215 40.4191 52.5268 39.4816 52.0087 38.5934C52.3788 38.2234 52.7242 37.8533 53.0942 37.5079L53.859 36.7678L53.2423 35.9043C52.2307 34.5227 51.0219 33.3138 49.6403 32.3023L48.7768 31.6855L48.0367 32.4503C47.8146 32.6724 47.5679 32.9191 47.3459 33.1411C47.2225 33.2645 47.0745 33.4125 46.9511 33.5359C46.063 33.0424 45.1008 32.6477 44.114 32.3763V31.6115C44.114 31.3648 44.114 31.1181 44.114 30.822V29.7612L43.0778 29.5885C41.4495 29.3171 39.7225 29.3171 38.0942 29.5885L37.0087 29.7859L37.0581 30.8961C37.0581 31.1428 37.0581 31.3895 37.0581 31.6362V31.9816V32.3763C36.0712 32.6477 35.1337 33.0424 34.2209 33.5359C34.0729 33.3878 33.9495 33.2645 33.8015 33.1164C33.5794 32.8944 33.3327 32.6724 33.1107 32.4257L32.3706 31.6609L31.5071 32.2776C30.1008 33.2645 28.8919 34.4734 27.9051 35.8796L27.2883 36.7431L28.0531 37.4832C28.4232 37.8533 28.7932 38.1987 29.1386 38.5688C28.6452 39.4569 28.2505 40.4191 27.9544 41.3813C27.6337 41.3813 27.313 41.3813 26.9923 41.3813H25.3393L25.1666 42.4174C25.0186 43.2563 24.9692 44.1197 24.9692 44.9586C24.9692 45.7974 25.0433 46.6609 25.1666 47.4997L25.3146 48.4372L26.4248 48.5359H26.4988C26.7209 48.5359 26.9676 48.5359 27.1896 48.5359C27.4363 48.5359 27.7077 48.5359 27.9544 48.5359C28.2258 49.5474 28.6452 50.4849 29.1386 51.3977C28.9659 51.5704 28.7932 51.7431 28.6452 51.8911L28.2011 52.3352C28.1271 52.4092 28.0531 52.4832 28.0038 52.5326L27.313 53.2727L27.9051 54.0868C28.8919 55.4684 30.1008 56.6526 31.4824 57.6395L32.2719 58.2069L33.012 57.5655L33.1354 57.4421C33.4067 57.1461 33.6781 56.8747 33.9742 56.6033C34.0482 56.5293 34.1222 56.4553 34.1962 56.3813C35.109 56.8747 36.0465 57.2694 37.0334 57.5408C37.0334 57.7135 37.0334 57.8862 37.0334 58.0836C37.0334 58.4043 37.0334 58.725 37.0334 59.0704L37.1074 60.1806L38.0942 60.3286C38.9084 60.452 39.7472 60.526 40.586 60.526C41.4248 60.526 42.2636 60.452 43.0778 60.3286L44.1386 60.1066L44.114 59.0211C44.114 58.7003 44.114 58.4043 44.114 58.0836C44.114 57.9109 44.114 57.7135 44.114 57.5408C45.1008 57.2694 46.063 56.8747 46.9511 56.3813C47.0252 56.4553 47.0992 56.5293 47.1485 56.5786C47.4199 56.85 47.7159 57.1461 47.9873 57.4174L48.8261 58.2069L49.6403 57.6148C51.0219 56.628 52.2307 55.4191 53.2176 54.0622L53.8097 53.2234L53.1189 52.4832C53.0696 52.4339 52.9955 52.3599 52.9215 52.2859L52.4775 51.8418C52.3048 51.6691 52.1567 51.5211 51.984 51.3484C52.5021 50.4355 52.8969 49.4734 53.1682 48.4865C53.2423 48.4865 53.3163 48.4865 53.3903 48.4865C53.785 48.4865 54.2044 48.4865 54.5992 48.4865L55.808 48.3878L55.9561 47.4503C56.1041 46.6115 56.1534 45.7727 56.1534 44.9092C56.1781 44.1444 56.1288 43.2809 55.9807 42.4421ZM53.6617 46.0688C53.5877 46.0688 53.489 46.0688 53.415 46.0688C53.0449 46.0688 52.6748 46.0688 52.3048 46.0688L51.1699 46.1921L50.9972 47.0803C50.7258 48.4618 50.183 49.7447 49.3936 50.9043L48.9248 51.6197L49.4182 52.3105C49.4923 52.4092 49.5909 52.5326 49.6896 52.6313C49.9857 52.9273 50.2817 53.2234 50.5778 53.5194C50.109 54.0622 49.5909 54.5803 49.0482 55.049C48.9988 54.9997 48.9495 54.9503 48.9248 54.9257C48.6781 54.679 48.4067 54.4076 48.16 54.1609C48.0613 54.0622 47.938 53.9635 47.8146 53.8895L47.1238 53.4454L46.433 53.8895C45.2735 54.6543 43.9906 55.197 42.609 55.4684L41.8442 55.6165L41.6469 56.3813C41.5975 56.554 41.5975 56.7267 41.5975 56.924C41.5975 57.3188 41.5975 57.7382 41.5975 58.1329C40.9067 58.1822 40.1913 58.1822 39.5005 58.1329C39.5005 57.7382 39.5005 57.3188 39.5005 56.924C39.5005 56.7267 39.4758 56.554 39.4511 56.3813L39.2538 55.6165L38.489 55.4684C37.1321 55.197 35.8492 54.679 34.665 53.8895L33.9742 53.4454L33.2834 53.8895C33.16 53.9635 33.0613 54.0622 32.9627 54.1609C32.7159 54.4322 32.4446 54.679 32.1979 54.9503C32.1485 54.9997 32.1238 55.0243 32.0745 55.0737C31.5317 54.6049 31.0136 54.1115 30.5449 53.5441C30.8409 53.248 31.137 52.952 31.4331 52.6559C31.5564 52.5572 31.6304 52.4339 31.7044 52.3352L32.1732 51.6444L31.7044 50.9536C30.915 49.7941 30.3722 48.4865 30.1008 47.1296L29.9281 46.2414L28.8673 46.1181H28.7933C28.5959 46.1181 28.3985 46.1181 28.2011 46.1181C27.9298 46.1181 27.6831 46.1181 27.4363 46.1181C27.4117 45.748 27.387 45.4026 27.387 45.0326C27.387 44.6625 27.4117 44.2924 27.4363 43.9224C27.8311 43.9224 28.2258 43.9224 28.5959 43.947C28.7932 43.947 28.9906 43.9224 29.188 43.8977L29.9281 43.7003L30.0761 42.9355C30.3475 41.5786 30.8656 40.3204 31.6551 39.1609L32.0992 38.4947L31.6798 37.8039C31.5564 37.6066 31.4084 37.4339 31.2604 37.3105L30.9396 36.9898C30.7916 36.8418 30.6436 36.6938 30.4956 36.5457C30.9643 35.9783 31.4824 35.4602 32.0498 34.9914C32.3212 35.2628 32.6173 35.5342 32.8886 35.8303C33.086 36.0276 33.2834 36.1757 33.4807 36.2743L34.0975 36.5457L34.665 36.1757C35.8245 35.4109 37.1074 34.8928 38.4643 34.6214L39.2291 34.4734L39.4265 33.7332C39.4758 33.5605 39.4758 33.3878 39.4758 33.2151C39.4758 32.9438 39.4758 32.6724 39.4758 32.401V31.9816C40.1666 31.9322 40.8821 31.9322 41.5729 31.9816V32.401C41.5729 32.6724 41.5729 32.9438 41.5729 33.2151C41.5729 33.4125 41.5975 33.5605 41.6222 33.7332L41.8196 34.4734L42.5844 34.6214C43.9413 34.8928 45.2242 35.4109 46.3837 36.1757L46.9511 36.5457L47.5679 36.2743C47.8393 36.151 48.0367 35.9783 48.16 35.8549C48.4314 35.5836 48.7028 35.2875 48.9988 35.0161C49.5663 35.4849 50.0844 36.003 50.5531 36.5704C50.3804 36.7431 50.2324 36.8911 50.0597 37.0638L49.7883 37.3352C49.6156 37.5079 49.4923 37.6559 49.3689 37.8286L48.9248 38.5194L49.3689 39.1855C50.1337 40.3451 50.6765 41.6033 50.9478 42.9602L51.0959 43.725L51.8607 43.9224C52.0334 43.9717 52.2307 43.9964 52.4528 43.9717C52.8475 43.947 53.2423 43.947 53.6123 43.947C53.637 44.3171 53.6617 44.6872 53.6617 45.0572C53.711 45.3533 53.6863 45.7234 53.6617 46.0688Z" fill="#DDD8D8"/>
<path d="M12.3377 14.786C16.2604 14.786 19.4429 11.6034 19.4429 7.68069C19.4429 3.75799 16.2604 0.600098 12.3377 0.600098C8.41496 0.600098 5.23239 3.78266 5.23239 7.68069C5.23239 11.5787 8.43963 14.786 12.3377 14.786ZM12.3377 3.0672C14.8788 3.0672 16.9511 5.13957 16.9511 7.68069C16.9511 10.2218 14.8788 12.2942 12.3377 12.2942C9.79654 12.2942 7.72417 10.2218 7.72417 7.68069C7.72417 5.13957 9.79654 3.0672 12.3377 3.0672Z" fill="#DDD8D8"/>
<path d="M20.8739 24.3336C20.1831 24.2843 19.591 24.8024 19.5416 25.4932L18.4561 41.3813C18.4561 41.4307 18.4314 41.48 18.4314 41.5047L17.4199 56.9488C17.3706 57.6149 16.8278 58.1083 16.1864 58.1083H8.51367C7.84755 58.1083 7.30478 57.5902 7.28011 56.9488L6.2686 41.5047C6.24393 40.9866 5.87386 40.5425 5.38044 40.3945C3.94952 39.9504 3.94952 39.9504 3.82616 38.3715L2.91333 21.9899V21.8665C4.27024 21.4718 6.53998 20.7317 7.67485 20.3863L11.4989 23.9636C11.9676 24.4076 12.7324 24.4076 13.2012 23.9636L17.0745 20.3369L28.4232 22.9027C28.5959 22.9521 28.7686 22.9521 28.9413 22.9027L39.6486 20.707C40.3147 20.559 40.7588 19.9175 40.6107 19.2514C40.4627 18.5853 39.8213 18.1412 39.1552 18.2892L28.7193 20.4356L16.9758 17.7711C16.5811 17.6725 16.1617 17.7958 15.841 18.0672L12.3377 21.3484L8.83439 18.0672C8.51367 17.7465 8.04492 17.6478 7.60084 17.7958C7.60084 17.7958 3.97419 18.9553 2.12386 19.4981C1.01366 19.8435 0.396881 20.6823 0.396881 21.8172C0.396881 21.9159 0.396881 22.0886 0.396881 22.1132L1.30971 38.2728L1.33438 38.5442C1.50708 41.0113 1.92649 41.8007 3.82616 42.4915L4.78833 57.0968C4.91169 59.0458 6.56465 60.6001 8.51367 60.6001H16.1864C18.1354 60.6001 19.7884 59.0705 19.9117 57.0968L20.9232 41.7761C20.9232 41.7267 20.9232 41.7021 20.9479 41.6527L22.0581 25.6412C22.0828 24.9751 21.5647 24.383 20.8739 24.3336Z" fill="#DDD8D8"/>
</svg>
