<svg width="70" height="64" viewBox="0 0 70 64" fill="none" xmlns="http://www.w3.org/2000/svg">
<g clip-path="url(#clip0)">
<path d="M14.1094 30.3577C14.4375 30.3577 14.7656 30.221 15.0391 29.9749C17.8555 27.1859 21.5469 25.9007 26.6055 25.9007C26.6328 25.9007 26.6875 25.9007 26.7148 25.9007C27.6992 25.9007 28.7383 25.9554 29.7773 25.9827C34.4258 26.1741 39.6758 26.3655 43.75 23.2757L45.5 24.9437C45.7461 25.1898 46.0742 25.2991 46.4023 25.2991C46.5391 25.2991 46.6484 25.2718 46.7851 25.2445C47.2226 25.1077 47.5781 24.7523 47.6875 24.2874L49.4648 16.7132C49.5742 16.2484 49.4375 15.7835 49.082 15.4554C48.7266 15.1273 48.2617 15.0179 47.7969 15.1546L40.3594 17.3968C39.9219 17.5335 39.5664 17.889 39.457 18.3538C39.3476 18.8187 39.4844 19.2835 39.8398 19.6116L41.7812 21.4437C38.5 23.6859 34.125 23.5218 29.8867 23.3577C28.8203 23.303 27.7539 23.2757 26.7422 23.2757C26.7148 23.2757 26.6601 23.2757 26.6328 23.2757C20.8359 23.2757 16.5703 24.807 13.2344 28.1155C12.7148 28.6351 12.7148 29.4554 13.207 29.9749C13.4258 30.221 13.7812 30.3577 14.1094 30.3577ZM46.375 18.3265L45.6367 21.471L43.2851 19.2562L46.375 18.3265Z" fill="#DDD8D8"/>
<path d="M25.7305 16.6584C25.8945 16.6584 26.0312 16.6311 26.1953 16.5764L27.5898 16.0569L28.1094 17.4514C28.3008 17.9709 28.8203 18.2991 29.3398 18.2991C29.5039 18.2991 29.6406 18.2717 29.8047 18.217C30.4883 17.9709 30.8437 17.2053 30.5703 16.5217L30.0508 15.1272L31.4453 14.6076C32.1289 14.3616 32.4844 13.5959 32.2109 12.9123C31.9648 12.2287 31.1992 11.9006 30.5156 12.1467L29.1211 12.6662L28.6016 11.2717C28.3555 10.5881 27.5898 10.26 26.9062 10.5061C26.2227 10.7522 25.8672 11.5178 26.1406 12.2014L26.6602 13.5959L25.2656 14.1155C24.582 14.3616 24.2266 15.1272 24.5 15.8108C24.6914 16.3303 25.1836 16.6584 25.7305 16.6584Z" fill="#DDD8D8"/>
<path d="M30.2422 30.4944C28.1367 29.5374 25.6211 30.4671 24.6641 32.5725C24.1992 33.5842 24.1719 34.7327 24.5547 35.7991C24.9375 36.8655 25.7305 37.6858 26.7422 38.1506C27.2891 38.3967 27.8906 38.5335 28.4922 38.5335C28.9844 38.5335 29.5039 38.4514 29.9687 38.26C31.0352 37.8772 31.8555 37.0842 32.3203 36.0725C32.7852 35.0608 32.8125 33.9124 32.4297 32.846C32.0469 31.8069 31.2812 30.9592 30.2422 30.4944ZM29.9414 34.9788C29.7773 35.3616 29.4492 35.6624 29.0664 35.7991C28.6836 35.9358 28.2461 35.9358 27.8633 35.7444C27.4805 35.5803 27.1797 35.2522 27.043 34.8694C26.9062 34.4866 26.9062 34.0491 27.0977 33.6663C27.3711 33.0921 27.9453 32.7366 28.5469 32.7366C28.7656 32.7366 28.9844 32.7913 29.2031 32.8733C29.5859 33.0374 29.8867 33.3655 30.0234 33.7483C30.1328 34.1858 30.1055 34.596 29.9414 34.9788Z" fill="#DDD8D8"/>
<path d="M47.4414 12.6936C47.7148 13.0217 48.0703 13.1857 48.4805 13.1857C48.7539 13.1857 49.0547 13.1037 49.3008 12.9123L56.2187 7.41621C56.793 6.95137 56.875 6.13105 56.4375 5.55683C56 4.98262 55.1523 4.90058 54.5781 5.33808L48.6719 10.0412L46.7031 7.60762C46.2383 7.0334 45.418 6.95137 44.8437 7.41621C44.2695 7.88105 44.1875 8.70136 44.6523 9.27558L47.4414 12.6936Z" fill="#DDD8D8"/>
<path d="M67.2109 0.142822H2.78906C2.05078 0.142822 1.47656 0.744385 1.47656 1.45532C1.47656 2.16626 2.07812 2.76782 2.78906 2.76782H5.93359V42.7444C5.93359 43.4827 6.53516 44.0569 7.24609 44.0569H21.8477L16.2969 61.9124C16.0781 62.596 16.4609 63.3342 17.1719 63.553C17.3086 63.6077 17.4453 63.6077 17.5547 63.6077C18.1289 63.6077 18.6484 63.2522 18.8125 62.678L24.6094 44.0842H45.3906L51.1875 62.7053C51.3516 63.2796 51.8711 63.635 52.4453 63.635C52.582 63.635 52.7188 63.6077 52.8281 63.5803C53.5117 63.3616 53.9219 62.6233 53.7031 61.9397L48.1524 44.0842H62.7539C63.4922 44.0842 64.0664 43.4827 64.0664 42.7717V2.79517H67.2109C67.9492 2.79517 68.5234 2.1936 68.5234 1.48267C68.5234 0.771729 67.9219 0.142822 67.2109 0.142822ZM61.4414 41.4319H8.55859V2.79517H61.4414V41.4319Z" fill="#DDD8D8"/>
</g>
<defs>
<clipPath id="clip0">
<rect width="70" height="63.7778" fill="white"/>
</clipPath>
</defs>
</svg>
