<svg width="70" height="68" viewBox="0 0 70 68" fill="none" xmlns="http://www.w3.org/2000/svg">
<path d="M68.6521 46.6741C66.9331 44.5761 64.041 43.9415 61.6197 45.1312L48.5879 51.5318V50.8366C48.5879 47.1272 45.611 44.1095 41.952 44.1095H23.5041C23.2061 44.1095 22.9164 44.2068 22.6788 44.3868L16.6092 48.983V46.6504C16.6092 45.8953 15.9971 45.2832 15.242 45.2832H1.36716C0.612075 45.2832 0 45.8953 0 46.6504V63.4321C0 64.1871 0.612075 64.7992 1.36716 64.7992H15.242C15.9971 64.7992 16.6092 64.1871 16.6092 63.4321V61.8354L37.27 67.6653C37.9517 67.8689 38.6519 67.9699 39.3504 67.9699C40.4171 67.9699 41.4789 67.7342 42.4611 67.2684L66.607 55.817C68.2584 55.0452 69.4397 53.5729 69.8481 51.7773C70.2603 49.9649 69.8245 48.105 68.6521 46.6741ZM13.8748 62.0648H2.73431V48.0175H13.8748V62.0648ZM67.1819 51.1709C66.9622 52.1373 66.3305 52.9279 65.4423 53.343L41.2895 64.7977C40.2737 65.2792 39.1216 65.3663 38.0452 65.043C38.0378 65.0406 38.0304 65.0386 38.0231 65.0365L16.6092 58.9941V52.4128L23.9634 46.8438H41.9518C44.1032 46.8438 45.8534 48.6351 45.8534 50.8366V52.3593H36.1017C35.3467 52.3593 34.7345 52.9714 34.7345 53.7265C34.7345 54.4816 35.3467 55.0936 36.1017 55.0936H47.223H47.2255C47.2266 55.0938 47.2271 55.0936 47.2281 55.0936C47.4518 55.0924 47.6627 55.0376 47.8487 54.9412L62.8252 47.5854C64.1006 46.9588 65.6272 47.2965 66.5371 48.4071C67.1704 49.1803 67.4055 50.1876 67.1819 51.1709Z" fill="#E3E3E3"/>
<path d="M43.4403 40.0722C54.4799 40.0722 63.4612 31.0908 63.4612 20.0512C63.4612 9.01166 54.4799 0.0302734 43.4403 0.0302734C32.4006 0.0302734 23.4194 9.01166 23.4194 20.0512C23.4194 31.0908 32.4008 40.0722 43.4403 40.0722ZM43.4403 37.3379C42.5929 37.3379 41.7595 37.2765 40.9444 37.1581C42.5937 36.0175 44.4957 34.2816 45.6611 31.627C46.4897 29.7395 47.829 27.1557 49.8827 26.5138C51.0742 26.1417 52.4966 26.4566 54.1121 27.4495C54.749 27.8409 56.2025 28.9173 57.588 29.9745C54.4572 34.4246 49.2825 37.3379 43.4403 37.3379ZM60.6083 18.0212C58.5588 18.601 54.6961 19.3277 52.7793 17.3132C52.3398 16.8507 51.9665 16.3758 51.6055 15.9169C50.5879 14.623 49.5356 13.285 47.44 12.9705C45.5914 12.6938 44.2098 13.549 43.2017 14.1736C42.4905 14.6144 42.0373 14.8769 41.7264 14.7961C37.0507 13.5843 37.3743 9.90278 38.225 5.57409C38.3944 4.71223 38.527 4.03727 38.5445 3.47031C40.0973 3.01108 41.7405 2.76445 43.4401 2.76445C52.2856 2.76445 59.6005 9.44232 60.6083 18.0212ZM35.6223 4.63554C35.595 4.77758 35.5676 4.91717 35.5421 5.04691C35.1877 6.84992 34.7024 9.31914 35.178 11.6577C35.7858 14.6458 37.7582 16.5924 41.0409 17.443C42.5046 17.8226 43.6898 17.0879 44.642 16.4979C45.466 15.9874 46.177 15.5465 47.0347 15.6746C48.0137 15.8216 48.5113 16.4057 49.4563 17.6072C49.8375 18.092 50.2696 18.6414 50.7976 19.1972C52.372 20.852 54.5442 21.3695 56.6458 21.3695C58.1103 21.3695 59.5403 21.1181 60.7096 20.8253C60.6024 23.2463 59.9947 25.5396 58.988 27.604C57.8163 26.7132 56.3064 25.5891 55.5438 25.1203C53.2249 23.6948 51.0458 23.2856 49.0667 23.9041C45.9485 24.8787 44.2005 28.1512 43.1571 30.528C41.9192 33.3477 39.6449 34.8814 37.3717 36.1187C37.3298 36.1415 37.2894 36.1662 37.2509 36.1928C35.7815 35.6274 34.4082 34.867 33.1628 33.9432C33.4015 33.8034 33.6442 33.6657 33.8843 33.5294C35.7876 32.4492 37.9449 31.2248 37.9155 28.9139C37.9007 27.7503 37.1097 26.7848 36.2723 25.7626C35.5128 24.8355 34.6522 23.7847 34.3041 22.5395C33.9506 21.2755 33.7611 19.8121 33.7406 18.1899C33.6993 14.901 32.0249 11.9158 29.2929 10.1273C30.9171 7.81896 33.0909 5.92463 35.6223 4.63554ZM27.8993 12.4845C29.8111 13.7858 30.9777 15.9012 31.0069 18.224C31.0303 20.0833 31.2539 21.7829 31.6711 23.2755C32.1737 25.0733 33.2737 26.4161 34.1574 27.4949C34.5476 27.9711 35.1358 28.6893 35.1817 28.9572C35.1784 29.6508 33.7743 30.4477 32.5349 31.1511C32.0275 31.439 31.5098 31.733 31.0108 32.0533C28.0052 28.9416 26.1537 24.7085 26.1537 20.051C26.1537 17.3391 26.7815 14.7711 27.8993 12.4845Z" fill="#E3E3E3"/>
</svg>
