<svg width="70" height="70" viewBox="0 0 70 70" fill="none" xmlns="http://www.w3.org/2000/svg">
<path d="M19.6873 63.4472H33.9091V4.63912L15.7005 9.77115L26.0588 26.7257L26.0733 26.7474L26.0878 26.7692L26.1023 26.7909L26.1168 26.8127L26.1313 26.8344L26.1385 26.8562V26.8634L26.1458 26.8852V26.8924L26.153 26.9142V26.9214L26.1603 26.9431V26.9504L26.1675 26.9721V26.9794L26.1748 27.0011V27.0084L26.182 27.0229V27.0301L26.1893 27.0446V27.0519L26.1965 27.0736V27.0809L26.2038 27.1026V27.1099L26.211 27.1316V27.1389L26.2183 27.1606V27.1679L26.2255 27.1896V27.1968V27.2186V27.2258L26.2328 27.2476L26.24 27.2983V27.3273V27.3491V27.3563V27.3781V27.3853V27.3998C26.2255 31.0024 24.7613 34.2715 22.3983 36.6346L22.333 36.6998C19.9627 39.0411 16.7008 40.4836 13.12 40.4836C9.50295 40.4836 6.21932 39.0121 3.84177 36.6346C1.46422 34.257 0 30.9734 0 27.3563C0 27.1316 0.0652376 26.9214 0.188464 26.7474L0.202962 26.7257L0.21021 26.7184L10.5323 9.82914C9.4957 9.72766 8.56063 9.26374 7.85751 8.56788H7.85026C7.06016 7.77778 6.56726 6.68323 6.56726 5.47271H8.75634C8.75634 6.07435 9.00279 6.618 9.40147 7.01667C9.80014 7.4081 10.3438 7.65455 10.9454 7.65455H11.8588L12.2067 7.08916C12.2937 6.94418 12.4169 6.82096 12.5691 6.72673C13.0838 6.41503 13.7579 6.5745 14.0696 7.08916L14.4175 7.65455H15.2221L33.9236 2.3848V0H36.1127V2.3848L54.8214 7.65455H55.6115L55.9594 7.08916C56.0464 6.94418 56.1696 6.82096 56.3218 6.72673C56.8365 6.41503 57.5106 6.5745 57.8223 7.08916L58.1702 7.65455H59.0908C59.6924 7.65455 60.2433 7.4081 60.6348 7.01667V7.00942C61.0334 6.61075 61.2799 6.0671 61.2799 5.46546H63.469C63.469 6.67598 62.9761 7.77053 62.186 8.56063C61.4828 9.26374 60.5405 9.73491 59.504 9.82914L69.8405 26.7402L69.855 26.7619L69.8695 26.7837L69.884 26.8054L69.8985 26.8272L69.913 26.8489L69.9202 26.8707V26.8779L69.9275 26.8997V26.9069L69.9347 26.9286V26.9359L69.942 26.9576V26.9649L69.9492 26.9866V26.9939L69.9565 27.0156V27.0229L69.9637 27.0374V27.0446L69.971 27.0591V27.0664L69.9782 27.0881V27.0954L69.9855 27.1171V27.1244L69.9927 27.1461V27.1534L70 27.1751V27.1824L70.0072 27.2041V27.2113V27.2331V27.2403L70.0145 27.2621L70.0217 27.3128V27.3418V27.3636V27.3708V27.3926V27.3998V27.4143C70.0072 31.0169 68.543 34.286 66.18 36.6491L66.1147 36.7143C63.7444 39.0556 60.4825 40.4981 56.9017 40.4981C53.2846 40.4981 50.001 39.0266 47.6235 36.6491C45.2459 34.2715 43.7817 30.9879 43.7817 27.3708C43.7817 27.1461 43.8469 26.9359 43.9702 26.7619L43.9847 26.7402L43.9919 26.7329L54.3429 9.80014L36.1417 4.67536V63.4835H50.3635C51.2695 63.4835 52.0886 63.8532 52.683 64.4475C53.2774 65.0419 53.6471 65.861 53.6471 66.7671V68.9562V70.0507H52.5525H17.5417H16.4471V68.9562V66.7671C16.4471 65.861 16.8168 65.0419 17.4112 64.4475C18.0056 63.8532 18.8247 63.4835 19.7308 63.4835L19.6873 63.4472ZM66.9628 26.2473L56.9307 9.83639H56.8147L46.7826 26.2473H66.9556H66.9628ZM64.607 35.0761C66.3467 33.3364 67.4992 31.0169 67.7602 28.4364H45.9853C46.239 31.0241 47.3988 33.3437 49.1312 35.0761L49.1384 35.0834C51.1173 37.0622 53.85 38.28 56.8727 38.28C59.8664 38.28 62.5846 37.0767 64.5563 35.1341L64.607 35.0761ZM23.2029 26.2473L13.1708 9.83639H13.0548L3.02268 26.2473H23.1956H23.2029ZM20.847 35.0761C22.5867 33.3364 23.7393 31.0169 24.0002 28.4364H2.22533C2.47903 31.0241 3.63881 33.3437 5.37123 35.0761L5.37848 35.0834C7.35736 37.0622 10.0901 38.28 13.1128 38.28C16.1064 38.28 18.8247 37.0767 20.7963 35.1341L20.847 35.0761ZM50.3127 65.6363H19.6728C19.3756 65.6363 19.1001 65.7595 18.9044 65.9553C18.7087 66.151 18.5855 66.4264 18.5855 66.7236V67.8182H51.4073V66.7236C51.4073 66.4264 51.284 66.151 51.0883 65.9553C50.8926 65.7595 50.6172 65.6363 50.32 65.6363H50.3127Z" fill="#DDD8D8" stroke="#DDD8D8"/>
</svg>
