<svg width="58" height="70" viewBox="0 0 58 70" fill="none" xmlns="http://www.w3.org/2000/svg">
<g clip-path="url(#clip0)">
<path d="M28.7955 70C28.6948 70 28.4934 70 28.3927 69.8996C11.3772 64.878 0 49.6126 0 31.9369V9.54089C0 8.83788 0.6041 8.23529 1.30888 8.23529C5.13485 8.23529 8.25604 5.12195 8.25604 1.3056C8.25604 0.602582 8.86014 0 9.56492 0H48.026C48.7308 0 49.3349 0.602582 49.3349 1.3056C49.3349 5.12195 52.4561 8.23529 56.282 8.23529C56.9868 8.23529 57.5909 8.83788 57.5909 9.54089V31.8364C57.5909 49.5122 46.2137 64.878 29.1982 69.8996C28.9968 70 28.8961 70 28.7955 70ZM10.7731 2.71162C10.169 6.82927 6.84647 10.2439 2.71845 10.7461V31.8364C2.61777 48.2066 13.1895 62.4677 28.7955 67.2884C44.4014 62.4677 54.9731 48.2066 54.9731 31.8364V10.7461C50.7444 10.1435 47.4219 6.82927 46.8178 2.61119H10.7731V2.71162Z" fill="#E3E3E3"/>
<path d="M28.7955 44.5911C22.0497 44.5911 16.5121 39.0674 16.5121 32.3386C16.5121 25.6097 22.0497 20.0861 28.7955 20.0861C35.5413 20.0861 41.0788 25.6097 41.0788 32.3386C41.0788 39.0674 35.5413 44.5911 28.7955 44.5911ZM28.7955 22.6973C23.4592 22.6973 19.1299 27.0158 19.1299 32.3386C19.1299 37.6614 23.4592 41.9799 28.7955 41.9799C34.1317 41.9799 38.4611 37.6614 38.4611 32.3386C38.4611 27.0158 34.1317 22.6973 28.7955 22.6973Z" fill="#E3E3E3"/>
<path d="M27.3859 37.6614C26.9831 37.6614 26.6811 37.5609 26.4797 37.2597L23.7613 34.548C23.2578 34.0459 23.2578 33.142 23.7613 32.6399C24.0633 32.3386 24.3654 32.2381 24.6674 32.2381C24.9695 32.2381 25.3722 32.3386 25.5736 32.6399L27.3859 34.4476L33.3262 28.5222C33.6282 28.2209 33.9303 28.1205 34.2323 28.1205C34.6351 28.1205 34.9371 28.2209 35.1385 28.5222C35.6419 29.0244 35.6419 29.9282 35.1385 30.4304L28.292 37.2597C28.0906 37.5609 27.7886 37.6614 27.3859 37.6614Z" fill="#E3E3E3"/>
</g>
<defs>
<clipPath id="clip0">
<rect width="57.5909" height="70" fill="white"/>
</clipPath>
</defs>
</svg>
