<svg width="36" height="62" viewBox="0 0 36 62" fill="none" xmlns="http://www.w3.org/2000/svg">
<path d="M1.73438 11.6639C1.73438 10.2928 1.73438 8.93343 1.73438 7.56234C1.73438 4.86702 3.30469 2.8514 5.78906 2.34749C6.21094 2.26546 6.64453 2.25374 7.0664 2.25374C14.3672 2.25374 21.6797 2.24202 28.9805 2.25374C32.1211 2.25374 34.2539 4.36312 34.2539 7.50374C34.2539 17.7225 34.2539 27.9295 34.2539 38.1483" stroke="#DDD8D8" stroke-width="3" stroke-miterlimit="10" stroke-linecap="round" stroke-linejoin="round"/>
<path d="M34.2656 40.4922C34.2656 40.5273 34.2656 40.4922 34.2656 40.5273" stroke="#DDD8D8" stroke-width="3" stroke-miterlimit="10" stroke-linecap="round" stroke-linejoin="round"/>
<path d="M34.2656 42.7539C34.2656 46.668 34.2656 50.582 34.2656 54.4844C34.2656 57.6133 32.1328 59.7227 28.9922 59.7344C21.668 59.7344 14.3438 59.7344 7.01953 59.7344C3.84375 59.7344 1.74609 57.6133 1.74609 54.4375C1.74609 46.6211 1.74609 38.8164 1.74609 31C1.74609 26.3125 1.74609 19.3984 1.74609 14.7109" stroke="#DDD8D8" stroke-width="3" stroke-miterlimit="10" stroke-linecap="round" stroke-linejoin="round"/>
<path d="M18.0117 51.0157C19.4062 51.0274 20.4844 52.1173 20.4844 53.5235C20.4727 54.9181 19.3711 55.9962 17.9766 55.9962C16.582 55.9845 15.5039 54.8946 15.5039 53.4884C15.5156 52.0821 16.6172 51.004 18.0117 51.0157Z" stroke="#DDD8D8" stroke-width="3" stroke-miterlimit="10"/>
<path d="M21.5977 7.80859H14.3906C14.0625 7.80859 13.793 7.53906 13.793 7.21094C13.793 6.88281 14.0625 6.61328 14.3906 6.61328H21.5977C21.9258 6.61328 22.1953 6.88281 22.1953 7.21094C22.1953 7.53906 21.9258 7.80859 21.5977 7.80859Z" fill="#DDD8D8"/>
</svg>
