<svg width="61" height="61" viewBox="0 0 61 61" fill="none" xmlns="http://www.w3.org/2000/svg">
<path d="M56.2162 15.8918L59.7579 12.3502C59.9711 12.174 60.1272 11.9386 60.2067 11.6738C60.2862 11.4089 60.2853 11.1264 60.2043 10.862C60.0856 10.5707 59.8777 10.3245 59.6103 10.1587C59.343 9.99294 59.0299 9.91617 58.7162 9.93942H51.2757V2.49888C51.2989 2.18516 51.2222 1.87214 51.0564 1.60477C50.8906 1.33741 50.6444 1.12945 50.3531 1.01077C50.084 0.893664 49.7854 0.862264 49.4978 0.920839C49.2103 0.979414 48.9477 1.12512 48.7459 1.33815L45.3232 4.9989C40.8049 2.37195 35.6686 0.995418 30.4422 1.01077C23.8424 0.9879 17.42 3.14631 12.1735 7.15039C6.92709 11.1545 3.15066 16.7798 1.43141 23.1518C-0.287835 29.5238 0.146459 36.2853 2.66676 42.3849C5.18707 48.4846 9.65214 53.5806 15.3677 56.8806C21.0833 60.1805 27.7291 61.4996 34.2717 60.6326C40.8143 59.7656 46.8872 56.7611 51.546 52.0863C56.2047 47.4115 59.1884 41.3284 60.033 34.7829C60.8776 28.2373 59.5357 21.5961 56.2162 15.8918ZM49.7876 12.9156H55.115L49.1626 18.8681H42.347V12.0525L48.2995 6.1001V11.4275C48.2995 11.8222 48.4562 12.2007 48.7353 12.4798C49.0144 12.7589 49.3929 12.9156 49.7876 12.9156ZM48.2995 30.7729C48.3101 34.706 47.0219 38.5325 44.635 41.6584C42.248 44.7844 38.8959 47.0349 35.0989 48.0605C31.3019 49.0861 27.2726 48.8295 23.6364 47.3305C20.0002 45.8315 16.9605 43.174 14.9894 39.7705C13.0183 36.3671 12.2259 32.4081 12.7354 28.5081C13.2448 24.6082 15.0275 20.9855 17.8067 18.2026C20.5859 15.4196 24.2061 13.632 28.1054 13.1173C32.0046 12.6026 35.9647 13.3896 39.3708 15.3561V19.7312L37.7041 21.3978C35.3114 19.5425 32.3016 18.6686 29.2873 18.954C26.273 19.2393 23.4807 20.6625 21.4786 22.9338C19.4765 25.2052 18.415 28.154 18.5103 31.1803C18.6055 34.2066 19.8503 37.0829 21.9912 39.2239C24.1322 41.3648 27.0085 42.6096 30.0348 42.7048C33.0611 42.8001 36.0099 41.7386 38.2813 39.7365C40.5526 37.7344 41.9758 34.9421 42.2611 31.9278C42.5465 28.9135 41.6726 25.9037 39.8172 23.511L41.4839 21.8443H45.859C47.4431 24.5543 48.2849 27.6339 48.2995 30.7729ZM39.3708 30.7729C39.3708 32.5388 38.8472 34.2651 37.8661 35.7334C36.885 37.2017 35.4905 38.3461 33.859 39.0219C32.2275 39.6977 30.4323 39.8745 28.7003 39.53C26.9683 39.1855 25.3774 38.3351 24.1287 37.0864C22.88 35.8377 22.0296 34.2468 21.6851 32.5148C21.3406 30.7828 21.5174 28.9876 22.1932 27.3561C22.869 25.7246 24.0134 24.3301 25.4817 23.349C26.95 22.3679 28.6762 21.8443 30.4422 21.8443C32.2895 21.8538 34.0885 22.4361 35.591 23.511L29.4005 29.7312C29.2581 29.8649 29.1447 30.0262 29.0671 30.2054C28.9896 30.3845 28.9495 30.5777 28.9495 30.7729C28.9495 30.9682 28.9896 31.1613 29.0671 31.3405C29.1447 31.5196 29.2581 31.681 29.4005 31.8146C29.5341 31.957 29.6955 32.0704 29.8746 32.148C30.0538 32.2255 30.2469 32.2656 30.4422 32.2656C30.6374 32.2656 30.8306 32.2255 31.0097 32.148C31.1889 32.0704 31.3502 31.957 31.4838 31.8146L37.7041 25.6241C38.779 27.1266 39.3613 28.9255 39.3708 30.7729ZM30.4422 57.5589C26.3641 57.5752 22.3362 56.6602 18.6654 54.8835C14.9947 53.1069 11.7781 50.5156 9.26085 47.3071C6.74361 44.0987 4.99219 40.3578 4.14013 36.3697C3.28807 32.3816 3.35786 28.2517 4.34419 24.2947C5.33052 20.3377 7.20734 16.6581 9.83156 13.5365C12.4558 10.415 15.7581 7.9338 19.4868 6.28221C23.2155 4.63062 27.272 3.85222 31.3472 4.00634C35.4223 4.16046 39.4085 5.24304 43.0018 7.17154L39.8172 10.3858C39.6743 10.5187 39.5607 10.6801 39.4838 10.8595C39.4069 11.0389 39.3684 11.2324 39.3708 11.4275V11.9632C34.935 9.85651 29.8976 9.38438 25.1476 10.6302C20.3976 11.876 16.2403 14.7597 13.4095 18.7723C10.5787 22.7849 9.25622 27.6685 9.67557 32.5612C10.0949 37.4539 12.2291 42.0413 15.7015 45.5136C19.1738 48.986 23.7612 51.1202 28.6539 51.5395C33.5466 51.9589 38.4302 50.6364 42.4428 47.8056C46.4554 44.9748 49.3391 40.8175 50.5849 36.0675C51.8307 31.3175 51.3586 26.2801 49.2518 21.8443H49.7876C49.9827 21.8467 50.1762 21.8082 50.3556 21.7313C50.535 21.6544 50.6964 21.5408 50.8292 21.3978L54.0436 18.2133C56.2081 22.2907 57.2822 26.8583 57.1615 31.473C57.0409 36.0877 55.7296 40.593 53.355 44.5517C50.9804 48.5104 47.6229 51.7882 43.6084 54.0672C39.5939 56.3462 35.0585 57.549 30.4422 57.5589Z" fill="#DDD8D8"/>
</svg>
