<svg width="70" height="70" viewBox="0 0 70 70" fill="none" xmlns="http://www.w3.org/2000/svg">
<path d="M61.3526 11.9793C61.2964 11.9087 61.2344 11.8428 61.1674 11.7823C57.8886 8.07765 53.8604 5.11156 49.3493 3.08038C44.8383 1.04919 39.9473 -0.000761629 35 4.14513e-07C15.7004 4.14513e-07 0 15.7098 0 35C0 54.2902 15.7098 70 35 70C54.2902 70 70 54.2902 70 35C70.0072 26.5616 66.953 18.4071 61.4042 12.0496L61.3526 11.9793ZM66.6963 32.0386H38.5218L59.8778 15.1564C63.7537 19.9953 66.1245 25.8652 66.6963 32.0386ZM57.7863 12.7859L35.5557 30.3551V3.17244C43.9429 3.31422 51.9329 6.77052 57.7792 12.7859H57.7863ZM35 66.8346C17.4473 66.8346 3.16541 52.5551 3.16541 35C3.16541 18.3289 16.0498 4.60977 32.3833 3.27326V33.6213C32.3833 33.6401 32.3833 33.6565 32.3833 33.6752C32.3833 33.694 32.3833 33.7338 32.3833 33.7643C32.3833 33.7948 32.3833 33.8112 32.3833 33.8347C32.3833 33.8581 32.3833 33.8909 32.395 33.9167C32.4067 33.9425 32.4067 33.966 32.4114 33.9918L32.4325 34.0668C32.4325 34.0926 32.4489 34.1184 32.456 34.1418L32.4818 34.2122L32.5169 34.2895C32.5169 34.3106 32.5357 34.3317 32.5474 34.3529C32.5591 34.374 32.5756 34.4044 32.592 34.4302L32.6248 34.4865L32.6834 34.5686L32.7092 34.6037C32.7444 34.6483 32.7842 34.6905 32.8241 34.7327L32.8405 34.7468C32.8757 34.7796 32.9109 34.8124 32.9484 34.8429L33.0046 34.8851L33.082 34.9414L33.1477 34.9789C33.1743 34.9951 33.2016 35.01 33.2297 35.0235L33.293 35.0539C33.3242 35.0692 33.3563 35.0825 33.3892 35.0938L33.4455 35.1149L33.5603 35.1477L33.6072 35.1594C33.6514 35.1689 33.696 35.176 33.7409 35.1805H33.7737C33.8299 35.184 33.8863 35.184 33.9425 35.1805H66.8323C66.7221 52.6653 52.4871 66.8346 35 66.8346Z" fill="#DDD8D8"/>
<path d="M34.9367 40.6439C34.8282 40.3343 34.6262 40.0661 34.3586 39.8764C34.0911 39.6866 33.7712 39.5847 33.4431 39.5847C33.1151 39.5847 32.7952 39.6866 32.5276 39.8764C32.26 40.0661 32.058 40.3343 31.9495 40.6439L29.4477 47.7438L27.5719 53.0476C27.4323 53.4437 27.4557 53.8791 27.6371 54.2579C27.8185 54.6367 28.143 54.928 28.5391 55.0676C28.9352 55.2072 29.3706 55.1837 29.7494 55.0023C30.1282 54.8209 30.4195 54.4965 30.5591 54.1004L31.3211 51.9385H35.5604L36.3248 54.1004C36.4685 54.4899 36.7595 54.8073 37.1351 54.9843C37.5107 55.1613 37.9408 55.1836 38.3326 55.0464C38.7245 54.9092 39.0468 54.6235 39.23 54.2509C39.4132 53.8784 39.4426 53.4487 39.312 53.0546L34.9367 40.6439ZM32.4372 48.7848L33.4431 45.9313L34.449 48.7848H32.4372Z" fill="#DDD8D8"/>
<path d="M28.2776 41.0541C28.277 40.6345 28.11 40.2323 27.8133 39.9356C27.5166 39.6389 27.1144 39.472 26.6949 39.4714H19.5317C19.1119 39.4714 18.7093 39.6381 18.4125 39.9349C18.1157 40.2317 17.949 40.6343 17.949 41.0541C17.949 41.4738 18.1157 41.8764 18.4125 42.1732C18.7093 42.47 19.1119 42.6368 19.5317 42.6368H21.5294V53.4695C21.5294 53.8893 21.6961 54.2918 21.993 54.5886C22.2898 54.8855 22.6923 55.0522 23.1121 55.0522C23.5319 55.0522 23.9344 54.8855 24.2312 54.5886C24.5281 54.2918 24.6948 53.8893 24.6948 53.4695V42.6368H26.6949C27.1146 42.6368 27.5172 42.47 27.814 42.1732C28.1108 41.8764 28.2776 41.4738 28.2776 41.0541Z" fill="#DDD8D8"/>
<path d="M49.8399 39.6895C49.4787 39.4756 49.0474 39.4135 48.6405 39.5167C48.2336 39.62 47.8841 39.8803 47.6687 40.2406L45.338 44.1539L43.0097 40.2406C42.9033 40.062 42.7627 39.9061 42.5961 39.7818C42.4295 39.6575 42.24 39.5673 42.0385 39.5162C41.837 39.4651 41.6274 39.4543 41.4217 39.4842C41.216 39.5142 41.0182 39.5843 40.8396 39.6907C40.661 39.7971 40.5051 39.9376 40.3808 40.1043C40.2565 40.2709 40.1663 40.4604 40.1152 40.6619C40.0642 40.8634 40.0533 41.073 40.0833 41.2787C40.1132 41.4844 40.1834 41.6822 40.2897 41.8608L43.4974 47.2537L40.2897 52.6466C40.1834 52.8252 40.1132 53.023 40.0833 53.2287C40.0533 53.4344 40.0642 53.644 40.1152 53.8455C40.1663 54.047 40.2565 54.2365 40.3808 54.4031C40.5051 54.5697 40.661 54.7103 40.8396 54.8166C41.0182 54.923 41.216 54.9932 41.4217 55.0231C41.6274 55.0531 41.837 55.0422 42.0385 54.9912C42.24 54.9401 42.4295 54.8498 42.5961 54.7256C42.7627 54.6013 42.9033 54.4454 43.0097 54.2668L45.338 50.3534L47.6687 54.2668C47.8835 54.6275 48.2328 54.888 48.6398 54.9912C49.0468 55.0943 49.478 55.0315 49.8387 54.8166C50.1994 54.6018 50.46 54.2525 50.5631 53.8455C50.6662 53.4385 50.6034 53.0073 50.3886 52.6466L47.1809 47.2537L50.3886 41.8608C50.6033 41.5 50.6662 41.0687 50.5633 40.6617C50.4604 40.2546 50.2003 39.905 49.8399 39.6895Z" fill="#DDD8D8"/>
</svg>
