<svg width="60" height="70" viewBox="0 0 60 70" fill="none" xmlns="http://www.w3.org/2000/svg">
<path d="M53.3333 0H11.3333C8.47965 0 6.10781 2.06267 5.60731 4.774C2.89598 5.2745 0.833313 7.64633 0.833313 10.5V64.1667C0.833313 67.3832 3.45015 70 6.66665 70H48.6666C51.5203 70 53.8922 67.9373 54.3927 65.226C57.104 64.7255 59.1666 62.3537 59.1666 59.5V5.83333C59.1666 2.61683 56.5498 0 53.3333 0ZM52.1666 64.1667C52.1666 66.0963 50.5963 67.6667 48.6666 67.6667H6.66665C4.73698 67.6667 3.16665 66.0963 3.16665 64.1667V10.5C3.16665 8.57033 4.73698 7 6.66665 7H41.6666V16.3333C41.6666 16.9785 42.1893 17.5 42.8333 17.5H52.1666V64.1667ZM44 15.1667V8.64967L50.517 15.1667H44ZM56.8333 59.5C56.8333 61.019 55.8545 62.3023 54.5 62.7853V16.3333C54.5 16.0102 54.3693 15.7185 54.157 15.5073L43.6593 5.00967C43.4482 4.79733 43.1565 4.66667 42.8333 4.66667H8.04798C8.53098 3.31217 9.81431 2.33333 11.3333 2.33333H53.3333C55.263 2.33333 56.8333 3.90367 56.8333 5.83333V59.5Z" fill="#DDD8D8"/>
<path d="M27.6666 17.5C18.66 17.5 11.3333 24.8267 11.3333 33.8333C11.3333 42.84 18.66 50.1667 27.6666 50.1667C36.6733 50.1667 44 42.84 44 33.8333C44 24.8267 36.6733 17.5 27.6666 17.5ZM27.6666 47.8333C19.9468 47.8333 13.6666 41.5532 13.6666 33.8333C13.6666 26.1135 19.9468 19.8333 27.6666 19.8333C35.3865 19.8333 41.6666 26.1135 41.6666 33.8333C41.6666 41.5532 35.3865 47.8333 27.6666 47.8333Z" fill="#DDD8D8"/>
<path d="M31.3658 26.1836L22.0322 40.1848L23.9739 41.4792L33.3075 27.478L31.3658 26.1836Z" fill="#DDD8D8"/>
<path d="M33.5 33.8333C31.5703 33.8333 30 35.4036 30 37.3333C30 39.2629 31.5703 40.8332 33.5 40.8332C35.4297 40.8332 37 39.2629 37 37.3333C37 35.4036 35.4297 33.8333 33.5 33.8333ZM33.5 38.4999C32.8572 38.4999 32.3333 37.9772 32.3333 37.3333C32.3333 36.6893 32.8572 36.1666 33.5 36.1666C34.1428 36.1666 34.6667 36.6893 34.6667 37.3333C34.6667 37.9772 34.1428 38.4999 33.5 38.4999Z" fill="#DDD8D8"/>
<path d="M21.8333 26.8333C19.9036 26.8333 18.3333 28.4036 18.3333 30.3333C18.3333 32.2629 19.9036 33.8333 21.8333 33.8333C23.763 33.8333 25.3333 32.2629 25.3333 30.3333C25.3333 28.4036 23.763 26.8333 21.8333 26.8333ZM21.8333 31.4999C21.1905 31.4999 20.6666 30.9773 20.6666 30.3333C20.6666 29.6893 21.1905 29.1666 21.8333 29.1666C22.4761 29.1666 23 29.6893 23 30.3333C23 30.9773 22.4761 31.4999 21.8333 31.4999Z" fill="#DDD8D8"/>
</svg>
