<svg width="68" height="60" viewBox="0 0 68 60" fill="none" xmlns="http://www.w3.org/2000/svg">
<path d="M33.7817 13.363C37.4699 13.363 40.4632 10.3697 40.4632 6.68152C40.4632 2.99332 37.4699 0 33.7817 0C30.0935 0 27.1002 2.99332 27.1002 6.68152C27.1002 10.343 30.0935 13.363 33.7817 13.363ZM33.7817 2.72606C35.9465 2.72606 37.7372 4.48998 37.7372 6.68152C37.7372 8.84633 35.9733 10.637 33.7817 10.637C31.6169 10.637 29.8263 8.87305 29.8263 6.68152C29.853 4.48998 31.6169 2.72606 33.7817 2.72606Z" fill="#DDD8D8"/>
<path d="M19.2428 39.3141C18.6815 39.4477 18.2539 39.9555 18.2272 40.5435L17.2116 56.1782C17.1849 56.7929 16.6771 57.2473 16.0624 57.2473H8.3118C7.6971 57.2473 7.18931 56.7662 7.16258 56.1782L6.12027 40.5702C6.09354 40.009 5.69265 39.5279 5.15813 39.3675C4.86414 39.2874 4.00891 39.0201 3.87528 38.8597C3.76837 38.6994 3.71492 37.8174 3.6882 37.3631L2.75278 20.8196C4.08909 20.4188 6.28062 19.7239 7.42984 19.3497L11.2517 22.931C11.7862 23.4121 12.588 23.4121 13.1225 22.931L16.9443 19.3497C17.3185 19.4566 17.7728 19.617 18.2806 19.7773C19.0022 20.0179 19.7773 19.617 19.9911 18.8954C20.2316 18.1738 19.8307 17.3987 19.1091 17.1849C17.9599 16.8107 17.0245 16.5167 17.0245 16.5167C16.5434 16.3564 16.0356 16.49 15.6615 16.8107L12.1871 20.0713L8.7127 16.8107C8.33853 16.4633 7.83074 16.3564 7.34967 16.5167C7.34967 16.5167 3.6882 17.6927 1.8441 18.2539C0.694878 18.6014 0 19.5101 0 20.7127C0 20.7929 0 21.0067 0 21.0067L0.908686 37.3096C0.908686 37.3096 0.908686 37.5502 0.935412 37.6036C1.09577 40.009 1.44321 40.8909 3.44766 41.666L4.4098 56.3653C4.54343 58.3965 6.2539 60 8.28508 60H16.0356C18.0668 60 19.7773 58.3965 19.9109 56.3653L20.8998 41.1314C21.0067 40.8642 21.0067 40.5435 20.9265 40.2495C20.7394 39.5279 19.9644 39.127 19.2428 39.3141Z" fill="#DDD8D8"/>
<path d="M12.1603 14.2986C15.8485 14.2986 18.8419 11.3053 18.8419 7.61706C18.8419 3.92887 15.8485 0.935547 12.1603 0.935547C8.47215 0.935547 5.47884 3.92887 5.47884 7.61706C5.47884 11.3053 8.49888 14.2986 12.1603 14.2986ZM12.1603 3.68833C14.3252 3.68833 16.1158 5.45225 16.1158 7.64379C16.1158 9.83533 14.3519 11.5992 12.1603 11.5992C9.99554 11.5992 8.20489 9.83533 8.20489 7.64379C8.20489 5.45225 9.99554 3.68833 12.1603 3.68833Z" fill="#DDD8D8"/>
<path d="M44.1247 18.2005C42.2806 17.6392 38.6192 16.4633 38.6192 16.4633C38.1381 16.3029 37.6303 16.4366 37.2561 16.7573L33.7817 20.0178L30.3073 16.7573C29.9332 16.4098 29.4254 16.3029 28.9443 16.4633C28.9443 16.4633 25.2828 17.6392 23.4387 18.2005C22.2628 18.5479 21.5947 19.4566 21.5947 20.6593L22.5033 37.3096L22.5301 37.5769C22.6904 39.9822 23.0379 40.8909 25.0423 41.6392L26.0044 56.3386C26.1381 58.3697 27.8485 59.9733 29.8797 59.9733H37.657C39.6882 59.9733 41.3987 58.3697 41.5323 56.3386L42.4944 41.6392C44.4989 40.8642 44.8463 39.9555 45.0067 37.5769L45.9421 20.8998V20.6593C45.9688 19.4299 45.3007 18.5479 44.1247 18.2005ZM42.3073 37.0958L42.2806 37.3631C42.2539 37.7907 42.2004 38.6459 42.0935 38.8063C41.9599 38.9666 41.0779 39.2339 40.784 39.3141C40.2494 39.4744 39.8485 39.9555 39.8218 40.5435L38.8062 56.1515C38.7795 56.7662 38.2717 57.2205 37.657 57.2205H29.8797C29.265 57.2205 28.784 56.7394 28.7305 56.1515L27.7149 40.5435C27.6882 39.9822 27.2873 39.5011 26.7528 39.3141C26.4588 39.2339 25.6036 38.9666 25.4699 38.8063C25.363 38.6459 25.3096 37.764 25.2828 37.3631L24.3474 20.8196V20.7394C25.6837 20.3386 27.8753 19.6437 29.0245 19.2695L32.8463 22.8508C33.3808 23.3319 34.1826 23.3319 34.7171 22.8508L38.539 19.2962C39.6882 19.6704 41.8797 20.3653 43.216 20.7662L42.3073 37.0958Z" fill="#DDD8D8"/>
<path d="M65.7461 18.2005C63.902 17.6392 60.2405 16.4633 60.2405 16.4633C59.7595 16.3029 59.2517 16.4366 58.8775 16.7573L55.4031 20.0178L51.9287 16.7573C51.5546 16.4098 51.0468 16.3029 50.5657 16.4633C50.5657 16.4633 49.6303 16.7573 48.4811 17.1314C47.7595 17.372 47.3586 18.1203 47.5991 18.8419C47.8396 19.5635 48.588 19.9644 49.3096 19.7239C49.8174 19.5635 50.2717 19.4031 50.6459 19.2962L54.4677 22.8775C55.0022 23.3586 55.804 23.3586 56.3385 22.8775L60.1604 19.2962C61.3096 19.6704 63.4744 20.3386 64.8374 20.7662L63.9287 37.0958L63.902 37.3631C63.8753 37.7907 63.8218 38.6459 63.7149 38.8063C63.5813 38.9666 62.6993 39.2339 62.4053 39.3141C61.8708 39.4744 61.4699 39.9555 61.4432 40.5435L60.4276 56.1515C60.3742 56.7662 59.8664 57.2205 59.2784 57.2205H51.5011C50.9131 57.2205 50.4053 56.7394 50.3519 56.1515L49.3096 40.5435C49.2829 39.9822 48.8285 39.5011 48.294 39.3141C47.5724 39.0735 46.8508 39.4744 46.6102 40.196C46.5301 40.4633 46.5301 40.7573 46.6102 40.9978L47.6258 56.3386C47.7595 58.3697 49.4432 59.9733 51.5011 59.9733H59.2784C61.3096 59.9733 63.02 58.3697 63.1537 56.3386L64.1158 41.6392C66.1203 40.8642 66.4677 39.9822 66.6281 37.6036C66.6281 37.4967 66.6548 37.2562 66.6548 37.2562L67.5635 20.8731V20.6325C67.5635 19.4566 66.8953 18.5479 65.7461 18.2005Z" fill="#DDD8D8"/>
<path d="M55.4031 14.2986C59.0913 14.2986 62.0846 11.3053 62.0846 7.61706C62.0846 3.92887 59.0913 0.935547 55.4031 0.935547C51.7149 0.935547 48.7216 3.92887 48.7216 7.61706C48.7216 11.3053 51.7149 14.2986 55.4031 14.2986ZM55.4031 3.68833C57.5679 3.68833 59.3586 5.45225 59.3586 7.64379C59.3586 9.83533 57.5946 11.5992 55.4031 11.5992C53.2383 11.5992 51.4476 9.83533 51.4476 7.64379C51.4476 5.45225 53.2116 3.68833 55.4031 3.68833Z" fill="#DDD8D8"/>
</svg>
