<svg width="62" height="60" viewBox="0 0 62 60" fill="none" xmlns="http://www.w3.org/2000/svg">
<path d="M60.3882 47.7414H57.9412C58.2628 47.1363 58.4324 46.462 58.4353 45.7767V26.8238C58.9439 25.8 59.2096 24.6728 59.2118 23.5297V15.9767C59.2118 15.2497 58.923 14.5525 58.4089 14.0384C57.8948 13.5244 57.1976 13.2356 56.4706 13.2356H48.2353V12.0591C48.2322 9.04282 47.0326 6.15098 44.8998 4.01815C42.7669 1.88532 39.8751 0.685732 36.8588 0.682617H24.3177C21.3014 0.685732 18.4095 1.88532 16.2767 4.01815C14.1439 6.15098 12.9443 9.04282 12.9412 12.0591V13.2356H4.70589C3.97888 13.2356 3.28165 13.5244 2.76758 14.0384C2.25351 14.5525 1.96471 15.2497 1.96471 15.9767V23.5297C1.96506 24.6768 2.23081 25.8083 2.74118 26.8356V45.7767C2.74406 46.462 2.91364 47.1363 3.2353 47.7414H0.788241C0.476222 47.7414 0.176982 47.8654 -0.0436492 48.086C-0.26428 48.3067 -0.388229 48.6059 -0.388229 48.9179C-0.388229 49.2299 -0.26428 49.5292 -0.0436492 49.7498C0.176982 49.9704 0.476222 50.0944 0.788241 50.0944H23.3765L23.2353 52.0944C23.2242 52.2666 23.2511 52.4391 23.3142 52.5997C23.3772 52.7603 23.4748 52.9051 23.6 53.0238L29.7647 59.0003C29.9846 59.2158 30.2803 59.3366 30.5882 59.3366C30.8962 59.3366 31.1919 59.2158 31.4118 59.0003L37.5765 53.0238C37.7017 52.9051 37.7993 52.7603 37.8623 52.5997C37.9253 52.4391 37.9523 52.2666 37.9412 52.0944L37.8 50.0944H60.3882C60.7003 50.0944 60.9995 49.9704 61.2201 49.7498C61.4408 49.5292 61.5647 49.2299 61.5647 48.9179C61.5647 48.6059 61.4408 48.3067 61.2201 48.086C60.9995 47.8654 60.7003 47.7414 60.3882 47.7414ZM15.2941 12.0591C15.2972 9.66686 16.2489 7.37349 17.9405 5.68193C19.6321 3.99036 21.9254 3.03867 24.3177 3.03556H36.8588C39.2511 3.03867 41.5444 3.99036 43.236 5.68193C44.9276 7.37349 45.8792 9.66686 45.8824 12.0591V13.2356H43.5294V12.0591C43.5294 10.2899 42.8266 8.59325 41.5756 7.34227C40.3247 6.09129 38.628 5.3885 36.8588 5.3885H24.3177C22.5485 5.3885 20.8518 6.09129 19.6008 7.34227C18.3499 8.59325 17.6471 10.2899 17.6471 12.0591V13.2356H15.2941V12.0591ZM41.1765 12.0591V13.2356H38.9177C38.7835 12.8756 38.5885 12.5413 38.3412 12.2473C38.0109 11.8578 37.6001 11.5445 37.137 11.3292C36.6739 11.1139 36.1695 11.0017 35.6588 11.0003H25.5177C25.0069 11.0017 24.5026 11.1139 24.0395 11.3292C23.5764 11.5445 23.1656 11.8578 22.8353 12.2473C22.5879 12.5413 22.393 12.8756 22.2588 13.2356H20V12.0591C20 10.914 20.4549 9.81577 21.2646 9.00605C22.0743 8.19633 23.1725 7.74144 24.3177 7.74144H36.8588C37.4258 7.74144 37.9873 7.85312 38.5111 8.0701C39.035 8.28708 39.5109 8.60512 39.9119 9.00605C40.3128 9.40698 40.6308 9.88296 40.8478 10.4068C41.0648 10.9306 41.1765 11.4921 41.1765 12.0591ZM23.5294 47.7414H7.05883C6.80082 47.7414 6.54534 47.6906 6.30697 47.5919C6.0686 47.4932 5.85201 47.3484 5.66957 47.166C5.48713 46.9836 5.34241 46.767 5.24368 46.5286C5.14494 46.2902 5.09412 46.0348 5.09412 45.7767V29.5767C6.35293 30.4793 7.86285 30.9648 9.41177 30.965H10.5882V32.4473C10.5577 33.0325 10.6465 33.6178 10.8494 34.1675C11.0523 34.7172 11.3649 35.2199 11.7683 35.6449C12.1717 36.07 12.6574 36.4084 13.1958 36.6397C13.7342 36.871 14.314 36.9903 14.9 36.9903C15.486 36.9903 16.0658 36.871 16.6042 36.6397C17.1426 36.4084 17.6283 36.07 18.0317 35.6449C18.4351 35.2199 18.7477 34.7172 18.9506 34.1675C19.1535 33.6178 19.2423 33.0325 19.2118 32.4473V30.965H24.7059L23.5294 47.7414ZM12.9412 32.4473V28.9179H16.8588V32.4473C16.8798 32.7173 16.8447 32.9887 16.7557 33.2445C16.6668 33.5003 16.5259 33.735 16.342 33.9337C16.158 34.1325 15.935 34.2911 15.6868 34.3995C15.4387 34.508 15.1708 34.564 14.9 34.564C14.6292 34.564 14.3613 34.508 14.1132 34.3995C13.865 34.2911 13.642 34.1325 13.458 33.9337C13.2741 33.735 13.1332 33.5003 13.0443 33.2445C12.9553 32.9887 12.9202 32.7173 12.9412 32.4473ZM24.8235 28.612H19.2118V28.5297C19.2133 28.2722 19.164 28.017 19.0665 27.7787C18.9691 27.5404 18.8254 27.3237 18.6439 27.1411C18.4624 26.9585 18.2466 26.8136 18.0089 26.7148C17.7712 26.6159 17.5163 26.565 17.2588 26.565H12.5529C12.0319 26.565 11.5321 26.772 11.1637 27.1404C10.7952 27.5089 10.5882 28.0086 10.5882 28.5297V28.612H9.41177C8.06276 28.612 6.76883 28.077 5.81384 27.1242C4.85884 26.1714 4.32077 24.8787 4.31765 23.5297V15.9767C4.31765 15.8738 4.35856 15.775 4.43137 15.7022C4.50417 15.6294 4.60292 15.5885 4.70589 15.5885H22.1177L22.9412 20.4709C23.0317 21.0393 23.3003 21.5643 23.7084 21.9703C24.1164 22.3762 24.6429 22.6421 25.2118 22.7297L24.8235 28.612ZM25.6235 51.765L25.8824 47.8473L34.9412 42.6238L35.2941 47.5532L26.5647 52.6003L25.6235 51.765ZM33.9294 27.5297L34.2588 32.4591L26.6235 36.8709L26.9765 31.5297L33.9294 27.5297ZM27.1765 28.7062L27.5765 22.8238H33.6L33.7529 24.965L27.1765 28.7062ZM34.4353 35.0709L34.7647 40.012L26.0706 45.0238L26.4353 39.6944L34.4353 35.0709ZM30.5882 56.4709L28.2941 54.2591L35.4471 50.1297L35.553 51.6591L30.5882 56.4709ZM35.5294 20.365H25.6471C25.5535 20.3661 25.4627 20.3333 25.3914 20.2728C25.3201 20.2123 25.273 20.128 25.2588 20.0356L24.3647 14.6709C24.3362 14.5027 24.3446 14.3305 24.3893 14.1659C24.434 14.0014 24.5139 13.8485 24.6235 13.7179C24.734 13.5888 24.8711 13.4851 25.0255 13.414C25.1798 13.3429 25.3477 13.3061 25.5177 13.3061H35.6588C35.8288 13.3061 35.9967 13.3429 36.151 13.414C36.3054 13.4851 36.4425 13.5888 36.5529 13.7179C36.6626 13.8485 36.7425 14.0014 36.7872 14.1659C36.8319 14.3305 36.8403 14.5027 36.8118 14.6709L35.9177 20.0356C35.9146 20.1365 35.8723 20.2322 35.7999 20.3025C35.7274 20.3728 35.6304 20.4121 35.5294 20.412V20.365ZM35.9647 22.7179C36.532 22.6311 37.0571 22.3669 37.465 21.9632C37.8729 21.5596 38.1425 21.0372 38.2353 20.4709L39.0588 15.5885H56.4706C56.5736 15.5885 56.6723 15.6294 56.7451 15.7022C56.8179 15.775 56.8588 15.8738 56.8588 15.9767V23.5297C56.8557 24.8787 56.3176 26.1714 55.3626 27.1242C54.4077 28.077 53.1137 28.612 51.7647 28.612H50.5882V28.5297C50.5882 28.0086 50.3812 27.5089 50.0128 27.1404C49.6443 26.772 49.1446 26.565 48.6235 26.565H43.9177C43.6602 26.565 43.4053 26.6159 43.1676 26.7148C42.9299 26.8136 42.714 26.9585 42.5325 27.1411C42.351 27.3237 42.2074 27.5404 42.11 27.7787C42.0125 28.017 41.9632 28.2722 41.9647 28.5297V28.612H36.353L35.9647 22.7179ZM48.2353 28.9179V32.4473C48.2562 32.7173 48.2211 32.9887 48.1322 33.2445C48.0432 33.5003 47.9024 33.735 47.7184 33.9337C47.5345 34.1325 47.3115 34.2911 47.0633 34.3995C46.8152 34.508 46.5473 34.564 46.2765 34.564C46.0057 34.564 45.7378 34.508 45.4896 34.3995C45.2415 34.2911 45.0184 34.1325 44.8345 33.9337C44.6506 33.735 44.5097 33.5003 44.4208 33.2445C44.3318 32.9887 44.2967 32.7173 44.3177 32.4473V28.9179H48.2353ZM37.6471 47.7414L36.4706 30.965H41.9177V32.4473C41.8871 33.0325 41.9759 33.6178 42.1788 34.1675C42.3817 34.7172 42.6944 35.2199 43.0977 35.6449C43.5011 36.07 43.9868 36.4084 44.5252 36.6397C45.0636 36.871 45.6434 36.9903 46.2294 36.9903C46.8154 36.9903 47.3952 36.871 47.9336 36.6397C48.472 36.4084 48.9577 36.07 49.3611 35.6449C49.7645 35.2199 50.0771 34.7172 50.28 34.1675C50.4829 33.6178 50.5718 33.0325 50.5412 32.4473V30.965H51.7177C53.2666 30.9648 54.7765 30.4793 56.0353 29.5767V45.7767C56.0354 46.2898 55.8349 46.7825 55.4766 47.1496C55.1183 47.5168 54.6305 47.7292 54.1177 47.7414H37.6471Z" fill="#E1DDDD"/>
</svg>
