<svg width="60" height="60" viewBox="0 0 60 60" fill="none" xmlns="http://www.w3.org/2000/svg">
<path d="M55.5 6H48V1.5C48 1.10218 47.842 0.720645 47.5607 0.43934C47.2794 0.158036 46.8978 0 46.5 0C46.1022 0 45.7206 0.158036 45.4393 0.43934C45.158 0.720645 45 1.10218 45 1.5V6H15V1.5C15 1.10218 14.842 0.720645 14.5607 0.43934C14.2794 0.158036 13.8978 0 13.5 0C13.1022 0 12.7206 0.158036 12.4393 0.43934C12.158 0.720645 12 1.10218 12 1.5V6H4.5C3.30653 6 2.16193 6.47411 1.31802 7.31802C0.474106 8.16193 0 9.30653 0 10.5V55.5C0 56.6935 0.474106 57.8381 1.31802 58.682C2.16193 59.5259 3.30653 60 4.5 60H55.5C56.6935 60 57.8381 59.5259 58.682 58.682C59.5259 57.8381 60 56.6935 60 55.5V10.5C60 9.30653 59.5259 8.16193 58.682 7.31802C57.8381 6.47411 56.6935 6 55.5 6ZM57 55.5C57 55.8978 56.842 56.2794 56.5607 56.5607C56.2794 56.842 55.8978 57 55.5 57H4.5C4.10218 57 3.72064 56.842 3.43934 56.5607C3.15804 56.2794 3 55.8978 3 55.5V10.5C3 10.1022 3.15804 9.72064 3.43934 9.43934C3.72064 9.15804 4.10218 9 4.5 9H12V10.5C12 10.8978 12.158 11.2794 12.4393 11.5607C12.7206 11.842 13.1022 12 13.5 12C13.8978 12 14.2794 11.842 14.5607 11.5607C14.842 11.2794 15 10.8978 15 10.5V9H45V10.5C45 10.8978 45.158 11.2794 45.4393 11.5607C45.7206 11.842 46.1022 12 46.5 12C46.8978 12 47.2794 11.842 47.5607 11.5607C47.842 11.2794 48 10.8978 48 10.5V9H55.5C55.8978 9 56.2794 9.15804 56.5607 9.43934C56.842 9.72064 57 10.1022 57 10.5V55.5Z" fill="#DDD8D8"/>
<path d="M25.5 24H10.5C10.1022 24 9.72064 24.158 9.43934 24.4393C9.15804 24.7206 9 25.1022 9 25.5C9 25.8978 9.15804 26.2794 9.43934 26.5607C9.72064 26.842 10.1022 27 10.5 27H25.5C25.8978 27 26.2794 26.842 26.5607 26.5607C26.842 26.2794 27 25.8978 27 25.5C27 25.1022 26.842 24.7206 26.5607 24.4393C26.2794 24.158 25.8978 24 25.5 24Z" fill="#DDD8D8"/>
<path d="M48.45 18.4501L40.5 26.3701L35.55 21.4501C35.2715 21.1716 34.8938 21.0151 34.5 21.0151C34.1062 21.0151 33.7285 21.1716 33.45 21.4501C33.1715 21.7285 33.0151 22.1062 33.0151 22.5001C33.0151 22.8939 33.1715 23.2716 33.45 23.5501L39.45 29.5501C39.5847 29.6936 39.7473 29.8079 39.9279 29.8861C40.1085 29.9643 40.3032 30.0046 40.5 30.0046C40.6968 30.0046 40.8915 29.9643 41.0721 29.8861C41.2527 29.8079 41.4153 29.6936 41.55 29.5501L50.55 20.5501C50.6879 20.4122 50.7973 20.2485 50.8719 20.0683C50.9465 19.8882 50.9849 19.6951 50.9849 19.5001C50.9849 19.3051 50.9465 19.112 50.8719 18.9318C50.7973 18.7516 50.6879 18.5879 50.55 18.4501C50.4121 18.3122 50.2484 18.2028 50.0683 18.1282C49.8881 18.0535 49.695 18.0151 49.5 18.0151C49.305 18.0151 49.1119 18.0535 48.9317 18.1282C48.7516 18.2028 48.5879 18.3122 48.45 18.4501Z" fill="#DDD8D8"/>
<path d="M25.5 45H10.5C10.1022 45 9.72064 45.158 9.43934 45.4393C9.15804 45.7206 9 46.1022 9 46.5C9 46.8978 9.15804 47.2794 9.43934 47.5607C9.72064 47.842 10.1022 48 10.5 48H25.5C25.8978 48 26.2794 47.842 26.5607 47.5607C26.842 47.2794 27 46.8978 27 46.5C27 46.1022 26.842 45.7206 26.5607 45.4393C26.2794 45.158 25.8978 45 25.5 45Z" fill="#DDD8D8"/>
<path d="M48.45 39.4501L40.5 47.3701L35.55 42.4501C35.2715 42.1716 34.8938 42.0151 34.5 42.0151C34.1062 42.0151 33.7285 42.1716 33.45 42.4501C33.1715 42.7285 33.0151 43.1062 33.0151 43.5001C33.0151 43.8939 33.1715 44.2716 33.45 44.5501L39.45 50.5501C39.5847 50.6936 39.7473 50.8079 39.9279 50.8861C40.1085 50.9643 40.3032 51.0046 40.5 51.0046C40.6968 51.0046 40.8915 50.9643 41.0721 50.8861C41.2527 50.8079 41.4153 50.6936 41.55 50.5501L50.55 41.5501C50.6879 41.4122 50.7973 41.2485 50.8719 41.0683C50.9465 40.8882 50.9849 40.6951 50.9849 40.5001C50.9849 40.3051 50.9465 40.112 50.8719 39.9318C50.7973 39.7516 50.6879 39.5879 50.55 39.4501C50.4121 39.3122 50.2484 39.2028 50.0683 39.1282C49.8881 39.0535 49.695 39.0151 49.5 39.0151C49.305 39.0151 49.1119 39.0535 48.9317 39.1282C48.7516 39.2028 48.5879 39.3122 48.45 39.4501Z" fill="#DDD8D8"/>
</svg>
