<svg width="72" height="70" viewBox="0 0 72 70" fill="none" xmlns="http://www.w3.org/2000/svg">
<path d="M35.7689 0.600933C29.0091 1.91497 22.9308 5.4948 18.5836 10.7224C14.2363 15.9499 11.8928 22.4971 11.9577 29.2335C11.9465 33.3622 12.8438 37.445 14.5888 41.2049H7.95971C7.72321 41.205 7.49204 41.2735 7.29541 41.402C7.09879 41.5304 6.94554 41.713 6.85505 41.9266C6.76455 42.1401 6.74087 42.3751 6.78699 42.6019C6.83311 42.8286 6.94698 43.0368 7.11418 43.2003L10.4963 46.5073L8.80524 48.1602C8.58739 48.3807 8.46685 48.676 8.46957 48.9825C8.4723 49.289 8.59807 49.5822 8.81981 49.7989C9.04154 50.0157 9.3415 50.1386 9.65507 50.1413C9.96865 50.1439 10.2707 50.0261 10.4963 49.8132L12.1874 48.1602L13.7325 49.6694L10.8252 53.0804L1.02565 54.4423C0.787082 54.4758 0.564453 54.579 0.386944 54.7384C0.209435 54.8977 0.0853299 55.1058 0.0308979 55.3353C-0.0235342 55.5648 -0.00575314 55.805 0.0819101 56.0245C0.169573 56.2439 0.323028 56.4324 0.522157 56.5651L5.89073 60.1363C5.8798 60.6662 5.97887 61.1928 6.18195 61.6842C6.38504 62.1756 6.68792 62.6217 7.07232 62.9956V63.0014L7.11179 63.0423C7.49113 63.4197 7.94283 63.7202 8.44107 63.9268C8.93931 64.1334 9.47433 64.242 10.0155 64.2464C10.0383 64.2464 10.061 64.2464 10.0837 64.2464L13.7313 69.488C13.8408 69.6455 13.9881 69.7746 14.1603 69.8638C14.3324 69.953 14.5243 69.9998 14.7192 70C14.8105 69.9996 14.9016 69.9895 14.9906 69.9696C15.2254 69.9161 15.4382 69.7945 15.601 69.6207C15.7639 69.447 15.8692 69.2292 15.9031 68.9959L17.3012 59.4162L20.7862 56.5756L22.3313 58.0847L20.645 59.7318C20.4417 59.9548 20.3334 60.2454 20.3424 60.544C20.3513 60.8426 20.4769 61.1265 20.6933 61.3374C20.9097 61.5483 21.2005 61.6703 21.506 61.6782C21.8115 61.6861 22.1086 61.5795 22.3361 61.3801L24.0272 59.7271L27.4093 63.0341C27.5765 63.1976 27.7896 63.3089 28.0216 63.354C28.2535 63.399 28.4939 63.3759 28.7124 63.2874C28.9309 63.199 29.1177 63.0492 29.2491 62.857C29.3805 62.6648 29.4507 62.4389 29.4508 62.2077V55.817C36.4342 58.936 44.3784 59.3064 51.6338 56.8512C58.8893 54.3961 64.8988 49.304 68.4145 42.6322C70.6254 38.4977 71.7719 33.8987 71.7548 29.2335C71.7487 24.8921 70.7548 20.6063 68.8451 16.6866C66.9353 12.767 64.1575 9.31159 60.7128 6.57081C57.2682 3.83003 53.2429 1.87247 48.9287 0.839938C44.6145 -0.192589 40.1194 -0.274229 35.7689 0.600933ZM41.8562 2.34737C44.5603 2.34737 47.4413 6.31249 49.3285 12.868H34.3792C36.2712 6.31249 39.1522 2.34737 41.8562 2.34737ZM32.3114 28.0646C32.3527 23.7407 32.8447 19.4323 33.7801 15.206H49.9324C50.8677 19.4323 51.3598 23.7407 51.401 28.0646H32.3114ZM51.401 30.4025C51.3578 33.9295 51.0274 37.4475 50.4132 40.9232H33.2993C32.6851 37.4475 32.3547 33.9295 32.3114 30.4025H51.401ZM36.636 2.8395C34.3465 5.81664 32.7295 9.23477 31.8917 12.868H20.0519C24.1433 7.65974 30.0415 4.09305 36.636 2.8395ZM18.4015 15.206H31.3176C30.4233 19.4375 29.9515 23.7439 29.9088 28.0646H14.3795C14.5765 23.5133 15.961 19.0868 18.4015 15.206ZM10.8467 43.5428H18.9588L15.2705 47.868L10.8467 43.5428ZM6.73507 57.8732L4.42331 56.3301L8.54333 55.7562L6.73507 57.8732ZM13.9765 65.6737L12.4014 63.4105L14.5649 61.6478L13.9765 65.6737ZM27.0589 59.3928L22.6339 55.0676L27.0589 51.4614V59.3928ZM27.4894 48.0679L10.8658 61.6139C10.5542 61.8298 10.1721 61.9261 9.79248 61.8843C9.41285 61.8424 9.06227 61.6654 8.80763 61.3871L7.9621 62.2135L8.79926 61.3812C8.51447 61.1323 8.3334 60.7897 8.29061 60.4186C8.24781 60.0475 8.34629 59.6741 8.56725 59.3694L22.4306 43.1208C22.6992 42.8094 23.032 42.5568 23.4073 42.3795C23.7825 42.2023 24.1918 42.1044 24.6084 42.0921C24.6594 42.0921 24.7108 42.0921 24.7627 42.0921C25.7843 42.1158 26.7549 42.5334 27.4627 43.2539C28.1705 43.9744 28.558 44.9393 28.5406 45.938C28.5283 46.345 28.4283 46.7448 28.2471 47.1114C28.066 47.478 27.8078 47.8031 27.4894 48.0656V48.0679ZM29.4508 53.2113V49.4286C30.3501 48.5126 30.8762 47.3071 30.9301 46.0386C30.9544 45.2069 30.8047 44.379 30.4902 43.6059C30.1757 42.8327 29.703 42.1304 29.101 41.542C28.4991 40.9537 27.7806 40.4917 26.9896 40.1842C26.1986 39.8768 25.3517 39.7305 24.5008 39.7542C23.2032 39.8069 21.97 40.3207 21.0325 41.1991H17.245C15.5158 37.8404 14.5409 34.1594 14.3855 30.4025H29.9088C30.0822 41.6725 32.748 51.1224 36.6336 55.6252C34.136 55.1512 31.7184 54.3388 29.4508 53.2113ZM41.8562 56.1197C38.8437 56.1197 35.6098 51.2101 33.7801 43.2611H49.9324C48.1026 51.2101 44.8688 56.1197 41.8562 56.1197ZM47.0789 55.6241C49.3512 52.9881 51.2109 48.6582 52.3949 43.2611H65.311C63.3245 46.4526 60.6756 49.2017 57.5353 51.3311C54.395 53.4605 50.833 54.9229 47.0789 55.6241ZM66.6038 40.9232H52.8505C53.4429 37.4452 53.7628 33.9281 53.8073 30.4025H69.3282C69.1782 34.0564 68.2503 37.6395 66.6038 40.9232ZM69.333 28.0646H53.8037C53.761 23.7439 53.2892 19.4375 52.3949 15.206H65.311C67.7515 19.0868 69.136 23.5133 69.333 28.0646ZM51.8208 12.868C50.983 9.23477 49.366 5.81664 47.0765 2.8395C53.6702 4.09359 59.5674 7.66022 63.6582 12.868H51.8208Z" fill="#DDD8D8"/>
</svg>
