<svg width="70" height="70" viewBox="0 0 70 70" fill="none" xmlns="http://www.w3.org/2000/svg">
<path d="M35 0C15.7003 0 0 15.7003 0 35C0 44.1881 3.65129 53.4981 9.76726 59.9019C10.4131 60.5794 11.3344 60.9677 12.2963 60.9677C14.2315 60.9677 15.8065 59.3927 15.8065 57.3797C15.8065 56.5148 15.4802 55.676 14.8863 55.0177C9.88355 49.4561 6.77419 41.7844 6.77419 35C6.77419 27.1397 9.92645 19.8405 15.6506 14.4494C21.3726 9.06048 28.866 6.35081 36.7432 6.82613C48.9774 7.56113 59.5294 16.3269 62.4016 28.1445C63.8569 34.1306 63.3906 40.3064 61.0524 46.0081L63.1411 46.8661C65.6611 40.7208 66.1658 34.0618 64.5965 27.6105C61.4916 14.84 50.0929 5.36629 36.8776 4.57258C28.3873 4.06226 20.2831 6.98758 14.1027 12.8055C7.92129 18.629 4.51613 26.5097 4.51613 35C4.51613 42.3184 7.84677 50.5682 13.2085 56.5284C13.4287 56.7723 13.5484 57.0748 13.5484 57.4576C13.5484 58.1474 12.9861 58.7097 12.2963 58.7097C11.9485 58.7097 11.6234 58.5765 11.4021 58.3439C5.67564 52.3476 2.25806 43.6213 2.25806 35C2.25806 16.9468 16.9468 2.25806 35 2.25806C53.0532 2.25806 67.7419 16.9468 67.7419 35C67.7419 43.619 64.3244 52.3453 58.5979 58.345C58.3766 58.5765 58.0503 58.7097 57.7026 58.7097C57.0127 58.7097 56.4516 58.1485 56.4516 57.4316C56.4516 57.111 56.5848 56.7971 56.8265 56.5487C58.8632 54.4521 60.594 52.045 61.9703 49.394L59.9663 48.3531C58.6916 50.8087 57.0906 53.0374 55.2085 54.9737C54.5537 55.6466 54.1936 56.5194 54.1936 57.4587C54.1936 59.3927 55.7674 60.9677 57.7026 60.9677C58.6656 60.9677 59.5869 60.5794 60.2316 59.9031C66.3487 53.4947 70 44.1858 70 35C70 15.7003 54.2997 0 35 0Z" fill="#DDD8D8"/>
<path d="M55.3124 48.8069C55.3813 47.9037 55.0945 47.0275 54.5074 46.3456C54.2421 46.034 48.0911 38.964 38.3871 37.5346V37.4161C48.239 38.0529 56.5261 40.4803 56.6176 40.5074C56.9348 40.5988 57.2577 40.6451 57.5806 40.6451C59.0879 40.6451 60.3919 39.6753 60.8255 38.2301C61.3618 36.4429 60.3423 34.5506 58.5516 34.0132C58.1632 33.8969 49.1885 31.264 38.3871 30.6329V30.4488C44.8023 27.9864 54.3979 27.0922 54.4984 27.0832C55.3994 27.0019 56.2145 26.574 56.7937 25.8785C57.374 25.183 57.6484 24.3035 57.5671 23.4014C57.4045 21.6469 55.9582 20.3225 54.1506 20.3225C54.1495 20.3225 54.1484 20.3225 54.1473 20.3225L53.8785 20.3372C52.9505 20.4219 45.1444 21.184 38.3871 23.2885V23.0063C41.4739 20.0674 44.0695 18.2925 45.7168 18.0182C46.6087 17.8692 47.39 17.3825 47.9161 16.6453C48.4423 15.9092 48.65 15.0127 48.5021 14.123C48.2323 12.4803 46.83 11.288 45.1703 11.288C44.9773 11.288 44.7808 11.3061 44.5923 11.3388C42.7452 11.6471 40.6621 12.6135 38.3871 14.1998V12.4193C38.3871 10.5519 36.8674 9.03223 35 9.03223C33.1326 9.03223 31.6129 10.5519 31.6129 12.4193V14.1998C29.3379 12.6135 27.256 11.6471 25.4179 11.34C23.5098 11.0125 21.8005 12.2895 21.4979 14.1208C21.3489 15.0127 21.5577 15.9092 22.0839 16.6453C22.61 17.3814 23.3913 17.8692 24.2821 18.0182C25.9305 18.2925 28.5261 20.0674 31.6129 23.0063V23.2885C24.8556 21.184 17.0461 20.4219 16.0752 20.3338L15.7963 20.3214C14.0418 20.3214 12.5966 21.6458 12.4329 23.4037C12.3516 24.3035 12.626 25.1819 13.2063 25.8774C13.7866 26.5729 14.6006 27.0008 15.5027 27.0821C15.6032 27.09 25.1989 27.9853 31.614 30.4477V30.6317C20.8114 31.2629 11.8379 33.8946 11.4461 34.0121C9.65887 34.5506 8.64048 36.4417 9.17564 38.229C9.60806 39.6753 10.9121 40.6451 12.4194 40.6451C12.7423 40.6451 13.0652 40.5988 13.3881 40.504C13.4739 40.4792 21.761 38.0517 31.6129 37.415V37.5335C21.9077 38.9629 15.7579 46.034 15.4971 46.34C14.9055 47.0264 14.6187 47.9037 14.6876 48.8069C14.7564 49.7101 15.1742 50.5309 15.8573 51.1158C16.4714 51.6442 17.255 51.9355 18.0645 51.9355C19.0581 51.9355 19.9952 51.5042 20.6206 50.7692C20.6669 50.7172 25.0916 45.8003 31.6129 44.4116V45.8229L30.0164 47.4193H28.9992C27.3271 47.4193 25.9677 48.7787 25.9677 50.4508C25.9677 51.844 26.9116 53.0543 28.2642 53.3908L29.3548 53.664V64.1606C29.3548 67.1492 31.5926 69.7008 34.4502 69.974C34.6297 69.9909 34.8092 70 34.9887 70C36.391 70 37.7548 69.4795 38.7958 68.5334C39.9711 67.4653 40.6452 65.9422 40.6452 64.3548V53.664L41.7358 53.3908C43.0884 53.0532 44.0323 51.844 44.0323 50.4508C44.0323 48.7787 42.6729 47.4193 41.0008 47.4193H39.9835L38.3871 45.8229V44.4116C44.9095 45.8003 49.3319 50.7161 49.3669 50.7545C50.0048 51.5042 50.9419 51.9355 51.9355 51.9355C52.745 51.9355 53.5285 51.6442 54.1394 51.118C54.8258 50.5309 55.2435 49.7101 55.3124 48.8069ZM31.6129 28.0406C24.9652 25.708 15.7997 24.8421 15.7037 24.8342C15.4045 24.8082 15.1324 24.6648 14.9394 24.4322C14.7452 24.2008 14.6537 23.9072 14.6819 23.6103C14.7361 23.0221 15.216 22.5795 15.741 22.5784L15.9171 22.5863C16.8508 22.6709 24.9516 23.4646 31.6129 25.664V28.0406ZM31.614 19.9511C28.8118 17.5034 26.4724 16.0943 24.6535 15.7906C24.3521 15.7398 24.0992 15.5817 23.9208 15.3334C23.7435 15.0838 23.6747 14.7925 23.7255 14.4888C23.8158 13.9435 24.2798 13.5461 24.8308 13.5461C24.8963 13.5461 24.9618 13.5529 25.0385 13.5664C26.8811 13.8735 29.094 15.0375 31.614 17.0077V19.9511ZM57.9047 36.1764C58.5008 36.3548 58.8406 36.9859 58.6623 37.5821C58.485 38.1737 57.8448 38.509 57.2589 38.3408C57.1708 38.3137 48.5032 35.7914 38.3871 35.1524V32.8955C48.8679 33.5232 57.531 36.0646 57.9047 36.1764ZM38.3871 17.0066C40.9071 15.0375 43.1211 13.8735 44.9727 13.5653C45.6027 13.4501 46.1729 13.878 46.2745 14.4911C46.3253 14.7925 46.2564 15.0838 46.0792 15.3334C45.9008 15.5829 45.6468 15.7398 45.3453 15.7906C43.5276 16.0943 41.1871 17.5022 38.3871 19.95V17.0066ZM12.749 38.3385C12.1168 38.5203 11.515 38.1737 11.3377 37.5821C11.1594 36.9859 11.4992 36.3548 12.0919 36.1764C12.469 36.0646 21.1321 33.5232 31.6129 32.8955V35.1524C21.4968 35.7914 12.8292 38.3137 12.749 38.3385ZM18.9135 49.2901C18.5364 49.7361 17.789 49.7982 17.3273 49.403C17.1003 49.2077 16.9626 48.9356 16.9389 48.633C16.9152 48.3282 17.0089 48.0448 17.2121 47.81C17.4514 47.5288 22.9318 41.2243 31.6129 39.8142V42.1196C24.0789 43.523 19.1394 49.0338 18.9135 49.2901ZM39.0487 49.6774H41.0008C41.4276 49.6774 41.7742 50.024 41.7742 50.4508C41.7742 50.8064 41.5326 51.1146 41.1882 51.2016L38.3871 51.9005V64.3548C38.3871 65.3077 37.9829 66.2211 37.2784 66.8624C36.5637 67.5116 35.6424 67.8119 34.6647 67.7272C32.9519 67.5635 31.6129 65.9964 31.6129 64.1606V51.9005L28.8118 51.2016C28.4674 51.1135 28.2258 50.8064 28.2258 50.4508C28.2258 50.024 28.5724 49.6774 28.9992 49.6774H30.9513L33.871 46.7577V12.4193C33.871 11.7961 34.3768 11.2903 35 11.2903C35.6232 11.2903 36.129 11.7961 36.129 12.4193V46.7577L39.0487 49.6774ZM38.3848 28.0395V25.6629C45.0484 23.4646 53.1481 22.6709 54.0366 22.5896L54.2026 22.5795C54.784 22.5795 55.2627 23.0232 55.3169 23.6069C55.344 23.9072 55.2526 24.1996 55.0584 24.4311C54.8653 24.6637 54.5932 24.8071 54.2963 24.833C54.1981 24.8409 45.0326 25.7069 38.3848 28.0395ZM53.0611 48.6353C53.0385 48.9356 52.8997 49.2077 52.6694 49.4053C52.2155 49.7971 51.4737 49.7485 51.074 49.2777C50.8595 49.0338 45.9211 43.523 38.3871 42.1208V39.8153C47.0682 41.2255 52.5485 47.53 52.7924 47.8156C52.9923 48.0471 53.0848 48.3305 53.0611 48.6353Z" fill="#DDD8D8"/>
<path d="M36.129 49.6774H33.871V51.9354H36.129V49.6774Z" fill="#DDD8D8"/>
<path d="M36.129 54.1936H33.871V56.4517H36.129V54.1936Z" fill="#DDD8D8"/>
<path d="M36.129 58.7097H33.871V60.9678H36.129V58.7097Z" fill="#DDD8D8"/>
<path d="M36.129 63.2258H33.871V65.4839H36.129V63.2258Z" fill="#DDD8D8"/>
</svg>
