<svg width="70" height="70" viewBox="0 0 70 70" fill="none" xmlns="http://www.w3.org/2000/svg">
<path d="M35 0L33.6191 0.0546875L32.252 0.21875L30.8984 0.485352L29.5723 0.854492L28.2734 1.33301L27.0225 1.90723L25.8193 2.57715L24.6709 3.34277L23.584 4.19043L22.5723 5.12695L21.6357 6.13867L20.7812 7.21191L20.0156 8.35352L19.3389 9.55664L18.7578 10.8008L18.2861 12.0928L17.9102 13.4189L17.6367 14.7656L17.4795 16.1328L17.4248 17.5L17.4795 19.6465L17.6299 21.7861L17.8965 23.9121L18.2656 26.0244L18.7373 28.1162L19.3115 30.1875L19.9814 32.2178L20.7539 34.2207L21.6289 36.1758L22.5928 38.0967L23.2354 39.1768L23.9668 40.1953L24.1855 40.5371L24.3154 40.9131L24.3496 41.3164L24.2949 41.7197L24.1445 42.0889L23.9258 42.4238L23.625 42.6904L23.2695 42.8887L22.8867 43.0049L20.3643 43.4697L17.8692 44.0166L15.3877 44.6455L12.9336 45.3633L10.5069 46.1699L8.10744 47.0586L7.1299 47.4961L6.20705 48.0293L5.33888 48.6582L4.53908 49.3623L3.8213 50.1484L3.18556 50.9961L2.63869 51.9121L2.18066 52.876L1.55859 54.5234L1.03223 56.1982L0.601562 57.9004L0.266602 59.623L0.0273438 61.3594L0 62.0772L0.0683594 62.7813L0.232422 63.4717L0.485352 64.1348L0.827148 64.7568L1.24414 65.3311L1.75 65.8369L2.30371 66.2744L2.92578 66.6299L3.58203 66.9102L4.27246 67.0811L8.32617 67.8125L12.4004 68.4346L16.4883 68.9541L20.5898 69.3711L24.6982 69.6855L28.8203 69.8975L32.9424 70H36.6064L33.1064 66.5H32.9766L28.9502 66.3975L24.9238 66.1924L20.9043 65.8916L16.8848 65.4814L12.8926 64.9688L8.90039 64.3604L4.93555 63.6494L4.52539 63.5127L4.14941 63.2871L3.85547 62.9658L3.64356 62.5967L3.52734 62.1729L3.52052 61.7422L3.73927 60.1904L4.03321 58.666L4.41603 57.1485L4.88087 55.6582L5.43458 54.1953L5.79005 53.4707L6.22071 52.7734L6.72657 52.1445L7.30763 51.5772L7.95021 51.0781L8.64747 50.6543L9.38575 50.3194L11.669 49.4717L13.9795 48.7061L16.3174 48.0225L18.6826 47.4209L21.0615 46.9014L23.4541 46.4571L24.2129 46.2725L24.9375 45.9785L25.6143 45.5821L26.2158 45.0899L26.7354 44.5156L27.1797 43.8731L27.5078 43.169L27.7334 42.4238L27.8496 41.6582V40.8789L27.7266 40.1133L27.501 39.3682L27.166 38.6641L26.7285 38.0215L26.1748 37.2559L25.6963 36.4492L24.8008 34.6855L24.001 32.8809L23.29 31.042L22.6748 29.1689L22.1484 27.2686L21.7109 25.3408L21.376 23.3994L21.1299 21.4443L20.9863 19.4756L20.9316 17.5068L20.9932 16.2832L21.1504 15.0732L21.417 13.8838L21.7861 12.7148L22.2578 11.5869L22.8184 10.5L23.4814 9.47461L24.2266 8.50391L25.0537 7.60156L25.9629 6.77441L26.9336 6.03613L27.9658 5.37988L29.0527 4.8125L30.1875 4.34766L31.3564 3.97852L32.5596 3.71875L33.7764 3.55469L34.9932 3.5L36.2236 3.55469L37.4404 3.71875L38.6367 3.97852L39.8057 4.34766L40.9404 4.8125L42.0342 5.37988L43.0664 6.03613L44.0371 6.77442L44.9463 7.60156L45.7666 8.50391L46.5186 9.47461L47.1816 10.5L47.7422 11.5869L48.2139 12.7148L48.583 13.8838L48.8496 15.0732L49.0068 16.2832L49.0615 17.5068L49.0137 19.4756L48.8701 21.4443L48.6241 23.3994L48.2822 25.3408L47.8516 27.2686L47.3252 29.1689L46.71 31.042L45.9922 32.8809L45.1924 34.6855L44.3037 36.4492L43.8252 37.2559L43.2715 38.0215L42.8272 38.6641L42.499 39.3682L42.2666 40.1133L42.1436 40.8789V41.6582L42.2598 42.4238L42.4853 43.1689L42.8203 43.873L43.2578 44.5156L43.7773 45.0898L44.3857 45.582L45.0625 45.9785L45.7871 46.2724L46.539 46.457L48.9384 46.9014L51.3173 47.4209L53.6757 48.0225L54.7627 48.3438L57.5722 45.5342L57.0664 45.3633L54.6123 44.6455L52.1377 44.0166L49.6425 43.4697L47.1201 43.0049L46.7304 42.8887L46.375 42.6904L46.081 42.4239L45.8555 42.0889L45.7119 41.7198L45.6504 41.3164L45.6914 40.9131L45.8213 40.5371L46.0332 40.1953L46.7715 39.1768L47.4141 38.0967L48.378 36.1758L49.2461 34.2207L50.0186 32.2178L50.6953 30.1875L51.2695 28.1162L51.7412 26.0244L52.1035 23.9121L52.3701 21.7861L52.5273 19.6465L52.5752 17.5L52.5273 16.1328L52.3633 14.7656L52.0898 13.4189L51.7207 12.0928L51.2422 10.8008L50.6611 9.55664L49.9912 8.35352L49.2256 7.21191L48.3643 6.13867L47.4346 5.12695L46.4229 4.19043L45.3359 3.34277L44.1875 2.57715L42.9775 1.90723L41.7266 1.33301L40.4346 0.854492L39.1084 0.485352L37.748 0.21875L36.3809 0.0546875L35 0ZM68.1953 45.4863C67.7412 45.4989 67.3097 45.6877 66.9922 46.0127L47.2295 65.7754L37.9668 56.5127C36.3174 54.7949 33.7744 57.3379 35.4922 58.9873L45.9922 69.4873C46.6756 70.1704 47.7834 70.1704 48.4668 69.4873L69.4668 48.4873C70.6052 47.3743 69.7868 45.4427 68.1953 45.4863Z" fill="#DDD8D8"/>
</svg>
