<svg width="70" height="70" viewBox="0 0 70 70" fill="none" xmlns="http://www.w3.org/2000/svg">
<path d="M62.2577 33.7752L50.1399 21.6568C49.7964 21.3241 49.4136 21.0342 49 20.7938V1.16667C49 0.522379 48.4776 0 47.8334 0H10.5C7.27972 0.00398764 4.67067 2.61304 4.66669 5.83333V52.5C4.67067 55.7203 7.27972 58.3293 10.5 58.3333H38.5593C39.1677 64.9363 44.7025 69.9915 51.3334 70H64.1667C64.811 70 65.3334 69.4776 65.3334 68.8333V41.1985C65.3408 38.4128 64.2333 35.7394 62.2577 33.7752ZM7.00002 52.5V5.83333C7.00002 3.90047 8.56716 2.33333 10.5 2.33333H46.6667V46.1836L38.4755 37.9924C37.0121 36.468 34.8382 35.8545 32.7937 36.3883C30.7486 36.922 29.153 38.5199 28.6215 40.5656C28.09 42.6112 28.7064 44.7839 30.2331 46.2457L31.6328 47.6527C31.6413 47.6607 31.6436 47.6721 31.6516 47.6807C31.6601 47.6886 31.6703 47.6909 31.6795 47.6989L37.4724 53.4998C38.1303 54.1537 38.5006 55.043 38.5 55.9709L10.5 56C8.56716 56 7.00002 54.4329 7.00002 52.5ZM31.8794 44.5914C31.2192 43.9368 30.8478 43.0453 30.8478 42.1162C30.8478 41.1865 31.2192 40.2956 31.8794 39.641C33.2614 38.32 35.4381 38.32 36.8201 39.641L37.4313 40.2511L32.4833 45.1992L31.8794 44.5914ZM63 67.6667H51.3334C45.537 67.6604 40.8396 62.963 40.8334 57.1667V55.9709C40.8368 54.4243 40.2227 52.9409 39.1278 51.8489L34.1341 46.8484L39.0834 41.8997L50.5085 53.3249C50.9665 53.7669 51.6939 53.7607 52.144 53.3106C52.594 52.8606 52.6003 52.1331 52.1582 51.6751L49 48.5169V23.8175L60.6086 35.4244C62.1444 36.9528 63.0051 39.0321 63 41.1985V67.6667Z" fill="#DDD8D8"/>
<path d="M10.5 14.0001C11.1443 14.0001 11.6666 13.4777 11.6666 12.8334V8.16675C11.6666 7.52246 12.189 7.00008 12.8333 7.00008H17.5C18.1443 7.00008 18.6666 6.4777 18.6666 5.83341C18.6666 5.18913 18.1443 4.66675 17.5 4.66675H12.8333C10.9005 4.66675 9.33331 6.23389 9.33331 8.16675V12.8334C9.33331 13.4777 9.85569 14.0001 10.5 14.0001Z" fill="#DDD8D8"/>
<path d="M17.5 51.3333H12.8333C12.189 51.3333 11.6666 50.8109 11.6666 50.1666V45.4999C11.6666 44.8556 11.1443 44.3333 10.5 44.3333C9.85569 44.3333 9.33331 44.8556 9.33331 45.4999V50.1666C9.33331 52.0994 10.9005 53.6666 12.8333 53.6666H17.5C18.1443 53.6666 18.6666 53.1442 18.6666 52.4999C18.6666 51.8556 18.1443 51.3333 17.5 51.3333Z" fill="#DDD8D8"/>
<path d="M38.5 19.8334C38.5 13.39 33.2768 8.16675 26.8334 8.16675C20.3899 8.16675 15.1667 13.39 15.1667 19.8334C15.1667 26.2769 20.3899 31.5001 26.8334 31.5001C33.2739 31.4932 38.4932 26.274 38.5 19.8334ZM36.0864 18.6667H33.7997C33.7046 16.4086 33.1406 14.1949 32.1426 12.1675C34.3198 13.6759 35.7537 16.0389 36.0864 18.6667ZM25.6667 10.8499V18.6667H22.2077C22.4652 14.719 24.0021 11.8069 25.6667 10.8499ZM25.6667 21.0001V28.817C24.0021 27.8565 22.4652 24.9444 22.2077 21.0001H25.6667ZM28 28.817V21.0001H31.459C31.2015 24.9478 29.6646 27.8599 28 28.817ZM28 18.6667V10.8499C29.6646 11.8103 31.2015 14.7224 31.459 18.6667H28ZM21.5241 12.1675C20.5261 14.1949 19.9621 16.4086 19.867 18.6667H17.5803C17.913 16.0389 19.3469 13.6759 21.5241 12.1675ZM17.5803 21.0001H19.867C19.9621 23.2582 20.5261 25.4719 21.5241 27.4993C19.3469 25.9909 17.913 23.6279 17.5803 21.0001ZM32.1426 27.4993C33.1406 25.4719 33.7046 23.2582 33.7997 21.0001H36.0864C35.7537 23.6279 34.3198 25.9909 32.1426 27.4993Z" fill="#DDD8D8"/>
</svg>
