<svg width="60" height="56" viewBox="0 0 60 56" fill="none" xmlns="http://www.w3.org/2000/svg">
<path d="M58.7454 27.531H55.4775V17.9638C55.4756 17.278 54.9203 16.7232 54.235 16.7213H49.1781V8.58293C49.1752 6.1819 47.2299 4.23661 44.8294 4.23419H28.4906L25.3717 1.10271C24.6087 0.332454 23.5478 -0.0669898 22.4664 0.00921029C21.3845 0.0858956 20.3901 0.630459 19.7431 1.50069L17.7182 4.23419H7.45498C3.33921 4.2371 0.00339746 7.57291 0 11.6892V47.8458C0.00339746 51.9616 3.33921 55.2974 7.45498 55.3008H54.3097C54.9951 55.2984 55.5503 54.7436 55.5522 54.0583V44.1184H58.7575C59.4433 44.1159 59.9981 43.5612 60 42.8759V28.7735C59.9922 28.0853 59.4331 27.532 58.7454 27.531ZM44.8294 6.71918C45.324 6.71821 45.7982 6.91429 46.1481 7.26423C46.4975 7.61368 46.6936 8.08836 46.6931 8.58293V16.7213H40.9277L30.9756 6.71918H44.8294ZM21.7311 2.99169C21.9471 2.70193 22.2781 2.5209 22.6382 2.49469C22.9983 2.46848 23.3522 2.59953 23.6074 2.85482L37.4118 16.7213H11.5426L21.7311 2.99169ZM2.48499 11.6892C2.48402 8.94354 4.70984 6.71821 7.45498 6.71918H15.8792L8.44898 16.7213H7.45498C4.70984 16.7218 2.48402 14.4964 2.48499 11.7513V11.6892ZM53.0546 52.8158H7.45498C4.70984 52.8163 2.48402 50.591 2.48499 47.8458V17.3052C3.8498 18.5316 5.62036 19.2087 7.45498 19.2063H40.1453C40.3491 19.2558 40.5622 19.2558 40.7665 19.2063H53.0051V27.531H45.9724C42.5419 27.532 39.7614 30.3126 39.7599 33.7435V37.918C39.7614 41.3485 42.5419 44.1295 45.9724 44.1305H53.0673V52.8158H53.0546ZM57.5029 41.6455H45.9598C43.9038 41.6397 42.2386 39.9744 42.2323 37.918V33.7435C42.2386 31.6871 43.9038 30.0218 45.9598 30.016H53.8496C54.1001 30.0985 54.3699 30.0985 54.6204 30.016H57.5029V41.6455Z" fill="#DDD8D8"/>
</svg>
