<svg width="77" height="16" viewBox="0 0 77 16" fill="none" xmlns="http://www.w3.org/2000/svg">
<g clip-path="url(#clip0)">
<path d="M47.2417 16V0.463307H54.0645C54.8031 0.463307 55.4885 0.613897 56.1167 0.911779C56.741 1.21319 57.2817 1.6066 57.7347 2.09555C58.1879 2.58449 58.542 3.13978 58.8007 3.75743C59.0559 4.3786 59.1855 5.00378 59.1855 5.62872C59.1855 6.28684 59.0636 6.92637 58.8236 7.54402C58.58 8.16543 58.2413 8.71696 57.8034 9.19484C57.3616 9.67649 56.8324 10.0626 56.2156 10.353C55.595 10.6471 54.9173 10.7906 54.1785 10.7906H50.3717V16H47.2417ZM50.3714 8.14354H53.996C54.5669 8.14354 55.0467 7.91908 55.4351 7.46684C55.8197 7.01461 56.0139 6.40072 56.0139 5.62872C56.0139 5.23531 55.9529 4.88237 55.8311 4.56613C55.7093 4.25366 55.5533 3.98895 55.3552 3.76848C55.1571 3.55154 54.9288 3.38613 54.6661 3.27578C54.3995 3.16543 54.133 3.11037 53.8588 3.11037H50.3717L50.3714 8.14354ZM32.1341 16V0.463307H39.25C39.9886 0.463307 40.674 0.613897 41.3022 0.911779C41.9265 1.21319 42.4672 1.6066 42.9202 2.09555C43.3734 2.58449 43.7275 3.13978 43.9865 3.75743C44.2453 4.3786 44.3747 5.00378 44.3747 5.62872C44.3747 6.63601 44.112 7.55154 43.5905 8.37507C43.0688 9.1986 42.3644 9.79413 41.4735 10.1581L45.1439 16H41.6297L38.3438 10.7906H35.2638V16H32.1341ZM35.2638 8.14354H39.1852C39.4659 8.14574 39.7424 8.0786 39.9886 7.94849C40.2391 7.81433 40.4582 7.6316 40.6321 7.41178C40.8149 7.18754 40.9557 6.92283 41.0625 6.61413C41.1689 6.30872 41.2223 5.98166 41.2223 5.62872C41.2223 5.26472 41.1614 4.93013 41.0396 4.62142C40.9177 4.31625 40.7579 4.05154 40.5522 3.82354C40.3577 3.60464 40.1194 3.42586 39.8517 3.29789C39.5851 3.17272 39.3185 3.11037 39.0483 3.11037H35.2638V8.14354ZM21.9455 15.8751C20.7654 15.8751 19.6994 15.6544 18.7398 15.2097C17.7804 14.7647 16.9542 14.1727 16.2689 13.4374C15.5796 12.7021 15.0467 11.8567 14.6697 10.908C14.2928 9.95955 14.1064 8.98896 14.1064 7.99625C14.1064 6.95955 14.3042 5.97037 14.7041 5.02213C15.1037 4.07343 15.6559 3.23531 16.3603 2.50378C17.0609 1.77578 17.8945 1.19484 18.8616 0.76472C19.8287 0.334603 20.8794 0.117661 22.0142 0.117661C23.1753 0.117661 24.2377 0.349194 25.1971 0.808723C26.1566 1.26849 26.9751 1.87131 27.6567 2.6139C28.3343 3.35672 28.8636 4.20213 29.2405 5.15084C29.6175 6.09907 29.8078 7.06261 29.8078 8.04026C29.8078 9.0772 29.6099 10.0661 29.2176 11.0073C28.8253 11.9485 28.2809 12.7793 27.5882 13.5C26.8913 14.2243 26.0614 14.8014 25.0942 15.2318C24.1273 15.6617 23.0766 15.8751 21.9455 15.8751ZM17.2778 7.99625C17.2778 8.66919 17.3806 9.31978 17.5938 9.94495C17.8033 10.5734 18.1079 11.1285 18.5115 11.6104C18.9111 12.092 19.4023 12.4779 19.9849 12.7685C20.5636 13.0626 21.226 13.2059 21.9684 13.2059C22.7223 13.2059 23.3885 13.0588 23.9711 12.7574C24.5449 12.4667 25.0474 12.0604 25.4446 11.5661C25.8442 11.0697 26.1452 10.5111 26.3508 9.88966C26.5553 9.27794 26.6593 8.63906 26.6591 7.99625C26.6591 7.32731 26.5487 6.67648 26.3277 6.04801C26.1072 5.42283 25.7987 4.86754 25.3988 4.38613C24.9992 3.90801 24.508 3.52566 23.9295 3.23907C23.3466 2.95201 22.6919 2.80872 21.9684 2.80872C21.2106 2.80872 20.5368 2.95954 19.9506 3.25743C19.3604 3.55884 18.8692 3.95225 18.4771 4.44119C18.0811 4.93013 17.7841 5.48519 17.5823 6.10307C17.3796 6.71503 17.2769 7.35375 17.2778 7.99625ZM10.7749 4.29789C10.6682 4.19484 10.474 4.05884 10.1962 3.88237C9.91426 3.70966 9.57556 3.54049 9.17569 3.37131C8.77607 3.20213 8.34185 3.0626 7.87352 2.94495C7.40543 2.82731 6.92929 2.76848 6.44585 2.76848C5.58545 2.76848 4.94191 2.92284 4.51939 3.22801C4.09662 3.53319 3.8873 3.96331 3.8873 4.51837C3.8873 4.8419 3.96357 5.10661 4.12342 5.31602C4.28327 5.52943 4.51183 5.71319 4.81642 5.87507C5.11711 6.03672 5.49773 6.18025 5.95851 6.31272C6.41904 6.44495 6.95219 6.58095 7.55772 6.72801C8.34185 6.9339 9.05385 7.15084 9.69715 7.38613C10.337 7.62142 10.8814 7.91178 11.3307 8.26096C11.7675 8.60048 12.12 9.03013 12.3624 9.51837C12.6024 10.0073 12.7243 10.6101 12.7243 11.3235C12.7243 12.1544 12.5605 12.8675 12.2369 13.456C11.9094 14.0478 11.4716 14.5257 10.9235 14.8897C10.3714 15.2574 9.7354 15.5221 9.01974 15.6911C8.28116 15.8594 7.52465 15.9433 6.76579 15.9412C5.55474 15.9412 4.35954 15.7647 3.18285 15.4155C2.00276 15.0661 0.948145 14.5699 0.0114746 13.9264L1.39358 11.3235C1.53052 11.4558 1.77419 11.625 2.12825 11.8381C2.4823 12.0515 2.90117 12.261 3.38485 12.4744C3.8683 12.6875 4.4051 12.864 4.99528 13.0108C5.58545 13.1581 6.19073 13.228 6.81136 13.228C8.5324 13.228 9.3928 12.6948 9.3928 11.6287C9.3928 11.2941 9.29387 11.0111 9.09577 10.7758C8.89791 10.5442 8.61988 10.3419 8.25827 10.1654C7.89642 9.98896 7.45854 9.83084 6.94464 9.68378C6.4305 9.53672 5.85568 9.37507 5.2236 9.1986C4.45092 8.99625 3.78082 8.77578 3.21721 8.53319C2.64994 8.29413 2.17771 8.01084 1.80099 7.68025C1.42013 7.35295 1.13821 6.97437 0.951803 6.54402C0.761496 6.1139 0.670118 5.59931 0.670118 5.00001C0.670118 4.21319 0.818753 3.51108 1.12334 2.89696C1.42403 2.28684 1.84266 1.77578 2.37971 1.36755C2.91262 0.959547 3.53715 0.65084 4.24891 0.437428C4.95727 0.224252 5.72239 0.117432 6.53723 0.117432C7.67176 0.117432 8.71126 0.29037 9.66304 0.632252C10.6148 0.978135 11.445 1.38237 12.157 1.84919L10.7749 4.29789Z" fill="#2D5B73"/>
<path d="M77 0.470703V5.41188H75.0506V2.35306H62.8671V5.41188H60.9177V0.470703H77ZM60.9177 11.0589H62.8671V14.1178H75.0506V11.0589H77V16.0001H60.9177V11.0589ZM64.7758 8.00011L68.9589 2.82364L73.142 8.00011H77V9.88247H72.1266L68.9589 5.88247L65.7911 9.88247H60.9177V8.00011H64.7758Z" fill="#761813"/>
</g>
<defs>
<clipPath id="clip0">
<rect width="77" height="16" fill="white"/>
</clipPath>
</defs>
</svg>
