<svg width="38" height="60" viewBox="0 0 38 60" fill="none" xmlns="http://www.w3.org/2000/svg">
<g clip-path="url(#clip0)">
<path d="M18.75 40.5469C25.1468 40.5469 30.4688 35.376 30.4688 28.8281C30.4688 22.3663 25.2118 17.1094 18.75 17.1094C12.2882 17.1094 7.03125 22.3663 7.03125 28.8281C7.03125 35.3801 12.3573 40.5469 18.75 40.5469ZM13.5677 36.6394C14.5706 34.742 16.5591 33.5156 18.75 33.5156C20.9409 33.5156 22.9294 34.742 23.9323 36.6394C22.4057 37.652 20.5966 38.2031 18.75 38.2031C16.9034 38.2031 15.0943 37.652 13.5677 36.6394ZM18.75 19.4531C23.9195 19.4531 28.125 23.6586 28.125 28.8281C28.125 31.1632 27.269 33.3723 25.7378 35.0789C24.2661 32.6898 21.6335 31.1719 18.75 31.1719C15.8665 31.1719 13.2339 32.6898 11.7622 35.0789C10.231 33.3723 9.375 31.1636 9.375 28.8281C9.375 23.6586 13.5805 19.4531 18.75 19.4531Z" fill="#D64356"/>
<path d="M23.4375 26.4844C23.4375 23.8998 21.3345 21.7969 18.75 21.7969C16.1655 21.7969 14.0625 23.8998 14.0625 26.4844C14.0625 29.0689 16.1655 31.1719 18.75 31.1719C21.3345 31.1719 23.4375 29.0689 23.4375 26.4844ZM18.75 28.8281C17.4577 28.8281 16.4062 27.7766 16.4062 26.4844C16.4062 25.1921 17.4577 24.1406 18.75 24.1406C20.0423 24.1406 21.0938 25.1921 21.0938 26.4844C21.0938 27.7766 20.0423 28.8281 18.75 28.8281Z" fill="#D64356"/>
<path d="M8.20312 45.2344H29.2969C29.9442 45.2344 30.4688 44.7098 30.4688 44.0625C30.4688 43.4152 29.9442 42.8906 29.2969 42.8906H8.20312C7.55585 42.8906 7.03125 43.4152 7.03125 44.0625C7.03125 44.7098 7.55585 45.2344 8.20312 45.2344Z" fill="#000"/>
<path d="M8.20312 52.6172H29.2969C29.9442 52.6172 30.4688 52.0926 30.4688 51.4453C30.4688 50.798 29.9442 50.2734 29.2969 50.2734H8.20312C7.55585 50.2734 7.03125 50.798 7.03125 51.4453C7.03125 52.0926 7.55585 52.6172 8.20312 52.6172Z" fill="#000"/>
<path d="M19.9219 58.8281C19.9219 59.4754 19.3973 60 18.75 60C18.1027 60 17.5781 59.4754 17.5781 58.8281C17.5781 58.1808 18.1027 57.6562 18.75 57.6562C19.3973 57.6562 19.9219 58.1808 19.9219 58.8281Z" fill="#000"/>
<path d="M3.51562 60H13.4766C14.1238 60 14.6484 59.4754 14.6484 58.8281C14.6484 58.1808 14.1238 57.6562 13.4766 57.6562H3.51562C2.86926 57.6562 2.34375 57.1307 2.34375 56.4844V11.7188C2.34375 11.0724 2.86926 10.5469 3.51562 10.5469H7.03125V11.7188C7.03125 12.366 7.55585 12.8906 8.20312 12.8906H29.2969C29.9442 12.8906 30.4688 12.366 30.4688 11.7188V10.5469H33.9844C34.6307 10.5469 35.1562 11.0724 35.1562 11.7188V56.4844C35.1562 57.1307 34.6307 57.6562 33.9844 57.6562H24.0234C23.3762 57.6562 22.8516 58.1808 22.8516 58.8281C22.8516 59.4754 23.3762 60 24.0234 60H33.9844C35.923 60 37.5 58.423 37.5 56.4844V11.7188C37.5 9.78012 35.923 8.20312 33.9844 8.20312H30.2673C29.7835 6.83899 28.4807 5.85938 26.9531 5.85938H24.6094C24.6094 2.62848 21.9809 0 18.75 0C15.5191 0 12.8906 2.62848 12.8906 5.85938H10.5469C9.01932 5.85938 7.71652 6.83899 7.23267 8.20312H3.51562C1.577 8.20312 0 9.78012 0 11.7188V56.4844C0 58.423 1.577 60 3.51562 60ZM10.5469 8.20312H14.0625C14.7098 8.20312 15.2344 7.67853 15.2344 7.03125V5.85938C15.2344 3.92075 16.8114 2.34375 18.75 2.34375C20.6886 2.34375 22.2656 3.92075 22.2656 5.85938V7.03125C22.2656 7.67853 22.7902 8.20312 23.4375 8.20312H26.9531C27.5995 8.20312 28.125 8.72864 28.125 9.375V10.5469H9.375V9.375C9.375 8.72864 9.90051 8.20312 10.5469 8.20312Z" fill="#000"/>
</g>
<defs>
<clipPath id="clip0">
<rect width="37.5" height="60" fill="white"/>
</clipPath>
</defs>
</svg>
