<svg width="81" height="80" viewBox="0 0 81 80" fill="none" xmlns="http://www.w3.org/2000/svg">
<path d="M78.1532 33.9096C78.6847 33.9096 79.1944 33.6985 79.5702 33.3227C79.9461 32.9469 80.1572 32.4372 80.1572 31.9057V25.8939C80.1611 25.8272 80.1611 25.7603 80.1572 25.6935C80.1796 25.5609 80.1796 25.4254 80.1572 25.2927C80.1723 25.173 80.1723 25.0518 80.1572 24.932C80.1052 24.8166 80.0378 24.7087 79.9568 24.6114C79.8534 24.5282 79.7594 24.4342 79.6762 24.3308L57.8735 10.8244C56.1843 7.56247 53.6311 4.82761 50.4928 2.91863C47.3545 1.00965 43.7519 0 40.0786 0C36.4053 0 32.8027 1.00965 29.6644 2.91863C26.5261 4.82761 23.9728 7.56247 22.2837 10.8244L0.921808 24.2106L0.601179 24.4912C0.520218 24.5885 0.452807 24.6964 0.400786 24.8118C0.385697 24.9315 0.385697 25.0527 0.400786 25.1725C0.378363 25.3051 0.378363 25.4406 0.400786 25.5733C0.400786 25.5733 0.400786 25.5733 0.400786 25.7737V31.9057C0.400786 32.4372 0.611914 32.9469 0.987723 33.3227C1.36353 33.6985 1.87324 33.9096 2.40471 33.9096H4.00786V63.9686H2.00393C1.47245 63.9686 0.962747 64.1797 0.586938 64.5555C0.211128 64.9313 0 65.441 0 65.9725V77.9961C0 78.5275 0.211128 79.0373 0.586938 79.4131C0.962747 79.7889 1.47245 80 2.00393 80H78.1532C78.6847 80 79.1944 79.7889 79.5702 79.4131C79.9461 79.0373 80.1572 78.5275 80.1572 77.9961V65.9725C80.1572 65.441 79.9461 64.9313 79.5702 64.5555C79.1944 64.1797 78.6847 63.9686 78.1532 63.9686H76.1493V33.9096H78.1532ZM76.1493 27.0161V29.9018H57.3124C59.1369 26.8773 60.1066 23.4143 60.1179 19.8821C60.0926 18.8466 59.9853 17.8147 59.7973 16.7961L76.1493 27.0161ZM36.0707 63.9686V39.5206C38.7159 40.055 41.4413 40.055 44.0864 39.5206V63.9686H36.0707ZM20.0393 63.9686C20.0582 63.8222 20.0582 63.674 20.0393 63.5277V33.9096H25.8106C27.5993 35.7383 29.7216 37.2076 32.0629 38.2381V63.9686H20.0393ZM48.0943 38.2381C50.4356 37.2076 52.5578 35.7383 54.3466 33.9096H60.1179V63.5277C60.099 63.674 60.099 63.8222 60.1179 63.9686H48.0943V38.2381ZM40.0786 3.85068C43.2493 3.85068 46.3488 4.79091 48.9852 6.55247C51.6215 8.31402 53.6763 10.8178 54.8897 13.7472C56.1031 16.6765 56.4206 19.8999 55.802 23.0097C55.1834 26.1195 53.6566 28.976 51.4145 31.2181C49.1725 33.4601 46.316 34.9869 43.2062 35.6055C40.0964 36.2241 36.873 35.9066 33.9436 34.6932C31.0143 33.4799 28.5105 31.4251 26.7489 28.7887C24.9874 26.1523 24.0472 23.0528 24.0472 19.8821C24.0472 15.6303 25.7362 11.5527 28.7427 8.54618C31.7491 5.5397 35.8268 3.85068 40.0786 3.85068ZM22.8448 29.9018H4.00786V27.0161L20.3599 16.7961C20.1698 17.8144 20.0626 18.8465 20.0393 19.8821C20.0506 23.4143 21.0202 26.8773 22.8448 29.9018ZM8.01572 33.9096H16.0314V63.5277C16.0126 63.674 16.0126 63.8222 16.0314 63.9686H8.01572V33.9096ZM76.1493 75.9921H4.00786V67.9764H76.1493V75.9921ZM72.1415 63.9686H64.1257C64.1446 63.8222 64.1446 63.674 64.1257 63.5277V33.9096H72.1415V63.9686Z" fill="black"/>
<path d="M40.0786 27.8978C41.6639 27.8978 43.2137 27.4277 44.5319 26.5469C45.8501 25.6661 46.8775 24.4142 47.4841 22.9495C48.0908 21.4849 48.2496 19.8732 47.9403 18.3183C47.631 16.7634 46.8676 15.3351 45.7466 14.2141C44.6255 13.0931 43.1973 12.3296 41.6424 12.0204C40.0875 11.7111 38.4758 11.8698 37.0111 12.4765C35.5464 13.0832 34.2945 14.1106 33.4138 15.4288C32.533 16.7469 32.0629 18.2967 32.0629 19.8821C32.0629 22.008 32.9074 24.0468 34.4106 25.55C35.9139 27.0533 37.9527 27.8978 40.0786 27.8978ZM40.0786 15.8742C40.8713 15.8742 41.6461 16.1093 42.3052 16.5496C42.9643 16.99 43.478 17.616 43.7814 18.3483C44.0847 19.0807 44.1641 19.8865 44.0094 20.6639C43.8548 21.4414 43.4731 22.1555 42.9126 22.716C42.3521 23.2765 41.6379 23.6583 40.8605 23.8129C40.083 23.9675 39.2772 23.8882 38.5448 23.5848C37.8125 23.2815 37.1866 22.7678 36.7462 22.1087C36.3058 21.4496 36.0707 20.6747 36.0707 19.8821C36.0707 18.8191 36.493 17.7997 37.2446 17.0481C37.9962 16.2965 39.0156 15.8742 40.0786 15.8742Z" fill="#CC4051"/>
</svg>
