<svg width="51" height="48" viewBox="0 0 51 48" fill="none" xmlns="http://www.w3.org/2000/svg">
<path d="M12.0478 32.8776C10.829 30.1589 10.1728 27.0651 10.1728 23.7839C10.1728 13.4714 16.9228 5.03387 25.2665 5.03387C33.6103 5.03387 40.3603 13.4714 40.3603 23.7839C40.3603 27.0651 39.704 30.1589 38.4853 32.7839C35.954 38.5964 30.9853 42.5339 25.2665 42.5339C19.5478 42.5339 14.579 38.5964 12.0478 32.8776Z" stroke="black" stroke-width="2" stroke-miterlimit="10" stroke-linecap="round" stroke-linejoin="round"/>
<path d="M14.2978 42.5339C12.4228 41.1276 10.829 39.4401 9.42279 37.3776" stroke="black" stroke-width="2" stroke-miterlimit="10" stroke-linecap="round" stroke-linejoin="round"/>
<path d="M41.1103 37.2839C39.7978 39.3464 38.1103 41.1276 36.2353 42.5339" stroke="black" stroke-width="2" stroke-miterlimit="10" stroke-linecap="round" stroke-linejoin="round"/>
<path d="M6.23529 30.3464C5.67279 28.2839 5.39154 26.0339 5.39154 23.7839C5.39154 11.3151 14.2978 1.28387 25.2665 1.28387C36.2353 1.28387 45.1415 11.4089 45.1415 23.7839C45.1415 26.0339 44.8603 28.2839 44.2978 30.3464" stroke="black" stroke-width="2" stroke-miterlimit="10" stroke-linecap="round" stroke-linejoin="round"/>
<path d="M26.1103 46.2839H7.26654C6.23529 46.2839 5.39154 45.4401 5.39154 44.4089C5.39154 43.9401 5.57904 43.4714 5.95404 43.0964C6.32904 42.7214 6.79779 42.5339 7.26654 42.5339H8.01654H14.204" stroke="black" stroke-width="2" stroke-miterlimit="10" stroke-linecap="round" stroke-linejoin="round"/>
<path d="M8.11027 42.5339C5.29777 42.5339 2.67277 40.9401 1.45402 38.2214C0.235274 35.3151 1.54777 31.9401 4.45402 30.7214C5.01652 30.4401 5.67277 30.3464 6.23527 30.3464C8.01652 30.3464 9.70402 31.3776 10.454 33.1589C10.5478 33.2526 10.5478 33.4401 10.5478 33.5339C11.0165 34.9401 10.454 36.5339 9.32902 37.4714C9.04777 37.6589 8.76652 37.8464 8.48527 37.9401C6.98527 38.5964 5.29777 37.8464 4.64152 36.4401" stroke="black" stroke-width="2" stroke-miterlimit="10" stroke-linecap="round" stroke-linejoin="round"/>
<path d="M26.1103 46.2839H43.3603C44.3915 46.2839 45.2353 45.4401 45.2353 44.4089C45.2353 43.9401 45.0478 43.4714 44.6728 43.0964C44.2978 42.7214 43.829 42.5339 43.3603 42.5339H42.6103H36.2353" stroke="black" stroke-width="2" stroke-miterlimit="10" stroke-linecap="round" stroke-linejoin="round"/>
<path d="M42.6103 42.5339C45.4228 42.5339 48.0478 40.9401 49.2665 38.2214C50.4853 35.3151 49.1728 31.9401 46.2665 30.7214C45.6103 30.4401 44.954 30.3464 44.2978 30.3464C42.5165 30.4401 40.9228 31.4714 40.1728 33.1589C40.079 33.2526 40.079 33.4401 40.079 33.5339C39.6103 34.9401 40.079 36.4401 41.204 37.3776C41.4853 37.6589 41.7665 37.8464 42.1415 37.9401C43.6415 38.5964 45.329 37.8464 45.9853 36.4401" stroke="black" stroke-width="2" stroke-miterlimit="10" stroke-linecap="round" stroke-linejoin="round"/>
<path d="M27.2353 11.9714L21.9853 17.2214" stroke="#D64356" stroke-width="2" stroke-miterlimit="10" stroke-linecap="round" stroke-linejoin="round"/>
<path d="M32.1103 14.5964L20.4853 26.1276" stroke="#D64356" stroke-width="2" stroke-miterlimit="10" stroke-linecap="round" stroke-linejoin="round"/>
</svg>
