<svg width="70" height="70" viewBox="0 0 70 70" fill="none" xmlns="http://www.w3.org/2000/svg">
<path d="M67.8365 17.1701C67.8365 25.811 60.7608 32.8401 52.0024 32.8401C43.2439 32.8401 36.1682 25.811 36.1682 17.1701C36.1682 8.52915 43.2439 1.5 52.0024 1.5C60.7608 1.5 67.8365 8.52915 67.8365 17.1701Z" stroke="black" stroke-width="3"/>
<path d="M22.5011 55.4721C22.5011 61.195 17.8134 65.8587 12.0006 65.8587C6.18774 65.8587 1.5 61.195 1.5 55.4721C1.5 49.7492 6.18774 45.0854 12.0006 45.0854C17.8134 45.0854 22.5011 49.7492 22.5011 55.4721Z" stroke="#D64356" stroke-width="3"/>
<path d="M58.5027 62.0754C58.5027 65.6101 55.6059 68.4999 52.0023 68.4999C48.3988 68.4999 45.502 65.6101 45.502 62.0754C45.502 58.5407 48.3988 55.6509 52.0023 55.6509C55.6059 55.6509 58.5027 58.5407 58.5027 62.0754Z" stroke="black" stroke-width="3"/>
<path d="M14.5007 17.1696C14.5007 20.7044 11.6039 23.5942 8.00037 23.5942C4.39681 23.5942 1.5 20.7044 1.5 17.1696C1.5 13.6349 4.39681 10.7451 8.00037 10.7451C11.6039 10.7451 14.5007 13.6349 14.5007 17.1696Z" stroke="black" stroke-width="3"/>
</svg>
