<svg width="62" height="70" viewBox="0 0 62 70" fill="none" xmlns="http://www.w3.org/2000/svg">
<path d="M1.09375 70C0.803669 70 0.52547 69.8848 0.320352 69.6796C0.115234 69.4745 0 69.1963 0 68.9062C0 68.6162 0.115234 68.338 0.320352 68.1329C0.52547 67.9277 0.803669 67.8125 1.09375 67.8125H8.02047L8.75 63.4375C8.84297 62.8152 9.24 62.3438 9.84375 62.3438H15.3125L15.3114 22.9688H12.0312C11.7412 22.9688 11.463 22.8535 11.2579 22.6484C11.0527 22.4433 10.9375 22.1651 10.9375 21.875C10.9375 21.5849 11.0527 21.3067 11.2579 21.1016C11.463 20.8965 11.7412 20.7812 12.0312 20.7812H15.3114L15.3125 1.09375C15.3125 0.803669 15.4277 0.52547 15.6329 0.320352C15.838 0.115234 16.1162 0 16.4062 0C16.6963 0 16.9745 0.115234 17.1796 0.320352C17.3848 0.52547 17.5 0.803669 17.5 1.09375V5.0225C24.8013 8.81628 31.1572 14.2018 36.0981 20.7812H40.4688C40.7588 20.7812 41.037 20.8965 41.2421 21.1016C41.4473 21.3067 41.5625 21.5849 41.5625 21.875C41.5625 22.1651 41.4473 22.4433 41.2421 22.6484C41.037 22.8535 40.7588 22.9688 40.4688 22.9688H37.6578C43.7827 32.0061 47.0486 42.6764 47.0312 53.5938C47.0312 56.572 46.7928 59.4945 46.3345 62.3438H51.4062C51.9641 62.3438 52.2922 62.7134 52.4617 63.2887L52.5033 63.4594L53.2295 67.8125H60.1562C60.4463 67.8125 60.7245 67.9277 60.9296 68.1329C61.1348 68.338 61.25 68.6162 61.25 68.9062C61.25 69.1963 61.1348 69.4745 60.9296 69.6796C60.7245 69.8848 60.4463 70 60.1562 70H1.09375ZM50.3125 64.5312H10.9375L10.2812 67.8125H50.9688L50.3125 64.5312ZM17.5 7.50313V20.7812H27.3295C25.6412 18.9322 23.818 17.2111 21.875 15.6319V18.5938C21.875 18.8838 21.7598 19.162 21.5546 19.3671C21.3495 19.5723 21.0713 19.6875 20.7812 19.6875C20.4912 19.6875 20.213 19.5723 20.0079 19.3671C19.8027 19.162 19.6875 18.8838 19.6875 18.5938V13.125C19.6864 12.8613 19.7807 12.6062 19.9528 12.4065C20.125 12.2068 20.3635 12.076 20.6244 12.0381C20.8853 12.0003 21.1512 12.0581 21.3729 12.2007C21.5947 12.3433 21.7574 12.5613 21.8312 12.8144C34.4816 22.4 42.6562 37.5889 42.6562 54.6875C42.6562 56.4211 42.572 58.135 42.408 59.8259L42.3609 60.2077C42.3237 60.4656 42.1956 60.7017 41.9997 60.8736C41.8038 61.0454 41.5529 61.1417 41.2923 61.145L41.1152 61.1341C40.8631 61.1086 40.6292 60.9916 40.4579 60.805C40.2865 60.6185 40.1896 60.3756 40.1855 60.1223L40.192 59.9867L40.2139 59.7789C40.5449 56.4882 40.5544 53.173 40.2423 49.8805L25.3892 62.3438L44.1175 62.3448C44.5955 59.5 44.8438 56.5753 44.8438 53.5938C44.8438 33.7137 33.7936 16.4139 17.5 7.50313ZM19.6875 22.9688H17.4989L17.5 62.3438H19.6875V22.9688ZM37.6261 49.2188H21.8739L21.875 62.3438H21.992L22.0555 62.2858L37.625 49.2188H37.6261ZM36.4645 34.9858L22.1069 47.0312H39.8902C39.2581 42.8883 38.1072 38.8413 36.4645 34.9858ZM33.0422 35H21.8739V44.3713L33.0422 35ZM30.847 25.0906L21.8739 32.6178V32.8125H35.4769C34.1676 30.1053 32.6181 27.521 30.847 25.0906ZM29.213 22.9688H21.875L21.8739 29.762L29.5192 23.3494L29.213 22.9688Z" fill="black"/>
<path d="M21.8691 32.7947H35.4429L36.4664 35H21.8691V32.7947Z" fill="#CD4051"/>
</svg>
