<svg width="55" height="52" viewBox="0 0 55 52" fill="none" xmlns="http://www.w3.org/2000/svg">
<path d="M24.4982 33.7041C24.8786 33.3237 24.8786 32.639 24.4982 32.1825C24.1178 31.8021 23.4331 31.8021 22.9766 32.1825C22.5962 32.5629 22.5962 33.2477 22.9766 33.7041C23.4331 34.0846 24.1178 34.0846 24.4982 33.7041Z" fill="black"/>
<path d="M23.7374 33.9324C23.4331 33.9324 23.2048 33.8563 23.0527 33.628C22.6723 33.2476 22.6723 32.5629 23.0527 32.1825C23.2048 32.0303 23.5092 31.8782 23.7374 31.8782C24.0417 31.8782 24.27 31.9543 24.4222 32.1825C24.8026 32.5629 24.8026 33.2476 24.4222 33.628C24.27 33.8563 24.0417 33.9324 23.7374 33.9324Z" fill="black"/>
<path d="M31.3456 17.0422C27.8458 17.0422 25.0308 14.2272 25.0308 10.7275V8.52109H24.9547C24.4222 8.52109 23.9657 8.0646 23.9657 7.53203C23.9657 6.99946 24.4222 6.54297 24.9547 6.54297H27.085C27.6176 6.54297 28.0741 6.99946 28.0741 7.53203C28.0741 8.0646 27.6176 8.52109 27.085 8.52109H27.0089V10.7275C27.0089 13.086 28.987 15.0641 31.3456 15.0641C33.7041 15.0641 35.6822 13.086 35.6822 10.7275V8.52109H35.6061C35.0736 8.52109 34.6171 8.0646 34.6171 7.53203C34.6171 6.99946 35.0736 6.54297 35.6061 6.54297H37.7364C38.269 6.54297 38.7255 6.99946 38.7255 7.53203C38.7255 8.0646 38.269 8.52109 37.7364 8.52109H37.6603V10.7275C37.6603 14.2272 34.8453 17.0422 31.3456 17.0422Z" fill="black"/>
<path d="M53.0288 20.3138C52.268 19.7051 51.2789 19.3247 50.2899 19.3247C49.0725 19.3247 47.9313 19.8573 47.0944 20.7702L45.9532 21.9115V0.989059C45.9532 0.456489 45.4967 0 44.9641 0H17.5748C17.0422 0 16.5858 0.456489 16.5858 0.989059V24.9547H16.5097C12.4013 25.8677 9.12977 28.3784 7.30382 32.1825L9.35802 32.7911H9.28194V32.715C10.8796 29.5196 13.8468 27.3893 17.6509 26.8568C18.3356 26.7807 18.9443 26.7046 19.629 26.7046C21.2267 26.7046 22.6723 27.0089 24.1178 27.5415C24.4222 27.6937 24.8026 27.7697 25.1069 27.7697H37.5082C38.7255 27.7697 39.7145 28.7588 39.7145 29.9761C39.7145 31.1934 38.7255 32.1825 37.5082 32.1825H28.2262C27.6937 32.1825 27.2372 32.639 27.2372 33.1715C27.2372 33.7041 27.6937 34.1606 28.2262 34.1606H37.5082C39.7906 34.1606 41.6926 32.2586 41.6926 29.9761C41.6926 29.8239 41.6926 29.5957 41.6926 29.3675C41.9209 29.1392 48.3878 22.444 48.6161 22.2158C48.9965 21.7593 49.6812 21.455 50.2899 21.455C50.8224 21.455 51.2789 21.6071 51.7354 21.9876C52.1919 22.368 52.4201 22.9005 52.4962 23.5092C52.5723 24.1178 52.3441 24.6504 51.9636 25.1069L42.4535 36.5191C41.0079 37.8886 39.182 38.6494 37.2038 38.6494H23.2048C21.3789 38.6494 19.629 39.3341 18.3356 40.6275L17.8031 41.1601L17.727 41.084L18.4878 43.2143L19.629 42.0731C20.542 41.1601 21.8354 40.6275 23.1288 40.6275H37.2038C39.7145 40.6275 42.0731 39.6385 43.8229 37.8886L43.899 37.8125L53.4853 26.3242C55.0069 24.4982 54.7787 21.8354 53.0288 20.3138ZM43.9751 24.1178L40.8557 27.3893L40.7797 27.3133C39.9428 26.3242 38.8015 25.7155 37.5082 25.7155H25.1069C25.0308 25.7155 24.9547 25.7155 24.8786 25.6395C23.2048 24.9547 21.455 24.6504 19.7051 24.6504C19.3247 24.6504 19.0204 24.6504 18.64 24.6504H18.5639V1.97812H43.9751V24.1178Z" fill="black"/>
<path d="M3.57583 33.6279L0.304326 36.8994C0.0760815 37.0516 0 37.2798 0 37.5842C0 37.8885 0.0760815 38.1167 0.304326 38.2689L12.4013 50.3658C12.5534 50.518 12.8578 50.6702 13.086 50.6702C13.3903 50.6702 13.6186 50.5941 13.7708 50.3658L17.0423 47.0943C18.1074 46.0292 18.64 44.5837 18.4878 43.062L17.727 40.9317C17.5748 40.6274 17.3466 40.3992 17.0423 40.1709L10.4992 33.6279C10.1949 33.3236 9.73843 33.0193 9.35802 32.791L7.30382 32.1824C7.22774 32.1824 7.15166 32.1824 7.07558 32.1824C5.70611 32.1824 4.48881 32.6389 3.57583 33.6279ZM9.12978 34.9974L15.6728 41.5404C16.2054 42.073 16.5097 42.8338 16.5097 43.5946C16.5097 44.3554 16.2054 45.1162 15.6728 45.6488L13.086 48.2356L2.43461 37.5842L5.02138 34.9974C5.55395 34.4648 6.31476 34.1605 7.07558 34.1605C7.83639 34.1605 8.52113 34.4648 9.12978 34.9974Z" fill="#D64356"/>
</svg>
