<svg width="61" height="61" viewBox="0 0 61 61" fill="none" xmlns="http://www.w3.org/2000/svg">
<g clip-path="url(#clip0)">
<path d="M30.0922 0.874878C13.5228 0.874878 0.0921936 14.3055 0.0921936 30.8749C0.0921936 47.4443 13.5228 60.8749 30.0922 60.8749C46.6597 60.8749 60.0922 47.4424 60.0922 30.8749C60.0922 14.3055 46.6597 0.874878 30.0922 0.874878ZM30.0922 57.1248C15.5948 57.1248 3.84225 45.3723 3.84225 30.8749C3.84225 16.3774 15.5948 4.62494 30.0922 4.62494C44.5896 4.62494 56.3421 16.3774 56.3421 30.8749C56.3421 45.3723 44.5896 57.1248 30.0922 57.1248Z" fill="black"/>
<path d="M43.7796 20.3617L24.4896 39.4792L16.4627 31.6117C15.724 30.8786 14.524 30.8786 13.7853 31.6117C13.0446 32.3449 13.0446 33.5317 13.7853 34.263L23.1583 43.4486C23.927 44.1255 25.0764 44.2004 25.8358 43.4486L46.4588 23.013C47.1976 22.2817 47.1976 21.093 46.4588 20.3617C45.7183 19.6304 44.5203 19.6304 43.7796 20.3617Z" fill="#CD4051"/>
</g>
<defs>
<clipPath id="clip0">
<rect width="60" height="60" fill="white" transform="translate(0.0921936 0.874878)"/>
</clipPath>
</defs>
</svg>
