<svg width="55" height="43" viewBox="0 0 55 43" fill="none" xmlns="http://www.w3.org/2000/svg">
<path d="M53.9258 6.52547C53.4961 6.07429 52.8086 6.05281 52.3574 6.4825L44.7519 13.7012L41.4863 10.3067C41.0566 9.85555 40.3691 9.85555 39.918 10.2852C39.4668 10.7149 39.4668 11.4024 39.8965 11.8536L43.9355 16.043C44.1504 16.2794 44.4512 16.3868 44.7305 16.3868C45.0098 16.3868 45.2891 16.2794 45.4824 16.086L53.8828 8.11531C54.334 7.66414 54.3555 6.95515 53.9258 6.52547Z" fill="black"/>
<path d="M18.3691 15.4199C19.0781 19.0938 22.3223 21.7578 26.0605 21.7578C29.7988 21.7578 33.043 19.0938 33.752 15.4199L34.7832 10.0703C35.1055 7.72852 34.3965 5.36523 32.8281 3.58203C31.2813 1.79883 29.0254 0.767578 26.6621 0.767578H25.4375C23.0742 0.767578 20.8184 1.79883 19.2715 3.58203C17.7246 5.36523 16.9941 7.72852 17.3379 10.1348L18.3691 15.4199ZM20.9473 5.02148C22.0859 3.71094 23.7188 2.98047 25.459 2.98047H26.6836C28.4023 2.98047 30.0566 3.73242 31.1953 5.02148C32.334 6.31055 32.8496 8.05078 32.6348 9.70508L31.582 14.9902C31.0664 17.6328 28.7461 19.5449 26.0605 19.5449C23.375 19.5449 21.0547 17.6328 20.5605 14.9902L19.5508 9.76953C19.293 8.05078 19.8301 6.33203 20.9473 5.02148Z" fill="black"/>
<path d="M42.4961 29.3633C42.2812 28.3106 41.5078 27.4297 40.498 27.0859L33.3223 24.5293C32.9355 24.4004 32.5059 24.4863 32.2051 24.7656L26.082 30.4805L19.959 24.7656C19.6582 24.4863 19.2285 24.4004 18.8418 24.5293L11.6445 27.0859C10.6348 27.4512 9.86133 28.3106 9.64648 29.3633L7.41211 39.8691C7.2832 40.4492 7.43359 41.0508 7.79883 41.502C8.16406 41.9531 8.72266 42.2324 9.32422 42.2324H42.7969C43.3984 42.2324 43.9355 41.9746 44.3223 41.502C44.6875 41.0293 44.8379 40.4492 44.709 39.8691L42.4961 29.3633ZM9.64648 40.0195L11.8164 29.8359C11.8809 29.5352 12.0957 29.2774 12.3965 29.1914L18.9277 26.8711L25.3086 32.8438C25.7383 33.252 26.4043 33.252 26.8125 32.8438L33.1934 26.8711L39.7246 29.1914C40.0039 29.2988 40.2402 29.5352 40.3047 29.8359L42.4746 40.0195H9.64648Z" fill="black"/>
<path d="M10.8281 16.8379C11.1074 16.8379 11.3867 16.7305 11.6016 16.5156C12.0313 16.0859 12.0313 15.377 11.6016 14.9473L7.92774 11.2734L11.623 7.57812C12.0527 7.14844 12.0527 6.43945 11.623 6.00977C11.1934 5.58008 10.4844 5.58008 10.0547 6.00977L6.35938 9.70508L2.66406 6.00977C2.23437 5.58008 1.52539 5.58008 1.0957 6.00977C0.666016 6.43945 0.666016 7.14844 1.0957 7.57812L4.79102 11.2734L1.0957 14.9473C0.666016 15.377 0.666016 16.0859 1.0957 16.5156C1.31055 16.7305 1.58984 16.8379 1.86914 16.8379C2.14844 16.8379 2.42773 16.7305 2.64258 16.5156L6.33789 12.8203L10.0332 16.5156C10.2695 16.7305 10.5488 16.8379 10.8281 16.8379Z" fill="#CD4051"/>
</svg>
