<svg width="55" height="54" viewBox="0 0 55 54" fill="none" xmlns="http://www.w3.org/2000/svg">
<g clip-path="url(#clip0)">
<path d="M31.0771 45.9473C27.0671 44.0259 24.4774 39.9324 24.4774 35.5048C24.4774 33.5833 24.9786 31.7454 25.814 30.0746C26.0646 29.5734 25.8975 28.9051 25.3963 28.6544C24.8951 28.4038 24.2267 28.5709 23.9761 29.0722C22.8901 31.0771 22.3888 33.2492 22.3888 35.5048C22.3888 38.1781 23.1407 40.6843 24.5609 42.9399C25.9811 45.1119 27.9025 46.7827 30.1581 47.9523C30.3252 48.0358 30.4923 48.0358 30.5758 48.0358C30.9935 48.0358 31.3277 47.7852 31.4948 47.4511C31.8289 46.8663 31.6618 46.1979 31.0771 45.9473Z" fill="#D64356"/>
<path d="M40.9348 18.2118C40.7677 17.8777 40.6842 17.627 40.4336 17.3764H43.1904C45.8637 17.3764 48.0358 15.2044 48.0358 12.5311C48.0358 9.85777 45.8637 7.68572 43.1904 7.68572H34.7528C35.2541 6.93386 35.5882 5.93137 35.5882 4.92889C35.5882 2.17205 33.4162 0 30.7429 0H4.84535C2.17205 0 0 2.17205 0 4.84535C0 7.51864 2.17205 9.69069 4.84535 9.69069H13.2829C12.7817 10.4426 12.4475 11.445 12.4475 12.4475C12.4475 13.45 12.7817 14.4525 13.2829 15.2044H10.5261C7.8528 15.2044 5.68075 17.3764 5.68075 20.0497C5.68075 21.5534 6.43262 22.9736 7.51864 23.8926C6.43262 24.8115 5.68075 26.1482 5.68075 27.7354C5.68075 29.3227 6.43262 30.6593 7.51864 31.5783C6.43262 32.4972 5.68075 33.8339 5.68075 35.4212C5.68075 37.0084 6.43262 38.3451 7.51864 39.264C6.43262 40.183 5.68075 41.5196 5.68075 43.1069C5.68075 45.7802 7.8528 47.9522 10.5261 47.9522H22.9736C26.2317 51.4609 30.91 53.633 36.0895 53.633C46.0308 53.633 54.0507 45.6131 54.0507 35.6718C54.0507 27.2342 48.537 20.3003 40.9348 18.2118ZM43.1904 9.69069C44.6941 9.69069 45.9473 10.9438 45.9473 12.4475C45.9473 13.9513 44.6941 15.2044 43.1904 15.2044H17.2929C15.7891 15.2044 14.536 13.9513 14.536 12.4475C14.536 10.9438 15.7891 9.69069 17.2929 9.69069H43.1904ZM4.84535 7.60218C3.34162 7.60218 2.08851 6.34907 2.08851 4.84535C2.08851 3.34162 3.34162 2.08851 4.84535 2.08851H30.7429C32.2466 2.08851 33.4997 3.34162 33.4997 4.84535C33.4997 6.34907 32.2466 7.60218 30.7429 7.60218H4.84535ZM10.5261 17.2929H36.4236C36.8413 17.2929 37.259 17.3764 37.5932 17.5435C37.1755 17.5435 36.6743 17.5435 36.0895 17.5435C31.1606 17.5435 26.6494 19.5485 23.3913 22.8065H10.5261C9.02237 22.8065 7.76926 21.5534 7.76926 20.0497C7.8528 18.546 9.02237 17.2929 10.5261 17.2929ZM10.5261 24.8951H21.5534C20.3839 26.5659 19.4649 28.4038 18.7966 30.4087H10.4426C8.93883 30.4087 7.68572 29.1556 7.68572 27.6519C7.8528 26.1482 9.02237 24.8951 10.5261 24.8951ZM10.5261 32.4972H18.3789C18.2118 33.4997 18.1283 34.4187 18.1283 35.4212C18.1283 36.2566 18.2118 37.092 18.2954 37.9274H10.5261C9.02237 37.9274 7.76926 36.6743 7.76926 35.1705C7.8528 33.7503 9.02237 32.4972 10.5261 32.4972ZM10.5261 45.6131C9.02237 45.6131 7.76926 44.36 7.76926 42.8563C7.76926 41.3525 9.02237 40.0994 10.5261 40.0994H18.7131C19.2143 42.1044 20.1332 43.9423 21.2193 45.6131H10.5261ZM36.0895 51.3774C27.3177 51.3774 20.2168 44.2764 20.2168 35.5047C20.2168 26.7329 27.3177 19.632 36.0895 19.632C44.8612 19.632 51.9622 26.7329 51.9622 35.5047C51.9622 44.1929 44.8612 51.3774 36.0895 51.3774Z" fill="black"/>
<path d="M37.7603 21.7205C37.092 21.7205 36.6743 22.2217 36.6743 22.8065C36.6743 23.3913 37.1755 23.8925 37.7603 23.8925H37.8438C38.4286 23.8925 38.9299 23.3913 38.9299 22.8065C38.8463 22.2217 38.3451 21.804 37.7603 21.7205Z" fill="#D64356"/>
<path d="M34.5858 47.1169C33.9174 47.1169 33.4997 47.6182 33.4997 48.203C33.4997 48.7877 34.001 49.289 34.5858 49.289H34.6693C35.2541 49.289 35.7553 48.7877 35.7553 48.203C35.5882 47.6182 35.087 47.1169 34.5858 47.1169Z" fill="black"/>
<path d="M47.7016 28.0695C46.2814 25.8974 44.36 24.2266 42.1044 23.0571C41.6031 22.8064 40.9348 23.0571 40.6842 23.5583C40.4336 24.0595 40.6842 24.7279 41.1854 24.9785C45.1954 26.8999 47.7851 30.9934 47.7851 35.421C47.7851 37.3425 47.2839 39.1804 46.4485 40.8512C46.1979 41.3524 46.3649 42.0207 46.8662 42.2714C47.0333 42.3549 47.2004 42.3549 47.3674 42.3549C47.7851 42.3549 48.1193 42.1878 48.2864 41.7701C49.3724 39.7652 49.8736 37.5931 49.8736 35.3375C49.8736 32.8313 49.1218 30.3251 47.7016 28.0695Z" fill="#D64356"/>
</g>
<defs>
<clipPath id="clip0">
<rect width="55" height="53.9216" fill="white"/>
</clipPath>
</defs>
</svg>
