<svg width="55" height="49" viewBox="0 0 55 49" fill="none" xmlns="http://www.w3.org/2000/svg">
<path d="M23.6789 26.8742C22.9415 26.6284 22.2041 26.9561 21.9583 27.6935C21.3848 29.2502 17.5339 30.9709 12.372 30.9709C7.37405 30.9709 3.60509 29.3322 2.86769 27.7754C2.53995 27.12 1.72061 26.7922 1.06514 27.12C0.40967 27.4477 0.0819341 28.267 0.40967 28.9225C1.72061 31.7902 6.55471 33.6747 12.454 33.6747C15.2397 33.6747 17.9435 33.1831 20.0738 32.3637C22.4499 31.4625 24.0066 30.1515 24.5802 28.5948C24.744 27.8574 24.4163 27.12 23.6789 26.8742Z" fill="#D64356"/>
<path d="M23.6789 40.8034C22.9415 40.5576 22.2041 40.8853 21.9583 41.6227C21.3848 43.1794 17.5339 44.9 12.372 44.9C7.37405 44.9 3.60509 43.2614 2.86769 41.7046C2.53995 41.0492 1.72061 40.7214 1.06514 41.0492C0.40967 41.3769 0.0819341 42.1962 0.40967 42.8517C1.72061 45.7194 6.55471 47.6039 12.454 47.6039C15.2397 47.6039 17.9435 47.1123 20.0738 46.2929C22.4499 45.3917 24.0066 44.0807 24.5802 42.524C24.744 41.7866 24.4163 41.0492 23.6789 40.8034Z" fill="black"/>
<path d="M12.372 13.9287C5.3257 13.9287 0 16.7145 0 20.3196C0 23.9246 5.3257 26.7104 12.372 26.7104C19.4183 26.7104 24.744 23.9246 24.744 20.3196C24.744 16.7145 19.4183 13.9287 12.372 13.9287ZM12.372 24.0066C6.47278 24.0066 2.70382 21.8763 2.70382 20.3196C2.70382 18.7628 6.47278 16.6325 12.372 16.6325C18.2713 16.6325 22.0402 18.7628 22.0402 20.3196C22.0402 21.8763 18.2713 24.0066 12.372 24.0066Z" fill="black"/>
<path d="M23.6789 33.8385C22.9415 33.5927 22.2041 33.9204 21.9583 34.6579C21.3848 36.2146 17.5339 37.9352 12.372 37.9352C7.37406 37.9352 3.6051 36.2965 2.86769 34.7398C2.53996 34.0843 1.72062 33.7566 1.06515 34.0843C0.327741 34.412 0.0819391 35.2314 0.327741 35.8869C1.63868 38.7545 6.47278 40.639 12.372 40.639C15.1578 40.639 17.8616 40.1474 19.9919 39.3281C22.368 38.4268 23.9247 37.1159 24.4982 35.5591C24.744 34.8217 24.4163 34.0843 23.6789 33.8385Z" fill="black"/>
<path d="M42.3598 12.7817C49.4061 12.7817 54.7318 9.99594 54.7318 6.39085C54.7318 2.78575 49.4061 0 42.3598 0C35.3135 0 29.9878 2.78575 29.9878 6.39085C29.9878 9.99594 35.3135 12.7817 42.3598 12.7817ZM42.3598 2.78575C48.2591 2.78575 52.028 4.91604 52.028 6.47278C52.028 7.94759 48.2591 10.1598 42.3598 10.1598C36.4606 10.0779 32.7736 7.86566 32.7736 6.39085C32.7736 4.91604 36.4606 2.78575 42.3598 2.78575Z" fill="black"/>
<path d="M53.7486 19.9098C53.0112 19.664 52.2738 19.9917 52.028 20.7291C51.4545 22.2859 47.6036 24.0065 42.4418 24.0065C37.4438 24.0065 33.6748 22.3678 32.9374 20.8111C32.6097 20.1556 31.7904 19.8279 31.1349 20.1556C30.4794 20.4833 30.1517 21.3027 30.4794 21.9581C31.7904 24.8258 36.6245 26.7103 42.5237 26.7103C45.3095 26.7103 48.0133 26.2187 50.1436 25.3994C52.5196 24.4981 54.0764 23.1872 54.6499 21.6304C54.8138 20.893 54.4041 20.1556 53.7486 19.9098Z" fill="black"/>
<path d="M53.7486 12.9454C53.0112 12.6996 52.2738 13.0274 52.028 13.7648C51.4545 15.3215 47.6036 17.0421 42.4418 17.0421C37.4438 17.0421 33.6748 15.4035 32.9374 13.8467C32.6097 13.1912 31.7904 12.8635 31.1349 13.1912C30.4794 13.519 30.1517 14.3383 30.4794 14.9938C31.7904 17.8615 36.6245 19.746 42.5237 19.746C45.3095 19.746 48.0133 19.2544 50.1436 18.435C52.5196 17.5337 54.0764 16.2228 54.6499 14.6661C54.8138 13.9287 54.4041 13.1912 53.7486 12.9454Z" fill="black"/>
<path d="M53.7486 40.8034C53.0112 40.5576 52.2738 40.8853 52.028 41.6227C51.4545 43.1794 47.6036 44.9 42.4418 44.9C37.4438 44.9 33.6748 43.2614 32.9374 41.7046C32.6097 41.0492 31.7904 40.7214 31.1349 41.0492C30.4794 41.3769 30.1517 42.1962 30.4794 42.8517C31.7904 45.7194 36.6245 47.6039 42.5237 47.6039C45.3095 47.6039 48.0133 47.1123 50.1436 46.2929C52.5196 45.3917 54.0764 44.0807 54.6499 42.524C54.8138 41.7866 54.4041 41.0492 53.7486 40.8034Z" fill="black"/>
<path d="M53.7486 26.8742C53.0112 26.6284 52.2738 26.9561 52.028 27.6935C51.4545 29.2502 47.6036 30.9709 42.4418 30.9709C37.4438 30.9709 33.6748 29.3322 32.9374 27.7754C32.6097 27.12 31.7904 26.7922 31.1349 27.12C30.4794 27.4477 30.1517 28.267 30.4794 28.9225C31.7904 31.7902 36.6245 33.6747 42.5237 33.6747C45.3095 33.6747 48.0133 33.1831 50.1436 32.3637C52.5196 31.4625 54.0764 30.1515 54.6499 28.5948C54.8138 27.8574 54.4041 27.12 53.7486 26.8742Z" fill="black"/>
<path d="M53.7486 33.8385C53.0112 33.5927 52.2738 33.9204 52.028 34.6579C51.4545 36.2146 47.6036 37.9352 42.4418 37.9352C37.4438 37.9352 33.6748 36.2965 32.9374 34.7398C32.6097 34.0843 31.7904 33.7566 31.1349 34.0843C30.4794 34.412 30.1517 35.2314 30.4794 35.8869C31.7904 38.7545 36.6245 40.639 42.5237 40.639C45.3095 40.639 48.0133 40.1474 50.1436 39.3281C52.5196 38.4268 54.0764 37.1159 54.6499 35.5591C54.8138 34.8217 54.4041 34.0843 53.7486 33.8385Z" fill="black"/>
</svg>
