<svg width="45" height="45" viewBox="0 0 45 45" fill="none" xmlns="http://www.w3.org/2000/svg">
<path d="M42.7315 19.724V8.99612C42.7315 5.91495 36.3218 4.49806 30.3619 4.49806C28.4784 4.49077 26.5977 4.64123 24.7393 4.94786V4.49806C24.7393 1.41689 18.3296 0 12.3697 0C6.40973 0 0 1.41689 0 4.49806V38.2335C0 41.3147 6.40973 42.7315 12.3697 42.7315C14.5059 42.7352 16.6374 42.5319 18.7344 42.1243C21.8933 44.2529 25.6803 45.2481 29.4775 44.9474C33.2748 44.6468 36.858 43.068 39.6425 40.4688C42.427 37.8696 44.2484 34.4034 44.8094 30.6358C45.3704 26.8682 44.6379 23.0217 42.7315 19.724ZM35.7371 13.0893C37.3787 12.8726 38.9785 12.4102 40.4825 11.7174V16.6878C39.125 15.2181 37.5185 13.9999 35.7371 13.0893ZM12.3697 8.99612C15.8307 9.12344 19.2796 8.51797 22.4903 7.21938V11.2451C22.3104 11.8749 18.9368 13.4942 12.3697 13.4942C5.80249 13.4942 2.42895 11.8524 2.24903 11.2451V7.21938C5.45974 8.51797 8.90862 9.12344 12.3697 8.99612ZM12.2347 22.4903C11.6833 23.9322 11.3498 25.4482 11.2451 26.9883C5.39767 26.8084 2.36148 25.3466 2.24903 24.7393V20.7136C5.41916 21.9891 8.81917 22.594 12.2347 22.4903ZM2.24903 31.4864V27.4606C5.09796 28.6511 8.15754 29.2554 11.2451 29.2374C11.353 30.7728 11.6708 32.2863 12.1897 33.7354C5.75751 33.7354 2.42895 32.0936 2.24903 31.4864ZM13.2243 20.2413H12.3697C5.80249 20.2413 2.42895 18.5995 2.24903 17.9922V13.9665C5.45974 15.2651 8.90862 15.8705 12.3697 15.7432C13.9188 15.7488 15.4665 15.6511 17.0027 15.4508C15.4636 16.8057 14.1833 18.4289 13.2243 20.2413ZM30.3619 6.74709C36.9515 6.74709 40.3251 8.38888 40.4825 8.99612C40.6399 9.60335 36.9515 11.2451 30.3619 11.2451C28.4776 11.2494 26.5965 11.0914 24.7393 10.7728V7.21938C26.5965 6.90081 28.4776 6.74279 30.3619 6.74709ZM12.3697 2.24903C18.8918 2.24903 22.2654 3.86833 22.4903 4.49806C22.2654 5.1053 19.1167 6.61214 13.0669 6.74709H12.3697C5.80249 6.74709 2.42895 5.1053 2.24903 4.49806C2.42895 3.89082 5.80249 2.24903 12.3697 2.24903ZM12.3697 40.4825C5.80249 40.4825 2.42895 38.8407 2.24903 38.2335V34.2077C5.45974 35.5063 8.90862 36.1118 12.3697 35.9845H13.2018C14.0349 37.5613 15.1129 38.996 16.3954 40.2351C15.0598 40.3996 13.7154 40.4822 12.3697 40.4825ZM28.1129 42.7315C25.2216 42.7315 22.3952 41.8742 19.9912 40.2679C17.5871 38.6615 15.7134 36.3784 14.607 33.7072C13.5005 31.036 13.211 28.0966 13.7751 25.2609C14.3391 22.4251 15.7314 19.8203 17.7759 17.7759C19.8203 15.7314 22.4251 14.3391 25.2609 13.7751C28.0966 13.211 31.036 13.5005 33.7072 14.607C36.3784 15.7134 38.6615 17.5871 40.2679 19.9912C41.8742 22.3952 42.7315 25.2216 42.7315 28.1129C42.7256 31.9882 41.1835 35.703 38.4433 38.4433C35.703 41.1835 31.9881 42.7256 28.1129 42.7315Z" fill="black"/>
<path d="M29.2374 26.9883V21.8155C29.7569 21.9096 30.2408 22.1436 30.6371 22.4924C31.0334 22.8411 31.3271 23.2914 31.4864 23.7947C31.558 24.0929 31.7451 24.3505 32.0066 24.5108C32.2681 24.6711 32.5826 24.7209 32.8808 24.6493C33.1791 24.5777 33.4367 24.3906 33.5969 24.1291C33.7572 23.8676 33.807 23.5532 33.7355 23.2549C33.4139 22.2803 32.8189 21.4187 32.0214 20.7727C31.2239 20.1268 30.2575 19.7237 29.2374 19.6115V19.1167C29.2374 18.8185 29.1189 18.5324 28.908 18.3215C28.6971 18.1107 28.4111 17.9922 28.1129 17.9922C27.8146 17.9922 27.5286 18.1107 27.3177 18.3215C27.1068 18.5324 26.9884 18.8185 26.9884 19.1167V19.589C25.7982 19.7294 24.6955 20.2841 23.8731 21.1558C23.0507 22.0275 22.5612 23.1607 22.4903 24.3569C22.4931 24.7047 22.5307 25.0513 22.6028 25.3915C22.8861 26.3866 23.4506 27.2788 24.2285 27.961C25.0065 28.6432 25.9648 29.0864 26.9884 29.2373V34.4326C26.4689 34.3385 25.9849 34.1045 25.5886 33.7558C25.1923 33.407 24.8987 32.9567 24.7393 32.4534C24.6678 32.1552 24.4806 31.8976 24.2191 31.7373C23.9576 31.5771 23.6432 31.5272 23.3449 31.5988C23.0467 31.6704 22.7891 31.8575 22.6288 32.119C22.4686 32.3805 22.4187 32.695 22.4903 32.9932C22.8106 33.9665 23.4057 34.8264 24.2038 35.4689C25.002 36.1114 25.9691 36.5092 26.9884 36.6141V37.1089C26.9884 37.4072 27.1068 37.6932 27.3177 37.9041C27.5286 38.115 27.8146 38.2334 28.1129 38.2334C28.4111 38.2334 28.6971 38.115 28.908 37.9041C29.1189 37.6932 29.2374 37.4072 29.2374 37.1089V36.6141C30.2731 36.4988 31.2518 36.0811 32.0517 35.4132C32.8516 34.7453 33.4372 33.8567 33.7355 32.8583C33.805 32.5328 33.8426 32.2014 33.8479 31.8687C33.7946 30.6368 33.2992 29.4654 32.4524 28.5691C31.6056 27.6727 30.4643 27.1115 29.2374 26.9883ZM24.7393 24.7393C24.716 24.5752 24.716 24.4086 24.7393 24.2445C24.7976 23.6472 25.0485 23.0851 25.4542 22.6429C25.8598 22.2007 26.3983 21.9024 26.9884 21.793V26.7184C26.4827 26.6319 26.0086 26.4139 25.6139 26.0863C25.2191 25.7586 24.9175 25.3328 24.7393 24.8517V24.7393ZM31.4864 32.341C31.3271 32.8443 31.0334 33.2946 30.6371 33.6433C30.2408 33.9921 29.7569 34.2261 29.2374 34.3201V29.3948C29.8309 29.5053 30.3719 29.8068 30.7779 30.2535C31.184 30.7002 31.4328 31.2674 31.4864 31.8687C31.5067 32.0255 31.5067 32.1842 31.4864 32.341Z" fill="#D64356"/>
</svg>
