<svg width="70" height="70" viewBox="0 0 70 70" fill="none" xmlns="http://www.w3.org/2000/svg">
<path d="M47.0312 25.1562C46.2459 25.1562 45.4727 25.2022 44.7081 25.2831C44.7891 24.5153 44.8438 23.7431 44.8438 22.9688C44.8438 10.9069 35.0306 1.09375 22.9688 1.09375C10.9069 1.09375 1.09375 10.9069 1.09375 22.9688C1.09375 35.0306 10.9069 44.8438 22.9688 44.8438C23.7431 44.8438 24.5153 44.7902 25.2831 44.7092C25.2022 45.4727 25.1562 46.247 25.1562 47.0312C25.1562 59.0931 34.9694 68.9062 47.0312 68.9062C59.0931 68.9062 68.9062 59.0931 68.9062 47.0312C68.9062 34.9694 59.0931 25.1562 47.0312 25.1562ZM22.9688 42.6562C12.1133 42.6562 3.28125 33.8242 3.28125 22.9688C3.28125 12.1133 12.1133 3.28125 22.9688 3.28125C33.8242 3.28125 42.6562 12.1133 42.6562 22.9688C42.6562 23.8667 42.5775 24.7614 42.4572 25.6452C41.6675 25.8136 40.8975 26.0334 40.1417 26.285C40.3506 25.1967 40.4688 24.0888 40.4688 22.9688C40.4688 13.3197 32.6178 5.46875 22.9688 5.46875C13.3197 5.46875 5.46875 13.3197 5.46875 22.9688C5.46875 32.6178 13.3197 40.4688 22.9688 40.4688C24.0888 40.4688 25.1956 40.3506 26.285 40.1417C26.0334 40.8975 25.8147 41.6675 25.6452 42.4561C24.7603 42.5764 23.8667 42.6562 22.9688 42.6562ZM27.2989 37.6523C25.8978 38.0647 24.4442 38.2812 22.9688 38.2812C18.713 38.2812 14.8608 36.5334 12.0838 33.7225C12.2828 32.363 13.2902 31.2659 14.6628 30.9881L18.702 30.1689C18.9536 30.0967 19.192 29.9961 19.4228 29.8834L22.9688 34.6434L26.5223 29.8736C26.775 29.9983 27.0375 30.1098 27.3197 30.1897L31.2747 30.9881C31.5142 31.0363 31.7406 31.1183 31.9605 31.2167C30.0377 33.0498 28.4561 35.2286 27.2989 37.6523ZM17.5 22.9688C16.8973 22.9688 16.4062 22.4777 16.4062 21.875C16.4062 21.2723 16.8973 20.7812 17.5 20.7812V22.9688ZM18.3531 18.5938H17.5C17.2123 18.5938 16.9378 18.643 16.672 18.713C16.5036 18.2011 16.4062 17.6663 16.4062 17.1248C16.4062 14.3161 18.6911 12.0312 21.4998 12.0312H24.4387C27.2464 12.0312 29.5312 14.3161 29.5312 17.1248C29.5312 17.6663 29.4339 18.2011 29.2655 18.713C28.9997 18.643 28.7252 18.5938 28.4375 18.5938H27.3438H25.4144C23.9837 18.5938 22.5509 18.2558 21.2702 17.6148L21.0394 17.5H20.7812C19.8155 17.5 18.9547 17.9277 18.3531 18.5938ZM28.4375 20.7812C29.0402 20.7812 29.5312 21.2723 29.5312 21.875C29.5312 22.4777 29.0402 22.9688 28.4375 22.9688V20.7812ZM26.25 22.9688C26.25 24.7778 24.7778 26.25 22.9688 26.25C21.1597 26.25 19.6875 24.7778 19.6875 22.9688V20.7812C19.6875 20.2497 20.0692 19.8045 20.5723 19.7072C22.0817 20.4105 23.7497 20.7812 25.4144 20.7812H26.25V22.9688ZM21.2855 28.1444C21.8192 28.3194 22.3781 28.4375 22.9688 28.4375C23.5605 28.4375 24.1194 28.3194 24.6531 28.1444C24.7144 28.2505 24.78 28.3544 24.8511 28.455L22.9688 30.9816L21.0875 28.4572C21.1575 28.3555 21.2231 28.2516 21.2855 28.1444ZM33.7214 29.7106C33.1177 29.2928 32.4384 28.9909 31.7067 28.8444L27.8348 28.0656C27.2858 27.9092 26.8352 27.5417 26.5552 27.0627C27.1545 26.5366 27.6478 25.8956 27.9727 25.1562H28.4375C30.2466 25.1562 31.7188 23.6841 31.7188 21.875C31.7188 21.175 31.4945 20.5297 31.1205 19.9959C31.5087 19.0914 31.7188 18.1136 31.7188 17.1248C31.7188 13.1097 28.4528 9.84375 24.4377 9.84375H21.4988C17.4847 9.84375 14.2188 13.1097 14.2188 17.1248C14.2188 18.1147 14.4288 19.0914 14.817 19.997C14.443 20.5297 14.2188 21.175 14.2188 21.875C14.2188 23.6841 15.6909 25.1562 17.5 25.1562H17.9637C18.2886 25.8967 18.783 26.5377 19.3823 27.0637C19.1067 27.5406 18.6736 27.9038 18.1847 28.0448L14.2297 28.8433C12.5311 29.1856 11.1759 30.2859 10.4442 31.7505C8.69422 29.2611 7.65625 26.2369 7.65625 22.9688C7.65625 14.525 14.525 7.65625 22.9688 7.65625C31.4125 7.65625 38.2812 14.525 38.2812 22.9688C38.2812 24.4464 38.0614 25.9 37.6491 27.3011C36.2513 27.9683 34.9377 28.7755 33.7214 29.7106ZM47.0312 66.7188C36.1758 66.7188 27.3438 57.8867 27.3438 47.0312C27.3438 36.1758 36.1758 27.3438 47.0312 27.3438C57.8867 27.3438 66.7188 36.1758 66.7188 47.0312C66.7188 57.8867 57.8867 66.7188 47.0312 66.7188Z" fill="black"/>
<path d="M62.9584 29.7752L65.1098 29.3771C64.9655 28.6016 64.7894 27.8218 64.5859 27.0605L62.4728 27.6271C62.662 28.3326 62.825 29.0555 62.9584 29.7752Z" fill="black"/>
<path d="M45.9375 10.9375C46.8847 10.9375 47.7323 10.5284 48.3328 9.88313C54.5759 13.2092 59.465 18.8562 61.8198 25.5205L63.8827 24.792C61.3266 17.558 55.9967 11.4373 49.198 7.86844C49.2023 7.79734 49.2187 7.72844 49.2187 7.65625C49.2187 5.84719 47.7466 4.375 45.9375 4.375C44.1284 4.375 42.6562 5.84719 42.6562 7.65625C42.6562 9.46531 44.1284 10.9375 45.9375 10.9375ZM45.9375 6.5625C46.5402 6.5625 47.0312 7.05359 47.0312 7.65625C47.0312 8.25891 46.5402 8.75 45.9375 8.75C45.3348 8.75 44.8437 8.25891 44.8437 7.65625C44.8437 7.05359 45.3348 6.5625 45.9375 6.5625Z" fill="#D64356"/>
<path d="M7.04157 40.2249L4.89017 40.623C5.03454 41.3984 5.21064 42.1783 5.41407 42.9395L7.5272 42.373C7.33798 41.6675 7.17501 40.9445 7.04157 40.2249Z" fill="black"/>
<path d="M24.0625 59.0625C23.1153 59.0625 22.2677 59.4715 21.6672 60.1168C15.4252 56.7907 10.5361 51.1437 8.18015 44.4795L6.11734 45.2079C8.67343 52.442 14.0033 58.5626 20.802 62.1315C20.7977 62.2026 20.7812 62.2715 20.7812 62.3437C20.7812 64.1528 22.2534 65.625 24.0625 65.625C25.8716 65.625 27.3437 64.1528 27.3437 62.3437C27.3437 60.5346 25.8716 59.0625 24.0625 59.0625ZM24.0625 63.4375C23.4598 63.4375 22.9687 62.9464 22.9687 62.3437C22.9687 61.7411 23.4598 61.25 24.0625 61.25C24.6652 61.25 25.1562 61.7411 25.1562 62.3437C25.1562 62.9464 24.6652 63.4375 24.0625 63.4375Z" fill="#D64356"/>
<path d="M59.9692 37.3754C59.9681 37.3754 59.9681 37.3754 59.9692 37.3754C58.94 36.3462 57.5181 35.9065 56.0678 36.1668C55.2081 36.3221 54.3889 36.7695 53.6977 37.4607L41.5625 49.5937L38.1773 46.2075C37.485 45.5173 36.6658 45.07 35.8083 44.9157C34.3569 44.6532 32.9361 45.094 31.9069 46.1232C30.8777 47.1525 30.4369 48.5743 30.6983 50.0246C30.8536 50.8843 31.3009 51.7036 31.9922 52.3948L38.4694 58.8731C39.2952 59.7011 40.3933 60.1561 41.5625 60.1561C42.7317 60.1561 43.8298 59.7011 44.6556 58.8742L59.8839 43.6459C60.5752 42.9546 61.0225 42.1354 61.1778 41.2757C61.4381 39.8265 60.9985 38.4046 59.9692 37.3754ZM59.0242 40.8886C58.9291 41.4168 58.5977 41.839 58.3374 42.0993L43.1091 57.3276C42.2833 58.1545 40.8428 58.1545 40.0159 57.3276L33.5377 50.8493C33.2773 50.5879 32.9459 50.1657 32.8508 49.6375C32.7184 48.9036 32.9383 48.1871 33.4545 47.672C33.8702 47.2553 34.4192 47.0311 35.0022 47.0311C35.1389 47.0311 35.2789 47.0431 35.42 47.0682C35.9472 47.1634 36.3705 47.4948 36.6308 47.7551L41.5625 52.6868L55.2442 39.0062C55.5056 38.7459 55.9278 38.4145 56.4561 38.3193C57.19 38.187 57.9064 38.4068 58.4216 38.922C58.9367 39.4371 59.1566 40.1536 59.0242 40.8886Z" fill="#D64356"/>
</svg>
