<svg width="57" height="71" viewBox="0 0 57 71" fill="none" xmlns="http://www.w3.org/2000/svg">
<path d="M53.2778 9.12217L50.5555 8.5518V8.13698C50.5555 7.10559 50.1458 6.11643 49.4165 5.38712C48.6872 4.65781 47.6981 4.24809 46.6667 4.24809H32.1222L17.9537 0.955501C17.4531 0.836601 16.9338 0.818231 16.4261 0.901457C15.9183 0.984683 15.4321 1.16785 14.9956 1.44034C14.5591 1.71284 14.1811 2.06924 13.8833 2.4889C13.5856 2.90857 13.3741 3.38314 13.2611 3.88513L13.1833 4.23513H10.3704C9.33897 4.23513 8.34982 4.64485 7.62051 5.37416C6.8912 6.10347 6.48148 7.09262 6.48148 8.12402V33.2592L0.829629 57.8111C0.712656 58.3108 0.695758 58.8287 0.77991 59.335C0.864061 59.8413 1.0476 60.3259 1.31994 60.7609C1.59228 61.196 1.94803 61.5728 2.36669 61.8696C2.78535 62.1665 3.25864 62.3776 3.75926 62.4907L6.48148 63.1259V63.4759C6.48148 64.5073 6.8912 65.4964 7.62051 66.2257C8.34982 66.955 9.33897 67.3648 10.3704 67.3648H25.0444L25.187 67.4296L39.0833 70.6444C39.584 70.7633 40.1032 70.7817 40.611 70.6984C41.1188 70.6152 41.605 70.432 42.0414 70.1595C42.4779 69.887 42.856 69.5306 43.1537 69.111C43.4514 68.6913 43.6629 68.2167 43.7759 67.7148L43.8537 67.3648H46.6667C47.6981 67.3648 48.6872 66.955 49.4165 66.2257C50.1458 65.4964 50.5555 64.5073 50.5555 63.4759V38.2888L56.2074 13.8018C56.3244 13.3021 56.3413 12.7841 56.2571 12.2778C56.173 11.7715 55.9894 11.2869 55.7171 10.8519C55.4448 10.4169 55.089 10.0401 54.6703 9.7432C54.2517 9.44633 53.7784 9.23526 53.2778 9.12217ZM6.48148 60.4036L4.34259 59.8981C4.17403 59.8614 4.01447 59.7915 3.87328 59.6924C3.73209 59.5933 3.6121 59.467 3.52035 59.3209C3.42859 59.1748 3.36692 59.0119 3.33894 58.8417C3.31096 58.6714 3.31724 58.4973 3.35741 58.3296L6.48148 44.8481V60.4036ZM17.3704 3.48328L20.5981 4.23513H15.8926C16.0123 3.95691 16.2256 3.72939 16.4956 3.59205C16.7655 3.45471 17.075 3.41622 17.3704 3.48328ZM39.6667 68.0648L36.4518 67.3129H41.1444C41.0248 67.5911 40.8114 67.8186 40.5415 67.956C40.2715 68.0933 39.962 68.1318 39.6667 68.0648ZM47.963 63.4111C47.963 63.7549 47.8264 64.0846 47.5833 64.3277C47.3402 64.5708 47.0105 64.7073 46.6667 64.7073H10.3704C10.0266 64.7073 9.69685 64.5708 9.45375 64.3277C9.21065 64.0846 9.07407 63.7549 9.07407 63.4111V8.13698C9.07407 7.79318 9.21065 7.46347 9.45375 7.22036C9.69685 6.97726 10.0266 6.84069 10.3704 6.84069H46.6667C47.0105 6.84069 47.3402 6.97726 47.5833 7.22036C47.8264 7.46347 47.963 7.79318 47.963 8.13698V63.4111ZM53.6796 13.2185L50.5555 26.7648V11.1444L52.6944 11.637C52.8644 11.6735 53.0253 11.7439 53.1675 11.8438C53.3097 11.9438 53.4303 12.0714 53.5222 12.2189C53.6142 12.3665 53.6755 12.531 53.7025 12.7027C53.7295 12.8744 53.7218 13.0498 53.6796 13.2185Z" fill="black"/>
<path d="M41.4815 57.5907H16.8519V47.0518C16.8519 46.708 16.7153 46.3783 16.4722 46.1352C16.2291 45.8921 15.8994 45.7555 15.5556 45.7555C15.2118 45.7555 14.882 45.8921 14.6389 46.1352C14.3958 46.3783 14.2593 46.708 14.2593 47.0518V58.887C14.2593 59.2308 14.3958 59.5605 14.6389 59.8036C14.882 60.0467 15.2118 60.1833 15.5556 60.1833H41.4815C41.8253 60.1833 42.155 60.0467 42.3981 59.8036C42.6412 59.5605 42.7778 59.2308 42.7778 58.887C42.7778 58.5432 42.6412 58.2135 42.3981 57.9704C42.155 57.7273 41.8253 57.5907 41.4815 57.5907Z" fill="black"/>
<path d="M19.8722 24.3925C21.3621 24.3925 22.7911 23.8016 23.8458 22.7493C24.9005 21.6971 25.4947 20.2694 25.4981 18.7796C25.4903 17.7367 25.1893 16.717 24.6296 15.837L26.9889 13.4907C27.233 13.2466 27.3701 12.9155 27.3701 12.5703C27.3701 12.2251 27.233 11.8941 26.9889 11.65C26.7448 11.4059 26.4137 11.2687 26.0685 11.2687C25.7233 11.2687 25.3922 11.4059 25.1481 11.65L19.8593 16.9388L16.9167 13.9962C16.6738 13.7548 16.3452 13.6193 16.0028 13.6193C15.6603 13.6193 15.3318 13.7548 15.0889 13.9962C14.8475 14.2391 14.7119 14.5677 14.7119 14.9101C14.7119 15.2526 14.8475 15.5811 15.0889 15.824C14.5399 16.7116 14.2523 17.736 14.2593 18.7796C14.2593 20.2682 14.8506 21.6959 15.9033 22.7485C16.9559 23.8012 18.3836 24.3925 19.8722 24.3925ZM17.0333 17.7685L18.9648 19.7C19.2063 19.9394 19.5322 20.0744 19.8722 20.0759C20.1988 20.0645 20.509 19.9302 20.7407 19.7L22.6722 17.7685C22.7848 18.094 22.8461 18.4352 22.8537 18.7796C22.8034 19.5481 22.4626 20.2687 21.9005 20.7952C21.3384 21.3218 20.597 21.6147 19.8269 21.6147C19.0567 21.6147 18.3153 21.3218 17.7532 20.7952C17.1911 20.2687 16.8503 19.5481 16.8 18.7796C16.8178 18.4315 16.8968 18.0892 17.0333 17.7685Z" fill="#CD4051"/>
<path d="M19.8722 38.5999C20.9855 38.6025 22.0745 38.2747 23.0013 37.6581C23.9282 37.0415 24.6513 36.1637 25.0791 35.136C25.5069 34.1082 25.6202 32.9766 25.4046 31.8844C25.189 30.7922 24.6542 29.7886 23.8679 29.0005C23.0816 28.2124 22.0792 27.6753 20.9875 27.4572C19.8958 27.239 18.764 27.3497 17.7352 27.7751C16.7065 28.2005 15.8271 28.9216 15.2083 29.8471C14.5895 30.7725 14.2593 31.8608 14.2593 32.974C14.2627 34.4628 14.8547 35.8898 15.9062 36.9438C16.9578 37.9978 18.3834 38.5931 19.8722 38.5999ZM19.8722 29.9536C20.4733 29.9511 21.0615 30.1271 21.5623 30.4594C22.0631 30.7918 22.4539 31.2654 22.6851 31.8202C22.9163 32.375 22.9775 32.9859 22.8608 33.5755C22.7442 34.1652 22.455 34.7068 22.03 35.1318C21.605 35.5568 21.0634 35.846 20.4738 35.9626C19.8841 36.0793 19.2732 36.0181 18.7184 35.7869C18.1636 35.5557 17.69 35.1649 17.3577 34.6641C17.0253 34.1633 16.8493 33.575 16.8519 32.974C16.8553 32.174 17.1746 31.4077 17.7403 30.8421C18.306 30.2764 19.0722 29.9571 19.8722 29.9536Z" fill="#CD4051"/>
<path d="M41.4815 41.4518H36.4C36.0562 41.4518 35.7265 41.5884 35.4834 41.8315C35.2403 42.0746 35.1037 42.4043 35.1037 42.7481C35.1037 43.0919 35.2403 43.4216 35.4834 43.6647C35.7265 43.9078 36.0562 44.0444 36.4 44.0444H38.3574L31.1111 51.3296L26.0167 46.1444C25.7738 45.903 25.4452 45.7674 25.1028 45.7674C24.7603 45.7674 24.4318 45.903 24.1889 46.1444L19.5481 50.7981C19.4124 50.9143 19.3022 51.0573 19.2244 51.2181C19.1466 51.379 19.1029 51.5541 19.096 51.7327C19.0891 51.9112 19.1192 52.0892 19.1844 52.2555C19.2495 52.4219 19.3484 52.573 19.4747 52.6993C19.601 52.8256 19.7521 52.9245 19.9185 52.9897C20.0848 53.0548 20.2628 53.0849 20.4414 53.078C20.6199 53.0711 20.7951 53.0274 20.9559 52.9496C21.1167 52.8718 21.2597 52.7616 21.3759 52.6259L25.1093 48.8925L30.1907 53.987C30.3112 54.1085 30.4546 54.2049 30.6126 54.2707C30.7706 54.3365 30.94 54.3704 31.1111 54.3704C31.2822 54.3704 31.4517 54.3365 31.6096 54.2707C31.7676 54.2049 31.911 54.1085 32.0315 53.987L40.1852 45.8851V47.8296C40.1852 48.1734 40.3218 48.5031 40.5649 48.7462C40.808 48.9893 41.1377 49.1259 41.4815 49.1259C41.8253 49.1259 42.155 48.9893 42.3981 48.7462C42.6412 48.5031 42.7778 48.1734 42.7778 47.8296V42.7481C42.7778 42.4043 42.6412 42.0746 42.3981 41.8315C42.155 41.5884 41.8253 41.4518 41.4815 41.4518Z" fill="#CD4051"/>
<path d="M30.2426 31.6777H35.8037C36.1475 31.6777 36.4772 31.5411 36.7203 31.298C36.9634 31.0549 37.1 30.7252 37.1 30.3814C37.1 30.0376 36.9634 29.7079 36.7203 29.4648C36.4772 29.2217 36.1475 29.0851 35.8037 29.0851H30.2426C29.8988 29.0851 29.5691 29.2217 29.326 29.4648C29.0829 29.7079 28.9463 30.0376 28.9463 30.3814C28.9463 30.7252 29.0829 31.0549 29.326 31.298C29.5691 31.5411 29.8988 31.6777 30.2426 31.6777Z" fill="black"/>
<path d="M30.2426 36.8759H40.9111C41.2549 36.8759 41.5846 36.7393 41.8277 36.4962C42.0708 36.2531 42.2074 35.9234 42.2074 35.5796C42.2074 35.2358 42.0708 34.9061 41.8277 34.663C41.5846 34.4199 41.2549 34.2833 40.9111 34.2833H30.2426C29.8988 34.2833 29.5691 34.4199 29.326 34.663C29.0829 34.9061 28.9463 35.2358 28.9463 35.5796C28.9463 35.9234 29.0829 36.2531 29.326 36.4962C29.5691 36.7393 29.8988 36.8759 30.2426 36.8759Z" fill="black"/>
<path d="M30.2426 17.4833H35.8037C36.1475 17.4833 36.4772 17.3467 36.7203 17.1036C36.9634 16.8605 37.1 16.5308 37.1 16.187C37.1 15.8432 36.9634 15.5135 36.7203 15.2704C36.4772 15.0273 36.1475 14.8907 35.8037 14.8907H30.2426C29.8988 14.8907 29.5691 15.0273 29.326 15.2704C29.0829 15.5135 28.9463 15.8432 28.9463 16.187C28.9463 16.5308 29.0829 16.8605 29.326 17.1036C29.5691 17.3467 29.8988 17.4833 30.2426 17.4833Z" fill="black"/>
<path d="M30.2426 22.6685H40.9111C41.2549 22.6685 41.5846 22.5319 41.8277 22.2888C42.0708 22.0457 42.2074 21.716 42.2074 21.3722C42.2074 21.0284 42.0708 20.6986 41.8277 20.4555C41.5846 20.2124 41.2549 20.0759 40.9111 20.0759H30.2426C29.8988 20.0759 29.5691 20.2124 29.326 20.4555C29.0829 20.6986 28.9463 21.0284 28.9463 21.3722C28.9463 21.716 29.0829 22.0457 29.326 22.2888C29.5691 22.5319 29.8988 22.6685 30.2426 22.6685Z" fill="black"/>
</svg>
