<svg width="70" height="68" viewBox="0 0 70 68" fill="none" xmlns="http://www.w3.org/2000/svg">
<path fill-rule="evenodd" clip-rule="evenodd" d="M50.4 44.8H67.2V64.4H2.8V44.8H19.6V49C19.6 52.866 22.7228 56 26.589 56H43.411C47.2709 56 50.4 52.8929 50.4 49V44.8ZM0 43.4V42L8.4 28.56V5.61385C8.4 2.51167 10.9107 0 14.0077 0H44.8L61.6 19.6V21V28.56L70 42V67.2H0V43.4ZM8.4 42V34.0479L3.42993 42H8.4ZM61.6 42V34.0479L66.5701 42H61.6ZM11.2 42V5.6086C11.2 4.02897 12.4481 2.8 13.9876 2.8H42V16.7834C42 19.9176 44.5046 22.4 47.5942 22.4H58.8V42H11.2ZM44.8 4.2V16.7754C44.8 18.3354 46.0618 19.6 47.5909 19.6H57.9599L44.8 4.2ZM22.4 44.8V49C22.4 51.3196 24.2941 53.2 26.6179 53.2H43.3821C45.7116 53.2 47.6 51.3358 47.6 49V44.8H22.4ZM16.8 30.8V33.6H53.2V30.8H16.8ZM16.8 8.4V11.2H36.4V8.4H16.8ZM16.8 19.6V22.4H36.4V19.6H16.8Z" fill="black"/>
<rect x="16.79" y="30.7676" width="36.4202" height="2.8326" fill="#D64356"/>
</svg>
