<svg width="59" height="65" viewBox="0 0 59 65" fill="none" xmlns="http://www.w3.org/2000/svg">
<g clip-path="url(#clip0)">
<path d="M21.125 9.75H11.375C10.944 9.75 10.5307 9.92121 10.226 10.226C9.92121 10.5307 9.75 10.944 9.75 11.375C9.75 11.806 9.92121 12.2193 10.226 12.524C10.5307 12.8288 10.944 13 11.375 13H21.125C21.556 13 21.9693 12.8288 22.274 12.524C22.5788 12.2193 22.75 11.806 22.75 11.375C22.75 10.944 22.5788 10.5307 22.274 10.226C21.9693 9.92121 21.556 9.75 21.125 9.75Z" fill="black"/>
<path d="M21.125 19.5H11.375C10.944 19.5 10.5307 19.6712 10.226 19.976C9.92121 20.2807 9.75 20.694 9.75 21.125C9.75 21.556 9.92121 21.9693 10.226 22.274C10.5307 22.5788 10.944 22.75 11.375 22.75H21.125C21.556 22.75 21.9693 22.5788 22.274 22.274C22.5788 21.9693 22.75 21.556 22.75 21.125C22.75 20.694 22.5788 20.2807 22.274 19.976C21.9693 19.6712 21.556 19.5 21.125 19.5Z" fill="black"/>
<path d="M21.125 29.25H11.375C10.944 29.25 10.5307 29.4212 10.226 29.726C9.92121 30.0307 9.75 30.444 9.75 30.875C9.75 31.306 9.92121 31.7193 10.226 32.024C10.5307 32.3288 10.944 32.5 11.375 32.5H21.125C21.556 32.5 21.9693 32.3288 22.274 32.024C22.5788 31.7193 22.75 31.306 22.75 30.875C22.75 30.444 22.5788 30.0307 22.274 29.726C21.9693 29.4212 21.556 29.25 21.125 29.25Z" fill="black"/>
<path d="M52 45.5H48.75C48.8346 43.1962 49.7327 40.9969 51.285 39.2925C55.25 36.335 58.5 32.89 58.5 27.625C58.497 23.8746 57.0565 20.2681 54.4751 17.5476C51.8936 14.8271 48.3675 13.1996 44.6225 13L32.0125 0.4875C31.8161 0.255677 31.5563 0.0862428 31.265 0H4.875C3.58207 0 2.34209 0.513615 1.42785 1.42785C0.513615 2.34209 0 3.58207 0 4.875V60.125C0 61.4179 0.513615 62.6579 1.42785 63.5721C2.34209 64.4864 3.58207 65 4.875 65H40.625C41.9179 65 43.1579 64.4864 44.0721 63.5721C44.9864 62.6579 45.5 61.4179 45.5 60.125V58.5H56.875C57.306 58.5 57.7193 58.3288 58.024 58.024C58.3288 57.7193 58.5 57.306 58.5 56.875V52C58.5 50.2761 57.8152 48.6228 56.5962 47.4038C55.3772 46.1848 53.7239 45.5 52 45.5ZM55.25 27.625C55.0281 29.4942 54.383 31.2883 53.3637 32.8708C52.3444 34.4532 50.9777 35.7825 49.3675 36.7575C46.9952 39.0612 45.6089 42.1951 45.5 45.5H42.25C42.167 42.2089 40.8164 39.0769 38.48 36.7575C36.8517 35.7934 35.466 34.4689 34.4293 32.8858C33.3927 31.3027 32.7327 29.503 32.5 27.625C32.5 24.6082 33.6984 21.7149 35.8317 19.5817C37.9649 17.4484 40.8582 16.25 43.875 16.25C46.8918 16.25 49.7851 17.4484 51.9183 19.5817C54.0516 21.7149 55.25 24.6082 55.25 27.625ZM39.9425 13H32.5V5.5575L39.9425 13ZM42.25 60.125C42.25 60.556 42.0788 60.9693 41.774 61.274C41.4693 61.5788 41.056 61.75 40.625 61.75H4.875C4.44402 61.75 4.0307 61.5788 3.72595 61.274C3.42121 60.9693 3.25 60.556 3.25 60.125V4.875C3.25 4.44402 3.42121 4.0307 3.72595 3.72595C4.0307 3.42121 4.44402 3.25 4.875 3.25H29.25V14.625C29.25 15.056 29.4212 15.4693 29.726 15.774C30.0307 16.0788 30.444 16.25 30.875 16.25H34.8075C33.081 17.6021 31.6839 19.3284 30.7212 21.2987C29.7586 23.269 29.2556 25.4321 29.25 27.625C29.25 32.89 32.6625 36.335 36.3675 39.2925C37.9342 40.9964 38.8641 43.1893 39 45.5H35.75C34.0261 45.5 32.3728 46.1848 31.1538 47.4038C29.9348 48.6228 29.25 50.2761 29.25 52V56.875C29.25 57.306 29.4212 57.7193 29.726 58.024C30.0307 58.3288 30.444 58.5 30.875 58.5H42.25V60.125ZM55.25 55.25H32.5V52C32.5 51.138 32.8424 50.3114 33.4519 49.7019C34.0614 49.0924 34.888 48.75 35.75 48.75H52C52.862 48.75 53.6886 49.0924 54.2981 49.7019C54.9076 50.3114 55.25 51.138 55.25 52V55.25Z" fill="black"/>
<path d="M16.25 39C14.9644 39 13.7077 39.3812 12.6388 40.0954C11.5699 40.8097 10.7368 41.8248 10.2448 43.0126C9.75282 44.2003 9.62409 45.5072 9.8749 46.7681C10.1257 48.029 10.7448 49.1872 11.6538 50.0962C12.5629 51.0052 13.721 51.6243 14.9819 51.8751C16.2428 52.1259 17.5497 51.9972 18.7374 51.5052C19.9252 51.0132 20.9403 50.1801 21.6546 49.1112C22.3688 48.0423 22.75 46.7856 22.75 45.5C22.75 43.7761 22.0652 42.1228 20.8462 40.9038C19.6272 39.6848 17.9739 39 16.25 39ZM16.25 48.75C15.6072 48.75 14.9789 48.5594 14.4444 48.2023C13.9099 47.8452 13.4934 47.3376 13.2474 46.7437C13.0014 46.1499 12.937 45.4964 13.0625 44.866C13.1879 44.2355 13.4974 43.6564 13.9519 43.2019C14.4064 42.7474 14.9855 42.4378 15.616 42.3124C16.2464 42.187 16.8999 42.2514 17.4937 42.4974C18.0876 42.7434 18.5952 43.1599 18.9523 43.6944C19.3094 44.2289 19.5 44.8572 19.5 45.5C19.5 46.362 19.1576 47.1886 18.5481 47.7981C17.9386 48.4076 17.112 48.75 16.25 48.75Z" fill="#CC4051"/>
</g>
<defs>
<clipPath id="clip0">
<rect width="58.5" height="65" fill="white"/>
</clipPath>
</defs>
</svg>
