<svg width="50" height="50" viewBox="0 0 50 50" fill="none" xmlns="http://www.w3.org/2000/svg">
<path d="M0 39.5833H30.2083V49.7562L36.4583 46.0062L42.7083 49.7562V39.5833H50V0H0V39.5833ZM40.901 32.5146C40.8073 32.6094 40.7073 32.6969 40.6083 32.7854C40.5521 32.8354 40.5 32.8885 40.4417 32.9365C40.3771 32.9906 40.3083 33.0365 40.2417 33.0875C39.3635 33.7594 38.3052 34.2062 37.15 34.3344C37.1312 34.3365 37.1125 34.3406 37.0927 34.3427C36.8833 34.3635 36.6708 34.375 36.4562 34.375C36.2417 34.375 36.0292 34.3635 35.8198 34.3427C35.801 34.3406 35.7823 34.3365 35.7625 34.3344C34.6073 34.2062 33.55 33.7594 32.6708 33.0875C32.6042 33.0365 32.5354 32.9896 32.4708 32.9365C32.4135 32.8885 32.3604 32.8354 32.3042 32.7854C32.2052 32.6969 32.1063 32.6094 32.0115 32.5146C30.8958 31.3854 30.2042 29.8354 30.2042 28.125C30.2042 24.6781 33.0073 21.875 36.4542 21.875C39.901 21.875 42.7042 24.6781 42.7042 28.125C42.7083 29.8344 42.0177 31.3844 40.901 32.5146ZM40.625 46.0771L36.4583 43.5771L32.2917 46.0771V39.5833V35.3438C32.3271 35.3646 32.3667 35.3781 32.4031 35.3979C32.6792 35.5521 32.9635 35.6937 33.2573 35.8167C33.2698 35.8219 33.2833 35.826 33.2969 35.8312C34.2729 36.2333 35.3396 36.4583 36.4594 36.4583C37.5792 36.4583 38.6458 36.2333 39.6219 35.8312C39.6344 35.826 39.6479 35.8219 39.6615 35.8167C39.9552 35.6937 40.2396 35.5531 40.5156 35.3979C40.5521 35.3781 40.5917 35.3646 40.6271 35.3438V39.5833V46.0771H40.625ZM2.08333 2.08333H47.9167V37.5H42.7083V33.6187C44.001 32.15 44.7917 30.2302 44.7917 28.125C44.7917 23.5302 41.0531 19.7917 36.4583 19.7917C31.8635 19.7917 28.125 23.5302 28.125 28.125C28.125 30.2302 28.9156 32.15 30.2083 33.6187V37.5H2.08333V2.08333Z" fill="black"/>
<path d="M38.5416 6.25H11.4583V8.33333H38.5416V6.25Z" fill="#D64356"/>
<path d="M33.3332 12.5H16.6665V14.5833H33.3332V12.5Z" fill="#D64356"/>
<path d="M17.7083 31.2501H6.25V33.3334H17.7083V31.2501Z" fill="black"/>
</svg>
