<svg width="52" height="60" viewBox="0 0 52 60" fill="none" xmlns="http://www.w3.org/2000/svg">
<path d="M51.1926 13.5397C51.1926 13.5274 51.1803 13.5028 51.1803 13.4905C51.1803 13.4659 51.168 13.4536 51.168 13.4291C51.168 13.4168 51.1557 13.3922 51.1557 13.3799C51.1557 13.3676 51.1434 13.343 51.1311 13.3307C51.1188 13.3184 51.1188 13.2938 51.1065 13.2815C51.0942 13.2692 51.0942 13.2446 51.0819 13.2323C51.0696 13.22 51.0696 13.1954 51.0573 13.1832C51.045 13.1586 51.0327 13.134 51.0082 13.1094C50.9959 13.0971 50.9959 13.0848 50.9836 13.0725C50.9713 13.0479 50.9467 13.0233 50.9344 13.011L40.8155 0.455164C40.7909 0.418278 40.7541 0.39369 40.7295 0.356804C40.7172 0.344509 40.7172 0.344505 40.7049 0.344505C40.6803 0.319915 40.6557 0.295328 40.6311 0.270737C40.6188 0.258442 40.6065 0.258441 40.5942 0.246146C40.5696 0.233851 40.545 0.209258 40.5205 0.196962C40.5082 0.184667 40.4959 0.184673 40.4836 0.172378C40.459 0.160083 40.4344 0.147782 40.4098 0.135487C40.3975 0.123192 40.3852 0.123198 40.3729 0.110903C40.3483 0.0986078 40.3237 0.0863067 40.2868 0.0740116C40.2746 0.0740116 40.2623 0.0617195 40.25 0.0617195C40.2254 0.0494245 40.1885 0.049423 40.1639 0.0371279C40.1516 0.0371279 40.1393 0.0248358 40.127 0.0248358C40.0901 0.0125407 40.0655 0.0125362 40.0287 0.0125362C40.0164 0.0125362 40.0041 0.0125362 39.9918 0.0125362C39.9426 0.0125362 39.9057 0.000244141 39.8565 0.000244141H7.12701C6.45078 0.000244141 5.8975 0.553648 5.8975 1.23V6.28426H2.02455C1.34832 6.28426 0.795044 6.83766 0.795044 7.51401V58.7704C0.795044 59.4467 1.34832 60.0001 2.02455 60.0001H44.959C45.6352 60.0001 46.1885 59.4467 46.1885 58.7704V53.716H49.9754C50.6516 53.716 51.2049 53.1626 51.2049 52.4862V13.7733C51.2049 13.7364 51.2049 13.6995 51.2049 13.6627C51.2049 13.6504 51.2049 13.6381 51.2049 13.6135C51.2049 13.5889 51.2049 13.5643 51.1926 13.5397ZM41.086 4.6977L47.4057 12.5436H41.086V4.6977ZM38.9836 14.5603L42.377 18.7415H36.0696V10.9694L38.8237 14.3636C38.8729 14.4374 38.9221 14.4988 38.9836 14.5603ZM8.35652 2.44721H38.627V10.207L35.7991 6.72676C35.7746 6.68987 35.7377 6.66528 35.7131 6.6284C35.7008 6.6161 35.7008 6.6161 35.6885 6.60381C35.6639 6.57922 35.6393 6.56692 35.6147 6.54233C35.6024 6.53004 35.5901 6.53004 35.5778 6.51774C35.5532 6.50545 35.5286 6.48086 35.5041 6.46856C35.4918 6.45627 35.4795 6.45627 35.4672 6.44397C35.4426 6.43168 35.418 6.41938 35.3934 6.40709C35.3811 6.39479 35.3688 6.39479 35.3565 6.39479C35.3319 6.38249 35.295 6.3702 35.2705 6.35791C35.2582 6.35791 35.2459 6.34561 35.2336 6.34561C35.209 6.33332 35.1721 6.33332 35.1475 6.32102C35.1352 6.32102 35.1229 6.30873 35.1106 6.30873C35.0737 6.29643 35.0491 6.29643 35.0123 6.29643C35 6.29643 34.9877 6.29643 34.9754 6.29643C34.9262 6.29643 34.8893 6.28414 34.8401 6.28414H8.35652V2.44721ZM3.25406 57.5405V8.73135H33.6106V19.9714C33.6106 20.6477 34.1639 21.2011 34.8401 21.2011H43.7295V57.5406H3.25406V57.5405ZM48.7459 51.2686H46.1885V51.2563V19.959C46.1885 19.9221 46.1885 19.8852 46.1885 19.8483C46.1885 19.836 46.1885 19.8237 46.1885 19.7991C46.1885 19.7745 46.1885 19.75 46.1762 19.7254C46.1762 19.7131 46.1639 19.6885 46.1639 19.6762C46.1639 19.6516 46.1516 19.6393 46.1516 19.6147C46.1516 19.5901 46.1393 19.5778 46.1393 19.5655C46.1393 19.5532 46.127 19.5286 46.1147 19.5164C46.1024 19.5041 46.1024 19.4795 46.0901 19.4672C46.0778 19.4549 46.0778 19.4303 46.0655 19.418C46.0532 19.4057 46.0532 19.3811 46.0409 19.3688C46.0287 19.3442 46.0164 19.3196 46.0041 19.3073C45.9918 19.295 45.9918 19.2827 45.9795 19.2827C45.9549 19.2582 45.9426 19.2213 45.918 19.1967L42.5246 15.0155H48.7459V51.2686Z" fill="#000"/>
<path d="M36.0697 26.2308H10.914C10.2377 26.2308 9.68445 26.7842 9.68445 27.4606C9.68445 28.1369 10.2377 28.6903 10.914 28.6903H36.0697C36.746 28.6903 37.2992 28.1369 37.2992 27.4606C37.2992 26.7842 36.746 26.2308 36.0697 26.2308Z" fill="#D64356"/>
<path d="M36.0697 33.7323H10.914C10.2377 33.7323 9.68445 34.2857 9.68445 34.9621C9.68445 35.6384 10.2377 36.1918 10.914 36.1918H36.0697C36.746 36.1918 37.2992 35.6384 37.2992 34.9621C37.2992 34.2857 36.746 33.7323 36.0697 33.7323Z" fill="#D64356"/>
<path d="M36.0697 41.2339H10.914C10.2377 41.2339 9.68445 41.7873 9.68445 42.4636C9.68445 43.14 10.2377 43.6934 10.914 43.6934H36.0697C36.746 43.6934 37.2992 43.14 37.2992 42.4636C37.2992 41.7873 36.746 41.2339 36.0697 41.2339Z" fill="#D64356"/>
<path d="M36.0697 48.7352H10.914C10.2377 48.7352 9.68445 49.2886 9.68445 49.965C9.68445 50.6413 10.2377 51.1947 10.914 51.1947H36.0697C36.746 51.1947 37.2992 50.6413 37.2992 49.965C37.2992 49.2886 36.746 48.7352 36.0697 48.7352Z" fill="#D64356"/>
</svg>
