<svg width="80" height="78" viewBox="0 0 80 78" fill="none" xmlns="http://www.w3.org/2000/svg">
<path d="M39.1057 74.8163H5.27005C9.2065 69.845 11.3385 63.6959 11.3198 57.3672V3.18367H63.5188V31.7569C63.5188 32.1527 63.6768 32.5322 63.9582 32.8121C64.2395 33.092 64.621 33.2492 65.0188 33.2492C65.4166 33.2492 65.7982 33.092 66.0795 32.8121C66.3608 32.5322 66.5188 32.1527 66.5188 31.7569V1.69132C66.5189 1.49533 66.4801 1.30125 66.4047 1.12016C66.3294 0.939081 66.2189 0.774545 66.0796 0.635958C65.9403 0.49737 65.7749 0.387447 65.5929 0.312468C65.4109 0.237489 65.2158 0.198923 65.0188 0.198975H9.81985C9.62285 0.198923 9.42777 0.237489 9.24576 0.312468C9.06375 0.387447 8.89837 0.49737 8.75907 0.635958C8.61977 0.774545 8.50929 0.939081 8.43392 1.12016C8.35856 1.30125 8.3198 1.49533 8.31985 1.69132V57.3672C8.32908 60.6903 7.67575 63.9822 6.39768 67.0524C5.1196 70.1226 3.24217 72.9101 0.874034 75.2535C0.66424 75.4622 0.521361 75.7281 0.463468 76.0176C0.405575 76.3071 0.435268 76.6071 0.548792 76.8798C0.662317 77.1525 0.854572 77.3856 1.10124 77.5495C1.34792 77.7135 1.63793 77.801 1.93459 77.801H39.1057C39.5036 77.801 39.8851 77.6438 40.1664 77.3639C40.4477 77.084 40.6057 76.7045 40.6057 76.3087C40.6057 75.9129 40.4477 75.5333 40.1664 75.2534C39.8851 74.9735 39.5036 74.8163 39.1057 74.8163Z" fill="black"/>
<path d="M54.6243 18.9961H20.2143C19.8164 18.9961 19.4349 19.1533 19.1536 19.4332C18.8723 19.7131 18.7143 20.0926 18.7143 20.4884C18.7143 20.8842 18.8723 21.2638 19.1536 21.5437C19.4349 21.8236 19.8164 21.9808 20.2143 21.9808H54.6243C55.0221 21.9808 55.4036 21.8236 55.6849 21.5437C55.9662 21.2638 56.1243 20.8842 56.1243 20.4884C56.1243 20.0926 55.9662 19.7131 55.6849 19.4332C55.4036 19.1533 55.0221 18.9961 54.6243 18.9961Z" fill="black"/>
<path d="M56.1243 30.5998C56.1243 30.4038 56.0856 30.2097 56.0102 30.0286C55.9348 29.8475 55.8243 29.683 55.6851 29.5444C55.5457 29.4058 55.3804 29.2959 55.1984 29.2209C55.0163 29.1459 54.8213 29.1074 54.6243 29.1074H20.2143C19.8164 29.1074 19.4349 29.2647 19.1536 29.5445C18.8723 29.8244 18.7143 30.204 18.7143 30.5998C18.7143 30.9956 18.8723 31.3751 19.1536 31.655C19.4349 31.9349 19.8164 32.0921 20.2143 32.0921H54.6243C54.8213 32.0922 55.0163 32.0536 55.1984 31.9786C55.3804 31.9036 55.5457 31.7937 55.6851 31.6551C55.8243 31.5165 55.9348 31.352 56.0102 31.1709C56.0856 30.9898 56.1243 30.7958 56.1243 30.5998Z" fill="black"/>
<path d="M41.1682 40.711C41.1683 40.515 41.1295 40.3209 41.0541 40.1398C40.9788 39.9587 40.8683 39.7942 40.729 39.6556C40.5897 39.517 40.4243 39.4071 40.2423 39.3321C40.0603 39.2571 39.8652 39.2186 39.6682 39.2186H20.2144C19.8165 39.2186 19.435 39.3759 19.1537 39.6557C18.8724 39.9356 18.7144 40.3152 18.7144 40.711C18.7144 41.1068 18.8724 41.4864 19.1537 41.7662C19.435 42.0461 19.8165 42.2033 20.2144 42.2033H39.6682C39.8652 42.2034 40.0603 42.1648 40.2423 42.0898C40.4243 42.0149 40.5897 41.9049 40.729 41.7663C40.8683 41.6278 40.9788 41.4632 41.0541 41.2821C41.1295 41.1011 41.1683 40.907 41.1682 40.711Z" fill="black"/>
<path d="M20.2144 49.3298C19.8165 49.3298 19.435 49.4871 19.1537 49.7669C18.8724 50.0468 18.7144 50.4264 18.7144 50.8222C18.7144 51.218 18.8724 51.5976 19.1537 51.8774C19.435 52.1573 19.8165 52.3145 20.2144 52.3145H32.4495C32.8473 52.3145 33.2288 52.1573 33.5101 51.8774C33.7914 51.5976 33.9495 51.218 33.9495 50.8222C33.9495 50.4264 33.7914 50.0468 33.5101 49.7669C33.2288 49.4871 32.8473 49.3298 32.4495 49.3298H20.2144Z" fill="black"/>
<path d="M73.8862 44.8689C71.3773 42.3683 68.2258 40.602 64.7761 39.763C61.3264 38.924 57.7113 39.0445 54.3258 40.1114C50.9403 41.1783 47.9147 43.1506 45.5797 45.8126C43.2446 48.4746 41.69 51.724 41.0857 55.2056L39.8938 54.0197C39.6125 53.7399 39.231 53.5826 38.8332 53.5826C38.4355 53.5826 38.054 53.7399 37.7727 54.0197C37.4914 54.2995 37.3334 54.6791 37.3334 55.0748C37.3334 55.4706 37.4914 55.8501 37.7727 56.13L41.2244 59.5639C41.5064 59.8431 41.888 59.9999 42.2859 59.9999C42.6838 59.9999 43.0655 59.8431 43.3475 59.5639L46.7998 56.13C47.0811 55.8501 47.2391 55.4706 47.2391 55.0748C47.2391 54.6791 47.0811 54.2995 46.7998 54.0197C46.5186 53.7399 46.1371 53.5826 45.7393 53.5826C45.3415 53.5826 44.96 53.7399 44.6787 54.0197L44.3381 54.3585C45.2604 50.8888 47.3085 47.8192 50.1643 45.6264C53.02 43.4336 56.5237 42.2403 60.1311 42.2318C63.7384 42.2234 67.2477 43.4003 70.1138 45.5797C72.9799 47.7591 75.0425 50.8191 75.9813 54.2844C76.92 57.7498 76.6824 61.4265 75.3052 64.7437C73.9281 68.0609 71.4885 70.8328 68.3654 72.6291C65.2424 74.4253 61.6105 75.1453 58.0339 74.6772C54.4573 74.2092 51.1362 72.5792 48.5862 70.0406C48.3049 69.7607 47.9235 69.6035 47.5257 69.6035C47.1279 69.6035 46.7464 69.7607 46.4651 70.0406C46.1839 70.3204 46.0258 70.6999 46.0258 71.0957C46.0258 71.4915 46.1839 71.871 46.4651 72.1508C50.1021 75.7657 55.0331 77.7956 60.174 77.7943C65.3149 77.793 70.2449 75.7605 73.88 72.1439C77.5151 68.5272 79.5578 63.6223 79.559 58.5077C79.5602 53.393 77.5197 48.4872 73.8863 44.8689H73.8862Z" fill="black"/>
<path d="M57.1419 56.3324C57.1275 56.1695 57.1178 56.0052 57.1178 55.8385C57.1178 55.2071 57.2268 54.6016 57.4193 54.0339C56.3746 53.9826 55.5382 53.1278 55.5382 52.076C55.5382 50.9909 56.4252 50.1084 57.5158 50.1084C58.349 50.1084 59.0602 50.6253 59.3511 51.3527C59.9635 50.8847 60.6728 50.539 61.4452 50.3493C60.7781 48.8484 59.2713 47.8002 57.5158 47.8002C55.1424 47.8002 53.2186 49.7142 53.2186 52.0755C53.2186 54.3113 54.9439 56.1432 57.1419 56.3324Z" fill="#D64356"/>
<path d="M50.7083 60.8149C51.6519 60.2518 52.7936 59.8092 54.0197 59.5313C54.8659 59.8996 55.7659 60.13 56.6822 60.2186C57.3094 59.9984 57.9598 59.8106 58.6264 59.6647C58.1662 59.1676 57.7942 58.5888 57.5339 57.9533C57.5293 57.9533 57.5246 57.9542 57.52 57.9542C56.3648 57.9542 55.2825 57.6464 54.344 57.1151C52.1822 57.4825 50.2718 58.2681 48.8549 59.2636C48.5808 59.4566 48.4059 59.7584 48.3882 60.0921L48.3896 63.2427C48.3576 63.8542 48.8471 64.3675 49.4627 64.3675H52.2875L52.287 63.8551V63.8187L52.2889 63.7822C52.3241 63.1134 52.6289 62.4991 53.1337 62.0597H50.7083V60.8149Z" fill="#D64356"/>
<path d="M70.4299 62.9616C69.272 62.0934 67.6209 61.4016 65.7443 61.0079C64.8633 61.4579 63.8682 61.7173 62.8114 61.7173C61.6563 61.7173 60.574 61.4094 59.6355 60.8782C57.4736 61.2456 55.5632 62.0311 54.1464 63.0267C53.8722 63.2196 53.6973 63.5215 53.6797 63.8552L53.6811 67.0057C53.6491 67.6173 54.1385 68.1305 54.7541 68.1305H69.792C70.3636 68.1305 70.8349 67.6856 70.865 67.1174L70.8688 63.8279C70.8688 63.4855 70.7041 63.1675 70.4299 62.9616ZM68.5464 65.8223H55.9997L55.9993 64.5775C56.9429 64.0144 58.0846 63.5718 59.3107 63.2939C60.4135 63.7739 61.6076 64.0246 62.811 64.0246C63.9035 64.0246 64.9626 63.8261 65.9712 63.4342C66.9547 63.6973 67.8491 64.0606 68.5473 64.4797L68.5464 65.8223Z" fill="#D64356"/>
<path d="M58.5095 55.8381C58.5095 58.1994 60.4334 60.1134 62.8068 60.1134C65.1802 60.1134 67.1041 58.1994 67.1041 55.8381C67.1041 53.4768 65.1802 51.5627 62.8068 51.5627C60.4334 51.5627 58.5095 53.4768 58.5095 55.8381ZM62.8068 53.8705C63.8975 53.8705 64.7845 54.753 64.7845 55.8381C64.7845 56.9232 63.8975 57.8057 62.8068 57.8057C61.7161 57.8057 60.8291 56.9232 60.8291 55.8381C60.8291 54.753 61.7161 53.8705 62.8068 53.8705Z" fill="#D64356"/>
</svg>
