<svg width="46" height="45" viewBox="0 0 46 45" fill="none" xmlns="http://www.w3.org/2000/svg">
<path d="M45.0386 27.3762L41.2253 24.7996V17.0699L45.0386 14.5448C45.2447 14.3902 45.3993 14.1841 45.3993 13.9264C45.3993 13.6688 45.2447 13.4111 45.0386 13.308L25.405 0.115946C25.1474 -0.0386487 24.7867 -0.0386487 24.529 0.115946L0.309129 16.2969C0.206065 16.3484 0.154534 16.3999 0.103002 16.503C0.103002 16.503 0.103002 16.503 0.103002 16.5545C-6.1135e-05 16.7091 -6.10352e-05 16.8122 -6.10352e-05 16.9668V31.138C-6.10352e-05 31.3956 0.154534 31.6533 0.36066 31.7564L19.9942 44.8454C20.1488 44.9485 20.2519 45 20.4065 45C20.5611 45 20.7157 44.9485 20.8187 44.8454L45.0901 28.6645C45.2962 28.5099 45.4508 28.3038 45.4508 28.0461C45.3993 27.7369 45.2447 27.4792 45.0386 27.3762ZM24.9928 1.71343L43.235 13.8749L40.2461 15.8331C40.0916 15.8846 39.937 15.9877 39.8339 16.0908L20.3549 29.0767L5.71995 19.3372C5.66842 19.2857 5.61689 19.2857 5.61689 19.2342L2.11274 16.9153L24.9928 1.71343ZM5.97761 21.3985L19.8911 30.6742C20.1488 30.8288 20.5095 30.8288 20.7672 30.6742L39.6793 18.049V24.3873L20.458 37.0641L5.97761 27.7884V21.3985ZM20.3549 43.2479L1.49436 30.6742V18.4097L4.48319 20.3679V28.2007C4.48319 28.4583 4.63779 28.716 4.84391 28.8706L20.0973 38.6616C20.2003 38.7647 20.3549 38.7647 20.5095 38.7647C20.6641 38.7647 20.8187 38.7131 20.9218 38.6616L40.1946 25.9848L43.235 28.0461L20.3549 43.2479Z" fill="black"/>
<path d="M21.6432 8.77334L30.8159 15.0602C30.9705 15.1633 31.1251 15.2148 31.2281 15.2148C31.4858 15.2148 31.6919 15.1117 31.8465 14.8541C32.1042 14.4933 32.0011 14.0296 31.6404 13.7719L22.5193 7.48505C22.1585 7.22739 21.6948 7.33045 21.4371 7.69117C21.1794 8.05189 21.2825 8.51568 21.6432 8.77334Z" fill="#D64356"/>
</svg>
