<svg width="60" height="61" viewBox="0 0 60 61" fill="none" xmlns="http://www.w3.org/2000/svg">
<g clip-path="url(#clip0)">
<path d="M56.4765 15.376V15.3744C56.4765 15.3709 56.476 15.3677 56.476 15.3642C56.4756 15.3235 56.4738 15.283 56.4698 15.2426C56.4678 15.2225 56.4642 15.2028 56.4613 15.1829C56.4581 15.1597 56.4552 15.1364 56.4507 15.1134C56.4456 15.0875 56.4389 15.0623 56.4324 15.037C56.428 15.0202 56.4244 15.0033 56.4195 14.9867C56.4117 14.9603 56.4022 14.9347 56.3929 14.909C56.3873 14.8935 56.3821 14.8777 56.3759 14.8624C56.3663 14.8386 56.3553 14.8158 56.3442 14.7929C56.3361 14.7757 56.3285 14.7585 56.3196 14.7416C56.3093 14.7223 56.2979 14.7034 56.2869 14.6846C56.2753 14.6651 56.2641 14.6453 56.2514 14.6263C56.2414 14.6113 56.2304 14.5968 56.2199 14.5822C56.2045 14.5608 56.1891 14.5393 56.1725 14.5188C56.1627 14.5067 56.152 14.4953 56.1417 14.4837C56.1231 14.4624 56.1046 14.441 56.0845 14.4207C56.0731 14.4093 56.061 14.3987 56.0492 14.3876C56.0293 14.369 56.0098 14.3502 55.9886 14.3326C55.9716 14.3185 55.9535 14.3056 55.9359 14.2922C55.9189 14.2794 55.9024 14.266 55.8845 14.2539C55.8525 14.232 55.8192 14.2119 55.7852 14.1927C55.7808 14.1902 55.7768 14.1873 55.7725 14.1849L55.7705 14.1838C55.7678 14.1824 55.7651 14.1809 55.7624 14.1795L30.6535 0.392694C30.2466 0.169354 29.7536 0.169354 29.3467 0.392694L4.22773 14.1845C4.2194 14.1891 4.21216 14.195 4.20384 14.1999C4.19497 14.2052 4.18537 14.2088 4.17651 14.2142C4.15678 14.2262 4.13922 14.2407 4.1204 14.2535C4.0976 14.2691 4.07461 14.2841 4.05289 14.3007C4.02683 14.3208 4.00276 14.3426 3.97832 14.3643C3.95823 14.3822 3.9376 14.3996 3.91878 14.4187C3.89543 14.4423 3.87426 14.4674 3.85272 14.4926C3.83571 14.5125 3.81797 14.5315 3.80222 14.5521C3.78159 14.5793 3.76349 14.6079 3.74503 14.6365C3.73146 14.6573 3.7168 14.6774 3.70449 14.6991C3.68657 14.7304 3.67155 14.7634 3.65616 14.7959C3.64639 14.8166 3.63517 14.8363 3.62648 14.8575C3.61019 14.8971 3.59734 14.9382 3.58486 14.9795C3.58015 14.9948 3.57363 15.0097 3.56947 15.0254C3.55427 15.0828 3.54268 15.1413 3.5349 15.2008C3.53309 15.2142 3.53364 15.2279 3.53219 15.2415C3.52784 15.2857 3.5235 15.3298 3.5235 15.3747V38.3698C3.5235 39.1195 4.13126 39.7273 4.88091 39.7273C5.63057 39.7273 6.23833 39.1195 6.23833 38.3698V17.6166L11.1303 20.1764V27.5102C11.1303 28.2598 11.738 28.8676 12.4877 28.8676C13.2373 28.8676 13.8451 28.2598 13.8451 27.5102V21.8948L20.7333 25.5865V36.5462L13.1289 32.4709C12.4683 32.1169 11.6454 32.3654 11.2913 33.026C10.9371 33.6868 11.1858 34.5095 11.8464 34.8636L21.4495 40.0101C21.65 40.1176 21.8705 40.1712 22.0907 40.1712C22.3324 40.1712 22.5736 40.1068 22.7879 39.9785C23.1975 39.7334 23.4481 39.2911 23.4481 38.8138V26.6217L28.6427 29.3398V56.6325L5.50695 44.6096C4.84182 44.2641 4.0223 44.5231 3.67644 45.1882C3.33075 45.8535 3.58974 46.6731 4.25506 47.0187L29.3741 60.0722C29.3909 60.0809 29.4085 60.087 29.4255 60.095C29.4472 60.1051 29.4687 60.1151 29.4908 60.1241C29.5245 60.1377 29.5587 60.1493 29.5931 60.1601C29.6144 60.1668 29.6354 60.1741 29.657 60.1797C29.6951 60.1896 29.7339 60.1969 29.7726 60.2034C29.7909 60.2065 29.809 60.2108 29.8274 60.2132C29.8848 60.2206 29.9424 60.2247 29.9999 60.2247C30.0575 60.2247 30.115 60.2204 30.1724 60.2132C30.1909 60.2108 30.2091 60.2065 30.2274 60.2032C30.2662 60.1967 30.3045 60.1894 30.3427 60.1795C30.3644 60.1739 30.3854 60.1665 30.407 60.1598C30.4414 60.1489 30.4754 60.1375 30.509 60.1237C30.5311 60.1149 30.5528 60.1047 30.5746 60.0946C30.5916 60.0866 30.6091 60.0805 30.626 60.0718L55.745 47.0184C56.1944 46.7847 56.4765 46.3205 56.4765 45.8139V15.3867C56.4765 15.3831 56.4765 15.3796 56.4765 15.376ZM15.7038 19.4689L25.0718 14.5391L31.3262 17.8085L22.4659 22.9829L15.7038 19.4689ZM31.3575 56.6325V29.3398L49.2712 19.9662C49.9354 19.6187 50.1921 18.7985 49.8446 18.1343C49.4971 17.4702 48.6768 17.2134 48.0126 17.5609L30.0844 26.9419L25.3145 24.4631L34.8149 18.9147C35.2414 18.6656 35.4991 18.2045 35.4875 17.7107C35.4759 17.2168 35.197 16.7683 34.7594 16.5396L25.6986 11.8031C25.3033 11.5966 24.832 11.5971 24.4376 11.8047L12.7706 17.9446L7.76152 15.3414L30.0001 3.13105L53.7617 16.1778V44.9899L31.3575 56.6325Z" fill="black"/>
<path d="M49.157 41.2843L38.4347 46.8436C37.7692 47.1887 37.5093 48.0079 37.8545 48.6734C38.0959 49.1392 38.5699 49.4062 39.0608 49.4062C39.2712 49.4062 39.4846 49.3571 39.6844 49.2536L50.4067 43.6944C51.0722 43.3492 51.3321 42.5301 50.987 41.8646C50.6418 41.1993 49.8227 40.9394 49.157 41.2843Z" fill="#CD4051"/>
<path d="M49.157 35.0355L38.4347 40.5947C37.7692 40.9398 37.5093 41.759 37.8545 42.4245C38.0959 42.8904 38.5699 43.1573 39.0608 43.1573C39.2712 43.1573 39.4846 43.1083 39.6844 43.0047L50.4067 37.4455C51.0722 37.1004 51.3321 36.2812 50.987 35.6157C50.6418 34.9502 49.8227 34.6905 49.157 35.0355Z" fill="#CD4051"/>
<path d="M49.157 28.7867L43.021 31.9681C42.3555 32.3133 42.0956 33.1324 42.4407 33.7979C42.6821 34.2638 43.1562 34.5307 43.647 34.5307C43.8575 34.5307 44.0709 34.4817 44.2707 34.3782L50.4067 31.1967C51.0722 30.8516 51.3321 30.0324 50.987 29.367C50.6417 28.7015 49.8225 28.4414 49.157 28.7867Z" fill="#CD4051"/>
</g>
<defs>
<clipPath id="clip0">
<rect width="60" height="60" fill="white" transform="translate(0 0.225098)"/>
</clipPath>
</defs>
</svg>
