<svg width="45" height="45" viewBox="0 0 45 45" fill="none" xmlns="http://www.w3.org/2000/svg">
<g clip-path="url(#clip0)">
<path d="M43.9688 45H0.931836C0.422449 45 3.05176e-05 44.5776 3.05176e-05 44.0682V0.931806C3.05176e-05 0.422419 0.422449 0 0.931836 0C1.44122 0 1.86364 0.422419 1.86364 0.931806V43.124H43.9813C44.4906 43.124 44.9131 43.5464 44.9131 44.0558C44.9131 44.5652 44.4906 45 43.9688 45Z" fill="black"/>
<path d="M5.50389 40.9995C5.26784 40.9995 5.03178 40.9125 4.85784 40.7386C4.48512 40.3783 4.48512 39.7944 4.84542 39.4216L19.7543 24.1649C19.9407 23.9785 20.1892 23.8791 20.4376 23.8791C20.6985 23.8791 20.9346 23.9909 21.1085 24.1897L25.7054 29.3333L34.1662 16.4744C34.452 16.0395 35.0235 15.9277 35.4583 16.2135C35.8932 16.4992 36.005 17.0707 35.7192 17.5056L26.5875 31.3708C26.426 31.6069 26.1651 31.7684 25.8794 31.7933C25.5936 31.8181 25.3079 31.7063 25.1215 31.4827L20.3755 26.19L6.1748 40.7262C5.98843 40.9125 5.75238 40.9995 5.50389 40.9995Z" fill="#D64356"/>
</g>
<defs>
<clipPath id="clip0">
<rect width="44.913" height="45" fill="white"/>
</clipPath>
</defs>
</svg>
