<svg width="72" height="85" viewBox="0 0 72 85" fill="none" xmlns="http://www.w3.org/2000/svg">
<path d="M64.4355 76.7742V53.4677C64.4355 49.688 61.3604 46.6129 57.5806 46.6129H54.8387V42.7166C54.8387 41.0317 54.3685 39.4263 53.5678 38.0128C55.3706 37.5782 56.7389 36.9119 56.8225 36.8708L58.7377 35.9125L57.0652 34.5731C50.8355 29.591 50.7258 22.0081 50.7258 21.9314H50.6559C50.697 21.4803 50.7258 21.0265 50.7258 20.5645V10.9677C50.7258 7.18798 47.6507 4.1129 43.871 4.1129H43.2335L42.5274 3.05315C41.2524 1.14065 39.1206 0 36.8228 0H32.9032C26.0991 0 20.5645 5.5346 20.5645 12.3387V20.5645C20.5645 21.0279 20.5933 21.4831 20.6344 21.9355H20.5645C20.5645 22.0123 20.4919 29.5608 14.2238 34.5744L12.5512 35.9139L14.4665 36.8722C14.5501 36.9133 15.9183 37.5782 17.7211 38.0142C16.9219 39.4263 16.4516 41.0317 16.4516 42.7166V46.6129H13.7097C9.92992 46.6129 6.85484 49.688 6.85484 53.4677V76.7742H0V80.8871C0 83.1547 1.84532 85 4.1129 85H67.1774C69.445 85 71.2903 83.1547 71.2903 80.8871V76.7742H64.4355ZM43.0676 46.6129L45.5394 44.141L44.4331 41.9297L48.4253 40.5985L46.5389 35.8823L47.6494 36.2991C50.309 37.2958 52.0968 39.8746 52.0968 42.7166V46.6129H43.0676ZM32.0998 46.6129L29.0878 43.6009L30.7234 40.3284L26.4898 38.9177L28.2255 34.5799L29.1824 34.2207L33.6888 46.6129H32.0998ZM47.9839 20.5645H44.9897C44.4221 18.9728 42.914 17.8226 41.129 17.8226C39.344 17.8226 37.836 18.9728 37.2684 20.5645H34.0206C33.453 18.9728 31.9449 17.8226 30.1599 17.8226C28.3749 17.8226 26.8669 18.9728 26.2993 20.5645H23.3065V18.6698L25.1381 17.754C26.8422 16.9013 28.7506 16.4516 30.6548 16.4516H35.896C37.7976 16.4516 39.6374 15.895 41.2195 14.8394L42.3437 14.0894C43.9244 15.4714 45.889 16.2789 47.9825 16.4215V20.5645H47.9839ZM42.5 21.9355C42.5 22.6923 41.8858 23.3065 41.129 23.3065C40.3723 23.3065 39.7581 22.6923 39.7581 21.9355C39.7581 21.1787 40.3723 20.5645 41.129 20.5645C41.8858 20.5645 42.5 21.1787 42.5 21.9355ZM31.5323 21.9355C31.5323 22.6923 30.9181 23.3065 30.1613 23.3065C29.4045 23.3065 28.7903 22.6923 28.7903 21.9355C28.7903 21.1787 29.4045 20.5645 30.1613 20.5645C30.9181 20.5645 31.5323 21.1787 31.5323 21.9355ZM26.3006 23.3065C26.8682 24.8981 28.3763 26.0484 30.1613 26.0484C31.9463 26.0484 33.4544 24.8981 34.0219 23.3065H37.2698C37.8373 24.8981 39.3454 26.0484 41.1304 26.0484C42.9154 26.0484 44.4235 24.8981 44.9911 23.3065H47.6685C46.4169 28.7931 41.5074 32.9032 35.6479 32.9032C29.7884 32.9032 24.879 28.7931 23.6273 23.3065H26.3006ZM38.7956 35.3079L35.6452 43.9738L32.4947 35.3093C33.5119 35.5259 34.5648 35.6452 35.6452 35.6452C36.7255 35.6452 37.7784 35.5259 38.7956 35.3079ZM42.1079 34.2207L43.0648 34.5799L44.8005 38.9177L40.5669 40.3284L42.2025 43.6009L39.1905 46.6129H37.6015L42.1079 34.2207ZM53.635 35.164C53.0304 35.3463 52.334 35.5067 51.6183 35.5876C50.7477 34.8048 49.7456 34.1549 48.6118 33.7299L45.1611 32.4357L45.1446 32.3932L45.098 32.411L44.9952 32.3727C46.6527 31.0579 48.0277 29.4045 49.0148 27.514C49.8018 29.8857 51.1878 32.6715 53.635 35.164ZM32.9032 2.74194H36.8228C38.2006 2.74194 39.4798 3.42605 40.2448 4.57355L41.7665 6.85484H43.871C46.1385 6.85484 47.9839 8.70016 47.9839 10.9677V13.6452C46.4059 13.4931 44.9362 12.8364 43.8011 11.7026L42.6741 10.5756L39.6991 12.5594C38.5694 13.3121 37.2547 13.7097 35.8974 13.7097H30.6548C28.3269 13.7097 25.9949 14.2594 23.911 15.3014L23.3065 15.6044V12.3387C23.3065 7.04815 27.6127 2.74194 32.9032 2.74194ZM22.2755 27.5153C23.2626 29.4059 24.6363 31.0579 26.2952 32.374L26.1923 32.4124L26.1457 32.3946L26.1293 32.4371L22.6799 33.7313C21.5461 34.1563 20.544 34.8061 19.672 35.589C18.9564 35.5081 18.2585 35.3477 17.6553 35.1653C20.1025 32.6715 21.4885 29.8857 22.2755 27.5153ZM19.1935 42.7166C19.1935 39.8746 20.9813 37.2958 23.6423 36.2977L24.7501 35.8823L22.8636 40.5985L26.8559 41.9297L25.7495 44.141L28.2227 46.6129H19.1935V42.7166ZM9.59677 53.4677C9.59677 51.2002 11.4421 49.3548 13.7097 49.3548H57.5806C59.8482 49.3548 61.6936 51.2002 61.6936 53.4677V76.7742H9.59677V53.4677ZM68.5484 80.8871C68.5484 81.6439 67.9342 82.2581 67.1774 82.2581H4.1129C3.35613 82.2581 2.74194 81.6439 2.74194 80.8871V79.5161H68.5484V80.8871Z" fill="#1A1A1A"/>
<path d="M35.6452 57.5806C31.8654 57.5806 28.7903 60.6557 28.7903 64.4355C28.7903 68.2152 31.8654 71.2903 35.6452 71.2903C39.4249 71.2903 42.5 68.2152 42.5 64.4355C42.5 60.6557 39.4249 57.5806 35.6452 57.5806ZM35.6452 68.5484C33.3776 68.5484 31.5323 66.7031 31.5323 64.4355C31.5323 62.1679 33.3776 60.3226 35.6452 60.3226C37.9128 60.3226 39.7581 62.1679 39.7581 64.4355C39.7581 66.7031 37.9128 68.5484 35.6452 68.5484Z" fill="#CC4051"/>
</svg>
