<svg width="50" height="50" viewBox="0 0 50 50" fill="none" xmlns="http://www.w3.org/2000/svg">
<path d="M47.7856 25.9059C47.5683 31.4671 45.361 36.5168 41.8544 40.3625C39.9067 38.5456 37.6658 37.0393 35.2094 35.9234C35.9005 32.8846 36.3119 29.493 36.3718 25.9059H47.7856ZM47.7856 24.0941H36.3718C36.302 19.8558 35.7393 15.8899 34.8062 12.4566C37.0329 11.4935 39.0858 10.2098 40.9135 8.66777C44.9627 12.6136 47.5493 18.0513 47.7856 24.0941ZM39.484 7.38436C37.904 8.68471 36.1478 9.77656 34.2545 10.6186C33.1471 7.26442 31.6622 4.54026 29.9365 2.73227C33.5034 3.51968 36.7585 5.14105 39.484 7.38436ZM32.5714 11.2872C30.4737 12.0259 28.2346 12.4668 25.906 12.5579V2.29941C28.6269 2.92101 31.0128 6.31086 32.5714 11.2872ZM25.906 14.4625C28.4139 14.3726 30.8262 13.9069 33.0896 13.1227C33.9059 16.3404 34.4016 20.0844 34.4658 24.0941H25.906V14.4625ZM25.906 25.9059H34.4672C34.4136 29.2429 34.0615 32.3953 33.4738 35.214C31.0999 34.3472 28.5567 33.8332 25.907 33.7373V25.9059H25.906ZM25.906 35.6426C28.4079 35.7403 30.8053 36.242 33.0367 37.082C31.513 42.9406 28.9141 47.0134 25.906 47.7006V35.6426ZM29.9354 47.2677C31.9258 45.1839 33.5948 41.8808 34.7346 37.802C36.8615 38.8081 38.8074 40.1321 40.5113 41.715C37.5932 44.4243 33.9645 46.3791 29.9354 47.2677ZM24.0937 47.7006C21.0856 47.0137 18.4867 42.9409 16.963 37.082C19.1947 36.242 21.5922 35.7403 24.0937 35.6426V47.7006ZM24.0937 33.7376C21.4433 33.8332 18.9001 34.3476 16.527 35.2151C15.9393 32.3964 15.5875 29.2429 15.5332 25.9059H24.0941L24.0937 33.7376ZM24.0937 24.0941H15.5329C15.5981 20.0854 16.0924 16.3418 16.9098 13.1241C19.1732 13.9076 21.5858 14.3718 24.0934 14.4625L24.0937 24.0941ZM24.0937 12.5575C21.7654 12.4665 19.5274 12.0255 17.4287 11.2868C18.9873 6.31086 21.3728 2.92101 24.0937 2.29941V12.5575ZM20.065 2.73227C18.3382 4.54026 16.8533 7.26548 15.7463 10.6186C13.8529 9.77656 12.0961 8.68471 10.5171 7.38436C13.2416 5.14105 16.4966 3.51968 20.065 2.73227ZM9.08548 8.66883C10.9146 10.2101 12.9699 11.4918 15.1949 12.4548C14.2614 15.8884 13.6995 19.8551 13.6293 24.0937H2.21441C2.45077 18.052 5.03664 12.615 9.08548 8.66883ZM2.21441 25.9059H13.6293C13.6889 29.493 14.1002 32.8843 14.7913 35.9234C12.3349 37.0393 10.0937 38.5456 8.14568 40.3625C4.63906 36.5172 2.43208 31.4671 2.21441 25.9059ZM9.48835 41.715C11.1923 40.1324 13.1382 38.8081 15.2651 37.802C16.4053 41.8808 18.0739 45.1839 20.0643 47.2677C16.0356 46.3791 12.4065 44.4243 9.48835 41.715ZM49.691 25.9059H49.7093V24.0937H49.691C49.2246 11.1683 38.8318 0.775058 25.906 0.308685V0.291046H24.0934V0.309038C11.1683 0.775411 0.775075 11.1686 0.309055 24.0941H0.29071V25.9059H0.309055C0.528483 31.9953 2.95031 37.5226 6.803 41.7147C6.79242 41.7263 6.78113 41.7376 6.77019 41.7503H6.83581C11.1602 46.4369 17.2745 49.4454 24.0937 49.692V49.7107H24.9986H25H25.0014H25.906V49.692C32.7259 49.4468 38.8402 46.4369 43.1639 41.7503H43.2299C43.2193 41.7386 43.208 41.7277 43.197 41.7147C47.0497 37.5222 49.4712 31.9949 49.691 25.9059Z" fill="black"/>
<rect x="2.09381" y="24.0283" width="45.6979" height="1.87909" fill="#CC4051"/>
</svg>
