<svg width="61" height="61" viewBox="0 0 61 61" fill="none" xmlns="http://www.w3.org/2000/svg">
<g clip-path="url(#clip0)">
<path d="M52.3135 13.5749C51.7885 12.8999 51.2135 12.2499 50.6135 11.6249C51.1135 11.3999 51.5635 11.1499 52.0135 10.8999L53.2635 13.0749C52.9635 13.2499 52.6385 13.4249 52.3135 13.5749Z" fill="black"/>
<path d="M43.3385 14.1499C46.0135 13.5249 48.4885 12.6749 50.6135 11.6249C51.2135 12.2499 51.7885 12.8999 52.3135 13.5749C49.9135 14.7999 47.1135 15.8249 44.0635 16.5749C43.8385 15.7249 43.6135 14.9249 43.3385 14.1499Z" fill="black"/>
<path d="M45.7385 30.5749C45.7385 31.0249 45.7385 31.4749 45.7135 31.8999C45.6635 32.5999 45.0385 33.0999 44.3885 33.0749C43.7135 33.0499 43.1885 32.4499 43.2135 31.7499C43.2385 31.3749 43.2385 30.9749 43.2385 30.5749C43.2385 25.6999 42.6385 21.0999 41.5635 17.0749C42.4135 16.9249 43.2385 16.7499 44.0635 16.5749C45.1385 20.7249 45.7385 25.4749 45.7385 30.5749Z" fill="black"/>
<path d="M44.0635 16.5749C43.2385 16.7499 42.4135 16.9249 41.5635 17.0749C41.3635 16.2499 41.1135 15.4499 40.8635 14.6749C41.7135 14.5249 42.5385 14.3499 43.3385 14.1499C43.6135 14.9249 43.8385 15.7249 44.0635 16.5749Z" fill="black"/>
<path d="M40.8635 14.6749C38.8135 8.42485 35.5885 4.04985 31.9885 3.22485V3.09985C33.9885 3.19985 35.9385 3.49985 37.8135 4.02485C40.0885 6.37485 41.9885 9.87485 43.3385 14.1499C42.5385 14.3499 41.7135 14.5249 40.8635 14.6749Z" fill="black"/>
<path d="M50.6136 11.6249C47.1386 7.99989 42.7136 5.34989 37.8136 4.02489C35.7386 1.82489 33.3386 0.59989 30.7886 0.57489C44.7386 0.59989 57.0386 10.4999 60.0386 24.1249C60.1886 24.7999 59.7636 25.4499 59.0886 25.5999C58.4136 25.7499 57.7386 25.3249 57.5886 24.6499C56.6886 20.5249 54.8386 16.7499 52.3136 13.5749C52.6386 13.4249 52.9636 13.2499 53.2636 13.0749L52.0136 10.8999C51.5636 11.1499 51.1136 11.3999 50.6136 11.6249Z" fill="black"/>
<path d="M41.5635 17.0749C38.5385 17.6749 35.3135 17.9999 31.9885 18.0499V15.5499C35.0635 15.4999 38.0635 15.1999 40.8635 14.6749C41.1135 15.4499 41.3635 16.2499 41.5635 17.0749Z" fill="black"/>
<path d="M30.7385 18.0749C31.1635 18.0749 31.5885 18.0749 31.9885 18.0499V26.2749C31.9885 26.9749 31.4385 27.5249 30.7385 27.5249C30.0385 27.5249 29.4885 26.9749 29.4885 26.2749V18.0499C29.8885 18.0749 30.3135 18.0749 30.7385 18.0749Z" fill="black"/>
<path d="M30.7385 18.0749C30.3135 18.0749 29.8885 18.0749 29.4885 18.0499V15.5499C29.8885 15.5749 30.3135 15.5749 30.7385 15.5749C31.1635 15.5749 31.5885 15.5749 31.9885 15.5499V18.0499C31.5885 18.0749 31.1635 18.0749 30.7385 18.0749Z" fill="black"/>
<path d="M31.9885 3.22492V15.5499C31.5885 15.5749 31.1635 15.5749 30.7385 15.5749C30.3135 15.5749 29.8885 15.5749 29.4885 15.5499V3.22492C29.8885 3.12492 30.3135 3.07492 30.7385 3.07492C30.9385 3.07492 31.1635 3.07492 31.3635 3.09992C31.5885 3.12492 31.7885 3.17492 31.9885 3.22492Z" fill="black"/>
<path d="M31.9885 3.09989V3.22489C31.7885 3.17489 31.5885 3.12489 31.3635 3.09989C31.5635 3.07489 31.7885 3.09989 31.9885 3.09989Z" fill="black"/>
<path d="M31.2885 58.8749C31.3635 59.0249 31.3885 59.1749 31.3885 59.3499C31.3885 59.3749 31.3885 59.3999 31.3635 59.4249C31.3885 59.2249 31.3385 59.0499 31.2885 58.8749Z" fill="black"/>
<path d="M31.2385 59.8749C31.2885 59.7499 31.3385 59.5749 31.3635 59.4249C31.3635 59.5999 31.3135 59.7499 31.2385 59.8749Z" fill="black"/>
<path d="M31.2885 58.8499C31.2135 58.7249 31.1385 58.5999 31.0385 58.4749C31.1635 58.5749 31.2385 58.6999 31.2885 58.8499Z" fill="black"/>
<path d="M30.7385 3.07492C30.3135 3.07492 29.9135 3.07492 29.4885 3.09992V2.44992C29.4885 1.77492 30.0385 1.19992 30.7385 1.19992C31.4385 1.19992 31.9885 1.77492 31.9885 2.44992V3.09992C31.7885 3.09992 31.5635 3.07492 31.3635 3.09992C31.1635 3.07492 30.9385 3.07492 30.7385 3.07492Z" fill="black"/>
<path d="M30.8385 58.2999C30.9385 58.3499 30.9885 58.4249 31.0385 58.4749C30.9885 58.4249 30.9135 58.3499 30.8385 58.2999Z" fill="black"/>
<path d="M31.2385 59.8749C31.1135 60.1749 30.8635 60.3999 30.5635 60.4749C30.8635 60.3499 31.0885 60.1499 31.2385 59.8749Z" fill="black"/>
<path d="M29.4885 3.09992C29.9135 3.07492 30.3135 3.07492 30.7385 3.07492C30.3135 3.07492 29.8885 3.12492 29.4885 3.22492V3.09992Z" fill="black"/>
<path d="M30.6385 58.1749C30.5385 58.1249 30.4135 58.0999 30.2885 58.0749C30.4135 58.0999 30.5385 58.1249 30.6385 58.1749Z" fill="black"/>
<path d="M31.2385 59.8749C31.0885 60.1499 30.8635 60.3499 30.5635 60.4749C30.4385 60.5249 30.2885 60.5499 30.1135 60.5499C30.0635 60.5499 30.0385 60.5499 29.9885 60.5499C27.7135 60.3249 25.5635 59.1749 23.6635 57.1499C25.7385 57.6999 27.9135 58.0249 30.1635 58.0749H30.2385C30.2385 58.0749 30.2635 58.0749 30.2885 58.0749C30.4135 58.0999 30.5385 58.1249 30.6385 58.1749C30.7135 58.1999 30.7635 58.2499 30.8385 58.2999C30.9135 58.3499 30.9885 58.4249 31.0385 58.4749C31.1385 58.5999 31.2135 58.7249 31.2885 58.8499C31.2885 58.8499 31.2635 58.8749 31.2885 58.8749C31.3385 59.0499 31.3885 59.2249 31.3635 59.4249C31.3385 59.5749 31.2885 59.7499 31.2385 59.8749Z" fill="black"/>
<path d="M30.7385 1.19989C30.0385 1.19989 29.4885 1.77489 29.4885 2.44989V3.09989C27.4885 3.19989 25.5635 3.49989 23.6885 3.99989C25.7885 1.79989 28.1635 0.57489 30.7385 0.57489H30.7885C33.3385 0.59989 35.7385 1.82489 37.8135 4.02489C35.9385 3.49989 33.9885 3.19989 31.9885 3.09989V2.44989C31.9885 1.77489 31.4385 1.19989 30.7385 1.19989Z" fill="black"/>
<path d="M27.6385 30.5749C27.6385 31.2749 27.0885 31.8249 26.3885 31.8249H18.2635C18.2385 31.4249 18.2385 30.9999 18.2385 30.5749C18.2385 30.1499 18.2385 29.7499 18.2635 29.3249H26.3885C27.0885 29.3249 27.6385 29.8999 27.6385 30.5749Z" fill="black"/>
<path d="M26.2635 43.0749L34.4885 51.3249V46.8249C34.4885 46.1499 35.0385 45.5749 35.7385 45.5749H46.9885C51.6135 45.5749 55.6135 42.7749 57.3385 38.7499C55.8635 39.8999 53.9885 40.5749 51.9885 40.5749H35.7385C35.0385 40.5749 34.4885 40.0249 34.4885 39.3249V34.8499L26.2635 43.0749ZM23.6135 43.9749C23.1135 43.4749 23.1135 42.6999 23.6135 42.1999L34.8635 30.9499C35.2135 30.5999 35.7635 30.4749 36.2135 30.6749C36.6885 30.8749 36.9885 31.3249 36.9885 31.8249V38.0749H51.9885C55.4385 38.0749 58.2385 35.2749 58.2385 31.8249C58.2385 31.1499 58.7885 30.5749 59.4885 30.5749C60.1885 30.5749 60.7385 31.1499 60.7385 31.8249V34.3249C60.7385 41.9249 54.5635 48.0749 46.9885 48.0749H36.9885V54.3249C36.9885 54.8499 36.6885 55.2999 36.2135 55.4999C36.0635 55.5499 35.8885 55.5749 35.7385 55.5749C35.4135 55.5749 35.0885 55.4499 34.8635 55.2249L23.6135 43.9749Z" fill="#CD4051"/>
<path d="M20.6135 14.6749C23.4135 15.1999 26.4135 15.4999 29.4885 15.5499V18.0499C26.1635 17.9999 22.9385 17.6749 19.9135 17.0749C20.1135 16.2499 20.3635 15.4499 20.6135 14.6749Z" fill="black"/>
<path d="M21.6385 49.1999C23.8385 54.4749 26.9385 57.6999 30.1635 58.0749C27.9135 58.0249 25.7385 57.6999 23.6635 57.1499C22.0135 55.4249 20.5635 53.0749 19.3385 50.1749C19.0635 49.5249 19.3635 48.7999 20.0135 48.5249C20.6385 48.2749 21.3885 48.5749 21.6385 49.1999Z" fill="black"/>
<path d="M29.4886 3.22485C25.8885 4.04985 22.6635 8.42485 20.6135 14.6749C19.7635 14.5249 18.9385 14.3499 18.1385 14.1499C19.5135 9.84985 21.4136 6.34985 23.6886 3.99985C25.5636 3.49985 27.4885 3.19985 29.4886 3.09985V3.22485Z" fill="black"/>
<path d="M18.1385 14.1499C18.9385 14.3499 19.7635 14.5249 20.6135 14.6749C20.3635 15.4499 20.1135 16.2499 19.9135 17.0749C19.0635 16.9249 18.2385 16.7499 17.4135 16.5749C17.6385 15.7249 17.8635 14.9249 18.1385 14.1499Z" fill="black"/>
<path d="M18.9635 39.6499C19.0885 40.3249 18.6385 40.9749 17.9635 41.0999C17.8885 41.0999 17.8135 41.0999 17.7385 41.0999C17.1385 41.0999 16.6135 40.6749 16.5135 40.0749C16.0635 37.4999 15.8135 34.7249 15.7635 31.8249H18.2635C18.3135 34.5749 18.5385 37.1999 18.9635 39.6499Z" fill="black"/>
<path d="M19.9135 17.0749C18.9385 20.7499 18.3385 24.9249 18.2635 29.3249H15.7635C15.8385 24.6999 16.4385 20.3749 17.4135 16.5749C18.2385 16.7499 19.0635 16.9249 19.9135 17.0749Z" fill="black"/>
<path d="M18.2385 30.5749C18.2385 30.9999 18.2385 31.4249 18.2635 31.8249H15.7635C15.7385 31.4249 15.7385 30.9999 15.7385 30.5749C15.7385 30.1499 15.7385 29.7499 15.7635 29.3249H18.2635C18.2385 29.7499 18.2385 30.1499 18.2385 30.5749Z" fill="black"/>
<path d="M18.1385 14.1499C17.8636 14.9249 17.6385 15.7249 17.4136 16.5749C14.3386 15.8249 11.5385 14.8249 9.13855 13.5749C9.66355 12.8999 10.2385 12.2499 10.8385 11.6249C12.9636 12.6499 15.4385 13.4999 18.1385 14.1499Z" fill="black"/>
<path d="M15.7635 29.3249C15.7385 29.7499 15.7385 30.1499 15.7385 30.5749C15.7385 30.9999 15.7385 31.4249 15.7635 31.8249H3.26353C3.23853 31.3999 3.23853 30.9999 3.23853 30.5749C3.23853 30.1499 3.23853 29.7249 3.26353 29.3249H15.7635Z" fill="black"/>
<path d="M17.8135 47.0749C15.2135 47.7249 12.8885 48.5249 10.8885 49.5249C10.2885 48.8999 9.71354 48.2499 9.18854 47.5999C11.4885 46.3749 14.1885 45.3999 17.2135 44.6499C17.8885 44.4749 18.5635 44.8999 18.7385 45.5499C18.8885 46.2249 18.4885 46.8999 17.8135 47.0749Z" fill="black"/>
<path d="M10.8885 49.5249C14.3135 53.1249 18.7135 55.8249 23.6635 57.1499C25.5635 59.1749 27.7135 60.3249 29.9885 60.5499H30.1135C30.2885 60.5499 30.4385 60.5249 30.5635 60.4749C30.4385 60.5499 30.2885 60.5749 30.1385 60.5749H30.1135C21.3635 60.3999 13.4885 56.3999 8.11353 50.1749C8.31353 50.3499 8.58853 50.4249 8.83853 50.4249C9.06353 50.4249 9.26353 50.3749 9.46353 50.2749C9.91353 50.0249 10.3885 49.7499 10.8885 49.5249Z" fill="black"/>
<path d="M9.4635 10.8999C9.8885 11.1499 10.3635 11.3749 10.8385 11.6249C10.2385 12.2499 9.6635 12.8999 9.1385 13.5749C8.8135 13.3999 8.5135 13.2499 8.2135 13.0749L9.4635 10.8999Z" fill="black"/>
<path d="M9.18853 47.5999C9.71353 48.2499 10.2885 48.8999 10.8885 49.5249C10.3885 49.7499 9.91353 50.0249 9.46353 50.2749C9.26353 50.3749 9.06353 50.4249 8.83853 50.4249C8.58853 50.4249 8.31353 50.3499 8.11353 50.1749C8.01353 50.0749 7.88853 49.9499 7.76353 49.7999C7.76353 49.7749 7.73853 49.7749 7.73853 49.7499C7.41353 49.1499 7.63853 48.4499 8.21353 48.0999C8.53853 47.9249 8.86353 47.7499 9.18853 47.5999Z" fill="black"/>
<path d="M7.76355 49.7999C7.88855 49.9499 8.01355 50.0749 8.11355 50.1749C7.96355 50.0749 7.83855 49.9499 7.76355 49.7999Z" fill="black"/>
<path d="M3.23853 30.5749C3.23853 30.9999 3.23853 31.3999 3.26353 31.8249H2.61353C1.91353 31.8249 1.36353 31.2749 1.36353 30.5749C1.36353 29.8999 1.91353 29.3249 2.61353 29.3249H3.26353C3.23853 29.7249 3.23853 30.1499 3.23853 30.5749Z" fill="black"/>
<path d="M0.738525 30.5749C0.738525 14.0499 14.1885 0.57489 30.7385 0.57489C28.1635 0.57489 25.7885 1.79989 23.6885 3.99989C18.7135 5.29989 14.2885 7.99989 10.8385 11.6249C10.3635 11.3749 9.88853 11.1499 9.46353 10.8999L8.21353 13.0749C8.51353 13.2499 8.81353 13.3999 9.13853 13.5749C5.68853 17.9499 3.53853 23.3749 3.26353 29.3249H2.61353C1.91353 29.3249 1.36353 29.8999 1.36353 30.5749C1.36353 31.2749 1.91353 31.8249 2.61353 31.8249H3.26353C3.53853 37.7249 5.71353 43.1999 9.18853 47.5999C8.86353 47.7499 8.53853 47.9249 8.21353 48.0999C7.63853 48.4499 7.41353 49.1499 7.73853 49.7499C3.38853 44.5499 0.738525 37.8499 0.738525 30.5749H0.738525Z" fill="black"/>
</g>
<defs>
<clipPath id="clip0">
<rect width="60" height="60" fill="white" transform="translate(0.738525 0.582367)"/>
</clipPath>
</defs>
</svg>
