<svg width="54" height="55" viewBox="0 0 54 55" fill="none" xmlns="http://www.w3.org/2000/svg">
<g clip-path="url(#clip0)">
<path d="M50.1667 48.7498H48.9167V47.4998C48.9167 46.9165 48.4167 46.4165 47.8333 46.4165H44.25V34.5832H45.5C47.4167 34.5832 48.9167 33.0832 48.9167 31.1665C48.9167 29.2498 47.4167 27.7498 45.5 27.7498H44.1667V27.6665C43.6667 19.8332 37.9167 13.2498 30.0833 11.6665C29.8333 10.5832 29 9.6665 27.8333 9.1665V6.6665H25.5833V9.24984C24.5 9.6665 23.6667 10.4998 23.3333 11.6665C15.5833 13.1665 9.83333 19.7498 9.33333 27.5832V27.6665H8.08333C6.16667 27.6665 4.66667 29.1665 4.66667 31.0832C4.66667 32.9998 6.16667 34.4998 8.08333 34.4998H9.33333V46.4165H5.75C5.16667 46.4165 4.66667 46.9165 4.66667 47.4998V48.7498H3.41667C1.5 48.7498 0 50.2498 0 52.1665V54.4998C0 55.0832 0.5 55.5832 1.08333 55.5832H52.5C53.0833 55.5832 53.5833 55.0832 53.5833 54.4998V52.1665C53.5833 50.2498 52 48.7498 50.1667 48.7498ZM11.5833 27.6665C12.1667 19.7498 18.8333 13.5832 26.75 13.5832C34.6667 13.5832 41.4167 19.7498 42 27.6665V27.7498L11.5833 27.6665ZM8.08333 32.4165C7.41667 32.4165 6.83333 31.8332 6.83333 31.1665C6.83333 30.4998 7.41667 29.9165 8.08333 29.9165H45.4167C46.0833 29.9165 46.6667 30.4998 46.6667 31.1665C46.6667 31.8332 46.0833 32.4165 45.4167 32.4165H8.08333ZM42 34.5832V46.4165H39.5V34.5832H42ZM37.3333 34.5832V46.4165H34.8333V34.5832H37.3333ZM32.6667 34.5832V46.4165H30.1667V34.5832H32.6667ZM28 34.5832V46.4165H25.5V34.5832H28ZM23.3333 34.5832V46.4165H20.8333V34.5832H23.3333ZM18.6667 34.5832V46.4165H16.1667V34.5832H18.6667ZM14 34.5832V46.4165H11.5V34.5832H14ZM51.3333 53.4165H2.16667V52.1665C2.16667 51.4998 2.75 50.9165 3.41667 50.9165H5.75C6.33333 50.9165 6.83333 50.4165 6.83333 49.8332V48.5832H46.6667V49.8332C46.6667 50.4165 47.1667 50.9165 47.75 50.9165H50.0833C50.75 50.9165 51.3333 51.4998 51.3333 52.1665V53.4165Z" fill="black"/>
<path d="M28.0833 6.91667L34 6.83333C34.4167 6.83333 34.8333 6.58333 35 6.16667C35.1667 5.75 35.0833 5.33333 34.75 5L33.1667 3.41667L34.75 1.83333C35.0833 1.5 35.1667 1.08333 35 0.666667C34.8333 0.25 34.4167 0 33.9167 0H26.9167C26.3333 0 25.8333 0.5 25.8333 1.08333V6.91667H28.0833ZM28.0833 2.16667H31.3333L30.9167 2.58333C30.75 2.75 30.5833 3.08333 30.5833 3.33333C30.5833 3.66667 30.6667 3.91667 30.9167 4.08333L31.3333 4.5H28.0833V2.16667Z" fill="#D64356"/>
</g>
<defs>
<clipPath id="clip0">
<rect width="53.3333" height="55" fill="white"/>
</clipPath>
</defs>
</svg>
