<svg width="45" height="45" viewBox="0 0 45 45" fill="none" xmlns="http://www.w3.org/2000/svg">
<g clip-path="url(#clip0)">
<path d="M3.37459 0H41.6198C42.5148 0 43.3732 0.355535 44.006 0.988392C44.6389 1.62125 44.9944 2.47959 44.9944 3.37458V28.1215C44.9944 29.0165 44.6389 29.8748 44.006 30.5077C43.3732 31.1406 42.5148 31.4961 41.6198 31.4961H32.1935L38.1328 43.3746C38.2586 43.6439 38.275 43.9516 38.1784 44.2328C38.0819 44.5139 37.88 44.7467 37.6153 44.8819C37.4601 44.9538 37.2915 44.9922 37.1204 44.9944C36.8909 45.0174 36.66 44.9693 36.4588 44.8566C36.2576 44.7439 36.0959 44.5721 35.9955 44.3645L33.0484 38.2452H11.946L8.88641 44.3645C8.79364 44.5538 8.64955 44.7132 8.47055 44.8246C8.29155 44.936 8.08485 44.9948 7.87403 44.9944C7.70297 44.9922 7.53431 44.9538 7.37909 44.8819C7.11438 44.7467 6.9125 44.5139 6.81598 44.2328C6.71946 43.9516 6.73583 43.6439 6.86165 43.3746L12.8009 31.4961H3.37459C2.4796 31.4961 1.62126 31.1406 0.988403 30.5077C0.355545 29.8748 7.62939e-06 29.0165 7.62939e-06 28.1215V3.37458C7.62939e-06 2.47959 0.355545 1.62125 0.988403 0.988392C1.62126 0.355535 2.4796 0 3.37459 0ZM31.9235 35.9955L29.6738 31.4961H15.3206L13.0709 35.9955H31.9235ZM2.24973 28.1215C2.24973 28.4198 2.36824 28.7059 2.57919 28.9169C2.79015 29.1279 3.07626 29.2464 3.37459 29.2464H41.6198C41.9182 29.2464 42.2043 29.1279 42.4152 28.9169C42.6262 28.7059 42.7447 28.4198 42.7447 28.1215V3.37458C42.7447 3.07625 42.6262 2.79014 42.4152 2.57918C42.2043 2.36823 41.9182 2.24972 41.6198 2.24972H3.37459C3.07626 2.24972 2.79015 2.36823 2.57919 2.57918C2.36824 2.79014 2.24973 3.07625 2.24973 3.37458V28.1215Z" fill="black"/>
<path d="M8.66145 7.08665L19.1227 17.5254L25.0844 11.5861C25.1854 11.4785 25.3074 11.3927 25.4428 11.3341C25.5782 11.2755 25.7242 11.2452 25.8718 11.2452C26.0194 11.2452 26.1654 11.2755 26.3008 11.3341C26.4362 11.3927 26.5582 11.4785 26.6592 11.5861L37.9078 22.8347C38.0154 22.9357 38.1012 23.0577 38.1598 23.1931C38.2184 23.3285 38.2487 23.4745 38.2487 23.6221C38.2487 23.7697 38.2184 23.9157 38.1598 24.0511C38.1012 24.1865 38.0154 24.3085 37.9078 24.4095C37.8068 24.5171 37.6848 24.6029 37.5494 24.6615C37.414 24.7201 37.268 24.7504 37.1204 24.7504C36.9728 24.7504 36.8268 24.7201 36.6914 24.6615C36.556 24.6029 36.434 24.5171 36.333 24.4095L25.8718 13.9708L19.9101 19.9101C19.8091 20.0177 19.6871 20.1034 19.5517 20.1621C19.4162 20.2207 19.2702 20.2509 19.1227 20.2509C18.9751 20.2509 18.8291 20.2207 18.6936 20.1621C18.5582 20.1034 18.4362 20.0177 18.3352 19.9101L7.08665 8.66145C6.87781 8.45262 6.76049 8.16939 6.76049 7.87405C6.76049 7.57872 6.87781 7.29548 7.08665 7.08665C7.29548 6.87782 7.57871 6.7605 7.87405 6.7605C8.16938 6.7605 8.45262 6.87782 8.66145 7.08665Z" fill="#CD4051"/>
</g>
<defs>
<clipPath id="clip0">
<rect width="44.9944" height="45" fill="white" transform="matrix(-1 0 0 1 44.9944 0)"/>
</clipPath>
</defs>
</svg>
