<svg width="50" height="50" viewBox="0 0 50 50" fill="none" xmlns="http://www.w3.org/2000/svg">
<path d="M48.7266 47.5014H44.9787V18.7674C44.9787 18.4361 44.8471 18.1183 44.6128 17.884C44.3785 17.6497 44.0607 17.5181 43.7294 17.5181H36.2336C35.9022 17.5181 35.5845 17.6497 35.3502 17.884C35.1159 18.1183 34.9843 18.4361 34.9843 18.7674V47.5014H29.9871V28.7619C29.9871 28.4305 29.8554 28.1128 29.6211 27.8785C29.3869 27.6442 29.0691 27.5126 28.7378 27.5126H21.2419C20.9106 27.5126 20.5928 27.6442 20.3585 27.8785C20.1243 28.1128 19.9926 28.4305 19.9926 28.7619V47.5014H14.9954V31.2605C14.9954 30.9291 14.8638 30.6114 14.6295 30.3771C14.3952 30.1428 14.0775 30.0112 13.7461 30.0112H6.2503C5.91896 30.0112 5.6012 30.1428 5.36691 30.3771C5.13262 30.6114 5.001 30.9291 5.001 31.2605V47.5014H1.25309C0.921751 47.5014 0.603987 47.633 0.369697 47.8673C0.135407 48.1016 0.00378418 48.4194 0.00378418 48.7507C0.00378418 49.082 0.135407 49.3998 0.369697 49.6341C0.603987 49.8684 0.921751 50 1.25309 50H48.7266C49.0579 50 49.3757 49.8684 49.61 49.6341C49.8443 49.3998 49.9759 49.082 49.9759 48.7507C49.9759 48.4194 49.8443 48.1016 49.61 47.8673C49.3757 47.633 49.0579 47.5014 48.7266 47.5014ZM12.4968 47.5014H7.4996V32.5098H12.4968V47.5014ZM27.4885 47.5014H22.4912V30.0112H27.4885V47.5014ZM42.4801 47.5014H37.4829V20.0167H42.4801V47.5014Z" fill="black"/>
<path d="M1.2531 27.5125C1.41695 27.5145 1.5794 27.4822 1.73001 27.4177C1.88062 27.3531 2.01606 27.2578 2.12761 27.1378L13.8711 15.4193L22.991 22.2655C23.2299 22.4475 23.5274 22.5353 23.8268 22.5123C24.1263 22.4892 24.4068 22.3569 24.6151 22.1405L42.4801 4.3005V8.773C42.4801 9.10434 42.6117 9.4221 42.846 9.65639C43.0803 9.89068 43.3981 10.0223 43.7294 10.0223C44.0607 10.0223 44.3785 9.89068 44.6128 9.65639C44.8471 9.4221 44.9787 9.10434 44.9787 8.773V1.27718C45.0159 1.12112 45.0159 0.958509 44.9787 0.802447C44.9153 0.623871 44.8129 0.461681 44.6789 0.327688C44.5449 0.193695 44.3827 0.0912726 44.2041 0.0278793C44.0481 -0.00929309 43.8855 -0.00929309 43.7294 0.0278793H36.2336C35.9022 0.0278793 35.5845 0.159502 35.3502 0.393792C35.1159 0.628082 34.9843 0.945846 34.9843 1.27718C34.9843 1.60852 35.1159 1.92628 35.3502 2.16057C35.5845 2.39486 35.9022 2.52649 36.2336 2.52649H40.7061L23.6156 19.617L14.4957 12.7708C14.2568 12.5888 13.9593 12.5009 13.6599 12.524C13.3604 12.547 13.0799 12.6793 12.8716 12.8957L0.378586 25.3887C0.259075 25.5009 0.163823 25.6364 0.0987083 25.7868C0.0335941 25.9372 0 26.0993 0 26.2632C0 26.4271 0.0335941 26.5893 0.0987083 26.7397C0.163823 26.8901 0.259075 27.0256 0.378586 27.1378C0.490138 27.2578 0.625574 27.3531 0.776185 27.4177C0.926797 27.4822 1.08925 27.5145 1.2531 27.5125Z" fill="#CC4051"/>
</svg>
