<svg width="38" height="55" viewBox="0 0 38 55" fill="none" xmlns="http://www.w3.org/2000/svg">
<g clip-path="url(#clip0)">
<path d="M16.4072 52.4693L13.8669 49.6718C13.7047 49.4899 13.584 49.2749 13.5132 49.0417C13.4424 48.8085 13.4232 48.5627 13.4569 48.3213L15.7882 34.5669L15.0727 33.4817L16.793 32.2598L17.4683 33.2727H19.1323L19.8076 32.2598L21.5359 33.4817L20.8044 34.5669L23.1276 48.2972C23.1661 48.543 23.1501 48.7943 23.0806 49.0333C23.0112 49.2722 22.89 49.493 22.7257 49.6798L20.1854 52.4773L16.4072 52.4693ZM18.2963 51.4082L21.0054 48.4258L18.8027 35.3708H17.7899L15.5872 48.4178L18.2963 51.4082Z" fill="#D64356"/>
<path d="M2.27498 54.0368C1.67162 54.0368 1.09297 53.7971 0.666326 53.3705C0.239685 52.9438 3.71242e-08 52.3652 3.71242e-08 51.7618V35.435C-0.000141743 34.0313 0.405821 32.6575 1.16893 31.4793C1.93204 30.3011 3.01971 29.3689 4.30076 28.795L13.5052 25.2338V23.4733C11.9553 22.297 10.9164 20.5704 10.6032 18.65C9.89023 18.562 9.21909 18.2656 8.67386 17.7979C8.28231 17.4601 7.96828 17.0417 7.75324 16.5714C7.5382 16.1011 7.42721 15.5899 7.42785 15.0727C7.4274 14.2691 7.71228 13.4914 8.23173 12.8782V9.98419C8.23173 8.67305 8.48998 7.37474 8.99173 6.16341C9.49348 4.95207 10.2289 3.85142 11.156 2.9243C12.0831 1.99718 13.1838 1.26175 14.3951 0.760001C15.6065 0.258249 16.9048 0 18.2159 0C19.5271 0 20.8254 0.258249 22.0367 0.760001C23.248 1.26175 24.3487 1.99718 25.2758 2.9243C26.2029 3.85142 26.9384 4.95207 27.4401 6.16341C27.9419 7.37474 28.2001 8.67305 28.2001 9.98419V12.7897C28.7916 13.5168 29.0762 14.4459 28.9937 15.3795C28.9111 16.3132 28.4678 17.1778 27.758 17.7899C27.2127 18.2576 26.5416 18.554 25.8287 18.642C25.532 20.4983 24.5548 22.1776 23.0874 23.3527V25.2338L32.2758 28.795C33.5657 29.3617 34.6621 30.2926 35.4303 31.4736C36.1986 32.6546 36.6054 34.0342 36.6007 35.4431V51.7618C36.6007 52.3652 36.361 52.9438 35.9343 53.3705C35.5077 53.7971 34.929 54.0368 34.3257 54.0368H2.27498ZM34.3257 51.9226C34.3468 51.9226 34.3677 51.9184 34.3872 51.9104C34.4067 51.9023 34.4244 51.8904 34.4394 51.8755C34.4543 51.8606 34.4661 51.8429 34.4742 51.8234C34.4823 51.8038 34.4864 51.7829 34.4864 51.7618V35.4431C34.4836 34.4577 34.2001 33.4935 33.669 32.6635C33.138 31.8335 32.3814 31.172 31.488 30.7564L26.102 28.6664L23.7386 33.3932C23.6054 33.669 23.3961 33.901 23.1355 34.0619C22.8749 34.2229 22.5737 34.306 22.2675 34.3016C21.8345 34.2916 21.419 34.1294 21.0938 33.8433L18.2883 31.8497L15.4908 33.8433C15.1653 34.1288 14.7499 34.2909 14.3171 34.3016C14.0144 34.3037 13.7173 34.2203 13.4599 34.061C13.2025 33.9017 12.9953 33.673 12.8621 33.4012L10.4504 28.6664L5.0564 30.7564C4.16658 31.1729 3.41363 31.834 2.88553 32.6625C2.35742 33.4909 2.07595 34.4526 2.07401 35.435V51.7618C2.07401 51.7829 2.07817 51.8038 2.08625 51.8234C2.09433 51.8429 2.10617 51.8606 2.1211 51.8755C2.13603 51.8904 2.15375 51.9023 2.17326 51.9104C2.19277 51.9184 2.21367 51.9226 2.23479 51.9226H6.1738V36.7614C6.1738 36.4811 6.28517 36.2122 6.48342 36.0139C6.68166 35.8157 6.95054 35.7043 7.2309 35.7043C7.51126 35.7043 7.78014 35.8157 7.97838 36.0139C8.17663 36.2122 8.288 36.4811 8.288 36.7614V51.9226H28.2725V36.7614C28.2725 36.4811 28.3838 36.2122 28.5821 36.0139C28.7803 35.8157 29.0492 35.7043 29.3296 35.7043C29.6099 35.7043 29.8788 35.8157 30.077 36.0139C30.2753 36.2122 30.3867 36.4811 30.3867 36.7614V51.9226H34.3257ZM22.0987 31.9623L24.1164 27.9027L22.3559 27.2194L19.8156 30.3465L22.0987 31.9623ZM14.502 31.9623L16.7689 30.3545L14.2287 27.2194L12.4682 27.9027L14.502 31.9623ZM18.3043 28.8754L20.9732 25.5795V24.5585C20.1213 24.8727 19.2204 25.0333 18.3124 25.0328C17.3966 25.0339 16.4868 24.8846 15.6194 24.5907V25.5714L18.3043 28.8754ZM12.6209 17.4281C12.7691 18.8086 13.4225 20.0855 14.4553 21.0134C15.4881 21.9413 16.8275 22.4546 18.2159 22.4546C19.6043 22.4546 20.9437 21.9413 21.9765 21.0134C23.0094 20.0855 23.6627 18.8086 23.8109 17.4281V11.801C23.6582 11.6241 23.3688 11.3186 22.9267 10.8443L22.1228 9.95203C19.4517 11.6184 16.372 12.5142 13.2238 12.5405H12.6209V17.4281ZM25.9251 16.4554C26.0892 16.3934 26.2415 16.3036 26.3753 16.1901C26.5721 16.0217 26.7215 15.8047 26.8086 15.5608C26.8958 15.3168 26.9177 15.0543 26.8722 14.7993C26.8268 14.5442 26.7154 14.3055 26.5493 14.1067C26.3832 13.908 26.168 13.756 25.9251 13.666V16.4554ZM10.5067 13.7303C10.2353 13.8351 9.99992 14.0159 9.8288 14.2512C9.65769 14.4865 9.55812 14.7662 9.54205 15.0567C9.54351 15.3588 9.63646 15.6534 9.80867 15.9017C9.98087 16.1499 10.2242 16.3402 10.5067 16.4474V13.7303ZM18.2159 2.1142C16.1293 2.11633 14.1288 2.94617 12.6533 4.42162C11.1779 5.89707 10.3481 7.89759 10.3459 9.98419V11.5919L10.6112 11.5357C10.7293 11.2173 10.9421 10.9426 11.2209 10.7486C11.4996 10.5546 11.8311 10.4506 12.1707 10.4504H12.2913C12.5888 10.4504 12.8942 10.4504 13.1997 10.4504C16.0548 10.4319 18.8447 9.59489 21.2385 8.0388C21.5082 7.86106 21.8239 7.76606 22.1469 7.76548C22.376 7.76547 22.6028 7.81255 22.813 7.90382C23.0232 7.99509 23.2123 8.12859 23.3688 8.29604L24.3495 9.34108C25.6759 10.7479 25.8769 10.9488 25.901 11.5035H26.0698V9.98419C26.0677 7.89759 25.2379 5.89707 23.7624 4.42162C22.287 2.94617 20.2864 2.11633 18.1998 2.1142" fill="black"/>
</g>
<defs>
<clipPath id="clip0">
<rect width="37.3585" height="55" fill="white"/>
</clipPath>
</defs>
</svg>
