<svg width="52" height="50" viewBox="0 0 52 50" fill="none" xmlns="http://www.w3.org/2000/svg">
<g clip-path="url(#clip0)">
<path d="M51.7117 10.3868L41.4736 0.286533C41.3294 0.143266 41.041 0 40.7526 0C40.4642 0 40.2479 0.143266 40.1037 0.286533L36.9313 3.65329C36.5708 4.01146 36.5708 4.58453 36.9313 4.94269L37.0755 5.08596L35.922 6.23209L33.9753 5.73066C33.6869 5.73066 33.2543 5.65903 32.8217 5.65903C31.3797 5.65903 30.0098 6.23209 29.0725 7.23496L25.5397 11.3181L21.43 7.23496C20.5648 6.37536 19.4112 5.87392 18.1855 5.87392C17.6808 5.87392 17.1761 5.94556 16.7436 6.08882C16.6715 6.08882 16.5273 6.16046 16.4552 6.23209L16.2389 6.44699L15.8784 6.08882L14.5085 7.37822L15.5179 8.38109C15.7342 8.59599 15.9505 8.66762 16.1668 8.66762C16.3831 8.66762 16.5994 8.59599 16.7436 8.45272L17.3924 7.87966C17.6087 7.80802 17.8971 7.80802 18.1134 7.80802C18.8344 7.80802 19.4833 8.09455 19.988 8.59599L24.6024 13.1805C24.314 13.467 24.0256 13.8968 23.8814 14.3266C23.4488 14.1117 23.0162 14.0401 22.5115 14.0401C22.4394 14.0401 22.2952 14.0401 22.2231 14.0401C20.6369 14.255 19.4112 15.616 19.4833 17.192V25.9312C17.825 26.2894 16.5994 27.5788 16.2389 29.1547L10.3267 23.1375C9.53362 22.3496 9.17313 21.1318 9.46152 19.9857L10.0383 17.5501C10.1104 17.2636 10.0383 16.9054 9.82202 16.6189L7.51484 14.3266L6.14496 15.6877L8.01954 17.5501L7.51484 19.4842C7.08225 21.2751 7.58694 23.1375 8.88473 24.4269L16.0226 31.7335V38.2521C16.0226 39.8281 16.8877 41.1891 18.3297 41.9054C19.0507 42.2636 19.4833 42.9799 19.4833 43.7679V43.8395H18.7623C18.2576 43.8395 17.825 44.2693 17.825 44.7708V48.9971C17.825 49.2837 17.8971 49.4986 18.1134 49.6418C18.3297 49.8567 18.546 49.9284 18.7623 49.9284H34.9126C35.4173 49.9284 35.8499 49.4986 35.8499 48.9971V44.7708C35.8499 44.4842 35.7778 44.2693 35.5615 44.1261C35.3452 43.9112 35.1289 43.8395 34.9126 43.8395H34.1916V43.1232L35.4894 41.9054C36.7871 40.9026 37.5802 39.3983 37.5802 37.7507V28.0086C38.5896 27.8653 39.5269 27.4355 40.1758 26.7192L44.646 21.8481C45.7275 20.7736 46.0879 19.1977 45.6554 17.765C45.5833 17.4785 46.16 16.2607 47.0252 15.1862C47.1694 15.3295 47.3857 15.4011 47.602 15.4011C47.8904 15.4011 48.1067 15.3295 48.2509 15.1146L51.7117 11.7478C52.0722 11.3897 52.0722 10.745 51.7117 10.3868ZM33.9032 48.0659H19.6996V45.7736H33.9032V48.0659ZM35.6336 37.8223C35.6336 38.8968 35.1289 39.8997 34.2637 40.5444L32.5333 42.0487C32.317 42.2636 32.2449 42.4785 32.2449 42.765V43.8395H21.43V43.7679C21.43 42.2636 20.6369 40.9026 19.267 40.2579C18.4739 39.8997 18.0413 39.1117 17.9692 38.2521V30.086C17.9692 29.0831 18.546 28.2235 19.4833 27.8653V33.0946H21.43V17.1203C21.43 16.4756 21.8626 15.9742 22.4394 15.8309C22.5115 15.8309 22.5115 15.8309 22.5836 15.8309C22.872 15.8309 23.1604 15.9026 23.3767 16.1175C23.593 16.3324 23.7372 16.6189 23.7372 16.9771V29.6562H25.6839V15.3295C25.6839 15.043 25.8281 14.7564 26.0444 14.5415C26.2607 14.3266 26.549 14.1834 26.8374 14.1834C26.9095 14.1834 26.9095 14.1834 26.9095 14.1834C27.5584 14.255 27.991 14.8281 27.991 15.4728V29.7278H29.9377V17.8367C29.9377 17.192 30.4424 16.6905 31.0913 16.6905H31.1634C31.8123 16.7622 32.2449 17.3352 32.2449 17.9799V29.7278H34.1916V22.7794C35.0568 23.1375 35.7057 23.9971 35.7057 25V37.8223H35.6336ZM43.7808 18.3381C44.0692 19.1261 43.8529 19.9857 43.2761 20.4871L38.8059 25.3582C38.4454 25.7163 38.0128 25.9312 37.5802 26.0745V25C37.5802 22.9943 36.1383 21.2034 34.1916 20.7736V17.9799C34.1916 16.3324 33.038 14.9713 31.3797 14.7564C31.3076 14.7564 31.2355 14.7564 31.0913 14.7564C30.6587 14.7564 30.2982 14.8281 29.8656 14.9713C29.7214 13.6103 28.6399 12.4642 27.1979 12.2493L30.4424 8.45272C31.0913 7.80802 31.8844 7.44986 32.8217 7.44986C33.1101 7.44986 33.3264 7.44986 33.6148 7.52149L36.0662 8.09455C36.1383 8.09455 36.2104 8.09455 36.2824 8.09455C36.5708 8.09455 36.7871 8.02292 36.9313 7.80802L38.4454 6.30372L45.5833 13.6103C44.7181 14.8997 43.3482 16.9054 43.7808 18.3381ZM47.602 13.1089L39.0222 4.29799L40.8968 2.29226L49.6929 11.0315L47.602 13.1089Z" fill="black"/>
<path d="M14.5084 7.37822L15.8783 6.08883L16.8877 5.01433C17.104 4.79943 17.1761 4.58453 17.1761 4.36963C17.1761 4.15473 17.104 3.86819 16.8877 3.72493L13.499 0.358166C13.2827 0.0716332 13.0664 0 12.778 0C12.4897 0 12.3455 0.0716332 12.1292 0.286533L1.09797 11.2464C0.88167 11.3897 0.80957 11.6762 0.80957 11.8911C0.80957 12.1777 0.88167 12.3926 1.09797 12.5358L4.48663 15.9026C4.70293 16.1175 4.91923 16.1891 5.13553 16.1891C5.35182 16.1891 5.64022 16.1175 5.78442 15.9026L6.07282 15.616L6.14492 15.6877L7.5148 14.3266L14.5084 7.37822ZM5.13553 13.9685L3.11675 11.9628L12.778 2.29226L14.8689 4.29799L5.13553 13.9685Z" fill="#D64356"/>
</g>
<defs>
<clipPath id="clip0">
<rect width="51.1905" height="50" fill="white" transform="translate(0.80957)"/>
</clipPath>
</defs>
</svg>
