<svg width="52" height="70" viewBox="0 0 52 70" fill="none" xmlns="http://www.w3.org/2000/svg">
<path d="M1.49998 70H50.5C51.1443 70 51.6666 69.4776 51.6666 68.8333V1.16667C51.6666 0.522379 51.1443 0 50.5 0H1.49998C0.855693 0 0.333313 0.522379 0.333313 1.16667V68.8333C0.333313 69.4776 0.855693 70 1.49998 70ZM2.66665 2.33333H49.3333V67.6667H2.66665V2.33333Z" fill="black"/>
<path d="M15.3333 47.3329H36.3333V49.6662H15.3333V47.3329Z" fill="#D64356"/>
<path d="M26.6581 17.3414C26.2023 16.8862 25.4641 16.8862 25.0083 17.3414L13.3417 29.008C13.0084 29.3419 12.9082 29.8437 13.0887 30.2795C13.2693 30.7153 13.6949 30.9996 14.1665 30.9996H17.6665V39.1662C17.6665 39.8105 18.1889 40.3329 18.8332 40.3329H32.8332C33.4775 40.3329 33.9999 39.8105 33.9999 39.1662V30.9996H37.4999C37.9715 30.9996 38.3971 30.7153 38.5777 30.2795C38.7582 29.8437 38.658 29.3419 38.3247 29.008L26.6581 17.3414ZM24.6665 37.9996V33.3329H26.9999V37.9996H24.6665ZM32.8332 28.6662C32.1889 28.6662 31.6665 29.1886 31.6665 29.8329V37.9996H29.3332V32.1662C29.3332 31.522 28.8108 30.9996 28.1665 30.9996H23.4999C22.8556 30.9996 22.3332 31.522 22.3332 32.1662V37.9996H19.9999V29.8329C19.9999 29.1886 19.4775 28.6662 18.8332 28.6662H16.9829L25.8332 19.816L34.6835 28.6662H32.8332Z" fill="#D64356"/>
<path d="M17.6666 42.6662H33.9999V44.9995H17.6666V42.6662Z" fill="#D64356"/>
</svg>
