<svg width="60" height="60" viewBox="0 0 60 60" fill="none" xmlns="http://www.w3.org/2000/svg">
<g clip-path="url(#clip0)">
<path d="M43.5599 4.98013C40.4703 2.36548 36.6909 0.699374 32.6766 0.182324C28.6623 -0.334727 24.5841 0.31931 20.9328 2.06572C17.2815 3.81214 14.2127 6.57651 12.0956 10.0262C9.9786 13.4758 8.90357 17.4638 8.99991 21.5101C9.53534 28.6608 12.7494 35.3462 17.9999 40.2301C19.5299 41.9701 20.9999 43.7701 20.9999 44.7001V51.8401C20.9999 52.9117 21.211 53.9727 21.621 54.9628C22.0311 55.9528 22.6322 56.8523 23.3899 57.61C24.1476 58.3678 25.0472 58.9688 26.0372 59.3789C27.0272 59.789 28.0883 60.0001 29.1599 60.0001H30.8399C33.004 60.0001 35.0796 59.1403 36.6099 57.61C38.1402 56.0798 38.9999 54.0042 38.9999 51.8401V44.7001C38.9999 43.7701 40.5899 41.9701 41.9999 40.2301C47.3827 35.2316 50.6102 28.3355 50.9998 21.0001C50.9976 17.9497 50.3309 14.9364 49.0461 12.1699C47.7612 9.40327 45.8891 6.94981 43.5599 4.98013ZM30.8399 57.0001H29.1599C27.7914 57.0001 26.4789 56.4564 25.5112 55.4887C24.5435 54.521 23.9999 53.2086 23.9999 51.8401V48.0001H35.9999V51.8401C35.9999 53.2086 35.4562 54.521 34.4885 55.4887C33.5209 56.4564 32.2084 57.0001 30.8399 57.0001ZM39.8399 38.2501C37.6499 40.6801 35.9399 42.6301 35.9399 44.7001V45.0001H23.9999V44.7001C23.9999 42.6301 22.2899 40.6801 20.0999 38.2501C15.4065 33.8508 12.519 27.8619 11.9999 21.4501C11.8963 17.1226 13.3557 12.9026 16.1106 9.56366C18.8655 6.22469 22.7314 3.99036 26.9999 3.27013C29.5794 2.83411 32.223 2.96562 34.7465 3.6555C37.2701 4.34539 39.6129 5.57706 41.6119 7.26475C43.6108 8.95245 45.2179 11.0556 46.3211 13.4277C47.4243 15.7999 47.9972 18.384 47.9999 21.0001C47.9999 29.1001 43.3199 34.3801 39.8999 38.2501H39.8399Z" fill="black"/>
<path d="M58.4999 18H55.4999C55.1021 18 54.7206 18.158 54.4393 18.4393C54.158 18.7206 53.9999 19.1022 53.9999 19.5C53.9999 19.8978 54.158 20.2794 54.4393 20.5607C54.7206 20.842 55.1021 21 55.4999 21H58.4999C58.8978 21 59.2793 20.842 59.5606 20.5607C59.8419 20.2794 59.9999 19.8978 59.9999 19.5C59.9999 19.1022 59.8419 18.7206 59.5606 18.4393C59.2793 18.158 58.8978 18 58.4999 18Z" fill="black"/>
<path d="M5.99999 19.5C5.99999 19.1022 5.84196 18.7206 5.56065 18.4393C5.27935 18.158 4.89782 18 4.49999 18H1.5C1.10217 18 0.720644 18.158 0.439339 18.4393C0.158035 18.7206 0 19.1022 0 19.5C0 19.8978 0.158035 20.2794 0.439339 20.5607C0.720644 20.842 1.10217 21 1.5 21H4.49999C4.89782 21 5.27935 20.842 5.56065 20.5607C5.84196 20.2794 5.99999 19.8978 5.99999 19.5Z" fill="black"/>
<path d="M5.54994 0.450305C5.27146 0.171828 4.89376 0.0153809 4.49994 0.0153809C4.10611 0.0153809 3.72842 0.171828 3.44994 0.450305C3.17146 0.728782 3.01501 1.10648 3.01501 1.5003C3.01501 1.89413 3.17146 2.27182 3.44994 2.5503L6.44993 5.5503C6.5846 5.69379 6.74726 5.80816 6.92785 5.88634C7.10844 5.96452 7.30314 6.00485 7.49993 6.00485C7.69672 6.00485 7.89142 5.96452 8.07202 5.88634C8.25261 5.80816 8.41526 5.69379 8.54993 5.5503C8.69342 5.41563 8.80779 5.25297 8.88597 5.07238C8.96415 4.89179 9.00449 4.69709 9.00449 4.5003C9.00449 4.30351 8.96415 4.10881 8.88597 3.92822C8.80779 3.74762 8.69342 3.58497 8.54993 3.4503L5.54994 0.450305Z" fill="black"/>
<path d="M52.4999 6.0003C52.6966 6.0027 52.8917 5.9639 53.0725 5.8864C53.2534 5.8089 53.416 5.69441 53.5499 5.5503L56.5499 2.5503C56.8284 2.27182 56.9848 1.89413 56.9848 1.5003C56.9848 1.10648 56.8284 0.728782 56.5499 0.450305C56.2714 0.171828 55.8937 0.0153809 55.4999 0.0153809C55.1061 0.0153809 54.7284 0.171828 54.4499 0.450305L51.4499 3.4503C51.3064 3.58497 51.1921 3.74762 51.1139 3.92822C51.0357 4.10881 50.9954 4.30351 50.9954 4.5003C50.9954 4.69709 51.0357 4.89179 51.1139 5.07238C51.1921 5.25298 51.3064 5.41563 51.4499 5.5503C51.5839 5.69441 51.7465 5.8089 51.9273 5.8864C52.1081 5.9639 52.3032 6.0027 52.4999 6.0003Z" fill="black"/>
<path d="M53.5499 33.4502C53.2714 33.1717 52.8937 33.0153 52.4999 33.0153C52.106 33.0153 51.7284 33.1717 51.4499 33.4502C51.1714 33.7287 51.015 34.1064 51.015 34.5002C51.015 34.894 51.1714 35.2717 51.4499 35.5502L54.4499 38.5502C54.5845 38.6937 54.7472 38.808 54.9278 38.8862C55.1084 38.9644 55.3031 39.0047 55.4999 39.0047C55.6967 39.0047 55.8914 38.9644 56.072 38.8862C56.2525 38.808 56.4152 38.6937 56.5499 38.5502C56.6934 38.4155 56.8077 38.2529 56.8859 38.0723C56.9641 37.8917 57.0044 37.697 57.0044 37.5002C57.0044 37.3034 56.9641 37.1087 56.8859 36.9281C56.8077 36.7475 56.6934 36.5848 56.5499 36.4502L53.5499 33.4502Z" fill="black"/>
<path d="M6.44997 33.4502L3.44998 36.4502C3.30649 36.5848 3.19212 36.7475 3.11394 36.9281C3.03576 37.1087 2.99542 37.3034 2.99542 37.5002C2.99542 37.697 3.03576 37.8917 3.11394 38.0723C3.19212 38.2529 3.30649 38.4155 3.44998 38.5502C3.58465 38.6937 3.7473 38.808 3.92789 38.8862C4.10849 38.9644 4.30319 39.0047 4.49998 39.0047C4.69677 39.0047 4.89147 38.9644 5.07206 38.8862C5.25265 38.808 5.4153 38.6937 5.54997 38.5502L8.54997 35.5502C8.82845 35.2717 8.98489 34.894 8.98489 34.5002C8.98489 34.1064 8.82845 33.7287 8.54997 33.4502C8.27149 33.1717 7.8938 33.0153 7.49997 33.0153C7.10615 33.0153 6.72845 33.1717 6.44997 33.4502Z" fill="black"/>
<path d="M33.45 15.4502L24.45 24.4502C24.2314 24.6511 24.0819 24.9158 24.0226 25.2067C23.9634 25.4976 23.9974 25.7998 24.12 26.0702C24.2325 26.3441 24.4236 26.5786 24.6692 26.7441C24.9148 26.9096 25.2038 26.9987 25.5 27.0002H30.87L27.45 30.4502C27.3065 30.5848 27.1921 30.7475 27.1139 30.9281C27.0358 31.1087 26.9954 31.3034 26.9954 31.5002C26.9954 31.6969 27.0358 31.8916 27.1139 32.0722C27.1921 32.2528 27.3065 32.4155 27.45 32.5502C27.5846 32.6936 27.7473 32.808 27.9279 32.8862C28.1085 32.9644 28.3032 33.0047 28.5 33.0047C28.6968 33.0047 28.8915 32.9644 29.0721 32.8862C29.2527 32.808 29.4153 32.6936 29.55 32.5502L35.55 26.5502C35.7685 26.3493 35.9181 26.0845 35.9773 25.7936C36.0366 25.5027 36.0025 25.2006 35.88 24.9302C35.7674 24.6562 35.5763 24.4217 35.3308 24.2562C35.0852 24.0907 34.7961 24.0016 34.5 24.0002H29.13L35.55 17.5502C35.8284 17.2717 35.9849 16.894 35.9849 16.5002C35.9849 16.1064 35.8284 15.7287 35.55 15.4502C35.2715 15.1717 34.8938 15.0153 34.5 15.0153C34.1061 15.0153 33.7284 15.1717 33.45 15.4502Z" fill="#CD4051"/>
</g>
<defs>
<clipPath id="clip0">
<rect width="59.9999" height="60" fill="white"/>
</clipPath>
</defs>
</svg>
