<svg width="33" height="45" viewBox="0 0 33 45" fill="none" xmlns="http://www.w3.org/2000/svg">
<path d="M16.337 44.9975C15.9326 44.9975 15.5282 44.9048 15.1516 44.7198C13.6671 43.9899 9.85095 41.9974 6.47833 39.2606C2.19149 35.7819 0.0180359 32.2895 0.0180359 28.8808V8.03366C0.0180359 6.91723 0.689539 5.93264 1.72906 5.52548L15.3534 0.186071C15.9879 -0.0617946 16.6861 -0.0621379 17.3206 0.185728L30.9453 5.52548C31.9851 5.93264 32.6573 6.91689 32.6573 8.03366V17.916C32.6573 18.4014 32.2639 18.7949 31.7785 18.7949C31.293 18.7949 30.8996 18.4014 30.8996 17.916V8.03366C30.8996 7.64572 30.6658 7.30345 30.3043 7.16201L16.68 1.8226C16.4592 1.73643 16.2155 1.73643 15.994 1.8226L2.3707 7.16201C2.0092 7.30345 1.77575 7.64572 1.77575 8.03366V28.8811C1.77575 31.7343 3.73053 34.7671 7.58583 37.896C10.8194 40.5198 14.4962 42.4389 15.9267 43.1423C16.1877 43.2707 16.4867 43.2707 16.7476 43.1423C18.1781 42.4392 21.8546 40.5205 25.0892 37.896C28.9445 34.7671 30.8993 31.734 30.8993 28.8804V27.819C30.8993 27.3335 31.2927 26.9401 31.7781 26.9401C32.2635 26.9401 32.657 27.3335 32.657 27.819V28.8804C32.657 32.2895 30.4835 35.7819 26.1967 39.2606C22.823 41.9984 19.0069 43.9903 17.5228 44.7198C17.1462 44.9048 16.7414 44.9975 16.337 44.9975Z" fill="black"/>
<path d="M31.7781 23.3787C31.7211 23.3787 31.6631 23.3735 31.6068 23.3618C31.5505 23.3505 31.4952 23.3337 31.4427 23.3117C31.3888 23.2897 31.338 23.2626 31.2906 23.231C31.2422 23.1984 31.1973 23.1617 31.1571 23.1212C30.9933 22.9578 30.8996 22.7308 30.8996 22.4998C30.8996 22.4428 30.9058 22.3848 30.9171 22.3285C30.9284 22.2722 30.9453 22.2169 30.9672 22.1641C30.9892 22.1105 31.0163 22.0597 31.0479 22.012C31.0795 21.9639 31.1166 21.9189 31.1571 21.8784C31.1973 21.8379 31.2422 21.8012 31.2906 21.7696C31.338 21.738 31.3888 21.7105 31.4427 21.6886C31.4952 21.6666 31.5505 21.6501 31.6068 21.6385C31.7204 21.6158 31.8372 21.6158 31.9498 21.6385C32.0057 21.6501 32.0613 21.6666 32.1149 21.6886C32.1674 21.7105 32.2186 21.738 32.266 21.7696C32.3144 21.8012 32.3593 21.8379 32.3995 21.8784C32.44 21.9189 32.4771 21.9639 32.5094 22.012C32.5409 22.0597 32.5684 22.1105 32.5904 22.1641C32.6124 22.2169 32.6288 22.2722 32.6405 22.3285C32.6518 22.3848 32.657 22.4428 32.657 22.4998C32.657 22.5568 32.6518 22.6148 32.6405 22.6721C32.6288 22.7274 32.6124 22.7827 32.5904 22.8362C32.5684 22.8891 32.5409 22.9403 32.5094 22.9876C32.4771 23.036 32.44 23.0807 32.3995 23.1212C32.3593 23.1617 32.3144 23.1984 32.266 23.231C32.2186 23.2626 32.1674 23.2897 32.1149 23.3117C32.0613 23.3337 32.0057 23.3505 31.9498 23.3618C31.8935 23.3735 31.8355 23.3787 31.7781 23.3787Z" fill="black"/>
<path d="M16.3377 8.492C11.9901 8.492 8.45302 12.0267 8.45302 16.3715V29.9008C8.45302 31.6757 9.89661 33.1196 11.6715 33.1196H21.0035C22.7784 33.1196 24.2223 31.6757 24.2223 29.9008V16.3715C24.2223 12.027 20.6853 8.492 16.3377 8.492ZM16.3377 10.2497C19.7161 10.2497 22.4646 12.9958 22.4646 16.3715V19.4163H20.8047V16.3715C20.8047 13.91 18.8009 11.9072 16.3373 11.9072C13.8741 11.9072 11.8703 13.91 11.8703 16.3715V19.4163H10.2104V16.3715C10.2104 12.9962 12.9592 10.2497 16.3377 10.2497ZM13.628 19.4163V16.3715C13.628 14.8792 14.8433 13.6649 16.3373 13.6649C17.8314 13.6649 19.047 14.8792 19.047 16.3715V19.4163H13.628ZM21.0035 31.3619H11.6715C10.8658 31.3619 10.2104 30.7065 10.2104 29.9008V21.174H22.4646V29.9008C22.4646 30.7065 21.8092 31.3619 21.0035 31.3619Z" fill="black"/>
<path d="M19.0443 25.4309C19.0443 23.9393 17.83 22.7257 16.3377 22.7257C14.8453 22.7257 13.6311 23.9393 13.6311 25.4309C13.6311 26.6153 14.3963 27.6243 15.4588 27.9896V28.9316C15.4588 29.4171 15.8523 29.8105 16.3377 29.8105C16.8231 29.8105 17.2165 29.4171 17.2165 28.9316V27.9896C18.2787 27.6243 19.0443 26.6153 19.0443 25.4309ZM16.3377 26.3785C15.8145 26.3785 15.3888 25.9535 15.3888 25.4309C15.3888 24.9084 15.8145 24.4831 16.3377 24.4831C16.8609 24.4831 17.2866 24.9084 17.2866 25.4309C17.2866 25.9535 16.8609 26.3785 16.3377 26.3785Z" fill="#D64356"/>
</svg>
