<svg width="55" height="55" viewBox="0 0 55 55" fill="none" xmlns="http://www.w3.org/2000/svg">
<path d="M53.9065 47.5905C53.9065 47.5905 53.8846 47.5905 53.9065 47.5905H53.8846C53.8628 47.5467 53.8409 47.5029 53.7971 47.4811L45.8097 37.7212C51.7401 28.0488 50.2958 15.3566 42.2428 7.25978C32.5923 -2.3907 16.8802 -2.43447 7.18595 7.21601C-2.42077 16.8884 -2.39889 32.6005 7.27348 42.2291C15.3484 50.2821 28.0406 51.7483 37.7349 45.7961L47.451 53.7396C47.4948 53.7834 47.5823 53.8709 47.6261 53.8928C48.4795 54.615 49.508 54.987 50.5365 54.987C51.5869 54.987 52.6154 54.615 53.4907 53.8928L53.9284 53.477C53.9941 53.4114 54.0597 53.3239 54.1035 53.2363C55.3508 51.5732 55.307 49.2317 53.9065 47.5905ZM52.2215 51.9671C52.1996 51.989 52.1778 52.0328 52.1559 52.0546L51.9808 52.2078C51.1274 52.93 49.9019 52.93 49.0266 52.1859L48.9609 52.1203C48.939 52.0984 48.9172 52.0765 48.8734 52.0546L38.5008 43.564C38.3038 43.3889 38.0412 43.3014 37.8005 43.3014C37.5817 43.3014 37.3628 43.367 37.1659 43.4983L37.0784 43.564C28.2157 49.363 16.3331 48.1376 8.82718 40.6535C0.0520316 31.9002 0.030148 17.6105 8.78342 8.76972C17.5805 0.0164501 31.8702 0.0602166 40.6453 8.83537C48.1294 16.3413 49.3548 28.2239 43.5558 37.0865L43.4901 37.196C43.2275 37.6117 43.2494 38.1369 43.5558 38.509L52.0465 48.8816C52.0902 48.9253 52.134 48.9691 52.1559 49.0129L52.1778 49.0348C52.9218 49.8882 52.9437 51.1137 52.2215 51.9671Z" fill="black"/>
<path d="M24.7144 38.7276C17.0115 38.7276 10.7529 32.469 10.7529 24.7662C10.7529 17.8511 15.7204 12.0739 22.4385 11.0016V8.74768C14.4512 9.86372 8.52081 16.6256 8.52081 24.7662C8.52081 33.6945 15.786 40.9597 24.7144 40.9597C32.8549 40.9597 39.6387 35.0294 40.7328 27.042H38.4789C37.4066 33.7602 31.6294 38.7276 24.7144 38.7276Z" fill="black"/>
<path d="M26.3555 8.66035L25.1301 8.52905V24.3506H40.9516L40.8203 23.1251C40.0544 15.5098 33.9709 9.42626 26.3555 8.66035ZM27.3622 22.1185V11.0675C32.9424 12.1398 37.3409 16.5602 38.4132 22.1185H27.3622Z" fill="#D64356"/>
</svg>
