<svg width="60" height="60" viewBox="0 0 60 60" fill="none" xmlns="http://www.w3.org/2000/svg">
<g clip-path="url(#clip0)">
<path d="M39.4701 18.8112C35.7364 18.8112 32.6251 15.6909 32.6251 11.9464C32.6251 8.20202 35.7364 5.08167 39.4701 5.08167C43.2037 5.08167 46.3151 8.20202 46.3151 11.9464C46.3151 15.6909 43.2926 18.8112 39.4701 18.8112ZM39.4701 7.39964C36.981 7.39964 34.9364 9.45016 34.9364 11.9464C34.9364 14.4427 36.981 16.4933 39.4701 16.4933C41.9592 16.4933 44.0038 14.4427 44.0038 11.9464C44.0038 9.45016 41.9592 7.39964 39.4701 7.39964Z" fill="#D64356"/>
<path d="M58.6718 60C58.5829 60 58.4051 60 58.3162 59.9108L39.9146 54.3834C39.8257 54.4725 39.6479 54.4725 39.559 54.4725C39.4701 54.4725 39.2923 54.4725 39.2034 54.3834C37.9588 54.74 20.8018 59.8217 20.8018 59.9108C20.7129 59.9108 20.7129 59.9108 20.624 59.9108C20.5351 59.9108 20.5351 59.9108 20.4462 59.9108C20.3573 59.9108 20.3573 59.9108 20.2684 59.9108C20.1795 59.9108 20.1795 59.9108 20.0906 59.9108L0.800069 54.205C0.355586 54.1159 0 53.6701 0 53.1352V14.7103C0 14.3536 0.177793 13.997 0.444483 13.8187C0.622276 13.6404 0.888966 13.5513 1.15566 13.5513C1.24455 13.5513 1.42235 13.5513 1.51124 13.6404L20.3573 19.2571L28.6247 16.7608C27.9135 14.9777 27.5579 13.373 27.5579 12.0357C27.5579 5.34918 32.8917 0 39.4701 0C46.0484 0 51.3822 5.34918 51.3822 11.9465C51.3822 13.373 51.0266 14.9777 50.3155 16.6716L58.9384 19.2571C59.4718 19.4354 59.7385 19.8811 59.7385 20.416V58.841C59.7385 59.1976 59.5607 59.5542 59.294 59.7325C59.1162 59.9108 58.9384 60 58.6718 60ZM19.2017 57.2362V40.4755L14.1346 38.9599H14.0457L2.31131 35.4829V52.2437L19.2017 57.2362ZM57.5161 57.2362V40.4755L40.7146 35.4829V52.2437L57.5161 57.2362ZM21.513 57.2362L38.3144 52.2437V35.4829L21.513 40.4755V57.2362ZM57.5161 38.0683V21.2184L49.4265 18.8113C46.7596 24.0713 42.137 29.0639 40.7146 30.5795V33.0758L57.5161 38.0683ZM21.513 38.0683L38.3144 33.0758V30.5795C36.8921 29.0639 32.2695 24.1605 29.6026 18.8113L21.513 21.2184V38.0683ZM12.89 36.1961L19.2017 38.0683V21.2184L2.31131 16.2259V32.9866L12.8011 36.107L12.89 36.1961ZM39.4701 2.31798C34.2252 2.31798 29.8693 6.59732 29.8693 11.9465C29.8693 13.373 30.3137 14.9777 31.2027 16.8499C31.2027 16.9391 31.2916 17.0282 31.2916 17.1174C33.514 21.7533 37.6033 26.4785 39.4701 28.4398C41.3369 26.4785 45.4262 21.7533 47.6486 17.1174C47.6486 17.0282 47.7375 16.9391 47.7375 16.8499C48.6264 14.9777 48.982 13.373 48.982 11.9465C49.0709 6.59732 44.8039 2.31798 39.4701 2.31798Z" fill="black"/>
</g>
<defs>
<clipPath id="clip0">
<rect width="59.8274" height="60" fill="white"/>
</clipPath>
</defs>
</svg>
