<svg width="47" height="45" viewBox="0 0 47 45" fill="none" xmlns="http://www.w3.org/2000/svg">
<g clip-path="url(#clip0)">
<path d="M23.1853 44.4684C22.9411 44.4684 22.697 44.3753 22.5105 44.1892C21.5507 43.2313 20.5746 42.2675 19.6306 41.3353C10.1591 31.9816 1.21268 23.1466 1.21268 13.3578C1.21268 10.327 2.39882 7.16015 4.46692 4.66941C6.68702 1.99562 9.54748 0.523071 12.5212 0.523071C17.8388 0.523071 20.8661 4.06965 23.1852 8.27053C25.5039 4.06965 28.5281 0.523071 33.8323 0.523071C36.8133 0.523071 39.6788 1.99543 41.9013 4.66902C43.971 7.15881 45.158 10.3257 45.158 13.3578C45.158 23.1231 36.2435 31.9361 26.8056 41.2666C25.8403 42.2209 24.8421 43.2077 23.8608 44.1887C23.6743 44.3751 23.4297 44.4684 23.1853 44.4684ZM12.5212 2.43383C7.2286 2.43383 3.12334 8.30617 3.12334 13.3579C3.12334 22.3482 11.7938 30.9107 20.9733 39.9758C21.6985 40.6921 22.4427 41.427 23.1849 42.1644C23.9489 41.4041 24.7154 40.6462 25.4624 39.9078C34.6084 30.8659 43.2474 22.3254 43.2474 13.3578C43.2474 8.30607 39.1347 2.43374 33.8324 2.43374C29.1652 2.43374 26.5421 5.76059 24.0395 10.7557C23.8776 11.079 23.5469 11.2832 23.1853 11.2832C22.8237 11.2832 22.4932 11.079 22.3312 10.7557C19.8285 5.76059 17.2026 2.43383 12.5212 2.43383Z" fill="black"/>
<path d="M32.7388 21.5406C32.4193 21.5406 32.1211 21.3809 31.9439 21.1152L28.9174 16.5755L25.8909 21.1152C25.7138 21.3809 25.4155 21.5406 25.0961 21.5406C24.7767 21.5406 24.4784 21.3809 24.3013 21.1152L21.2748 16.5755L18.2483 21.1152C18.0712 21.3809 17.7728 21.5406 17.4534 21.5406C17.1341 21.5406 16.8357 21.3809 16.6586 21.1152L13.6321 16.5755L10.6056 21.1152C10.4285 21.3809 10.1301 21.5406 9.81078 21.5406C9.49141 21.5406 9.19306 21.3809 9.01594 21.1152L7.38882 18.6746H1.21269C0.685057 18.6746 0.257355 18.2469 0.257355 17.7192C0.257355 17.1916 0.685057 16.7639 1.21269 16.7639H7.90002C8.21948 16.7639 8.51774 16.9236 8.69485 17.1893L9.81068 18.863L12.8372 14.3233C13.0143 14.0576 13.3126 13.8979 13.632 13.8979C13.9514 13.8979 14.2497 14.0576 14.4269 14.3233L17.4533 18.863L20.4798 14.3233C20.657 14.0576 20.9553 13.8979 21.2747 13.8979C21.594 13.8979 21.8924 14.0576 22.0695 14.3233L25.096 18.8631L28.1225 14.3233C28.2996 14.0576 28.598 13.8979 28.9173 13.8979C29.2367 13.8979 29.5351 14.0576 29.7122 14.3233L32.7387 18.863L35.7652 14.3233C35.9541 14.04 36.2802 13.8782 36.6193 13.8997C36.9592 13.9208 37.2622 14.1214 37.4145 14.4259L39.0611 17.7192H45.1579C45.6854 17.7192 46.1132 18.1469 46.1132 18.6745C46.1132 19.2021 45.6854 19.6298 45.1579 19.6298H38.4706C38.1087 19.6298 37.778 19.4254 37.6161 19.1017L36.4416 16.7528L33.5335 21.1151C33.3564 21.3809 33.0581 21.5406 32.7388 21.5406Z" fill="#D64356"/>
</g>
<defs>
<clipPath id="clip0">
<rect width="46.3043" height="45" fill="white"/>
</clipPath>
</defs>
</svg>
