<svg width="125" height="45" viewBox="0 0 125 45" fill="none" xmlns="http://www.w3.org/2000/svg">
<path d="M14.4688 26.6562H0.435547V23.6973H14.4688V26.6562Z" fill="black"/>
<path d="M27.9746 20.7676H31.6074C33.6191 20.7676 35.377 20.416 36.8809 19.7129C38.3848 18.9902 39.5273 18.0137 40.3086 16.7832C41.1094 15.5332 41.5098 14.0977 41.5098 12.4766C41.5098 9.74219 40.7383 7.60352 39.1953 6.06055C37.6523 4.51758 35.4355 3.74609 32.5449 3.74609C29.8105 3.74609 27.5645 4.55664 25.8066 6.17773C24.0684 7.7793 23.1992 9.89844 23.1992 12.5352H19.6836C19.6836 10.3281 20.2402 8.31641 21.3535 6.5C22.4668 4.66406 24.0098 3.24805 25.9824 2.25195C27.9551 1.25586 30.1426 0.757812 32.5449 0.757812C36.4121 0.757812 39.459 1.8125 41.6855 3.92188C43.9121 6.03125 45.0254 8.92188 45.0254 12.5938C45.0254 14.6445 44.3711 16.5391 43.0625 18.2773C41.7734 19.9961 39.9961 21.2852 37.7305 22.1445C40.3867 22.8867 42.3984 24.166 43.7656 25.9824C45.1328 27.7793 45.8164 29.9277 45.8164 32.4277C45.8164 36.0801 44.625 39.0195 42.2422 41.2461C39.8594 43.4727 36.6758 44.5859 32.6914 44.5859C30.1523 44.5859 27.8184 44.0781 25.6895 43.0625C23.5801 42.0469 21.9395 40.6309 20.7676 38.8145C19.6152 36.9785 19.0391 34.8496 19.0391 32.4277H22.5547C22.5547 35.1426 23.502 37.3594 25.3965 39.0781C27.291 40.7773 29.7227 41.627 32.6914 41.627C35.7188 41.627 38.0723 40.8555 39.752 39.3125C41.4512 37.75 42.3008 35.4941 42.3008 32.5449C42.3008 29.6934 41.3828 27.5156 39.5469 26.0117C37.7305 24.5078 35.0449 23.7559 31.4902 23.7559H27.9746V20.7676Z" fill="black"/>
<path d="M79.1855 26.2168C79.1855 32.2324 78.082 36.8027 75.875 39.9277C73.668 43.0332 70.416 44.5859 66.1191 44.5859C61.9004 44.5859 58.668 43.0625 56.4219 40.0156C54.1758 36.9492 53.0234 32.4961 52.9648 26.6562V19.0098C52.9648 13.0137 54.0781 8.47266 56.3047 5.38672C58.5312 2.30078 61.7832 0.757812 66.0605 0.757812C70.2793 0.757812 73.502 2.25195 75.7285 5.24023C77.9551 8.20898 79.1074 12.5938 79.1855 18.3945V26.2168ZM75.6699 18.5703C75.6699 13.6875 74.8691 9.99609 73.2676 7.49609C71.6855 4.99609 69.2832 3.74609 66.0605 3.74609C62.8965 3.74609 60.5137 4.9668 58.9121 7.4082C57.3105 9.84961 56.4902 13.4531 56.4512 18.2188V26.5977C56.4512 31.4609 57.2715 35.1816 58.9121 37.7598C60.5723 40.3379 62.9746 41.627 66.1191 41.627C69.2441 41.627 71.6074 40.3672 73.209 37.8477C74.8301 35.3281 75.6504 31.6367 75.6699 26.7734V18.5703Z" fill="black"/>
<path d="M85.9238 9.54688C85.9238 7.00781 86.7051 4.9082 88.2676 3.24805C89.8496 1.56836 91.8516 0.728516 94.2734 0.728516C96.6953 0.728516 98.6875 1.56836 100.25 3.24805C101.832 4.9082 102.623 7.06641 102.623 9.72266V11.8027C102.623 14.3027 101.842 16.3926 100.279 18.0723C98.7363 19.7324 96.7539 20.5625 94.332 20.5625C91.9297 20.5625 89.9277 19.7422 88.3262 18.1016C86.7246 16.4609 85.9238 14.293 85.9238 11.5977V9.54688ZM88.7656 11.8027C88.7656 13.6191 89.2637 15.1133 90.2598 16.2852C91.2754 17.457 92.6328 18.043 94.332 18.043C95.9922 18.043 97.3105 17.457 98.2871 16.2852C99.2832 15.0938 99.7812 13.5605 99.7812 11.6855V9.54688C99.7812 7.73047 99.2734 6.23633 98.2578 5.06445C97.2422 3.87305 95.9141 3.27734 94.2734 3.27734C92.6523 3.27734 91.3242 3.86328 90.2891 5.03516C89.2734 6.20703 88.7656 7.76953 88.7656 9.72266V11.8027ZM107.398 33.541C107.398 31.002 108.18 28.9023 109.742 27.2422C111.324 25.582 113.316 24.752 115.719 24.752C118.121 24.752 120.113 25.582 121.695 27.2422C123.297 28.8828 124.098 31.0508 124.098 33.7461V35.8262C124.098 38.3652 123.307 40.4648 121.725 42.125C120.162 43.7852 118.18 44.6152 115.777 44.6152C113.375 44.6152 111.373 43.7949 109.771 42.1543C108.189 40.4941 107.398 38.3359 107.398 35.6797V33.541ZM110.211 35.8262C110.211 37.6621 110.709 39.166 111.705 40.3379C112.721 41.5098 114.078 42.0957 115.777 42.0957C117.457 42.0957 118.785 41.5098 119.762 40.3379C120.758 39.1465 121.256 37.5938 121.256 35.6797V33.541C121.256 31.666 120.748 30.1621 119.732 29.0293C118.736 27.877 117.398 27.3008 115.719 27.3008C114.078 27.3008 112.75 27.877 111.734 29.0293C110.719 30.1816 110.211 31.7246 110.211 33.6582V35.8262ZM95.4453 40.4551L93.248 39.0488L114.078 5.70898L116.275 7.11523L95.4453 40.4551Z" fill="black"/>
<rect y="23" width="15" height="4" fill="#CC4051"/>
</svg>
