<svg width="52" height="31" viewBox="0 0 52 31" fill="none" xmlns="http://www.w3.org/2000/svg">
<path d="M51.0001 20.1588C51.0001 19.658 50.5941 19.252 50.0933 19.252H1.90681C1.40606 19.252 1.00006 19.658 1.00006 20.1588V28.5953C1.00006 29.096 1.40606 29.502 1.90681 29.502H50.0933C50.5941 29.502 51.0001 29.096 51.0001 28.5953V20.1588V20.1588Z" stroke="black" stroke-width="2" stroke-miterlimit="10" stroke-linecap="round" stroke-linejoin="round"/>
<path d="M6.87506 14.252C3.69956 14.252 1.00006 16.7013 1.00006 19.877V28.4703C1.00006 28.971 1.53106 29.502 2.03181 29.502H50.2183C50.7191 29.502 51.0001 28.971 51.0001 28.4703V19.877C51.0001 16.7013 48.5506 14.252 45.3751 14.252H6.87506Z" stroke="black" stroke-width="2" stroke-miterlimit="10" stroke-linecap="round" stroke-linejoin="round"/>
<path d="M45.4376 25.7217C46.3005 25.7217 47.0001 25.0222 47.0001 24.1592C47.0001 23.2963 46.3005 22.5967 45.4376 22.5967C44.5746 22.5967 43.8751 23.2963 43.8751 24.1592C43.8751 25.0222 44.5746 25.7217 45.4376 25.7217Z" fill="#D64356"/>
<path d="M40.0803 25.7217C40.9433 25.7217 41.6428 25.0222 41.6428 24.1592C41.6428 23.2963 40.9433 22.5967 40.0803 22.5967C39.2174 22.5967 38.5178 23.2963 38.5178 24.1592C38.5178 25.0222 39.2174 25.7217 40.0803 25.7217Z" fill="#D64356"/>
<path d="M34.7233 25.7217C35.5863 25.7217 36.2858 25.0222 36.2858 24.1592C36.2858 23.2963 35.5863 22.5967 34.7233 22.5967C33.8604 22.5967 33.1608 23.2963 33.1608 24.1592C33.1608 25.0222 33.8604 25.7217 34.7233 25.7217Z" fill="#D64356"/>
<path d="M4.87506 1.75201L7.61756 11.4638" stroke="#D64356" stroke-width="2" stroke-miterlimit="10" stroke-linecap="round" stroke-linejoin="round"/>
</svg>
