<svg width="49" height="65" viewBox="0 0 49 65" fill="none" xmlns="http://www.w3.org/2000/svg">
<g clip-path="url(#clip0)">
<path fill-rule="evenodd" clip-rule="evenodd" d="M46.506 24.6071C46.506 39.0774 24.1429 62.7559 24.1429 62.7559C24.1429 62.7559 1.77979 39.0774 1.77979 24.6071C1.77979 11.5313 11.067 2.24402 24.1429 2.24402C37.2187 2.24402 46.506 11.5313 46.506 24.6071Z" stroke="#1D1D1B" stroke-width="3" stroke-linejoin="round"/>
<path d="M31.5714 19.5L21.3572 29.7143L16.7143 25.0714" stroke="#CC4051" stroke-width="3" stroke-miterlimit="10"/>
<path d="M24.1429 38.0714C31.3226 38.0714 37.1429 32.2511 37.1429 25.0714C37.1429 17.8917 31.3226 12.0714 24.1429 12.0714C16.9632 12.0714 11.1429 17.8917 11.1429 25.0714C11.1429 32.2511 16.9632 38.0714 24.1429 38.0714Z" stroke="#1D1D1B" stroke-width="3" stroke-linejoin="round"/>
</g>
<defs>
<clipPath id="clip0">
<rect width="48.2857" height="65" fill="white"/>
</clipPath>
</defs>
</svg>
