<svg width="45" height="60" viewBox="0 0 45 60" fill="none" xmlns="http://www.w3.org/2000/svg">
<path d="M40.9346 5.17134H31.028V0.934579C31.028 0.436137 30.5919 0 30.0935 0H15.3271C14.8287 0 14.3925 0.436137 14.3925 0.934579V5.17134H3.92523C1.74455 5.17134 0 6.91589 0 9.09657V56.0748C0 58.2555 1.74455 60 3.92523 60H40.9969C43.1776 60 44.9221 58.2555 44.9221 56.0748V9.09657C44.8598 6.91589 43.1153 5.17134 40.9346 5.17134ZM15.3271 17.2586H30.0935C30.5919 17.2586 31.028 16.8224 31.028 16.324V12.2741H37.5701V52.5857H7.28972V12.3365H14.3925V16.324C14.3925 16.8847 14.8287 17.2586 15.3271 17.2586ZM29.1589 1.86916V11.3396V15.3894H16.2617V11.3396V6.04361V1.86916H29.1589ZM42.9907 56.0125C42.9907 57.134 42.0561 58.0685 40.9346 58.0685H3.92523C2.80374 58.0685 1.86916 57.134 1.86916 56.0125V9.09657C1.86916 7.97508 2.80374 7.0405 3.92523 7.0405H14.3925V10.4673H6.35514C5.8567 10.4673 5.42056 10.9034 5.42056 11.4019V53.5826C5.42056 54.081 5.8567 54.5171 6.35514 54.5171H38.5047C39.0031 54.5171 39.4393 54.081 39.4393 53.5826V11.4019C39.4393 10.9034 39.0031 10.4673 38.5047 10.4673H31.028V7.0405H40.9346C42.0561 7.0405 42.9907 7.97508 42.9907 9.09657V56.0125Z" fill="black"/>
<path d="M9.59501 27.7882C9.59501 28.2866 10.0311 28.7227 10.5296 28.7227H34.5171C35.0156 28.7227 35.4517 28.2866 35.4517 27.7882C35.4517 27.2897 35.0156 26.8536 34.5171 26.8536H10.5296C10.0311 26.8536 9.59501 27.2897 9.59501 27.7882Z" fill="#D64356"/>
<path d="M34.5171 33.3956H10.5296C10.0311 33.3956 9.59501 33.8318 9.59501 34.3302C9.59501 34.8287 10.0311 35.2648 10.5296 35.2648H34.5171C35.0156 35.2648 35.4517 34.8287 35.4517 34.3302C35.4517 33.8318 35.0156 33.3956 34.5171 33.3956Z" fill="#D64356"/>
<path d="M34.5171 40.2492H10.5296C10.0311 40.2492 9.59501 40.6853 9.59501 41.1838C9.59501 41.6822 10.0311 42.1184 10.5296 42.1184H34.5171C35.0156 42.1184 35.4517 41.6822 35.4517 41.1838C35.4517 40.6853 35.0156 40.2492 34.5171 40.2492Z" fill="#D64356"/>
</svg>
