<svg width="54" height="34" viewBox="0 0 54 34" fill="none" xmlns="http://www.w3.org/2000/svg">
<g clip-path="url(#clip0)">
<path d="M36.3062 19.1556L31.7124 17.1456C31.3863 17.0058 31.1789 16.6854 31.1789 16.3358V15.0949C32.72 13.8831 33.7159 12.0188 33.7159 9.93317V8.1854C34.2256 7.91158 34.5635 7.3756 34.5635 6.77553V6.60658C34.5576 2.95956 31.5464 0 27.8476 0H26.1582C22.4595 0 19.4483 2.95956 19.4483 6.60075V8.13879C19.4483 8.66313 19.6794 9.14085 20.0766 9.4438C20.1418 9.49623 20.2188 9.54284 20.29 9.57779V9.92152C20.29 12.013 21.2799 13.8773 22.827 15.0833V16.3242C22.827 16.6737 22.6195 16.9942 22.2935 17.134L17.6996 19.1439C16.194 19.8023 15.2219 21.2762 15.2219 22.8958V33.2135C15.2219 33.6446 15.5776 33.9942 16.0103 33.9942C16.443 33.9942 16.7986 33.6446 16.7986 33.2135V22.9075C16.7986 22.8201 16.8046 22.7269 16.8164 22.6395L18.9326 24.7252C19.2645 25.0514 19.4423 25.4825 19.4423 25.9369V33.2193C19.4423 33.6504 19.798 34 20.2307 34C20.6634 34 21.0191 33.6504 21.0191 33.2193V25.9369C21.0191 25.0631 20.6753 24.2416 20.0469 23.6241L17.5218 21.1422C17.7471 20.9092 18.0197 20.7169 18.3339 20.5829L22.8507 18.608L26.1997 21.9054V33.231C26.1997 33.6621 26.5554 34.0117 26.9881 34.0117C27.4267 34.0117 27.7765 33.6621 27.7765 33.231V21.8996L31.1255 18.6021L35.6423 20.5771C35.9506 20.7111 36.2232 20.9034 36.4544 21.1364L33.9293 23.6182C33.301 24.2358 32.9572 25.0572 32.9572 25.9311V33.2135C32.9572 33.6446 33.3128 33.9942 33.7455 33.9942C34.1782 33.9942 34.5339 33.6446 34.5339 33.2135V25.9311C34.5339 25.4709 34.7176 25.0398 35.0436 24.7193L37.1598 22.6337C37.1716 22.721 37.1776 22.8084 37.1776 22.9016V33.2193C37.1776 33.6504 37.5332 34 37.9659 34C38.3986 34 38.7543 33.6504 38.7543 33.2193V22.9075C38.7839 21.2879 37.8118 19.8139 36.3062 19.1556ZM27 20.4781L24.0599 17.5826C24.2851 17.2097 24.4096 16.7844 24.4096 16.3358V16.0212C25.2098 16.3533 26.0812 16.5339 27 16.5339C27.9187 16.5339 28.796 16.3533 29.5903 16.0212V16.3358C29.5903 16.7844 29.7148 17.2097 29.94 17.5826L27 20.4781ZM27 14.9726C24.1725 14.9726 21.8726 12.7121 21.8726 9.92735V9.57779C22.3646 9.38554 22.8507 9.07677 23.3071 8.6573C23.6272 8.366 23.6509 7.8708 23.3545 7.5562C23.0581 7.2416 22.5602 7.2183 22.2342 7.5096C21.8371 7.8708 21.4458 8.10384 21.0606 8.19705C21.0487 8.19705 21.0428 8.20288 21.0368 8.20288C21.0309 8.19123 21.025 8.16792 21.025 8.13297V6.59493C21.025 3.81597 23.3249 1.54969 26.1523 1.54969H27.8417C30.6691 1.54969 32.969 3.81014 32.969 6.59493V6.76388C32.969 6.78718 32.9512 6.81049 32.9334 6.81631C28.1973 7.73681 25.8204 6.00069 25.0202 5.21419C24.7119 4.91124 24.2081 4.91124 23.8998 5.21419C23.5916 5.51714 23.5916 6.01234 23.8998 6.31528C26.3539 8.73304 29.94 8.77382 32.1214 8.51748V9.92152C32.1273 12.7121 29.8274 14.9726 27 14.9726Z" fill="black"/>
<path d="M52.1625 21.8529L47.7346 19.674C47.4264 19.5226 47.2367 19.2196 47.2367 18.8817V17.7806C48.274 16.8776 48.9261 15.5551 48.9261 14.087V13.2015C48.9439 13.2015 48.9616 13.2015 48.9794 13.2015C49.4181 13.2015 49.7678 12.8519 49.7678 12.4208V10.7546C49.7678 8.03388 47.5153 5.81421 44.7471 5.81421H43.0578C40.2896 5.81421 38.0372 8.02805 38.0372 10.7546V12.4208C38.0372 12.8519 38.3928 13.2015 38.8255 13.2015C38.8315 13.2015 38.8492 13.2015 38.8789 13.2015V14.087C38.8789 15.5551 39.5309 16.8718 40.5682 17.7806V18.8817C40.5682 19.2196 40.3785 19.5226 40.0703 19.674C39.6791 19.8663 39.5191 20.3324 39.7147 20.7169C39.851 20.9907 40.1355 21.148 40.42 21.148C40.5386 21.148 40.6571 21.1189 40.7757 21.0664C40.918 20.9965 41.0484 20.915 41.1669 20.8276L43.0993 22.7326V33.2251C43.0993 33.6562 43.4549 34.0058 43.8877 34.0058C44.3204 34.0058 44.676 33.6562 44.676 33.2251V22.7326L46.6084 20.8276C46.7329 20.9208 46.8633 21.0024 46.9996 21.0664L51.2852 23.1754L49.9871 24.4513C49.3588 25.0688 49.015 25.8903 49.015 26.7642V33.2193C49.015 33.6504 49.3706 34 49.8034 34C50.2361 34 50.5917 33.6504 50.5917 33.2193V26.77C50.5917 26.3098 50.7755 25.8786 51.1015 25.5582L52.3344 24.3464C52.37 24.4862 52.3937 24.6319 52.3937 24.7834V33.2251C52.3937 33.6562 52.7493 34.0058 53.1821 34.0058C53.6148 34.0058 53.9704 33.6562 53.9704 33.2251V24.7834C54.0001 23.5366 53.2947 22.4122 52.1625 21.8529ZM39.6257 11.4886V10.7604C39.6257 8.89611 41.1669 7.38138 43.0637 7.38138H44.7531C46.6499 7.38138 48.1911 8.89611 48.1911 10.7604V11.6226C44.7531 11.442 42.6784 10.1254 42.6547 10.1079C42.5184 10.0205 42.3702 9.97973 42.2161 9.97973C42.0146 9.97973 41.8071 10.0555 41.6589 10.2069C40.9002 10.9527 40.1592 11.3139 39.6257 11.4886ZM43.9114 21.3053L42.0857 19.5051C42.139 19.307 42.1687 19.0973 42.1687 18.8817V18.7186C42.714 18.9167 43.3008 19.0274 43.9114 19.0274C44.5219 19.0274 45.1147 18.9167 45.6541 18.7186V18.8817C45.6541 19.0973 45.6837 19.307 45.7371 19.5051L43.9114 21.3053ZM43.9114 17.4719C42.0146 17.4719 40.4734 15.9571 40.4734 14.0928V12.8403C41.0246 12.6247 41.6708 12.2751 42.3287 11.7275C43.1586 12.1528 44.8953 12.8869 47.3434 13.1316V14.0987C47.3493 15.9513 45.8023 17.4719 43.9114 17.4719Z" fill="black"/>
<path d="M12.9814 22.5405L12.2286 22.1676C11.9203 22.0161 11.7307 21.7132 11.7307 21.3753V19.6625C13.1651 18.6895 14.1254 17.0991 14.2439 15.293L12.6791 15.1474C12.5546 17.3612 10.6874 19.1265 8.4053 19.1265C6.04613 19.1265 4.12561 17.2389 4.12561 14.9143V14.7512L2.54295 14.9143C2.54295 16.8835 3.55063 18.6196 5.07994 19.6625V21.3753C5.07994 21.7132 4.89026 22.0161 4.58203 22.1676L1.83757 23.5192C0.705409 24.0785 3.05176e-05 25.1971 3.05176e-05 26.4438V33.2194C3.05176e-05 33.6505 0.355684 34 0.788395 34C1.22111 34 1.57676 33.6505 1.57676 33.2194V26.7817L2.86304 28.0518C3.19498 28.378 3.37281 28.8091 3.37281 29.2636V33.2194C3.37281 33.6505 3.72846 34 4.16117 34C4.59388 34 4.94954 33.6505 4.94954 33.2194V29.2636C4.94954 28.3897 4.60574 27.5682 3.97742 26.9507L2.19322 25.1854C2.1873 25.1796 2.17544 25.1679 2.16359 25.1621C2.27621 25.0631 2.40069 24.9815 2.54295 24.9116L5.28148 23.5658C5.42374 23.4959 5.55415 23.4143 5.6727 23.327L7.60508 25.232V33.231C7.60508 33.6621 7.96073 34.0117 8.39344 34.0117C8.83208 34.0117 9.18181 33.6621 9.18181 33.231V25.2262L11.1142 23.3211C11.2387 23.4143 11.3691 23.4959 11.5054 23.56L12.2582 23.9329C12.3708 23.9911 12.4953 24.0144 12.6139 24.0144C12.9043 24.0144 13.1829 23.8571 13.3192 23.5833C13.5267 23.2046 13.3726 22.7327 12.9814 22.5405ZM8.39937 23.8047L6.57369 22.0045C6.62703 21.8064 6.65667 21.5967 6.65667 21.3811V20.4315C7.20793 20.6004 7.79476 20.6936 8.39937 20.6936C9.00398 20.6936 9.59081 20.6004 10.1421 20.4315V21.3811C10.1421 21.5967 10.1717 21.8064 10.2251 22.0045L8.39937 23.8047Z" fill="black"/>
<path d="M14.2618 13.2597C14.2618 11.2265 13.1889 9.44377 11.5707 8.41258C11.6715 8.09798 11.7248 7.7659 11.7248 7.43383C11.7248 5.6278 10.2311 4.15967 8.39946 4.15967C6.56192 4.15967 5.0741 5.6278 5.0741 7.43383C5.0741 7.77173 5.12745 8.09798 5.22822 8.41258C3.61 9.44377 2.53711 11.2265 2.53711 13.2597V14.9259L4.11977 14.7628C4.74809 14.623 5.68464 14.2909 6.66269 13.5161C7.00648 13.8365 7.49847 14.2268 8.12679 14.5647C8.86774 14.9609 9.89913 15.3338 11.1498 15.3338C11.624 15.3338 12.1338 15.2813 12.6732 15.1532L14.2381 15.2988C14.244 15.1706 14.2618 15.0483 14.2618 14.9201V13.2597ZM8.39946 5.71519C9.35972 5.71519 10.1422 6.48421 10.1422 7.43383C10.1422 7.53869 10.1303 7.63773 10.1125 7.7426C9.56719 7.57948 8.99221 7.49209 8.39353 7.49209C7.79485 7.49209 7.21988 7.57948 6.68047 7.7426C6.66269 7.64356 6.65083 7.53869 6.65083 7.43383C6.65676 6.48421 7.4392 5.71519 8.39946 5.71519ZM12.6851 13.5394C9.38936 14.5298 7.42734 12.0654 7.34436 11.9606C7.20802 11.78 6.99463 11.6693 6.76938 11.6518C6.53821 11.6343 6.31889 11.7159 6.15292 11.879C5.40012 12.6247 4.65917 12.9801 4.12569 13.1549C4.18497 10.8828 6.08179 9.0476 8.40539 9.0476C10.7646 9.0476 12.6851 10.9352 12.6851 13.2597V13.5394Z" fill="#D64356"/>
</g>
<defs>
<clipPath id="clip0">
<rect width="54" height="34" fill="white"/>
</clipPath>
</defs>
</svg>
