<svg width="44" height="45" viewBox="0 0 44 45" fill="none" xmlns="http://www.w3.org/2000/svg">
<path d="M42.7674 43.2418H35.2197L35.1736 21.6408C35.1725 21.1559 34.7792 20.7636 34.2946 20.7636H34.2926C33.8071 20.7647 33.4144 21.1591 33.4155 21.6446L33.4616 43.2418H30.9085L30.8859 33.6312C30.8848 33.1464 30.4915 32.7542 30.0069 32.7542H30.0048C29.5193 32.7553 29.1266 33.1498 29.1278 33.6353L29.1504 43.2418H27.016V31.6086C29.5042 31.3886 31.4605 29.344 31.4605 26.8611V18.3424C31.4605 16.9879 31.1731 15.6601 30.6234 14.4338C32.3593 14.5498 33.9752 15.2561 35.2183 16.4565C36.5787 17.7701 37.33 19.5168 37.3339 21.3758L37.35 26.3782C37.3516 26.8627 37.7448 27.2544 38.229 27.2544H38.2319C38.7173 27.2529 39.1097 26.8581 39.1082 26.3725L39.0921 21.3711C39.0871 19.0332 38.1451 16.8387 36.4395 15.1918C35.4654 14.2511 34.3083 13.5544 33.0472 13.1317C33.9405 12.2816 34.4979 11.0819 34.495 9.75436C34.4895 7.19306 32.4041 5.11312 29.844 5.11312C29.8406 5.11312 29.8372 5.11312 29.8339 5.11312C29.0881 5.11479 28.3465 5.29743 27.6893 5.64135C27.2592 5.86652 27.093 6.39773 27.3182 6.82787C27.5434 7.25801 28.0747 7.42421 28.5047 7.19903C28.9183 6.98256 29.3668 6.87226 29.8378 6.8712C31.4356 6.87041 32.7336 8.16284 32.7371 9.75806C32.7405 11.3533 31.4454 12.6539 29.8502 12.6573C29.8123 12.6574 29.7753 12.6606 29.7388 12.6654C29.692 12.6673 29.6452 12.669 29.5983 12.6716C28.3283 10.9335 26.5453 9.67263 24.5147 9.03278C25.5928 8.0869 26.2754 6.70061 26.2754 5.15698C26.2751 2.31337 23.9618 0 21.1183 0C18.2747 0 15.9613 2.31337 15.9613 5.15698C15.9613 6.7754 16.7113 8.22138 17.8814 9.16752C16.0174 9.84023 14.3839 11.0453 13.1976 12.6666C13.0583 12.6604 12.9193 12.6567 12.781 12.6567C12.7152 12.6567 12.6497 12.6577 12.5842 12.6592C12.5681 12.6583 12.5523 12.6567 12.536 12.6567C10.9408 12.6567 9.64301 11.3589 9.64301 9.76368C9.64301 8.16847 10.9408 6.87067 12.536 6.87067C13.0182 6.87067 13.4952 6.99144 13.9153 7.21986C14.3418 7.45163 14.8755 7.29396 15.1075 6.86742C15.3394 6.44089 15.1816 5.90713 14.7551 5.67519C14.078 5.30701 13.3106 5.11242 12.5359 5.11242C9.97128 5.11242 7.88476 7.19895 7.88476 9.76359C7.88476 11.1602 8.50438 12.414 9.48208 13.2674C6.15867 14.5489 3.80241 17.7069 3.80241 21.3902V26.3754C3.80241 26.8609 4.19599 27.2544 4.68149 27.2544C5.167 27.2544 5.56058 26.8609 5.56058 26.3754V21.3902C5.56058 17.7445 8.47116 14.7451 12.165 14.442C11.6177 15.6659 11.3315 16.9907 11.3315 18.3424V26.8611C11.3315 29.3931 13.3659 31.4695 15.9242 31.6196V43.2417H13.5294V33.6329C13.5294 33.1474 13.1358 32.7538 12.6503 32.7538C12.1648 32.7538 11.7712 33.1474 11.7712 33.6329V43.2418H9.61031V21.6515C9.61031 21.166 9.21674 20.7724 8.73123 20.7724C8.24572 20.7724 7.85215 21.166 7.85215 21.6515V43.2418H0.879082C0.393574 43.2418 0 43.6354 0 44.1209C0 44.6064 0.393486 45 0.879082 45H42.7675C43.253 45 43.6466 44.6064 43.6466 44.1209C43.6464 43.6354 43.2529 43.2418 42.7674 43.2418ZM17.7194 5.15698C17.7194 3.28289 19.2441 1.75816 21.1182 1.75816C22.9923 1.75816 24.5169 3.28289 24.5169 5.15698C24.5169 7.03107 22.9922 8.5558 21.1182 8.5558C19.2442 8.5558 17.7194 7.03107 17.7194 5.15698ZM26.1368 17.7597C25.6513 17.7597 25.2577 18.1533 25.2577 18.6388V43.2418H22.1269V31.0121C22.1269 30.5266 21.7333 30.133 21.2478 30.133C20.7623 30.133 20.3687 30.5266 20.3687 31.0121V43.2419H17.6824V18.6388C17.6824 18.1533 17.2888 17.7597 16.8033 17.7597C16.3178 17.7597 15.9242 18.1533 15.9242 18.6388V29.8572C14.3363 29.7131 13.0896 28.4247 13.0896 26.8612V18.3425C13.0896 16.8211 13.532 15.3403 14.3691 14.0601C15.9029 11.7144 18.5298 10.314 21.3959 10.314C24.2668 10.314 26.896 11.718 28.429 14.0699C29.2619 15.3478 29.7023 16.8253 29.7023 18.3425V26.8612C29.7023 28.3758 28.5325 29.632 27.0159 29.8403V18.6388C27.016 18.1533 26.6223 17.7597 26.1368 17.7597Z" fill="black"/>
<circle cx="21.1673" cy="5.22981" r="4.22981" stroke="#D64356" stroke-width="2"/>
</svg>
