<svg width="45" height="46" viewBox="0 0 45 46" fill="none" xmlns="http://www.w3.org/2000/svg">
<g clip-path="url(#clip0)">
<path d="M37.6349 32.3313L35.118 29.7699C34.8607 29.5076 34.4504 29.4729 34.1528 29.6882L23.1868 37.7661L19.3038 35.9396L22.7116 35.561C23.0866 35.5157 23.3677 35.1962 23.365 34.8185V31.6111C23.365 31.2011 23.0326 30.8687 22.6225 30.8687H18.9103L12.6588 30.2302C12.5321 30.2178 12.4042 30.2383 12.2876 30.2896L8.02593 32.116H3.05176e-05V33.6009H8.18185C8.28384 33.6017 8.385 33.5815 8.47883 33.5415L12.7034 31.6928L18.7989 32.3165H21.9098V34.1578L19.1627 34.4993L15.1757 34.0761C14.8166 34.0415 14.4845 34.2701 14.3887 34.6181C14.292 34.9647 14.4579 35.3308 14.7822 35.4867L23.016 39.2732C23.2589 39.3837 23.5423 39.3554 23.7585 39.199L34.5537 31.2696L36.0386 32.8139L23.6323 43.6537H20.269L8.42686 39.251C8.34408 39.2182 8.256 39.2006 8.167 39.199H3.05176e-05V40.6839H8.04078L19.8755 45.0941C19.9587 45.1243 20.0467 45.1393 20.1353 45.1386H23.907C24.0875 45.1383 24.2617 45.0723 24.397 44.953L37.5978 33.4153C37.6103 33.4044 37.6225 33.393 37.6342 33.3813C37.9244 33.0916 37.9247 32.6214 37.6349 32.3313Z" fill="black"/>
<path d="M39.6098 19.1528L35.6897 15.0767C35.5649 14.9444 35.3958 14.8625 35.2145 14.8466L27.1961 14.1041H24.1372L24.2856 11.8768L27.1886 11.2902L31.2424 12.196C31.3259 12.2104 31.4113 12.2104 31.4948 12.196L35.4373 11.7283L35.2591 10.2434L31.4429 10.6517L27.3594 9.74594C27.2595 9.72014 27.1548 9.72014 27.055 9.74594L23.4392 10.4884C23.1064 10.5522 22.8589 10.8332 22.8379 11.1715L22.6003 14.7872C22.5994 14.8025 22.5989 14.8177 22.599 14.833C22.5997 15.2431 22.9327 15.5749 23.3427 15.5742H27.1292L34.8062 16.2721L38.756 20.4075C38.8955 20.5538 39.0885 20.637 39.2906 20.6377H44.5471V19.1528H39.6098Z" fill="black"/>
<path d="M38.318 3.69497C38.2359 3.62852 38.1392 3.58267 38.0358 3.56133L25.4141 0.59152C25.2003 0.546694 24.9777 0.598294 24.8053 0.732585L16.6384 6.6722L17.5145 7.87497L25.4067 2.13582L37.5384 4.98683L44.0942 10.0875L45 8.89213L38.318 3.69497Z" fill="black"/>
<path d="M26.2605 5.12789C26.0669 5.04084 25.8453 5.04084 25.6517 5.12789L21.197 7.35524L21.8652 8.67681L26.023 6.60537L29.4234 7.99375L29.9728 6.61279L26.2605 5.12789Z" fill="black"/>
<path d="M18.5836 13.3543L17.2769 13.1612C16.6829 13.0721 16.334 12.842 16.334 12.4707C16.334 12.0995 16.8537 11.7283 17.5516 11.7654H18.0861C18.7841 11.7654 19.3038 12.1366 19.3038 12.4707V12.6712H20.7887V12.4707C20.7887 11.2086 19.6008 10.2434 18.0861 10.2434H17.5516C16.037 10.2434 14.8491 11.2086 14.8491 12.4707C14.9709 13.6287 15.9139 14.5278 17.0764 14.5942L18.3609 14.7872C18.9548 14.8763 19.3038 15.1436 19.3038 15.4777C19.3038 15.8118 18.7841 16.183 18.0861 16.183H17.5516C16.8537 16.183 16.334 15.8118 16.334 15.4777V15.2772H14.8491V15.4777C14.8491 16.7027 16.0667 17.6679 17.5516 17.6679H18.0861C19.6008 17.6679 20.7887 16.7027 20.8109 15.5148C20.7063 14.3423 19.7588 13.4232 18.5836 13.3543Z" fill="#D64356"/>
<path d="M23.7065 14.7352C23.4365 16.7547 22.1503 18.4948 20.299 19.3454C17.3183 20.7149 13.7916 19.4087 12.4221 16.4279C11.0525 13.4472 12.3588 9.92052 15.3395 8.55098C18.3203 7.18143 21.8469 8.48768 23.2165 11.4684L24.5603 10.8448C23.3469 8.2152 20.7152 6.53114 17.819 6.53114C13.7186 6.53104 10.3944 9.85509 10.3944 13.9556C10.3943 18.056 13.7184 21.3801 17.8189 21.3802C21.5454 21.3867 24.6995 18.6297 25.1914 14.9357L23.7065 14.7352Z" fill="black"/>
<path d="M18.5613 9.5014H17.0764V10.9863H18.5613V9.5014Z" fill="#D64356"/>
</g>
<defs>
<clipPath id="clip0">
<rect width="45" height="45" fill="white" transform="translate(3.05176e-05 0.357178)"/>
</clipPath>
</defs>
</svg>
