<svg width="42" height="60" viewBox="0 0 42 60" fill="none" xmlns="http://www.w3.org/2000/svg">
<path d="M21 16.0447C14.4075 16.0447 9.04419 21.408 9.04419 28.0005C9.04419 34.593 14.4075 39.9563 21 39.9563C27.5925 39.9563 32.9558 34.593 32.9558 28.0005C32.9558 21.408 27.5924 16.0447 21 16.0447ZM29.2146 23.0154H26.1473C25.9188 21.8898 25.6122 20.8467 25.2328 19.9279C25.1318 19.6833 25.026 19.4496 24.9162 19.2266C26.7031 20.0272 28.2037 21.3556 29.2146 23.0154ZM18.9336 20.8228C19.5444 19.3444 20.3556 18.3889 21 18.3889C21.6444 18.3889 22.4556 19.3442 23.0662 20.8228C23.3381 21.4813 23.5667 22.2197 23.7505 23.0152H18.2493C18.4332 22.2197 18.6616 21.4815 18.9336 20.8228ZM11.7604 30.6416C11.5199 29.8018 11.3884 28.9166 11.3884 28.0005C11.3884 27.0846 11.5199 26.1993 11.7604 25.3595H15.5031C15.4182 26.2164 15.3737 27.1009 15.3737 28.0005C15.3737 28.9002 15.4184 29.7846 15.5031 30.6416H11.7604ZM12.7853 32.9859H15.8525C16.0811 34.1115 16.3876 35.1546 16.7671 36.0733C16.8681 36.318 16.9738 36.5517 17.0837 36.7746C15.2967 35.9739 13.7961 34.6455 12.7853 32.9859ZM16.7669 19.9279C16.3875 20.8467 16.0811 21.8898 15.8524 23.0154H12.7852C13.796 21.3558 15.2967 20.0272 17.0835 19.2266C16.9738 19.4496 16.8681 19.6831 16.7669 19.9279ZM23.0664 35.1782C22.4556 36.6568 21.6444 37.6121 21 37.6121C20.3556 37.6121 19.5444 36.6568 18.9337 35.1782C18.6619 34.5198 18.4332 33.7814 18.2495 32.9859H23.7507C23.5667 33.7815 23.3382 34.5198 23.0664 35.1782ZM24.141 30.6416H17.8588C17.7666 29.7923 17.718 28.9068 17.718 28.0005C17.718 27.0942 17.7667 26.2087 17.8588 25.3595H24.1411C24.2333 26.2087 24.2818 27.0941 24.2818 28.0005C24.2818 28.9068 24.2332 29.7924 24.141 30.6416ZM24.9163 36.7746C25.0261 36.5515 25.1318 36.3179 25.2329 36.0733C25.6124 35.1546 25.9188 34.1115 26.1474 32.9859H29.2146C28.2036 34.6455 26.7031 35.9739 24.9163 36.7746ZM26.4967 30.6417C26.5815 29.7847 26.626 28.9003 26.626 28.0006C26.6262 27.101 26.5815 26.2166 26.4967 25.3596H30.2394C30.4797 26.1993 30.6113 27.0846 30.6113 28.0006C30.6113 28.9167 30.4799 29.8018 30.2394 30.6417H26.4967Z" fill="#CD4051"/>
<path d="M33.0812 43.1572C32.8633 42.9392 32.5609 42.8136 32.2525 42.8136C31.9442 42.8136 31.6419 42.939 31.4238 43.1572C31.2058 43.3763 31.0803 43.6775 31.0803 43.9871C31.0803 44.2954 31.2056 44.5978 31.4238 44.8147C31.6418 45.0337 31.9442 45.1593 32.2525 45.1593C32.5609 45.1593 32.8632 45.0339 33.0812 44.8147C33.2991 44.5968 33.4248 44.2954 33.4248 43.9871C33.4248 43.6775 33.2993 43.3763 33.0812 43.1572Z" fill="#000"/>
<path d="M27.2124 42.8143H9.74755C9.10032 42.8143 8.57544 43.3392 8.57544 43.9864C8.57544 44.6336 9.10032 45.1585 9.74755 45.1585H27.2124C27.8597 45.1585 28.3845 44.6336 28.3845 43.9864C28.3845 43.3392 27.8597 42.8143 27.2124 42.8143Z" fill="#000"/>
<path d="M25.5126 47.9269H16.4872C15.8399 47.9269 15.3151 48.4518 15.3151 49.099C15.3151 49.7462 15.8399 50.2711 16.4872 50.2711H25.5126C26.1598 50.2711 26.6847 49.7462 26.6847 49.099C26.6847 48.4518 26.1599 47.9269 25.5126 47.9269Z" fill="#000"/>
<path d="M40.2231 27.471C40.8703 27.471 41.3952 26.9463 41.3952 26.2989V12.1767C41.3952 9.79416 39.9654 7.74057 37.9195 6.82534V4.41796C37.9195 3.08836 37.3295 1.84277 36.3009 1.00043C35.2722 0.158087 33.9349 -0.174373 32.6314 0.0874233L1.54581 6.33901C1.54569 6.33901 1.54558 6.33901 1.54546 6.33913C1.53948 6.3403 1.53374 6.34194 1.52776 6.34323C1.50468 6.34827 1.4837 6.35366 1.46448 6.35952C0.969132 6.4964 0.604797 6.94921 0.604797 7.48815V58.8278C0.604797 59.475 1.12968 59.9999 1.7769 59.9999H35.5345C38.766 59.9999 41.3951 57.3708 41.3951 54.1392V37.1499C41.3951 36.5027 40.8702 35.9778 40.223 35.9778C39.5758 35.9778 39.0509 36.5027 39.0509 37.1499V54.1392C39.0509 56.0782 37.4734 57.6557 35.5345 57.6557H2.94913V8.66026H35.5346C37.4736 8.66026 39.051 10.2377 39.051 12.1767V26.2989C39.0509 26.9463 39.5758 27.471 40.2231 27.471ZM35.5751 6.31698C35.5615 6.31686 35.5482 6.31593 35.5345 6.31593H13.5505L33.0937 2.3857C33.7054 2.26289 34.3329 2.41875 34.8155 2.81414C35.2982 3.20953 35.575 3.79394 35.575 4.41796V6.31698H35.5751Z" fill="#000"/>
<path d="M41.0518 30.9843C40.8339 30.7665 40.5314 30.642 40.2231 30.642C39.9148 30.642 39.6125 30.7664 39.3944 30.9843C39.1764 31.2035 39.0509 31.5048 39.0509 31.8143C39.0509 32.1226 39.1762 32.4249 39.3944 32.643C39.6125 32.861 39.9148 32.9865 40.2231 32.9865C40.5314 32.9865 40.8338 32.8612 41.0518 32.643C41.2697 32.425 41.3953 32.1226 41.3953 31.8143C41.3953 31.5048 41.27 31.2023 41.0518 30.9843Z" fill="#000"/>
</svg>
