<svg width="55" height="52" viewBox="0 0 55 52" fill="none" xmlns="http://www.w3.org/2000/svg">
<path d="M22 26.4154C21.9225 26.4154 21.8451 26.4154 21.7676 26.4154C19.831 25.9506 18.0493 24.7887 16.8099 23.0844C15.5704 21.3802 14.8732 19.2887 14.8732 17.1196C14.8732 11.9295 18.8239 7.66895 23.6268 7.66895C27.8099 7.66895 31.3732 10.845 32.2254 15.2605C32.3028 15.4929 32.2254 15.8027 32.0704 16.0351C31.9155 16.2675 31.6831 16.4225 31.4507 16.4999C31.3732 16.4999 31.2958 16.4999 31.2183 16.4999C30.7535 16.4999 30.2887 16.1126 30.2113 15.6478C29.5916 12.2394 26.8028 9.76049 23.6268 9.76049C19.9085 9.76049 16.8873 13.0915 16.8873 17.1971C16.8873 20.683 19.1338 23.7042 22.2324 24.4788C22.4648 24.5563 22.6972 24.7112 22.8521 24.9436C23.007 25.176 23.007 25.4858 23.007 25.7182C22.9296 26.0281 22.4648 26.4154 22 26.4154Z" fill="#D64356"/>
<path d="M6.73944 34.2394C3.02113 34.2394 0 31.2183 0 27.5V6.73944C0 3.02113 3.02113 0 6.73944 0H40.4366C44.2324 0 47.2535 3.02113 47.2535 6.73944V15.2606C47.2535 15.8028 46.7887 16.2676 46.2465 16.2676C45.7042 16.2676 45.2394 15.8028 45.2394 15.2606V6.73944C45.2394 4.10563 43.1479 2.01408 40.5141 2.01408H6.73944C4.10563 2.01408 2.01408 4.10563 2.01408 6.73944V27.4225C2.01408 30.0563 4.10563 32.1479 6.73944 32.1479H23.6268C24.169 32.1479 24.6338 32.6127 24.6338 33.1549C24.6338 33.6972 24.169 34.162 23.6268 34.162H6.73944V34.2394Z" fill="black"/>
<path d="M30.2113 44.6196C29.9789 44.6196 29.7465 44.5422 29.5915 44.3872C29.1268 44.0774 29.0493 43.3802 29.3591 42.9154L44.4648 22.2323C44.6972 21.9999 44.9296 21.845 45.3169 21.845C45.5493 21.845 45.7817 21.9224 45.9366 22.0774C46.4014 22.3872 46.4789 23.0844 46.169 23.5492L31.0634 44.2323C30.9084 44.4647 30.5986 44.6196 30.2113 44.6196Z" fill="black"/>
<path d="M43.3803 44.6972C41.2113 44.6972 39.507 42.9155 39.507 40.8239C39.507 38.6549 41.2887 36.9507 43.3803 36.9507C45.4718 36.9507 47.2535 38.7324 47.2535 40.8239C47.2535 42.9155 45.5493 44.6972 43.3803 44.6972ZM43.3803 38.9648C42.3732 38.9648 41.5211 39.8169 41.5211 40.8239C41.5211 41.831 42.3732 42.6831 43.3803 42.6831C44.3873 42.6831 45.2394 41.831 45.2394 40.8239C45.2394 39.8169 44.3873 38.9648 43.3803 38.9648Z" fill="black"/>
<path d="M32.1479 29.3591C31.1408 29.3591 30.1338 28.9718 29.3592 28.1971C28.5845 27.4225 28.1972 26.4929 28.1972 25.4084C28.1972 23.2394 29.9789 21.5352 32.0704 21.5352C34.162 21.5352 35.9437 23.3168 35.9437 25.4084C35.9437 27.4999 34.3169 29.3591 32.1479 29.3591ZM32.1479 23.6267C31.1408 23.6267 30.2887 24.4788 30.2887 25.4859C30.2887 26.4929 31.1408 27.345 32.1479 27.345C33.1549 27.345 34.007 26.4929 34.007 25.4859C34.007 24.4788 33.1549 23.6267 32.1479 23.6267Z" fill="black"/>
</svg>
