<svg width="52" height="55" viewBox="0 0 52 55" fill="none" xmlns="http://www.w3.org/2000/svg">
<path d="M40.7525 36.8398L35.1891 42.1091L32.905 39.7346C32.4753 39.2823 31.7516 39.2597 31.2993 39.712C30.847 40.1416 30.8244 40.8653 31.2767 41.3176L34.3298 44.5063C34.5559 44.7325 34.8499 44.8456 35.1439 44.8456C35.4153 44.8456 35.7093 44.7325 35.9354 44.529L42.3129 38.4681C42.7652 38.0384 42.7878 37.3148 42.3581 36.8625C41.9284 36.4102 41.2048 36.3875 40.7525 36.8398Z" fill="#D64356"/>
<path d="M50.952 38.3552L50.7937 37.4053H49.2784C48.9844 37.4053 48.6904 37.4053 48.3965 37.4053C48.1477 36.5007 47.7858 35.6414 47.3109 34.8272C47.6502 34.488 47.9668 34.1488 48.306 33.8321L49.0071 33.1537L48.4417 32.3622C47.5145 31.0957 46.4063 29.9876 45.1399 29.0603L44.3483 28.495L43.6699 29.196C43.4664 29.3996 43.2402 29.6257 43.0367 29.8293C42.9236 29.9423 42.7879 30.078 42.6748 30.1911C41.8607 29.7388 40.9787 29.377 40.0741 29.1282V28.4271C40.0741 28.201 40.0741 27.9748 40.0741 27.7034V26.731L39.1243 26.5727C37.6317 26.3239 36.0486 26.3239 34.556 26.5727L33.5609 26.7536L33.6062 27.7713C33.6062 27.9974 33.6062 28.2236 33.6062 28.4497V28.7664V29.1282C32.7016 29.377 31.8422 29.7388 31.0054 30.1911C30.8697 30.0554 30.7567 29.9423 30.621 29.8066C30.4174 29.6031 30.1913 29.3996 29.9877 29.1734L29.3093 28.4724L28.5178 29.0377C27.2287 29.9423 26.1206 31.0505 25.216 32.3395L24.6506 33.1311L25.3516 33.8095C25.6909 34.1488 26.0301 34.4654 26.3467 34.8046C25.8944 35.6187 25.5326 36.5007 25.2612 37.3827C24.9672 37.3827 24.6732 37.3827 24.3792 37.3827H22.864L22.7057 38.3326C22.57 39.1015 22.5247 39.893 22.5247 40.6619C22.5247 41.4308 22.5926 42.2224 22.7057 42.9913L22.8414 43.8506L23.859 43.9411H23.9269C24.1304 43.9411 24.3566 43.9411 24.5601 43.9411C24.7863 43.9411 25.035 43.9411 25.2612 43.9411C25.5099 44.8683 25.8944 45.7277 26.3467 46.5645C26.1884 46.7228 26.0301 46.8811 25.8944 47.0168L25.4873 47.4238C25.4195 47.4917 25.3516 47.5595 25.3064 47.6048L24.6732 48.2832L25.216 49.0295C26.1206 50.296 27.2287 51.3815 28.4951 52.2861L29.2188 52.8062L29.8973 52.2183L30.0104 52.1052C30.2591 51.8338 30.5079 51.585 30.7793 51.3363C30.8471 51.2684 30.915 51.2006 30.9828 51.1327C31.8196 51.585 32.6789 51.9469 33.5835 52.1956C33.5835 52.3539 33.5835 52.5122 33.5835 52.6932C33.5835 52.9872 33.5835 53.2812 33.5835 53.5978L33.6514 54.6155L34.556 54.7511C35.3023 54.8642 36.0712 54.9321 36.8401 54.9321C37.609 54.9321 38.378 54.8642 39.1243 54.7511L40.0967 54.5476L40.0741 53.5525C40.0741 53.2585 40.0741 52.9872 40.0741 52.6932C40.0741 52.5349 40.0741 52.3539 40.0741 52.1956C40.9787 51.9469 41.8607 51.585 42.6748 51.1327C42.7427 51.2006 42.8105 51.2684 42.8557 51.3136C43.1045 51.5624 43.3759 51.8338 43.6247 52.0826L44.3936 52.8062L45.1399 52.2635C46.4063 51.3589 47.5145 50.2507 48.4191 49.0069L48.9618 48.238L48.3286 47.5595C48.2834 47.5143 48.2155 47.4465 48.1477 47.3786L47.7406 46.9715C47.5823 46.8132 47.4466 46.6775 47.2883 46.5192C47.7632 45.6825 48.1251 44.8005 48.3738 43.8959C48.4417 43.8959 48.5095 43.8959 48.5774 43.8959C48.9392 43.8959 49.3237 43.8959 49.6855 43.8959L50.7937 43.8054L50.9293 42.946C51.065 42.1771 51.1103 41.4082 51.1103 40.6167C51.1329 39.9156 51.0877 39.1241 50.952 38.3552ZM48.8261 41.6796C48.7583 41.6796 48.6678 41.6796 48.6 41.6796C48.2608 41.6796 47.9215 41.6796 47.5823 41.6796L46.542 41.7927L46.3837 42.6068C46.1349 43.8733 45.6374 45.0493 44.9137 46.1122L44.484 46.768L44.9363 47.4012C45.0042 47.4917 45.0946 47.6048 45.1851 47.6952C45.4565 47.9666 45.7279 48.238 45.9993 48.5094C45.5696 49.0069 45.0946 49.4818 44.5971 49.9115C44.5519 49.8663 44.5067 49.821 44.484 49.7984C44.2579 49.5723 44.0091 49.3235 43.783 49.0974C43.6925 49.0069 43.5794 48.9164 43.4664 48.8486L42.8331 48.4415L42.1999 48.8486C41.137 49.5497 39.961 50.0472 38.6946 50.296L37.9935 50.4317L37.8126 51.1327C37.7673 51.291 37.7673 51.4493 37.7673 51.6303C37.7673 51.9921 37.7673 52.3766 37.7673 52.7384C37.1341 52.7836 36.4783 52.7836 35.8451 52.7384C35.8451 52.3766 35.8451 51.9921 35.8451 51.6303C35.8451 51.4493 35.8224 51.291 35.7998 51.1327L35.6189 50.4317L34.9178 50.296C33.674 50.0472 32.498 49.5723 31.4125 48.8486L30.7793 48.4415L30.146 48.8486C30.033 48.9164 29.9425 49.0069 29.852 49.0974C29.6259 49.3461 29.3771 49.5723 29.151 49.821C29.1058 49.8663 29.0831 49.8889 29.0379 49.9341C28.5404 49.5044 28.0655 49.0521 27.6358 48.532C27.9072 48.2606 28.1785 47.9892 28.4499 47.7178C28.563 47.6274 28.6308 47.5143 28.6987 47.4238L29.1284 46.7906L28.6987 46.1574C27.975 45.0945 27.4775 43.8959 27.2287 42.652L27.0704 41.8379L26.0979 41.7248H26.0301C25.8492 41.7248 25.6683 41.7248 25.4873 41.7248C25.2386 41.7248 25.0124 41.7248 24.7863 41.7248C24.7636 41.3856 24.741 41.069 24.741 40.7298C24.741 40.3905 24.7636 40.0513 24.7863 39.7121C25.1481 39.7121 25.5099 39.7121 25.8492 39.7347C26.0301 39.7347 26.211 39.7121 26.3919 39.6895L27.0704 39.5085L27.2061 38.8075C27.4548 37.5636 27.9298 36.4103 28.6535 35.3474L29.0605 34.7367L28.6761 34.1035C28.563 33.9226 28.4273 33.7643 28.2916 33.6512L27.9976 33.3572C27.8619 33.2215 27.7262 33.0858 27.5905 32.9502C28.0202 32.43 28.4951 31.9551 29.0153 31.5254C29.2641 31.7742 29.5354 32.0229 29.7842 32.2943C29.9651 32.4752 30.146 32.6109 30.327 32.7014L30.8923 32.9502L31.4125 32.6109C32.4754 31.9099 33.6514 31.4349 34.8952 31.1862L35.5963 31.0505L35.7772 30.372C35.8224 30.2137 35.8224 30.0554 35.8224 29.8971C35.8224 29.6483 35.8224 29.3996 35.8224 29.1508V28.7664C36.4557 28.7211 37.1115 28.7211 37.7447 28.7664V29.1508C37.7447 29.3996 37.7447 29.6483 37.7447 29.8971C37.7447 30.078 37.7673 30.2137 37.79 30.372L37.9709 31.0505L38.6719 31.1862C39.9158 31.4349 41.0918 31.9099 42.1547 32.6109L42.6748 32.9502L43.2402 32.7014C43.489 32.5883 43.6699 32.43 43.783 32.3169C44.0317 32.0682 44.2805 31.7968 44.5519 31.548C45.072 31.9777 45.5469 32.4526 45.9766 32.9728C45.8183 33.1311 45.6826 33.2668 45.5243 33.4251L45.2756 33.6738C45.1173 33.8321 45.0042 33.9678 44.8911 34.1261L44.484 34.7594L44.8911 35.37C45.5922 36.4329 46.0897 37.5863 46.3385 38.8301L46.4742 39.5312L47.1752 39.7121C47.3335 39.7573 47.5145 39.7799 47.718 39.7573C48.0798 39.7347 48.4417 39.7347 48.7809 39.7347C48.8035 40.0739 48.8261 40.4131 48.8261 40.7524C48.8714 41.0238 48.8488 41.363 48.8261 41.6796Z" fill="black"/>
<path d="M10.9458 13.0037C14.5416 13.0037 17.4589 10.0864 17.4589 6.49055C17.4589 2.89474 14.5416 0 10.9458 0C7.34997 0 4.43262 2.91735 4.43262 6.49055C4.43262 10.0637 7.37259 13.0037 10.9458 13.0037ZM10.9458 2.26151C13.2751 2.26151 15.1748 4.16119 15.1748 6.49055C15.1748 8.81991 13.2751 10.7196 10.9458 10.7196C8.61642 10.7196 6.71675 8.81991 6.71675 6.49055C6.71675 4.16119 8.61642 2.26151 10.9458 2.26151Z" fill="black"/>
<path d="M18.7706 21.7557C18.1374 21.7105 17.5946 22.1854 17.5494 22.8187L16.5543 37.3828C16.5543 37.428 16.5317 37.4733 16.5317 37.4959L15.6045 51.6529C15.5592 52.2636 15.0617 52.7159 14.4737 52.7159H7.44039C6.82978 52.7159 6.33224 52.2409 6.30963 51.6529L5.38241 37.4959C5.35979 37.021 5.02056 36.6139 4.56826 36.4782C3.25658 36.0711 3.25658 36.0711 3.14351 34.6238L2.30675 19.6073V19.4942C3.55058 19.1324 5.63117 18.4539 6.67147 18.1373L10.1768 21.4165C10.6065 21.8236 11.3076 21.8236 11.7373 21.4165L15.2878 18.0921L25.6908 20.4441C25.8491 20.4893 26.0074 20.4893 26.1657 20.4441L35.9807 18.4313C36.5913 18.2956 36.9984 17.7076 36.8627 17.097C36.727 16.4864 36.139 16.0793 35.5284 16.215L25.9622 18.1826L15.1974 15.7401C14.8355 15.6497 14.4511 15.7627 14.1571 16.0115L10.9457 19.0193L7.73438 16.0115C7.44039 15.7175 7.0107 15.627 6.60363 15.7627C6.60363 15.7627 3.2792 16.8256 1.58306 17.3232C0.565379 17.6398 0 18.4087 0 19.449C0 19.5395 0 19.6978 0 19.7204L0.836761 34.5333L0.859376 34.7821C1.01768 37.0436 1.40214 37.7673 3.14351 38.4005L4.0255 51.7886C4.13857 53.5752 5.65379 55 7.44039 55H14.4737C16.2603 55 17.7755 53.5978 17.8886 51.7886L18.8158 37.7446C18.8158 37.6994 18.8158 37.6768 18.8384 37.6316L19.8561 22.9543C19.8787 22.3437 19.4038 21.801 18.7706 21.7557Z" fill="black"/>
</svg>
