<svg width="50" height="50" viewBox="0 0 50 50" fill="none" xmlns="http://www.w3.org/2000/svg">
<path d="M46.2443 0H3.74953C2.7551 0 1.80139 0.395039 1.09821 1.09821C0.395039 1.80139 0 2.7551 0 3.74953V31.2461C0 32.2406 0.395039 33.1943 1.09821 33.8974C1.80139 34.6006 2.7551 34.9957 3.74953 34.9957H14.2232L7.62405 48.194C7.48425 48.4933 7.46606 48.8351 7.5733 49.1475C7.68055 49.4599 7.90486 49.7185 8.19898 49.8688C8.37145 49.9487 8.55885 49.9913 8.74891 49.9938C9.00386 50.0193 9.2605 49.9658 9.48406 49.8406C9.70761 49.7155 9.88729 49.5246 9.99876 49.2939L13.2734 42.4947H36.7204L40.12 49.2939C40.2231 49.5042 40.3832 49.6814 40.5821 49.8051C40.781 49.9289 41.0106 49.9943 41.2449 49.9938C41.4349 49.9913 41.6223 49.9487 41.7948 49.8688C42.0889 49.7185 42.3132 49.4599 42.4205 49.1475C42.5277 48.8351 42.5095 48.4933 42.3697 48.194L35.7706 34.9957H46.2443C47.2387 34.9957 48.1924 34.6006 48.8956 33.8974C49.5987 33.1943 49.9938 32.2406 49.9938 31.2461V3.74953C49.9938 2.7551 49.5987 1.80139 48.8956 1.09821C48.1924 0.395039 47.2387 0 46.2443 0ZM14.5232 39.995L17.0229 34.9957H32.9709L35.4706 39.995H14.5232ZM47.4941 31.2461C47.4941 31.5776 47.3624 31.8955 47.128 32.1299C46.8936 32.3643 46.5757 32.496 46.2443 32.496H3.74953C3.41805 32.496 3.10015 32.3643 2.86576 32.1299C2.63137 31.8955 2.49969 31.5776 2.49969 31.2461V3.74953C2.49969 3.41805 2.63137 3.10015 2.86576 2.86576C3.10015 2.63137 3.41805 2.49969 3.74953 2.49969H46.2443C46.5757 2.49969 46.8936 2.63137 47.128 2.86576C47.3624 3.10015 47.4941 3.41805 47.4941 3.74953V31.2461Z" fill="black"/>
<path d="M40.3701 7.87399L28.7465 19.4725L22.1223 12.8734C22.0101 12.7538 21.8746 12.6585 21.7241 12.5934C21.5737 12.5282 21.4114 12.4946 21.2475 12.4946C21.0835 12.4946 20.9212 12.5282 20.7708 12.5934C20.6203 12.6585 20.4848 12.7538 20.3726 12.8734L7.87411 25.3718C7.75455 25.484 7.65926 25.6196 7.59411 25.77C7.52897 25.9205 7.49536 26.0827 7.49536 26.2467C7.49536 26.4107 7.52897 26.5729 7.59411 26.7234C7.65926 26.8739 7.75455 27.0094 7.87411 27.1216C7.98632 27.2412 8.12185 27.3365 8.27232 27.4016C8.4228 27.4667 8.58503 27.5003 8.749 27.5003C8.91297 27.5003 9.0752 27.4667 9.22568 27.4016C9.37616 27.3365 9.51168 27.2412 9.62389 27.1216L21.2475 15.523L27.8716 22.1222C27.9838 22.2418 28.1194 22.3371 28.2698 22.4022C28.4203 22.4674 28.5825 22.501 28.7465 22.501C28.9105 22.501 29.0727 22.4674 29.2232 22.4022C29.3737 22.3371 29.5092 22.2418 29.6214 22.1222L42.1199 9.62377C42.3519 9.39173 42.4822 9.07703 42.4822 8.74888C42.4822 8.42073 42.3519 8.10602 42.1199 7.87399C41.8878 7.64195 41.5731 7.5116 41.245 7.5116C40.9168 7.5116 40.6021 7.64195 40.3701 7.87399Z" fill="#CC4051"/>
</svg>
