<svg width="80" height="74" viewBox="0 0 80 74" fill="none" xmlns="http://www.w3.org/2000/svg">
<g clip-path="url(#clip0)">
<path d="M20.5973 16.1173C19.097 14.6907 17.0296 13.8877 14.872 13.8933H14.4613C12.3058 13.8894 10.2415 14.6922 8.74267 16.1173C7.33267 17.451 6.584 19.2611 6.67334 21.1196L6.82934 24.4218C7.06567 28.2005 10.5025 31.1335 14.616 31.0666H14.7173C18.8308 31.1335 22.2676 28.2005 22.504 24.4218L22.6666 21.1196C22.756 19.2611 22.0073 17.451 20.5973 16.1173ZM19.84 24.32C19.6593 26.783 17.3996 28.6768 14.7173 28.6133H14.616C11.9337 28.6768 9.674 26.783 9.49333 24.32L9.44666 23.3178C11.9883 23.2137 14.4288 22.3711 16.4173 20.9111C17.2373 22.0267 18.4751 22.8255 19.8946 23.1547L19.84 24.32ZM18.168 18.5215C18.0938 17.9984 17.6641 17.5775 17.1013 17.4764C16.5405 17.3697 15.9688 17.6074 15.6853 18.0652C15.668 18.091 14.0133 20.4989 9.344 20.8669C9.3325 19.7304 9.80766 18.6355 10.6667 17.8187C11.6622 16.8749 13.0318 16.3436 14.4613 16.3467H14.872C16.3015 16.3436 17.6711 16.8749 18.6666 17.8187C19.4445 18.5643 19.9061 19.5418 19.968 20.5738C19.0453 20.1944 18.376 19.4314 18.168 18.5215Z" fill="black"/>
<path d="M72.5972 45.5575C71.0968 44.1309 69.0295 43.3279 66.8719 43.3335H66.4612C64.3057 43.3295 62.2414 44.1324 60.7425 45.5575C59.3325 46.8912 58.5837 48.7013 58.6732 50.5598L58.8292 53.862C59.0655 57.6407 62.5024 60.5737 66.6159 60.5068H66.7172C70.8307 60.5737 74.2675 57.6407 74.5038 53.862L74.6665 50.5598C74.7558 48.7013 74.0072 46.8912 72.5972 45.5575ZM71.9998 50.4604L71.8398 53.7602C71.6592 56.2232 69.3995 58.117 66.7172 58.0535H66.6159C63.9335 58.117 61.6739 56.2232 61.4932 53.7602L61.3332 50.4543C61.2817 49.2658 61.7639 48.1103 62.6665 47.2588C63.662 46.3151 65.0317 45.7838 66.4612 45.7869H66.8719C68.3013 45.7838 69.671 46.3151 70.6665 47.2588C71.5708 48.1118 72.0532 49.27 71.9998 50.4604Z" fill="black"/>
<path d="M41.1889 18.2393C39.7582 16.9661 37.4879 16.9661 36.0572 18.2393L21.1719 31.9337C20.9216 32.1641 20.5819 32.2935 20.2279 32.2932H6.66665C2.98666 32.2971 0.00433332 35.0409 0 38.4265V55.5998C0 57.6322 1.79083 59.2798 3.99999 59.2798C4.45416 59.2798 4.90499 59.2088 5.33332 59.07V60.5064C5.33332 61.1839 5.93032 61.7331 6.66665 61.7331H22.6666C23.4029 61.7331 23.9999 61.1839 23.9999 60.5064V40.6173C23.9998 40.307 24.1274 40.008 24.3573 39.7807L41.2759 23.0404C42.6931 21.6926 42.6541 19.5431 41.1889 18.2393ZM39.3717 21.3251C39.3669 21.3294 39.3621 21.3337 39.3572 21.3378L22.3999 38.1112C21.7133 38.7928 21.3321 39.6879 21.3333 40.6173V59.2798H7.99998V40.8798C7.99998 40.2024 7.40298 39.6531 6.66665 39.6531C5.93032 39.6531 5.33332 40.2024 5.33332 40.8798V55.5998C5.33332 56.2772 4.73632 56.8264 3.99999 56.8264C3.26366 56.8264 2.66666 56.2772 2.66666 55.5998V38.4265C2.66666 36.394 4.45749 34.7465 6.66665 34.7465H20.2279C21.2898 34.7496 22.3088 34.3613 23.0573 33.6682L37.9426 19.9738C38.3484 19.6196 38.9847 19.6196 39.3906 19.9738C39.7909 20.3517 39.7826 20.9568 39.3717 21.3251Z" fill="black"/>
<path d="M14.6666 35.9734C13.9303 35.9734 13.3333 36.5226 13.3333 37.2001V51.92C13.3333 52.5974 13.9303 53.1467 14.6666 53.1467C15.4029 53.1467 15.9999 52.5974 15.9999 51.92V37.2001C15.9999 36.5226 15.4029 35.9734 14.6666 35.9734Z" fill="black"/>
<path d="M43.2572 45.557C41.7584 44.1319 39.6941 43.329 37.5386 43.333H37.1279C34.9724 43.329 32.9081 44.1319 31.4093 45.557C29.9993 46.8907 29.2504 48.7007 29.3399 50.5593L29.4959 53.8615C29.7323 57.6402 33.1691 60.5732 37.2826 60.5063H37.3839C41.4974 60.5732 44.9342 57.6402 45.1706 53.8615L45.3266 50.5593C45.4161 48.7007 44.6672 46.8907 43.2572 45.557ZM42.6666 50.4599L42.5066 53.7597C42.3259 56.2226 40.0662 58.1165 37.3839 58.053H37.2826C34.6002 58.1165 32.3406 56.2226 32.1599 53.7597L31.9999 50.4538C31.9484 49.2653 32.4306 48.1098 33.3333 47.2583C34.3287 46.3146 35.6984 45.7833 37.1279 45.7863H37.5386C38.9681 45.7833 40.3377 46.3146 41.3332 47.2583C42.2376 48.1113 42.7199 49.2695 42.6666 50.4599Z" fill="black"/>
<path d="M44.2226 61.7334H30.4439C26.8866 61.7368 24.0036 64.3891 23.9999 67.6619V72.7734C23.9999 73.4508 24.5969 74 25.3333 74C26.0696 74 26.6666 73.4508 26.6666 72.7734V67.6619C26.6688 65.7434 28.3588 64.1887 30.4439 64.1867H44.2226C46.3079 64.1887 47.9977 65.7434 47.9999 67.6619V72.7734C47.9999 73.4508 48.5969 74 49.3332 74C50.0696 74 50.6666 73.4508 50.6666 72.7734V67.6619C50.6629 64.3891 47.7799 61.7368 44.2226 61.7334Z" fill="black"/>
<path d="M73.5558 61.7334H59.7772C56.2199 61.7368 53.3369 64.3891 53.3332 67.6619V72.7734C53.3332 73.4508 53.9302 74 54.6666 74C55.4029 74 55.9999 73.4508 55.9999 72.7734V67.6619C56.002 65.7434 57.692 64.1887 59.7772 64.1867H73.5558C75.6412 64.1887 77.331 65.7434 77.3332 67.6619V72.7734C77.3332 73.4508 77.9302 74 78.6665 74C79.4028 74 79.9998 73.4508 79.9998 72.7734V67.6619C79.9962 64.3891 77.1132 61.7368 73.5558 61.7334Z" fill="black"/>
<path d="M76.0665 0.399902H29.2666C27.0771 0.419529 25.3178 2.06556 25.3333 4.07989V22.4799C25.3333 23.1573 25.9303 23.7065 26.6666 23.7065C27.403 23.7065 28 23.1573 28 22.4799V7.75989H77.3332V37.1998C77.3503 37.8599 76.784 38.4084 76.0665 38.4265H30.5666C29.8303 38.4265 29.2333 38.9757 29.2333 39.6531C29.2333 40.3306 29.8303 40.8798 30.5666 40.8798H76.0665C78.256 40.8602 80.0153 39.2142 79.9998 37.1998V4.07989C80.0153 2.06556 78.256 0.419529 76.0665 0.399902ZM77.3332 5.30656H28V4.07989C27.9828 3.4198 28.5491 2.87132 29.2666 2.85323H76.0665C76.784 2.87132 77.3503 3.4198 77.3332 4.07989V5.30656Z" fill="black"/>
<path d="M73.3331 16.04C72.5968 16.04 71.9998 16.5893 71.9998 17.2667V34.7467C71.9998 35.4241 72.5968 35.9733 73.3331 35.9733C74.0695 35.9733 74.6665 35.4241 74.6665 34.7467V17.2667C74.6665 16.5893 74.0695 16.04 73.3331 16.04Z" fill="black"/>
<path d="M67.9999 23.7065C67.2636 23.7065 66.6666 24.2558 66.6666 24.9332V34.7465C66.6666 35.4239 67.2636 35.9732 67.9999 35.9732C68.7362 35.9732 69.3332 35.4239 69.3332 34.7465V24.9332C69.3332 24.2558 68.7362 23.7065 67.9999 23.7065Z" fill="black"/>
<path d="M62.6666 21.2532C61.9302 21.2532 61.3332 21.8024 61.3332 22.4798V34.7465C61.3332 35.4239 61.9302 35.9731 62.6666 35.9731C63.4029 35.9731 63.9999 35.4239 63.9999 34.7465V22.4798C63.9999 21.8024 63.4029 21.2532 62.6666 21.2532Z" fill="black"/>
<path d="M57.3332 28.6133C56.5969 28.6133 55.9999 29.1625 55.9999 29.8399V34.7466C55.9999 35.424 56.5969 35.9733 57.3332 35.9733C58.0696 35.9733 58.6666 35.424 58.6666 34.7466V29.8399C58.6666 29.1625 58.0696 28.6133 57.3332 28.6133Z" fill="black"/>
<path d="M74.0732 10.4195C73.4606 10.0435 72.6326 10.1956 72.2239 10.7593L67.6719 17.0398L63.4666 14.1387C62.8797 13.7295 62.0434 13.8356 61.5986 14.3755C61.5479 14.437 61.5037 14.5026 61.4666 14.5717L56.2746 24.1262L51.1999 27.632C50.6108 28.0385 50.4914 28.8073 50.9333 29.3494C51.3751 29.8914 52.2108 30.0012 52.7999 29.5947L58.1333 25.9147C58.3013 25.8009 58.4383 25.6527 58.5333 25.4817L63.1506 16.9834L67.1999 19.7814C67.7889 20.1879 68.6247 20.0782 69.0666 19.5362C69.0814 19.5181 69.0956 19.4996 69.1092 19.4809L74.4426 12.1209C74.8512 11.5572 74.6859 10.7955 74.0732 10.4195Z" fill="#D64356"/>
<path d="M47.9999 10.2131H31.9999C31.2636 10.2131 30.6666 10.7624 30.6666 11.4398C30.6666 12.1172 31.2636 12.6665 31.9999 12.6665H47.9999C48.7362 12.6665 49.3332 12.1172 49.3332 11.4398C49.3332 10.7624 48.7362 10.2131 47.9999 10.2131Z" fill="black"/>
<path d="M55.9999 10.2131H53.3332C52.5969 10.2131 51.9999 10.7624 51.9999 11.4398C51.9999 12.1172 52.5969 12.6665 53.3332 12.6665H55.9999C56.7362 12.6665 57.3332 12.1172 57.3332 11.4398C57.3332 10.7624 56.7362 10.2131 55.9999 10.2131Z" fill="black"/>
</g>
<defs>
<clipPath id="clip0">
<rect width="80" height="73.6" fill="white" transform="translate(0 0.399902)"/>
</clipPath>
</defs>
</svg>
