<svg width="36" height="48" viewBox="0 0 36 48" fill="none" xmlns="http://www.w3.org/2000/svg">
<path d="M30.4138 46.5908H5.58622C4.4339 46.5908 3.32878 46.1369 2.51396 45.3291C1.69915 44.5212 1.24139 43.4256 1.24139 42.2831V13.3805C1.24176 12.6495 1.42978 11.9305 1.78776 11.2914C2.14573 10.6523 2.66188 10.114 3.2876 9.7272L15.7014 2.05951C16.3905 1.63407 17.1861 1.40857 17.9979 1.40857C18.8098 1.40857 19.6054 1.63407 20.2945 2.05951L32.7083 9.7272C33.3348 10.1135 33.8517 10.6516 34.2105 11.2907C34.5692 11.9299 34.7578 12.6491 34.7586 13.3805V42.2852C34.7581 43.4273 34.3001 44.5224 33.4853 45.3298C32.6706 46.1372 31.5658 46.5908 30.4138 46.5908Z" stroke="black" stroke-width="2" stroke-linecap="round" stroke-linejoin="round"/>
<path d="M18 14.441C19.922 14.441 21.48 12.8963 21.48 10.9908C21.48 9.08526 19.922 7.54053 18 7.54053C16.0781 7.54053 14.52 9.08526 14.52 10.9908C14.52 12.8963 16.0781 14.441 18 14.441Z" stroke="#D64356" stroke-width="2" stroke-linecap="round" stroke-linejoin="round"/>
<path d="M1.24548 35.5037H34.7544" stroke="black" stroke-width="2" stroke-linecap="round" stroke-linejoin="round"/>
</svg>
