<svg width="48" height="46" viewBox="0 0 48 46" fill="none" xmlns="http://www.w3.org/2000/svg">
<path d="M46.524 27.787H1.09128V31.8435H46.524V27.787Z" stroke="black" stroke-width="2" stroke-miterlimit="10" stroke-linecap="round" stroke-linejoin="round"/>
<path d="M43.2788 31.8435H4.33646V44.013H43.2788V31.8435Z" stroke="black" stroke-width="2" stroke-miterlimit="10" stroke-linecap="round" stroke-linejoin="round"/>
<path d="M14.863 13.9745C15.9719 12.8656 15.9719 11.0677 14.863 9.95881C13.7541 8.8499 11.9562 8.8499 10.8472 9.95881C9.73834 11.0677 9.73834 12.8656 10.8472 13.9745C11.9562 15.0834 13.7541 15.0834 14.863 13.9745Z" stroke="#D64356" stroke-width="2" stroke-miterlimit="10" stroke-linecap="round" stroke-linejoin="round"/>
<path d="M4.33646 26.1644V27.787H21.3737V26.1644V26.57C21.3737 21.8653 17.5598 18.0514 12.8551 18.0514C8.15038 18.0514 4.33646 21.8653 4.33646 26.57V26.1644Z" stroke="black" stroke-width="2" stroke-miterlimit="10" stroke-linecap="round" stroke-linejoin="round"/>
<path d="M43.2788 19.674H31.9206V27.7869H43.2788V19.674Z" stroke="black" stroke-width="2" stroke-miterlimit="10" stroke-linecap="round" stroke-linejoin="round"/>
<path d="M37.5997 9.93842C39.84 9.93842 41.6562 8.12227 41.6562 5.88193C41.6562 3.64159 39.84 1.82544 37.5997 1.82544C35.3594 1.82544 33.5432 3.64159 33.5432 5.88193C33.5432 8.12227 35.3594 9.93842 37.5997 9.93842Z" stroke="#D64356" stroke-width="2" stroke-miterlimit="10" stroke-linecap="round" stroke-linejoin="round"/>
<path d="M37.5997 4.25928V5.88187" stroke="#D64356" stroke-width="2" stroke-miterlimit="10" stroke-linecap="round" stroke-linejoin="round"/>
<path d="M36.7884 5.88196H37.5997" stroke="#D64356" stroke-width="2" stroke-miterlimit="10" stroke-linecap="round" stroke-linejoin="round"/>
</svg>
