<svg width="45" height="47" viewBox="0 0 45 47" fill="none" xmlns="http://www.w3.org/2000/svg">
<path d="M31.9437 38.2892C35.7582 36.7733 38.1739 34.2161 38.1739 30.1973C38.1739 27.666 37.2037 25.3055 35.5453 23.2786" stroke="#D64356" stroke-width="2" stroke-miterlimit="10" stroke-linecap="round" stroke-linejoin="round"/>
<path d="M16.1603 16.8918C7.53402 18.065 1 23.5707 1 30.1972C1 37.2075 8.30784 39.8018 17.6746 40.1005" stroke="#D64356" stroke-width="2" stroke-miterlimit="10" stroke-linecap="round" stroke-linejoin="round"/>
<path d="M9.07869 19.0415C8.31225 21.7379 8.06925 25.7533 9.36412 26.4348C10.6876 25.3093 12.4344 19.8741 14.5002 17.1782" stroke="#D64356" stroke-width="2" stroke-miterlimit="10" stroke-linecap="round" stroke-linejoin="round"/>
<path d="M18.2594 19.752C17.5376 23.1803 17.4215 27.5843 18.8273 28.3913C19.6508 27.6275 20.6127 25.334 21.6935 22.8195" stroke="#D64356" stroke-width="2" stroke-miterlimit="10" stroke-linecap="round" stroke-linejoin="round"/>
<path d="M28.8804 8.82609C37.0927 8.82609 43.75 7.07416 43.75 4.91304C43.75 2.75193 37.0927 1 28.8804 1C20.6682 1 14.0109 2.75193 14.0109 4.91304C14.0109 7.07416 20.6682 8.82609 28.8804 8.82609Z" stroke="black" stroke-width="2" stroke-miterlimit="10" stroke-linecap="round" stroke-linejoin="round"/>
<path d="M14.0109 4.91302V8.82608C14.0109 17.4705 20.6682 24.4782 28.8804 24.4782H28.8804C37.0927 24.4782 43.75 17.4705 43.75 8.82608V4.91302" stroke="black" stroke-width="2" stroke-miterlimit="10" stroke-linecap="round" stroke-linejoin="round"/>
<path d="M21.1503 22.2685C24.531 25.7465 26.7335 27.3964 27.0201 32.306C27.3236 37.5024 25.163 42.0869 25.163 42.0869C25.163 42.6272 27.3406 43.0652 28.8804 43.0652C30.4202 43.0652 32.5978 42.6272 32.5978 42.0869C32.5978 42.0869 30.4372 37.5024 30.7407 32.306C31.0274 27.3964 33.2746 25.6276 36.6553 22.1496" stroke="black" stroke-width="2" stroke-miterlimit="10" stroke-linecap="round" stroke-linejoin="round"/>
<path d="M26.4274 38.2457C20.4157 38.591 15.8696 40.1782 15.8696 42.0869C15.8696 44.248 21.6948 46 28.8804 46C36.0661 46 41.8913 44.248 41.8913 42.0869C41.8913 40.1782 37.3452 38.591 31.3335 38.2457" stroke="black" stroke-width="2" stroke-miterlimit="10" stroke-linecap="round" stroke-linejoin="round"/>
</svg>
