<svg width="45" height="46" viewBox="0 0 45 46" fill="none" xmlns="http://www.w3.org/2000/svg">
<path d="M34.8734 32.7746V29.6206C35.4325 29.7472 35.9916 30.0003 36.5612 30.3379C36.73 30.4328 36.8882 30.4856 37.057 30.4856C37.5633 30.4856 37.9747 30.0953 37.9747 29.5784C37.9747 29.1881 37.7426 28.9349 37.4789 28.7872C36.7194 28.3126 35.9072 27.9961 34.9367 27.8801V27.5214C34.9367 27.1311 34.6203 26.8147 34.23 26.8147C33.8397 26.8147 33.5127 27.1311 33.5127 27.5214V27.8695C31.4663 28.0383 30.0633 29.2514 30.0633 31.0024C30.0633 32.859 31.1814 33.7556 33.576 34.378V37.6058C32.6688 37.437 31.9198 37.0678 31.1498 36.5088C31.0021 36.3927 30.8017 36.3294 30.6118 36.3294C30.1055 36.3294 29.7047 36.7197 29.7047 37.2366C29.7047 37.5847 29.8734 37.8484 30.1477 38.0277C31.1498 38.7345 32.2785 39.1775 33.5127 39.3041V40.3168C33.5127 40.7071 33.8397 41.0235 34.23 41.0235C34.6203 41.0235 34.9367 40.7071 34.9367 40.3168V39.3358C37.0253 39.1353 38.4283 37.9434 38.4283 36.1396C38.4388 34.3991 37.3734 33.3969 34.8734 32.7746ZM33.576 32.4265C32.3101 32.0151 32.0042 31.5931 32.0042 30.8969C32.0042 30.1796 32.5317 29.6206 33.576 29.5151V32.4265ZM34.8734 37.6902V34.705C36.1392 35.0953 36.4979 35.5383 36.4979 36.2661C36.4979 37.0573 35.9283 37.5742 34.8734 37.6902Z" fill="#D64356"/>
<path d="M11.6667 10.8635V7.70953C12.2258 7.83611 12.7848 8.08928 13.3545 8.42683C13.5232 8.52177 13.6815 8.57451 13.8502 8.57451C14.3566 8.57451 14.768 8.18421 14.768 7.66734C14.768 7.27704 14.5359 7.02388 14.2722 6.8762C13.5127 6.40151 12.7005 6.08506 11.73 5.96902V5.61037C11.73 5.22008 11.4135 4.90363 11.0232 4.90363C10.6329 4.90363 10.3059 5.22008 10.3059 5.61037V5.95848C8.25953 6.12725 6.85658 7.34033 6.85658 9.09139C6.85658 10.9479 7.97472 11.8446 10.3692 12.4669V15.6948C9.46206 15.526 8.71312 15.1568 7.94307 14.5977C7.79539 14.4817 7.59497 14.4184 7.4051 14.4184C6.89877 14.4184 6.49792 14.8087 6.49792 15.3256C6.49792 15.6737 6.6667 15.9374 6.94096 16.1167C7.94307 16.8235 9.07177 17.2665 10.3059 17.3931V18.4057C10.3059 18.796 10.6329 19.1125 11.0232 19.1125C11.4135 19.1125 11.73 18.796 11.73 18.4057V17.4247C13.8186 17.2243 15.2216 16.0323 15.2216 14.2285C15.2321 12.488 14.1667 11.4859 11.6667 10.8635ZM10.3692 10.5154C9.10341 10.104 8.7975 9.6821 8.7975 8.9859C8.7975 8.2686 9.32493 7.70953 10.3692 7.60404V10.5154ZM11.6667 15.7791V12.7939C12.9325 13.1842 13.2912 13.6273 13.2912 14.3551C13.2912 15.1462 12.7216 15.6631 11.6667 15.7791Z" fill="#D64356"/>
<path d="M34.0718 23.0067C32.5106 23.0067 30.9916 23.3337 29.5781 23.9666C25.6646 25.7282 23.1435 29.6417 23.1435 33.9349C23.1435 34.051 23.1435 34.1775 23.154 34.2936C23.249 37.1417 24.4199 39.7999 26.4663 41.783C28.5127 43.7767 31.2237 44.8632 34.0718 44.8632C40.095 44.8632 45 39.9581 45 33.9349C45 27.9117 40.1055 23.0067 34.0718 23.0067ZM34.0718 43.3864C28.9346 43.3864 24.7891 39.3674 24.6203 34.2408C24.6203 34.1353 24.6203 34.0404 24.6203 33.9349C24.6203 30.2218 26.8038 26.8463 30.1899 25.3168C31.4135 24.7683 32.7216 24.4834 34.0718 24.4834C39.2827 24.4834 43.5232 28.724 43.5232 33.9349C43.5232 39.1459 39.2827 43.3864 34.0718 43.3864Z" fill="#333333"/>
<path d="M10.9283 23.091C13.7869 23.091 16.4873 21.994 18.5338 20.0109C20.5802 18.0277 21.7511 15.3695 21.846 12.5214C21.846 12.4054 21.8565 12.2788 21.8565 12.1628C21.8565 7.86952 19.3249 3.96656 15.4219 2.19441C14.0084 1.55095 12.4895 1.2345 10.9283 1.2345C4.90506 1.2345 0 6.13956 0 12.1628C0 18.186 4.89452 23.091 10.9283 23.091ZM10.9283 2.71129C12.2785 2.71129 13.5865 2.9961 14.8101 3.54462C18.1962 5.07416 20.3797 8.46024 20.3797 12.1628C20.3797 12.2683 20.3797 12.3632 20.3797 12.4687C20.211 17.5953 16.0654 21.6142 10.9283 21.6142C5.7173 21.6142 1.47679 17.3737 1.47679 12.1628C1.47679 6.9518 5.7173 2.71129 10.9283 2.71129Z" fill="#333333"/>
<path d="M32.7005 3.55517V1.50876C32.7005 1.22395 32.5422 0.970785 32.2891 0.844202C32.0359 0.71762 31.7405 0.749266 31.519 0.918042L23.4389 7.07838C23.2595 7.21551 23.1435 7.43703 23.1435 7.6691C23.1435 7.90116 23.249 8.11214 23.4389 8.25981L31.519 14.4202C31.7405 14.5889 32.0464 14.6206 32.2891 14.494C32.5422 14.3674 32.7005 14.1142 32.7005 13.8294V12.0995C36.2975 12.8379 39.4515 15.1691 41.2131 18.4286C41.9199 19.7366 42.384 21.1396 42.5844 22.6164C42.6372 22.9856 42.9431 23.2493 43.3123 23.2493H44.2616C44.673 23.2493 45 22.9223 45 22.5109V17.4476C45 13.9666 43.7131 10.6227 41.3713 8.04884C39.1034 5.5383 36.0338 3.95602 32.7005 3.55517ZM43.5232 20.0953C43.2595 19.2725 42.922 18.4813 42.5106 17.7218C40.4325 13.8716 36.6245 11.1818 32.3207 10.5277C32.2363 10.5172 32.1519 10.5066 32.057 10.4856C32.0254 10.4856 31.9937 10.475 31.9515 10.475C31.7722 10.475 31.6034 10.5383 31.4663 10.6543C31.3081 10.7915 31.2131 11.0024 31.2131 11.2134V12.321L25.0844 7.65855L31.2131 2.9961V4.21973C31.2131 4.61003 31.5085 4.92648 31.8988 4.95813C32.0359 4.96868 32.173 4.97922 32.2996 4.98977C38.692 5.65433 43.5127 11.0024 43.5127 17.437V20.0953H43.5232Z" fill="#333333"/>
<path d="M21.5612 37.8484L13.481 31.6881C13.2595 31.5193 12.9536 31.4877 12.711 31.6143C12.4578 31.7408 12.2996 31.994 12.2996 32.2788V34.0088C8.70253 33.2704 5.54852 30.9391 3.78692 27.6797C3.08017 26.3716 2.61603 24.9687 2.41561 23.4919C2.36287 23.1227 2.05696 22.859 1.68776 22.859H0.738397C0.327004 22.859 0 23.186 0 23.5974V28.6607C0 32.1417 1.28692 35.4856 3.62869 38.0594C5.89662 40.5594 8.97679 42.1522 12.2996 42.5531V44.5995C12.2996 44.8843 12.4578 45.1375 12.711 45.264C12.8165 45.3168 12.9219 45.3379 13.038 45.3379C13.1962 45.3379 13.3544 45.2851 13.481 45.1902L21.5612 39.0299C21.7405 38.8927 21.8565 38.6712 21.8565 38.4391C21.8565 38.2071 21.7511 37.9856 21.5612 37.8484ZM13.7764 43.1016V41.878C13.7764 41.4877 13.481 41.1712 13.0907 41.1396C12.9536 41.129 12.8165 41.1185 12.6899 41.1079C6.29747 40.4434 1.47679 35.0953 1.47679 28.6607V26.0024C1.74051 26.8252 2.07806 27.6164 2.48945 28.3759C4.56751 32.2261 8.37553 34.9159 12.6793 35.57C12.7637 35.5805 12.8481 35.591 12.943 35.6121C13.154 35.6438 13.365 35.5805 13.5338 35.4328C13.692 35.2957 13.7869 35.0847 13.7869 34.8737V33.7662L19.9156 38.4286L13.7764 43.1016Z" fill="#333333"/>
</svg>
