<svg width="46" height="45" viewBox="0 0 46 45" fill="none" xmlns="http://www.w3.org/2000/svg">
<path d="M34.3997 22.4539C32.8235 22.4539 31.2898 22.784 29.8627 23.423C25.9116 25.2016 23.3662 29.1527 23.3662 33.4873C23.3662 33.6045 23.3662 33.7323 23.3769 33.8494C23.4727 36.7249 24.6549 39.4087 26.721 41.4109C28.7871 43.4238 31.5241 44.5208 34.3997 44.5208C40.4808 44.5208 45.4331 39.5685 45.4331 33.4873C45.4331 27.4061 40.4915 22.4539 34.3997 22.4539ZM34.3997 43.0297C29.2131 43.0297 25.0276 38.9721 24.8572 33.7962C24.8572 33.6897 24.8572 33.5938 24.8572 33.4873C24.8572 29.7385 27.0618 26.3305 30.4804 24.7862C31.7158 24.2324 33.0365 23.9449 34.3997 23.9449C39.6608 23.9449 43.9421 28.2262 43.9421 33.4873C43.9421 38.7484 39.6608 43.0297 34.3997 43.0297Z" fill="#D64356"/>
<path d="M11.0335 22.5391C13.9196 22.5391 16.646 21.4315 18.7121 19.4292C20.7782 17.427 21.9604 14.7432 22.0562 11.8677C22.0562 11.7506 22.0669 11.6228 22.0669 11.5056C22.0669 7.17105 19.5109 3.23053 15.5704 1.44132C14.1433 0.791669 12.6097 0.472168 11.0335 0.472168C4.95227 0.472168 0 5.42444 0 11.5056C0 17.5868 4.94162 22.5391 11.0335 22.5391ZM11.0335 1.96317C12.3967 1.96317 13.7173 2.25073 14.9527 2.80453C18.3713 4.34878 20.5759 7.76745 20.5759 11.5056C20.5759 11.6121 20.5759 11.708 20.5759 11.8145C20.4055 16.9904 16.22 21.0481 11.0335 21.0481C5.77233 21.0481 1.49101 16.7667 1.49101 11.5056C1.49101 6.24449 5.77233 1.96317 11.0335 1.96317Z" fill="#D64356"/>
<path d="M33.0152 2.81516V0.749054C33.0152 0.461503 32.8554 0.205902 32.5998 0.0781012C32.3442 -0.0496994 32.046 -0.0177492 31.8223 0.152652L23.6644 6.37228C23.4834 6.51073 23.3662 6.73438 23.3662 6.96868C23.3662 7.20298 23.4727 7.41598 23.6644 7.56508L31.8223 13.7847C32.046 13.9551 32.3548 13.9871 32.5998 13.8593C32.8554 13.7315 33.0152 13.4759 33.0152 13.1883V11.4417C36.6468 12.1872 39.8312 14.5409 41.6097 17.8317C42.3233 19.1523 42.7919 20.5688 42.9942 22.0598C43.0475 22.4326 43.3563 22.6988 43.7291 22.6988H44.6876C45.103 22.6988 45.4331 22.3687 45.4331 21.9533V16.8413C45.4331 13.3268 44.1338 9.9507 41.7695 7.35208C39.4797 4.81737 36.3806 3.21986 33.0152 2.81516ZM43.9421 19.5144C43.6759 18.6837 43.3351 17.885 42.9197 17.1182C40.8216 13.2309 36.977 10.5151 32.6318 9.85485C32.5466 9.84419 32.4614 9.83354 32.3655 9.81224C32.3336 9.81224 32.3016 9.80159 32.259 9.80159C32.078 9.80159 31.9075 9.86549 31.7691 9.98265C31.6093 10.1211 31.5135 10.3341 31.5135 10.5471V11.6654L25.3258 6.95803L31.5135 2.25071V3.48612C31.5135 3.88017 31.8117 4.19967 32.2058 4.23162C32.3442 4.24227 32.4827 4.25292 32.6105 4.26357C39.0644 4.93452 43.9315 10.3341 43.9315 16.8306V19.5144H43.9421Z" fill="black"/>
<path d="M21.7687 37.4384L13.6108 31.2188C13.3871 31.0484 13.0783 31.0164 12.8333 31.1442C12.5777 31.272 12.418 31.5276 12.418 31.8152V33.5618C8.78629 32.8163 5.60192 30.4626 3.82337 27.1718C3.10981 25.8512 2.64121 24.4347 2.43886 22.9437C2.38561 22.5709 2.07676 22.3047 1.70401 22.3047H0.745503C0.330151 22.3047 0 22.6348 0 23.0502V28.1622C0 31.6767 1.29931 35.0528 3.66362 37.6514C5.95338 40.1755 9.06319 41.7836 12.418 42.1883V44.2544C12.418 44.542 12.5777 44.7976 12.8333 44.9254C12.9398 44.9786 13.0463 44.9999 13.1635 44.9999C13.3232 44.9999 13.483 44.9467 13.6108 44.8508L21.7687 38.6312C21.9497 38.4928 22.0669 38.2691 22.0669 38.0348C22.0669 37.8005 21.9604 37.5769 21.7687 37.4384ZM13.909 42.7421V41.5067C13.909 41.1127 13.6108 40.7932 13.2167 40.7612C13.0783 40.7506 12.9398 40.7399 12.812 40.7293C6.35808 40.0583 1.49101 34.6587 1.49101 28.1622V25.4784C1.75726 26.3091 2.09806 27.1079 2.51341 27.8747C4.61147 31.7619 8.45614 34.4777 12.8014 35.138C12.8866 35.1486 12.9718 35.1593 13.0676 35.1806C13.2806 35.2125 13.4936 35.1486 13.664 34.9995C13.8238 34.8611 13.9196 34.6481 13.9196 34.4351V33.3168L20.1073 38.0242L13.909 42.7421Z" fill="black"/>
</svg>
