<svg width="46" height="45" viewBox="0 0 46 45" fill="none" xmlns="http://www.w3.org/2000/svg">
<path d="M44.1377 30.6477C43.0326 29.299 41.1734 28.891 39.6169 29.6558L31.2393 33.7705V33.3236C31.2393 30.939 29.3256 28.999 26.9734 28.999H15.114C14.9224 28.999 14.7362 29.0616 14.5835 29.1773L10.6816 32.132V30.6324C10.6816 30.147 10.2881 29.7535 9.80267 29.7535H0.883128C0.397719 29.7535 0.00424194 30.147 0.00424194 30.6324V41.4207C0.00424194 41.9061 0.397719 42.2995 0.883128 42.2995H9.80267C10.2881 42.2995 10.6816 41.9061 10.6816 41.4207V40.3942L23.9635 44.142C24.4018 44.2729 24.8519 44.3379 25.3009 44.3379C25.9866 44.3379 26.6693 44.1863 27.3007 43.8869L42.823 36.5253C43.8846 36.0291 44.6441 35.0827 44.9066 33.9283C45.1716 32.7632 44.8914 31.5676 44.1377 30.6477ZM8.92379 40.5417H1.76201V31.5113H8.92379V40.5417ZM43.1926 33.5385C43.0514 34.1597 42.6453 34.668 42.0743 34.9348L26.5475 42.2986C25.8945 42.6081 25.1538 42.6641 24.4619 42.4563C24.4571 42.4548 24.4524 42.4534 24.4476 42.4521L10.6816 38.5677V34.3368L15.4093 30.7568H26.9733C28.3563 30.7568 29.4815 31.9083 29.4815 33.3236V34.3025H23.2124C22.7271 34.3025 22.3336 34.696 22.3336 35.1814C22.3336 35.6668 22.7271 36.0603 23.2124 36.0603H30.3619H30.3635C30.3642 36.0603 30.3646 36.0603 30.3652 36.0603C30.509 36.0595 30.6446 36.0242 30.7641 35.9623L40.3918 31.2335C41.2118 30.8307 42.1931 31.0478 42.7781 31.7618C43.1852 32.2588 43.3364 32.9064 43.1926 33.5385Z" fill="#222222"/>
<path d="M27.9301 26.4036C35.0271 26.4036 40.8007 20.6298 40.8007 13.5329C40.8007 6.4361 35.0271 0.662354 27.9301 0.662354C20.8332 0.662354 15.0596 6.4361 15.0596 13.5329C15.0596 20.6298 20.8333 26.4036 27.9301 26.4036ZM27.9301 24.6458C27.3854 24.6458 26.8496 24.6064 26.3257 24.5302C27.3859 23.797 28.6086 22.6811 29.3578 20.9745C29.8905 19.7612 30.7515 18.1001 32.0717 17.6875C32.8377 17.4483 33.7521 17.6507 34.7906 18.289C35.2 18.5406 36.1345 19.2326 37.0251 19.9122C35.0125 22.773 31.6859 24.6458 27.9301 24.6458ZM38.9668 12.228C37.6492 12.6007 35.166 13.0678 33.9338 11.7728C33.6513 11.4755 33.4113 11.1702 33.1792 10.8752C32.525 10.0434 31.8486 9.18324 30.5014 8.98109C29.313 8.80321 28.4249 9.35295 27.7768 9.75451C27.3196 10.0379 27.0282 10.2066 26.8284 10.1547C23.8226 9.37562 24.0306 7.00896 24.5775 4.22623C24.6864 3.67218 24.7716 3.23828 24.7829 2.87381C25.7811 2.57859 26.8374 2.42004 27.9301 2.42004C33.6164 2.42004 38.3188 6.71295 38.9668 12.228ZM22.9043 3.62288C22.8868 3.7142 22.8692 3.80393 22.8527 3.88734C22.6249 5.04641 22.3129 6.63377 22.6187 8.1371C23.0094 10.0581 24.2774 11.3094 26.3877 11.8563C27.3286 12.1003 28.0905 11.6279 28.7027 11.2487C29.2324 10.9205 29.6895 10.6371 30.2408 10.7194C30.8702 10.8139 31.1901 11.1894 31.7976 11.9618C32.0426 12.2735 32.3204 12.6266 32.6599 12.984C33.672 14.0478 35.0684 14.3804 36.4194 14.3804C37.3609 14.3804 38.2802 14.2188 39.0319 14.0306C38.963 15.587 38.5723 17.0612 37.9251 18.3883C37.1719 17.8157 36.2013 17.093 35.711 16.7917C34.2202 15.8752 32.8194 15.6122 31.5471 16.0098C29.5425 16.6364 28.4189 18.7401 27.7481 20.268C26.9523 22.0807 25.4903 23.0666 24.0289 23.862C24.002 23.8767 23.976 23.8926 23.9513 23.9097C23.0066 23.5462 22.1238 23.0574 21.3232 22.4635C21.4767 22.3736 21.6327 22.2851 21.787 22.1975C23.0106 21.5031 24.3974 20.716 24.3785 19.2304C24.369 18.4824 23.8605 17.8617 23.3222 17.2046C22.8339 16.6086 22.2807 15.9331 22.0569 15.1326C21.8296 14.32 21.7078 13.3792 21.6946 12.3364C21.6681 10.2221 20.5917 8.30303 18.8354 7.15327C19.8796 5.66936 21.277 4.45158 22.9043 3.62288ZM17.9395 8.66865C19.1685 9.50517 19.9185 10.8651 19.9373 12.3583C19.9523 13.5536 20.096 14.6462 20.3643 15.6057C20.6873 16.7614 21.3945 17.6247 21.9626 18.3182C22.2134 18.6243 22.5915 19.086 22.6211 19.2583C22.619 19.7041 21.7163 20.2164 20.9195 20.6686C20.5934 20.8537 20.2606 21.0427 19.9398 21.2486C18.0076 19.2482 16.8173 16.5269 16.8173 13.5328C16.8173 11.7895 17.2209 10.1386 17.9395 8.66865Z" fill="#D64356"/>
</svg>
