<svg width="63" height="76" viewBox="0 0 63 76" fill="none" xmlns="http://www.w3.org/2000/svg">
<g clip-path="url(#clip0)">
<path d="M31.4189 75.5C31.3091 75.5 31.0893 75.5 30.9795 75.3924C12.4138 70.0122 0 53.6564 0 34.7181V10.7224C0 9.96915 0.659138 9.32353 1.42813 9.32353C5.60267 9.32353 9.00822 5.98781 9.00822 1.89885C9.00822 1.14562 9.66736 0.5 10.4364 0.5H52.4015C53.1705 0.5 53.8296 1.14562 53.8296 1.89885C53.8296 5.98781 57.2352 9.32353 61.4097 9.32353C62.1787 9.32353 62.8378 9.96915 62.8378 10.7224V34.6105C62.8378 53.5488 50.4241 70.0122 31.8583 75.3924C31.6386 75.5 31.5288 75.5 31.4189 75.5ZM11.7546 3.40531C11.0955 7.81707 7.47023 11.4756 2.96612 12.0136V34.6105C2.85627 52.1499 14.3912 67.4297 31.4189 72.5947C48.4467 67.4297 59.9816 52.1499 59.9816 34.6105V12.0136C55.3676 11.368 51.7423 7.81707 51.0832 3.2977H11.7546V3.40531Z" fill="black"/>
<path d="M31.4188 48.2759C24.0585 48.2759 18.0164 42.3577 18.0164 35.1482C18.0164 27.9387 24.0585 22.0205 31.4188 22.0205C38.7792 22.0205 44.8213 27.9387 44.8213 35.1482C44.8213 42.3577 38.7792 48.2759 31.4188 48.2759ZM31.4188 24.8182C25.5964 24.8182 20.8726 29.4452 20.8726 35.1482C20.8726 40.8512 25.5964 45.4782 31.4188 45.4782C37.2412 45.4782 41.965 40.8512 41.965 35.1482C41.965 29.4452 37.2412 24.8182 31.4188 24.8182Z" fill="black"/>
<path d="M29.881 40.8513C29.4415 40.8513 29.112 40.7437 28.8922 40.4209L25.9261 37.5156C25.3768 36.9775 25.3768 36.0091 25.9261 35.4711C26.2557 35.1483 26.5853 35.0407 26.9148 35.0407C27.2444 35.0407 27.6838 35.1483 27.9035 35.4711L29.881 37.408L36.3625 31.0593C36.692 30.7365 37.0216 30.6289 37.3512 30.6289C37.7906 30.6289 38.1202 30.7365 38.3399 31.0593C38.8892 31.5973 38.8892 32.5658 38.3399 33.1038L30.8697 40.4209C30.6499 40.7437 30.3204 40.8513 29.881 40.8513Z" fill="#D64356"/>
</g>
<defs>
<clipPath id="clip0">
<rect width="62.8378" height="75" fill="white" transform="translate(0 0.5)"/>
</clipPath>
</defs>
</svg>
