<svg width="55" height="45" viewBox="0 0 55 45" fill="none" xmlns="http://www.w3.org/2000/svg">
<g clip-path="url(#clip0)">
<path d="M34.7744 21.3208H32.7289V26.6707H34.7744V21.3208Z" fill="black"/>
<path d="M41.3045 21.3208H39.2589V26.6707H41.3045V21.3208Z" fill="black"/>
<path d="M47.8345 21.3208H45.789V26.6707H47.8345V21.3208Z" fill="black"/>
<path d="M34.7744 8.18213H32.7289V13.532H34.7744V8.18213Z" fill="black"/>
<path d="M41.3045 8.18213H39.2589V13.532H41.3045V8.18213Z" fill="black"/>
<path d="M47.8345 8.18213H45.789V13.532H47.8345V8.18213Z" fill="black"/>
<path d="M26.1202 3.3042V29.503H24.5467L21.6357 23.7597V13.1386H19.1181H18.2526H16.2071H11.7226H9.67705H6.37269V22.973H0L9.99175 44.6873H54.4432V3.3042H26.1202ZM8.41824 15.1841H19.5901V22.973H8.41824V15.1841ZM52.3977 42.6418H11.3292L3.22568 25.0185H19.9835L23.2879 31.5486H52.3977V42.6418ZM52.3977 29.503H28.2444V18.4885H52.3977V29.503ZM52.3977 16.3643H28.2444V5.34975H52.3977V16.3643Z" fill="black"/>
<path d="M9.67705 13.1388H11.7226V8.65427H16.2071V13.1388H18.2526V0H9.59837V13.1388H9.67705ZM11.7226 2.04555H16.2071V6.53004H11.7226V2.04555Z" fill="#D64356"/>
</g>
<defs>
<clipPath id="clip0">
<rect width="55" height="44.6875" fill="white"/>
</clipPath>
</defs>
</svg>
