<svg width="41" height="45" viewBox="0 0 41 45" fill="none" xmlns="http://www.w3.org/2000/svg">
<g clip-path="url(#clip0)">
<path d="M39.7106 5.33147C39.563 5.18389 39.3663 5.0855 39.1695 5.0855H31.6921V1.64195C31.6921 1.24841 31.3477 0.904053 30.9542 0.904053H9.94857C9.55502 0.904053 9.21067 1.24841 9.21067 1.64195V5.0855H1.53649C1.33971 5.0855 1.14294 5.18389 0.995358 5.33147C0.847778 5.47905 0.798584 5.67582 0.798584 5.87259C0.798584 6.02017 0.946165 9.16856 2.07761 12.8089C3.6518 17.679 6.30825 21.1226 9.85018 22.6968C11.0308 26.6322 13.7365 29.7314 17.1308 30.9613V31.1088C17.1308 35.1919 14.0316 38.4387 10.047 38.4387C9.65341 38.4387 9.30905 38.783 9.30905 39.1766V43.358C9.30905 43.7516 9.65341 44.0959 10.047 44.0959H30.9542C31.3477 44.0959 31.6921 43.7516 31.6921 43.358V39.1766C31.6921 38.783 31.3477 38.4387 30.9542 38.4387C26.9203 38.4387 23.6244 35.1427 23.6244 31.1088V31.0105C27.1663 29.7806 29.9211 26.6322 31.1018 22.5984C34.4961 20.975 37.1034 17.5806 38.6284 12.8089C39.809 9.16856 39.9074 5.97098 39.9074 5.87259C39.9566 5.67582 39.8582 5.47905 39.7106 5.33147ZM2.32358 6.5613H9.21067V18.3677C9.21067 19.204 9.25986 19.9911 9.40744 20.7782C3.79939 17.4331 2.56955 9.11936 2.32358 6.5613ZM30.2163 39.8653V42.5709H10.7849V39.8653C15.1139 39.5209 18.459 35.9298 18.5574 31.3548C19.1477 31.4532 19.7873 31.5516 20.4268 31.5516C21.0171 31.5516 21.6074 31.5024 22.1485 31.404C22.3453 35.8806 25.8381 39.5209 30.2163 39.8653ZM22.3945 29.879C21.755 30.0266 21.1155 30.125 20.476 30.125C19.7381 30.125 19.0002 30.0266 18.3115 29.8298C18.1639 29.7806 17.9179 29.6822 17.8195 29.6822C13.7365 28.3048 10.6865 23.779 10.6865 18.4169V2.42905H30.2163V5.38066V6.31533V18.4169C30.2163 23.779 27.1663 28.3048 23.034 29.6822L22.3945 29.879ZM31.5445 20.6798C31.6429 19.9419 31.7413 19.1548 31.7413 18.3677V6.5613H38.4316C38.1856 9.11936 37.005 17.1871 31.5445 20.6798Z" fill="black"/>
<path d="M27.5598 11.2347L23.526 10.6443L21.7058 6.95482C21.509 6.56127 21.0663 6.26611 20.6236 6.26611C20.1808 6.26611 19.7381 6.51208 19.5413 6.95482L17.7211 10.6443L13.6873 11.2347C13.2445 11.2838 12.851 11.6282 12.7034 12.0709C12.5558 12.5137 12.6542 13.0056 12.9986 13.3008L15.9502 16.154L15.2615 20.1879C15.1631 20.6306 15.3599 21.0733 15.7534 21.3685C15.9502 21.5161 16.1961 21.6145 16.4913 21.6145C16.6881 21.6145 16.8849 21.5653 17.0324 21.4669L20.7711 19.5975L24.3131 21.4669C24.7066 21.6637 25.1985 21.6637 25.5921 21.3685C25.9856 21.0733 26.1332 20.6306 26.084 20.1879L25.3953 16.154L28.3469 13.3008C28.6913 12.9564 28.7897 12.5137 28.6421 12.0709C28.3961 11.6282 28.0518 11.2838 27.5598 11.2347ZM24.0179 15.3669C23.8211 15.5145 23.7719 15.7605 23.8211 16.0064L24.5098 19.8927L21.1155 18.1217C20.9187 18.0234 20.6727 18.0234 20.4268 18.1217L16.7865 19.9419L17.4752 16.0064C17.5244 15.7605 17.426 15.5145 17.2784 15.3669L14.4744 12.6121L18.3607 12.0217C18.6066 11.9726 18.8034 11.825 18.9018 11.6282L20.6236 8.08627L22.3453 11.6282C22.4437 11.825 22.6405 12.0217 22.8865 12.0217L26.7727 12.6121L24.0179 15.3669Z" fill="#D64356"/>
</g>
<defs>
<clipPath id="clip0">
<rect width="39.5122" height="45" fill="white" transform="translate(0.564636)"/>
</clipPath>
</defs>
</svg>
