<svg width="55" height="46" viewBox="0 0 55 46" fill="none" xmlns="http://www.w3.org/2000/svg">
<path d="M53.9671 42.6055H52.0736V15.1486C52.0736 15.1486 52.0736 15.0728 52.0736 15.0444C52.0789 14.9815 52.0789 14.918 52.0736 14.8551C52.054 14.7959 52.0286 14.7388 51.9978 14.6847L51.8937 14.5426C51.8534 14.4914 51.8055 14.4467 51.7516 14.4101C51.7516 14.4101 51.7043 14.3533 51.6664 14.3343L27.9966 0.132461C27.8527 0.0493633 27.6894 0.00561523 27.5232 0.00561523C27.3571 0.00561523 27.1938 0.0493633 27.0498 0.132461L3.38005 14.3343C3.38005 14.3343 3.32324 14.3911 3.29484 14.4101C3.24097 14.4467 3.19307 14.4914 3.15282 14.5426C3.1128 14.5893 3.07789 14.6401 3.04867 14.6941C3.01599 14.7439 2.99049 14.7982 2.97293 14.8551C2.96757 14.918 2.96757 14.9815 2.97293 15.0444L2.84038 15.1486V42.6055H0.946792C0.695687 42.6055 0.454867 42.7053 0.277309 42.8829C0.0997511 43.0604 0 43.3012 0 43.5523C0 43.8034 0.0997511 44.0443 0.277309 44.2218C0.454867 44.3993 0.695687 44.4991 0.946792 44.4991H53.9671C54.2182 44.4991 54.4591 44.3993 54.6366 44.2218C54.8141 44.0443 54.9139 43.8034 54.9139 43.5523C54.9139 43.3012 54.8141 43.0604 54.6366 42.8829C54.4591 42.7053 54.2182 42.6055 53.9671 42.6055ZM15.1487 42.6055H9.46792V33.1376H15.1487V42.6055ZM45.446 42.6055H22.723V23.6697H45.446V42.6055ZM50.18 42.6055H47.3396V22.7229C47.3396 22.4718 47.2398 22.231 47.0623 22.0534C46.8848 21.8759 46.6439 21.7761 46.3928 21.7761H21.7762C21.5251 21.7761 21.2843 21.8759 21.1067 22.0534C20.9292 22.231 20.8294 22.4718 20.8294 22.7229V42.6055H17.0423V32.1908C17.0423 31.9397 16.9425 31.6989 16.7649 31.5214C16.5874 31.3438 16.3465 31.244 16.0955 31.244H8.52113C8.27002 31.244 8.0292 31.3438 7.85164 31.5214C7.67409 31.6989 7.57433 31.9397 7.57433 32.1908V42.6055H4.73396V15.6882L27.457 2.05445L50.18 15.6882V42.6055Z" fill="black"/>
<path d="M32.1909 19.8826H35.9781C36.2292 19.8826 36.47 19.7828 36.6476 19.6053C36.8251 19.4278 36.9249 19.1869 36.9249 18.9358C36.9249 18.6847 36.8251 18.4439 36.6476 18.2663C36.47 18.0888 36.2292 17.989 35.9781 17.989H32.1909C31.9398 17.989 31.699 18.0888 31.5215 18.2663C31.3439 18.4439 31.2441 18.6847 31.2441 18.9358C31.2441 19.1869 31.3439 19.4278 31.5215 19.6053C31.699 19.7828 31.9398 19.8826 32.1909 19.8826Z" fill="#D64356"/>
<path d="M27.457 29.3506H40.7121C40.9631 29.3506 41.204 29.2508 41.3815 29.0733C41.5591 28.8958 41.6588 28.6549 41.6588 28.4038C41.6588 28.1527 41.5591 27.9119 41.3815 27.7343C41.204 27.5568 40.9631 27.457 40.7121 27.457H27.457C27.2059 27.457 26.965 27.5568 26.7875 27.7343C26.61 27.9119 26.5102 28.1527 26.5102 28.4038C26.5102 28.6549 26.61 28.8958 26.7875 29.0733C26.965 29.2508 27.2059 29.3506 27.457 29.3506Z" fill="black"/>
<path d="M27.457 34.0845H40.7121C40.9631 34.0845 41.204 33.9847 41.3815 33.8072C41.5591 33.6297 41.6588 33.3888 41.6588 33.1377C41.6588 32.8866 41.5591 32.6458 41.3815 32.4682C41.204 32.2907 40.9631 32.1909 40.7121 32.1909H27.457C27.2059 32.1909 26.965 32.2907 26.7875 32.4682C26.61 32.6458 26.5102 32.8866 26.5102 33.1377C26.5102 33.3888 26.61 33.6297 26.7875 33.8072C26.965 33.9847 27.2059 34.0845 27.457 34.0845Z" fill="black"/>
<path d="M27.457 38.8184H40.7121C40.9631 38.8184 41.204 38.7186 41.3815 38.5411C41.5591 38.3636 41.6588 38.1227 41.6588 37.8716C41.6588 37.6205 41.5591 37.3796 41.3815 37.2021C41.204 37.0246 40.9631 36.9248 40.7121 36.9248H27.457C27.2059 36.9248 26.965 37.0246 26.7875 37.2021C26.61 37.3796 26.5102 37.6205 26.5102 37.8716C26.5102 38.1227 26.61 38.3636 26.7875 38.5411C26.965 38.7186 27.2059 38.8184 27.457 38.8184Z" fill="black"/>
<path d="M14.2019 27.457H10.4147C10.1636 27.457 9.92275 27.5568 9.74523 27.7343C9.5677 27.9119 9.46791 28.1527 9.46791 28.4038C9.46791 28.6549 9.5677 28.8958 9.74523 29.0733C9.92275 29.2508 10.1636 29.3506 10.4147 29.3506H14.2019C14.453 29.3506 14.6938 29.2508 14.8713 29.0733C15.0489 28.8958 15.1487 28.6549 15.1487 28.4038C15.1487 28.1527 15.0489 27.9119 14.8713 27.7343C14.6938 27.5568 14.453 27.457 14.2019 27.457Z" fill="#D64356"/>
</svg>
