<svg width="80" height="78" viewBox="0 0 80 78" fill="none" xmlns="http://www.w3.org/2000/svg">
<g clip-path="url(#clip0)">
<path d="M79.9555 37.2601L79.7614 34.2835C79.6967 33.6041 79.5673 32.9246 79.4378 32.2452L79.3084 31.404C79.179 30.4334 78.9202 29.5274 78.6937 28.6539L78.4672 27.7803C78.2407 27.0038 78.0466 26.195 77.7231 25.4832C76.4936 21.8595 74.5524 18.3329 71.9641 14.9358C69.4081 11.6357 66.4962 8.85321 63.3255 6.68548C59.896 4.35599 56.3047 2.60887 52.6163 1.47648C50.2221 0.764692 47.6985 0.279381 45.1425 0.0205488C43.6542 -0.108867 42.166 0.376443 41.0336 1.37942C39.9335 2.38239 39.3188 3.80597 39.3188 5.29426C39.3188 7.91494 41.2924 10.1797 43.9454 10.5356C45.7896 10.7944 47.6338 11.2151 49.3486 11.7651C51.9045 12.6386 54.4282 13.9975 56.8871 15.777C59.0548 17.3623 61.0607 19.3683 62.7755 21.7948C64.5226 24.2861 65.8168 26.7774 66.5286 29.2686C66.5286 29.3333 66.5609 29.3657 66.5933 29.398C66.7551 29.7863 66.8521 30.2716 66.9815 30.7569L67.208 31.6628C67.3374 32.2128 67.4668 32.7629 67.5315 33.3129C67.5639 33.6041 67.5963 33.8952 67.661 34.2188C67.7257 34.6394 67.7904 35.06 67.8227 35.3835L67.8874 37.5189C67.8227 40.5602 67.4021 43.3103 66.6256 45.7045C65.7521 48.3575 64.4903 50.8164 62.9049 53.0812C61.4166 55.1842 59.4754 57.1578 57.1782 58.8726L56.0782 59.6491C55.9164 59.7461 55.787 59.8755 55.5282 60.005L53.7164 61.0726L53.0693 61.3962C52.0339 61.8815 51.0633 62.3345 49.9956 62.658C47.2455 63.5963 44.5925 64.0169 42.0365 64.0169C36.7952 64.1463 31.4244 62.5286 26.9595 59.4873C24.7918 57.9343 22.8506 56.0901 21.2329 54.0518L20.0681 52.4341C19.874 52.1106 19.6799 51.787 19.4858 51.4635C19.324 51.2047 19.1622 50.9135 18.9681 50.5899C18.774 50.2987 18.6122 49.9429 18.4504 49.5546C18.3534 49.3281 18.2563 49.1017 18.1592 48.9075L17.7386 48.034C17.6739 47.8722 17.6092 47.7104 17.5769 47.5486L17.0268 45.9957C16.9621 45.8015 16.8974 45.6398 16.8327 45.3486L16.3798 43.4073C16.3151 43.0191 16.2503 42.6632 16.218 42.2749C16.1856 41.9838 16.1533 41.6926 16.1209 41.4661C16.1209 41.3043 16.0886 41.1426 16.0562 40.9808C16.0239 40.8514 16.0239 40.7543 16.0239 40.5278L15.9915 39.4925C15.9915 39.2337 15.9915 38.9748 15.9592 38.716C15.9268 38.3277 15.9268 37.9395 15.9592 37.4865C15.9915 36.8395 16.0239 36.1924 16.1209 35.5453C16.2827 34.2835 16.5415 32.9893 16.8974 31.7599C17.0268 31.3393 16.9621 30.8863 16.7357 30.4981L12.5296 23.2831C12.109 22.5713 11.2031 22.2801 10.4266 22.636L2.07927 26.6156C1.65866 26.8097 1.33512 27.2303 1.20571 27.6833C0.688041 29.7539 0.3645 31.8569 0.170376 33.96C0.0733139 34.9629 0.0409598 36.0306 0.00860575 37.0983C-0.0237483 37.9071 0.0409597 38.6836 0.105668 39.4601L0.267438 41.7573C0.267438 42.1779 0.332146 42.5661 0.429209 42.9544C0.461563 43.1161 0.493917 43.2456 0.526271 43.472L0.688041 44.378C0.817457 45.0897 0.91452 45.8339 1.10864 46.6104L1.88514 49.4899C2.01456 50.0076 2.20868 50.4929 2.37045 50.9135L3.1793 52.9841C3.30872 53.34 3.43814 53.6636 3.63226 54.0518L4.3117 55.443C4.44111 55.6695 4.57053 55.9284 4.66759 56.1548C5.02349 56.8343 5.34703 57.5461 5.79998 58.2255L6.25294 58.9373C6.64119 59.552 7.02944 60.1991 7.51475 60.8785L9.39129 63.3374C12.0767 66.5405 15.215 69.3229 18.7093 71.6201C25.1801 75.729 32.7186 77.9615 40.1924 77.9615C40.9365 77.9615 41.6806 77.9291 42.4248 77.8968L44.3337 77.7673C44.7219 77.735 45.1425 77.7026 45.5308 77.6379L48.4103 77.1526C48.8633 77.0879 49.2839 76.9908 49.6397 76.8614L51.9692 76.2143C52.3251 76.1173 52.681 76.0202 53.0693 75.8908L54.3958 75.3731C56.2723 74.7261 57.9871 73.8201 59.6695 72.9466L62.549 71.1671C62.9696 70.9083 63.3579 70.6171 63.6814 70.3906L65.1373 69.2906C68.4698 66.6052 71.2523 63.5963 73.42 60.3285C75.6524 56.9313 77.3672 53.2106 78.5319 49.2958C79.5996 45.6398 80.0849 41.5955 79.9879 37.2924C79.9555 37.2924 79.9555 37.2924 79.9555 37.2601ZM75.3936 48.4222C74.3259 52.0459 72.7406 55.443 70.7022 58.5814C68.7286 61.5903 66.1727 64.3404 63.1314 66.7993L61.7078 67.8994C61.449 68.0935 61.1902 68.2876 60.8666 68.4817L58.4724 70.0024L58.1489 70.1641C56.5312 71.0053 54.9782 71.8142 53.2958 72.3966L51.9045 72.9142C51.6457 73.0113 51.3869 73.076 51.128 73.1407C50.9663 73.1731 50.7721 73.2378 50.6427 73.2701L48.7662 73.7878C48.5074 73.8525 48.2485 73.9496 47.925 73.9819L44.9484 74.4996C44.6896 74.5643 44.3984 74.5643 44.1396 74.5966L42.2307 74.7261C34.7245 75.179 26.9919 73.1084 20.4564 68.967C17.221 66.864 14.3415 64.2757 11.8825 61.3638L10.1031 59.0343C9.71483 58.452 9.32658 57.8696 8.97068 57.2872L8.48537 56.5107C8.12948 55.9931 7.83829 55.4107 7.5471 54.796C7.41769 54.5371 7.28827 54.2783 7.15885 54.0518L6.51177 52.7577C6.38236 52.4665 6.2853 52.2076 6.15588 51.9164L5.34703 49.8458C5.21761 49.4899 5.08819 49.1664 4.99113 48.7458L4.21463 45.8986C4.05286 45.2515 3.9558 44.5721 3.85874 43.8926L3.69697 43.0191C3.66462 42.825 3.63226 42.6308 3.59991 42.4367C3.56755 42.1779 3.50285 41.919 3.50285 41.6279L3.34107 39.2984C3.30872 38.5866 3.24401 37.9071 3.27637 37.2277C3.27637 36.2247 3.34107 35.2218 3.40578 34.3158C3.5352 32.6334 3.82639 30.9187 4.18228 29.2686L10.3619 26.292L13.4679 31.6305C13.1767 32.8276 12.9179 34.0247 12.7885 35.2541C12.6914 35.9659 12.6267 36.71 12.5943 37.4218C12.562 37.9395 12.562 38.4572 12.5943 38.9748C12.5943 39.2013 12.6267 39.4278 12.6267 39.6543L12.659 40.6249C12.659 41.0131 12.6914 41.3367 12.7561 41.5955C12.7561 41.6926 12.7885 41.7896 12.8208 41.9514C12.8532 42.2102 12.8855 42.4691 12.9179 42.7279C12.9826 43.1809 13.0149 43.6015 13.112 44.1191L13.565 46.0604C13.6297 46.481 13.7591 46.8369 13.8885 47.1604L14.4062 48.6487C14.4709 48.9075 14.5679 49.134 14.6974 49.4252L15.1503 50.3958C15.2474 50.5899 15.3121 50.7517 15.4091 50.9458C15.6033 51.3988 15.8621 51.9488 16.1533 52.4018C16.3151 52.6606 16.4445 52.8871 16.5739 53.1459C16.768 53.5018 16.9945 53.8577 17.2533 54.3106L18.5151 56.0901C20.3593 58.4196 22.4947 60.4903 24.9536 62.2374C30.0008 65.6669 36.051 67.5111 41.9071 67.3493C44.7543 67.3493 47.7956 66.864 50.8045 65.8287C52.0663 65.4728 53.1987 64.9228 54.2987 64.4051L55.0105 64.0816C55.0429 64.0492 55.1076 64.0492 55.1399 64.0169L56.9194 62.9815C57.2753 62.7874 57.5665 62.5933 57.8253 62.3992L58.9254 61.5903C61.5137 59.6491 63.6814 57.449 65.3962 55.0548C67.1757 52.5312 68.5669 49.7811 69.5375 46.8369C70.4111 44.1191 70.8964 41.0455 70.9611 37.616L70.8964 35.3188C70.864 34.8335 70.7993 34.3482 70.7346 33.8952C70.7022 33.6364 70.6699 33.3452 70.6375 33.1187C70.5728 32.3746 70.4111 31.6952 70.2493 31.0481L70.0552 30.2069C69.9258 29.6569 69.7963 29.0421 69.5375 28.4274C68.6963 25.645 67.2727 22.8302 65.3315 20.0801C63.3902 17.3623 61.1578 15.0975 58.6989 13.3181C56.0135 11.3445 53.1987 9.85618 50.2868 8.88556C48.3779 8.23848 46.3396 7.78552 44.3013 7.52669C43.2336 7.39727 42.4895 6.52371 42.4895 5.48838C42.4895 4.90601 42.716 4.35599 43.1689 3.96774C43.6219 3.57949 44.2043 3.38537 44.7866 3.45008C47.1485 3.67656 49.4456 4.12951 51.6457 4.77659C55.0105 5.77957 58.3106 7.39727 61.449 9.56499C64.3608 11.5386 67.0139 14.0622 69.3434 17.1035C71.7376 20.2095 73.4847 23.4449 74.6494 26.8421C74.9083 27.4568 75.1024 28.1039 75.2642 28.8157L75.4906 29.6892C75.7171 30.4981 75.9112 31.2422 76.0407 32.0511L76.2024 32.9893C76.2995 33.6041 76.4289 34.2188 76.4936 34.7688L76.6877 37.616C76.8172 41.4014 76.3642 45.0897 75.3936 48.4222Z" fill="black"/>
<path d="M40.9041 45.1542C44.8189 45.1542 48.022 41.9512 48.022 38.0363C48.022 35.1568 46.3072 32.6009 43.6542 31.4685C43.2983 31.3067 42.91 31.2096 42.5218 31.1126V17.9121C42.5218 17.0386 41.81 16.2944 40.9041 16.2944C39.9981 16.2944 39.2864 17.0062 39.2864 17.9121V31.1449C38.8981 31.242 38.5099 31.3391 38.1216 31.5008C35.4686 32.6009 33.7538 35.1892 33.7538 38.0687C33.7862 41.9512 36.9892 45.1542 40.9041 45.1542ZM39.4158 34.4451C39.9011 34.2509 40.3864 34.1539 40.9041 34.1215C41.4217 34.1215 41.9394 34.2186 42.3923 34.4127C43.8483 35.0274 44.7865 36.451 44.7865 38.004C44.7865 40.1394 43.0394 41.9188 40.8717 41.9188C38.7363 41.9188 36.9569 40.1717 36.9569 38.004C37.0216 36.4834 37.9598 35.0598 39.4158 34.4451Z" fill="#CC4051"/>
</g>
<defs>
<clipPath id="clip0">
<rect width="80" height="77.9615" fill="white"/>
</clipPath>
</defs>
</svg>
