<svg width="51" height="45" viewBox="0 0 51 45" fill="none" xmlns="http://www.w3.org/2000/svg">
<path d="M49.3269 43.2692H46.7307V18.1731C46.7349 18.1241 46.7349 18.0749 46.7307 18.026C46.7307 18.026 46.7307 17.9567 46.7307 17.9308L42.4038 3.34038V0.865385C42.4038 0.63587 42.3126 0.415757 42.1503 0.253465C41.988 0.0911744 41.7679 0 41.5384 0H8.65378C8.42427 0 8.20416 0.0911744 8.04187 0.253465C7.87957 0.415757 7.7884 0.63587 7.7884 0.865385V3.34038L3.46148 17.9308C3.46148 17.9308 3.46148 17.9913 3.46148 18.026C3.4573 18.0749 3.4573 18.1241 3.46148 18.1731V43.2692H0.865324C0.635809 43.2692 0.415695 43.3604 0.253404 43.5227C0.0911131 43.685 -6.10352e-05 43.9051 -6.10352e-05 44.1346C-6.10352e-05 44.3641 0.0911131 44.5842 0.253404 44.7465C0.415695 44.9088 0.635809 45 0.865324 45H49.3269C49.5564 45 49.7765 44.9088 49.9388 44.7465C50.1011 44.5842 50.1922 44.3641 50.1922 44.1346C50.1922 43.9051 50.1011 43.685 49.9388 43.5227C49.7765 43.3604 49.5564 43.2692 49.3269 43.2692ZM39.8076 22.5C39.8076 22.8548 39.1326 23.3654 38.0769 23.3654C37.0211 23.3654 36.3461 22.8548 36.3461 22.5V19.0385H39.8076V22.5ZM34.6153 22.5C34.6153 22.8548 33.9403 23.3654 32.8846 23.3654C31.8288 23.3654 31.1538 22.8548 31.1538 22.5V19.0385H34.6153V22.5ZM29.423 22.5C29.423 22.8548 28.748 23.3654 27.6922 23.3654C26.6365 23.3654 25.9615 22.8548 25.9615 22.5V19.0385H29.423V22.5ZM24.2307 22.5C24.2307 22.8548 23.5557 23.3654 22.4999 23.3654C21.4442 23.3654 20.7692 22.8548 20.7692 22.5V19.0385H24.2307V22.5ZM19.0384 22.5C19.0384 22.8548 18.3634 23.3654 17.3076 23.3654C16.2519 23.3654 15.5769 22.8548 15.5769 22.5V19.0385H19.0384V22.5ZM13.8461 22.5C13.8461 22.8548 13.1711 23.3654 12.1153 23.3654C11.0596 23.3654 10.3846 22.8548 10.3846 22.5V19.0385H13.8461V22.5ZM8.65378 22.5C8.65378 22.8548 7.97879 23.3654 6.92302 23.3654C5.86725 23.3654 5.19225 22.8548 5.19225 22.5V19.0385H8.65378V22.5ZM41.5384 19.0385H44.9999V22.5C44.9999 22.8548 44.3249 23.3654 43.2692 23.3654C42.2134 23.3654 41.5384 22.8548 41.5384 22.5V19.0385ZM9.51917 1.73077H40.673V2.59615H9.51917V1.73077ZM9.30282 4.32692H40.8894L44.7057 17.3077H5.48648L9.30282 4.32692ZM12.9807 43.2692V31.1538H19.9038V43.2692H12.9807ZM21.6346 43.2692V30.2885C21.6346 30.0589 21.5434 29.8388 21.3811 29.6765C21.2188 29.5143 20.9987 29.4231 20.7692 29.4231H12.1153C11.8858 29.4231 11.6657 29.5143 11.5034 29.6765C11.3411 29.8388 11.2499 30.0589 11.2499 30.2885V43.2692H5.19225V24.75C5.73998 24.9807 6.32867 25.0985 6.92302 25.0962C7.86314 25.1213 8.78217 24.815 9.51917 24.2308C10.2562 24.815 11.1752 25.1213 12.1153 25.0962C13.0555 25.1213 13.9745 24.815 14.7115 24.2308C15.4605 24.7925 16.3714 25.0962 17.3076 25.0962C18.2438 25.0962 19.1548 24.7925 19.9038 24.2308C20.6528 24.7925 21.5637 25.0962 22.4999 25.0962C23.4362 25.0962 24.3471 24.7925 25.0961 24.2308C25.8451 24.7925 26.756 25.0962 27.6922 25.0962C28.6285 25.0962 29.5394 24.7925 30.2884 24.2308C31.0374 24.7925 31.9483 25.0962 32.8846 25.0962C33.8208 25.0962 34.7317 24.7925 35.4807 24.2308C36.2297 24.7925 37.1406 25.0962 38.0769 25.0962C39.0131 25.0962 39.924 24.7925 40.673 24.2308C41.41 24.815 42.329 25.1213 43.2692 25.0962C43.8635 25.0985 44.4522 24.9807 44.9999 24.75V43.2692H21.6346Z" fill="black"/>
<path d="M41.5384 32.0193H29.423C29.1935 32.0193 28.9734 32.1105 28.8111 32.2728C28.6488 32.435 28.5576 32.6552 28.5576 32.8847V39.8077C28.5576 40.0373 28.6488 40.2574 28.8111 40.4197C28.9734 40.582 29.1935 40.6731 29.423 40.6731H41.5384C41.7679 40.6731 41.988 40.582 42.1503 40.4197C42.3126 40.2574 42.4038 40.0373 42.4038 39.8077V32.8847C42.4038 32.6552 42.3126 32.435 42.1503 32.2728C41.988 32.1105 41.7679 32.0193 41.5384 32.0193ZM40.673 38.9424H30.2884V33.7501H40.673V38.9424Z" fill="#D64356"/>
<path d="M33.7499 31.1539H37.2115C37.441 31.1539 37.6611 31.0627 37.8234 30.9004C37.9857 30.7381 38.0769 30.518 38.0769 30.2885C38.0769 30.059 37.9857 29.8389 37.8234 29.6766C37.6611 29.5143 37.441 29.4231 37.2115 29.4231H33.7499C33.5204 29.4231 33.3003 29.5143 33.138 29.6766C32.9757 29.8389 32.8846 30.059 32.8846 30.2885C32.8846 30.518 32.9757 30.7381 33.138 30.9004C33.3003 31.0627 33.5204 31.1539 33.7499 31.1539Z" fill="#D64356"/>
</svg>
