<svg width="59" height="70" viewBox="0 0 59 70" fill="none" xmlns="http://www.w3.org/2000/svg">
<g clip-path="url(#clip0)">
<path d="M54.9809 39.0721V1.48633C54.9809 1.20078 54.8675 0.926928 54.6655 0.725015C54.4636 0.523102 54.1898 0.409668 53.9042 0.409668H10.9176C10.632 0.409668 10.3582 0.523102 10.1563 0.725015C9.95435 0.926928 9.84092 1.20078 9.84092 1.48633V7.24606H6.20739C5.92184 7.24606 5.64799 7.3595 5.44607 7.56141C5.24416 7.76332 5.13073 8.03717 5.13073 8.32272V29.1748C3.6785 29.5314 2.3876 30.3642 1.46415 31.5404C0.540691 32.7165 0.0379292 34.1682 0.0361328 35.6635V66.1912C0.0369774 67.0924 0.395362 67.9565 1.03263 68.5938C1.66989 69.231 2.53396 69.5894 3.43519 69.5903H54.8979C55.7992 69.5894 56.6632 69.231 57.3005 68.5938C57.9378 67.9565 58.2962 67.0924 58.297 66.1912V42.468C58.2956 41.5815 57.9483 40.7305 57.3289 40.0963C56.7096 39.462 55.8671 39.0946 54.9809 39.0721ZM11.9942 2.56299H52.8276V39.0705H50.0139V16.7909C50.0139 16.7542 50.0139 16.7191 50.0139 16.6824C50.0139 16.6457 50.0059 16.6234 50.0011 16.5947C49.9964 16.566 50.0011 16.5835 50.0011 16.5771C49.9587 16.3673 49.8542 16.175 49.7013 16.0252L41.1295 7.56507C41.1027 7.53696 41.0739 7.51084 41.0433 7.48692L41.0322 7.47734C41.0088 7.4582 40.9848 7.44066 40.9604 7.42471L40.9444 7.41514C40.9205 7.39919 40.895 7.38483 40.8695 7.37048H40.8551L40.7754 7.33219H40.7626C40.7346 7.32019 40.7058 7.31006 40.6765 7.30189H40.6621C40.6338 7.29347 40.605 7.28655 40.576 7.28115H40.5441C40.5204 7.27588 40.4964 7.27215 40.4723 7.26999C40.4372 7.26999 40.4005 7.26999 40.3654 7.26999H11.9942V2.56299ZM41.4485 10.9019L46.3198 15.7142H41.4485V10.9019ZM39.2952 9.40257V16.7909C39.2952 17.0764 39.4086 17.3503 39.6105 17.5522C39.8124 17.7541 40.0863 17.8675 40.3718 17.8675H47.8686V39.0705H42.6639V35.6635C42.6622 33.8922 41.9579 32.1939 40.7056 30.9413C39.4532 29.6886 37.7551 28.9839 35.9838 28.9818H7.28405V9.40257H39.2952ZM56.1485 66.1864C56.148 66.5167 56.0167 66.8333 55.7831 67.0668C55.5496 67.3004 55.233 67.4317 54.9027 67.4322H3.43519C3.10493 67.4317 2.78832 67.3004 2.55479 67.0668C2.32126 66.8333 2.18988 66.5167 2.18945 66.1864V35.6635C2.19114 34.463 2.66877 33.3122 3.51764 32.4633C4.36651 31.6145 5.51733 31.1368 6.71781 31.1352H35.9838C37.1841 31.1368 38.3348 31.6145 39.1834 32.4634C40.032 33.3124 40.5093 34.4632 40.5106 35.6635V40.1472C40.511 40.4326 40.6246 40.7062 40.8264 40.9081C41.0282 41.1099 41.3018 41.2234 41.5872 41.2239H54.8979C55.2279 41.2243 55.5443 41.3554 55.7778 41.5886C56.0113 41.8218 56.1428 42.138 56.1437 42.468L56.1485 66.1864Z" fill="#231F20"/>
<path d="M13.5703 17.8677H35.6219C35.9075 17.8677 36.1813 17.7542 36.3832 17.5523C36.5851 17.3504 36.6986 17.0766 36.6986 16.791C36.6986 16.5055 36.5851 16.2316 36.3832 16.0297C36.1813 15.8278 35.9075 15.7144 35.6219 15.7144H13.5703C13.2848 15.7144 13.0109 15.8278 12.809 16.0297C12.6071 16.2316 12.4937 16.5055 12.4937 16.791C12.4937 17.0766 12.6071 17.3504 12.809 17.5523C13.0109 17.7542 13.2848 17.8677 13.5703 17.8677Z" fill="#231F20"/>
<path d="M35.6218 22.3223H29.6196C29.3341 22.3223 29.0602 22.4357 28.8583 22.6376C28.6564 22.8395 28.543 23.1134 28.543 23.3989C28.543 23.6845 28.6564 23.9583 28.8583 24.1602C29.0602 24.3622 29.3341 24.4756 29.6196 24.4756H35.6218C35.9074 24.4756 36.1812 24.3622 36.3831 24.1602C36.585 23.9583 36.6985 23.6845 36.6985 23.3989C36.6985 23.1134 36.585 22.8395 36.3831 22.6376C36.1812 22.4357 35.9074 22.3223 35.6218 22.3223Z" fill="#231F20"/>
<path d="M13.5703 24.4727H24.5953C24.8809 24.4727 25.1547 24.3592 25.3566 24.1573C25.5585 23.9554 25.672 23.6815 25.672 23.396C25.672 23.1104 25.5585 22.8366 25.3566 22.6347C25.1547 22.4328 24.8809 22.3193 24.5953 22.3193H13.5703C13.2848 22.3193 13.0109 22.4328 12.809 22.6347C12.6071 22.8366 12.4937 23.1104 12.4937 23.396C12.4937 23.6815 12.6071 23.9554 12.809 24.1573C13.0109 24.3592 13.2848 24.4727 13.5703 24.4727Z" fill="#231F20"/>
<path d="M29.2128 46.2498C29.139 46.0392 29.0016 45.8568 28.8196 45.7277C28.6376 45.5986 28.4199 45.5293 28.1968 45.5293C27.9736 45.5293 27.756 45.5986 27.574 45.7277C27.392 45.8568 27.2546 46.0392 27.1807 46.2498L22.1133 60.6276C22.0183 60.8971 22.0343 61.1932 22.1576 61.4509C22.281 61.7086 22.5017 61.9068 22.7712 62.0017C23.0407 62.0967 23.3369 62.0807 23.5946 61.9574C23.8523 61.834 24.0504 61.6133 24.1454 61.3438L25.2061 58.3355H31.1875L32.2482 61.3438C32.3432 61.6133 32.5413 61.834 32.799 61.9574C33.0567 62.0807 33.3529 62.0967 33.6224 62.0017C33.8918 61.9068 34.1125 61.7086 34.2359 61.4509C34.3593 61.1932 34.3753 60.8971 34.2803 60.6276L29.2128 46.2498ZM25.9637 56.1822L26.0419 55.9605L26.3162 55.1853L28.1952 49.8514L30.4283 56.187L25.9637 56.1822Z" fill="#D64356"/>
<path d="M20.3812 45.3984H12.0869C11.8014 45.3984 11.5275 45.5119 11.3256 45.7138C11.1237 45.9157 11.0103 46.1895 11.0103 46.4751C11.0103 46.7606 11.1237 47.0345 11.3256 47.2364C11.5275 47.4383 11.8014 47.5518 12.0869 47.5518H15.1574V60.8513C15.1574 61.1369 15.2708 61.4107 15.4727 61.6126C15.6746 61.8145 15.9485 61.928 16.234 61.928C16.5196 61.928 16.7935 61.8145 16.9954 61.6126C17.1973 61.4107 17.3107 61.1369 17.3107 60.8513V47.5518H20.3812C20.6667 47.5518 20.9406 47.4383 21.1425 47.2364C21.3444 47.0345 21.4578 46.7606 21.4578 46.4751C21.4578 46.1895 21.3444 45.9157 21.1425 45.7138C20.9406 45.5119 20.6667 45.3984 20.3812 45.3984Z" fill="#D64356"/>
<path d="M46.7968 45.5498C46.5515 45.4039 46.2582 45.3615 45.9815 45.4318C45.7048 45.5021 45.4674 45.6793 45.3214 45.9247L41.9718 51.5472L38.6222 45.9247C38.5516 45.8 38.4567 45.6907 38.3433 45.6032C38.2298 45.5156 38.1001 45.4516 37.9616 45.4149C37.8231 45.3782 37.6786 45.3694 37.5367 45.3892C37.3948 45.409 37.2583 45.457 37.1351 45.5302C37.012 45.6035 36.9047 45.7006 36.8196 45.8158C36.7344 45.9311 36.6731 46.0622 36.6393 46.2014C36.6055 46.3406 36.5998 46.4852 36.6226 46.6267C36.6453 46.7682 36.6961 46.9037 36.7719 47.0252L40.7165 53.6527L36.7751 60.2801C36.7028 60.4016 36.655 60.5362 36.6347 60.6761C36.6143 60.816 36.6217 60.9586 36.6564 61.0957C36.6912 61.2328 36.7526 61.3617 36.8371 61.475C36.9216 61.5884 37.0277 61.684 37.1492 61.7564C37.2707 61.8287 37.4052 61.8765 37.5452 61.8968C37.6851 61.9172 37.8277 61.9098 37.9648 61.8751C38.1018 61.8403 38.2307 61.7789 38.3441 61.6944C38.4574 61.6098 38.553 61.5038 38.6254 61.3823L41.975 55.7582L45.3246 61.3823C45.4708 61.6277 45.7084 61.8049 45.9853 61.8751C46.2621 61.9452 46.5555 61.9025 46.8008 61.7564C47.0462 61.6102 47.2234 61.3726 47.2936 61.0957C47.3637 60.8189 47.321 60.5255 47.1749 60.2801L43.2303 53.6527L47.1749 47.0252C47.2472 46.9036 47.2948 46.7689 47.3149 46.6288C47.335 46.4888 47.3273 46.3461 47.2922 46.209C47.2571 46.072 47.1952 45.9432 47.1102 45.8301C47.0252 45.7169 46.9187 45.6217 46.7968 45.5498Z" fill="#D64356"/>
</g>
<defs>
<clipPath id="clip0">
<rect width="58.3333" height="70" fill="white"/>
</clipPath>
</defs>
</svg>
