<svg width="60" height="70" viewBox="0 0 60 70" fill="none" xmlns="http://www.w3.org/2000/svg">
<path d="M53.3333 0H11.3333C8.47959 0 6.10775 2.06267 5.60725 4.774C2.89592 5.2745 0.833252 7.64633 0.833252 10.5V64.1667C0.833252 67.3832 3.45009 70 6.66659 70H48.6666C51.5203 70 53.8921 67.9373 54.3926 65.226C57.1039 64.7255 59.1666 62.3537 59.1666 59.5V5.83333C59.1666 2.61683 56.5498 0 53.3333 0ZM52.1666 64.1667C52.1666 66.0963 50.5963 67.6667 48.6666 67.6667H6.66659C4.73692 67.6667 3.16659 66.0963 3.16659 64.1667V10.5C3.16659 8.57033 4.73692 7 6.66659 7H41.6666V16.3333C41.6666 16.9785 42.1893 17.5 42.8333 17.5H52.1666V64.1667ZM43.9999 15.1667V8.64967L50.5169 15.1667H43.9999ZM56.8333 59.5C56.8333 61.019 55.8544 62.3023 54.4999 62.7853V16.3333C54.4999 16.0102 54.3693 15.7185 54.1569 15.5073L43.6593 5.00967C43.4481 4.79733 43.1564 4.66667 42.8333 4.66667H8.04792C8.53092 3.31217 9.81425 2.33333 11.3333 2.33333H53.3333C55.2629 2.33333 56.8333 3.90367 56.8333 5.83333V59.5Z" fill="black"/>
<path d="M27.6666 17.5C18.6599 17.5 11.3333 24.8267 11.3333 33.8333C11.3333 42.84 18.6599 50.1667 27.6666 50.1667C36.6733 50.1667 43.9999 42.84 43.9999 33.8333C43.9999 24.8267 36.6733 17.5 27.6666 17.5ZM27.6666 47.8333C19.9468 47.8333 13.6666 41.5532 13.6666 33.8333C13.6666 26.1135 19.9468 19.8333 27.6666 19.8333C35.3864 19.8333 41.6666 26.1135 41.6666 33.8333C41.6666 41.5532 35.3864 47.8333 27.6666 47.8333Z" fill="black"/>
<path d="M31.3658 26.1838L22.0322 40.1851L23.9739 41.4794L33.3075 27.4782L31.3658 26.1838Z" fill="#D64356"/>
<path d="M33.5 33.8335C31.5703 33.8335 30 35.4038 30 37.3335C30 39.2632 31.5703 40.8335 33.5 40.8335C35.4297 40.8335 37 39.2632 37 37.3335C37 35.4038 35.4297 33.8335 33.5 33.8335ZM33.5 38.5002C32.8572 38.5002 32.3333 37.9775 32.3333 37.3335C32.3333 36.6895 32.8572 36.1668 33.5 36.1668C34.1428 36.1668 34.6667 36.6895 34.6667 37.3335C34.6667 37.9775 34.1428 38.5002 33.5 38.5002Z" fill="#D64356"/>
<path d="M21.8333 26.8335C19.9036 26.8335 18.3333 28.4038 18.3333 30.3335C18.3333 32.2632 19.9036 33.8335 21.8333 33.8335C23.7629 33.8335 25.3333 32.2632 25.3333 30.3335C25.3333 28.4038 23.7629 26.8335 21.8333 26.8335ZM21.8333 31.5002C21.1904 31.5002 20.6666 30.9775 20.6666 30.3335C20.6666 29.6895 21.1904 29.1668 21.8333 29.1668C22.4761 29.1668 22.9999 29.6895 22.9999 30.3335C22.9999 30.9775 22.4761 31.5002 21.8333 31.5002Z" fill="#D64356"/>
<path d="M33.8418 51.6753L27.6666 57.8505L24.9915 55.1753L23.3418 56.825L26.8418 60.325C27.0693 60.5525 27.368 60.6668 27.6666 60.6668C27.9653 60.6668 28.264 60.5525 28.4915 60.325L35.4915 53.325L33.8418 51.6753Z" fill="black"/>
</svg>
