<svg width="58" height="50" viewBox="0 0 58 50" fill="none" xmlns="http://www.w3.org/2000/svg">
<path d="M56.392 31.644L53.4362 32.4837L46.1644 7.02369C46.0804 6.7046 45.8621 6.43589 45.5598 6.26795C45.2743 6.10001 44.9216 6.06642 44.6025 6.15039L32.1748 9.69397L25.0709 11.7261L13.8524 14.917L10.8798 4.48777C10.779 4.13509 10.5271 3.84959 10.208 3.69844L2.54988 0.121282C1.9117 -0.181013 1.17275 0.104487 0.870458 0.725872C0.568163 1.36405 0.853663 2.103 1.47505 2.40529L8.61257 5.74733L11.7699 16.8147C11.7699 16.8147 11.7699 16.8147 11.7699 16.8315L17.6814 37.6059C16.5394 38.1937 15.599 39.1006 14.9608 40.2426C14.1043 41.7709 13.9027 43.551 14.3898 45.2305C15.1959 48.0351 17.7822 50 20.7044 50C21.309 50 21.9136 49.916 22.5014 49.7481C24.1808 49.2611 25.5915 48.1526 26.4312 46.6244C27.1198 45.3816 27.3885 43.9709 27.2037 42.577L52.882 35.2715H52.8988L57.0806 34.0791C57.7523 33.8944 58.1386 33.189 57.9539 32.5173C57.7524 31.8455 57.047 31.4592 56.392 31.644ZM33.3672 18.4773L31.3855 17.7888C30.8817 17.604 30.3275 17.772 29.9916 18.1918L28.6816 19.8209L26.9686 13.8085L31.6542 12.4818L33.3672 18.4773ZM24.2312 45.4152C23.7105 46.3557 22.8372 47.0442 21.8128 47.3297C21.4433 47.4305 21.0739 47.4809 20.7044 47.4809C18.9074 47.4809 17.312 46.2717 16.8249 44.5419C16.5226 43.5006 16.657 42.409 17.1776 41.4686C17.6982 40.5281 18.5715 39.8395 19.596 39.554C19.9654 39.4533 20.3349 39.4029 20.7044 39.4029C22.5014 39.4029 24.0968 40.6121 24.5838 42.3419C24.8861 43.3831 24.7518 44.4747 24.2312 45.4152ZM26.3976 40.1922C25.2556 38.1769 23.0892 36.8837 20.7044 36.8837C20.5029 36.8837 20.3181 36.9005 20.1166 36.9173L14.5409 17.3521L24.5503 14.4971L26.935 22.8438C27.0694 23.2973 27.4389 23.6331 27.8923 23.7339C27.9763 23.7507 28.0602 23.7507 28.1442 23.7507C28.5137 23.7507 28.8832 23.5828 29.1183 23.2805L31.4023 20.4422L34.8283 21.6514C34.9626 21.7018 35.1138 21.7186 35.2649 21.7186C35.9535 21.7186 36.5245 21.1476 36.5245 20.459C36.5245 20.3079 36.4909 20.1567 36.4405 20.0224L34.0894 11.7597L44.0987 8.90464L51.0179 33.1554L26.3976 40.1922Z" fill="black"/>
<circle cx="20.6551" cy="43.3175" r="5.18247" stroke="#CC4051" stroke-width="3"/>
</svg>

