<svg width="61" height="61" viewBox="0 0 61 61" fill="none" xmlns="http://www.w3.org/2000/svg">
<g clip-path="url(#clip0)">
<path d="M20.5077 18.0692C13.7273 18.0692 8.23069 23.5659 8.23069 30.3462C8.23069 37.1266 13.7273 42.6232 20.5077 42.6232C27.2881 42.6232 32.7847 37.1266 32.7847 30.3462C32.7847 23.5659 27.2881 18.0692 20.5077 18.0692ZM29.5936 25.7423H25.169C24.7458 23.622 24.0849 21.9082 23.4101 20.586C26.1138 21.3928 28.3333 23.2676 29.5936 25.7423ZM23.5769 30.3462C23.5769 31.2596 23.5085 32.0986 23.4145 32.9039H17.6012C17.5069 32.0986 17.4383 31.2595 17.4383 30.3462C17.4383 29.4325 17.5057 28.5936 17.5992 27.7885H23.4166C23.5095 28.5936 23.5769 29.4326 23.5769 30.3462ZM20.21 20.1453C20.3109 20.1424 20.4058 20.1154 20.5077 20.1154C20.6106 20.1154 20.7059 20.1429 20.8084 20.1458C21.5762 21.3238 22.5099 23.1872 23.0753 25.7423H17.9404C18.5085 23.1784 19.4456 21.3158 20.21 20.1453ZM17.6053 20.586C16.9329 21.9054 16.2715 23.6211 15.8479 25.7423H11.4218C12.6823 23.2676 14.9017 21.3933 17.6053 20.586ZM10.2769 30.3462C10.2769 29.4579 10.4262 28.6108 10.6401 27.7885H15.5372C15.4517 28.5988 15.3923 29.4416 15.3923 30.3462C15.3923 31.2514 15.4533 32.0931 15.5401 32.9039H10.6401C10.4262 32.0816 10.2769 31.2345 10.2769 30.3462ZM11.4218 34.9501H15.8529C16.2806 37.0752 16.9424 38.8037 17.6024 40.1055C14.9002 39.2982 12.6817 37.4239 11.4218 34.9501ZM20.8049 40.5471C20.704 40.5502 20.6096 40.5771 20.5077 40.5771C20.4058 40.5771 20.3114 40.5501 20.21 40.5471C19.4767 39.4192 18.5215 37.5515 17.9431 34.9501H23.0726C22.4949 37.5499 21.5408 39.4166 20.8049 40.5471ZM23.414 40.1055C24.0749 38.8024 24.7364 37.0753 25.163 34.9501H29.5936C28.3336 37.4237 26.1156 39.2978 23.414 40.1055ZM25.4758 32.9039C25.5622 32.0931 25.6231 31.2514 25.6231 30.3462C25.6231 29.4416 25.5642 28.5988 25.4787 27.7885H30.3753C30.5892 28.6108 30.7385 29.4581 30.7385 30.3462C30.7385 31.2345 30.5892 32.0816 30.3753 32.9039H25.4758Z" fill="#CD4051"/>
<path d="M30.7385 48.7617H10.2769V50.8079H30.7385V48.7617Z" fill="black"/>
<path d="M44.9833 34.0225L43.9238 37.9752L45.9002 38.505L46.9597 34.5522L44.9833 34.0225Z" fill="black"/>
<path d="M42.8643 41.9244L39.1576 55.7588L41.134 56.2883L44.8407 42.454L42.8643 41.9244Z" fill="black"/>
<path d="M56.3505 7.40864L32.6334 1.0535C32.2786 0.958485 31.9224 0.913086 31.5718 0.913086C29.7649 0.913214 28.1115 2.11905 27.6214 3.9473L25.4824 11.9307H4.13836C3.00836 11.9307 2.09219 12.8467 2.09219 13.9768V54.9002C2.09219 56.0303 3.00836 56.9463 4.13836 56.9463H27.7717L42.0519 60.7727C42.4067 60.8677 42.7627 60.9131 43.1135 60.9131C44.9204 60.9131 46.5738 59.7071 47.0639 57.8789L59.2444 12.4206C59.8295 10.2376 58.5337 7.99359 56.3505 7.40864ZM4.13836 54.9002V13.9768H34.8309C35.9593 13.9768 36.877 14.8948 36.877 16.023V52.854C36.877 53.9822 35.9593 54.9002 34.8309 54.9002H4.13836ZM57.2682 11.891L45.0877 57.3493C44.8479 58.243 44.0362 58.867 43.1134 58.867C42.9356 58.867 42.7567 58.8433 42.5814 58.7962L35.4462 56.8843C37.4118 56.5857 38.9231 54.9034 38.9231 52.8541V36.6326L39.9711 36.9135L41.0306 32.9605L39.0539 32.431L38.9231 32.92V16.6595C39.561 16.8305 40.2973 17.0278 41.0112 17.2191L43.431 25.1304L45.125 25.5844L44.9646 18.2784C46.0771 18.5766 47.2131 18.8809 47.9574 19.0804L49.2727 21.3998L50.4022 21.7024L50.2079 18.4729L51.9909 15.7731L50.8614 15.4705L48.5629 16.8216C47.8181 16.6223 46.6826 16.3179 45.5697 16.0197L49.3617 9.77299L47.6677 9.31899L41.6166 14.9605C40.4266 14.6417 39.1283 14.2936 38.425 14.1054C37.7356 12.817 36.3934 11.9308 34.8307 11.9308H27.6002L29.5974 4.47712C29.8372 3.58359 30.649 2.95951 31.5717 2.95938C31.7495 2.95938 31.9284 2.98317 32.1037 3.03023L55.821 9.38537C56.349 9.52681 56.7901 9.86545 57.0634 10.3388C57.3368 10.8119 57.4095 11.3632 57.2682 11.891Z" fill="black"/>
<path d="M44.4507 28.6138L43.9273 30.5918L45.8717 31.1063L46.3951 29.1283L44.4507 28.6138Z" fill="black"/>
<path d="M48.3342 29.6456L47.8109 31.6235L49.7553 32.138L50.2786 30.1601L48.3342 29.6456Z" fill="black"/>
<path d="M40.5674 27.5853L40.0441 29.5632L41.9885 30.0777L42.5118 28.0998L40.5674 27.5853Z" fill="black"/>
</g>
<defs>
<clipPath id="clip0">
<rect width="60" height="60" fill="white" transform="translate(0.738525 0.913086)"/>
</clipPath>
</defs>
</svg>
