<svg width="75" height="75" viewBox="0 0 75 75" fill="none" xmlns="http://www.w3.org/2000/svg">
<g clip-path="url(#clip0)">
<path d="M61.8426 30.0242H58.0945C57.5975 30.0242 57.1209 30.2216 56.7694 30.5731C56.418 30.9245 56.2205 31.4012 56.2205 31.8982C56.2205 32.3952 56.418 32.8719 56.7694 33.2233C57.1209 33.5748 57.5975 33.7722 58.0945 33.7722H61.8426C62.3396 33.7722 62.8163 33.5748 63.1677 33.2233C63.5192 32.8719 63.7166 32.3952 63.7166 31.8982C63.7166 31.4012 63.5192 30.9245 63.1677 30.5731C62.8163 30.2216 62.3396 30.0242 61.8426 30.0242Z" fill="#CC4051"/>
<path d="M69.3387 7.5359H62.6297L55.6583 0.60203C55.5218 0.356818 55.3122 0.160294 55.0587 0.0398246C54.8242 -0.0132749 54.5809 -0.0132749 54.3465 0.0398246H20.6142C20.3798 -0.0132749 20.1365 -0.0132749 19.9021 0.0398246C19.6682 0.119735 19.4607 0.26235 19.3024 0.452108L12.331 7.5359H5.62205C4.13099 7.5359 2.701 8.12822 1.64666 9.18256C0.592322 10.2369 0 11.6669 0 13.158V61.8824C0 63.3735 0.592322 64.8035 1.64666 65.8578C2.701 66.9122 4.13099 67.5045 5.62205 67.5045H29.9843L35.9811 74.3634C36.1604 74.5637 36.38 74.7239 36.6254 74.8336C36.8708 74.9433 37.1366 75 37.4054 75C37.6742 75 37.94 74.9433 38.1854 74.8336C38.4308 74.7239 38.6504 74.5637 38.8297 74.3634L44.9764 67.5045H69.3387C70.8297 67.5045 72.2597 66.9122 73.3141 65.8578C74.3684 64.8035 74.9607 63.3735 74.9607 61.8824V13.158C74.9607 11.6669 74.3684 10.2369 73.3141 9.18256C72.2597 8.12822 70.8297 7.5359 69.3387 7.5359ZM38.5673 22.528H36.3934L30.7714 16.906L32.6454 15.032H42.3153L44.1893 16.906L38.5673 22.528ZM42.3153 11.2839H32.6454L25.1493 3.78786H49.8114L42.3153 11.2839ZM45.7635 13.158L54.3465 4.57495L59.1815 9.40991L50.5985 17.9929L45.7635 13.158ZM20.6142 4.57495L29.1972 13.158L24.3622 17.9929L15.7792 9.40991L20.6142 4.57495ZM5.62205 63.7564C5.12503 63.7564 4.64837 63.559 4.29692 63.2076C3.94548 62.8561 3.74804 62.3794 3.74804 61.8824V13.158C3.74804 12.6609 3.94548 12.1843 4.29692 11.8328C4.64837 11.4814 5.12503 11.2839 5.62205 11.2839H12.331L23.0504 21.9658C23.2187 22.1451 23.4219 22.288 23.6475 22.3857C23.8731 22.4833 24.1164 22.5337 24.3622 22.5337C24.6081 22.5337 24.8513 22.4833 25.077 22.3857C25.3026 22.288 25.5058 22.1451 25.674 21.9658L28.1103 19.5671L33.47 24.9268L22.4882 57.5347C22.3827 57.8441 22.3583 58.1754 22.4174 58.497C22.4764 58.8185 22.617 59.1195 22.8255 59.3712L26.5736 63.7564H5.62205ZM37.4804 70.278L26.4611 57.7221L36.9556 26.2761H38.0051L48.4996 57.7221L37.4804 70.278ZM71.2127 61.8824C71.2127 62.3794 71.0153 62.8561 70.6638 63.2076C70.3124 63.559 69.8357 63.7564 69.3387 63.7564H48.1623L51.9103 59.3712C52.1189 59.1195 52.2594 58.8185 52.3185 58.497C52.3775 58.1754 52.3531 57.8441 52.2476 57.5347L41.3783 24.9268L46.8505 19.5671L49.2867 21.9658C49.4549 22.1451 49.6581 22.288 49.8838 22.3857C50.1094 22.4833 50.3526 22.5337 50.5985 22.5337C50.8443 22.5337 51.0876 22.4833 51.3132 22.3857C51.5388 22.288 51.7421 22.1451 51.9103 21.9658L62.6297 11.2839H69.3387C69.8357 11.2839 70.3124 11.4814 70.6638 11.8328C71.0153 12.1843 71.2127 12.6609 71.2127 13.158V61.8824Z" fill="black"/>
</g>
<defs>
<clipPath id="clip0">
<rect width="74.9607" height="75" fill="white"/>
</clipPath>
</defs>
</svg>
