<svg width="52" height="35" viewBox="0 0 52 35" fill="none" xmlns="http://www.w3.org/2000/svg">
<path d="M29.7109 28.6537V11.7045H40.0625C40.6153 11.7063 41.1552 11.8713 41.6145 12.1788C42.0739 12.4863 42.4322 12.9226 42.6445 13.433L44.75 18.4838H48.1934C48.5621 18.4838 48.9272 18.5564 49.2679 18.6976C49.6085 18.8388 49.918 19.0457 50.1786 19.3065C50.4393 19.5673 50.646 19.877 50.7869 20.2177C50.9279 20.5584 51.0003 20.9236 51 21.2924V28.6537H45.6504" stroke="black" stroke-width="2" stroke-linecap="round" stroke-linejoin="round"/>
<path d="M13.8887 33.9507C16.8141 33.9507 19.1855 31.5792 19.1855 28.6538C19.1855 25.7284 16.8141 23.3569 13.8887 23.3569C10.9633 23.3569 8.5918 25.7284 8.5918 28.6538C8.5918 31.5792 10.9633 33.9507 13.8887 33.9507Z" stroke="black" stroke-width="2" stroke-linecap="round" stroke-linejoin="round"/>
<path d="M40.3535 33.9507C43.2789 33.9507 45.6504 31.5792 45.6504 28.6538C45.6504 25.7284 43.2789 23.3569 40.3535 23.3569C37.4281 23.3569 35.0566 25.7284 35.0566 28.6538C35.0566 31.5792 37.4281 33.9507 40.3535 33.9507Z" stroke="black" stroke-width="2" stroke-linecap="round" stroke-linejoin="round"/>
<path d="M8.5918 28.6538H1V1.32373H22.0273C23.0362 1.32322 24.0352 1.52148 24.9674 1.90719C25.8996 2.2929 26.7467 2.8585 27.4602 3.57168C28.1738 4.28486 28.7398 5.13163 29.126 6.06363C29.5122 6.99562 29.7109 7.99458 29.7109 9.00342V28.6538H19.1855" stroke="black" stroke-width="2" stroke-linecap="round" stroke-linejoin="round"/>
<path d="M35.0566 28.6537H29.707" stroke="black" stroke-width="2" stroke-linecap="round" stroke-linejoin="round"/>
<path d="M6 7H20.1072C22.3164 7 24.1072 8.79086 24.1072 11V17H6V7Z" stroke="#D64356" stroke-width="2"/>
</svg>
