<svg width="50" height="50" viewBox="0 0 50 50" fill="none" xmlns="http://www.w3.org/2000/svg">
<path d="M24.0386 29.6683V30.7692H25.9616V29.6683C27.0283 29.3363 27.7861 28.3893 27.8753 27.2757C27.9645 26.162 27.3678 25.1061 26.3673 24.6084L24.4935 23.6713C24.1526 23.5009 23.9738 23.1192 24.0611 22.7483C24.1484 22.3778 24.4789 22.1159 24.8597 22.1154H25.1405C25.5935 22.1159 25.9612 22.4835 25.9616 22.9365V23.0769H27.8847V22.9365C27.8805 21.7417 27.102 20.6876 25.9616 20.3318V19.2308H24.0386V20.3318C22.9718 20.6637 22.2141 21.6107 22.1249 22.7243C22.0357 23.838 22.6324 24.8939 23.6329 25.3916L25.5067 26.3287C25.8475 26.4991 26.0264 26.8808 25.9391 27.2517C25.8518 27.6222 25.5212 27.8842 25.1405 27.8846H24.8597C24.4066 27.8842 24.039 27.5165 24.0386 27.0635V26.9231H22.1155V27.0635C22.1197 28.2583 22.8981 29.3124 24.0386 29.6683Z" fill="#D64356"/>
<path d="M0 12.5H1.92308V14.4231H0V12.5Z" fill="black"/>
<path d="M6.73071 0.961548H8.65379V2.88462H6.73071V0.961548Z" fill="black"/>
<path d="M3.84619 4.80768H14.4231V6.73075H3.84619V4.80768Z" fill="black"/>
<path d="M1.9231 8.65384H12.5V10.5769H1.9231V8.65384Z" fill="black"/>
<path d="M3.17287 42.3077L7.17866 37.5H16.0635C21.3989 41.3462 28.5973 41.3462 33.9327 37.5H46.1538V35.5769H36.1431C41.7983 29.6593 41.7983 20.3407 36.1431 14.4231H43.2692C43.5542 14.4231 43.8251 14.2968 44.0077 14.078L48.8154 8.30877C49.1136 7.95195 49.1136 7.43268 48.8154 7.07586L44.0077 1.30663C43.8251 1.08784 43.5542 0.961548 43.2692 0.961548H10.5769V2.88462H42.8194L46.8271 7.69232L42.8213 12.5H33.9365C28.6011 8.65386 21.4027 8.65386 16.0673 12.5H3.84614V14.4231H13.8568C8.2017 20.3407 8.2017 29.6593 13.8568 35.5769H6.73075C6.44577 35.5769 6.17487 35.7032 5.99223 35.922L1.18454 41.6912C0.886404 42.0481 0.886404 42.5673 1.18454 42.9242L5.99223 48.6934C6.17487 48.9122 6.44577 49.0385 6.73075 49.0385H39.4231V47.1154H7.18054L3.17287 42.3077ZM25 11.5385C32.4345 11.5385 38.4615 17.5655 38.4615 25C38.4615 32.4346 32.4345 38.4615 25 38.4615C17.5654 38.4615 11.5384 32.4346 11.5384 25C11.5464 17.5687 17.5687 11.5465 25 11.5385Z" fill="black"/>
<path d="M48.0769 35.5769H50V37.5H48.0769V35.5769Z" fill="black"/>
<path d="M41.3462 47.1154H43.2693V49.0385H41.3462V47.1154Z" fill="black"/>
<path d="M35.5769 43.2692H46.1538V45.1923H35.5769V43.2692Z" fill="black"/>
<path d="M37.5 39.4231H48.0769V41.3462H37.5V39.4231Z" fill="black"/>
</svg>
