<svg width="45" height="45" viewBox="0 0 45 45" fill="none" xmlns="http://www.w3.org/2000/svg">
<g clip-path="url(#clip0)">
<path d="M22.4338 0.797459C18.2747 1.62461 14.5349 3.878 11.8602 7.1686C9.18538 10.4592 7.74351 14.5805 7.78347 18.8208C7.77656 21.4197 8.32865 23.9897 9.4023 26.3565H5.3236C5.17809 26.3565 5.03586 26.3997 4.91488 26.4805C4.7939 26.5614 4.69961 26.6763 4.64393 26.8107C4.58825 26.9452 4.57368 27.0931 4.60206 27.2358C4.63044 27.3785 4.70049 27.5096 4.80337 27.6125L6.88429 29.6942L5.84383 30.7346C5.70979 30.8734 5.63563 31.0593 5.6373 31.2522C5.63898 31.4452 5.71637 31.6297 5.85279 31.7661C5.98922 31.9026 6.17378 31.98 6.36671 31.9816C6.55964 31.9833 6.74551 31.9091 6.88429 31.7751L7.92475 30.7346L8.87544 31.6846L7.08665 33.8317L1.05727 34.689C0.910484 34.7101 0.773506 34.7751 0.66429 34.8754C0.555074 34.9757 0.478715 35.1067 0.445225 35.2511C0.411734 35.3956 0.422674 35.5468 0.476611 35.6849C0.530548 35.8231 0.624964 35.9417 0.747483 36.0252L4.05062 38.2732C4.04389 38.6068 4.10484 38.9382 4.2298 39.2476C4.35475 39.5569 4.54111 39.8377 4.77762 40.073V40.0767L4.8019 40.1025C5.03529 40.34 5.31321 40.5292 5.61977 40.6592C5.92632 40.7893 6.2555 40.8576 6.58849 40.8604C6.60247 40.8604 6.61645 40.8604 6.63043 40.8604L8.87471 44.1598C8.94209 44.259 9.03269 44.3402 9.13862 44.3964C9.24455 44.4526 9.3626 44.482 9.4825 44.4821C9.53871 44.4819 9.59473 44.4755 9.64954 44.463C9.79399 44.4293 9.9249 44.3528 10.0251 44.2434C10.1253 44.134 10.1901 43.9969 10.211 43.85L11.0712 37.8199L13.2154 36.0319L14.166 36.9818L13.1285 38.0186C13.0034 38.159 12.9368 38.3419 12.9423 38.5299C12.9478 38.7178 13.0251 38.8965 13.1582 39.0293C13.2914 39.162 13.4703 39.2388 13.6583 39.2438C13.8462 39.2488 14.029 39.1816 14.169 39.0561L15.2095 38.0157L17.2904 40.0973C17.3933 40.2002 17.5244 40.2703 17.6671 40.2986C17.8098 40.327 17.9577 40.3124 18.0922 40.2568C18.2266 40.2011 18.3415 40.1068 18.4224 39.9858C18.5032 39.8648 18.5464 39.7226 18.5464 39.5771V35.5543C22.8432 37.5176 27.731 37.7508 32.1951 36.2053C36.6592 34.6599 40.3566 31.4546 42.5197 27.2549C43.88 24.6523 44.5854 21.7574 44.5749 18.8208C44.5712 16.088 43.9597 13.3902 42.7847 10.9229C41.6096 8.45562 39.9005 6.28056 37.7811 4.55532C35.6617 2.83008 33.1851 1.59785 30.5307 0.947906C27.8763 0.29796 25.1105 0.24657 22.4338 0.797459ZM26.1792 1.89679C27.8429 1.89679 29.6155 4.39272 30.7766 8.51924H21.5788C22.7429 4.39272 24.5155 1.89679 26.1792 1.89679ZM20.3065 18.085C20.3319 15.3633 20.6347 12.6512 21.2101 9.9909H31.1482C31.7237 12.6512 32.0265 15.3633 32.0518 18.085H20.3065ZM32.0518 19.5567C32.0252 21.7768 31.822 23.9913 31.444 26.1791H20.9143C20.5364 23.9913 20.3332 21.7768 20.3065 19.5567H32.0518ZM22.9673 2.20657C21.5586 4.08059 20.5637 6.23221 20.0483 8.51924H12.7636C15.2809 5.24077 18.9099 2.99565 22.9673 2.20657ZM11.7481 9.9909H19.6951C19.1448 12.6545 18.8545 15.3653 18.8283 18.085H9.27353C9.3947 15.2201 10.2465 12.4338 11.7481 9.9909ZM7.09989 27.8281H12.091L9.82172 30.5507L7.09989 27.8281ZM4.57011 36.8486L3.14776 35.8773L5.68268 35.5161L4.57011 36.8486ZM9.02555 41.7588L8.05647 40.3343L9.38758 39.2246L9.02555 41.7588ZM17.0748 37.8052L14.3522 35.0826L17.0748 32.8126V37.8052ZM17.3397 30.6765L7.11166 39.2033C6.91991 39.3392 6.68482 39.3998 6.45125 39.3735C6.21768 39.3472 6.00197 39.2358 5.8453 39.0605L5.32507 39.5808L5.84015 39.0569C5.66493 38.9002 5.55352 38.6845 5.52719 38.4509C5.50086 38.2173 5.56145 37.9822 5.6974 37.7905L14.2271 27.5625C14.3924 27.3664 14.5972 27.2074 14.8281 27.0959C15.0589 26.9843 15.3108 26.9226 15.5671 26.915C15.5985 26.915 15.6301 26.915 15.662 26.915C16.2906 26.9298 16.8878 27.1927 17.3232 27.6462C17.7587 28.0998 17.9971 28.7072 17.9865 29.3358C17.9789 29.592 17.9173 29.8436 17.8059 30.0744C17.6944 30.3052 17.5356 30.5098 17.3397 30.675V30.6765ZM18.5464 33.9142V31.533C19.0998 30.9564 19.4235 30.1976 19.4567 29.3991C19.4716 28.8756 19.3795 28.3545 19.186 27.8678C18.9925 27.3811 18.7016 26.939 18.3313 26.5687C17.9609 26.1983 17.5189 25.9075 17.0322 25.714C16.5455 25.5205 16.0244 25.4284 15.5008 25.4433C14.7025 25.4765 13.9437 25.7999 13.3669 26.3528H11.0366C9.97266 24.2386 9.37281 21.9215 9.27721 19.5567H18.8283C18.935 26.6508 20.5751 32.5992 22.9658 35.4336C21.4292 35.1353 19.9417 34.6238 18.5464 33.9142ZM26.1792 35.7449C24.3256 35.7449 22.336 32.6544 21.2101 27.6508H31.1482C30.0224 32.6544 28.0327 35.7449 26.1792 35.7449ZM29.3925 35.4329C30.7906 33.7736 31.9348 31.0481 32.6633 27.6508H40.6103C39.388 29.6597 37.7582 31.3902 35.8261 32.7306C33.8939 34.071 31.7023 34.9916 29.3925 35.4329ZM41.4057 26.1791H32.9437C33.3081 23.9898 33.5049 21.7759 33.5323 19.5567H43.0819C42.9896 21.8567 42.4187 24.1122 41.4057 26.1791ZM43.0848 18.085H33.5301C33.5038 15.3653 33.2135 12.6545 32.6633 9.9909H40.6103C42.1118 12.4338 42.9637 15.2201 43.0848 18.085ZM32.3101 8.51924C31.7946 6.23221 30.7997 4.08059 29.3911 2.20657C33.448 2.99598 37.0764 5.24107 39.5933 8.51924H32.3101Z" fill="black"/>
<rect x="9.27181" y="18.0665" width="33.8217" height="1.5" fill="#D64356"/>
</g>
<defs>
<clipPath id="clip0">
<rect width="45" height="45" fill="white"/>
</clipPath>
</defs>
</svg>
