<svg width="45" height="45" viewBox="0 0 45 45" fill="none" xmlns="http://www.w3.org/2000/svg">
<path d="M22.5 0L21.6123 0.0351562L20.7334 0.140625L19.8633 0.312012L19.0107 0.549316L18.1758 0.856934L17.3716 1.22607L16.5981 1.65674L15.8599 2.14893L15.1611 2.69385L14.5107 3.2959L13.9087 3.94629L13.3594 4.63623L12.8672 5.37012L12.4321 6.14355L12.0586 6.94336L11.7554 7.77393L11.5137 8.62646L11.3379 9.49219L11.2368 10.3711L11.2017 11.25L11.2368 12.6299L11.3335 14.0054L11.5049 15.3721L11.7422 16.73L12.0454 18.0747L12.4146 19.4062L12.8452 20.7114L13.3418 21.999L13.9043 23.2559L14.5239 24.4907L14.937 25.1851L15.4072 25.8398L15.5479 26.0596L15.6313 26.3013L15.6533 26.5606L15.6182 26.8198L15.5215 27.0571L15.3809 27.2725L15.1875 27.4438L14.959 27.5713L14.7129 27.646L13.0913 27.9448L11.4873 28.2964L9.8921 28.7007L8.31446 29.1621L6.7544 29.6807L5.21192 30.2519L4.58351 30.5332L3.99024 30.876L3.43214 31.2803L2.91798 31.7329L2.45655 32.2383L2.04786 32.7832L1.6963 33.3721L1.40186 33.9917L1.00195 35.0508L0.663574 36.1274L0.386719 37.2217L0.171387 38.3291L0.0175781 39.4453L0 39.9067L0.0439453 40.3594L0.149414 40.8032L0.312012 41.2295L0.531738 41.6294L0.799805 41.9985L1.125 42.3237L1.48096 42.605L1.88086 42.8335L2.30273 43.0137L2.74658 43.1235L5.35254 43.5938L7.97168 43.9937L10.5996 44.3276L13.2363 44.5957L15.8774 44.7978L18.5273 44.9341L21.1772 45H23.5327L21.2827 42.75H21.1992L18.6108 42.6841L16.0225 42.5522L13.4385 42.3589L10.8545 42.0952L8.28809 41.7656L5.72168 41.3745L3.17285 40.9175L2.90918 40.8296L2.66748 40.6846L2.47852 40.478L2.34229 40.2407L2.26758 39.9683L2.26319 39.6914L2.40382 38.6939L2.59278 37.7139L2.83887 36.7383L3.1377 35.7803L3.49366 34.8398L3.72218 34.374L3.99903 33.9258L4.32423 33.5215L4.69776 33.1567L5.11085 32.8359L5.55909 32.5635L6.0337 32.3482L7.50147 31.8032L8.98682 31.311L10.4898 30.8716L12.0103 30.4849L13.5396 30.1509L15.0776 29.8652L15.5654 29.7466L16.0313 29.5576L16.4663 29.3027L16.853 28.9863L17.187 28.6172L17.4727 28.2041L17.6836 27.7515L17.8286 27.2725L17.9033 26.7803V26.2793L17.8242 25.7871L17.6792 25.3081L17.4639 24.8555L17.1826 24.4424L16.8267 23.9502L16.519 23.4316L15.9434 22.2978L15.4292 21.1377L14.9722 19.9556L14.5767 18.7515L14.2383 17.5298L13.957 16.2905L13.7417 15.0425L13.5835 13.7856L13.4912 12.52L13.4561 11.2544L13.4956 10.4678L13.5967 9.68994L13.7681 8.92529L14.0054 8.17383L14.3086 7.44873L14.6689 6.75L15.0952 6.09082L15.5742 5.4668L16.106 4.88672L16.6904 4.35498L17.3145 3.88037L17.978 3.4585L18.6768 3.09375L19.4063 2.79492L20.1577 2.55762L20.9312 2.39062L21.7134 2.28516L22.4956 2.25L23.2866 2.28516L24.0688 2.39062L24.8379 2.55762L25.5894 2.79492L26.3188 3.09375L27.022 3.4585L27.6855 3.88037L28.3096 4.35498L28.894 4.88672L29.4214 5.4668L29.9048 6.09082L30.3311 6.75L30.6914 7.44873L30.9946 8.17383L31.2319 8.92529L31.4033 9.68994L31.5044 10.4678L31.5396 11.2544L31.5088 12.52L31.4165 13.7856L31.2583 15.0425L31.0386 16.2905L30.7617 17.5298L30.4234 18.7515L30.0278 19.9556L29.5664 21.1377L29.0523 22.2978L28.481 23.4316L28.1734 23.9502L27.8174 24.4424L27.5318 24.8555L27.3208 25.3081L27.1714 25.7871L27.0923 26.2793V26.7803L27.167 27.2725L27.312 27.7515L27.5273 28.2041L27.8086 28.6172L28.1426 28.9863L28.5337 29.3027L28.9687 29.5576L29.4345 29.7466L29.9179 29.8652L31.4604 30.1509L32.9897 30.4849L34.5058 30.8716L35.2046 31.0781L37.0107 29.272L36.6855 29.1621L35.1079 28.7007L33.5171 28.2964L31.9131 27.9448L30.2915 27.646L30.041 27.5713L29.8125 27.4439L29.6235 27.2725L29.4785 27.0572L29.3862 26.8198L29.3467 26.5606L29.3731 26.3013L29.4566 26.0596L29.5928 25.8399L30.0674 25.1851L30.4805 24.4907L31.1001 23.2559L31.6582 21.999L32.1548 20.7114L32.5898 19.4062L32.959 18.0747L33.2622 16.73L33.4951 15.3721L33.6665 14.0054L33.7676 12.6299L33.7983 11.25L33.7676 10.3711L33.6621 9.49219L33.4863 8.62646L33.249 7.77393L32.9414 6.94336L32.5679 6.14355L32.1372 5.37012L31.645 4.63623L31.0913 3.94629L30.4937 3.2959L29.8433 2.69385L29.1445 2.14893L28.4063 1.65674L27.6284 1.22607L26.8242 0.856934L25.9937 0.549316L25.1411 0.312012L24.2666 0.140625L23.3877 0.0351562L22.5 0ZM43.8398 29.2412C43.5479 29.2493 43.2705 29.3707 43.0664 29.5796L30.3618 42.2842L24.4072 36.3296C23.3469 35.2253 21.7121 36.8601 22.8164 37.9204L29.5664 44.6704C30.0058 45.1096 30.7179 45.1096 31.1572 44.6704L44.6572 31.1704C45.3891 30.4549 44.863 29.2132 43.8398 29.2412Z" fill="#222222"/>
<path d="M24.0709 36.1718C23.6804 35.7813 23.0472 35.7813 22.6567 36.1718C22.2661 36.5623 22.2661 37.1955 22.6567 37.586L24.0709 36.1718ZM30.3638 43.8789L29.6567 44.586C30.0472 44.9765 30.6804 44.9765 31.0709 44.586L30.3638 43.8789ZM44.5709 31.086C44.9614 30.6955 44.9614 30.0623 44.5709 29.6718C44.1804 29.2813 43.5472 29.2813 43.1567 29.6718L44.5709 31.086ZM22.6567 37.586L29.6567 44.586L31.0709 43.1718L24.0709 36.1718L22.6567 37.586ZM31.0709 44.586L44.5709 31.086L43.1567 29.6718L29.6567 43.1718L31.0709 44.586Z" fill="#D64356"/>
</svg>
