<svg width="60" height="60" viewBox="0 0 60 60" fill="none" xmlns="http://www.w3.org/2000/svg">
<path d="M53.3638 28.9502L42.9771 18.563C42.6826 18.2778 42.3545 18.0293 42 17.8232V1C42 0.447754 41.5522 0 41 0H9C6.23975 0.00341798 4.00342 2.23975 4 5V45C4.00342 47.7603 6.23975 49.9966 9 50H33.0508C33.5723 55.6597 38.3164 59.9927 44 60H55C55.5522 60 56 59.5522 56 59V35.313C56.0063 32.9253 55.0571 30.6338 53.3638 28.9502ZM6 45V5C6 3.34326 7.34326 2 9 2H40V39.5859L32.979 32.5649C31.7246 31.2583 29.8613 30.7324 28.1089 31.1899C26.356 31.6475 24.9883 33.0171 24.5327 34.7705C24.0771 36.5239 24.6055 38.3862 25.9141 39.6392L27.1138 40.8452C27.1211 40.8521 27.123 40.8618 27.1299 40.8691C27.1372 40.876 27.146 40.8779 27.1538 40.8848L32.1191 45.8569C32.6831 46.4175 33.0005 47.1797 33 47.9751L9 48C7.34326 48 6 46.6567 6 45ZM27.3252 38.2212C26.7593 37.6602 26.4409 36.896 26.4409 36.0996C26.4409 35.3027 26.7593 34.5391 27.3252 33.978C28.5098 32.8457 30.3755 32.8457 31.5601 33.978L32.084 34.501L27.8428 38.7422L27.3252 38.2212ZM54 58H44C39.0317 57.9946 35.0054 53.9683 35 49V47.9751C35.0029 46.6494 34.4766 45.3779 33.5381 44.4419L29.2578 40.1558L33.5 35.9141L43.293 45.707C43.6855 46.0859 44.3091 46.0806 44.6948 45.6948C45.0806 45.3091 45.0859 44.6855 44.707 44.293L42 41.5859V20.415L51.9502 30.3638C53.2666 31.6738 54.0044 33.4561 54 35.313V58Z" fill="#000"/>
<path d="M9 12C9.55225 12 10 11.5523 10 11V7.00003C10 6.44778 10.4478 6.00003 11 6.00003H15C15.5522 6.00003 16 5.55228 16 5.00003C16 4.44778 15.5522 4.00003 15 4.00003H11C9.34326 4.00003 8 5.34329 8 7.00003V11C8 11.5523 8.44775 12 9 12Z" fill="#000"/>
<path d="M15 44H11C10.4478 44 10 43.5522 10 43V39C10 38.4478 9.55225 38 9 38C8.44775 38 8 38.4478 8 39V43C8 44.6567 9.34326 46 11 46H15C15.5522 46 16 45.5522 16 45C16 44.4478 15.5522 44 15 44Z" fill="#000"/>
<path d="M33 17C33 11.4771 28.5229 7 23 7C17.4771 7 13 11.4771 13 17C13 22.5229 17.4771 27 23 27C28.5205 26.9941 32.9941 22.5205 33 17ZM30.9312 16H28.9712C28.8896 14.0645 28.4062 12.167 27.5508 10.4292C29.417 11.7222 30.646 13.7476 30.9312 16ZM22 9.2998V16H19.0352C19.2559 12.6162 20.5732 10.1201 22 9.2998ZM22 18V24.7002C20.5732 23.877 19.2559 21.3809 19.0352 18H22ZM24 24.7002V18H26.9648C26.7441 21.3838 25.4268 23.8799 24 24.7002ZM24 16V9.2998C25.4268 10.123 26.7441 12.6191 26.9648 16H24ZM18.4492 10.4292C17.5938 12.167 17.1104 14.0645 17.0288 16H15.0688C15.354 13.7476 16.583 11.7222 18.4492 10.4292ZM15.0688 18H17.0288C17.1104 19.9355 17.5938 21.833 18.4492 23.5708C16.583 22.2778 15.354 20.2524 15.0688 18ZM27.5508 23.5708C28.4062 21.833 28.8896 19.9355 28.9712 18H30.9312C30.646 20.2524 29.417 22.2778 27.5508 23.5708Z" fill="#D64356"/>
</svg>
