<svg width="474" height="321" viewBox="0 0 474 321" fill="none" xmlns="http://www.w3.org/2000/svg">
<mask id="path-1-inside-1" fill="white">
<path d="M424 228.912C424 178.453 382.995 136.992 332.08 136.992C301.281 136.992 273.973 152.22 257.285 175.541H141.371V153.265C141.371 146.137 135.573 140.339 128.446 140.339H102.118C94.9905 140.339 89.1925 146.137 89.1925 153.265V175.541H82.8587C67.5459 175.541 55.0883 163.083 55.0883 147.77V106.321C55.0883 91.0085 67.5466 78.5509 82.8587 78.5509H345.814C361.127 78.5509 373.585 91.0085 373.585 106.321V131.412C373.585 134.475 376.067 136.957 379.13 136.957C382.192 136.957 384.674 134.475 384.674 131.412V106.321C384.674 84.8951 367.241 67.4626 345.814 67.4626H288.27V43.4143C288.27 19.4757 268.794 0 244.855 0H183.818C159.879 0 140.404 19.4757 140.404 43.4143V67.4634H82.8587C61.4325 67.4626 44 84.8951 44 106.321V270.737C44 292.164 61.4325 309.597 82.8587 309.597H260.057C263.12 309.597 265.602 307.115 265.602 304.053C265.602 300.99 263.12 298.509 260.057 298.509H82.8587C67.5459 298.509 55.0883 286.05 55.0883 270.737V174.914C62.148 182.135 71.9864 186.629 82.8587 186.629H89.1925V192.264C89.1925 206.649 100.896 218.353 115.282 218.353C129.668 218.353 141.371 206.649 141.371 192.264V186.629H250.482C243.892 199.294 240.161 213.675 240.161 228.912C240.161 279.384 281.179 320.832 332.081 320.832C382.939 320.832 424 279.421 424 228.912ZM254.881 67.4626H173.793V43.4143C173.793 37.8857 178.291 33.3888 183.818 33.3888H244.855C250.384 33.3888 254.881 37.8864 254.881 43.4143V67.4626ZM151.493 43.4143C151.493 25.5891 165.994 11.0883 183.818 11.0883H244.855C262.68 11.0883 277.181 25.5899 277.181 43.4143V67.4634H265.969V43.4143C265.969 31.7723 256.497 22.3005 244.855 22.3005H183.818C172.177 22.3005 162.705 31.7723 162.705 43.4143V67.4634H151.493V43.4143ZM102.118 151.428H128.446C129.459 151.428 130.283 152.252 130.283 153.265V161.764H100.281V153.265C100.281 152.252 101.105 151.428 102.118 151.428ZM130.283 192.264C130.283 200.536 123.554 207.265 115.282 207.265C107.01 207.265 100.281 200.536 100.281 192.264V172.852H130.282V192.264H130.283ZM404.475 264.837C397.406 262.835 388.571 261.183 378.509 259.944C382.209 240.078 382.216 217.782 378.509 197.879C388.571 196.64 397.406 194.989 404.475 192.987C409.871 203.815 412.912 216.014 412.912 228.911C412.912 241.81 409.87 254.008 404.475 264.837ZM364.822 188.11C356.282 188.809 347.102 189.237 337.624 189.358V149.027C351.812 153.821 360.714 173.707 364.822 188.11ZM326.536 148.993V189.358C317.063 189.237 307.888 188.81 299.351 188.112C305.196 167.548 315.222 152.71 326.536 148.993ZM299.332 269.715C307.874 269.016 317.056 268.587 326.537 268.467V308.823C315.23 305.122 305.181 290.365 299.332 269.715ZM337.624 308.797V268.466C347.102 268.587 356.282 269.016 364.822 269.714C360.715 284.112 351.814 304.003 337.624 308.797ZM337.624 257.377V200.448C348.089 200.321 358.131 199.836 367.418 199.033C371.108 218.106 371.138 239.566 367.418 258.792C358.131 257.989 348.089 257.503 337.624 257.377ZM398.619 183.073C392.344 184.647 384.674 185.97 376.049 186.992C372.388 173.346 366.966 161.75 360.305 153.169C375.931 159.011 389.277 169.556 398.619 183.073ZM303.783 153.196C297.162 161.737 291.758 173.293 288.102 186.991C279.48 185.968 271.813 184.646 265.541 183.073C274.869 169.577 288.189 159.044 303.783 153.196ZM259.686 192.988C266.756 194.99 275.591 196.642 285.656 197.881C284.484 204.202 283.657 210.872 283.221 217.829C283.03 220.885 285.352 223.518 288.408 223.709C291.457 223.897 294.096 221.579 294.288 218.522C294.713 211.735 295.556 205.201 296.753 199.034C306.037 199.836 316.076 200.321 326.536 200.448V257.377C316.075 257.504 306.037 257.989 296.753 258.791C295.815 253.946 295.088 248.877 294.616 243.619C294.342 240.57 291.646 238.311 288.598 238.593C285.549 238.866 283.298 241.561 283.571 244.609C284.042 249.849 284.754 254.977 285.687 259.941C275.61 261.179 266.762 262.832 259.685 264.838C254.289 254.009 251.248 241.811 251.248 228.913C251.249 216.014 254.291 203.816 259.686 192.988ZM265.542 274.751C271.83 273.174 279.519 271.849 288.166 270.826C291.332 282.602 296.342 294.973 303.849 304.653C288.226 298.811 274.882 288.267 265.542 274.751ZM360.305 304.655C366.966 296.074 372.388 284.478 376.049 270.832C384.674 271.855 392.344 273.178 398.619 274.751C389.277 288.269 375.931 298.814 360.305 304.655Z"/>
</mask>
<path d="M424 228.912C424 178.453 382.995 136.992 332.08 136.992C301.281 136.992 273.973 152.22 257.285 175.541H141.371V153.265C141.371 146.137 135.573 140.339 128.446 140.339H102.118C94.9905 140.339 89.1925 146.137 89.1925 153.265V175.541H82.8587C67.5459 175.541 55.0883 163.083 55.0883 147.77V106.321C55.0883 91.0085 67.5466 78.5509 82.8587 78.5509H345.814C361.127 78.5509 373.585 91.0085 373.585 106.321V131.412C373.585 134.475 376.067 136.957 379.13 136.957C382.192 136.957 384.674 134.475 384.674 131.412V106.321C384.674 84.8951 367.241 67.4626 345.814 67.4626H288.27V43.4143C288.27 19.4757 268.794 0 244.855 0H183.818C159.879 0 140.404 19.4757 140.404 43.4143V67.4634H82.8587C61.4325 67.4626 44 84.8951 44 106.321V270.737C44 292.164 61.4325 309.597 82.8587 309.597H260.057C263.12 309.597 265.602 307.115 265.602 304.053C265.602 300.99 263.12 298.509 260.057 298.509H82.8587C67.5459 298.509 55.0883 286.05 55.0883 270.737V174.914C62.148 182.135 71.9864 186.629 82.8587 186.629H89.1925V192.264C89.1925 206.649 100.896 218.353 115.282 218.353C129.668 218.353 141.371 206.649 141.371 192.264V186.629H250.482C243.892 199.294 240.161 213.675 240.161 228.912C240.161 279.384 281.179 320.832 332.081 320.832C382.939 320.832 424 279.421 424 228.912ZM254.881 67.4626H173.793V43.4143C173.793 37.8857 178.291 33.3888 183.818 33.3888H244.855C250.384 33.3888 254.881 37.8864 254.881 43.4143V67.4626ZM151.493 43.4143C151.493 25.5891 165.994 11.0883 183.818 11.0883H244.855C262.68 11.0883 277.181 25.5899 277.181 43.4143V67.4634H265.969V43.4143C265.969 31.7723 256.497 22.3005 244.855 22.3005H183.818C172.177 22.3005 162.705 31.7723 162.705 43.4143V67.4634H151.493V43.4143ZM102.118 151.428H128.446C129.459 151.428 130.283 152.252 130.283 153.265V161.764H100.281V153.265C100.281 152.252 101.105 151.428 102.118 151.428ZM130.283 192.264C130.283 200.536 123.554 207.265 115.282 207.265C107.01 207.265 100.281 200.536 100.281 192.264V172.852H130.282V192.264H130.283ZM404.475 264.837C397.406 262.835 388.571 261.183 378.509 259.944C382.209 240.078 382.216 217.782 378.509 197.879C388.571 196.64 397.406 194.989 404.475 192.987C409.871 203.815 412.912 216.014 412.912 228.911C412.912 241.81 409.87 254.008 404.475 264.837ZM364.822 188.11C356.282 188.809 347.102 189.237 337.624 189.358V149.027C351.812 153.821 360.714 173.707 364.822 188.11ZM326.536 148.993V189.358C317.063 189.237 307.888 188.81 299.351 188.112C305.196 167.548 315.222 152.71 326.536 148.993ZM299.332 269.715C307.874 269.016 317.056 268.587 326.537 268.467V308.823C315.23 305.122 305.181 290.365 299.332 269.715ZM337.624 308.797V268.466C347.102 268.587 356.282 269.016 364.822 269.714C360.715 284.112 351.814 304.003 337.624 308.797ZM337.624 257.377V200.448C348.089 200.321 358.131 199.836 367.418 199.033C371.108 218.106 371.138 239.566 367.418 258.792C358.131 257.989 348.089 257.503 337.624 257.377ZM398.619 183.073C392.344 184.647 384.674 185.97 376.049 186.992C372.388 173.346 366.966 161.75 360.305 153.169C375.931 159.011 389.277 169.556 398.619 183.073ZM303.783 153.196C297.162 161.737 291.758 173.293 288.102 186.991C279.48 185.968 271.813 184.646 265.541 183.073C274.869 169.577 288.189 159.044 303.783 153.196ZM259.686 192.988C266.756 194.99 275.591 196.642 285.656 197.881C284.484 204.202 283.657 210.872 283.221 217.829C283.03 220.885 285.352 223.518 288.408 223.709C291.457 223.897 294.096 221.579 294.288 218.522C294.713 211.735 295.556 205.201 296.753 199.034C306.037 199.836 316.076 200.321 326.536 200.448V257.377C316.075 257.504 306.037 257.989 296.753 258.791C295.815 253.946 295.088 248.877 294.616 243.619C294.342 240.57 291.646 238.311 288.598 238.593C285.549 238.866 283.298 241.561 283.571 244.609C284.042 249.849 284.754 254.977 285.687 259.941C275.61 261.179 266.762 262.832 259.685 264.838C254.289 254.009 251.248 241.811 251.248 228.913C251.249 216.014 254.291 203.816 259.686 192.988ZM265.542 274.751C271.83 273.174 279.519 271.849 288.166 270.826C291.332 282.602 296.342 294.973 303.849 304.653C288.226 298.811 274.882 288.267 265.542 274.751ZM360.305 304.655C366.966 296.074 372.388 284.478 376.049 270.832C384.674 271.855 392.344 273.178 398.619 274.751C389.277 288.269 375.931 298.814 360.305 304.655Z" fill="url(#paint0_linear)" stroke="#4943CD" stroke-width="7" mask="url(#path-1-inside-1)"/>
<path d="M59 20.5981V17.5981L249.613 17.5981V20.5981L59 20.5981Z" fill="url(#paint1_linear)"/>
<ellipse cx="154.458" cy="19.5" rx="3.49999" ry="3.5" fill="#C2BFFF"/>
<path d="M283 133.598V130.598H473.613V133.598H283Z" fill="url(#paint2_linear)"/>
<ellipse cx="378.458" cy="131.5" rx="3.49999" ry="3.5" fill="#A5A2F5"/>
<path d="M0 169.598L0 166.598H190.613V169.598H0Z" fill="url(#paint3_linear)"/>
<ellipse cx="95.4585" cy="167.5" rx="3.49999" ry="3.5" fill="#A5A2F5"/>
<path d="M192 246.598V243.598H382.613V246.598H192Z" fill="url(#paint4_linear)"/>
<ellipse cx="287.458" cy="244.5" rx="3.49999" ry="3.5" fill="#8B87EE"/>
<defs>
<linearGradient id="paint0_linear" x1="234" y1="0" x2="234" y2="320.832" gradientUnits="userSpaceOnUse">
<stop stop-color="#E9475C"/>
<stop offset="1" stop-color="#FF8A00" stop-opacity="0"/>
</linearGradient>
<linearGradient id="paint1_linear" x1="59" y1="19.0981" x2="249.613" y2="19.0981" gradientUnits="userSpaceOnUse">
<stop stop-color="white" stop-opacity="0"/>
<stop offset="0.552083" stop-color="white" stop-opacity="0.19"/>
<stop offset="1" stop-color="white" stop-opacity="0"/>
</linearGradient>
<linearGradient id="paint2_linear" x1="283" y1="132.098" x2="473.613" y2="132.098" gradientUnits="userSpaceOnUse">
<stop stop-color="white" stop-opacity="0"/>
<stop offset="0.552083" stop-color="white" stop-opacity="0.19"/>
<stop offset="1" stop-color="white" stop-opacity="0"/>
</linearGradient>
<linearGradient id="paint3_linear" x1="0" y1="168.098" x2="190.613" y2="168.098" gradientUnits="userSpaceOnUse">
<stop stop-color="white" stop-opacity="0"/>
<stop offset="0.552083" stop-color="white" stop-opacity="0.19"/>
<stop offset="1" stop-color="white" stop-opacity="0"/>
</linearGradient>
<linearGradient id="paint4_linear" x1="192" y1="245.098" x2="382.613" y2="245.098" gradientUnits="userSpaceOnUse">
<stop stop-color="white" stop-opacity="0"/>
<stop offset="0.552083" stop-color="white" stop-opacity="0.24"/>
<stop offset="1" stop-color="white" stop-opacity="0"/>
</linearGradient>
</defs>
</svg>
