<svg width="42" height="28" viewBox="0 0 42 28" fill="none" xmlns="http://www.w3.org/2000/svg">
<path d="M28.0868 3.87524C28.0007 3.87522 27.9153 3.89218 27.8357 3.92515C27.756 3.95812 27.6837 4.00646 27.6227 4.0674C27.5618 4.12835 27.5135 4.2007 27.4805 4.28033C27.4475 4.35996 27.4306 4.44531 27.4306 4.53149V13.9997C27.4306 14.0859 27.4475 14.1712 27.4805 14.2509C27.5135 14.3305 27.5618 14.4028 27.6227 14.4638C27.6837 14.5247 27.756 14.5731 27.8357 14.606C27.9153 14.639 28.0007 14.656 28.0868 14.656H33.8188C33.9928 14.656 34.1597 14.5868 34.2828 14.4637C34.4059 14.3407 34.475 14.1737 34.475 13.9997C34.475 13.8257 34.4059 13.6587 34.2828 13.5357C34.1597 13.4126 33.9928 13.3434 33.8188 13.3434H28.7431V4.53149C28.7431 4.44531 28.7261 4.35996 28.6932 4.28033C28.6602 4.2007 28.6119 4.12835 28.5509 4.06741C28.49 4.00646 28.4176 3.95813 28.338 3.92515C28.2584 3.89218 28.173 3.87522 28.0868 3.87524Z" fill="white"/>
<path d="M5.15652 16.666H15.5736C15.7476 16.666 15.9145 16.5969 16.0376 16.4738C16.1607 16.3507 16.2298 16.1838 16.2298 16.0098C16.2298 15.8357 16.1607 15.6688 16.0376 15.5457C15.9145 15.4227 15.7476 15.3535 15.5736 15.3535H5.15652C4.98248 15.3535 4.81556 15.4227 4.69249 15.5457C4.56941 15.6688 4.50027 15.8357 4.50027 16.0098C4.50027 16.1838 4.56941 16.3507 4.69249 16.4738C4.81556 16.5969 4.98248 16.666 5.15652 16.666Z" fill="white"/>
<path d="M9.07228 12.6458H15.5736C15.7477 12.6458 15.9146 12.5766 16.0376 12.4535C16.1607 12.3305 16.2299 12.1636 16.2299 11.9895C16.2299 11.8155 16.1607 11.6485 16.0376 11.5255C15.9146 11.4024 15.7477 11.3333 15.5736 11.3333H9.07228C8.89823 11.3333 8.73131 11.4024 8.60824 11.5255C8.48517 11.6485 8.41603 11.8155 8.41603 11.9895C8.41603 12.1636 8.48517 12.3305 8.60824 12.4535C8.73131 12.5766 8.89823 12.6458 9.07228 12.6458Z" fill="white"/>
<path d="M28.0868 0.671631C25.7525 0.672137 23.4593 1.28597 21.4368 2.45166C19.4144 3.61735 17.7338 5.29397 16.5632 7.3136H12.9876C12.8136 7.3136 12.6467 7.38274 12.5236 7.50581C12.4005 7.62889 12.3314 7.79581 12.3314 7.96985C12.3314 8.1439 12.4005 8.31082 12.5236 8.43389C12.6467 8.55696 12.8136 8.6261 12.9876 8.6261H16.9389C17.0014 8.62286 17.0632 8.61039 17.122 8.58909C17.126 8.58797 17.1299 8.58797 17.1338 8.58669C17.201 8.56495 17.264 8.53213 17.3204 8.48959C17.3349 8.47934 17.35 8.47181 17.3637 8.46044C17.4054 8.42234 17.4419 8.37892 17.4722 8.3313C17.4897 8.31287 17.506 8.2934 17.5211 8.27298C18.5527 6.37043 20.079 4.78179 21.9387 3.67485C23.7984 2.56791 25.9226 1.98377 28.0868 1.98413C34.7121 1.98413 40.1025 7.37449 40.1025 13.9998C40.1025 20.6251 34.7121 26.0154 28.0868 26.0154C25.9206 26.016 23.7945 25.4309 21.9336 24.322C20.0727 23.2131 18.5462 21.6218 17.5157 19.7163C17.4985 19.6924 17.4796 19.6698 17.4591 19.6486C17.4337 19.6107 17.4044 19.5756 17.3716 19.5439C17.3403 19.5182 17.3066 19.4955 17.271 19.4762C17.2 19.4255 17.1162 19.396 17.0291 19.3911C16.9994 19.3827 16.9692 19.3766 16.9386 19.3728H1.24115C1.0671 19.3728 0.900182 19.442 0.777111 19.565C0.65404 19.6881 0.5849 19.855 0.5849 20.0291C0.5849 20.2031 0.65404 20.3701 0.777111 20.4931C0.900182 20.6162 1.0671 20.6853 1.24115 20.6853H16.5631C17.7334 22.7052 19.414 24.3821 21.4365 25.5479C23.459 26.7137 25.7524 27.3276 28.0868 27.3279C35.436 27.3279 41.415 21.3493 41.415 13.9998C41.415 6.6503 35.436 0.671631 28.0868 0.671631Z" fill="white"/>
</svg>
