<svg width="360" height="388" viewBox="0 0 360 388" fill="none" xmlns="http://www.w3.org/2000/svg">
<mask id="path-1-inside-1" fill="white">
<path d="M20.3305 76.3947L35.7141 62.8486L20.3305 49.3052C17.9383 47.1958 17.1198 43.9082 18.2432 40.9254C19.372 37.9399 22.1598 36.0118 25.3485 36.0118H89.0087V33.2762C89.0087 30.3621 91.3707 28 94.2849 28C97.199 28 99.561 30.3621 99.561 33.2762V104.434L142.894 127.964C143.133 126.058 143.704 124.185 144.608 122.422L150.713 110.502C154.905 102.317 164.973 99.0732 173.153 103.262L177.874 105.679C181.84 107.711 184.776 111.161 186.144 115.402C187.512 119.64 187.147 124.158 185.114 128.121L179.009 140.044C177.583 142.826 175.476 145.029 172.999 146.572C176.24 150.937 177.778 156.304 179.36 161.879L180.497 165.906C181.291 168.71 179.659 171.627 176.855 172.418C176.377 172.555 175.894 172.618 175.419 172.618C173.117 172.618 171.002 171.102 170.343 168.776L169.206 164.758C166.893 156.603 165.473 152.236 160.953 149.78L152.847 145.378L151.848 144.867C151.515 144.697 151.205 144.504 150.889 144.315L93.1231 112.946C93.4884 120.167 97.3748 126.989 103.774 130.876L141.339 153.7C141.383 153.725 141.427 153.749 141.468 153.777L153.16 160.879C155.649 162.393 156.443 165.639 154.929 168.13C153.504 170.479 150.538 171.314 148.118 170.135L156.989 196.953L163.474 199.612L181.107 206.838L176.026 188.875C175.235 186.071 176.863 183.154 179.668 182.36C182.475 181.564 185.389 183.198 186.183 186.002L194.211 214.394C194.315 214.759 194.384 215.16 194.4 215.542L196.501 254.137C196.565 255.609 196.252 258.391 196.933 259.828L220.268 308.92H237.225C247.159 308.92 255.24 317 255.24 326.932V342.162C257.514 341.121 260.038 340.538 262.699 340.538H305.763C315.695 340.538 323.775 348.616 323.775 358.551V377.447H336.442C339.356 377.447 341.718 379.809 341.718 382.723C341.718 385.637 339.356 387.999 336.442 387.999H25.354C22.4399 387.999 20.0779 385.637 20.0779 382.723C20.0779 379.809 22.4399 377.447 25.354 377.447H39.0759V241.45C39.0759 231.519 47.1564 223.438 57.088 223.438H89.0087V131.392C83.1585 123.463 80.9914 113.07 83.7078 103.193C84.1335 101.641 85.2459 100.367 86.729 99.7378C87.4569 99.4275 88.2369 99.2902 89.0087 99.3204V89.6881H25.3513C22.1598 89.6881 19.372 87.76 18.2459 84.7772C17.1198 81.7945 17.9383 78.5041 20.3305 76.3947ZM176.1 118.643C175.597 117.085 174.521 115.816 173.065 115.072L168.344 112.655C167.454 112.199 166.503 111.982 165.564 111.982C163.339 111.982 161.189 113.199 160.107 115.311L153.998 127.234C152.573 130.019 153.496 133.394 156.031 135.1L157.75 136.031L161.378 137.891C164.38 139.429 168.077 138.237 169.615 135.232L175.724 123.312C176.468 121.856 176.603 120.197 176.1 118.643ZM186.702 310.543C188.495 309.725 190.445 309.189 192.494 309L186.702 301.306V310.543ZM161.65 268.029C159.112 264.988 158.412 261.437 157.846 258.575C157.703 257.894 155.1 243.672 155.1 243.672C155.1 243.672 152.636 245.208 152.378 245.317C152.199 245.397 152.073 245.573 152.054 245.779L149.183 274.956H166.866L161.65 268.029ZM130.449 238.907L134.904 274.931H138.582L141.551 244.746C141.93 240.879 144.297 237.503 147.766 235.825L153.073 232.461L149.538 212.869C149.538 212.869 134.646 230.56 134.3 231.01C131.218 235.018 130.163 236.622 130.449 238.907ZM187.441 264.442C186.375 261.234 185.88 257.968 185.963 254.648L184.046 219.447L159.642 209.447L164.078 234.018C164.092 234.084 164.106 234.153 164.114 234.218L167.783 254.535C168.261 256.639 168.679 259.83 169.992 261.563L205.645 308.92H208.584L187.441 264.442ZM313.223 358.548C313.223 354.436 309.877 351.091 305.763 351.091H262.699C258.585 351.091 255.237 354.436 255.237 358.548V377.447H313.223V358.548ZM244.687 358.548V326.932C244.687 322.818 241.339 319.472 237.225 319.472H194.161C190.047 319.472 186.702 322.818 186.702 326.932V377.447H244.685V358.548H244.687ZM49.6283 241.45V377.447H107.611V345.812C107.611 342.898 109.973 340.536 112.887 340.536C115.804 340.536 118.166 342.898 118.166 345.812V377.447H176.149V292.965C176.149 288.853 172.804 285.508 168.69 285.508H125.626C121.512 285.508 118.166 288.853 118.166 292.965V319.415C118.166 322.329 115.804 324.691 112.89 324.691C109.973 324.691 107.614 322.329 107.614 319.415V241.45C107.614 237.336 104.266 233.991 100.152 233.991H94.3398C94.3233 233.991 94.3041 233.993 94.2849 233.993C94.2684 233.993 94.2492 233.991 94.2327 233.991H57.0907C52.9763 233.991 49.6283 237.339 49.6283 241.45ZM100.152 223.438C110.083 223.438 118.164 231.519 118.164 241.45V276.579C120.053 275.717 122.113 275.17 124.28 275.011L119.976 240.206C119.13 233.422 122.591 228.926 125.936 224.575C126.291 224.114 146.799 199.763 146.799 199.763L134.217 161.723L99.561 140.667V182.053V223.438H100.152ZM89.0087 79.133V46.5669H33.19L45.2118 57.1522C46.8488 58.5941 47.7881 60.6705 47.7881 62.8513C47.7881 65.0321 46.8488 67.1085 45.2118 68.5505L33.19 79.1358H89.0087V79.133Z"/>
</mask>
<path d="M20.3305 76.3947L35.7141 62.8486L20.3305 49.3052C17.9383 47.1958 17.1198 43.9082 18.2432 40.9254C19.372 37.9399 22.1598 36.0118 25.3485 36.0118H89.0087V33.2762C89.0087 30.3621 91.3707 28 94.2849 28C97.199 28 99.561 30.3621 99.561 33.2762V104.434L142.894 127.964C143.133 126.058 143.704 124.185 144.608 122.422L150.713 110.502C154.905 102.317 164.973 99.0732 173.153 103.262L177.874 105.679C181.84 107.711 184.776 111.161 186.144 115.402C187.512 119.64 187.147 124.158 185.114 128.121L179.009 140.044C177.583 142.826 175.476 145.029 172.999 146.572C176.24 150.937 177.778 156.304 179.36 161.879L180.497 165.906C181.291 168.71 179.659 171.627 176.855 172.418C176.377 172.555 175.894 172.618 175.419 172.618C173.117 172.618 171.002 171.102 170.343 168.776L169.206 164.758C166.893 156.603 165.473 152.236 160.953 149.78L152.847 145.378L151.848 144.867C151.515 144.697 151.205 144.504 150.889 144.315L93.1231 112.946C93.4884 120.167 97.3748 126.989 103.774 130.876L141.339 153.7C141.383 153.725 141.427 153.749 141.468 153.777L153.16 160.879C155.649 162.393 156.443 165.639 154.929 168.13C153.504 170.479 150.538 171.314 148.118 170.135L156.989 196.953L163.474 199.612L181.107 206.838L176.026 188.875C175.235 186.071 176.863 183.154 179.668 182.36C182.475 181.564 185.389 183.198 186.183 186.002L194.211 214.394C194.315 214.759 194.384 215.16 194.4 215.542L196.501 254.137C196.565 255.609 196.252 258.391 196.933 259.828L220.268 308.92H237.225C247.159 308.92 255.24 317 255.24 326.932V342.162C257.514 341.121 260.038 340.538 262.699 340.538H305.763C315.695 340.538 323.775 348.616 323.775 358.551V377.447H336.442C339.356 377.447 341.718 379.809 341.718 382.723C341.718 385.637 339.356 387.999 336.442 387.999H25.354C22.4399 387.999 20.0779 385.637 20.0779 382.723C20.0779 379.809 22.4399 377.447 25.354 377.447H39.0759V241.45C39.0759 231.519 47.1564 223.438 57.088 223.438H89.0087V131.392C83.1585 123.463 80.9914 113.07 83.7078 103.193C84.1335 101.641 85.2459 100.367 86.729 99.7378C87.4569 99.4275 88.2369 99.2902 89.0087 99.3204V89.6881H25.3513C22.1598 89.6881 19.372 87.76 18.2459 84.7772C17.1198 81.7945 17.9383 78.5041 20.3305 76.3947ZM176.1 118.643C175.597 117.085 174.521 115.816 173.065 115.072L168.344 112.655C167.454 112.199 166.503 111.982 165.564 111.982C163.339 111.982 161.189 113.199 160.107 115.311L153.998 127.234C152.573 130.019 153.496 133.394 156.031 135.1L157.75 136.031L161.378 137.891C164.38 139.429 168.077 138.237 169.615 135.232L175.724 123.312C176.468 121.856 176.603 120.197 176.1 118.643ZM186.702 310.543C188.495 309.725 190.445 309.189 192.494 309L186.702 301.306V310.543ZM161.65 268.029C159.112 264.988 158.412 261.437 157.846 258.575C157.703 257.894 155.1 243.672 155.1 243.672C155.1 243.672 152.636 245.208 152.378 245.317C152.199 245.397 152.073 245.573 152.054 245.779L149.183 274.956H166.866L161.65 268.029ZM130.449 238.907L134.904 274.931H138.582L141.551 244.746C141.93 240.879 144.297 237.503 147.766 235.825L153.073 232.461L149.538 212.869C149.538 212.869 134.646 230.56 134.3 231.01C131.218 235.018 130.163 236.622 130.449 238.907ZM187.441 264.442C186.375 261.234 185.88 257.968 185.963 254.648L184.046 219.447L159.642 209.447L164.078 234.018C164.092 234.084 164.106 234.153 164.114 234.218L167.783 254.535C168.261 256.639 168.679 259.83 169.992 261.563L205.645 308.92H208.584L187.441 264.442ZM313.223 358.548C313.223 354.436 309.877 351.091 305.763 351.091H262.699C258.585 351.091 255.237 354.436 255.237 358.548V377.447H313.223V358.548ZM244.687 358.548V326.932C244.687 322.818 241.339 319.472 237.225 319.472H194.161C190.047 319.472 186.702 322.818 186.702 326.932V377.447H244.685V358.548H244.687ZM49.6283 241.45V377.447H107.611V345.812C107.611 342.898 109.973 340.536 112.887 340.536C115.804 340.536 118.166 342.898 118.166 345.812V377.447H176.149V292.965C176.149 288.853 172.804 285.508 168.69 285.508H125.626C121.512 285.508 118.166 288.853 118.166 292.965V319.415C118.166 322.329 115.804 324.691 112.89 324.691C109.973 324.691 107.614 322.329 107.614 319.415V241.45C107.614 237.336 104.266 233.991 100.152 233.991H94.3398C94.3233 233.991 94.3041 233.993 94.2849 233.993C94.2684 233.993 94.2492 233.991 94.2327 233.991H57.0907C52.9763 233.991 49.6283 237.339 49.6283 241.45ZM100.152 223.438C110.083 223.438 118.164 231.519 118.164 241.45V276.579C120.053 275.717 122.113 275.17 124.28 275.011L119.976 240.206C119.13 233.422 122.591 228.926 125.936 224.575C126.291 224.114 146.799 199.763 146.799 199.763L134.217 161.723L99.561 140.667V182.053V223.438H100.152ZM89.0087 79.133V46.5669H33.19L45.2118 57.1522C46.8488 58.5941 47.7881 60.6705 47.7881 62.8513C47.7881 65.0321 46.8488 67.1085 45.2118 68.5505L33.19 79.1358H89.0087V79.133Z" fill="url(#paint0_linear)" stroke="#4943CD" stroke-width="6" mask="url(#path-1-inside-1)"/>
<path d="M100.24 226.432C100.24 226.432 107.824 141.851 101.328 138.263C94.8311 134.674 90.249 129.835 86.6703 120.558C83.0915 111.28 86.6703 226.432 86.6703 226.432H100.24Z" fill="#4943CD"/>
<path d="M77 110.598V107.598L267.613 107.598V110.598L77 110.598Z" fill="url(#paint1_linear)"/>
<path d="M13 231V228H203.613V231H13Z" fill="url(#paint2_linear)"/>
<path opacity="0.7" d="M258.541 347.5V344.5H360V347.5H258.541Z" fill="url(#paint3_linear)"/>
<ellipse cx="172.958" cy="109" rx="3.99998" ry="3.99999" fill="#9893FB"/>
<ellipse cx="50.9585" cy="230" rx="3.99998" ry="3.99999" fill="#837EF4"/>
<rect x="110.617" y="319" width="4.54688" height="27" fill="url(#paint4_linear)"/>
<rect x="33.4585" y="56.5691" width="4.54688" height="43.5415" transform="rotate(-90 33.4585 56.5691)" fill="#E6536C"/>
<rect x="34.4585" y="72.7544" width="4.54688" height="43.5415" transform="rotate(-90 34.4585 72.7544)" fill="#E6536C"/>
<rect x="77" y="40.7957" width="4.54688" height="43.7602" fill="#E6536C"/>
<rect x="172.745" y="166.083" width="4.54688" height="27" transform="rotate(-15.8867 172.745 166.083)" fill="url(#paint5_linear)"/>
<path d="M89.9602 102.611L96.6261 106.201L110.248 25.2097L15.2946 33.4822L19.251 88.8719C41.3382 95.8443 85.5696 108.556 86.3014 105.012C87.0332 101.467 89.3428 102.313 89.9602 102.611Z" fill="#4943CD"/>
<path d="M94.895 107.014C94.4247 103.338 94.5104 94.7016 96.819 95.9842C99.1276 97.2668 131.384 115.116 147.224 123.88" stroke="#CD5575" stroke-width="4"/>
<path d="M88.9137 104.104C86.3305 98.4228 77.4792 71.5946 82.534 55.5586C88.0262 49.2116 100.809 48.4812 104.364 48.4812C98.9666 60.0813 95.9911 69.9129 95.1936 97.0264" stroke="#CD5575" stroke-width="4"/>
<g clip-path="url(#clip0)">
<path d="M107.284 14.0524L104.697 15.9076C104.937 16.2882 105.666 17.4466 105.631 18.161C105.553 19.747 104.281 20.9775 102.797 20.9042C101.312 20.8308 100.169 19.4809 100.247 17.895C100.274 17.3551 100.461 16.7075 100.788 16.0223C103.114 11.1508 102.249 5.39102 98.6354 1.68975C98.5562 1.60863 97.9784 1.0367 97.9784 1.0367L95.8901 0.933513L95.6955 2.42871C95.2848 5.5841 92.6288 8.84678 89.8169 12.301C86.328 16.5869 82.7203 21.0189 82.459 26.3055C82.0237 35.115 88.4983 42.6195 96.8919 43.0343C105.285 43.449 112.468 36.6193 112.904 27.8098C113.131 23.2121 110.252 18.4925 107.284 14.0524ZM97.0578 39.6751C95.4222 39.5943 94.1604 38.133 94.2452 36.4175C94.297 35.3691 95.3678 33.9861 96.3125 32.766C96.7894 32.1501 97.2552 31.5484 97.6437 30.941C99.0921 32.6799 100.263 34.9883 100.178 36.7106C100.093 38.4261 98.6935 39.7559 97.0578 39.6751ZM103.034 38.4325C103.182 37.934 103.274 37.409 103.3 36.8649C103.477 33.289 100.765 29.0554 98.123 26.8875L97.7329 26.5674L95.5979 26.4619L95.5169 28.1005C95.4904 28.6369 94.5652 29.8319 93.8896 30.7045C92.6418 32.316 91.2275 34.1426 91.1227 36.2632C91.0958 36.8072 91.1353 37.3387 91.2329 37.8493C87.6447 35.4907 85.3466 31.2148 85.5816 26.4598C85.7876 22.2904 89.0425 18.2919 92.1903 14.425C94.4827 11.6089 96.682 8.9071 97.8998 6.04053C99.2468 8.58836 99.3282 11.7695 97.9938 14.5635C97.4664 15.6677 97.1739 16.7367 97.1243 17.7406C96.9567 21.1337 99.4287 24.023 102.635 24.1814C104.852 24.291 106.848 23.067 107.924 21.1796C109.1 23.4368 109.88 25.6451 109.781 27.6556C109.546 32.4106 106.838 36.4391 103.034 38.4325Z" fill="#CD5575"/>
</g>
<path d="M9 49.5981V46.5981L199.613 46.5981V49.5981L9 49.5981Z" fill="url(#paint6_linear)"/>
<ellipse cx="104.958" cy="48" rx="3.99998" ry="3.99999" fill="#C2BFFF"/>
<defs>
<linearGradient id="paint0_linear" x1="179.732" y1="28" x2="179.732" y2="387.999" gradientUnits="userSpaceOnUse">
<stop stop-color="#F25268"/>
<stop offset="1" stop-color="#D47844" stop-opacity="0.1"/>
</linearGradient>
<linearGradient id="paint1_linear" x1="77" y1="109.098" x2="267.613" y2="109.098" gradientUnits="userSpaceOnUse">
<stop stop-color="white" stop-opacity="0"/>
<stop offset="0.552083" stop-color="white" stop-opacity="0.19"/>
<stop offset="1" stop-color="white" stop-opacity="0"/>
</linearGradient>
<linearGradient id="paint2_linear" x1="13" y1="229.5" x2="203.613" y2="229.5" gradientUnits="userSpaceOnUse">
<stop stop-color="white" stop-opacity="0"/>
<stop offset="0.552083" stop-color="white" stop-opacity="0.19"/>
<stop offset="1" stop-color="white" stop-opacity="0"/>
</linearGradient>
<linearGradient id="paint3_linear" x1="258.541" y1="346" x2="360" y2="346" gradientUnits="userSpaceOnUse">
<stop stop-color="white" stop-opacity="0"/>
<stop offset="0.552083" stop-color="white" stop-opacity="0.19"/>
<stop offset="1" stop-color="white" stop-opacity="0"/>
</linearGradient>
<linearGradient id="paint4_linear" x1="112.891" y1="319" x2="112.891" y2="346" gradientUnits="userSpaceOnUse">
<stop stop-color="#6F4FA9"/>
<stop offset="1" stop-color="#654CB1"/>
</linearGradient>
<linearGradient id="paint5_linear" x1="175.019" y1="166.083" x2="175.019" y2="193.083" gradientUnits="userSpaceOnUse">
<stop stop-color="#AA527D"/>
<stop offset="1" stop-color="#9F5384"/>
</linearGradient>
<linearGradient id="paint6_linear" x1="9" y1="48.0981" x2="199.613" y2="48.0981" gradientUnits="userSpaceOnUse">
<stop stop-color="white" stop-opacity="0"/>
<stop offset="0.552083" stop-color="white" stop-opacity="0.19"/>
<stop offset="1" stop-color="white" stop-opacity="0"/>
</linearGradient>
<clipPath id="clip0">
<rect width="40.017" height="42" fill="white" transform="translate(78.9806 0.0979004) rotate(2.82889)"/>
</clipPath>
</defs>
</svg>
