<svg width="305" height="380" viewBox="0 0 305 380" fill="none" xmlns="http://www.w3.org/2000/svg">
<g clip-path="url(#clip0)">
<mask id="path-1-inside-1" fill="white">
<path d="M183.939 142.45L207.996 166.507C211.712 170.214 216.747 172.296 221.996 172.296C227.245 172.296 232.279 170.214 235.995 166.507L302.594 99.9081C303.783 98.7184 304.451 97.105 304.451 95.4228C304.451 93.7405 303.783 92.1271 302.594 90.9375L213.796 2.13928C212.606 0.95019 210.992 0.282227 209.31 0.282227C207.628 0.282227 206.015 0.95019 204.825 2.13928L158.568 48.3958L134.511 24.3388C130.795 20.6321 125.761 18.5505 120.512 18.5505C115.263 18.5505 110.229 20.6321 106.513 24.3388L44.3993 86.4522L29.8564 71.9093C28.6666 70.7202 27.0533 70.0523 25.3711 70.0523C23.689 70.0523 22.0757 70.7202 20.8858 71.9093L1.85764 90.9375C0.668206 92.1271 0 93.7405 0 95.4228C0 97.105 0.668206 98.7184 1.85764 99.9081L124.227 222.277L116.027 230.478C114.838 231.667 114.169 233.281 114.169 234.963V270.392L107.827 276.734L105.969 274.877C104.779 273.688 103.166 273.02 101.484 273.02C99.8018 273.02 98.1884 273.688 96.9986 274.877L1.85765 370.018L10.8282 378.988L101.484 288.332L162.284 349.132L141.398 370.018L150.368 378.988L175.739 353.617C176.929 352.428 177.597 350.814 177.597 349.132C177.597 347.45 176.929 345.836 175.739 344.647L167.539 336.447L202.968 301.018L261.91 359.96C263.099 361.149 264.713 361.817 266.395 361.817C268.077 361.817 269.69 361.149 270.88 359.96L289.908 340.932C291.098 339.742 291.766 338.129 291.766 336.447C291.766 334.764 291.098 333.151 289.908 331.961L230.966 273.019L239.167 264.819C240.356 263.629 241.024 262.016 241.024 260.334C241.024 258.651 240.356 257.038 239.167 255.848L188.425 205.107C187.235 203.918 185.622 203.25 183.939 203.25C182.257 203.25 180.644 203.918 179.454 205.107L178.898 205.663C178.037 198.248 174.688 191.344 169.396 186.078C168.207 184.889 166.593 184.221 164.911 184.221C163.229 184.221 161.616 184.889 160.426 186.078L152.226 194.279L142.168 184.221L183.939 142.45ZM214.339 132.165L207.996 138.508C206.276 140.227 204.889 142.25 203.906 144.475L192.91 133.479L204.282 122.108C205.615 120.774 207.424 120.025 209.31 120.025C211.196 120.025 213.005 120.774 214.339 122.108C215.673 123.441 216.422 125.25 216.422 127.136C216.422 129.023 215.673 130.832 214.339 132.165ZM209.31 15.5944L289.139 95.4228L227.025 157.536C225.691 158.87 223.882 159.619 221.996 159.619C220.11 159.619 218.301 158.87 216.967 157.536C215.633 156.202 214.884 154.394 214.884 152.507C214.884 150.621 215.633 148.812 216.967 147.479L223.31 141.136C227.022 137.423 229.107 132.387 229.107 127.136C229.107 121.886 227.022 116.85 223.31 113.137L167.539 57.3664L209.31 15.5944ZM115.483 33.3094C116.818 31.9774 118.626 31.2293 120.512 31.2293C122.398 31.2293 124.206 31.9774 125.541 33.3094L201.274 109.042C199.051 110.027 197.029 111.416 195.311 113.137L114.169 194.279L34.3413 114.451L115.483 33.3094ZM25.3711 85.3644L35.4287 95.4228L25.3708 105.481L15.3127 95.4228L25.3711 85.3644ZM276.453 336.447L266.395 346.505L211.938 292.047L221.996 281.99L276.453 336.447ZM183.939 218.562L225.711 260.334L202.968 283.078L161.196 241.306L169.396 233.105L169.396 233.105L169.412 233.089L183.939 218.562ZM164.21 200.235C166.181 204.108 166.877 208.506 166.197 212.799C165.517 217.092 163.497 221.06 160.426 224.135L147.74 236.82C146.551 238.01 145.883 239.623 145.883 241.306C145.883 242.988 146.551 244.601 147.74 245.791C153.272 251.334 156.378 258.845 156.378 266.676C156.378 274.508 153.272 282.019 147.74 287.562L156.711 296.533C164.529 288.722 168.96 278.149 169.048 267.098L193.997 292.047L158.568 327.476L116.797 285.705L124.997 277.504C126.187 276.315 126.855 274.701 126.855 273.019V237.59L164.21 200.235ZM143.255 203.249L133.198 213.307L123.14 203.249L133.198 193.192L143.255 203.249Z"/>
</mask>
<path d="M183.939 142.45L207.996 166.507C211.712 170.214 216.747 172.296 221.996 172.296C227.245 172.296 232.279 170.214 235.995 166.507L302.594 99.9081C303.783 98.7184 304.451 97.105 304.451 95.4228C304.451 93.7405 303.783 92.1271 302.594 90.9375L213.796 2.13928C212.606 0.95019 210.992 0.282227 209.31 0.282227C207.628 0.282227 206.015 0.95019 204.825 2.13928L158.568 48.3958L134.511 24.3388C130.795 20.6321 125.761 18.5505 120.512 18.5505C115.263 18.5505 110.229 20.6321 106.513 24.3388L44.3993 86.4522L29.8564 71.9093C28.6666 70.7202 27.0533 70.0523 25.3711 70.0523C23.689 70.0523 22.0757 70.7202 20.8858 71.9093L1.85764 90.9375C0.668206 92.1271 0 93.7405 0 95.4228C0 97.105 0.668206 98.7184 1.85764 99.9081L124.227 222.277L116.027 230.478C114.838 231.667 114.169 233.281 114.169 234.963V270.392L107.827 276.734L105.969 274.877C104.779 273.688 103.166 273.02 101.484 273.02C99.8018 273.02 98.1884 273.688 96.9986 274.877L1.85765 370.018L10.8282 378.988L101.484 288.332L162.284 349.132L141.398 370.018L150.368 378.988L175.739 353.617C176.929 352.428 177.597 350.814 177.597 349.132C177.597 347.45 176.929 345.836 175.739 344.647L167.539 336.447L202.968 301.018L261.91 359.96C263.099 361.149 264.713 361.817 266.395 361.817C268.077 361.817 269.69 361.149 270.88 359.96L289.908 340.932C291.098 339.742 291.766 338.129 291.766 336.447C291.766 334.764 291.098 333.151 289.908 331.961L230.966 273.019L239.167 264.819C240.356 263.629 241.024 262.016 241.024 260.334C241.024 258.651 240.356 257.038 239.167 255.848L188.425 205.107C187.235 203.918 185.622 203.25 183.939 203.25C182.257 203.25 180.644 203.918 179.454 205.107L178.898 205.663C178.037 198.248 174.688 191.344 169.396 186.078C168.207 184.889 166.593 184.221 164.911 184.221C163.229 184.221 161.616 184.889 160.426 186.078L152.226 194.279L142.168 184.221L183.939 142.45ZM214.339 132.165L207.996 138.508C206.276 140.227 204.889 142.25 203.906 144.475L192.91 133.479L204.282 122.108C205.615 120.774 207.424 120.025 209.31 120.025C211.196 120.025 213.005 120.774 214.339 122.108C215.673 123.441 216.422 125.25 216.422 127.136C216.422 129.023 215.673 130.832 214.339 132.165ZM209.31 15.5944L289.139 95.4228L227.025 157.536C225.691 158.87 223.882 159.619 221.996 159.619C220.11 159.619 218.301 158.87 216.967 157.536C215.633 156.202 214.884 154.394 214.884 152.507C214.884 150.621 215.633 148.812 216.967 147.479L223.31 141.136C227.022 137.423 229.107 132.387 229.107 127.136C229.107 121.886 227.022 116.85 223.31 113.137L167.539 57.3664L209.31 15.5944ZM115.483 33.3094C116.818 31.9774 118.626 31.2293 120.512 31.2293C122.398 31.2293 124.206 31.9774 125.541 33.3094L201.274 109.042C199.051 110.027 197.029 111.416 195.311 113.137L114.169 194.279L34.3413 114.451L115.483 33.3094ZM25.3711 85.3644L35.4287 95.4228L25.3708 105.481L15.3127 95.4228L25.3711 85.3644ZM276.453 336.447L266.395 346.505L211.938 292.047L221.996 281.99L276.453 336.447ZM183.939 218.562L225.711 260.334L202.968 283.078L161.196 241.306L169.396 233.105L169.396 233.105L169.412 233.089L183.939 218.562ZM164.21 200.235C166.181 204.108 166.877 208.506 166.197 212.799C165.517 217.092 163.497 221.06 160.426 224.135L147.74 236.82C146.551 238.01 145.883 239.623 145.883 241.306C145.883 242.988 146.551 244.601 147.74 245.791C153.272 251.334 156.378 258.845 156.378 266.676C156.378 274.508 153.272 282.019 147.74 287.562L156.711 296.533C164.529 288.722 168.96 278.149 169.048 267.098L193.997 292.047L158.568 327.476L116.797 285.705L124.997 277.504C126.187 276.315 126.855 274.701 126.855 273.019V237.59L164.21 200.235ZM143.255 203.249L133.198 213.307L123.14 203.249L133.198 193.192L143.255 203.249Z" fill="url(#paint0_linear)" stroke="#4943CD" stroke-width="8" mask="url(#path-1-inside-1)"/>
<path d="M24 26.5981V23.5981L214.613 23.5981V26.5981L24 26.5981Z" fill="url(#paint1_linear)"/>
<path d="M116 114.598V111.598L306.613 111.598V114.598L116 114.598Z" fill="url(#paint2_linear)"/>
<path d="M126 167.598V164.598H316.613V167.598H126Z" fill="url(#paint3_linear)"/>
<path d="M113 9.59814V6.59814L303.613 6.59814V9.59814L113 9.59814Z" fill="url(#paint4_linear)"/>
<ellipse cx="119.958" cy="25" rx="3.99998" ry="3.99999" fill="#B7B4FF"/>
<ellipse cx="211.958" cy="113" rx="3.99998" ry="3.99999" fill="#928DFF"/>
<ellipse cx="221.958" cy="166" rx="3.99998" ry="3.99999" fill="#847FF3"/>
<ellipse cx="208.958" cy="7.99999" rx="3.99998" ry="3.99999" fill="#C7C5FF"/>
</g>
<defs>
<linearGradient id="paint0_linear" x1="152.226" y1="0.282227" x2="152.226" y2="378.988" gradientUnits="userSpaceOnUse">
<stop stop-color="#FF3751"/>
<stop offset="1" stop-color="#FFAC60" stop-opacity="0"/>
</linearGradient>
<linearGradient id="paint1_linear" x1="24" y1="25.0981" x2="214.613" y2="25.0981" gradientUnits="userSpaceOnUse">
<stop stop-color="white" stop-opacity="0"/>
<stop offset="0.552083" stop-color="white" stop-opacity="0.19"/>
<stop offset="1" stop-color="white" stop-opacity="0"/>
</linearGradient>
<linearGradient id="paint2_linear" x1="116" y1="113.098" x2="306.613" y2="113.098" gradientUnits="userSpaceOnUse">
<stop stop-color="white" stop-opacity="0"/>
<stop offset="0.552083" stop-color="white" stop-opacity="0.19"/>
<stop offset="1" stop-color="white" stop-opacity="0"/>
</linearGradient>
<linearGradient id="paint3_linear" x1="126" y1="166.098" x2="316.613" y2="166.098" gradientUnits="userSpaceOnUse">
<stop stop-color="white" stop-opacity="0"/>
<stop offset="0.552083" stop-color="white" stop-opacity="0.19"/>
<stop offset="1" stop-color="white" stop-opacity="0"/>
</linearGradient>
<linearGradient id="paint4_linear" x1="113" y1="8.09814" x2="303.613" y2="8.09814" gradientUnits="userSpaceOnUse">
<stop stop-color="white" stop-opacity="0"/>
<stop offset="0.552083" stop-color="white" stop-opacity="0.19"/>
<stop offset="1" stop-color="white" stop-opacity="0"/>
</linearGradient>
<clipPath id="clip0">
<rect width="304.451" height="380" fill="white"/>
</clipPath>
</defs>
</svg>
