<svg width="375" height="251" viewBox="0 0 375 251" fill="none" xmlns="http://www.w3.org/2000/svg">
<g clip-path="url(#clip0)">
<rect x="329.559" width="2" height="128" fill="url(#paint0_linear)"/>
<rect x="255.559" y="53" width="2" height="129" fill="url(#paint1_linear)"/>
<rect x="181.559" y="45" width="2" height="128" fill="url(#paint2_linear)"/>
<rect x="106.559" y="125" width="2" height="129" fill="url(#paint3_linear)"/>
<rect x="32.5593" y="160" width="2" height="128" fill="url(#paint4_linear)"/>
<path d="M-105 222.598L-39.6226 197.083L34.3895 203.055L108.402 175.369L182.414 109.681L256.837 116.738L330.438 77.1088L381.013 2.73535" stroke="url(#paint5_linear)" stroke-width="4"/>
<circle cx="34.2036" cy="202.691" r="2.5" fill="#6B65E8"/>
<circle cx="107.684" cy="174.919" r="2.5" fill="#6B65E8"/>
<circle cx="182.322" cy="109.539" r="2.5" fill="#817CFA"/>
<circle cx="256.381" cy="116.481" r="2.5" fill="#8883FF"/>
<circle cx="330.44" cy="76.5586" r="2.5" fill="#ACA8FF"/>
</g>
<defs>
<linearGradient id="paint0_linear" x1="330.559" y1="0" x2="330.559" y2="128" gradientUnits="userSpaceOnUse">
<stop stop-color="white" stop-opacity="0"/>
<stop offset="0.552083" stop-color="white" stop-opacity="0.19"/>
<stop offset="1" stop-color="white" stop-opacity="0"/>
</linearGradient>
<linearGradient id="paint1_linear" x1="256.559" y1="53" x2="256.559" y2="182" gradientUnits="userSpaceOnUse">
<stop stop-color="white" stop-opacity="0"/>
<stop offset="0.552083" stop-color="white" stop-opacity="0.14"/>
<stop offset="1" stop-color="white" stop-opacity="0"/>
</linearGradient>
<linearGradient id="paint2_linear" x1="182.559" y1="45" x2="182.559" y2="173" gradientUnits="userSpaceOnUse">
<stop stop-color="white" stop-opacity="0"/>
<stop offset="0.552083" stop-color="white" stop-opacity="0.11"/>
<stop offset="1" stop-color="white" stop-opacity="0"/>
</linearGradient>
<linearGradient id="paint3_linear" x1="107.559" y1="125" x2="107.559" y2="254" gradientUnits="userSpaceOnUse">
<stop stop-color="white" stop-opacity="0"/>
<stop offset="0.552083" stop-color="white" stop-opacity="0.07"/>
<stop offset="1" stop-color="white" stop-opacity="0"/>
</linearGradient>
<linearGradient id="paint4_linear" x1="33.5593" y1="160" x2="33.5593" y2="288" gradientUnits="userSpaceOnUse">
<stop stop-color="white" stop-opacity="0"/>
<stop offset="0.552083" stop-color="white" stop-opacity="0.04"/>
<stop offset="1" stop-color="white" stop-opacity="0"/>
</linearGradient>
<linearGradient id="paint5_linear" x1="138.007" y1="2.73535" x2="138.007" y2="222.598" gradientUnits="userSpaceOnUse">
<stop stop-color="#D64356"/>
<stop offset="1" stop-color="#FF8D4D" stop-opacity="0"/>
</linearGradient>
<clipPath id="clip0">
<rect width="375" height="251" fill="white"/>
</clipPath>
</defs>
</svg>
