<svg width="241" height="274" viewBox="0 0 241 274" fill="none" xmlns="http://www.w3.org/2000/svg">
<path d="M32.1076 266.56H33.1664L33.3405 265.516L36.1933 248.408L36.1951 248.397L36.1966 248.387C36.5025 246.339 37.6994 245.175 39.2374 245.175H60.6225H61.8725L61.8725 243.925L61.8682 89.9523L61.8682 88.7023H60.6182H47.7914C46.9886 88.7023 46.2187 88.3834 45.651 87.8157C45.0833 87.248 44.7644 86.4781 44.7644 85.6753C44.7644 84.8725 45.0833 84.1025 45.651 83.5348C46.2187 82.9672 46.9886 82.6483 47.7914 82.6483H60.6182H61.8682L61.8682 81.3983L61.8725 4.41186V4.41179C61.8725 3.60897 62.1914 2.83904 62.7591 2.27136C63.3268 1.70368 64.0967 1.38477 64.8995 1.38477C65.7023 1.38477 66.4723 1.70368 67.04 2.27136C67.6076 2.83904 67.9266 3.60898 67.9266 4.41179V19.7749V20.534L68.6002 20.8841C96.9854 35.633 121.695 56.5701 140.904 82.1489L141.279 82.6483H141.903H158.994C159.797 82.6483 160.567 82.9672 161.135 83.5348C161.702 84.1025 162.021 84.8725 162.021 85.6753C162.021 86.4781 161.702 87.248 161.135 87.8157C160.567 88.3834 159.797 88.7023 158.994 88.7023H148.002H145.645L146.967 90.6536C170.778 125.786 183.474 167.266 183.406 209.707V209.709C183.406 221.289 182.479 232.65 180.698 243.727L180.465 245.175H181.932H201.764C202.549 245.175 203.103 245.423 203.536 245.835C203.995 246.271 204.391 246.961 204.684 247.946L204.829 248.539L207.661 265.516L207.835 266.56H208.894H235.981C236.783 266.56 237.553 266.879 238.121 267.447C238.689 268.015 239.008 268.785 239.008 269.587C239.008 270.39 238.689 271.16 238.121 271.728C237.553 272.295 236.783 272.614 235.981 272.614H5.02117C4.21836 272.614 3.44842 272.296 2.88073 271.728C2.31306 271.16 1.99414 270.39 1.99414 269.587C1.99414 268.785 2.31306 268.015 2.88073 267.447C3.4484 266.879 4.21833 266.56 5.02117 266.56H32.1076ZM198.713 252.234L198.512 251.229H197.487H43.5144H42.4896L42.2887 252.234L39.7225 265.065L39.4234 266.56H40.9482H200.054H201.578L201.279 265.065L198.713 252.234ZM69.7763 28.3785L67.9266 27.3668V29.4752V81.3983V82.6483H69.1766H107.614H110.448L108.537 80.5554C101.894 73.2794 94.7191 66.5063 87.073 60.292L85.0347 58.6353V61.262V72.8442C85.0347 73.647 84.7157 74.4169 84.1481 74.9846C83.5804 75.5523 82.8104 75.8712 82.0076 75.8712C81.2048 75.8712 80.4349 75.5523 79.8672 74.9846C79.2995 74.4169 78.9806 73.647 78.9806 72.8442L78.9806 51.4591L78.9806 51.454C78.9777 50.7243 79.2384 50.0181 79.7148 49.4654C80.1913 48.9127 80.8514 48.5507 81.5735 48.4461C82.2957 48.3415 83.0313 48.5012 83.6451 48.896C84.2588 49.2907 84.7093 49.8938 84.9136 50.5944L85.0293 50.9911L85.3586 51.2407C134.528 88.4985 166.298 147.531 166.298 213.986C166.298 220.719 165.971 227.376 165.335 233.943L165.154 235.405C165.049 236.114 164.696 236.764 164.156 237.237C163.625 237.703 162.947 237.968 162.241 237.987L161.625 237.949C160.953 237.876 160.33 237.561 159.872 237.062C159.417 236.568 159.157 235.926 159.137 235.255L159.159 234.804L159.241 234.026L159.241 234.021C160.544 221.072 160.581 208.027 159.353 195.071L159.129 192.701L157.305 194.231L99.2233 242.968L96.5926 245.175L100.027 245.175L173.262 245.18L174.32 245.18L174.495 244.137C176.376 232.944 177.352 221.438 177.352 209.709C177.352 131.495 133.876 63.4338 69.7763 28.3785ZM78.9806 89.9523V88.7023H77.7306H69.1723H67.9222L67.9223 89.9523L67.9266 243.925L67.9266 245.175H69.1766H77.7306H78.9806V243.925V89.9523ZM86.2804 191.351H85.0303L85.0304 192.601L85.0347 243.925L85.0348 245.175H86.2847H86.7423H87.2274L87.5855 244.848L87.8129 244.64L149.014 193.561L151.662 191.351H148.213H147.878H86.2804ZM144.486 136.454L143.825 134.902L142.533 135.986L86.388 183.089L83.7566 185.297H87.1914H156.732H158.187L157.967 183.858C155.48 167.554 150.95 151.627 144.486 136.454ZM130.757 137.957L133.387 135.75H129.953H86.2804H85.0304V137V173.645V176.326L87.0839 174.603L130.757 137.957ZM122.379 97.5136L121.591 96.4319L120.566 97.2921L85.477 126.727L85.0304 127.101V127.684V128.446V129.696H86.2804H139.474H141.467L140.599 127.901C135.446 117.248 129.349 107.078 122.379 97.5136ZM115.953 89.1687L115.578 88.7023H114.979H86.2847H85.0349L85.0347 89.9521L85.0304 116.517L85.0299 119.197L87.0837 117.475L116.98 92.3984L117.918 91.6113L117.151 90.6571L115.953 89.1687Z" fill="url(#paint0_linear)" stroke="#3630C5" stroke-width="2.5"/>
<path d="M143.91 91.4375H145.91V172.56H143.91V91.4375Z" fill="url(#paint1_linear)"/>
<path d="M160.203 147.727H162.203V228.849H160.203V147.727Z" fill="url(#paint2_linear)"/>
<path d="M40.5781 189.132V187.132H121.701V189.132H40.5781Z" fill="url(#paint3_linear)"/>
<path d="M41.5781 133.999V131.999H122.701V133.999H41.5781Z" fill="url(#paint4_linear)"/>
<circle cx="145.318" cy="131.844" r="2.5" transform="rotate(-90 145.318 131.844)" fill="#ACA8FF"/>
<circle cx="161.609" cy="188.132" r="2.5" transform="rotate(-90 161.609 188.132)" fill="#ACA8FF"/>
<circle cx="81.5469" cy="187.977" r="2.5" transform="rotate(-90 81.5469 187.977)" fill="#ACA8FF"/>
<circle cx="81.5469" cy="132.844" r="2.5" transform="rotate(-90 81.5469 132.844)" fill="#ACA8FF"/>
<defs>
<linearGradient id="paint0_linear" x1="120.501" y1="0.134766" x2="120.501" y2="273.864" gradientUnits="userSpaceOnUse">
<stop stop-color="#D64356"/>
<stop offset="1" stop-color="#FF8D4D" stop-opacity="0"/>
</linearGradient>
<linearGradient id="paint1_linear" x1="144.91" y1="91.4375" x2="144.91" y2="172.56" gradientUnits="userSpaceOnUse">
<stop stop-color="white" stop-opacity="0"/>
<stop offset="0.552083" stop-color="white" stop-opacity="0.19"/>
<stop offset="1" stop-color="white" stop-opacity="0"/>
</linearGradient>
<linearGradient id="paint2_linear" x1="161.203" y1="147.727" x2="161.203" y2="228.849" gradientUnits="userSpaceOnUse">
<stop stop-color="white" stop-opacity="0"/>
<stop offset="0.552083" stop-color="white" stop-opacity="0.19"/>
<stop offset="1" stop-color="white" stop-opacity="0"/>
</linearGradient>
<linearGradient id="paint3_linear" x1="40.5781" y1="188.132" x2="121.701" y2="188.132" gradientUnits="userSpaceOnUse">
<stop stop-color="white" stop-opacity="0"/>
<stop offset="0.552083" stop-color="white" stop-opacity="0.19"/>
<stop offset="1" stop-color="white" stop-opacity="0"/>
</linearGradient>
<linearGradient id="paint4_linear" x1="41.5781" y1="132.999" x2="122.701" y2="132.999" gradientUnits="userSpaceOnUse">
<stop stop-color="white" stop-opacity="0"/>
<stop offset="0.552083" stop-color="white" stop-opacity="0.19"/>
<stop offset="1" stop-color="white" stop-opacity="0"/>
</linearGradient>
</defs>
</svg>
