<svg width="375" height="200" viewBox="0 0 375 200" fill="none" xmlns="http://www.w3.org/2000/svg">
<g clip-path="url(#clip0)">
<path d="M194.906 61.3427C148.445 61.1007 55.4507 68.5296 55.1603 100.181M55.1603 100.181C54.87 131.833 55.0393 154.265 55.1603 161.524C60.0001 175.438 92.1839 200 194.906 200M55.1603 100.181C54.0714 114.216 80.4962 142.287 194.906 142.287M194.906 200C229.247 200 257.32 195.752 278.028 189.605M194.906 200V161.524M319.77 75.8618L319.044 161.524C319.044 170.704 304.599 181.718 278.028 189.605M319.77 75.8618C319.77 57.7129 287.465 39.5641 211.603 34.4824C198.246 55.9706 189.825 69.3282 187.284 73.3209M319.77 75.8618C320.496 81.5484 313.164 95.1722 278.028 104.174M187.284 73.3209V102.722L190.71 120.508M187.284 73.3209L278.028 104.174M194.906 142.287L190.71 120.508M194.906 142.287V161.524M278.028 104.174V150.272M278.028 189.605V150.272M190.71 120.508L278.028 150.272M278.028 150.272C253.926 160.726 212.571 162.129 194.906 161.524M258.064 48.6385C272.22 50.0904 308.881 63.5206 308.881 74.0469C308.881 82.3954 290.369 88.929 278.028 92.9217" stroke="url(#paint0_linear)" stroke-width="3" stroke-linecap="round" stroke-linejoin="round"/>
<path d="M237 93V91H318.122V93H237Z" fill="url(#paint1_linear)"/>
<path d="M256.365 0H258.365V81.1224H256.365V0Z" fill="url(#paint2_linear)"/>
<path d="M146 75V73H227.122V75H146Z" fill="url(#paint3_linear)"/>
<path d="M14 100.655V98.6553H95.1224V100.655H14Z" fill="url(#paint4_linear)"/>
<path d="M278 82.6553V80.6553H359.122V82.6553H278Z" fill="url(#paint5_linear)"/>
<circle cx="278.439" cy="92.7192" r="2.5" fill="#ACA8FF"/>
<circle cx="257.613" cy="48.936" r="2" fill="#ACA8FF"/>
<circle cx="186.969" cy="73.8447" r="2.5" fill="#ACA8FF"/>
<circle cx="54.9688" cy="99.5" r="2.5" fill="#ACA8FF"/>
<circle cx="318.969" cy="81.5" r="2.5" fill="#ACA8FF"/>
</g>
<defs>
<linearGradient id="paint0_linear" x1="187.409" y1="34.4824" x2="187.409" y2="200" gradientUnits="userSpaceOnUse">
<stop stop-color="#D64356"/>
<stop offset="1" stop-color="#FF8D4D" stop-opacity="0.1"/>
</linearGradient>
<linearGradient id="paint1_linear" x1="237" y1="92" x2="318.122" y2="92" gradientUnits="userSpaceOnUse">
<stop stop-color="white" stop-opacity="0"/>
<stop offset="0.552083" stop-color="white" stop-opacity="0.19"/>
<stop offset="1" stop-color="white" stop-opacity="0"/>
</linearGradient>
<linearGradient id="paint2_linear" x1="257.365" y1="0" x2="257.365" y2="81.1224" gradientUnits="userSpaceOnUse">
<stop stop-color="white" stop-opacity="0"/>
<stop offset="0.552083" stop-color="white" stop-opacity="0.19"/>
<stop offset="1" stop-color="white" stop-opacity="0"/>
</linearGradient>
<linearGradient id="paint3_linear" x1="146" y1="74" x2="227.122" y2="74" gradientUnits="userSpaceOnUse">
<stop stop-color="white" stop-opacity="0"/>
<stop offset="0.552083" stop-color="white" stop-opacity="0.19"/>
<stop offset="1" stop-color="white" stop-opacity="0"/>
</linearGradient>
<linearGradient id="paint4_linear" x1="14" y1="99.6553" x2="95.1224" y2="99.6553" gradientUnits="userSpaceOnUse">
<stop stop-color="white" stop-opacity="0"/>
<stop offset="0.552083" stop-color="white" stop-opacity="0.19"/>
<stop offset="1" stop-color="white" stop-opacity="0"/>
</linearGradient>
<linearGradient id="paint5_linear" x1="278" y1="81.6553" x2="359.122" y2="81.6553" gradientUnits="userSpaceOnUse">
<stop stop-color="white" stop-opacity="0"/>
<stop offset="0.552083" stop-color="white" stop-opacity="0.19"/>
<stop offset="1" stop-color="white" stop-opacity="0"/>
</linearGradient>
<clipPath id="clip0">
<rect width="375" height="200" fill="white"/>
</clipPath>
</defs>
</svg>
