<svg width="222" height="186" viewBox="0 0 222 186" fill="none" xmlns="http://www.w3.org/2000/svg">
<path d="M116.972 43.5589L70.734 88.9708C63.0277 96.6771 53.2816 113.598 68.257 129.704C82.8438 145.392 104.149 134.824 110.517 128.153L175.413 61.4374C182.085 54.7659 197.763 46.8813 212.107 59.9211C225.45 72.0512 219.385 88.1236 212.107 95.7049L129.016 183.648M73.2172 31.1122L157.824 2L129.016 88.7301L123.86 37.1772L73.2172 31.1122Z" stroke="url(#paint0_linear)" stroke-width="4" stroke-linecap="round" stroke-linejoin="round"/>
<rect x="71.7383" y="31.1733" width="2.19999" height="99.0807" transform="rotate(46.3889 71.7383 31.1733)" fill="url(#paint1_linear)"/>
<rect x="127.336" y="88.4209" width="2.19999" height="99.0807" transform="rotate(46.3889 127.336 88.4209)" fill="url(#paint2_linear)"/>
<circle cx="153.575" cy="157.776" r="2.19999" fill="#6D68EA"/>
<circle cx="211.922" cy="59.7947" r="2.19999" fill="#817CFA"/>
<circle cx="68.8064" cy="130.254" r="2.19999" fill="#ACA8FF"/>
<circle cx="116.695" cy="43.833" r="2.74999" fill="#ACA8FF"/>
<circle cx="72.1092" cy="30.6224" r="2.19999" fill="#ACA8FF"/>
<circle cx="129.354" cy="88.97" r="2.19999" fill="#ACA8FF"/>
<defs>
<linearGradient id="paint0_linear" x1="141.519" y1="2" x2="141.519" y2="181.525" gradientUnits="userSpaceOnUse">
<stop stop-color="#E75669" stop-opacity="0.9"/>
<stop offset="1" stop-color="#FF8D4D" stop-opacity="0.1"/>
</linearGradient>
<linearGradient id="paint1_linear" x1="72.8383" y1="31.1733" x2="72.8383" y2="130.254" gradientUnits="userSpaceOnUse">
<stop stop-color="white" stop-opacity="0.1"/>
<stop offset="1" stop-color="white" stop-opacity="0"/>
</linearGradient>
<linearGradient id="paint2_linear" x1="128.436" y1="88.4209" x2="128.436" y2="187.502" gradientUnits="userSpaceOnUse">
<stop stop-color="white" stop-opacity="0.1"/>
<stop offset="1" stop-color="white" stop-opacity="0"/>
</linearGradient>
</defs>
</svg>
