<svg width="340" height="295" viewBox="0 0 340 295" fill="none" xmlns="http://www.w3.org/2000/svg">
<path d="M0 153.031L1.72881 150.151L5.76271 153.031L6.33898 159.559L7.68362 160.711V156.679L10.9492 157.255L12.1017 164.936L13.6384 165.896L14.2147 158.983L19.0169 161.864L17.096 181.64L28.2373 191.049V182.793L36.3051 188.361H48.2147L61.2768 181.64V175.88H69.1525L73.1864 168.008L84.1356 175.88L103.345 176.648L108.723 172.424L113.525 179.144V170.888L119.672 179.144L132.158 175.88L144.068 182.793L163.277 181.64L181.525 172.424L177.684 163.976L181.525 158.983L186.712 170.888L193.435 168.008H199.198L204.384 158.983L202.079 152.071L210.723 153.031L216.87 136.518V130.566L220.712 124.998H226.859V120.39L253.367 98.6926L268.927 79.4917V65.6671L274.881 55.1066L286.791 33.6016L300.621 0L310.034 7.10433L308.881 14.7847V33.6016L306.576 45.5061L315.028 49.7303H323.288L336.734 55.1066L340 68.9312L336.734 94.4684V110.405L317.333 131.334L310.034 120.39L318.678 113.669L315.028 107.525H308.881L296.395 115.973V130.566L300.621 136.518L294.667 143.815L296.395 152.071L300.621 157.639L294.667 170.888L306.576 168.008L310.034 172.424L308.881 176.648L315.028 181.64H306.576L298.508 186.249L294.667 181.64L291.977 184.329L286.791 182.793L278.915 188.361L270.847 191.049L280.452 195.273V208.33H277.763L274.881 210.634L276.226 221.386L268.927 224.842V233.099L255.864 261.132L257.401 289.357L250.102 294.734L69.1525 268.813L3.45763 175.88V163.976L0 153.031Z" fill="#F3F3F3"/>
<circle opacity="0.5" cx="239.5" cy="110.5" r="8.5" fill="#CC4051"/>
<circle cx="239.5" cy="110.5" r="4.5" fill="#CC4051"/>
<g clip-path="url(#clip0)">
<path d="M171.302 75.2725L171.124 75.4072L171.106 75.6294L169.936 89.6393L164.914 86.8781L164.026 75.5079L164.004 75.2286L163.754 75.1014L132.54 59.1917L131.897 58.8638L131.816 59.5814L127.041 102.116L120.022 98.2565L116.607 51.5947L116.587 51.3205L116.344 51.1906L111.134 48.395C111.133 48.3946 111.133 48.3942 111.132 48.3938C108.107 46.73 105.586 44.8396 103.563 42.7284C103.562 42.7276 103.562 42.7268 103.561 42.7261L100.764 39.7305C100.764 39.73 100.763 39.7294 100.763 39.7289C99.746 38.6203 99.0748 37.7038 98.7183 36.9741C98.3543 36.229 98.3722 35.7959 98.5076 35.5494C98.6696 35.255 99.0557 34.9892 99.8769 34.8823C100.69 34.7765 101.824 34.8431 103.303 35.1075C103.303 35.1076 103.304 35.1078 103.305 35.1079L107.334 35.8641C107.335 35.8644 107.336 35.8646 107.337 35.8648C110.202 36.4406 113.2 37.5842 116.333 39.3067C116.334 39.3076 116.336 39.3085 116.337 39.3094L121.295 42.1737L121.536 42.3131L121.781 42.1812L163.041 20.0146L170.061 23.8739L136.703 50.6926L136.141 51.1451L136.762 51.5127L166.917 69.347L167.159 69.4896L167.406 69.3585L177.484 64.0186L182.506 66.7797L171.302 75.2725Z" fill="#F3F3F3" stroke="#F3F3F3"/>
</g>
<defs>
<clipPath id="clip0">
<rect width="78.748" height="81.343" fill="white" transform="translate(106.065 105.425) rotate(-96.6963)"/>
</clipPath>
</defs>
</svg>
