<svg width="60" height="120" viewBox="0 0 60 120" fill="none" xmlns="http://www.w3.org/2000/svg">
<path d="M110.942 12.0574H100.207L89.0533 0.963249C88.8348 0.570909 88.4995 0.25647 88.0938 0.0637194C87.7188 -0.0212398 87.3295 -0.0212398 86.9544 0.0637194H32.9827C32.6077 -0.0212398 32.2184 -0.0212398 31.8433 0.0637194C31.4691 0.191576 31.1372 0.41976 30.8838 0.723373L19.7297 12.0574H8.99529C6.60959 12.0574 4.3216 13.0051 2.63466 14.6921C0.947715 16.379 0 18.667 0 21.0527V99.0119C0 101.398 0.947715 103.686 2.63466 105.373C4.3216 107.059 6.60959 108.007 8.99529 108.007H47.9749L57.5698 118.981C57.8567 119.302 58.2079 119.558 58.6006 119.734C58.9933 119.909 59.4185 120 59.8486 120C60.2787 120 60.704 119.909 61.0967 119.734C61.4894 119.558 61.8406 119.302 62.1274 118.981L71.9623 108.007H110.942C113.328 108.007 115.616 107.059 117.302 105.373C118.989 103.686 119.937 101.398 119.937 99.0119V21.0527C119.937 18.667 118.989 16.379 117.302 14.6921C115.616 13.0051 113.328 12.0574 110.942 12.0574ZM61.7077 36.0449H58.2295L49.2342 27.0496L52.2326 24.0512H67.7045L70.7029 27.0496L61.7077 36.0449ZM67.7045 18.0543H52.2326L40.2389 6.06058H79.6982L67.7045 18.0543ZM73.2216 21.0527L86.9544 7.31992L94.6904 15.0559L80.9576 28.7887L73.2216 21.0527ZM32.9827 7.31992L46.7155 21.0527L38.9796 28.7887L25.2468 15.0559L32.9827 7.31992ZM8.99529 102.01C8.20005 102.01 7.43739 101.694 6.87508 101.132C6.31276 100.57 5.99686 99.8071 5.99686 99.0119V21.0527C5.99686 20.2575 6.31276 19.4948 6.87508 18.9325C7.43739 18.3702 8.20005 18.0543 8.99529 18.0543H19.7297L36.8807 35.1453C37.1499 35.4322 37.475 35.6608 37.836 35.8171C38.197 35.9733 38.5862 36.054 38.9796 36.054C39.3729 36.054 39.7621 35.9733 40.1231 35.8171C40.4841 35.6608 40.8093 35.4322 41.0785 35.1453L44.9764 31.3074L53.5519 39.8829L35.9811 92.0555C35.8123 92.5506 35.7733 93.0807 35.8678 93.5951C35.9623 94.1096 36.1871 94.5912 36.5209 94.994L42.5177 102.01H8.99529ZM59.9686 112.445L42.3378 92.3554L59.129 42.0417H60.8081L77.5993 92.3554L59.9686 112.445ZM113.94 99.0119C113.94 99.8071 113.624 100.57 113.062 101.132C112.5 101.694 111.737 102.01 110.942 102.01H77.0596L83.0565 94.994C83.3902 94.5912 83.6151 94.1096 83.7096 93.5951C83.804 93.0807 83.765 92.5506 83.5962 92.0555L66.2053 39.8829L74.9607 31.3074L78.8587 35.1453C79.1279 35.4322 79.453 35.6608 79.814 35.8171C80.175 35.9733 80.5642 36.054 80.9576 36.054C81.351 36.054 81.7402 35.9733 82.1012 35.8171C82.4621 35.6608 82.7873 35.4322 83.0565 35.1453L100.207 18.0543H110.942C111.737 18.0543 112.5 18.3702 113.062 18.9325C113.624 19.4948 113.94 20.2575 113.94 21.0527V99.0119Z" fill="black" fill-opacity="0.07"/>
</svg>
