<svg width="64" height="120" viewBox="0 0 64 120" fill="none" xmlns="http://www.w3.org/2000/svg">
<g opacity="0.07">
<path d="M14.8241 20.5359C14.9205 20.4149 15.0267 20.3019 15.1416 20.1983C20.7624 13.8474 27.6679 8.76268 35.4012 5.28065C43.1344 1.79862 51.519 -0.00130565 60 7.10595e-07C93.085 7.10595e-07 120 26.9311 120 60C120 93.0689 93.0689 120 60 120C26.931 120 -6.10352e-05 93.0689 -6.10352e-05 60C-0.0123367 45.5342 5.22341 31.555 14.7357 20.6565L14.8241 20.5359ZM5.6635 54.9233H53.9626L17.3524 25.9824C10.7079 34.2777 6.64374 44.3404 5.6635 54.9233ZM20.9378 21.9187L59.0473 52.0373V5.43847C44.6693 5.68152 30.9722 11.6066 20.9499 21.9187H20.9378ZM60 114.574C90.0904 114.574 114.574 90.0945 114.574 60C114.574 31.4209 92.4861 7.90246 64.4858 5.61131V57.6365C64.4858 57.6687 64.4858 57.6968 64.4858 57.729C64.4858 57.7611 64.4858 57.8294 64.4858 57.8817C64.4858 57.934 64.4858 57.9621 64.4858 58.0023C64.4858 58.0425 64.4858 58.0988 64.4657 58.143C64.4456 58.1872 64.4456 58.2274 64.4376 58.2716L64.4014 58.4002C64.4014 58.4444 64.3733 58.4887 64.3612 58.5288L64.317 58.6494L64.2567 58.7821C64.2567 58.8183 64.2245 58.8544 64.2044 58.8906C64.1843 58.9268 64.1562 58.979 64.1281 59.0233L64.0718 59.1197L63.9713 59.2604L63.9271 59.3207C63.8668 59.3971 63.7985 59.4694 63.7301 59.5418L63.702 59.5659C63.6417 59.6222 63.5814 59.6784 63.5171 59.7307L63.4206 59.8031L63.288 59.8995L63.1754 59.9638C63.1299 59.9917 63.0829 60.0172 63.0347 60.0402L62.9262 60.0925C62.8727 60.1186 62.8177 60.1415 62.7614 60.1608L62.6649 60.197L62.468 60.2532L62.3876 60.2733C62.3119 60.2896 62.2355 60.3017 62.1585 60.3095H62.1022C62.0058 60.3155 61.9092 60.3155 61.8128 60.3095H5.43037C5.61929 90.2834 30.0221 114.574 60 114.574Z" fill="#231F20"/>
</g>
</svg>
