<svg width="49" height="120" viewBox="0 0 49 120" fill="none" xmlns="http://www.w3.org/2000/svg">
<g opacity="0.07" clip-path="url(#clip0)">
<path d="M49.3636 120C49.191 120 48.8458 120 48.6732 119.828C19.5038 111.22 0 85.0502 0 54.7489V16.3558C0 15.1506 1.0356 14.1176 2.2438 14.1176C8.80261 14.1176 14.1532 8.78049 14.1532 2.23816C14.1532 1.033 15.1888 0 16.397 0H82.3303C83.5385 0 84.5741 1.033 84.5741 2.23816C84.5741 8.78049 89.9247 14.1176 96.4835 14.1176C97.6917 14.1176 98.7273 15.1506 98.7273 16.3558V54.5768C98.7273 84.8781 79.2235 111.22 50.054 119.828C49.7088 120 49.5362 120 49.3636 120ZM18.4682 4.64849C17.4326 11.7073 11.7368 17.561 4.6602 18.4218V54.5768C4.4876 82.6399 22.6106 107.088 49.3636 115.352C76.1167 107.088 94.2397 82.6399 94.2397 54.5768V18.4218C86.9905 17.3888 81.2947 11.7073 80.2591 4.47633H18.4682V4.64849Z" fill="black"/>
<path d="M49.3639 76.4422C37.7997 76.4422 28.3066 66.973 28.3066 55.4379C28.3066 43.9027 37.7997 34.4336 49.3639 34.4336C60.9281 34.4336 70.4211 43.9027 70.4211 55.4379C70.4211 66.973 60.9281 76.4422 49.3639 76.4422ZM49.3639 38.9099C40.2161 38.9099 32.7942 46.3131 32.7942 55.4379C32.7942 64.5627 40.2161 71.9659 49.3639 71.9659C58.5117 71.9659 65.9335 64.5627 65.9335 55.4379C65.9335 46.3131 58.5117 38.9099 49.3639 38.9099Z" fill="black"/>
<path d="M46.9468 64.5628C46.2564 64.5628 45.7386 64.3907 45.3934 63.8742L40.7332 59.2257C39.8702 58.3649 39.8702 56.8154 40.7332 55.9545C41.251 55.438 41.7688 55.2659 42.2866 55.2659C42.8044 55.2659 43.4948 55.438 43.84 55.9545L46.9468 59.0535L57.1302 48.8957C57.648 48.3792 58.1658 48.207 58.6836 48.207C59.374 48.207 59.8918 48.3792 60.237 48.8957C61.1 49.7565 61.1 51.306 60.237 52.1669L48.5002 63.8742C48.155 64.3907 47.6372 64.5628 46.9468 64.5628Z" fill="black"/>
</g>
<defs>
<clipPath id="clip0">
<rect width="98.7273" height="120" fill="white"/>
</clipPath>
</defs>
</svg>
