<svg width="21" height="21" viewBox="0 0 21 21" fill="none" xmlns="http://www.w3.org/2000/svg">
<path d="M10.5 21C16.299 21 21 16.299 21 10.5C21 4.70101 16.299 0 10.5 0C4.70101 0 0 4.70101 0 10.5C0 16.299 4.70101 21 10.5 21Z" fill="#3C579E"/>
<path d="M9.2295 17.0625V11.1323H7.11293V9.0177H9.22983V7.06601C9.22983 5.09726 10.392 3.9375 12.1482 3.9375C12.9896 3.9375 13.6761 4.02741 13.8869 4.05546V6.2667L12.4732 6.26604C11.5185 6.26604 11.3395 6.73969 11.3395 7.40545V9.01786H13.7867L13.4411 11.1323H11.3398V17.0625H9.2295Z" fill="white"/>
</svg>
