<svg width="21" height="21" viewBox="0 0 21 21" fill="none" xmlns="http://www.w3.org/2000/svg">
<path d="M10.5 21C16.299 21 21 16.299 21 10.5C21 4.70101 16.299 0 10.5 0C4.70101 0 0 4.70101 0 10.5C0 16.299 4.70101 21 10.5 21Z" fill="url(#paint0_linear)"/>
<path d="M13.5078 17.0625H7.49224C5.53219 17.0625 3.9375 15.468 3.9375 13.5078V7.49224C3.9375 5.53202 5.53219 3.9375 7.49224 3.9375H13.5078C15.468 3.9375 17.0625 5.53202 17.0625 7.49224V13.5079C17.0625 15.468 15.468 17.0625 13.5078 17.0625ZM7.49224 5.0313C6.13528 5.0313 5.0313 6.13528 5.0313 7.49224V13.5079C5.0313 14.8649 6.13528 15.9689 7.49224 15.9689H13.5078C14.8647 15.9689 15.9687 14.8649 15.9687 13.5079V7.49224C15.9687 6.13528 14.8647 5.0313 13.5078 5.0313H7.49224Z" fill="white"/>
<path d="M10.5 13.7812C8.69072 13.7812 7.21875 12.3091 7.21875 10.5C7.21875 8.69055 8.69072 7.21875 10.5 7.21875C12.3093 7.21875 13.7812 8.69055 13.7812 10.5C13.7812 12.3091 12.3093 13.7812 10.5 13.7812ZM10.5 8.31255C9.29381 8.31255 8.31255 9.29381 8.31255 10.5C8.31255 11.7064 9.29381 12.6874 10.5 12.6874C11.7062 12.6874 12.6874 11.7064 12.6874 10.5C12.6874 9.29381 11.7064 8.31255 10.5 8.31255Z" fill="white"/>
<path d="M13.9863 7.76552C14.4016 7.76552 14.7382 7.42888 14.7382 7.01362C14.7382 6.59836 14.4016 6.26172 13.9863 6.26172C13.5711 6.26172 13.2344 6.59836 13.2344 7.01362C13.2344 7.42888 13.5711 7.76552 13.9863 7.76552Z" fill="white"/>
<defs>
<linearGradient id="paint0_linear" x1="4.47704" y1="19.1019" x2="16.5231" y2="1.89827" gradientUnits="userSpaceOnUse">
<stop stop-color="#FFB900"/>
<stop offset="1" stop-color="#9100EB"/>
</linearGradient>
</defs>
</svg>
