<svg width="21" height="21" viewBox="0 0 21 21" fill="none" xmlns="http://www.w3.org/2000/svg">
<path d="M10.5 21C16.299 21 21 16.299 21 10.5C21 4.70101 16.299 0 10.5 0C4.70101 0 0 4.70101 0 10.5C0 16.299 4.70101 21 10.5 21Z" fill="#0076B4"/>
<path d="M7.23827 15.7393H4.788V7.86367H7.23827V15.7393ZM6.01387 6.78759C5.22769 6.78759 4.59375 6.15168 4.59375 5.36795C4.59375 4.58456 5.22769 3.94849 6.01387 3.94849C6.79662 3.94849 7.43236 4.58439 7.43236 5.36795C7.43252 6.15168 6.79678 6.78759 6.01387 6.78759ZM16.4062 15.7393H13.9586V11.9095C13.9586 10.9963 13.9427 9.82127 12.6868 9.82127C11.4128 9.82127 11.2188 10.8163 11.2188 11.8442V15.7393H8.7739V7.86367H11.1202V8.94025H11.1536C11.4801 8.32108 12.2786 7.66828 13.4697 7.66828C15.9479 7.66828 16.4059 9.29889 16.4059 11.4201L16.4062 15.7393Z" fill="white"/>
</svg>
