<svg width="60" height="60" viewBox="0 0 60 60" fill="none" xmlns="http://www.w3.org/2000/svg">
<rect width="60" height="60" rx="7" fill="white"/>
<path d="M30.1228 14.0049V14C30.0898 14 30.0575 14.002 30.0252 14.002C29.9928 14.002 29.9605 14 29.9275 14V14.0049C23.3227 14.11 18 19.4929 18 26.1228C18 35.0571 28.4895 43.5373 30.0252 44.7422C31.5611 43.5375 42.0503 35.0569 42.0503 26.1228C42.0503 19.4929 36.7279 14.11 30.1228 14.0049ZM30.1228 31.3375C26.6669 31.3375 23.8658 28.5369 23.8658 25.0814C23.8658 21.625 26.6669 18.8239 30.1228 18.8239C33.5788 18.8239 36.3801 21.625 36.3801 25.0814C36.3801 28.5369 33.5788 31.3375 30.1228 31.3375Z" fill="#E3E3E3"/>
</svg>
