<svg width="21" height="21" viewBox="0 0 21 21" fill="none" xmlns="http://www.w3.org/2000/svg">
<g clip-path="url(#clip0)">
<path d="M3.77894 20.9529C3.76153 20.9117 3.77314 20.8647 3.77314 20.8176C3.77314 19.6647 3.77314 18.5117 3.77314 17.3529C3.77314 17.2647 3.74992 17.2117 3.68026 17.1588C3.19847 16.7823 2.75731 16.3529 2.35098 15.8941C1.96206 15.4588 1.62539 14.9882 1.32354 14.4882C0.969451 13.8941 0.679215 13.2647 0.464439 12.6058C0.354149 12.2823 0.267079 11.9529 0.197422 11.6176C0.12196 11.2529 0.0697174 10.8823 0.034889 10.5058C-0.00574415 10.0235 0.00586549 9.54702 0.0232797 9.06466C0.0290844 8.84702 0.0639127 8.62349 0.0929363 8.40584C0.150984 7.98819 0.238055 7.57643 0.354149 7.17643C0.644386 6.17054 1.09135 5.24113 1.68343 4.38231C2.06074 3.83525 2.49029 3.33525 2.97208 2.88231C3.66285 2.2176 4.44068 1.67054 5.28237 1.22348C5.90348 0.899955 6.5478 0.635248 7.21535 0.441131C7.70294 0.299954 8.19635 0.194072 8.69555 0.117601C9.27022 0.029366 9.8507 0.0117188 10.4312 0.0117188C10.8549 0.0117188 11.2787 0.0411305 11.6966 0.0999541C12.3119 0.176425 12.9098 0.311719 13.5019 0.499954C14.9008 0.947013 16.1662 1.64701 17.275 2.62937C18.1341 3.38819 18.8422 4.27054 19.3937 5.28231C19.7304 5.89996 19.9916 6.54701 20.1831 7.22349C20.3166 7.68819 20.4037 8.1529 20.4618 8.62937C20.514 9.02349 20.5198 9.4176 20.5198 9.8176C20.5198 10.2529 20.485 10.6823 20.4153 11.1117C20.3457 11.5705 20.2412 12.0176 20.1019 12.4588C19.8174 13.3705 19.3995 14.2117 18.8654 14.9941C18.4707 15.5647 18.0238 16.0882 17.5246 16.5588C16.9209 17.1353 16.2475 17.6235 15.5219 18.0353C15.0401 18.3058 14.5409 18.5411 14.0185 18.7353C13.5077 18.9235 12.9853 19.0705 12.4512 19.1823C12.0855 19.2588 11.714 19.3117 11.3425 19.3529C11.1452 19.3705 10.9478 19.3823 10.7504 19.3941C10.5473 19.4058 10.3383 19.4058 10.1351 19.4058C9.68236 19.4 9.22959 19.3647 8.78262 19.3058C8.35307 19.247 7.93513 19.1588 7.51139 19.0529C7.48817 19.047 7.45914 19.047 7.44173 19.0353C7.2792 18.947 7.15149 19.0117 7.00637 19.0941C6.44332 19.4235 5.87445 19.747 5.31139 20.0705C4.84121 20.3411 4.36522 20.6176 3.89504 20.8882C3.86601 20.9294 3.83119 20.9647 3.77894 20.9529Z" fill="#0176E3"/>
<path d="M9.16568 7.08228C9.41528 7.35875 9.68811 7.58816 9.92029 7.85875C9.97254 7.92345 10.0422 7.97639 10.1002 8.03522C10.6285 8.58228 11.1567 9.12345 11.6907 9.67051C11.7314 9.71757 11.7662 9.78816 11.8184 9.79992C11.8823 9.81169 11.9345 9.75286 11.9926 9.71757C12.5673 9.39992 13.1361 9.08228 13.705 8.77051C14.6686 8.2411 15.638 7.71169 16.6074 7.17639C16.6306 7.16463 16.6596 7.15286 16.6886 7.14698C14.9124 9.11169 13.0955 11.0352 11.3018 12.9882C11.2728 12.9587 11.2496 12.9411 11.2322 12.9235C10.7097 12.3646 10.1873 11.8058 9.66489 11.2529C9.35724 10.9235 9.04378 10.594 8.73613 10.2646C8.68969 10.2117 8.65486 10.2058 8.59101 10.2411C7.41265 10.8999 6.23429 11.5529 5.05593 12.2058C4.63218 12.4411 4.20843 12.6764 3.78469 12.9117C3.77308 12.9176 3.75566 12.9293 3.73244 12.9235C3.73244 12.894 3.75566 12.8764 3.77308 12.8587C4.42901 12.1529 5.09075 11.4529 5.74669 10.747C6.23429 10.2235 6.72188 9.69404 7.20948 9.16463C7.4707 8.88228 7.73771 8.59992 8.00473 8.32345C8.25434 8.05875 8.50974 7.79404 8.75354 7.52933C8.88705 7.37639 9.01476 7.22345 9.16568 7.08228Z" fill="white"/>
</g>
<defs>
<clipPath id="clip0">
<rect width="20.5488" height="21" fill="white"/>
</clipPath>
</defs>
</svg>
