<svg width="60" height="60" viewBox="0 0 60 60" fill="none" xmlns="http://www.w3.org/2000/svg">
<rect width="60" height="60" rx="7" fill="white"/>
<path d="M21.375 42.625C20.75 42.625 20.25 42.5 19.625 42.375C19.25 42.25 18.875 42 18.625 41.75L18.5 41.625C18.375 41.5 18.25 41.25 18.25 41.125C18.25 40.875 18.375 40.75 18.625 40.625C19.625 40.125 20.5 39.25 21 38.25C21.125 38.125 21.25 38 21.25 37.875C17.75 35.75 15.625 32.375 15.625 28.75C15.625 22.5 22.125 17.25 30 17.25C37.875 17.25 44.375 22.5 44.375 28.75C44.375 35 37.875 40.25 30 40.25C29.25 40.25 28.375 40.25 27.625 40.125C25.75 41.75 23.5 42.625 21.375 42.625Z" fill="#E3E3E3"/>
</svg>
