<svg width="60" height="60" viewBox="0 0 60 60" fill="none" xmlns="http://www.w3.org/2000/svg">
<rect width="60" height="60" rx="7" fill="white"/>
<path d="M21.0417 27.9917C23.4417 32.7083 27.3 36.5667 32.025 38.9667L35.6917 35.2917C36.15 34.8333 36.8083 34.7 37.3833 34.8833C39.25 35.5 41.2583 35.8333 43.3333 35.8333C44.2583 35.8333 45 36.575 45 37.5V43.3333C45 44.2583 44.2583 45 43.3333 45C27.6833 45 15 32.3167 15 16.6667C15 15.7417 15.75 15 16.6667 15H22.5C23.425 15 24.1667 15.7417 24.1667 16.6667C24.1667 18.7417 24.5 20.75 25.1167 22.6167C25.3 23.1917 25.1667 23.85 24.7083 24.3083L21.0417 27.9917Z" fill="#E3E3E3"/>
</svg>
