<svg width="60" height="60" viewBox="0 0 60 60" fill="none" xmlns="http://www.w3.org/2000/svg">
<rect width="60" height="60" rx="7" fill="white"/>
<path d="M43.7544 29.4385C46.8162 29.4385 49.2982 26.9565 49.2982 23.8947C49.2982 20.8329 46.8162 18.3508 43.7544 18.3508C40.6926 18.3508 38.2105 20.8329 38.2105 23.8947C38.2105 26.9565 40.6926 29.4385 43.7544 29.4385Z" fill="#E3E3E3"/>
<path d="M29.0176 32.1754C32.0793 32.1754 34.5614 29.6933 34.5614 26.6315C34.5614 23.5697 32.0793 21.0876 29.0176 21.0876C25.9558 21.0876 23.4737 23.5697 23.4737 26.6315C23.4737 29.6933 25.9558 32.1754 29.0176 32.1754Z" fill="#E3E3E3"/>
<path d="M14.9123 34.2806C17.6253 34.2806 19.8246 32.0813 19.8246 29.3683C19.8246 26.6554 17.6253 24.4561 14.9123 24.4561C12.1993 24.4561 10 26.6554 10 29.3683C10 32.0813 12.1993 34.2806 14.9123 34.2806Z" fill="#E3E3E3"/>
<path d="M14.9123 35.5437C12.807 35.5437 11.0526 36.877 10.3509 38.7016C10 39.5437 10.6316 40.456 11.5439 40.456H18.2807C19.193 40.456 19.8246 39.5437 19.5439 38.7016C18.7719 36.877 17.0176 35.5437 14.9123 35.5437Z" fill="#E3E3E3"/>
<path d="M24.8772 40.4562H33.2281C34 40.4562 34.5614 39.8246 34.5614 39.1229V38.9124C34.5614 35.6141 31.6842 33.0176 28.3158 33.4387C25.5088 33.7896 23.5438 36.3159 23.5438 39.1229C23.4737 39.8246 24.1053 40.4562 24.8772 40.4562Z" fill="#E3E3E3"/>
<path d="M43.0526 30.7016C40.2456 31.0525 38.2807 33.5788 38.2807 36.3858V38.4911C38.2807 39.6139 39.193 40.5262 40.3158 40.5262H47.3333C48.4561 40.5262 49.3684 39.6139 49.3684 38.4911V36.1753C49.2982 32.8771 46.4211 30.2104 43.0526 30.7016Z" fill="#E3E3E3"/>
</svg>
