<svg width="21" height="21" viewBox="0 0 21 21" fill="none" xmlns="http://www.w3.org/2000/svg">
<g clip-path="url(#clip0)">
<path d="M10.3034 0.0290527C13.1302 0.0465043 15.5417 0.983069 17.5551 2.89692C19.5628 4.81077 20.6589 7.18418 20.7916 9.9706C20.93 12.949 19.9839 15.5551 17.9359 17.7133C15.9225 19.8365 13.436 20.9302 10.5168 20.9592C7.79958 20.9883 5.41694 20.0692 3.42083 18.2135C1.06704 16.0205 -0.0637019 13.2748 0.0574491 10.0462C0.155524 7.34124 1.18819 5.01437 3.08623 3.10634C5.0881 1.08778 7.5342 0.0814073 10.3034 0.0290527Z" fill="#0087CB"/>
<path d="M7.23445 11.9078C6.66908 11.7333 6.09794 11.553 5.53257 11.3785C5.25565 11.2912 4.97873 11.2039 4.70182 11.1167C4.59797 11.0818 4.4999 11.0469 4.41336 10.9829C4.25183 10.8607 4.24029 10.7095 4.37875 10.5582C4.47105 10.4535 4.58643 10.3837 4.71335 10.3314C5.04796 10.1976 5.38257 10.0638 5.71718 9.92998C8.02482 9.03413 10.3325 8.13247 12.6459 7.23663C13.3785 6.95158 14.1054 6.66654 14.8381 6.3815C14.9362 6.34078 15.04 6.31751 15.1497 6.33496C15.3689 6.36987 15.5362 6.5502 15.5593 6.78289C15.5708 6.91086 15.565 7.03884 15.542 7.16682C15.2593 8.50477 14.9766 9.84854 14.6939 11.1865C14.4631 12.2918 14.2266 13.397 13.9958 14.5081C13.9439 14.7582 13.892 15.0084 13.8401 15.2585C13.817 15.3807 13.7824 15.497 13.7247 15.6075C13.6093 15.8228 13.4247 15.9042 13.1882 15.8577C13.0439 15.8286 12.917 15.7646 12.8016 15.6773C12.0055 15.084 11.2094 14.4848 10.4075 13.8915C10.3728 13.8624 10.3325 13.8391 10.2978 13.8159C10.1594 13.7751 10.0613 13.6704 9.9517 13.589C9.57094 13.3098 9.19018 13.0189 8.80941 12.7397C8.78057 12.7164 8.75172 12.6931 8.72865 12.6641C8.69403 12.6059 8.72865 12.571 8.76326 12.5361C9.28248 12.0707 9.79593 11.5937 10.3152 11.1283C10.6901 10.7851 11.0709 10.4419 11.4459 10.0987C11.8209 9.75546 12.1959 9.41807 12.5709 9.08067C12.8651 8.81308 13.1593 8.55131 13.4478 8.28372C13.4708 8.26045 13.4939 8.23718 13.517 8.21391C13.5343 8.19064 13.5574 8.16737 13.5458 8.13829C13.5343 8.10338 13.4997 8.10339 13.4708 8.10339C13.367 8.09175 13.2805 8.13247 13.1939 8.18483C12.8766 8.37679 12.5709 8.58039 12.2593 8.77818C11.3132 9.37735 10.3613 9.98233 9.41517 10.5815C8.76326 10.9945 8.11135 11.4075 7.45945 11.8264C7.38445 11.8671 7.33253 11.9427 7.23445 11.9078Z" fill="#FCFDFE"/>
<path d="M7.23445 11.9076C7.39022 11.8437 7.52291 11.7389 7.66713 11.6517C8.08251 11.3899 8.49788 11.1281 8.91326 10.8606C9.20748 10.6744 9.49594 10.4824 9.79016 10.2963C10.2748 9.98798 10.7651 9.67967 11.2555 9.37136C11.5959 9.15612 11.9363 8.93507 12.2824 8.71401C12.5824 8.52205 12.8824 8.33008 13.1824 8.13811C13.2805 8.07994 13.3785 8.04504 13.4997 8.05667C13.5343 8.06249 13.5689 8.06249 13.5805 8.09739C13.5978 8.1323 13.5862 8.1672 13.5574 8.2021C13.4882 8.27191 13.4247 8.34753 13.3439 8.41152C13.1997 8.52786 13.0728 8.66166 12.9343 8.78382C12.7093 8.97579 12.5016 9.18521 12.2766 9.37717C12.1843 9.45861 12.0978 9.54587 12.0055 9.62731C11.8728 9.73784 11.7459 9.87163 11.619 9.98798C11.4228 10.1683 11.2209 10.3428 11.0247 10.5173C10.9382 10.5988 10.8459 10.6802 10.7651 10.7617C10.5517 10.9653 10.3267 11.1572 10.1132 11.3608C9.85362 11.5993 9.58824 11.832 9.3344 12.0763C9.14979 12.2509 8.95364 12.4137 8.76326 12.5824C8.73442 12.6057 8.73442 12.629 8.75172 12.6581C8.71134 13.3154 8.66519 13.9727 8.6248 14.6301C8.61327 14.8046 8.59019 14.9733 8.59596 15.1478C8.59596 15.2002 8.59596 15.2467 8.55558 15.2874C8.52096 15.2991 8.48058 15.2991 8.44596 15.2991C8.34212 15.2933 8.26712 15.2409 8.23827 15.142C8.20943 15.0373 8.17481 14.9384 8.14597 14.8337C7.86328 13.8971 7.5806 12.9547 7.29791 12.0182C7.26907 11.9775 7.25176 11.9426 7.23445 11.9076Z" fill="#CCD9E9"/>
<path d="M8.53826 15.2817C8.52095 15.0549 8.56134 14.828 8.56711 14.607C8.57865 14.3626 8.60172 14.1183 8.61326 13.874C8.63057 13.6239 8.64787 13.3737 8.66518 13.1294C8.67095 13.0014 8.68249 12.8734 8.68249 12.7513C8.68249 12.7106 8.69403 12.6815 8.73441 12.6582C9.20171 13.0072 9.669 13.3504 10.1305 13.6995C10.1825 13.7402 10.2401 13.7693 10.2805 13.8216C9.84785 14.2463 9.40939 14.6709 8.97671 15.0956C8.86133 15.2119 8.72287 15.305 8.53826 15.2817Z" fill="#B1C8DB"/>
</g>
<defs>
<clipPath id="clip0">
<rect width="20.8264" height="21" fill="white"/>
</clipPath>
</defs>
</svg>
