<svg width="21" height="21" viewBox="0 0 21 21" fill="none" xmlns="http://www.w3.org/2000/svg">
<path d="M10.5 21C16.299 21 21 16.299 21 10.5C21 4.70101 16.299 0 10.5 0C4.70101 0 0 4.70101 0 10.5C0 16.299 4.70101 21 10.5 21Z" fill="#55ACEE"/>
<path d="M17.2266 6.5936C16.7437 6.80787 16.225 6.95257 15.6798 7.01754C16.236 6.68433 16.6625 6.15654 16.8638 5.52785C16.3436 5.83645 15.7672 6.06056 15.154 6.18131C14.6628 5.65795 13.9629 5.33081 13.1887 5.33081C11.7014 5.33081 10.4957 6.53651 10.4957 8.0234C10.4957 8.23455 10.5197 8.43996 10.5656 8.63716C8.32748 8.52478 6.34348 7.4528 5.01539 5.82382C4.78357 6.22134 4.65068 6.684 4.65068 7.1775C4.65068 8.11167 5.12613 8.93592 5.84866 9.41876C5.40734 9.40481 4.99193 9.28357 4.62902 9.08177C4.6287 9.09309 4.6287 9.10441 4.6287 9.11573C4.6287 10.4207 5.5568 11.5084 6.78874 11.756C6.56266 11.8175 6.32494 11.8503 6.07934 11.8503C5.90576 11.8503 5.7371 11.8334 5.57271 11.8019C5.91544 12.8718 6.90982 13.6506 8.08812 13.6721C7.16658 14.3941 6.00551 14.8245 4.74387 14.8245C4.52648 14.8245 4.31205 14.812 4.10156 14.7869C5.29315 15.5509 6.70884 15.9967 8.22937 15.9967C13.1821 15.9967 15.8906 11.8935 15.8906 8.33529C15.8906 8.21864 15.8876 8.10232 15.8826 7.98698C16.4092 7.60783 16.8655 7.13353 17.2266 6.5936Z" fill="white"/>
</svg>
