<svg width="20" height="21" viewBox="0 0 20 21" fill="none" xmlns="http://www.w3.org/2000/svg">
<g clip-path="url(#clip0)">
<path d="M5.053 18.6382C5.05886 18.0298 5.07058 17.4215 5.07643 16.8131C5.07643 16.6714 5.09401 16.6891 4.95928 16.63C4.20953 16.3288 3.5125 15.9508 2.89747 15.4193C2.24729 14.8582 1.73769 14.1967 1.36282 13.4229C1.00551 12.6788 0.80636 11.8873 0.695069 11.0723C0.654067 10.7533 0.630637 10.4344 0.630637 10.1154C0.630637 9.81423 0.583777 9.51301 0.57792 9.21179C0.572062 8.99916 0.566205 8.78063 0.572063 8.56801C0.57792 8.13095 0.536918 7.69388 0.55449 7.25682C0.589635 6.26457 0.765358 5.29595 1.15195 4.37457C1.70255 3.06338 2.60459 2.07113 3.83466 1.37419C4.76013 0.854444 5.74418 0.523693 6.78681 0.352412C7.43112 0.2461 8.07544 0.187037 8.72562 0.169318C9.4988 0.145693 10.272 0.1516 11.051 0.163412C12.0468 0.175225 13.0308 0.269725 13.9973 0.505975C14.9169 0.724506 15.7838 1.07297 16.5804 1.58682C17.5469 2.20698 18.285 3.02794 18.7828 4.07335C19.0933 4.71713 19.2807 5.39635 19.4037 6.0992C19.4916 6.61895 19.5267 7.1387 19.5209 7.66435C19.515 8.21954 19.5033 8.77473 19.4682 9.32401C19.4447 9.70201 19.4447 10.08 19.4272 10.458C19.3627 11.5034 19.1519 12.5134 18.695 13.4584C18.1327 14.616 17.2833 15.4901 16.1704 16.1221C15.2508 16.6419 14.2668 16.9667 13.2358 17.1439C12.4275 17.2797 11.6075 17.3447 10.7874 17.3447C10.2837 17.3447 9.77996 17.3388 9.27622 17.3447C9.01849 17.3447 8.76076 17.3506 8.50303 17.3211C8.42103 17.3152 8.36246 17.3388 8.30974 17.4038C7.90558 17.8763 7.50141 18.3488 7.09139 18.8213C6.58765 19.406 6.08391 19.9907 5.58603 20.5695C5.53331 20.6286 5.47474 20.6876 5.41031 20.729C5.25216 20.8353 5.08815 20.7762 5.04715 20.5872C5.03543 20.5459 5.04129 20.4927 5.04129 20.4514C5.03543 19.8489 5.04715 19.2406 5.053 18.6382Z" fill="#7143B9"/>
<path d="M4.25055 5.56182C4.26812 4.84126 4.59614 4.29788 5.18774 3.90807C5.43375 3.7427 5.70319 3.61276 5.99607 3.5537C6.30065 3.48873 6.59352 3.53007 6.85125 3.72498C7.02112 3.84901 7.1617 4.00257 7.30227 4.15614C7.77087 4.67588 8.16917 5.23698 8.49133 5.86304C8.54405 5.96935 8.59091 6.08157 8.62605 6.1997C8.72563 6.53635 8.64948 6.83167 8.4269 7.09154C8.3449 7.18604 8.25118 7.26873 8.1516 7.34551C8.05788 7.41048 7.96416 7.48135 7.8763 7.56404C7.67129 7.75895 7.61272 7.9952 7.67715 8.26688C7.70058 8.3791 7.74158 8.48542 7.78258 8.58582C8.02274 9.11738 8.3449 9.59579 8.76078 10.0092C9.00679 10.2514 9.27037 10.464 9.56324 10.6471C9.8444 10.8243 10.1256 10.9897 10.4419 11.1019C10.7347 11.2082 10.9573 11.1432 11.1506 10.8952C11.2326 10.7889 11.3029 10.6766 11.3966 10.5762C11.5723 10.3872 11.7715 10.2455 12.0234 10.1864C12.2987 10.1214 12.5623 10.1687 12.8141 10.2809C13.0543 10.3813 13.2651 10.5349 13.476 10.6825C13.8977 10.9779 14.3078 11.2909 14.7061 11.6157C14.8115 11.7043 14.9052 11.8047 14.9931 11.9169C15.1981 12.1886 15.2391 12.4899 15.1512 12.8088C15.0692 13.1159 14.9169 13.3817 14.7178 13.6239C14.3722 14.0491 13.9505 14.368 13.4292 14.5393C13.2886 14.5866 13.148 14.6161 13.0016 14.6279C12.8141 14.6456 12.6384 14.5807 12.4627 14.5275C12.2928 14.4803 12.1347 14.3976 11.9765 14.3267C11.1858 13.9723 10.4243 13.553 9.70382 13.0687C8.6202 12.3422 7.65372 11.4917 6.81025 10.4935C6.1835 9.74935 5.63876 8.9461 5.17602 8.08379C4.8773 7.53451 4.61371 6.96751 4.39113 6.38279C4.30327 6.12882 4.25055 5.80398 4.25055 5.56182Z" fill="white"/>
<path d="M15.532 7.96572C15.5261 8.16062 15.5496 8.30237 15.532 8.43822C15.491 8.77487 15.1981 8.95206 14.8877 8.82212C14.7002 8.74534 14.6416 8.57997 14.6241 8.39687C14.6065 8.17244 14.5889 7.948 14.5538 7.72356C14.4366 7.03253 14.2492 6.36513 13.8802 5.76269C13.6049 5.31381 13.2476 4.94763 12.8024 4.65822C12.287 4.32157 11.7129 4.12666 11.1155 3.99082C10.8577 3.93175 10.5942 3.8845 10.3306 3.86088C10.2661 3.85497 10.2076 3.84316 10.149 3.81953C9.96741 3.75457 9.87369 3.61872 9.88541 3.42382C9.90884 3.08125 10.1021 2.94541 10.3657 2.94541C11.3673 2.92769 12.2811 3.19347 13.1187 3.74275C13.6107 4.0676 14.05 4.4515 14.4132 4.9181C15.1161 5.82175 15.5261 6.84944 15.532 7.96572Z" fill="white"/>
<path d="M14.0149 7.8593C14.0091 7.95971 14.0266 8.08964 13.9973 8.21958C13.9563 8.43811 13.804 8.56214 13.5756 8.56805C13.3354 8.57396 13.1832 8.46764 13.1304 8.24911C13.107 8.16642 13.107 8.07783 13.0953 7.98924C13.0543 7.59352 12.9606 7.20371 12.8083 6.83161C12.5974 6.30005 12.2167 5.93977 11.6954 5.71533C11.3322 5.56177 10.9573 5.44955 10.5707 5.39049C10.4653 5.37277 10.3657 5.34914 10.272 5.30189C10.2251 5.27827 10.1841 5.24874 10.1549 5.20739C10.026 5.04793 10.0318 4.87665 10.1021 4.69946C10.1607 4.53999 10.2837 4.4514 10.4536 4.43368C10.5942 4.41596 10.7347 4.43958 10.8753 4.46321C11.2678 4.52227 11.6485 4.62268 12.0117 4.79396C12.4744 5.01839 12.8727 5.33143 13.2124 5.72124C13.4995 6.05789 13.7162 6.42999 13.8568 6.84933C13.9563 7.17418 14.0091 7.49902 14.0149 7.8593Z" fill="white"/>
<path d="M12.5564 7.74721C12.5564 7.86534 12.5564 7.98346 12.5154 8.09568C12.4568 8.26696 12.3338 8.36737 12.1581 8.39099C11.9765 8.41462 11.8301 8.34965 11.7305 8.19609C11.6778 8.11931 11.6544 8.03662 11.6427 7.94803C11.6192 7.80037 11.6017 7.64681 11.5431 7.51096C11.4201 7.20974 11.1858 7.03256 10.8812 6.94987C10.8226 6.93215 10.7582 6.92034 10.6996 6.90853C10.6528 6.89671 10.6 6.8849 10.5532 6.87309C10.3365 6.80812 10.2252 6.67228 10.2252 6.48328C10.2252 6.25884 10.3482 6.07575 10.5532 6.01668C10.7523 5.95762 10.9573 5.96943 11.1565 6.02259C11.6309 6.15843 11.9824 6.45965 12.2577 6.86128C12.4393 7.12115 12.5564 7.41646 12.5564 7.74721Z" fill="white"/>
</g>
<defs>
<clipPath id="clip0">
<rect width="19.9934" height="21" fill="white"/>
</clipPath>
</defs>
</svg>
