<svg width="21" height="21" viewBox="0 0 21 21" fill="none" xmlns="http://www.w3.org/2000/svg">
<path d="M0.722139 20.4987C0.773718 20.3072 0.832665 20.1303 0.891613 19.9609C1.15688 19.1798 1.41477 18.3914 1.68003 17.6103C1.77582 17.3303 1.87898 17.0503 1.9674 16.763C1.99688 16.6819 1.98951 16.623 1.93793 16.5493C1.6653 16.1588 1.41477 15.7535 1.19372 15.3335C0.840033 14.6482 0.560033 13.9335 0.361086 13.1893C0.221086 12.6809 0.140033 12.1577 0.0810857 11.6345C-0.00733539 10.9124 -0.00733516 10.183 0.0663491 9.45349C0.132665 8.79033 0.257928 8.13454 0.456875 7.48612C0.663191 6.8156 0.928455 6.16718 1.26003 5.54823C1.5474 5.00297 1.88635 4.49455 2.26214 4.0156C2.6453 3.53665 3.05793 3.08718 3.52214 2.68191C3.93477 2.31349 4.37688 1.97455 4.84109 1.67244C5.23161 1.42192 5.64424 1.19349 6.06424 1.00192C6.46951 0.817705 6.88214 0.648231 7.30214 0.5156C7.92109 0.324021 8.5474 0.169284 9.19582 0.102969C9.68951 0.0513897 10.1832 0.00717934 10.6842 0.0219162C11.1853 0.036653 11.6863 0.0808631 12.18 0.161916C13.1011 0.309284 13.9927 0.581915 14.84 0.972442C15.9379 1.47349 16.9106 2.15139 17.78 2.98402C18.539 3.72086 19.1653 4.54612 19.6811 5.47455C20.0569 6.15981 20.3516 6.88191 20.5653 7.63349C20.86 8.67244 20.9853 9.73349 20.9558 10.8093C20.9337 11.5977 20.8306 12.3714 20.6242 13.1303C20.3737 14.0882 19.9979 14.9945 19.4895 15.8419C18.9737 16.7114 18.34 17.4851 17.6032 18.1777C17.0948 18.6566 16.5421 19.0766 15.9453 19.4377C15.3042 19.8282 14.619 20.1524 13.9042 20.403C13.2632 20.624 12.6 20.7787 11.9295 20.8819C11.6274 20.9261 11.3253 20.9482 11.0232 20.9556C10.8685 20.9556 10.7211 20.9777 10.5663 20.9777C9.70424 20.9777 8.85688 20.8893 8.01688 20.683C7.04425 20.4472 6.12319 20.0787 5.26109 19.5777C5.10635 19.4893 4.95161 19.4009 4.80424 19.2977C4.73056 19.2461 4.66424 19.2461 4.58319 19.2756C4.10424 19.4377 3.61793 19.5924 3.13898 19.7472C2.35056 19.9977 1.56214 20.2482 0.781086 20.4987C0.76635 20.4987 0.751612 20.4987 0.722139 20.4987Z" fill="#25D366"/>
<path d="M6.51369 4.30317C6.6979 4.31054 6.88211 4.31054 7.05895 4.34001C7.19895 4.36212 7.31684 4.42843 7.40527 4.53896C7.50105 4.65686 7.56737 4.78212 7.61895 4.92212C7.88421 5.64422 8.15684 6.3737 8.42947 7.0958C8.47369 7.22107 8.52526 7.33896 8.56211 7.46422C8.60632 7.60422 8.61369 7.73685 8.54737 7.87685C8.45895 8.0758 8.35579 8.26001 8.21579 8.42212C8.03158 8.62843 7.85474 8.84212 7.65579 9.0337C7.62632 9.06317 7.59684 9.09265 7.56737 9.12212C7.44211 9.26212 7.41263 9.40949 7.49369 9.57896C7.56737 9.71896 7.63369 9.85896 7.71474 9.99159C8.03158 10.5074 8.37053 11.0011 8.76842 11.4505C9.13684 11.8705 9.54211 12.2463 9.98421 12.5853C10.3453 12.8653 10.7284 13.1084 11.1337 13.3148C11.3695 13.44 11.6053 13.5579 11.8484 13.6684C12.0547 13.7642 12.2463 13.7495 12.4158 13.5579C12.7768 13.16 13.1453 12.7769 13.4695 12.3495C13.5137 12.2832 13.5726 12.2316 13.6316 12.18C13.7347 12.099 13.8453 12.0695 13.9705 12.1063C14.2211 12.1726 14.4495 12.2905 14.6779 12.4084C15.3411 12.7548 15.9968 13.1084 16.66 13.4621C16.6821 13.4769 16.7042 13.4842 16.7263 13.499C16.9547 13.6095 17.0653 13.779 17.0432 14.0516C17.0137 14.4053 16.9253 14.7369 16.8221 15.0758C16.7337 15.3705 16.5642 15.6137 16.3432 15.82C16.1884 15.9674 16.0263 16.0926 15.8495 16.2032C15.3705 16.5053 14.8547 16.7042 14.2874 16.7926C13.8895 16.8516 13.5063 16.8147 13.1232 16.7116C12.5189 16.5347 11.9295 16.3211 11.3547 16.0779C11.06 15.9526 10.7653 15.8274 10.4779 15.6948C10.0137 15.4811 9.57895 15.2232 9.16632 14.9284C8.59895 14.5305 8.07579 14.0811 7.58948 13.5874C7.22105 13.219 6.87474 12.8211 6.54316 12.4158C6.03474 11.7895 5.60737 11.119 5.17263 10.4411C4.79684 9.85896 4.50211 9.23264 4.3179 8.56212C4.2 8.13475 4.13369 7.70001 4.16316 7.25791C4.21474 6.40317 4.48737 5.63685 5.07684 4.98843C5.24632 4.80422 5.40842 4.62738 5.60737 4.48001C5.81369 4.34001 6.03474 4.26633 6.28527 4.2737C6.36632 4.30317 6.44 4.30317 6.51369 4.30317Z" fill="white"/>
</svg>
