<svg width="45" height="45" viewBox="0 0 45 45" fill="none" xmlns="http://www.w3.org/2000/svg">
<path d="M41.0953 33.9218L38.1663 35.6264C37.6296 35.9362 36.8888 35.8947 36.0725 35.4223L27.7257 30.6022C26.1044 29.6649 24.7891 27.3859 24.7929 25.5227C24.7967 24.5967 25.1255 23.9429 25.6508 23.6368L28.5837 21.9323C28.0546 22.2422 27.7257 22.8922 27.722 23.8182C27.7182 25.6852 29.0334 27.9642 30.6548 28.9015L39.0015 33.7177C39.8179 34.1902 40.5586 34.2317 41.0953 33.9218Z" fill="#B7C5FD"/>
<path d="M44.0999 33.2756C44.0961 34.8742 43.5292 36.0043 42.6146 36.5334L39.6856 38.2379C40.5964 37.705 41.1671 36.5788 41.1709 34.9763C41.1785 31.7562 38.9032 27.8143 36.0989 26.193L27.7522 21.3767C26.3387 20.5603 25.0612 20.4847 24.1353 21.0252L27.0643 19.3207C27.9903 18.784 29.2715 18.8558 30.6812 19.6722L39.028 24.4922C41.8361 26.1098 44.1113 30.0517 44.0999 33.2756Z" fill="#B7C5FD"/>
<path d="M36.0978 26.1936C38.9041 27.8138 41.1794 31.7548 41.1703 34.9767C41.1611 38.2014 38.871 39.5065 36.0646 37.8862L27.7181 33.0676C24.9142 31.4487 22.6389 27.5078 22.648 24.2831C22.6572 21.0611 24.9473 19.756 27.7513 21.3749L36.0978 26.1936ZM36.0716 35.4213C37.6956 36.3589 39.0198 35.6042 39.0251 33.7382C39.0304 31.8749 37.7147 29.5961 36.0908 28.6585L27.7443 23.8399C26.1227 22.9037 24.7985 23.6583 24.7932 25.5216C24.7879 27.3876 26.1036 29.6664 27.7251 30.6026L36.0716 35.4213Z" fill="#8CA1FD"/>
<path d="M19.3473 21.3629L16.4183 23.0674C15.8816 23.3773 15.1408 23.3357 14.3245 22.8633L5.97772 18.0433C4.35634 17.106 3.04111 14.827 3.0449 12.9637C3.04868 12.0378 3.37749 11.3839 3.90283 11.0778L6.83564 9.37329C6.30654 9.68321 5.97773 10.3333 5.97394 11.2592C5.97016 13.1262 7.28539 15.4052 8.90676 16.3425L17.2535 21.1588C18.0699 21.6312 18.8106 21.6728 19.3473 21.3629Z" fill="#B7C5FD"/>
<path d="M14.3497 13.6346C17.1561 15.2549 19.4314 19.1958 19.4222 22.4177C19.4131 25.6424 17.123 26.9475 14.3166 25.3273L5.97009 20.5086C3.16618 18.8898 0.890877 14.9488 0.900021 11.7241C0.909156 8.50218 3.19932 7.19709 6.00324 8.81593L14.3497 13.6346ZM14.3236 22.8623C15.9475 23.7999 17.2718 23.0453 17.2771 21.1792C17.2824 19.3159 15.9667 17.0372 14.3428 16.0996L5.99625 11.2809C4.37471 10.3447 3.0505 11.0994 3.04522 12.9626C3.03992 14.8287 4.35554 17.1074 5.97708 18.0436L14.3236 22.8623Z" fill="#8CA1FD"/>
<path d="M22.3519 20.7166C22.3481 22.3153 21.7812 23.4454 20.8666 23.9745L17.9376 25.679C18.8484 25.1461 19.4191 24.0198 19.4229 22.4173C19.4304 19.1973 17.1552 15.2554 14.3509 13.634L6.00416 8.81775C4.59065 8.00138 3.31323 7.92578 2.38727 8.46626L5.31631 6.76174C6.24227 6.22505 7.52347 6.29685 8.9332 7.11322L17.28 11.9333C20.0881 13.5508 22.3632 17.4928 22.3519 20.7166Z" fill="#B7C5FD"/>
<path d="M15.4579 16.9979C15.0656 17.1107 14.6971 17.2599 14.3716 17.4494C13.5704 17.9142 13.1698 18.5227 13.1698 19.135L13.1584 22.2152C13.1622 21.6067 13.5628 20.9945 14.3641 20.5296C15.1143 20.0929 16.087 19.8624 17.0759 19.8326C16.7854 18.8046 16.1991 17.7767 15.4579 16.9979Z" fill="#4466FB"/>
<path d="M24.1352 21.0261C24.16 21.0096 24.1876 20.9931 24.2179 20.9765L25.2776 20.36L22.0315 18.4855C22.2382 19.242 22.355 19.9971 22.3524 20.7173C22.3514 21.071 22.322 21.4009 22.2675 21.7064L23.0936 22.1834C23.3475 21.6721 23.6995 21.2781 24.1352 21.0261Z" fill="#4466FB"/>
<path d="M30.7496 26.903C27.9642 28.5244 23.4138 28.5244 20.6057 26.903L12.259 22.0867C10.853 21.2742 10.1463 20.2084 10.1463 19.135L10.1387 22.2115C10.1349 23.281 10.8417 24.3506 12.2514 25.167L20.5982 29.987C23.4025 31.6046 27.9529 31.6046 30.7421 29.987C32.1254 29.182 32.817 28.1275 32.8208 27.0693L32.8219 26.7713L31.7638 26.1604C31.4811 26.4245 31.1444 26.6743 30.7496 26.903Z" fill="#4466FB"/>
<path d="M27.4455 19.1418L22.369 16.2109C21.8744 15.9254 21.3235 15.693 20.7395 15.5082C21.3103 16.4502 21.7567 17.4688 22.0335 18.4863L25.2783 20.3596L27.0645 19.3204C27.1855 19.2501 27.3129 19.1909 27.4455 19.1418Z" fill="#6BB5FB"/>
<path d="M28.6058 25.6661C26.9924 26.6037 24.3587 26.6023 22.7371 25.6661L14.3906 20.8474C12.7691 19.9113 12.7581 18.3857 14.3715 17.4481C14.6969 17.259 15.0654 17.1101 15.4575 16.9974C15.1134 16.636 14.7371 16.3273 14.3417 16.0988L13.5166 15.6225C13.0593 15.7872 12.6248 15.9808 12.2287 16.211C9.44062 17.8313 9.45545 20.4671 12.2594 22.086L20.6059 26.9047C23.4123 28.5249 27.9628 28.5249 30.7509 26.9046C31.1456 26.6753 31.482 26.4249 31.7643 26.1605L29.5159 24.8622C29.3157 25.1551 29.013 25.4295 28.6058 25.6661Z" fill="#6BB5FB"/>
</svg>
