<svg width="45" height="45" viewBox="0 0 45 45" fill="none" xmlns="http://www.w3.org/2000/svg">
<g clip-path="url(#clip0)">
<path d="M23.1964 0.00524902L36.8511 25.2114L45 22.4951C45 10.3016 35.3006 0.373217 23.1964 0.00524902Z" fill="#FF6633"/>
<path d="M23.1964 0.00525935C22.8147 -0.00633018 22.5 0.302875 22.5 0.684605V8.14401L36.8511 25.2114L42.2837 22.4951C42.2837 10.3017 33.7926 0.373227 23.1964 0.00525935Z" fill="#FF8B47"/>
<path d="M42.2837 22.4951H45C45 34.8362 35.0638 44.8566 22.7553 44.9933L42.2837 22.4951Z" fill="#F9B348"/>
<path d="M36.8511 22.4951L22.5 32.6432H12.3519L7.07749 37.9176C6.80785 38.1873 6.81111 38.6281 7.08899 38.8894C11.1154 42.6757 16.5371 44.9951 22.5001 44.9951C22.5852 44.9951 22.6703 44.9942 22.7554 44.9933C33.5635 44.8376 42.2837 34.8244 42.2837 22.4951H36.8511Z" fill="#F3DA49"/>
<path d="M7.07749 7.07259C6.80785 6.80295 6.367 6.80621 6.10569 7.08409C2.31935 11.1104 -3.8147e-06 16.5321 -3.8147e-06 22.4951C-3.8147e-06 25.2997 0.513557 27.9849 1.45131 30.4613C1.5864 30.8179 1.9924 30.9896 2.3447 30.8436L9.23812 27.9883L12.3519 12.3469L7.07749 7.07259Z" fill="#AE7DF0"/>
<path d="M32.7631 32.5264L31.6195 26.8303L22.6503 36.8453C26.6125 36.8046 30.1898 35.1585 32.7631 32.5264Z" fill="#28ABFA"/>
<path d="M22.6503 36.8453C22.6005 36.8462 22.5498 36.8462 22.5 36.8462L18.4255 32.7718L22.5 28.6973C24.2384 28.6973 25.8094 27.982 26.9357 26.8303H31.6195V31.4082C29.5171 34.6759 26.2847 36.7883 22.6503 36.8453Z" fill="#14CFFF"/>
<path d="M22.5 28.6974V36.8463C14.5738 36.8463 8.14889 30.4213 8.14889 22.4952L12.2233 18.4207L16.2978 22.4952C16.2978 25.9204 19.0747 28.6974 22.5 28.6974Z" fill="#8AE7FF"/>
<path d="M22.6503 8.1449L30.0604 19.7788L31.6195 31.4082L32.7631 32.5264C35.2919 29.9396 36.8511 26.3993 36.8511 22.4951C36.8511 14.6187 30.5067 8.22548 22.6503 8.1449Z" fill="#373E9F"/>
<path d="M34.1348 22.4952C34.1348 25.8634 33.1941 28.9599 31.6195 31.4082L26.9357 26.8304C28.0286 25.7122 28.7022 24.1829 28.7022 22.4952C28.7022 19.0699 25.9252 16.2929 22.5 16.2929C19.0747 16.2929 16.2978 19.0699 16.2978 22.4952H8.14889C8.14889 14.569 14.5738 8.14404 22.5 8.14404C22.5498 8.14404 22.6005 8.14404 22.6503 8.14495C29.0073 8.24455 34.1348 14.6306 34.1348 22.4952Z" fill="#3857BC"/>
</g>
<defs>
<clipPath id="clip0">
<rect width="45" height="45" fill="white"/>
</clipPath>
</defs>
</svg>
