<svg width="45" height="41" viewBox="0 0 45 41" fill="none" xmlns="http://www.w3.org/2000/svg">
<path d="M37.002 12.9064V23.1367C37.002 27.4083 29.5398 29.7285 22.5 29.7285C15.4602 29.7285 7.99805 27.4083 7.99805 23.1367V12.9064C7.99805 12.1943 8.57792 11.588 9.31641 11.588H35.6836C36.4221 11.588 37.002 12.1943 37.002 12.9064Z" fill="#444444"/>
<path d="M37.002 12.9064V23.1367C37.002 27.4083 29.5398 29.7285 22.5 29.7285V11.588H35.6836C36.4221 11.588 37.002 12.1943 37.002 12.9064Z" fill="#292929"/>
<path d="M45 9.95312C45 10.5069 44.6574 11.0078 44.1561 11.1922L22.9745 19.1023C22.8165 19.1552 22.6583 19.1816 22.5 19.1816C22.3417 19.1816 22.1835 19.1552 22.0255 19.1023L0.843887 11.1922V8.71373L22.0255 0.803574C22.1835 0.751045 22.3417 0.724609 22.5 0.724609C22.6583 0.724609 22.8165 0.751045 22.9745 0.803574L44.1561 8.71373C44.6574 8.89844 45 9.39935 45 9.95312Z" fill="#6E6E6E"/>
<path d="M45 9.95312C45 10.5069 44.6574 11.0078 44.1561 11.1922L22.9745 19.1023C22.8165 19.1552 22.6583 19.1816 22.5 19.1816V0.724609C22.6583 0.724609 22.8165 0.751045 22.9745 0.803574L44.1561 8.71373C44.6574 8.89844 45 9.39935 45 9.95312Z" fill="#5A5A5A"/>
<path d="M23.8184 9.95312C23.8184 10.6913 23.2385 11.2715 22.5 11.2715H2.63672V30.8357L5.19413 38.5351C5.43171 39.2204 5.06229 39.9853 4.37702 40.1961C3.66497 40.4337 2.92683 40.0642 2.71603 39.3786L2.63672 39.1417C2.53132 39.7745 1.97754 40.2754 1.31836 40.2754C0.579872 40.2754 0 39.6952 0 38.957V9.95312C0 9.21464 0.579872 8.63477 1.31836 8.63477H22.5C23.2385 8.63477 23.8184 9.21464 23.8184 9.95312Z" fill="#FDBF00"/>
</svg>
