<svg width="44" height="40" viewBox="0 0 44 40" fill="none" xmlns="http://www.w3.org/2000/svg">
<path d="M2.46622 17.4041H41.3851V33.2149C41.3851 34.8277 40.7445 36.3744 39.604 37.5148C38.4636 38.6553 36.9169 39.2959 35.3041 39.2959H8.5473C6.9345 39.2959 5.38775 38.6553 4.24733 37.5148C3.1069 36.3744 2.46622 34.8277 2.46622 33.2149V17.4041Z" fill="#FFC308"/>
<path d="M40.777 11.323H3.07432C1.39508 11.323 0.033783 12.6843 0.033783 14.3635C0.033783 16.0428 1.39508 17.4041 3.07432 17.4041H40.777C42.4563 17.4041 43.8176 16.0428 43.8176 14.3635C43.8176 12.6843 42.4563 11.323 40.777 11.323Z" fill="url(#paint0_linear)"/>
<path d="M13.4122 26.5256C13.4122 25.5181 12.5954 24.7013 11.5878 24.7013C10.5803 24.7013 9.76351 25.5181 9.76351 26.5256V33.8229C9.76351 34.8305 10.5803 35.6472 11.5878 35.6472C12.5954 35.6472 13.4122 34.8305 13.4122 33.8229V26.5256Z" fill="url(#paint1_linear)"/>
<path d="M20.7095 26.5256C20.7095 25.5181 19.8927 24.7013 18.8851 24.7013C17.8776 24.7013 17.0608 25.5181 17.0608 26.5256V33.8229C17.0608 34.8305 17.8776 35.6472 18.8851 35.6472C19.8927 35.6472 20.7095 34.8305 20.7095 33.8229V26.5256Z" fill="url(#paint2_linear)"/>
<path d="M28.0068 26.5256C28.0068 25.5181 27.19 24.7013 26.1824 24.7013C25.1749 24.7013 24.3581 25.5181 24.3581 26.5256V33.8229C24.3581 34.8305 25.1749 35.6472 26.1824 35.6472C27.19 35.6472 28.0068 34.8305 28.0068 33.8229V26.5256Z" fill="url(#paint3_linear)"/>
<path d="M35.3041 26.5256C35.3041 25.5181 34.4873 24.7013 33.4797 24.7013C32.4722 24.7013 31.6554 25.5181 31.6554 26.5256V33.8229C31.6554 34.8305 32.4722 35.6472 33.4797 35.6472C34.4873 35.6472 35.3041 34.8305 35.3041 33.8229V26.5256Z" fill="url(#paint4_linear)"/>
<path d="M13.4122 25.3094C13.4122 24.3019 12.5954 23.4851 11.5878 23.4851C10.5803 23.4851 9.76351 24.3019 9.76351 25.3094V32.6067C9.76351 33.6143 10.5803 34.4311 11.5878 34.4311C12.5954 34.4311 13.4122 33.6143 13.4122 32.6067V25.3094Z" fill="url(#paint5_linear)"/>
<path d="M20.7095 25.3094C20.7095 24.3019 19.8927 23.4851 18.8851 23.4851C17.8776 23.4851 17.0608 24.3019 17.0608 25.3094V32.6067C17.0608 33.6143 17.8776 34.4311 18.8851 34.4311C19.8927 34.4311 20.7095 33.6143 20.7095 32.6067V25.3094Z" fill="url(#paint6_linear)"/>
<path d="M28.0068 25.3094C28.0068 24.3019 27.19 23.4851 26.1824 23.4851C25.1749 23.4851 24.3581 24.3019 24.3581 25.3094V32.6067C24.3581 33.6143 25.1749 34.4311 26.1824 34.4311C27.19 34.4311 28.0068 33.6143 28.0068 32.6067V25.3094Z" fill="url(#paint7_linear)"/>
<path d="M35.3041 25.3094C35.3041 24.3019 34.4873 23.4851 33.4797 23.4851C32.4722 23.4851 31.6554 24.3019 31.6554 25.3094V32.6067C31.6554 33.6143 32.4722 34.4311 33.4797 34.4311C34.4873 34.4311 35.3041 33.6143 35.3041 32.6067V25.3094Z" fill="url(#paint8_linear)"/>
<path d="M18.9024 4.77049C19.6148 4.05805 19.6148 2.90295 18.9024 2.1905C18.1899 1.47806 17.0348 1.47806 16.3224 2.19051L5.49505 13.0178C4.78261 13.7303 4.78261 14.8854 5.49505 15.5978C6.20749 16.3103 7.36259 16.3103 8.07503 15.5978L18.9024 4.77049Z" fill="url(#paint9_linear)"/>
<path d="M35.7831 15.6014C36.4955 16.3138 37.6506 16.3138 38.3631 15.6014C39.0755 14.889 39.0755 13.7339 38.3631 13.0214L27.5357 2.19408C26.8233 1.48163 25.6682 1.48163 24.9557 2.19408C24.2433 2.90652 24.2433 4.06162 24.9557 4.77406L35.7831 15.6014Z" fill="url(#paint10_linear)"/>
<defs>
<linearGradient id="paint0_linear" x1="1040.77" y1="107.222" x2="1040.95" y2="155.782" gradientUnits="userSpaceOnUse">
<stop offset="0.18" stop-color="#FFC308"/>
<stop offset="1" stop-color="#DE9908"/>
</linearGradient>
<linearGradient id="paint1_linear" x1="65.7703" y1="432.328" x2="65.7703" y2="383.838" gradientUnits="userSpaceOnUse">
<stop offset="0.18" stop-color="#FFC308"/>
<stop offset="1" stop-color="#DE9908"/>
</linearGradient>
<linearGradient id="paint2_linear" x1="94.9595" y1="432.328" x2="94.9595" y2="383.838" gradientUnits="userSpaceOnUse">
<stop offset="0.18" stop-color="#FFC308"/>
<stop offset="1" stop-color="#DE9908"/>
</linearGradient>
<linearGradient id="paint3_linear" x1="124.149" y1="432.328" x2="124.149" y2="383.838" gradientUnits="userSpaceOnUse">
<stop offset="0.18" stop-color="#FFC308"/>
<stop offset="1" stop-color="#DE9908"/>
</linearGradient>
<linearGradient id="paint4_linear" x1="153.338" y1="432.328" x2="153.338" y2="383.838" gradientUnits="userSpaceOnUse">
<stop offset="0.18" stop-color="#FFC308"/>
<stop offset="1" stop-color="#DE9908"/>
</linearGradient>
<linearGradient id="paint5_linear" x1="11.5878" y1="24.7135" x2="11.5878" y2="35.2581" gradientUnits="userSpaceOnUse">
<stop offset="0.18" stop-color="#8F6500"/>
<stop offset="1" stop-color="#774800"/>
</linearGradient>
<linearGradient id="paint6_linear" x1="94.9595" y1="324.28" x2="94.9595" y2="419.181" gradientUnits="userSpaceOnUse">
<stop offset="0.18" stop-color="#8F6500"/>
<stop offset="1" stop-color="#774800"/>
</linearGradient>
<linearGradient id="paint7_linear" x1="124.149" y1="324.28" x2="124.149" y2="419.181" gradientUnits="userSpaceOnUse">
<stop offset="0.18" stop-color="#8F6500"/>
<stop offset="1" stop-color="#774800"/>
</linearGradient>
<linearGradient id="paint8_linear" x1="153.338" y1="324.28" x2="153.338" y2="419.181" gradientUnits="userSpaceOnUse">
<stop offset="0.18" stop-color="#8F6500"/>
<stop offset="1" stop-color="#774800"/>
</linearGradient>
<linearGradient id="paint9_linear" x1="10.849" y1="7.54302" x2="13.4395" y2="10.1336" gradientUnits="userSpaceOnUse">
<stop stop-color="#4D4D4D"/>
<stop offset="0.18" stop-color="#808080"/>
<stop offset="1" stop-color="#4D4D4D"/>
</linearGradient>
<linearGradient id="paint10_linear" x1="149.947" y1="253.687" x2="135.24" y2="256.517" gradientUnits="userSpaceOnUse">
<stop stop-color="#4D4D4D"/>
<stop offset="0.18" stop-color="#808080"/>
<stop offset="1" stop-color="#4D4D4D"/>
</linearGradient>
</defs>
</svg>
