<svg width="45" height="45" viewBox="0 0 45 45" fill="none" xmlns="http://www.w3.org/2000/svg">
<path d="M20.8104 23.6772C21.5371 24.2023 22.4306 24.512 23.3968 24.512H31.6616V28.5194L36.9006 24.512H39.1608C41.5972 24.512 43.5723 22.5429 43.5723 20.1139V4.39805C43.5724 1.96904 41.5973 0 39.1608 0H23.3967C20.9603 0 18.9852 1.96904 18.9852 4.39805V23.6772H20.8104Z" fill="#F7F3F1"/>
<path d="M39.1608 0H35.3821C37.8186 0 39.7938 1.96913 39.7938 4.39805V20.1139C39.7938 22.5429 37.8186 24.512 35.3822 24.512H33.1221L31.6616 25.6291V28.5194L36.9006 24.512H39.1608C41.5972 24.512 43.5723 22.5429 43.5723 20.1139V4.39805C43.5724 1.96913 41.5972 0 39.1608 0V0Z" fill="#EFE7E3"/>
<path d="M27.8794 18.0655L28.3342 18.4336C29.0551 19.0171 29.9545 19.3355 30.882 19.3355H37.337C37.9489 19.3355 38.4416 18.8251 38.4124 18.2067C38.3852 17.6276 38.4137 12.3536 38.4137 11.759C38.4137 11.1644 37.9317 10.6822 37.337 10.6822L32.9598 10.669L33.4958 9.39978C34.0526 8.08093 33.9626 6.57773 33.2523 5.33475C32.8672 4.73952 31.9321 4.95854 31.9139 5.69022C31.9139 6.82844 31.4983 7.92745 30.7452 8.78092L27.9541 11.9392H26.9366V18.0654H27.8794V18.0655Z" fill="#FFD36C"/>
<path d="M27.4438 19.0367H24.4967C24.3019 19.0367 24.1439 18.8788 24.1439 18.6839V11.1712C24.1439 10.9764 24.3018 10.8184 24.4967 10.8184H27.4438C27.6385 10.8184 27.7965 10.9763 27.7965 11.1712V18.6839C27.7964 18.8787 27.6385 19.0367 27.4438 19.0367Z" fill="#8EE6F3"/>
<path d="M20.8167 31.5531V15.6916C20.8167 13.7761 19.2592 12.2233 17.3378 12.2233H4.90654C2.98521 12.2233 1.4276 13.7761 1.4276 15.6916V28.0849C1.4276 30.0003 2.98512 31.5531 4.90654 31.5531H11.7358V34.743L15.8672 31.5531H20.8167Z" fill="#72D1FB"/>
<path d="M17.3379 12.2233H12.4115C14.3328 12.2233 15.8904 13.7761 15.8904 15.6916V31.5531H20.8168V15.6916C20.8167 13.7761 19.2592 12.2233 17.3379 12.2233Z" fill="#62A6FD"/>
<path d="M15.681 22.9073H13.1808L13.4547 21.2507H15.681C16.557 21.2507 16.557 19.8926 15.681 19.8926H13.6793L14.0532 17.6309C14.1961 16.7667 12.8562 16.5451 12.7133 17.4094L12.3027 19.8926H10.6645L11.0385 17.6309C11.1814 16.7667 9.84169 16.545 9.69854 17.4094L9.28801 19.8926H6.56329C5.68729 19.8926 5.68729 21.2507 6.56329 21.2507H9.06347L8.78957 22.9073H6.56329C5.68729 22.9073 5.68729 24.2654 6.56329 24.2654H8.56502L8.19108 26.5271C8.04965 27.3821 9.38788 27.6141 9.53103 26.7486L9.94156 24.2654H11.5798L11.2058 26.5271C11.0644 27.3821 12.4026 27.6141 12.5458 26.7486L12.9563 24.2654H15.681C16.557 24.2654 16.557 22.9073 15.681 22.9073ZM11.8043 22.9073H10.1662L10.4401 21.2507H12.0783L11.8043 22.9073Z" fill="#F7F3F1"/>
<path d="M27.5463 29.0189H18.7244C17.3609 29.0189 16.2556 30.1208 16.2556 31.4802V40.275C16.2556 41.6343 17.3609 42.7362 18.7244 42.7362H23.5708V45L26.5027 42.7363H27.5463C28.9097 42.7363 30.0151 41.6344 30.0151 40.2751V31.4802C30.0151 30.1209 28.9097 29.0189 27.5463 29.0189Z" fill="#FA9084"/>
<path d="M27.5463 29.0189H23.7434C25.1069 29.0189 26.2123 30.1208 26.2123 31.4802V40.2751C26.2123 41.6344 25.1069 42.7363 23.7434 42.7363H23.5708V45L26.5026 42.7363H27.5463C28.9097 42.7363 30.0151 41.6344 30.0151 40.2751V31.4802C30.0151 30.1209 28.9097 29.0189 27.5463 29.0189Z" fill="#FF6CB5"/>
<path d="M23.1353 38.8659C25.2582 37.7406 26.358 36.783 26.358 35.2995C26.358 33.2534 23.8514 32.7418 23.1353 34.2765C22.3168 32.6907 19.9126 33.2535 19.9126 35.2995C19.9126 36.783 21.0125 37.7405 23.1353 38.8659Z" fill="#F7F3F1"/>
</svg>
