<svg width="45" height="45" viewBox="0 0 45 45" fill="none" xmlns="http://www.w3.org/2000/svg">
<path d="M22.5 45C34.9264 45 45 34.9264 45 22.5C45 10.0736 34.9264 0 22.5 0C10.0736 0 0 10.0736 0 22.5C0 34.9264 10.0736 45 22.5 45Z" fill="#54C0EB"/>
<path d="M22.5 39.375C13.2188 39.375 5.625 31.7812 5.625 22.5C5.625 13.2188 13.2188 5.625 22.5 5.625C31.7812 5.625 39.375 13.2188 39.375 22.5C39.375 31.7812 31.7812 39.375 22.5 39.375Z" fill="#F2F2F2"/>
<path d="M22.5 33.75C16.3125 33.75 11.25 28.6875 11.25 22.5C11.25 16.3125 16.3125 11.25 22.5 11.25C28.6875 11.25 33.75 16.3125 33.75 22.5C33.75 28.6875 28.6875 33.75 22.5 33.75Z" fill="#FF7058"/>
<path d="M22.5 28.125C19.4062 28.125 16.875 25.5938 16.875 22.5C16.875 19.4062 19.4062 16.875 22.5 16.875C25.5938 16.875 28.125 19.4062 28.125 22.5C28.125 25.5938 25.5938 28.125 22.5 28.125Z" fill="#CDD6E0"/>
<path d="M22.5 28.125C19.4062 28.125 16.875 25.5938 16.875 22.5C16.875 19.4062 19.4062 16.875 22.5 16.875C25.5938 16.875 28.125 19.4062 28.125 22.5C28.125 25.5938 25.5938 28.125 22.5 28.125Z" fill="#FFD15C"/>
<path opacity="0.2" d="M44.8125 25.3125C44.4375 28.125 43.5937 30.7501 42.2813 33.1875L41.0625 32.7188L39.4688 29.3438L22.5938 23.2501C21.8438 22.9688 21.4688 22.1251 21.75 21.3751C22.0313 20.6251 22.875 20.2501 23.625 20.5314L40.5 26.6251L43.875 25.0314L44.8125 25.3125Z" fill="#334A5E"/>
<path d="M37.875 9.09381L24.0937 22.8751C23.5312 23.4376 22.5937 23.4376 22.0312 22.8751C21.4687 22.3126 21.4687 21.375 22.0312 20.8125L35.9062 7.12506C36.4687 6.56256 37.4062 6.56256 37.9687 7.12506C38.4375 7.68756 38.4375 8.53131 37.875 9.09381Z" fill="#40596B"/>
<path d="M39.1875 5.81247L34.7812 10.2188V4.40622L39.1875 0V5.81247Z" fill="#FF7058"/>
<path d="M40.5938 10.2188L45 5.8125H39.1875L34.7812 10.2188H40.5938Z" fill="#F1543F"/>
</svg>
