<svg width="32" height="32" viewBox="0 0 32 32" fill="none" xmlns="http://www.w3.org/2000/svg">
<g clip-path="url(#clip0)">
<path d="M31.1665 30.4017H28.7691V20.812C29.7393 20.614 30.6014 20.0628 31.1882 19.2652C31.7751 18.4677 32.0449 17.4806 31.9454 16.4954C31.8459 15.5103 31.3841 14.5971 30.6496 13.9331C29.9151 13.269 28.9601 12.9013 27.9699 12.9013C26.9797 12.9013 26.0248 13.269 25.2903 13.9331C24.5558 14.5971 24.094 15.5103 23.9945 16.4954C23.8949 17.4806 24.1648 18.4677 24.7516 19.2652C25.3385 20.0628 26.2006 20.614 27.1708 20.812V30.4017H20.7777V0.83349C20.7857 0.657215 20.7352 0.483227 20.6341 0.338666C20.5329 0.194105 20.3867 0.0871014 20.2183 0.0343483C20.056 -0.0143044 19.8827 -0.0112038 19.7222 0.043219C19.5618 0.0976418 19.4224 0.200683 19.3232 0.338022C18.1188 2.09621 16.6019 3.61847 14.848 4.8292C12.764 5.44213 10.6211 5.83322 8.45492 5.99594C7.42727 6.14699 6.48951 6.6663 5.81621 7.45721C5.14291 8.24812 4.77993 9.25674 4.79485 10.2953V11.2223H2.39742C1.76159 11.2223 1.15179 11.4749 0.702189 11.9245C0.252585 12.3741 0 12.9839 0 13.6198V31.2009C0 31.4128 0.0841952 31.6161 0.234063 31.7659C0.383931 31.9158 0.587196 32 0.799141 32H31.1665C31.3785 32 31.5817 31.9158 31.7316 31.7659C31.8815 31.6161 31.9657 31.4128 31.9657 31.2009C31.9657 30.9889 31.8815 30.7856 31.7316 30.6358C31.5817 30.4859 31.3785 30.4017 31.1665 30.4017ZM25.5725 16.8163C25.5725 16.3422 25.7131 15.8786 25.9766 15.4844C26.24 15.0901 26.6144 14.7828 27.0525 14.6014C27.4906 14.4199 27.9726 14.3725 28.4377 14.465C28.9027 14.5575 29.3299 14.7858 29.6652 15.1211C30.0005 15.4564 30.2288 15.8835 30.3213 16.3486C30.4138 16.8137 30.3663 17.2957 30.1849 17.7338C30.0034 18.1718 29.6961 18.5463 29.3019 18.8097C28.9076 19.0731 28.4441 19.2137 27.9699 19.2137C27.3341 19.2137 26.7243 18.9612 26.2747 18.5116C25.8251 18.0619 25.5725 17.4522 25.5725 16.8163ZM6.39313 30.4017V25.6069H9.5897V30.4017H6.39313ZM11.188 30.4017V24.8077C11.188 24.5958 11.1038 24.3925 10.9539 24.2427C10.804 24.0928 10.6008 24.0086 10.3888 24.0086H5.59399C5.38204 24.0086 5.17878 24.0928 5.02891 24.2427C4.87904 24.3925 4.79485 24.5958 4.79485 24.8077V30.4017H1.59828V13.6198C1.59828 13.4078 1.68248 13.2045 1.83235 13.0547C1.98221 12.9048 2.18548 12.8206 2.39742 12.8206H13.5854C13.7973 12.8206 14.0006 12.9048 14.1505 13.0547C14.3004 13.2045 14.3845 13.4078 14.3845 13.6198V30.4017H11.188ZM15.9828 30.4017V13.6198C15.9828 12.9839 15.7302 12.3741 15.2806 11.9245C14.831 11.4749 14.2212 11.2223 13.5854 11.2223H6.39313V10.2953C6.38836 9.64792 6.6219 9.02138 7.04928 8.53505C7.47665 8.04873 8.06799 7.73661 8.71064 7.65816C11.0169 7.52902 13.2984 7.11567 15.5033 6.42748C16.9199 5.60418 18.1674 4.51946 19.1794 3.23091V30.4017H15.9828Z" fill="white"/>
<path d="M10.3888 17.6155H5.59399C5.38204 17.6155 5.17878 17.6997 5.02891 17.8495C4.87904 17.9994 4.79485 18.2027 4.79485 18.4146C4.79485 18.6266 4.87904 18.8298 5.02891 18.9797C5.17878 19.1296 5.38204 19.2138 5.59399 19.2138H10.3888C10.6008 19.2138 10.804 19.1296 10.9539 18.9797C11.1038 18.8298 11.188 18.6266 11.188 18.4146C11.188 18.2027 11.1038 17.9994 10.9539 17.8495C10.804 17.6997 10.6008 17.6155 10.3888 17.6155Z" fill="white"/>
</g>
<defs>
<clipPath id="clip0">
<rect width="31.9657" height="32" fill="white"/>
</clipPath>
</defs>
</svg>