<svg width="30" height="30" viewBox="0 0 30 30" fill="none" xmlns="http://www.w3.org/2000/svg">
<path d="M26.294 5.13399C26.2699 5.10371 26.2433 5.07548 26.2146 5.04957C24.8094 3.46185 23.083 2.19067 21.1497 1.32016C19.2164 0.449655 17.1203 -0.000326413 15 1.77649e-07C6.72875 1.77649e-07 0 6.73277 0 15C0 23.2672 6.73277 30 15 30C23.2672 30 30 23.2672 30 15C30.0031 11.3835 28.6941 7.88876 26.3161 5.16413L26.294 5.13399ZM28.5841 13.7308H16.5094L25.6619 6.49561C27.323 8.56942 28.3391 11.0851 28.5841 13.7308ZM24.7655 5.47967L15.2382 13.0093V1.35962C18.8327 1.42038 22.2569 2.90165 24.7625 5.47967H24.7655ZM15 28.6434C7.47739 28.6434 1.3566 22.5236 1.3566 15C1.3566 7.85523 6.87848 1.97561 13.8785 1.40283V14.4091C13.8785 14.4172 13.8785 14.4242 13.8785 14.4322C13.8785 14.4403 13.8785 14.4574 13.8785 14.4704C13.8785 14.4835 13.8785 14.4905 13.8785 14.5006C13.8785 14.5106 13.8785 14.5247 13.8836 14.5357C13.8886 14.5468 13.8886 14.5568 13.8906 14.5679L13.8996 14.6001C13.8996 14.6111 13.9067 14.6222 13.9097 14.6322L13.9208 14.6624L13.9358 14.6955C13.9358 14.7046 13.9439 14.7136 13.9489 14.7227C13.9539 14.7317 13.9609 14.7448 13.968 14.7558L13.9821 14.7799L14.0072 14.8151L14.0182 14.8302C14.0333 14.8493 14.0504 14.8674 14.0675 14.8854L14.0745 14.8915C14.0896 14.9055 14.1046 14.9196 14.1207 14.9327L14.1448 14.9508L14.178 14.9749L14.2061 14.991C14.2175 14.9979 14.2293 15.0043 14.2413 15.0101L14.2684 15.0231C14.2818 15.0297 14.2956 15.0354 14.3096 15.0402L14.3338 15.0492L14.383 15.0633L14.4031 15.0683C14.422 15.0724 14.4411 15.0754 14.4604 15.0774H14.4744C14.4985 15.0789 14.5227 15.0789 14.5468 15.0774H28.6424C28.5952 22.5708 22.4945 28.6434 15 28.6434Z" fill="white"/>
<path d="M14.9729 17.4188C14.9264 17.2861 14.8398 17.1712 14.7251 17.0898C14.6104 17.0085 14.4733 16.9648 14.3327 16.9648C14.1922 16.9648 14.0551 17.0085 13.9404 17.0898C13.8257 17.1712 13.7391 17.2861 13.6926 17.4188L12.6204 20.4616L11.8165 22.7346C11.7567 22.9044 11.7667 23.091 11.8445 23.2533C11.9222 23.4157 12.0612 23.5405 12.231 23.6004C12.4008 23.6602 12.5874 23.6501 12.7497 23.5724C12.9121 23.4947 13.0369 23.3556 13.0967 23.1858L13.4233 22.2593H15.2402L15.5677 23.1858C15.6293 23.3528 15.7541 23.4888 15.915 23.5647C16.076 23.6405 16.2603 23.6501 16.4282 23.5913C16.5962 23.5325 16.7343 23.41 16.8128 23.2504C16.8913 23.0907 16.904 22.9066 16.848 22.7377L14.9729 17.4188ZM13.9016 20.9078L14.3327 19.6848L14.7638 20.9078H13.9016Z" fill="white"/>
<path d="M12.119 17.5947C12.1187 17.4149 12.0472 17.2425 11.92 17.1153C11.7929 16.9882 11.6205 16.9166 11.4407 16.9164H8.37074C8.19084 16.9164 8.01831 16.9878 7.89111 17.1151C7.7639 17.2423 7.69244 17.4148 7.69244 17.5947C7.69244 17.7746 7.7639 17.9471 7.89111 18.0743C8.01831 18.2015 8.19084 18.273 8.37074 18.273H9.2269V22.9156C9.2269 23.0955 9.29837 23.268 9.42557 23.3952C9.55278 23.5224 9.72531 23.5939 9.9052 23.5939C10.0851 23.5939 10.2576 23.5224 10.3848 23.3952C10.512 23.268 10.5835 23.0955 10.5835 22.9156V18.273H11.4407C11.6206 18.273 11.7931 18.2015 11.9203 18.0743C12.0475 17.9471 12.119 17.7746 12.119 17.5947Z" fill="white"/>
<path d="M21.36 17.0099C21.2052 16.9182 21.0203 16.8916 20.846 16.9358C20.6716 16.9801 20.5218 17.0916 20.4294 17.246L19.4306 18.9232L18.4327 17.246C18.3871 17.1695 18.3269 17.1027 18.2555 17.0494C18.1841 16.9961 18.1029 16.9575 18.0165 16.9356C17.9302 16.9137 17.8403 16.909 17.7522 16.9219C17.664 16.9347 17.5792 16.9648 17.5027 17.0104C17.4262 17.056 17.3594 17.1162 17.3061 17.1876C17.2528 17.259 17.2141 17.3402 17.1923 17.4266C17.1704 17.5129 17.1657 17.6028 17.1786 17.6909C17.1914 17.7791 17.2215 17.8639 17.2671 17.9404L18.6417 20.2516L17.2671 22.5629C17.2215 22.6394 17.1914 22.7242 17.1786 22.8123C17.1657 22.9005 17.1704 22.9903 17.1923 23.0767C17.2141 23.1631 17.2528 23.2443 17.3061 23.3157C17.3594 23.3871 17.4262 23.4473 17.5027 23.4929C17.5792 23.5385 17.664 23.5686 17.7522 23.5814C17.8403 23.5942 17.9302 23.5896 18.0165 23.5677C18.1029 23.5458 18.1841 23.5071 18.2555 23.4539C18.3269 23.4006 18.3871 23.3338 18.4327 23.2573L19.4306 21.5801L20.4294 23.2573C20.5215 23.4118 20.6712 23.5235 20.8457 23.5677C21.0201 23.6119 21.2049 23.585 21.3595 23.4929C21.5141 23.4008 21.6257 23.2511 21.6699 23.0767C21.7141 22.9023 21.6872 22.7175 21.5951 22.5629L20.2204 20.2516L21.5951 17.9404C21.6872 17.7858 21.7141 17.601 21.67 17.4265C21.6259 17.252 21.5144 17.1022 21.36 17.0099Z" fill="white"/>
</svg>