<svg width="32" height="29" viewBox="0 0 32 29" fill="none" xmlns="http://www.w3.org/2000/svg">
<path d="M16 6.32912C17.7468 6.32912 19.1645 4.91139 19.1645 3.16456C19.1645 1.41772 17.7468 0 16 0C14.2532 0 12.8354 1.41772 12.8354 3.16456C12.8354 4.89874 14.2532 6.32912 16 6.32912ZM16 1.29114C17.0253 1.29114 17.8734 2.12658 17.8734 3.16456C17.8734 4.18987 17.038 5.03798 16 5.03798C14.9747 5.03798 14.1266 4.20253 14.1266 3.16456C14.1392 2.12658 14.9747 1.29114 16 1.29114Z" fill="white"/>
<path d="M9.11393 18.6202C8.8481 18.6835 8.64557 18.924 8.63291 19.2025L8.1519 26.6075C8.13924 26.8987 7.89874 27.1139 7.6076 27.1139H3.93671C3.64557 27.1139 3.40506 26.886 3.39241 26.6075L2.89873 19.2151C2.88608 18.9493 2.6962 18.7215 2.44304 18.6455C2.3038 18.6075 1.89873 18.481 1.83544 18.405C1.78481 18.3291 1.75949 17.9113 1.74684 17.6962L1.3038 9.86071C1.93671 9.67084 2.97468 9.34172 3.51899 9.16451L5.32912 10.8607C5.58228 11.0886 5.96203 11.0886 6.21519 10.8607L8.02532 9.16451C8.20253 9.21514 8.41772 9.29109 8.65823 9.36704C9 9.48096 9.36709 9.29109 9.46836 8.94932C9.58228 8.60755 9.39241 8.24046 9.05064 8.13919C8.50633 7.96198 8.06329 7.82273 8.06329 7.82273C7.83545 7.74679 7.59494 7.81008 7.41772 7.96198L5.77215 9.50628L4.12658 7.96198C3.94937 7.79742 3.70886 7.74679 3.48101 7.82273C3.48101 7.82273 1.74684 8.3797 0.873418 8.64552C0.329114 8.81008 0 9.24046 0 9.81008C0 9.84805 0 9.94932 0 9.94932L0.43038 17.6708C0.43038 17.6708 0.43038 17.7848 0.443038 17.8101C0.518987 18.9493 0.683544 19.367 1.63291 19.7341L2.08861 26.6962C2.1519 27.6582 2.96203 28.4177 3.92405 28.4177H7.59494C8.55696 28.4177 9.36709 27.6582 9.43038 26.6962L9.89874 19.481C9.94937 19.3544 9.94937 19.2025 9.9114 19.0632C9.82279 18.7215 9.4557 18.5316 9.11393 18.6202Z" fill="white"/>
<path d="M5.7595 6.77223C7.50633 6.77223 8.92406 5.35451 8.92406 3.60767C8.92406 1.86084 7.50633 0.443115 5.7595 0.443115C4.01266 0.443115 2.59494 1.86084 2.59494 3.60767C2.59494 5.35451 4.02532 6.77223 5.7595 6.77223ZM5.7595 1.74691C6.78481 1.74691 7.63292 2.58236 7.63292 3.62033C7.63292 4.65831 6.79747 5.49375 5.7595 5.49375C4.73418 5.49375 3.88608 4.65831 3.88608 3.62033C3.88608 2.58236 4.73418 1.74691 5.7595 1.74691Z" fill="white"/>
<path d="M20.8987 8.62025C20.0253 8.35443 18.2912 7.79747 18.2912 7.79747C18.0633 7.72152 17.8228 7.78481 17.6456 7.93671L16 9.48101L14.3544 7.93671C14.1772 7.77215 13.9367 7.72152 13.7089 7.79747C13.7089 7.79747 11.9747 8.35443 11.1013 8.62025C10.5443 8.78481 10.2279 9.21519 10.2279 9.78481L10.6582 17.6709L10.6709 17.7975C10.7468 18.9367 10.9114 19.3671 11.8608 19.7215L12.3165 26.6835C12.3798 27.6456 13.1899 28.4051 14.1519 28.4051H17.8355C18.7975 28.4051 19.6076 27.6456 19.6709 26.6835L20.1266 19.7215C21.076 19.3544 21.2405 18.9241 21.3165 17.7975L21.7595 9.89873V9.78481C21.7722 9.20253 21.4557 8.78481 20.8987 8.62025ZM20.038 17.5696L20.0253 17.6962C20.0127 17.8987 19.9874 18.3038 19.9367 18.3797C19.8734 18.4557 19.4557 18.5823 19.3165 18.6203C19.0633 18.6962 18.8734 18.9241 18.8608 19.2025L18.3798 26.5949C18.3671 26.8861 18.1266 27.1013 17.8355 27.1013H14.1519C13.8608 27.1013 13.6329 26.8734 13.6076 26.5949L13.1266 19.2025C13.1139 18.9367 12.9241 18.7089 12.6709 18.6203C12.5317 18.5823 12.1266 18.4557 12.0633 18.3797C12.0127 18.3038 11.9874 17.8861 11.9747 17.6962L11.5317 9.86076V9.82278C12.1646 9.63291 13.2025 9.3038 13.7468 9.12658L15.557 10.8228C15.8101 11.0506 16.1899 11.0506 16.443 10.8228L18.2532 9.13924C18.7975 9.31645 19.8355 9.64557 20.4684 9.83544L20.038 17.5696Z" fill="white"/>
<path d="M31.1392 8.62025C30.2658 8.35443 28.5316 7.79747 28.5316 7.79747C28.3038 7.72152 28.0633 7.78481 27.8861 7.93671L26.2405 9.48101L24.5949 7.93671C24.4177 7.77215 24.1772 7.72152 23.9494 7.79747C23.9494 7.79747 23.5063 7.93671 22.962 8.11392C22.6203 8.22785 22.4304 8.58228 22.5443 8.92405C22.6582 9.26582 23.0127 9.45569 23.3544 9.34177C23.5949 9.26582 23.8101 9.18987 23.9873 9.13924L25.7975 10.8354C26.0506 11.0633 26.4304 11.0633 26.6835 10.8354L28.4937 9.13924C29.038 9.31645 30.0633 9.63291 30.7089 9.83544L30.2785 17.5696L30.2658 17.6962C30.2532 17.8987 30.2278 18.3038 30.1772 18.3797C30.1139 18.4557 29.6962 18.5823 29.557 18.6203C29.3038 18.6962 29.1139 18.9241 29.1013 19.2025L28.6203 26.5949C28.5949 26.8861 28.3544 27.1013 28.076 27.1013H24.3924C24.1139 27.1013 23.8734 26.8734 23.8481 26.5949L23.3544 19.2025C23.3418 18.9367 23.1266 18.7089 22.8734 18.6203C22.5316 18.5063 22.1899 18.6962 22.076 19.038C22.038 19.1646 22.038 19.3038 22.076 19.4177L22.557 26.6835C22.6203 27.6456 23.4177 28.4051 24.3924 28.4051H28.076C29.038 28.4051 29.8481 27.6456 29.9114 26.6835L30.3671 19.7215C31.3165 19.3544 31.481 18.9367 31.557 17.8101C31.557 17.7595 31.5696 17.6456 31.5696 17.6456L32 9.88607V9.77215C32 9.21519 31.6835 8.78481 31.1392 8.62025Z" fill="white"/>
<path d="M26.2405 6.77223C27.9874 6.77223 29.4051 5.35451 29.4051 3.60767C29.4051 1.86084 27.9874 0.443115 26.2405 0.443115C24.4937 0.443115 23.076 1.86084 23.076 3.60767C23.076 5.35451 24.4937 6.77223 26.2405 6.77223ZM26.2405 1.74691C27.2658 1.74691 28.1139 2.58236 28.1139 3.62033C28.1139 4.65831 27.2785 5.49375 26.2405 5.49375C25.2152 5.49375 24.3671 4.65831 24.3671 3.62033C24.3671 2.58236 25.2025 1.74691 26.2405 1.74691Z" fill="white"/>
</svg>