<svg width="56" height="56" viewBox="0 0 56 56" fill="none" xmlns="http://www.w3.org/2000/svg">
<path d="M54.125 23.8751C54.4897 23.8751 54.8394 23.7302 55.0973 23.4723C55.3551 23.2145 55.5 22.8647 55.5 22.5001V18.3751C55.5027 18.3293 55.5027 18.2834 55.5 18.2376C55.5154 18.1465 55.5154 18.0536 55.5 17.9626C55.5104 17.8804 55.5104 17.7972 55.5 17.7151C55.4643 17.6359 55.4181 17.5619 55.3625 17.4951C55.2916 17.438 55.2271 17.3735 55.17 17.3026L40.21 8.03506C39.051 5.79691 37.2991 3.92038 35.1457 2.61053C32.9924 1.30069 30.5204 0.60791 28 0.60791C25.4796 0.60791 23.0076 1.30069 20.8543 2.61053C18.7009 3.92038 16.949 5.79691 15.79 8.03506L1.1325 17.2201L0.9125 17.4126C0.856948 17.4794 0.810695 17.5534 0.775 17.6326C0.764647 17.7147 0.764647 17.7979 0.775 17.8801C0.759614 17.9711 0.759614 18.064 0.775 18.1551C0.775 18.1551 0.775 18.1551 0.775 18.2926V22.5001C0.775 22.8647 0.919866 23.2145 1.17773 23.4723C1.43559 23.7302 1.78533 23.8751 2.15 23.8751H3.25V44.5001H1.875C1.51033 44.5001 1.16059 44.6449 0.902728 44.9028C0.644866 45.1607 0.5 45.5104 0.5 45.8751V54.1251C0.5 54.4897 0.644866 54.8395 0.902728 55.0973C1.16059 55.3552 1.51033 55.5001 1.875 55.5001H54.125C54.4897 55.5001 54.8394 55.3552 55.0973 55.0973C55.3551 54.8395 55.5 54.4897 55.5 54.1251V45.8751C55.5 45.5104 55.3551 45.1607 55.0973 44.9028C54.8394 44.6449 54.4897 44.5001 54.125 44.5001H52.75V23.8751H54.125ZM52.75 19.1451V21.1251H39.825C41.0769 19.0498 41.7422 16.6737 41.75 14.2501C41.7326 13.5395 41.6591 12.8315 41.53 12.1326L52.75 19.1451ZM25.25 44.5001V27.7251C27.065 28.0917 28.935 28.0917 30.75 27.7251V44.5001H25.25ZM14.25 44.5001C14.263 44.3997 14.263 44.298 14.25 44.1976V23.8751H18.21C19.4373 25.1298 20.8935 26.1379 22.5 26.8451V44.5001H14.25ZM33.5 26.8451C35.1065 26.1379 36.5627 25.1298 37.79 23.8751H41.75V44.1976C41.737 44.298 41.737 44.3997 41.75 44.5001H33.5V26.8451ZM28 3.25006C30.1756 3.25006 32.3023 3.8952 34.1113 5.1039C35.9202 6.31259 37.3301 8.03056 38.1627 10.0405C38.9952 12.0505 39.2131 14.2623 38.7886 16.3961C38.3642 18.5299 37.3166 20.4899 35.7782 22.0282C34.2398 23.5666 32.2798 24.6143 30.146 25.0387C28.0122 25.4631 25.8005 25.2453 23.7905 24.4127C21.7805 23.5802 20.0625 22.1703 18.8538 20.3613C17.6451 18.5524 17 16.4257 17 14.2501C17 11.3327 18.1589 8.53479 20.2218 6.47189C22.2847 4.40899 25.0826 3.25006 28 3.25006ZM16.175 21.1251H3.25V19.1451L14.47 12.1326C14.3395 12.8313 14.266 13.5394 14.25 14.2501C14.2578 16.6737 14.9231 19.0498 16.175 21.1251ZM6 23.8751H11.5V44.1976C11.487 44.298 11.487 44.3997 11.5 44.5001H6V23.8751ZM52.75 52.7501H3.25V47.2501H52.75V52.7501ZM50 44.5001H44.5C44.513 44.3997 44.513 44.298 44.5 44.1976V23.8751H50V44.5001Z" fill="white"/>
<path d="M28 19.75C29.0878 19.75 30.1512 19.4274 31.0556 18.8231C31.9601 18.2187 32.6651 17.3598 33.0813 16.3548C33.4976 15.3498 33.6065 14.2439 33.3943 13.177C33.1821 12.1101 32.6583 11.1301 31.8891 10.3609C31.1199 9.59173 30.1399 9.0679 29.073 8.85568C28.0061 8.64346 26.9002 8.75238 25.8952 9.16866C24.8902 9.58495 24.0313 10.2899 23.4269 11.1944C22.8226 12.0988 22.5 13.1622 22.5 14.25C22.5 15.7087 23.0795 17.1076 24.1109 18.1391C25.1424 19.1705 26.5413 19.75 28 19.75ZM28 11.5C28.5439 11.5 29.0756 11.6613 29.5278 11.9635C29.9801 12.2656 30.3325 12.6951 30.5407 13.1976C30.7488 13.7001 30.8033 14.2531 30.6972 14.7865C30.5911 15.3199 30.3291 15.81 29.9445 16.1945C29.5599 16.5791 29.0699 16.8411 28.5365 16.9472C28.0031 17.0533 27.4501 16.9988 26.9476 16.7907C26.4451 16.5825 26.0156 16.2301 25.7135 15.7778C25.4113 15.3256 25.25 14.7939 25.25 14.25C25.25 13.5207 25.5397 12.8212 26.0555 12.3055C26.5712 11.7897 27.2707 11.5 28 11.5Z" fill="white"/>
</svg>