<svg width="505" height="575" viewBox="0 0 505 575" fill="none" xmlns="http://www.w3.org/2000/svg">
<circle opacity="0.7" cx="257.5" cy="315.5" r="315.5" fill="url(#paint0_linear)"/>
<path d="M200.646 173.59L179.901 180.049L192.155 181.871L193.048 194.389L200.646 173.59Z" stroke="url(#paint1_linear)" stroke-width="4" stroke-linecap="round" stroke-linejoin="round"/>
<path d="M189.986 418.187L169.24 424.646L181.495 426.468L182.388 438.986L189.986 418.187Z" stroke="url(#paint2_linear)" stroke-width="4" stroke-linecap="round" stroke-linejoin="round"/>
<path d="M429.331 398.68L408.585 405.138L420.84 406.96L421.732 419.478L429.331 398.68Z" stroke="url(#paint3_linear)" stroke-width="4" stroke-linecap="round" stroke-linejoin="round"/>
<rect x="190.045" y="182.004" width="2.87852" height="142.789" transform="rotate(46.3889 190.045 182.004)" fill="url(#paint4_linear)"/>
<rect x="179.385" y="426.601" width="2.87852" height="142.789" transform="rotate(46.3889 179.385 426.601)" fill="url(#paint5_linear)"/>
<rect x="419.48" y="406.343" width="2.87852" height="142.789" transform="rotate(46.3889 419.48 406.343)" fill="url(#paint6_linear)"/>
<rect x="291.02" y="435.606" width="2.87852" height="259.067" transform="rotate(46.3889 291.02 435.606)" fill="url(#paint7_linear)"/>
<path d="M252.822 343.487L218.956 368.266C218.406 365.88 215.983 360.887 210.697 360.006C212.486 354.913 214.276 342.661 204.226 333.712C196.187 326.554 186.468 327.242 182.751 328.481C178.001 330.064 175.868 331.785 172.151 334.951M263.422 354.087L238.642 387.952C241.028 388.503 246.021 390.926 246.902 396.212C251.996 394.422 264.248 392.633 273.196 402.682C280.355 410.722 279.666 420.441 278.427 424.158C276.844 428.907 275.123 431.041 271.957 434.758M362.989 243.903C345.413 245.326 302.463 256.51 271.406 289.109C252.684 288.889 247.636 288.834 247.453 288.834L213.587 336.741L249.242 313.201L242.222 324.902L258.053 334.951L258.322 348.57L271.406 349.131L282.006 364.687L293.708 357.666L270.167 393.321L318.074 359.456C318.074 359.272 318.019 354.224 317.799 335.502C350.398 304.445 361.566 261.478 362.989 243.903Z" stroke="url(#paint8_linear)" stroke-width="4" stroke-linejoin="round"/>
<circle cx="303.344" cy="303.683" r="15.7562" transform="rotate(45 303.344 303.683)" stroke="url(#paint9_linear)" stroke-width="4"/>
<defs>
<linearGradient id="paint0_linear" x1="257.5" y1="0" x2="257.5" y2="631" gradientUnits="userSpaceOnUse">
<stop stop-color="#FDE8E8" stop-opacity="0.25"/>
<stop offset="1" stop-color="#FDE8E8" stop-opacity="0"/>
</linearGradient>
<linearGradient id="paint1_linear" x1="196.687" y1="173.477" x2="195.438" y2="216.944" gradientUnits="userSpaceOnUse">
<stop stop-color="#E75669"/>
<stop offset="1" stop-color="#FF8D4D" stop-opacity="0"/>
</linearGradient>
<linearGradient id="paint2_linear" x1="186.027" y1="418.074" x2="184.778" y2="461.541" gradientUnits="userSpaceOnUse">
<stop stop-color="#E75669"/>
<stop offset="1" stop-color="#FF8D4D" stop-opacity="0"/>
</linearGradient>
<linearGradient id="paint3_linear" x1="425.372" y1="398.566" x2="424.123" y2="442.034" gradientUnits="userSpaceOnUse">
<stop stop-color="#E75669"/>
<stop offset="1" stop-color="#FF8D4D" stop-opacity="0"/>
</linearGradient>
<linearGradient id="paint4_linear" x1="191.484" y1="182.004" x2="191.484" y2="324.793" gradientUnits="userSpaceOnUse">
<stop stop-color="#E75C6C"/>
<stop offset="1" stop-color="white" stop-opacity="0"/>
</linearGradient>
<linearGradient id="paint5_linear" x1="180.824" y1="426.601" x2="180.824" y2="569.39" gradientUnits="userSpaceOnUse">
<stop stop-color="#E75C6C"/>
<stop offset="1" stop-color="white" stop-opacity="0"/>
</linearGradient>
<linearGradient id="paint6_linear" x1="420.919" y1="406.343" x2="420.919" y2="549.132" gradientUnits="userSpaceOnUse">
<stop stop-color="#E75C6C"/>
<stop offset="1" stop-color="white" stop-opacity="0"/>
</linearGradient>
<linearGradient id="paint7_linear" x1="292.46" y1="435.606" x2="292.46" y2="694.673" gradientUnits="userSpaceOnUse">
<stop stop-color="white" stop-opacity="0.1"/>
<stop offset="1" stop-color="white" stop-opacity="0"/>
</linearGradient>
<linearGradient id="paint8_linear" x1="362.884" y1="244.024" x2="222.054" y2="384.855" gradientUnits="userSpaceOnUse">
<stop stop-color="#E65669"/>
<stop offset="1" stop-color="#FF7A00" stop-opacity="0"/>
</linearGradient>
<linearGradient id="paint9_linear" x1="303.344" y1="287.927" x2="303.344" y2="319.439" gradientUnits="userSpaceOnUse">
<stop stop-color="#E65669"/>
<stop offset="1" stop-color="#FF7A00" stop-opacity="0"/>
</linearGradient>
</defs>
</svg>
