<svg width="39" height="18" viewBox="0 0 39 18" fill="none" xmlns="http://www.w3.org/2000/svg">
<path d="M16.264 0.798264C16.9889 1.60119 17.7812 2.26744 18.4555 3.05328C18.6073 3.2412 18.8096 3.39495 18.9781 3.56578C20.5122 5.15454 22.0463 6.72622 23.5972 8.31498C23.7152 8.45165 23.8164 8.65665 23.9681 8.69082C24.1536 8.72498 24.3053 8.55415 24.4739 8.45165C26.1428 7.52914 27.7949 6.60664 29.447 5.70121C32.2454 4.1637 35.0607 2.62619 37.876 1.0716C37.9434 1.03743 38.0277 1.00327 38.112 0.986182C32.9534 6.69205 27.6769 12.2783 22.4677 17.95C22.3835 17.8646 22.316 17.8134 22.2654 17.7621C20.7482 16.1392 19.231 14.5163 17.7138 12.9104C16.8203 11.9538 15.91 10.9971 15.0165 10.0404C14.8816 9.88666 14.7805 9.86958 14.595 9.97208C11.1729 11.8854 7.75068 13.7817 4.3285 15.6779C3.09786 16.3613 1.86722 17.0446 0.636585 17.728C0.602869 17.745 0.552295 17.7792 0.484863 17.7621C0.484863 17.6767 0.552295 17.6255 0.602869 17.5742C2.50783 15.5242 4.42964 13.4913 6.3346 11.4413C7.75068 9.92083 9.16675 8.38331 10.5828 6.8458C11.3414 6.0258 12.1169 5.20579 12.8924 4.40287C13.6173 3.63412 14.359 2.86536 15.0671 2.09661C15.4548 1.65244 15.8257 1.20827 16.264 0.798264Z" fill="white"/>
</svg>
