<svg width="34" height="29" viewBox="0 0 34 29" fill="none" xmlns="http://www.w3.org/2000/svg">
<path d="M9.13902 16.8122C7.49707 16.3054 5.83837 15.7817 4.19643 15.2749C3.39221 15.0214 2.58799 14.768 1.78378 14.5146C1.48219 14.4133 1.19737 14.3119 0.94605 14.1261C0.476923 13.7713 0.443412 13.332 0.845521 12.8928C1.11359 12.5887 1.44869 12.386 1.81728 12.2339C2.78905 11.8453 3.76081 11.4568 4.73258 11.0682C11.4344 8.46651 18.1362 5.84792 24.8548 3.24622C26.9826 2.4184 29.0937 1.59059 31.2215 0.762775C31.5063 0.644516 31.8079 0.576939 32.1262 0.627621C32.7629 0.728986 33.2488 1.25271 33.3158 1.92847C33.3493 2.30014 33.3326 2.67181 33.2655 3.04349C32.4446 6.92914 31.6236 10.8317 30.8026 14.7173C30.1325 17.9272 29.4455 21.1371 28.7753 24.3639C28.6245 25.0904 28.4738 25.8168 28.323 26.5433C28.2559 26.898 28.1554 27.2359 27.9879 27.5569C27.6528 28.182 27.1166 28.4185 26.4297 28.2834C26.0108 28.1989 25.6422 28.0131 25.3071 27.7596C22.995 26.0364 20.6829 24.2963 18.354 22.5731C18.2535 22.4887 18.1362 22.4211 18.0357 22.3535C17.6336 22.2352 17.3487 21.9312 17.0304 21.6946C15.9246 20.8837 14.8188 20.039 13.713 19.2281C13.6292 19.1605 13.5455 19.0929 13.4784 19.0085C13.3779 18.8395 13.4784 18.7382 13.579 18.6368C15.0869 17.2853 16.578 15.8999 18.0859 14.5484C19.175 13.5516 20.2808 12.5549 21.3698 11.5581C22.4589 10.5614 23.5479 9.58153 24.637 8.60166C25.4914 7.82453 26.3459 7.06429 27.1837 6.28716C27.2507 6.21959 27.3177 6.15201 27.3847 6.08443C27.435 6.01686 27.502 5.94928 27.4685 5.86481C27.435 5.76344 27.3344 5.76345 27.2507 5.76345C26.9491 5.72966 26.6978 5.84792 26.4465 5.99996C25.525 6.55747 24.637 7.14877 23.7322 7.72317C20.9845 9.46326 18.22 11.2203 15.4722 12.9604C13.579 14.1598 11.6857 15.3593 9.79245 16.5757C9.57464 16.694 9.42384 16.9136 9.13902 16.8122Z" fill="#FCFDFE"/>
<path d="M9.13916 16.8121C9.59153 16.6263 9.97689 16.3222 10.3957 16.0688C11.6021 15.3086 12.8084 14.5483 14.0147 13.7712C14.8692 13.2306 15.7069 12.6731 16.5614 12.1325C17.9688 11.2371 19.3929 10.3417 20.8171 9.44628C21.8056 8.8212 22.7941 8.17922 23.7994 7.53724C24.6706 6.97973 25.5418 6.42222 26.4131 5.86471C26.6979 5.69577 26.9827 5.5944 27.3346 5.62819C27.4351 5.64509 27.5356 5.64509 27.5691 5.74645C27.6194 5.84782 27.5859 5.94918 27.5021 6.05055C27.3011 6.25328 27.1168 6.4729 26.8822 6.65874C26.4633 6.99662 26.0947 7.38519 25.6926 7.73997C25.0392 8.29748 24.436 8.90567 23.7826 9.46317C23.5145 9.69969 23.2632 9.95311 22.9952 10.1896C22.6098 10.5106 22.2412 10.8992 21.8726 11.2371C21.3029 11.7608 20.7165 12.2676 20.1469 12.7744C19.8956 13.011 19.6275 13.2475 19.3929 13.484C18.773 14.0753 18.1196 14.6328 17.4997 15.2241C16.7457 15.9168 15.975 16.5925 15.2378 17.3021C14.7017 17.8089 14.132 18.2819 13.5791 18.7719C13.4953 18.8394 13.4953 18.907 13.5456 18.9915C13.4283 20.9005 13.2943 22.8096 13.177 24.7186C13.1435 25.2255 13.0765 25.7154 13.0932 26.2222C13.0932 26.3743 13.0932 26.5094 12.9759 26.6277C12.8754 26.6615 12.7581 26.6615 12.6576 26.6615C12.356 26.6446 12.1382 26.4925 12.0544 26.2053C11.9707 25.9012 11.8701 25.614 11.7864 25.3099C10.9654 22.59 10.1444 19.8531 9.32346 17.1331C9.23969 17.0149 9.18942 16.9135 9.13916 16.8121Z" fill="#CCD9E9"/>
<path d="M12.9255 26.6108C12.8753 25.952 12.9925 25.2931 13.0093 24.6511C13.0428 23.9416 13.1098 23.232 13.1433 22.5225C13.1936 21.796 13.2439 21.0696 13.2941 20.36C13.3109 19.9883 13.3444 19.6167 13.3444 19.2619C13.3444 19.1436 13.3779 19.0592 13.4952 18.9916C14.8523 20.0052 16.2094 21.002 17.5498 22.0156C17.7006 22.1339 17.8681 22.2184 17.9854 22.3704C16.7288 23.6037 15.4555 24.8369 14.1989 26.0702C13.8638 26.4081 13.4617 26.6784 12.9255 26.6108Z" fill="#B1C8DB"/>
</svg>
