<svg width="34" height="35" viewBox="0 0 34 35" fill="none" xmlns="http://www.w3.org/2000/svg">
<path d="M0.344482 8.15222C0.395516 6.05957 1.34814 4.48151 3.06626 3.34942C3.78072 2.86914 4.56323 2.49178 5.41379 2.32025C6.29836 2.13157 7.14892 2.25164 7.8974 2.81769C8.39073 3.1779 8.79899 3.62387 9.20726 4.06984C10.5681 5.57929 11.7249 7.20881 12.6605 9.02702C12.8136 9.33577 12.9497 9.66167 13.0518 10.0047C13.341 10.9824 13.1198 11.8401 12.4734 12.5948C12.2352 12.8693 11.9631 13.1094 11.6739 13.3324C11.4017 13.5211 11.1295 13.7269 10.8743 13.967C10.279 14.5331 10.1088 15.2192 10.296 16.0082C10.364 16.3341 10.4831 16.6429 10.6022 16.9345C11.2996 18.4782 12.2352 19.8676 13.443 21.0683C14.1575 21.7716 14.923 22.3891 15.7735 22.9208C16.5901 23.4354 17.4066 23.9157 18.3252 24.2416C19.1758 24.5503 19.8222 24.3617 20.3835 23.6412C20.6217 23.3325 20.8258 23.0066 21.098 22.715C21.6083 22.1661 22.1867 21.7544 22.9182 21.5829C23.7177 21.3942 24.4832 21.5314 25.2147 21.8573C25.9121 22.1489 26.5245 22.5949 27.1369 23.0237C28.3617 23.8814 29.5525 24.7905 30.7093 25.7339C31.0155 25.9912 31.2877 26.2828 31.5428 26.6087C32.1382 27.3977 32.2573 28.2725 32.0021 29.1988C31.764 30.0907 31.3217 30.8626 30.7433 31.5659C29.7396 32.8009 28.5148 33.7271 27.0009 34.2246C26.5926 34.3618 26.1843 34.4475 25.759 34.4818C25.2147 34.5333 24.7044 34.3446 24.194 34.1902C23.7007 34.053 23.2414 33.8129 22.7821 33.607C20.4856 32.5779 18.2742 31.36 16.1818 29.9535C13.0348 27.8437 10.2279 25.3737 7.77833 22.4748C5.95814 20.3136 4.37611 17.9808 3.03223 15.4765C2.16467 13.8813 1.39917 12.2346 0.752747 10.5365C0.497581 9.79889 0.344482 8.85549 0.344482 8.15222Z" fill="white"/>
<path d="M33.1078 15.1334C33.0908 15.6995 33.1589 16.1111 33.1078 16.5056C32.9888 17.4834 32.1382 17.9979 31.2366 17.6206C30.6923 17.3976 30.5221 16.9173 30.4711 16.3856C30.4201 15.7338 30.369 15.082 30.267 14.4302C29.9268 12.4233 29.3824 10.485 28.3107 8.73541C27.5112 7.4318 26.4735 6.36832 25.1807 5.52783C23.6837 4.55012 22.0166 3.98408 20.2815 3.58956C19.533 3.41804 18.7675 3.28081 18.002 3.2122C17.8149 3.19505 17.6448 3.16074 17.4746 3.09213C16.9473 2.90345 16.6751 2.50894 16.7091 1.94289C16.7772 0.948027 17.3386 0.553514 18.1041 0.553514C21.013 0.502055 23.6667 1.27393 26.0993 2.86915C27.5282 3.81255 28.804 4.92748 29.8587 6.28256C31.9 8.90694 33.0908 11.8915 33.1078 15.1334Z" fill="white"/>
<path d="M28.7019 14.8247C28.6849 15.1163 28.7359 15.4937 28.6509 15.871C28.5318 16.5057 28.0895 16.8659 27.4261 16.8831C26.7286 16.9002 26.2863 16.5915 26.1332 15.9568C26.0652 15.7167 26.0652 15.4594 26.0311 15.2021C25.9121 14.0528 25.6399 12.9208 25.1976 11.8401C24.5852 10.2964 23.4795 9.25005 21.9655 8.59824C20.9108 8.15227 19.8221 7.82636 18.6993 7.65484C18.3931 7.60338 18.104 7.53477 17.8318 7.39754C17.6957 7.32893 17.5766 7.24317 17.4916 7.1231C17.1173 6.65997 17.1343 6.16254 17.3385 5.64795C17.5086 5.18483 17.8658 4.92753 18.3591 4.87607C18.7674 4.82462 19.1757 4.89323 19.5839 4.96184C20.7237 5.13337 21.8294 5.42496 22.8841 5.9224C24.228 6.5742 25.3847 7.48331 26.3714 8.6154C27.2049 9.59311 27.8343 10.6737 28.2426 11.8916C28.5318 12.835 28.6849 13.7784 28.7019 14.8247Z" fill="white"/>
<path d="M24.4662 14.4989C24.4662 14.8419 24.4662 15.185 24.3471 15.5109C24.177 16.0083 23.8198 16.2999 23.3095 16.3685C22.7821 16.4371 22.3568 16.2485 22.0677 15.8025C21.9146 15.5795 21.8465 15.3394 21.8125 15.0821C21.7444 14.6532 21.6934 14.2073 21.5233 13.8128C21.1661 12.938 20.4856 12.4234 19.601 12.1832C19.4309 12.1318 19.2438 12.0975 19.0737 12.0632C18.9376 12.0289 18.7845 11.9946 18.6484 11.9603C18.019 11.7716 17.6958 11.3771 17.6958 10.8282C17.6958 10.1764 18.053 9.64463 18.6484 9.4731C19.2268 9.30157 19.8222 9.33587 20.4006 9.49025C21.7785 9.88476 22.7991 10.7596 23.5987 11.9259C24.126 12.6807 24.4662 13.5383 24.4662 14.4989Z" fill="white"/>
</svg>
