<svg width="38" height="38" viewBox="0 0 38 38" fill="none" xmlns="http://www.w3.org/2000/svg">
<path d="M6.92186 0.726967C7.45242 0.748366 7.98299 0.748366 8.49232 0.833963C8.89555 0.898161 9.23511 1.09076 9.48978 1.41175C9.76567 1.75413 9.95667 2.11792 10.1052 2.52451C10.8692 4.62164 11.6545 6.74016 12.4397 8.83729C12.567 9.20108 12.7156 9.54347 12.8217 9.90725C12.949 10.3138 12.9703 10.699 12.7792 11.1056C12.5246 11.6834 12.2275 12.2184 11.8242 12.6892C11.2937 13.2883 10.7843 13.9089 10.2113 14.4653C10.1264 14.5509 10.0416 14.6365 9.95667 14.7221C9.59589 15.1287 9.511 15.5567 9.74444 16.0488C9.95667 16.4554 10.1477 16.862 10.3811 17.2472C11.2937 18.7452 12.2699 20.1789 13.4159 21.4843C14.477 22.704 15.6443 23.7954 16.9176 24.7797C17.9575 25.5929 19.0611 26.2991 20.2283 26.8983C20.9074 27.2621 21.5865 27.6044 22.2869 27.9254C22.8811 28.2036 23.4329 28.1608 23.921 27.6044C24.9609 26.4489 26.022 25.3361 26.9558 24.095C27.0832 23.9024 27.2529 23.7526 27.4227 23.6028C27.7198 23.3674 28.0382 23.2818 28.3989 23.3888C29.1205 23.5814 29.7784 23.9238 30.4363 24.2662C32.3463 25.2719 34.2351 26.2991 36.1451 27.3263C36.2088 27.3691 36.2725 27.3905 36.3361 27.4333C36.994 27.7542 37.3124 28.2464 37.2487 29.0382C37.1638 30.0654 36.9091 31.0283 36.612 32.0127C36.3573 32.8687 35.8692 33.5748 35.2326 34.174C34.7869 34.602 34.32 34.9658 33.8107 35.2868C32.4312 36.1642 30.9456 36.7419 29.3115 36.9987C28.1655 37.1699 27.0619 37.0629 25.9584 36.7633C24.2181 36.2498 22.5203 35.6292 20.865 34.923C20.0161 34.5592 19.1672 34.1954 18.3395 33.8102C17.0025 33.1897 15.7504 32.4407 14.5619 31.5847C12.9278 30.4292 11.421 29.1238 10.0203 27.69C8.95922 26.6201 7.96176 25.4645 7.00675 24.2876C5.54241 22.4686 4.31151 20.5213 3.05939 18.5526C1.97704 16.862 1.12815 15.0431 0.597588 13.0957C0.258029 11.8546 0.0670264 10.592 0.151916 9.30807C0.300473 6.82576 1.0857 4.60023 2.78349 2.7171C3.27161 2.18212 3.7385 1.66854 4.31151 1.24055C4.90574 0.833965 5.54241 0.619972 6.26397 0.641371C6.49742 0.726968 6.70964 0.726967 6.92186 0.726967Z" fill="white"/>
</svg>
